<svg width="40" height="40" viewBox="0 0 40 40" fill="none" xmlns="http://www.w3.org/2000/svg">
<path d="M39.6707 11.4253L20.3373 0.0918907C20.134 -0.0267812 19.884 -0.0307655 19.678 0.0832188L0.344688 10.7499C0.132031 10.8666 0 11.0906 0 11.3332V39.3332C0 39.7019 0.298672 39.9999 0.666641 39.9999H4C4.36797 39.9999 4.66664 39.7019 4.66664 39.3332V15.9999H35.3333V39.3333C35.3333 39.702 35.6313 39.9999 35.9999 39.9999H39.3333C39.702 39.9999 39.9999 39.702 39.9999 39.3333V11.9999C40 11.7632 39.8747 11.5445 39.6707 11.4253ZM38.6666 38.6666H36.6666V15.3332C36.6666 14.9653 36.3687 14.6666 36 14.6666H4C3.63203 14.6666 3.33336 14.9653 3.33336 15.3332V38.6666H1.33336V11.7266L19.99 1.43322L38.6666 12.3819V38.6666Z" fill="#2D3033"/>
<path d="M33.3334 30.6665H25.3334C24.9647 30.6665 24.6667 30.9645 24.6667 31.3331V39.3331C24.6667 39.7018 24.9647 39.9998 25.3334 39.9998H33.3334C33.702 39.9998 34 39.7018 34 39.3331V31.3331C34 30.9645 33.702 30.6665 33.3334 30.6665ZM32.6666 38.6665H26V31.9999H32.6666V38.6665Z" fill="#2D3033"/>
<path d="M30 31.3333V33.3333H28.6666V31.3333H27.3333V33.9999C27.3333 34.3686 27.6313 34.6665 27.9999 34.6665H30.6666C31.0352 34.6665 31.3332 34.3686 31.3332 33.9999V31.3333H30Z" fill="#2D3033"/>
<path d="M25.3334 30.6665H17.3334C16.9654 30.6665 16.6667 30.9645 16.6667 31.3331V39.3331C16.6667 39.7018 16.9654 39.9998 17.3334 39.9998H25.3334C25.702 39.9998 26 39.7018 26 39.3331V31.3331C26 30.9645 25.702 30.6665 25.3334 30.6665ZM24.6666 38.6665H18V31.9999H24.6666V38.6665Z" fill="#2D3033"/>
<path d="M22 31.3333V33.3333H20.6666V31.3333H19.3333V33.9999C19.3333 34.3686 19.632 34.6665 19.9999 34.6665H22.6666C23.0352 34.6665 23.3332 34.3686 23.3332 33.9999V31.3333H22Z" fill="#2D3033"/>
<path d="M33.3334 22.6665H25.3334C24.9647 22.6665 24.6667 22.9645 24.6667 23.3331V31.3331C24.6667 31.7018 24.9647 31.9998 25.3334 31.9998H33.3334C33.702 31.9998 34 31.7018 34 31.3331V23.3331C34 22.9645 33.702 22.6665 33.3334 22.6665ZM32.6666 30.6665H26V23.9999H32.6666V30.6665Z" fill="#2D3033"/>
<path d="M30 23.333V25.333H28.6666V23.333H27.3333V25.9996C27.3333 26.3683 27.6313 26.6663 27.9999 26.6663H30.6666C31.0352 26.6663 31.3332 26.3683 31.3332 25.9996V23.333H30Z" fill="#2D3033"/>
<path d="M36 19.9998H4V21.3331H36V19.9998Z" fill="#2D3033"/>
<path d="M36 17.333H4V18.6664H36V17.333Z" fill="#2D3033"/>
<path d="M23.3334 9.33301H16.6667C16.2988 9.33301 16.0001 9.63168 16.0001 9.99965V12.6663C16.0001 13.0343 16.2988 13.3329 16.6667 13.3329H23.3334C23.702 13.3329 24 13.0343 24 12.6663V9.99965C24 9.63168 23.702 9.33301 23.3334 9.33301ZM22.6667 11.9997H17.3333V10.6664H22.6667V11.9997Z" fill="#2D3033"/>
</svg>
