<svg width="40" height="40" viewBox="0 0 40 40" fill="none" xmlns="http://www.w3.org/2000/svg">
<g clip-path="url(#clip0)">
<path d="M39.3037 36.1743L38.9588 29.739C38.8018 27.2693 37.1945 25.1412 34.8641 24.3176L26.9203 21.5101C26.555 21.381 26.1417 21.4747 25.8677 21.7492L25.6131 22.0042L23.8835 21.136L23.8835 19.6084C25.5476 18.4909 26.8795 16.575 27.2425 14.6736C27.2462 14.6541 27.2495 14.6347 27.253 14.6152C27.2646 14.5505 27.2757 14.4858 27.2851 14.4212C27.2941 14.3604 27.3022 14.2997 27.309 14.2392C27.3118 14.2136 27.3141 14.1882 27.3166 14.1627C27.3228 14.0993 27.3279 14.0362 27.3318 13.9733C27.3329 13.9559 27.3341 13.9385 27.335 13.921C27.3359 13.9042 27.3375 13.8872 27.3381 13.8704H27.7653C28.6026 13.8704 29.2839 13.1892 29.2839 12.3518V10.4927C29.2839 10.4059 29.2765 10.3203 29.2621 10.236C29.276 10.1868 29.2839 10.1351 29.2839 10.0814C29.2839 9.57229 29.1978 9.08322 29.0416 8.62642V6.60501C29.0415 2.96297 26.0785 0 22.4365 0H17.5633C13.9213 0 10.9583 2.96297 10.9583 6.60501V8.62642C10.802 9.0833 10.716 9.57236 10.716 10.0814C10.716 10.1351 10.724 10.1868 10.7378 10.236C10.7234 10.3203 10.716 10.4059 10.716 10.4927V12.3518C10.716 13.1892 11.3973 13.8704 12.2346 13.8704H12.6613C12.662 13.8909 12.6638 13.9115 12.6649 13.9321C12.6657 13.9496 12.6668 13.967 12.6679 13.9845C12.6719 14.0496 12.6771 14.115 12.6837 14.1805C12.6858 14.2017 12.6875 14.2229 12.6898 14.2442C12.6981 14.3186 12.7078 14.3932 12.7192 14.4679C12.7256 14.5103 12.7335 14.5528 12.7409 14.5954C12.7465 14.6269 12.752 14.6583 12.7581 14.6898C12.7684 14.7435 12.7795 14.7973 12.7913 14.851C12.7935 14.8613 12.796 14.8716 12.7983 14.8818C13.2122 16.7176 14.5098 18.5438 16.1163 19.6235L16.1161 21.136L14.387 22.0044L14.1322 21.7492C13.8582 21.4748 13.4449 21.381 13.0795 21.5102L5.13562 24.3176C2.80522 25.1412 1.19803 27.2693 1.04061 29.7446L0.696313 36.1686C0.665063 36.6605 0.840454 37.1487 1.17756 37.5079C1.51413 37.8666 1.98921 38.0723 2.48085 38.0723H10.2035V39.1146C10.2035 39.6028 10.6007 40 11.0889 40H28.9108C29.399 40 29.7962 39.6028 29.7962 39.1146V38.0723H37.5189C38.0105 38.0723 38.4855 37.8666 38.8222 37.5079C39.1593 37.1487 39.3347 36.6605 39.3037 36.1743ZM28.1451 12.3518C28.1451 12.5613 27.9746 12.7317 27.7652 12.7317H27.3417V10.6508H28.1451V12.3518ZM17.5633 1.13867H22.4366C25.4507 1.13867 27.9029 3.59087 27.9029 6.60501V6.83775C27.8941 6.82923 27.8847 6.82134 27.8758 6.8129C27.8354 6.77455 27.7944 6.73681 27.7526 6.70001C27.7463 6.69447 27.74 6.689 27.7336 6.68353C27.0457 6.08392 26.1755 5.68868 25.2177 5.59501C25.2115 5.59439 25.2052 5.59415 25.199 5.59361C25.133 5.58743 25.0667 5.58212 24.9999 5.57876C24.9254 5.57501 24.8507 5.57306 24.7756 5.57306H15.2245C15.1494 5.57306 15.0746 5.57501 15.0002 5.57876C14.9334 5.58204 14.867 5.58736 14.801 5.59361C14.7949 5.59423 14.7885 5.59439 14.7824 5.59501C13.8245 5.68868 12.9543 6.08392 12.2664 6.68353C12.2601 6.689 12.2537 6.69447 12.2474 6.70001C12.2056 6.73689 12.1646 6.77455 12.1242 6.8129C12.1153 6.82134 12.1059 6.82923 12.0971 6.83775V6.60501H12.097C12.097 3.59087 14.5491 1.13867 17.5633 1.13867ZM12.6581 12.7317H12.2345C12.025 12.7317 11.8546 12.5613 11.8546 12.3518V10.6508H12.6581V12.7317ZM11.9027 9.51213C12.0209 8.82033 12.3509 8.19994 12.8231 7.71986C12.8363 7.70658 12.8498 7.69361 12.8631 7.68056C12.8802 7.66376 12.8973 7.64697 12.9147 7.63056C12.9372 7.60939 12.9601 7.58869 12.9831 7.56822C12.991 7.56119 12.9988 7.55416 13.0068 7.5472C13.0358 7.52197 13.0651 7.49705 13.0949 7.47283C13.0956 7.4722 13.0963 7.47166 13.097 7.47103C13.5527 7.10048 14.103 6.84931 14.6942 6.75423C14.7005 6.75322 14.7067 6.7522 14.713 6.75126C14.7464 6.74611 14.78 6.74158 14.8138 6.73736C14.8299 6.7354 14.8459 6.73361 14.8621 6.73181C14.8895 6.72884 14.9169 6.72603 14.9444 6.72376C14.9697 6.72165 14.9952 6.72009 15.0206 6.71853C15.041 6.71728 15.0614 6.71579 15.0819 6.71493C15.1292 6.71298 15.1767 6.71173 15.2244 6.71173H24.7753C24.823 6.71173 24.8705 6.71298 24.9178 6.71493C24.9382 6.71579 24.9586 6.71728 24.979 6.71853C25.0045 6.72009 25.03 6.72165 25.0553 6.72376C25.0828 6.72611 25.1102 6.72884 25.1375 6.73181C25.1537 6.73353 25.1698 6.73533 25.1859 6.73736C25.2196 6.7415 25.2532 6.74603 25.2867 6.75126C25.2929 6.7522 25.2992 6.75329 25.3054 6.75423C25.8967 6.84923 26.4469 7.10048 26.9026 7.47103C26.9033 7.47166 26.9041 7.4722 26.9048 7.47283C26.9346 7.49705 26.9639 7.52197 26.9928 7.5472C27.0008 7.55416 27.0086 7.56119 27.0165 7.56822C27.0396 7.58869 27.0625 7.60947 27.085 7.63056C27.1024 7.64697 27.1195 7.66376 27.1365 7.68056C27.1499 7.69361 27.1634 7.70658 27.1765 7.71986C27.6487 8.19994 27.9786 8.82033 28.0969 9.51213H11.9027ZM13.8235 14.134C13.8226 14.126 13.8217 14.1179 13.8209 14.1099C13.8138 14.0462 13.8084 13.9828 13.8045 13.9196C13.8041 13.9115 13.8034 13.9034 13.8029 13.8953C13.799 13.8251 13.7967 13.7552 13.7967 13.6858V10.6508H26.2031V13.671C26.2031 13.7403 26.2009 13.8102 26.1969 13.8803C26.1964 13.8893 26.1957 13.8985 26.195 13.9074C26.1911 13.9691 26.1859 14.031 26.1791 14.0932C26.178 14.1033 26.1769 14.1133 26.1757 14.1234C25.9182 16.3337 23.854 18.8303 21.7531 19.3527L21.6789 19.3711C20.151 19.7511 19.7643 19.7502 18.2306 19.3636C16.1364 18.8356 14.0788 16.3385 13.8235 14.134ZM16.6161 22.159C17.0003 22.0161 17.2546 21.6533 17.2547 21.2389L17.2548 20.236C17.4846 20.3298 17.7174 20.4086 17.9522 20.4678C18.8187 20.6862 19.3911 20.7951 19.9647 20.7951C20.5317 20.7951 21.0999 20.6886 21.9537 20.4763L22.0279 20.4579C22.2693 20.3979 22.5085 20.3175 22.7447 20.2211L22.7448 21.239C22.7449 21.6534 22.9992 22.0163 23.3834 22.1591L24.7257 22.8329C24.7181 22.8391 24.7104 22.8452 24.7028 22.8514C24.6275 22.9118 24.5516 22.9711 24.4744 23.0284C24.4725 23.0298 24.4707 23.0311 24.4688 23.0325C24.3925 23.089 24.3149 23.1436 24.2367 23.1971C24.2242 23.2056 24.2119 23.2142 24.1995 23.2226C24.1233 23.274 24.0461 23.3237 23.9682 23.3722C23.9528 23.3818 23.9373 23.3913 23.9218 23.4007C23.8435 23.4487 23.7643 23.4954 23.6843 23.5403C23.6721 23.5472 23.6597 23.5538 23.6474 23.5606C23.5671 23.6051 23.4861 23.6483 23.4043 23.6898C23.399 23.6925 23.3938 23.6954 23.3885 23.698C23.3045 23.7403 23.2196 23.7805 23.1341 23.8196C23.1188 23.8265 23.1035 23.8336 23.0882 23.8405C23.0054 23.8777 22.9218 23.9132 22.8377 23.9473C22.821 23.954 22.8043 23.9607 22.7877 23.9672C22.7018 24.0013 22.6155 24.0341 22.5284 24.0649C22.5178 24.0686 22.5071 24.0721 22.4965 24.0758C22.4112 24.1056 22.3253 24.1339 22.2389 24.1605C22.229 24.1636 22.2192 24.1668 22.2094 24.1698C22.1204 24.1968 22.0307 24.2219 21.9406 24.2456C21.9235 24.2501 21.9065 24.2547 21.8893 24.259C21.8007 24.2817 21.7117 24.3028 21.6221 24.3222C21.6055 24.3258 21.5889 24.3292 21.5722 24.3327C21.4796 24.3522 21.3866 24.3704 21.293 24.3864C21.2864 24.3875 21.2796 24.3884 21.273 24.3896C21.1814 24.405 21.0893 24.4185 20.9969 24.4306C20.9838 24.4323 20.9708 24.4343 20.9577 24.4359C20.8647 24.4475 20.7713 24.4572 20.6776 24.4654C20.6597 24.467 20.6419 24.4686 20.624 24.47C20.5306 24.4775 20.437 24.4836 20.343 24.4877C20.3277 24.4884 20.3123 24.4888 20.297 24.4893C20.1983 24.4931 20.0993 24.4956 19.9999 24.4956C19.9006 24.4956 19.8017 24.4932 19.7029 24.4893C19.6877 24.4888 19.6724 24.4883 19.6573 24.4877C19.5631 24.4836 19.4695 24.4775 19.376 24.47C19.3584 24.4686 19.3407 24.467 19.323 24.4654C19.2289 24.4572 19.1352 24.4475 19.0419 24.4358C19.0298 24.4343 19.0178 24.4325 19.0056 24.4309C18.9116 24.4186 18.8178 24.4049 18.7246 24.3892C18.7194 24.3883 18.7141 24.3875 18.7088 24.3867C18.6137 24.3704 18.5192 24.352 18.425 24.3322C18.4105 24.3291 18.3959 24.3261 18.3813 24.3229C18.2895 24.303 18.1981 24.2814 18.1074 24.2581C18.0935 24.2546 18.0798 24.2509 18.066 24.2472C17.9724 24.2226 17.8792 24.1966 17.7867 24.1685C17.7827 24.1673 17.7788 24.166 17.7749 24.1647C17.6794 24.1354 17.5845 24.1043 17.4904 24.0712C17.4865 24.0699 17.4826 24.0686 17.4787 24.0672C17.3855 24.0343 17.2931 23.9993 17.2013 23.9628C17.192 23.959 17.1826 23.9554 17.1732 23.9516C17.082 23.9148 16.9915 23.8763 16.9019 23.836C16.8957 23.8333 16.8896 23.8304 16.8835 23.8275C16.6953 23.7422 16.5106 23.6491 16.3299 23.5481C16.3294 23.5478 16.3288 23.5475 16.3284 23.5473C16.2385 23.4971 16.1497 23.4448 16.0619 23.3908C16.0575 23.388 16.0531 23.3854 16.0488 23.3826C15.9609 23.3283 15.8741 23.2723 15.7883 23.2143C15.7879 23.214 15.7874 23.2137 15.787 23.2134C15.6135 23.0958 15.4445 22.9705 15.2802 22.8378C15.2781 22.8361 15.2762 22.8346 15.2742 22.8329L16.6161 22.159ZM37.9919 36.7284C37.8679 36.8605 37.6999 36.9334 37.519 36.9334H32.8164V30.1905C32.8164 29.876 32.5614 29.6211 32.247 29.6211C31.9325 29.6211 31.6776 29.876 31.6776 30.1905V36.9334H29.7961V27.473C29.7961 26.9848 29.3989 26.5876 28.9107 26.5876H11.0889V26.5877C10.6007 26.5877 10.2035 26.9849 10.2035 27.4731V31.2769C10.2035 31.5914 10.4584 31.8463 10.7729 31.8463C11.0873 31.8463 11.3423 31.5914 11.3423 31.2769V27.7264H17.1585V32.6697C17.1585 32.8714 17.2652 33.058 17.439 33.1603C17.6128 33.2626 17.8278 33.2653 18.0042 33.1674L19.9578 32.0826L22.0045 33.1722C22.0882 33.2168 22.1802 33.2389 22.2721 33.2389C22.3736 33.2389 22.4752 33.2117 22.5652 33.1576C22.7365 33.0547 22.8414 32.8694 22.8414 32.6695V27.7262H28.6576V38.8613H11.3422V35.2864C11.3422 34.9719 11.0873 34.717 10.7728 34.717C10.4584 34.717 10.2034 34.9719 10.2034 35.2864V36.9335H8.32195V30.1906C8.32195 29.8762 8.06703 29.6212 7.75258 29.6212C7.43812 29.6212 7.1832 29.8762 7.1832 30.1906V36.9335H2.48085C2.29991 36.9335 2.13194 36.8607 2.00796 36.7286C1.88342 36.5959 1.82124 36.4227 1.83311 36.2351L2.17741 29.8111C2.30546 27.7974 3.61562 26.0625 5.51515 25.3911L13.3831 22.6104L13.8748 23.1028C13.8749 23.1029 13.8749 23.103 13.8751 23.1031C15.5048 24.7352 17.6799 25.6341 19.9999 25.6341C20.2377 25.6341 20.4738 25.6241 20.7081 25.6054C22.7599 25.4416 24.6622 24.5679 26.1248 23.1031L26.1277 23.1002C26.1278 23.1001 26.1278 23.1 26.1279 23.1V23.0999L26.6168 22.6103L34.4847 25.391C36.3843 26.0624 37.6944 27.7973 37.8221 29.8053L38.167 36.2406C38.1786 36.4225 38.1164 36.5958 37.9919 36.7284ZM21.7027 27.7264V31.7216L20.2196 30.9321C20.1359 30.8876 20.0439 30.8654 19.952 30.8654C19.8567 30.8654 19.7615 30.8893 19.6756 30.9369L18.2971 31.7023V27.7264H21.7027Z" fill="#2D3033" stroke="black" stroke-width="0.3"/>
</g>
<defs>
<clipPath id="clip0">
<rect width="40" height="40" fill="white"/>
</clipPath>
</defs>
</svg>
