<svg width="30" height="30" viewBox="0 0 30 30" fill="none" xmlns="http://www.w3.org/2000/svg">
<path fill-rule="evenodd" clip-rule="evenodd" d="M19.6048 0H10.3952C1.99012 0 0 1.99012 0 10.3952V19.6048C0 28.0098 1.99012 30 10.3952 30H19.6048C28.0098 30 30 28.0098 30 19.6048V10.3952C30 1.99012 27.9887 0 19.6048 0ZM24.2202 21.4044H22.0395C21.2138 21.4044 20.9597 20.7481 19.4777 19.2449C18.1863 17.9957 17.6147 17.8263 17.2971 17.8263C16.8525 17.8263 16.7255 17.9534 16.7255 18.5673V20.5364C16.7255 21.0657 16.5561 21.3832 15.1588 21.3832C12.8511 21.3832 10.2893 19.9859 8.48977 17.3818C5.77981 13.571 5.03881 10.7128 5.03881 10.12C5.03881 9.8024 5.16584 9.506 5.77981 9.506H7.96048C8.51094 9.506 8.72265 9.76006 8.93437 10.3529C10.0141 13.465 11.8137 16.1962 12.5547 16.1962C12.83 16.1962 12.957 16.0692 12.957 15.3705V12.1524C12.8723 10.6704 12.089 10.5434 12.089 10.0141C12.089 9.76005 12.3007 9.506 12.6393 9.506H16.0692C16.535 9.506 16.7043 9.76005 16.7043 10.3105V14.6506C16.7043 15.1164 16.916 15.2858 17.043 15.2858C17.3183 15.2858 17.5512 15.1164 18.0593 14.6083C19.626 12.8511 20.748 10.1411 20.748 10.1411C20.8963 9.82357 21.1503 9.52717 21.7007 9.52717H23.8814C24.5378 9.52717 24.686 9.86592 24.5378 10.3317C24.2625 11.6019 21.5949 15.3705 21.5949 15.3705C21.3621 15.7516 21.2774 15.921 21.5949 16.3443C21.8278 16.662 22.59 17.3183 23.098 17.911C24.0297 18.9697 24.7494 19.8588 24.94 20.4728C25.1518 21.0868 24.8341 21.4044 24.2202 21.4044Z" fill="#FFB800"/>
</svg>
