<svg width="25" height="26" viewBox="0 0 25 26" fill="none" xmlns="http://www.w3.org/2000/svg">
<g clip-path="url(#clip0)">
<path d="M11.0949 15.7357C11.0949 17.351 12.409 18.665 14.0242 18.665C15.6393 18.665 16.9535 17.351 16.9535 15.7357C16.9535 14.1206 15.6393 12.8064 14.0242 12.8064C12.409 12.8064 11.0949 14.1206 11.0949 15.7357ZM15.0005 15.7357C15.0005 16.2742 14.5626 16.7121 14.0242 16.7121C13.4857 16.7121 13.0478 16.2742 13.0478 15.7357C13.0478 15.1973 13.4857 14.7593 14.0242 14.7593C14.5626 14.7593 15.0005 15.1973 15.0005 15.7357ZM22.0797 19.6414C20.4645 19.6414 19.1504 20.9556 19.1504 22.5707C19.1504 24.1858 20.4645 25.5 22.0797 25.5C23.6948 25.5 25.009 24.1858 25.009 22.5707C25.009 20.9556 23.6948 19.6414 22.0797 19.6414ZM22.0797 23.5471C21.5412 23.5471 21.1033 23.1091 21.1033 22.5707C21.1033 22.0322 21.5412 21.5943 22.0797 21.5943C22.6181 21.5943 23.056 22.0322 23.056 22.5707C23.056 23.1091 22.6181 23.5471 22.0797 23.5471ZM22.6168 12.7087L15.733 25.5H13.513L20.3968 12.7087H22.6168ZM12.3463 23.5471L11.2953 25.5H5.43156C3.81641 25.5 2.50225 24.1858 2.50225 22.5707V12.3183L1.36509 13.3559L0.0488281 11.9132L12.5595 0.5L23.8016 10.756H20.904L12.5595 3.14339L4.45518 10.5368V22.5707C4.45518 23.1091 4.8933 23.5473 5.43156 23.5473H12.3463V23.5471Z" fill="#FFB800"/>
</g>
<defs>
<clipPath id="clip0">
<rect width="25" height="25" fill="white" transform="translate(0 0.5)"/>
</clipPath>
</defs>
</svg>
