<svg width="30" height="30" viewBox="0 0 30 30" fill="none" xmlns="http://www.w3.org/2000/svg">
<path d="M21.8792 0H8.12071C3.64288 0 0 3.64288 0 8.12071V21.8795C0 26.3571 3.64288 29.9999 8.12071 29.9999H21.8795C26.3571 29.9999 29.9999 26.3571 29.9999 21.8795V8.12071C29.9999 3.64288 26.3571 0 21.8792 0ZM15 21.25C12.4999 21.25 8.75 19.5232 8.75 15C8.75 10.4768 12.4999 8.7316 15 8.7316C17.5 8.7316 21.25 10.625 21.25 15C21.25 19.3749 17.5 21.25 15 21.25ZM23.399 8.7316C22.0623 8.7316 20.9751 7.64441 20.9751 6.30774C20.9751 4.97108 22.0623 3.88366 23.399 3.88366C24.7357 3.88366 25.8231 4.97108 25.8231 6.30774C25.8231 7.64441 24.7357 8.7316 23.399 8.7316Z" fill="#FFB800"/>
</svg>
