<svg width="361" height="100" viewBox="0 0 361 100" fill="none" xmlns="http://www.w3.org/2000/svg">
<rect width="361" height="100" fill="#FFB800"/>
<rect x="160" width="161" height="100" fill="#E1E3E6"/>
<path d="M50.125 30.5V48H46.1V33.8H38.2V48H34.175V30.5H50.125ZM61.0631 34.35C62.4964 34.35 63.7464 34.6333 64.8131 35.2C65.8798 35.7667 66.7048 36.575 67.2881 37.625C67.8714 38.675 68.1631 39.9 68.1631 41.3C68.1631 42.6667 67.8881 43.875 67.3381 44.925C66.7881 45.9583 66.0131 46.7667 65.0131 47.35C64.0131 47.9167 62.8631 48.2 61.5631 48.2C59.8464 48.2 58.5048 47.6583 57.5381 46.575V52.85H53.6381V41.325C53.6381 39.9417 53.9464 38.725 54.5631 37.675C55.1798 36.625 56.0464 35.8083 57.1631 35.225C58.2798 34.6417 59.5798 34.35 61.0631 34.35ZM60.8881 45C61.9048 45 62.7298 44.6583 63.3631 43.975C63.9964 43.2917 64.3131 42.4 64.3131 41.3C64.3131 40.1833 63.9964 39.2833 63.3631 38.6C62.7298 37.9 61.9048 37.55 60.8881 37.55C59.8714 37.55 59.0464 37.8917 58.4131 38.575C57.7964 39.2583 57.4881 40.1583 57.4881 41.275C57.4881 42.3917 57.7964 43.2917 58.4131 43.975C59.0298 44.6583 59.8548 45 60.8881 45ZM77.2111 48.2C75.7945 48.2 74.5195 47.9083 73.3861 47.325C72.2695 46.725 71.3945 45.9 70.7611 44.85C70.1278 43.8 69.8111 42.6083 69.8111 41.275C69.8111 39.9417 70.1278 38.75 70.7611 37.7C71.3945 36.65 72.2695 35.8333 73.3861 35.25C74.5195 34.65 75.7945 34.35 77.2111 34.35C78.6278 34.35 79.8945 34.65 81.0111 35.25C82.1278 35.8333 83.0028 36.65 83.6361 37.7C84.2695 38.75 84.5861 39.9417 84.5861 41.275C84.5861 42.6083 84.2695 43.8 83.6361 44.85C83.0028 45.9 82.1278 46.725 81.0111 47.325C79.8945 47.9083 78.6278 48.2 77.2111 48.2ZM77.2111 45C78.2111 45 79.0278 44.6667 79.6611 44C80.3111 43.3167 80.6361 42.4083 80.6361 41.275C80.6361 40.1417 80.3111 39.2417 79.6611 38.575C79.0278 37.8917 78.2111 37.55 77.2111 37.55C76.2111 37.55 75.3861 37.8917 74.7361 38.575C74.0861 39.2417 73.7611 40.1417 73.7611 41.275C73.7611 42.4083 74.0861 43.3167 74.7361 44C75.3861 44.6667 76.2111 45 77.2111 45ZM93.6686 48.2C92.2352 48.2 90.9436 47.9083 89.7936 47.325C88.6602 46.725 87.7686 45.9 87.1186 44.85C86.4852 43.8 86.1686 42.6083 86.1686 41.275C86.1686 39.9417 86.4852 38.75 87.1186 37.7C87.7686 36.65 88.6602 35.8333 89.7936 35.25C90.9436 34.65 92.2352 34.35 93.6686 34.35C95.0852 34.35 96.3186 34.65 97.3686 35.25C98.4352 35.8333 99.2102 36.675 99.6936 37.775L96.6686 39.4C95.9686 38.1667 94.9602 37.55 93.6436 37.55C92.6269 37.55 91.7852 37.8833 91.1186 38.55C90.4519 39.2167 90.1186 40.125 90.1186 41.275C90.1186 42.425 90.4519 43.3333 91.1186 44C91.7852 44.6667 92.6269 45 93.6436 45C94.9769 45 95.9852 44.3833 96.6686 43.15L99.6936 44.8C99.2102 45.8667 98.4352 46.7 97.3686 47.3C96.3186 47.9 95.0852 48.2 93.6686 48.2ZM119.263 34.35C120.947 34.35 122.28 34.85 123.263 35.85C124.263 36.8333 124.763 38.3167 124.763 40.3V48H120.863V40.9C120.863 39.8333 120.638 39.0417 120.188 38.525C119.755 37.9917 119.13 37.725 118.313 37.725C117.397 37.725 116.672 38.025 116.138 38.625C115.605 39.2083 115.338 40.0833 115.338 41.25V48H111.438V40.9C111.438 38.7833 110.588 37.725 108.888 37.725C107.988 37.725 107.272 38.025 106.738 38.625C106.205 39.2083 105.938 40.0833 105.938 41.25V48H102.038V34.55H105.763V36.1C106.263 35.5333 106.872 35.1 107.588 34.8C108.322 34.5 109.122 34.35 109.988 34.35C110.938 34.35 111.797 34.5417 112.563 34.925C113.33 35.2917 113.947 35.8333 114.413 36.55C114.963 35.85 115.655 35.3083 116.488 34.925C117.338 34.5417 118.263 34.35 119.263 34.35ZM134.462 48.2C133.045 48.2 131.77 47.9083 130.637 47.325C129.52 46.725 128.645 45.9 128.012 44.85C127.379 43.8 127.062 42.6083 127.062 41.275C127.062 39.9417 127.379 38.75 128.012 37.7C128.645 36.65 129.52 35.8333 130.637 35.25C131.77 34.65 133.045 34.35 134.462 34.35C135.879 34.35 137.145 34.65 138.262 35.25C139.379 35.8333 140.254 36.65 140.887 37.7C141.52 38.75 141.837 39.9417 141.837 41.275C141.837 42.6083 141.52 43.8 140.887 44.85C140.254 45.9 139.379 46.725 138.262 47.325C137.145 47.9083 135.879 48.2 134.462 48.2ZM134.462 45C135.462 45 136.279 44.6667 136.912 44C137.562 43.3167 137.887 42.4083 137.887 41.275C137.887 40.1417 137.562 39.2417 136.912 38.575C136.279 37.8917 135.462 37.55 134.462 37.55C133.462 37.55 132.637 37.8917 131.987 38.575C131.337 39.2417 131.012 40.1417 131.012 41.275C131.012 42.4083 131.337 43.3167 131.987 44C132.637 44.6667 133.462 45 134.462 45Z" fill="#333333"/>
<path d="M39.149 65.996C39.6403 66.128 40.0143 66.3553 40.271 66.678C40.5277 66.9933 40.656 67.3893 40.656 67.866C40.656 68.5407 40.4067 69.065 39.908 69.439C39.4093 69.813 38.687 70 37.741 70H34.089V62.3H37.532C38.3973 62.3 39.072 62.4723 39.556 62.817C40.04 63.1617 40.282 63.6493 40.282 64.28C40.282 64.6833 40.183 65.0317 39.985 65.325C39.7943 65.6183 39.5157 65.842 39.149 65.996ZM35.497 65.589H37.411C37.873 65.589 38.225 65.4973 38.467 65.314C38.709 65.1307 38.83 64.8593 38.83 64.5C38.83 64.1407 38.709 63.8693 38.467 63.686C38.225 63.4953 37.873 63.4 37.411 63.4H35.497V65.589ZM37.697 68.9C38.709 68.9 39.215 68.5187 39.215 67.756C39.215 67.008 38.709 66.634 37.697 66.634H35.497V68.9H37.697ZM47.884 70.11C47.0994 70.11 46.3917 69.9413 45.761 69.604C45.1304 69.2593 44.6354 68.7863 44.276 68.185C43.9167 67.5763 43.737 66.898 43.737 66.15C43.737 65.402 43.9167 64.7273 44.276 64.126C44.6354 63.5173 45.1304 63.0443 45.761 62.707C46.3917 62.3623 47.0994 62.19 47.884 62.19C48.6687 62.19 49.3764 62.3623 50.007 62.707C50.6377 63.0443 51.1327 63.5137 51.492 64.115C51.8514 64.7163 52.031 65.3947 52.031 66.15C52.031 66.9053 51.8514 67.5837 51.492 68.185C51.1327 68.7863 50.6377 69.2593 50.007 69.604C49.3764 69.9413 48.6687 70.11 47.884 70.11ZM47.884 68.856C48.3974 68.856 48.8594 68.7423 49.27 68.515C49.6807 68.2803 50.0034 67.9577 50.238 67.547C50.4727 67.129 50.59 66.6633 50.59 66.15C50.59 65.6367 50.4727 65.1747 50.238 64.764C50.0034 64.346 49.6807 64.0233 49.27 63.796C48.8594 63.5613 48.3974 63.444 47.884 63.444C47.3707 63.444 46.9087 63.5613 46.498 63.796C46.0874 64.0233 45.7647 64.346 45.53 64.764C45.2954 65.1747 45.178 65.6367 45.178 66.15C45.178 66.6633 45.2954 67.129 45.53 67.547C45.7647 67.9577 46.0874 68.2803 46.498 68.515C46.9087 68.7423 47.3707 68.856 47.884 68.856ZM62.467 62.3V70H61.059V63.51H57.066V70H55.658V62.3H62.467ZM73.176 62.3V70H71.768V63.51H68.732L68.666 65.435C68.6294 66.513 68.5414 67.3893 68.402 68.064C68.2627 68.7313 68.039 69.241 67.731 69.593C67.423 69.9377 66.9977 70.11 66.455 70.11C66.2644 70.11 66.004 70.0733 65.674 70L65.773 68.757C65.8684 68.7863 65.9784 68.801 66.103 68.801C66.5504 68.801 66.8657 68.537 67.049 68.009C67.2397 67.4737 67.357 66.634 67.401 65.49L67.511 62.3H73.176ZM80.9412 70.11C80.1565 70.11 79.4488 69.9413 78.8182 69.604C78.1875 69.2593 77.6925 68.7863 77.3332 68.185C76.9738 67.5763 76.7942 66.898 76.7942 66.15C76.7942 65.402 76.9738 64.7273 77.3332 64.126C77.6925 63.5173 78.1875 63.0443 78.8182 62.707C79.4488 62.3623 80.1565 62.19 80.9412 62.19C81.7258 62.19 82.4335 62.3623 83.0642 62.707C83.6948 63.0443 84.1898 63.5137 84.5492 64.115C84.9085 64.7163 85.0882 65.3947 85.0882 66.15C85.0882 66.9053 84.9085 67.5837 84.5492 68.185C84.1898 68.7863 83.6948 69.2593 83.0642 69.604C82.4335 69.9413 81.7258 70.11 80.9412 70.11ZM80.9412 68.856C81.4545 68.856 81.9165 68.7423 82.3272 68.515C82.7378 68.2803 83.0605 67.9577 83.2952 67.547C83.5298 67.129 83.6472 66.6633 83.6472 66.15C83.6472 65.6367 83.5298 65.1747 83.2952 64.764C83.0605 64.346 82.7378 64.0233 82.3272 63.796C81.9165 63.5613 81.4545 63.444 80.9412 63.444C80.4278 63.444 79.9658 63.5613 79.5552 63.796C79.1445 64.0233 78.8218 64.346 78.5872 64.764C78.3525 65.1747 78.2352 65.6367 78.2352 66.15C78.2352 66.6633 78.3525 67.129 78.5872 67.547C78.8218 67.9577 79.1445 68.2803 79.5552 68.515C79.9658 68.7423 80.4278 68.856 80.9412 68.856ZM98.6042 62.3V70H88.7152V62.3H90.1232V68.79H92.9612V62.3H94.3692V68.79H97.1962V62.3H98.6042ZM99.7152 68.79V71.639H98.3952V70H97.1632V68.79H99.7152ZM108.9 68.801V70H103.125V62.3H108.746V63.499H104.555V65.501H108.273V66.678H104.555V68.801H108.9ZM119.371 62.3V70H117.941V66.7H113.959V70H112.529V62.3H113.959V65.479H117.941V62.3H119.371ZM123.577 62.3H124.985V67.767L129.121 62.3H130.452V70H129.044V64.544L124.908 70H123.577V62.3ZM140.421 68.801V70H134.646V62.3H140.267V63.499H136.076V65.501H139.794V66.678H136.076V68.801H140.421Z" fill="#333333"/>
<path d="M193.1 48L193.075 37.525L187.925 46.15H186.125L180.975 37.725V48H177.175V30.5H180.525L187.075 41.375L193.525 30.5H196.875L196.9 48H193.1ZM207.647 45.075C208.347 45.075 208.964 44.975 209.497 44.775C210.047 44.5583 210.556 44.225 211.022 43.775L213.097 46.025C211.831 47.475 209.981 48.2 207.547 48.2C206.031 48.2 204.689 47.9083 203.522 47.325C202.356 46.725 201.456 45.9 200.822 44.85C200.189 43.8 199.872 42.6083 199.872 41.275C199.872 39.9583 200.181 38.775 200.797 37.725C201.431 36.6583 202.289 35.8333 203.372 35.25C204.472 34.65 205.706 34.35 207.072 34.35C208.356 34.35 209.522 34.625 210.572 35.175C211.622 35.7083 212.456 36.4917 213.072 37.525C213.706 38.5417 214.022 39.75 214.022 41.15L204.072 43.075C204.356 43.7417 204.797 44.2417 205.397 44.575C206.014 44.9083 206.764 45.075 207.647 45.075ZM207.072 37.3C206.089 37.3 205.289 37.6167 204.672 38.25C204.056 38.8833 203.731 39.7583 203.697 40.875L210.247 39.6C210.064 38.9 209.689 38.3417 209.122 37.925C208.556 37.5083 207.872 37.3 207.072 37.3ZM224.494 35.475C225.777 35.475 226.902 35.7417 227.869 36.275C228.835 36.7917 229.577 37.525 230.094 38.475C230.627 39.425 230.894 40.525 230.894 41.775C230.894 43.0583 230.577 44.2 229.944 45.2C229.327 46.1833 228.46 46.95 227.344 47.5C226.227 48.0333 224.96 48.3 223.544 48.3C221.194 48.3 219.344 47.55 217.994 46.05C216.66 44.5333 215.994 42.3167 215.994 39.4C215.994 36.7 216.577 34.55 217.744 32.95C218.927 31.3333 220.735 30.275 223.169 29.775L229.569 28.5L230.094 31.85L224.444 32.975C222.91 33.275 221.769 33.775 221.019 34.475C220.285 35.175 219.852 36.1667 219.719 37.45C220.302 36.8167 221.002 36.3333 221.819 36C222.635 35.65 223.527 35.475 224.494 35.475ZM223.569 45.275C224.569 45.275 225.369 44.95 225.969 44.3C226.585 43.65 226.894 42.825 226.894 41.825C226.894 40.8083 226.585 40 225.969 39.4C225.369 38.8 224.569 38.5 223.569 38.5C222.552 38.5 221.735 38.8 221.119 39.4C220.502 40 220.194 40.8083 220.194 41.825C220.194 42.8417 220.51 43.675 221.144 44.325C221.777 44.9583 222.585 45.275 223.569 45.275ZM240.24 45.075C240.94 45.075 241.557 44.975 242.09 44.775C242.64 44.5583 243.148 44.225 243.615 43.775L245.69 46.025C244.423 47.475 242.573 48.2 240.14 48.2C238.623 48.2 237.282 47.9083 236.115 47.325C234.948 46.725 234.048 45.9 233.415 44.85C232.782 43.8 232.465 42.6083 232.465 41.275C232.465 39.9583 232.773 38.775 233.39 37.725C234.023 36.6583 234.882 35.8333 235.965 35.25C237.065 34.65 238.298 34.35 239.665 34.35C240.948 34.35 242.115 34.625 243.165 35.175C244.215 35.7083 245.048 36.4917 245.665 37.525C246.298 38.5417 246.615 39.75 246.615 41.15L236.665 43.075C236.948 43.7417 237.39 44.2417 237.99 44.575C238.607 44.9083 239.357 45.075 240.24 45.075ZM239.665 37.3C238.682 37.3 237.882 37.6167 237.265 38.25C236.648 38.8833 236.323 39.7583 236.29 40.875L242.84 39.6C242.657 38.9 242.282 38.3417 241.715 37.925C241.148 37.5083 240.465 37.3 239.665 37.3ZM262.089 34.55V48H258.189V37.75H253.939L253.814 40.125C253.748 41.8917 253.581 43.3583 253.314 44.525C253.048 45.6917 252.614 46.6083 252.014 47.275C251.414 47.9417 250.581 48.275 249.514 48.275C248.948 48.275 248.273 48.175 247.489 47.975L247.689 44.775C247.956 44.8083 248.148 44.825 248.264 44.825C248.848 44.825 249.281 44.6167 249.564 44.2C249.864 43.7667 250.064 43.225 250.164 42.575C250.264 41.9083 250.339 41.0333 250.389 39.95L250.589 34.55H262.089ZM272.015 48.375C269.882 48.375 268.265 47.9 267.165 46.95C266.082 46 265.54 44.6 265.54 42.75V34.55H269.415V39.1C269.832 38.8 270.365 38.5667 271.015 38.4C271.682 38.2333 272.423 38.15 273.24 38.15C274.923 38.15 276.24 38.5667 277.19 39.4C278.14 40.2333 278.615 41.45 278.615 43.05C278.615 44.7667 278.023 46.0833 276.84 47C275.673 47.9167 274.065 48.375 272.015 48.375ZM272.015 45.625C272.848 45.625 273.49 45.4 273.94 44.95C274.407 44.5 274.64 43.8917 274.64 43.125C274.64 42.3917 274.415 41.8167 273.965 41.4C273.532 40.9833 272.907 40.775 272.09 40.775C271.49 40.775 270.957 40.8833 270.49 41.1C270.023 41.3167 269.665 41.625 269.415 42.025V43.125C269.415 43.9083 269.64 44.525 270.09 44.975C270.557 45.4083 271.198 45.625 272.015 45.625Z" fill="#333333"/>
<path d="M336.473 18.659C337.322 18.659 338.094 18.83 338.791 19.172C339.488 19.514 340.039 20.0017 340.444 20.635C340.849 21.2557 341.052 21.9777 341.052 22.801C341.052 23.6877 340.83 24.4667 340.387 25.138C339.944 25.8093 339.336 26.3287 338.563 26.696C337.803 27.0507 336.954 27.228 336.017 27.228C334.155 27.228 332.698 26.658 331.647 25.518C330.596 24.378 330.07 22.7503 330.07 20.635C330.07 19.1277 330.355 17.8357 330.925 16.759C331.495 15.6823 332.287 14.8653 333.3 14.308C334.326 13.7507 335.51 13.472 336.853 13.472C337.562 13.472 338.24 13.5543 338.886 13.719C339.545 13.871 340.102 14.0927 340.558 14.384L339.418 16.645C338.759 16.2017 337.93 15.98 336.929 15.98C335.802 15.98 334.909 16.3093 334.25 16.968C333.591 17.6267 333.237 18.583 333.186 19.837C333.971 19.0517 335.067 18.659 336.473 18.659ZM335.846 24.929C336.505 24.929 337.037 24.7517 337.442 24.397C337.86 24.0423 338.069 23.561 338.069 22.953C338.069 22.345 337.86 21.8637 337.442 21.509C337.037 21.1417 336.492 20.958 335.808 20.958C335.137 20.958 334.586 21.148 334.155 21.528C333.724 21.8953 333.509 22.3703 333.509 22.953C333.509 23.5357 333.718 24.0107 334.136 24.378C334.554 24.7453 335.124 24.929 335.846 24.929ZM348.381 19.115C349.546 19.305 350.439 19.742 351.06 20.426C351.68 21.0973 351.991 21.9333 351.991 22.934C351.991 23.7067 351.788 24.4223 351.383 25.081C350.977 25.727 350.357 26.2463 349.521 26.639C348.697 27.0317 347.684 27.228 346.481 27.228C345.543 27.228 344.619 27.1077 343.707 26.867C342.807 26.6137 342.041 26.259 341.408 25.803L342.605 23.447C343.111 23.827 343.694 24.1247 344.353 24.34C345.024 24.5427 345.708 24.644 346.405 24.644C347.177 24.644 347.785 24.4983 348.229 24.207C348.672 23.903 348.894 23.4787 348.894 22.934C348.894 21.8447 348.064 21.3 346.405 21.3H344.999V19.267L347.735 16.17H342.073V13.7H351.383V15.695L348.381 19.115Z" fill="#333333"/>
<path d="M182.149 65.996C182.64 66.128 183.014 66.3553 183.271 66.678C183.528 66.9933 183.656 67.3893 183.656 67.866C183.656 68.5407 183.407 69.065 182.908 69.439C182.409 69.813 181.687 70 180.741 70H177.089V62.3H180.532C181.397 62.3 182.072 62.4723 182.556 62.817C183.04 63.1617 183.282 63.6493 183.282 64.28C183.282 64.6833 183.183 65.0317 182.985 65.325C182.794 65.6183 182.516 65.842 182.149 65.996ZM178.497 65.589H180.411C180.873 65.589 181.225 65.4973 181.467 65.314C181.709 65.1307 181.83 64.8593 181.83 64.5C181.83 64.1407 181.709 63.8693 181.467 63.686C181.225 63.4953 180.873 63.4 180.411 63.4H178.497V65.589ZM180.697 68.9C181.709 68.9 182.215 68.5187 182.215 67.756C182.215 67.008 181.709 66.634 180.697 66.634H178.497V68.9H180.697ZM192.424 68.218H188.574L187.815 70H186.341L189.806 62.3H191.214L194.69 70H193.194L192.424 68.218ZM191.951 67.096L190.499 63.73L189.058 67.096H191.951ZM207.806 62.3V70H197.917V62.3H199.325V68.79H202.163V62.3H203.571V68.79H206.398V62.3H207.806ZM217.779 68.801V70H212.004V62.3H217.625V63.499H213.434V65.501H217.152V66.678H213.434V68.801H217.779ZM221.419 62.3H222.827V67.767L226.963 62.3H228.294V70H226.886V64.544L222.75 70H221.419V62.3ZM224.84 61.783C224.18 61.783 223.682 61.6473 223.344 61.376C223.014 61.1047 222.846 60.7087 222.838 60.188H223.839C223.847 60.4593 223.935 60.6683 224.103 60.815C224.272 60.9617 224.518 61.035 224.84 61.035C225.156 61.035 225.401 60.9617 225.577 60.815C225.761 60.6683 225.856 60.4593 225.863 60.188H226.853C226.846 60.7013 226.67 61.0973 226.325 61.376C225.988 61.6473 225.493 61.783 224.84 61.783ZM244.636 70L244.625 64.896L242.095 69.12H241.457L238.927 64.962V70H237.574V62.3H238.751L241.798 67.393L244.812 62.3H245.978L246 70H244.636ZM255.965 68.801V70H250.19V62.3H255.811V63.499H251.62V65.501H255.338V66.678H251.62V68.801H255.965ZM265.6 62.3V70H264.181V67.096C263.455 67.3673 262.766 67.503 262.113 67.503C261.131 67.503 260.372 67.2683 259.836 66.799C259.308 66.3223 259.044 65.6403 259.044 64.753V62.3H260.463V64.599C260.463 65.1417 260.621 65.556 260.936 65.842C261.252 66.128 261.703 66.271 262.289 66.271C262.957 66.271 263.587 66.1353 264.181 65.864V62.3H265.6ZM275.381 63.51H272.829V70H271.41V63.51H268.869V62.3H275.381V63.51ZM282.203 64.907C283.127 64.907 283.834 65.116 284.326 65.534C284.824 65.9447 285.074 66.557 285.074 67.371C285.074 68.2217 284.802 68.8743 284.26 69.329C283.717 69.7763 282.954 70 281.972 70H278.661V62.3H280.069V64.907H282.203ZM281.906 68.9C282.463 68.9 282.892 68.7717 283.193 68.515C283.493 68.2583 283.644 67.8843 283.644 67.393C283.644 66.4617 283.064 65.996 281.906 65.996H280.069V68.9H281.906ZM286.185 62.3H287.593V70H286.185V62.3Z" fill="#333333"/>
</svg>
