<svg width="21" height="12" viewBox="0 0 21 12" fill="none" xmlns="http://www.w3.org/2000/svg">
<path d="M0.64 10.28C0.64 9.88 0.880001 9.32 1.36 8.6C2.48 6.92 3.8 5.36 5.32 3.92C6.92 2.4 8.24 1.32 9.28 0.679996C10 0.199998 10.44 0.0399985 10.6 0.199999C10.76 0.359999 10.76 0.519998 10.6 0.679996C10.44 0.759998 10.2 0.959999 9.88 1.28C9.08 2.16 8.36 3.08 7.72 4.04C7.16 4.92 6.8 5.8 6.64 6.68C6.48 7.32 6.44 7.76 6.52 8C6.6 8.24 6.56 8.6 6.4 9.08C6.24 9.72 5.76 10.28 4.96 10.76C4.16 11.16 3.32 11.4 2.44 11.48C1.24 11.56 0.64 11.2 0.64 10.4V10.28ZM10.12 10.28C10.12 9.88 10.36 9.32 10.84 8.6C11.96 6.92 13.28 5.36 14.8 3.92C16.4 2.4 17.72 1.32 18.76 0.679996C19.48 0.199998 19.92 0.0399985 20.08 0.199999C20.24 0.359999 20.24 0.519998 20.08 0.679996C19.92 0.759998 19.68 0.959999 19.36 1.28C18.56 2.16 17.84 3.08 17.2 4.04C16.64 4.92 16.28 5.8 16.12 6.68C15.96 7.32 15.92 7.76 16 8C16.08 8.24 16.04 8.6 15.88 9.08C15.72 9.72 15.24 10.28 14.44 10.76C13.64 11.16 12.8 11.4 11.92 11.48C10.72 11.56 10.12 11.2 10.12 10.4V10.28Z" fill="#FFB800"/>
</svg>
