<svg width="48" height="48" viewBox="0 0 48 48" fill="none" xmlns="http://www.w3.org/2000/svg">
<circle cx="24" cy="24" r="23" fill="white" stroke="#FFB800" stroke-width="2"/>
<path d="M23.0362 16.8999C21.8226 16.8999 20.6362 17.2598 19.6271 17.9341C18.618 18.6083 17.8314 19.5667 17.367 20.688C16.9026 21.8092 16.781 23.043 17.0178 24.2334C17.2546 25.4237 17.839 26.5171 18.6972 27.3753C19.5554 28.2334 20.6488 28.8179 21.8391 29.0546C23.0294 29.2914 24.2632 29.1699 25.3845 28.7055C26.5058 28.241 27.4641 27.4545 28.1384 26.4454C28.8127 25.4363 29.1726 24.2499 29.1726 23.0362C29.1725 21.4088 28.5259 19.8481 27.3752 18.6973C26.2244 17.5465 24.6637 16.9 23.0362 16.8999V16.8999Z" stroke="#FFB800" stroke-width="2" stroke-miterlimit="10" stroke-linecap="square" stroke-linejoin="bevel"/>
<path d="M27.6143 27.6143L31.8998 31.8998" stroke="#FFB800" stroke-width="2" stroke-miterlimit="10" stroke-linecap="square" stroke-linejoin="bevel"/>
</svg>
