<svg width="60" height="60" viewBox="0 0 60 60" fill="none" xmlns="http://www.w3.org/2000/svg">
<circle cx="30" cy="30" r="30" fill="#FFB800"/>
<path d="M28.7954 21.125C27.2783 21.125 25.7954 21.5749 24.534 22.4177C23.2726 23.2605 22.2894 24.4585 21.7089 25.8601C21.1283 27.2617 20.9764 28.8039 21.2724 30.2918C21.5684 31.7797 22.2989 33.1465 23.3716 34.2192C24.4443 35.2919 25.8111 36.0225 27.299 36.3184C28.7869 36.6144 30.3292 36.4625 31.7308 35.8819C33.1323 35.3014 34.3303 34.3183 35.1731 33.0569C36.016 31.7955 36.4658 30.3125 36.4658 28.7954C36.4657 26.7611 35.6575 24.8102 34.2191 23.3718C32.7806 21.9333 30.8297 21.1251 28.7954 21.125V21.125Z" stroke="#2D3033" stroke-width="2" stroke-miterlimit="10" stroke-linecap="square" stroke-linejoin="bevel"/>
<path d="M34.5181 34.5181L39.875 39.875" stroke="#2D3033" stroke-width="2" stroke-miterlimit="10" stroke-linecap="square" stroke-linejoin="bevel"/>
</svg>
