<svg width="30" height="31" viewBox="0 0 30 31" fill="none" xmlns="http://www.w3.org/2000/svg">
<path d="M24.1 5.22461H11.1C10.7552 5.22461 10.4246 5.36289 10.1808 5.60903C9.93696 5.85517 9.8 6.18901 9.8 6.53711V9.16211H3.3C2.95522 9.16211 2.62456 9.30039 2.38076 9.54653C2.13696 9.79267 2 10.1265 2 10.4746C2 10.8227 2.13696 11.1565 2.38076 11.4027C2.62456 11.6488 2.95522 11.7871 3.3 11.7871H9.8V17.0371C9.8 17.3852 9.93696 17.719 10.1808 17.9652C10.4246 18.2113 10.7552 18.3496 11.1 18.3496C11.4448 18.3496 11.7754 18.2113 12.0192 17.9652C12.263 17.719 12.4 17.3852 12.4 17.0371V15.7246H17.6V24.9121C17.6 25.2602 17.737 25.594 17.9808 25.8402C18.2246 26.0863 18.5552 26.2246 18.9 26.2246H21.5C22.5343 26.2246 23.5263 25.8098 24.2577 25.0713C24.9891 24.3329 25.4 23.3314 25.4 22.2871V15.4884C26.1586 15.2176 26.8157 14.7165 27.2812 14.0539C27.7467 13.3912 27.9977 12.5995 28 11.7871V9.16211C28 8.11782 27.5891 7.1163 26.8577 6.37788C26.1263 5.63945 25.1343 5.22461 24.1 5.22461ZM22.8 22.2871C22.8 22.6352 22.663 22.969 22.4192 23.2152C22.1754 23.4613 21.8448 23.5996 21.5 23.5996H20.2V15.7246H22.8V22.2871ZM25.4 11.7871C25.4 12.1352 25.263 12.469 25.0192 12.7152C24.7754 12.9613 24.4448 13.0996 24.1 13.0996H12.4V7.84961H20.2V9.16211C20.2 9.51021 20.337 9.84405 20.5808 10.0902C20.8246 10.3363 21.1552 10.4746 21.5 10.4746C21.8448 10.4746 22.1754 10.3363 22.4192 10.0902C22.663 9.84405 22.8 9.51021 22.8 9.16211V7.84961H24.1C24.4448 7.84961 24.7754 7.98789 25.0192 8.23403C25.263 8.48017 25.4 8.81401 25.4 9.16211V11.7871Z" fill="#FFB800"/>
</svg>
