<svg width="30" height="30" viewBox="0 0 30 30" fill="none" xmlns="http://www.w3.org/2000/svg">
<path d="M2 15.6667V21.5C2 21.8094 2.12292 22.1062 2.34171 22.325C2.5605 22.5437 2.85725 22.6667 3.16667 22.6667H4.33333C4.33333 23.5949 4.70208 24.4852 5.35846 25.1415C6.01484 25.7979 6.90508 26.1667 7.83333 26.1667C8.76159 26.1667 9.65183 25.7979 10.3082 25.1415C10.9646 24.4852 11.3333 23.5949 11.3333 22.6667H18.3333C18.3333 23.5949 18.7021 24.4852 19.3585 25.1415C20.0148 25.7979 20.9051 26.1667 21.8333 26.1667C22.7616 26.1667 23.6518 25.7979 24.3082 25.1415C24.9646 24.4852 25.3333 23.5949 25.3333 22.6667H26.5C26.8094 22.6667 27.1062 22.5437 27.325 22.325C27.5438 22.1062 27.6667 21.8094 27.6667 21.5V7.5C27.6667 6.57174 27.2979 5.6815 26.6415 5.02513C25.9852 4.36875 25.0949 4 24.1667 4H13.6667C12.7384 4 11.8482 4.36875 11.1918 5.02513C10.5354 5.6815 10.1667 6.57174 10.1667 7.5V9.83333H7.83333C7.28998 9.83333 6.75408 9.95984 6.26809 10.2028C5.78209 10.4458 5.35935 10.7986 5.03333 11.2333L2.23333 14.9667C2.19921 15.0174 2.17176 15.0723 2.15167 15.13L2.08167 15.2583C2.03018 15.3884 2.00251 15.5268 2 15.6667ZM20.6667 22.6667C20.6667 22.4359 20.7351 22.2104 20.8633 22.0185C20.9915 21.8266 21.1737 21.6771 21.3869 21.5888C21.6 21.5005 21.8346 21.4774 22.0609 21.5224C22.2873 21.5674 22.4951 21.6785 22.6583 21.8417C22.8215 22.0049 22.9326 22.2127 22.9776 22.4391C23.0226 22.6654 22.9995 22.8999 22.9112 23.1131C22.8229 23.3263 22.6734 23.5085 22.4815 23.6367C22.2896 23.7649 22.0641 23.8333 21.8333 23.8333C21.5239 23.8333 21.2272 23.7104 21.0084 23.4916C20.7896 23.2728 20.6667 22.9761 20.6667 22.6667ZM12.5 7.5C12.5 7.19058 12.6229 6.89383 12.8417 6.67504C13.0605 6.45625 13.3572 6.33333 13.6667 6.33333H24.1667C24.4761 6.33333 24.7728 6.45625 24.9916 6.67504C25.2104 6.89383 25.3333 7.19058 25.3333 7.5V20.3333H24.4233C24.0953 19.9724 23.6954 19.684 23.2494 19.4867C22.8034 19.2894 22.3211 19.1875 21.8333 19.1875C21.3456 19.1875 20.8633 19.2894 20.4173 19.4867C19.9712 19.684 19.5714 19.9724 19.2433 20.3333H12.5V7.5ZM10.1667 14.5H5.5L6.9 12.6333C7.00867 12.4884 7.14959 12.3708 7.31158 12.2898C7.47358 12.2088 7.65221 12.1667 7.83333 12.1667H10.1667V14.5ZM6.66667 22.6667C6.66667 22.4359 6.73509 22.2104 6.86329 22.0185C6.99148 21.8266 7.17369 21.6771 7.38687 21.5888C7.60005 21.5005 7.83463 21.4774 8.06094 21.5224C8.28725 21.5674 8.49513 21.6785 8.65829 21.8417C8.82145 22.0049 8.93257 22.2127 8.97758 22.4391C9.0226 22.6654 8.9995 22.8999 8.91119 23.1131C8.82289 23.3263 8.67336 23.5085 8.4815 23.6367C8.28964 23.7649 8.06408 23.8333 7.83333 23.8333C7.52391 23.8333 7.22717 23.7104 7.00838 23.4916C6.78958 23.2728 6.66667 22.9761 6.66667 22.6667ZM4.33333 16.8333H10.1667V20.0767C9.47814 19.4613 8.57432 19.143 7.65214 19.1911C6.72996 19.2391 5.86414 19.6497 5.24333 20.3333H4.33333V16.8333Z" fill="#FFB800"/>
</svg>
