<svg width="25" height="25" viewBox="0 0 25 25" fill="none" xmlns="http://www.w3.org/2000/svg">
<path d="M23.0335 9.1177C23.0337 6.95759 22.187 4.92136 20.6496 3.38402C19.1123 1.84667 17.0761 1 14.9158 1H10.106C10.1058 1 10.1058 1 10.1058 1C7.94587 1 5.90947 1.84667 4.3723 3.38384C2.83495 4.92136 1.98828 6.95759 1.98828 9.1177V12.8985C1.98828 14.5715 2.49857 16.1806 3.46404 17.5523C4.3158 18.7624 5.4613 19.7077 6.79685 20.3069V22.4786C6.79685 23.6015 7.42558 24 7.96394 24C8.34859 24 8.73323 23.8101 9.1077 23.4358L11.5272 21.0164L14.916 21.0162C17.0761 21.0162 19.1123 20.1695 20.6496 18.6324C22.187 17.095 23.0337 15.0586 23.0337 12.8985L23.0335 9.1177ZM14.916 19.6685L11.2482 19.6687C11.0693 19.6687 10.8981 19.7396 10.7717 19.866L8.15486 22.4828C8.15153 22.4863 8.14802 22.4897 8.14451 22.493C8.14451 22.4883 8.14451 22.4834 8.14451 22.4786V19.8572C8.14451 19.5777 7.97202 19.3272 7.71091 19.2276C5.09421 18.2291 3.33611 15.6856 3.33611 12.8985V9.1177C3.33611 7.31749 4.04258 5.61958 5.32531 4.33668C6.60804 3.05412 8.30577 2.34766 10.106 2.34766H14.9158C16.716 2.34766 18.4139 3.05412 19.6966 4.33685C20.9795 5.61976 21.686 7.31767 21.6858 9.1177L21.686 12.8985C21.6858 16.6316 18.6489 19.6685 14.916 19.6685Z" fill="#9B51E0" stroke="#9B51E0" stroke-width="0.4"/>
<path d="M14.3028 12.021C14.0398 11.7577 13.6132 11.7577 13.35 12.021L12.8057 12.5651L10.6965 10.4561L11.2408 9.91191C11.3671 9.78557 11.4382 9.61413 11.4382 9.43532C11.4382 9.25668 11.3671 9.08524 11.2408 8.9589L8.68901 6.40713C8.56267 6.28078 8.39141 6.20972 8.2126 6.20972C8.03396 6.20972 7.86252 6.28078 7.73618 6.40713L5.94983 8.19347C4.98384 9.15947 4.98384 10.7316 5.95001 11.6981L11.5637 17.3121C12.0304 17.7787 12.6528 18.0356 13.316 18.0356C13.9793 18.0356 14.6017 17.7787 15.0684 17.3121L16.8548 15.5259C16.9811 15.3994 17.0522 15.2281 17.0522 15.0493C17.0522 14.8707 16.9811 14.6993 16.8548 14.5729L14.3028 12.021ZM14.1154 16.3589C13.9033 16.5711 13.6194 16.6879 13.316 16.6879C13.0126 16.6879 12.7286 16.5711 12.5165 16.3589L6.90302 10.7451C6.46222 10.3043 6.46205 9.58693 6.90284 9.14631L8.2126 7.83638L9.81136 9.43532L9.26703 9.97947C9.14069 10.1058 9.06962 10.2773 9.06962 10.4559C9.06962 10.6347 9.14069 10.806 9.26703 10.9325L12.3291 13.9945C12.5923 14.2576 13.0189 14.2578 13.2821 13.9945L13.8264 13.4504L15.4252 15.0491L14.1154 16.3589Z" fill="#9B51E0" stroke="#9B51E0" stroke-width="0.4"/>
<path d="M12.6744 3.98071C12.3023 3.98071 12.0006 4.28236 12.0006 4.65454C12.0006 5.02655 12.3023 5.32837 12.6744 5.32837C14.2165 5.32837 15.6665 5.92885 16.7569 7.01943C17.8475 8.10984 18.448 9.55962 18.448 11.1019C18.448 11.4739 18.7496 11.7757 19.1218 11.7757C19.4938 11.7757 19.7956 11.4741 19.7956 11.1019C19.7956 9.19972 19.0549 7.41145 17.7099 6.06642C16.3649 4.7214 14.5766 3.98071 12.6744 3.98071Z" fill="#9B51E0" stroke="#9B51E0" stroke-width="0.4"/>
<path d="M15.561 11.1017C15.561 11.4737 15.8628 11.7756 16.2349 11.7756C16.607 11.7756 16.9087 11.4737 16.9087 11.1017C16.9087 8.76703 15.0091 6.86768 12.6744 6.86768C12.3023 6.86768 12.0006 7.16932 12.0006 7.5415C12.0006 7.91369 12.3023 8.21533 12.6744 8.21533C14.2662 8.21533 15.561 9.51017 15.561 11.1017Z" fill="#9B51E0" stroke="#9B51E0" stroke-width="0.4"/>
</svg>
