<svg width="92" height="90" viewBox="0 0 92 90" fill="none" xmlns="http://www.w3.org/2000/svg">
<path d="M90.4667 0H1.53333C0.68655 0 0 0.684356 0 1.52843V62.6657C0 63.5098 0.68655 64.1942 1.53333 64.1942H29.2207C29.2667 64.7031 29.3419 65.2045 29.4323 65.7012L21.022 75.6926C20.4773 76.3389 20.5614 77.303 21.2098 77.8459C21.3925 77.999 21.6087 78.1073 21.8408 78.1625L31.0991 80.3665L34.8849 89.0786C35.2214 89.8531 36.1242 90.2092 36.9012 89.8737C37.1201 89.7794 37.3137 89.6353 37.467 89.453L45.8635 79.4785C45.9095 79.4785 45.954 79.4785 46 79.4785C46.046 79.4785 46.0905 79.4785 46.1365 79.4785L54.533 89.453C55.0769 90.0999 56.0441 90.1848 56.6931 89.6426C56.8757 89.4899 57.0203 89.2968 57.1151 89.0786L60.9009 80.3665L70.1592 78.1625C70.983 77.9669 71.4919 77.1427 71.2956 76.3215C71.2402 76.0901 71.1315 75.8746 70.978 75.6926L62.5677 65.7012C62.6581 65.2045 62.7333 64.7031 62.7793 64.1942H90.4667C91.3134 64.1942 92 63.5098 92 62.6657V1.52843C92 0.684165 91.3134 0 90.4667 0ZM36.7126 85.5922L33.6076 78.4544C33.4157 78.0131 33.0267 77.6875 32.5573 77.5756L24.9673 75.7674L30.4719 69.2273C30.5011 69.2945 30.5394 69.3557 30.5685 69.4229C30.7679 69.8815 30.9841 70.3171 31.2233 70.7496C31.3214 70.93 31.4257 71.1073 31.5299 71.283C31.7406 71.6325 31.9633 71.9748 32.1985 72.3101C32.3625 72.544 32.5343 72.7687 32.7106 72.9979C32.9161 73.2578 33.1277 73.5115 33.35 73.7621C33.5723 74.0128 33.8315 74.2895 34.0875 74.5432C34.2761 74.7312 34.4709 74.9131 34.6702 75.0919C34.8358 75.2447 34.9845 75.4052 35.1578 75.5504C35.3311 75.6956 35.4936 75.7934 35.6592 75.9218C35.7343 75.9799 35.7987 76.0471 35.8754 76.1037C36.0134 76.2076 36.1591 76.2978 36.3001 76.3972C36.5209 76.55 36.7387 76.7151 36.9671 76.8557C37.4026 77.1339 37.8519 77.3876 38.3073 77.6199C38.4821 77.7086 38.6599 77.7896 38.8378 77.8721C39.2466 78.0637 39.6581 78.238 40.0721 78.3948C40.1917 78.4391 40.3098 78.4896 40.4294 78.5309C41.0102 78.7343 41.602 78.9053 42.2019 79.0429L42.2188 79.0475L36.7126 85.5922ZM48.8796 76.0976C48.1764 76.2457 47.4628 76.3393 46.7452 76.3773H46.7253C46.483 76.3895 46.2407 76.4063 45.9969 76.4063C45.7531 76.4063 45.5109 76.3895 45.2686 76.3773H45.2487C44.5326 76.3391 43.8206 76.246 43.1189 76.0991L42.9901 76.0731C42.7171 76.0135 42.4473 75.9402 42.1805 75.8637C42.0685 75.8316 41.9551 75.8026 41.8447 75.7674C41.653 75.7078 41.4644 75.6375 41.2758 75.5703C41.0872 75.503 40.9078 75.4373 40.7269 75.3624C40.6149 75.315 40.5045 75.2646 40.3941 75.2096C40.1427 75.0965 39.8927 74.9818 39.6489 74.855L39.5263 74.7877C38.8941 74.4507 38.2892 74.0654 37.7169 73.6353C37.398 73.3984 37.1036 73.137 36.8138 72.8787C36.4711 72.574 36.1439 72.2521 35.834 71.9143C35.7113 71.7828 35.5795 71.6575 35.4629 71.5215C35.0347 71.0194 34.6441 70.4865 34.2945 69.9273C34.2424 69.8448 34.1979 69.7577 34.1412 69.6721C33.8152 69.1291 33.5282 68.5636 33.2825 67.9801C33.2611 67.9281 33.2365 67.8762 33.2166 67.8272C32.945 67.1586 32.7265 66.4698 32.5634 65.7669C32.5634 65.7394 32.5419 65.718 32.5343 65.6905C32.3116 64.6976 32.1994 63.6831 32.2 62.6657C32.1954 55.0685 38.3701 48.9062 45.9916 48.9014C53.6132 48.8968 59.7952 55.0518 59.8 62.6489C59.8006 63.6779 59.6854 64.7037 59.4565 65.7071C59.4489 65.7331 59.4335 65.756 59.4274 65.782C59.2645 66.4841 59.0466 67.1725 58.7757 67.8408C58.7543 67.8943 58.7297 67.9478 58.7067 67.9937C58.4618 68.5735 58.1758 69.1354 57.8511 69.6749C57.8005 69.7605 57.7545 69.8507 57.6978 69.9363C57.3482 70.4947 56.9582 71.027 56.5309 71.5289C56.4159 71.6634 56.2856 71.7857 56.1645 71.9171C55.8503 72.258 55.5191 72.583 55.1724 72.8908C54.8811 73.1491 54.5913 73.4104 54.2739 73.6458C53.9565 73.8812 53.6728 74.0799 53.3631 74.277L53.3447 74.2877C53.0671 74.4635 52.7835 74.6255 52.4952 74.7784C52.4385 74.8089 52.3833 74.841 52.3265 74.8701C52.095 74.9908 51.8665 75.0993 51.6227 75.2048C51.5001 75.2598 51.3789 75.3164 51.2547 75.3668C51.083 75.4386 50.9082 75.5013 50.7334 75.564C50.5586 75.6266 50.3424 75.7076 50.1431 75.7688C50.0373 75.8024 49.9299 75.8315 49.8226 75.862C49.5512 75.9384 49.2783 76.0149 49.0023 76.0729L48.8796 76.0976ZM67.0327 75.7629L59.4427 77.571C58.9733 77.683 58.5843 78.0085 58.3924 78.4498L55.2874 85.5922L49.7812 79.0521H49.795C50.3972 78.9149 50.9912 78.7435 51.5737 78.5385C51.6887 78.4988 51.7991 78.4514 51.9141 78.4101C52.3419 78.2481 52.7635 78.0708 53.1775 77.8736C53.3462 77.7957 53.5149 77.7208 53.6805 77.6352C54.1405 77.3968 54.6005 77.1385 55.0421 76.8557C55.2552 76.7212 55.4591 76.5699 55.6661 76.4247C55.8195 76.3192 55.9728 76.2229 56.1261 76.1114C56.2074 76.0502 56.2795 75.9784 56.3592 75.9157C56.5125 75.7904 56.6904 75.6849 56.8468 75.5535C57.0032 75.422 57.1627 75.2478 57.3252 75.1041C57.5276 74.9207 57.7269 74.7358 57.9201 74.5447C58.1726 74.2931 58.4169 74.0342 58.6531 73.7683C58.8754 73.5176 59.087 73.2639 59.294 73.004C59.4703 72.7794 59.6421 72.5455 59.8061 72.3162C60.0423 71.983 60.2661 71.6407 60.4731 71.2922C60.5805 71.1149 60.6847 70.9361 60.7798 70.7542C61.018 70.3232 61.2352 69.8824 61.4315 69.4321C61.4591 69.3541 61.4989 69.2915 61.5281 69.2227L67.0327 75.7629ZM88.9333 61.1373H62.7885C61.9564 51.8941 53.7646 45.0733 44.4918 45.9028C36.372 46.6292 29.9372 53.0435 29.2085 61.1373H3.06667V3.05686H88.9333V61.1373Z" fill="#005BAF"/>
<path d="M7.66667 6.11373C6.81988 6.11373 6.13333 6.79809 6.13333 7.64216V13.7559H9.2V9.17059H13.8V6.11373H7.66667Z" fill="#005BAF"/>
<path d="M84.3333 6.11373H78.2V9.17059H82.8V13.7559H85.8667V7.64216C85.8667 6.79789 85.1801 6.11373 84.3333 6.11373Z" fill="#005BAF"/>
<path d="M82.8 50.4383V55.0236H78.2V58.0804H84.3333C85.1801 58.0804 85.8667 57.3961 85.8667 56.552V50.4383H82.8Z" fill="#005BAF"/>
<path d="M9.2 55.0236V50.4383H6.13333V56.552C6.13333 57.3961 6.81988 58.0804 7.66667 58.0804H13.8V55.0236H9.2Z" fill="#005BAF"/>
<path d="M64.4 16.8128H27.6V19.8696H64.4V16.8128Z" fill="#005BAF"/>
<path d="M73.6 25.9834H18.4V29.0402H73.6V25.9834Z" fill="#005BAF"/>
<path d="M46 51.9667C40.0721 51.9667 35.2667 56.7568 35.2667 62.6657C35.2734 68.5718 40.075 73.3581 46 73.3648C51.9279 73.3648 56.7333 68.5746 56.7333 62.6657C56.7333 56.7568 51.9279 51.9667 46 51.9667ZM46 70.3079C41.7659 70.3079 38.3333 66.8863 38.3333 62.6657C38.3383 58.4473 41.768 55.0285 46 55.0236C50.2341 55.0236 53.6667 58.4452 53.6667 62.6657C53.6667 66.8863 50.2341 70.3079 46 70.3079Z" fill="#005BAF"/>
</svg>
