<svg width="25" height="20" viewBox="0 0 25 20" fill="none" xmlns="http://www.w3.org/2000/svg">
<path fill-rule="evenodd" clip-rule="evenodd" d="M4.00195 11C4.55424 11 5.00195 11.4477 5.00195 12V19C5.00195 19.5523 4.55424 20 4.00195 20C3.44967 20 3.00195 19.5523 3.00195 19V12C3.00195 11.4477 3.44967 11 4.00195 11Z" fill="#2B2B2B"/>
<path fill-rule="evenodd" clip-rule="evenodd" d="M4.00195 0C4.55424 0 5.00195 0.447715 5.00195 1V8C5.00195 8.55228 4.55424 9 4.00195 9C3.44967 9 3.00195 8.55228 3.00195 8V1C3.00195 0.447715 3.44967 0 4.00195 0Z" fill="#2B2B2B"/>
<path fill-rule="evenodd" clip-rule="evenodd" d="M12.002 9C12.5542 9 13.002 9.44771 13.002 10V19C13.002 19.5523 12.5542 20 12.002 20C11.4497 20 11.002 19.5523 11.002 19V10C11.002 9.44771 11.4497 9 12.002 9Z" fill="#2B2B2B"/>
<path fill-rule="evenodd" clip-rule="evenodd" d="M12.002 0C12.5542 0 13.002 0.447715 13.002 1V6C13.002 6.55228 12.5542 7 12.002 7C11.4497 7 11.002 6.55228 11.002 6V1C11.002 0.447715 11.4497 0 12.002 0Z" fill="#2B2B2B"/>
<path fill-rule="evenodd" clip-rule="evenodd" d="M20.002 13C20.5542 13 21.002 13.4477 21.002 14V19C21.002 19.5523 20.5542 20 20.002 20C19.4497 20 19.002 19.5523 19.002 19V14C19.002 13.4477 19.4497 13 20.002 13Z" fill="#2B2B2B"/>
<path fill-rule="evenodd" clip-rule="evenodd" d="M20.002 0C20.5542 0 21.002 0.447715 21.002 1V10C21.002 10.5523 20.5542 11 20.002 11C19.4497 11 19.002 10.5523 19.002 10V1C19.002 0.447715 19.4497 0 20.002 0Z" fill="#2B2B2B"/>
<path fill-rule="evenodd" clip-rule="evenodd" d="M0.00195312 12C0.00195312 11.4477 0.449668 11 1.00195 11H7.00195C7.55424 11 8.00195 11.4477 8.00195 12C8.00195 12.5523 7.55424 13 7.00195 13H1.00195C0.449668 13 0.00195312 12.5523 0.00195312 12Z" fill="#2B2B2B"/>
<path fill-rule="evenodd" clip-rule="evenodd" d="M8.00195 6C8.00195 5.44772 8.44967 5 9.00195 5H15.002C15.5542 5 16.002 5.44772 16.002 6C16.002 6.55228 15.5542 7 15.002 7H9.00195C8.44967 7 8.00195 6.55228 8.00195 6Z" fill="#2B2B2B"/>
<path fill-rule="evenodd" clip-rule="evenodd" d="M16.002 14C16.002 13.4477 16.4497 13 17.002 13H23.002C23.5542 13 24.002 13.4477 24.002 14C24.002 14.5523 23.5542 15 23.002 15H17.002C16.4497 15 16.002 14.5523 16.002 14Z" fill="#2B2B2B"/>
</svg>
