<svg width="25" height="21" viewBox="0 0 25 21" fill="none" xmlns="http://www.w3.org/2000/svg">
<path fill-rule="evenodd" clip-rule="evenodd" d="M4.3457 11.6182C4.89799 11.6182 5.3457 12.0659 5.3457 12.6182V19.6182C5.3457 20.1704 4.89799 20.6182 4.3457 20.6182C3.79342 20.6182 3.3457 20.1704 3.3457 19.6182V12.6182C3.3457 12.0659 3.79342 11.6182 4.3457 11.6182Z" fill="#005BAF"/>
<path fill-rule="evenodd" clip-rule="evenodd" d="M4.3457 0.618164C4.89799 0.618164 5.3457 1.06588 5.3457 1.61816V8.61816C5.3457 9.17045 4.89799 9.61816 4.3457 9.61816C3.79342 9.61816 3.3457 9.17045 3.3457 8.61816V1.61816C3.3457 1.06588 3.79342 0.618164 4.3457 0.618164Z" fill="#005BAF"/>
<path fill-rule="evenodd" clip-rule="evenodd" d="M12.3457 9.61816C12.898 9.61816 13.3457 10.0659 13.3457 10.6182V19.6182C13.3457 20.1704 12.898 20.6182 12.3457 20.6182C11.7934 20.6182 11.3457 20.1704 11.3457 19.6182V10.6182C11.3457 10.0659 11.7934 9.61816 12.3457 9.61816Z" fill="#005BAF"/>
<path fill-rule="evenodd" clip-rule="evenodd" d="M12.3457 0.618164C12.898 0.618164 13.3457 1.06588 13.3457 1.61816V6.61816C13.3457 7.17045 12.898 7.61816 12.3457 7.61816C11.7934 7.61816 11.3457 7.17045 11.3457 6.61816V1.61816C11.3457 1.06588 11.7934 0.618164 12.3457 0.618164Z" fill="#005BAF"/>
<path fill-rule="evenodd" clip-rule="evenodd" d="M20.3457 13.6182C20.898 13.6182 21.3457 14.0659 21.3457 14.6182V19.6182C21.3457 20.1704 20.898 20.6182 20.3457 20.6182C19.7934 20.6182 19.3457 20.1704 19.3457 19.6182V14.6182C19.3457 14.0659 19.7934 13.6182 20.3457 13.6182Z" fill="#005BAF"/>
<path fill-rule="evenodd" clip-rule="evenodd" d="M20.3457 0.618164C20.898 0.618164 21.3457 1.06588 21.3457 1.61816V10.6182C21.3457 11.1704 20.898 11.6182 20.3457 11.6182C19.7934 11.6182 19.3457 11.1704 19.3457 10.6182V1.61816C19.3457 1.06588 19.7934 0.618164 20.3457 0.618164Z" fill="#005BAF"/>
<path fill-rule="evenodd" clip-rule="evenodd" d="M0.345703 12.6182C0.345703 12.0659 0.793418 11.6182 1.3457 11.6182H7.3457C7.89799 11.6182 8.3457 12.0659 8.3457 12.6182C8.3457 13.1704 7.89799 13.6182 7.3457 13.6182H1.3457C0.793418 13.6182 0.345703 13.1704 0.345703 12.6182Z" fill="#005BAF"/>
<path fill-rule="evenodd" clip-rule="evenodd" d="M8.3457 6.61816C8.3457 6.06588 8.79342 5.61816 9.3457 5.61816H15.3457C15.898 5.61816 16.3457 6.06588 16.3457 6.61816C16.3457 7.17045 15.898 7.61816 15.3457 7.61816H9.3457C8.79342 7.61816 8.3457 7.17045 8.3457 6.61816Z" fill="#005BAF"/>
<path fill-rule="evenodd" clip-rule="evenodd" d="M16.3457 14.6182C16.3457 14.0659 16.7934 13.6182 17.3457 13.6182H23.3457C23.898 13.6182 24.3457 14.0659 24.3457 14.6182C24.3457 15.1704 23.898 15.6182 23.3457 15.6182H17.3457C16.7934 15.6182 16.3457 15.1704 16.3457 14.6182Z" fill="#005BAF"/>
</svg>
