<svg width="78" height="90" viewBox="0 0 78 90" fill="none" xmlns="http://www.w3.org/2000/svg">
<path d="M69.3333 17.6466C59.2367 17.6466 49.5271 14.5804 41.2562 8.78063L39 7.19757L36.7438 8.77918C28.4729 14.5804 18.7633 17.6466 8.66667 17.6466C7.07344 17.6466 5.77778 18.9446 5.77778 20.5407V40.1162C5.77778 59.2982 17.7999 76.7741 35.6908 83.5997C36.7524 84.0049 37.8661 84.2104 39 84.2104C40.1339 84.2104 41.2476 84.0049 42.3092 83.5997C60.2001 76.7726 72.2222 59.2982 72.2222 40.1162V20.5407C72.2222 18.9446 70.9266 17.6466 69.3333 17.6466ZM69.3333 40.1162C69.3333 58.1044 58.0594 74.4921 41.2808 80.8952C39.8161 81.4552 38.1839 81.4552 36.7207 80.8952C19.9406 74.4921 8.66667 58.1044 8.66667 40.1162V20.5407C19.3584 20.5407 29.6414 17.2936 38.4006 11.1509L39 10.7312L39.5994 11.1523C48.3586 17.2936 58.6416 20.5407 69.3333 20.5407V40.1162Z" fill="#005BAF"/>
<path d="M66.4444 40.1162V32.117H63.5556V40.1162C63.5556 43.6325 63.0587 47.1344 62.0779 50.5262L64.8527 51.3322C65.9085 47.677 66.4444 43.9046 66.4444 40.1162Z" fill="#005BAF"/>
<path d="M63.5556 26.3289H66.4444V29.2229H63.5556V26.3289Z" fill="#005BAF"/>
<path d="M70.7778 11.8585C62.0591 11.8585 53.5701 9.36668 46.2294 4.65368L38.9841 0L32.734 4.17471C25.2084 9.20172 16.4479 11.8585 7.40278 11.8585C3.32078 11.8585 0 15.1852 0 19.2746V40.1162C0 61.5831 13.4333 81.2006 33.4259 88.9292C34.5988 89.3821 35.7457 89.6918 36.8362 89.8466H36.8377C37.5671 89.9494 38.2937 90 39.0144 90C40.8446 90 42.6357 89.6686 44.3661 89.0088C64.4829 81.3337 78 61.6844 78 40.1162V19.0937C78 15.1042 74.7601 11.8585 70.7778 11.8585ZM75.1111 40.1162C75.1111 60.492 62.3422 79.0532 43.3362 86.3043C41.3862 87.048 39.3351 87.2738 37.2378 86.98C36.3653 86.857 35.4322 86.6038 34.4644 86.229C15.5783 78.9273 2.88889 60.3965 2.88889 40.1162V19.2746C2.88889 16.7813 4.914 14.7526 7.40278 14.7526C17.0199 14.7526 26.3337 11.9279 34.3359 6.58258L39.0144 3.45697L44.6709 7.08904C52.4781 12.103 61.5059 14.7526 70.7778 14.7526C73.1669 14.7526 75.1111 16.7003 75.1111 19.0937V40.1162Z" fill="#005BAF"/>
<path d="M29 45.1988L31.1213 43.0775L39.0183 50.9745L36.9039 53.0984L29 45.1988Z" fill="#005BAF"/>
<path d="M49.7597 35.9999L51.881 38.1213L36.9039 53.0984L34.7826 50.9771L49.7597 35.9999Z" fill="#005BAF"/>
</svg>
