<svg width="74" height="74" viewBox="0 0 74 74" fill="none" xmlns="http://www.w3.org/2000/svg">
<path d="M70.8143 5.26477H62.9281L61.5751 4.36236C57.8375 1.87397 53.4887 0.558594 48.9975 0.558594H40.1975C38.8986 0.558594 37.8424 1.61395 37.8424 2.91168C37.8424 3.77291 38.092 4.57061 38.4971 5.26595L31.9545 5.26477C30.0068 5.26477 28.4218 6.8484 28.4218 8.7944C28.4218 9.25914 28.5172 9.70034 28.6809 10.1074C28.0238 10.2851 27.4444 10.6428 26.9981 11.1322L25.8076 9.94271L24.0919 11.6558C23.4431 12.3052 22.4716 12.4935 21.5707 12.117C20.7252 11.7675 20.1788 10.951 20.1788 10.0357V7.61786H13.1134V10.0357C13.1134 10.951 12.567 11.7687 11.6732 12.1358C10.8195 12.4958 9.84802 12.3052 9.198 11.6558L7.48464 9.94271L2.48703 14.936L4.2004 16.649C4.84924 17.2985 5.03882 18.2691 4.66318 19.168C4.31344 20.0128 3.49621 20.5598 2.58006 20.5598H0.160156V27.6191H2.58006C3.49621 27.6191 4.31462 28.1662 4.6832 29.0568C5.04 29.911 4.85041 30.8817 4.20157 31.5311L2.48703 33.243L7.48464 38.2362L9.20035 36.5232C9.84919 35.8737 10.8195 35.6855 11.7204 36.0596C12.5658 36.4114 13.1134 37.2279 13.1134 38.1433V40.5611H14.291V42.9448C14.291 45.1967 14.5418 47.4403 15.0081 49.6334C13.8847 50.1405 12.7943 50.7323 11.7557 51.4241L10.4015 52.3265H2.51529C1.21644 52.3265 0.160156 53.3819 0.160156 54.6796V68.7982C0.160156 70.0959 1.21644 71.1512 2.51529 71.1512H9.58071C10.5334 71.1512 11.3518 70.5806 11.7227 69.7653C15.4073 72.1842 19.7584 73.5043 24.1861 73.5043H34.3097C34.7948 73.5043 35.2576 73.4055 35.6792 73.2278C35.8829 73.2996 36.0854 73.3749 36.2915 73.4432L36.6648 73.5679L37.0381 73.4443C42.6009 71.5925 47.3783 68.3217 51.0559 64.1296C51.2855 64.1532 51.5187 64.2002 51.7577 64.299C52.6032 64.6485 53.1508 65.465 53.1508 66.3804V68.7982H60.2162V66.3804C60.2162 65.465 60.7637 64.6473 61.6552 64.2791C62.5101 63.9237 63.4804 64.1108 64.1304 64.7603L65.845 66.4733L70.8426 61.48L69.1292 59.767C68.4804 59.1176 68.2908 58.1469 68.6664 57.248C69.0162 56.4033 69.8334 55.8562 70.7495 55.8562H73.1694V48.7969H70.7495C69.8334 48.7969 69.015 48.2498 68.6464 47.3592C68.2896 46.505 68.4792 45.5343 69.128 44.8849L70.8414 43.1718L65.8438 38.1786L64.1281 39.8916C63.4792 40.5411 62.5089 40.7293 61.6069 40.3529C60.7626 40.0046 60.2162 39.1881 60.2162 38.2727V35.8549H59.0386V24.1589C59.9253 23.7283 60.7826 23.2412 61.6057 22.7C61.9755 23.5165 62.7951 24.0895 63.7489 24.0895H70.8143C72.1132 24.0895 73.1694 23.0341 73.1694 21.7364V7.61786C73.1694 6.32013 72.1132 5.26477 70.8143 5.26477ZM31.9545 7.61786L42.5526 7.61904V7.61786H46.2855C46.9956 7.61786 47.6374 7.94611 48.0766 8.49203C47.5632 8.93441 47.1134 9.43444 46.7153 9.97095H31.9545C31.3057 9.97095 30.777 9.44386 30.777 8.7944C30.777 8.14495 31.3057 7.61786 31.9545 7.61786ZM39.2154 18.4915L37.0216 17.0302H44.9078V19.3833H40.7109C40.201 19.108 39.6994 18.815 39.2154 18.4915ZM32.6187 19.3833H31.9545C31.3057 19.3833 30.777 18.8562 30.777 18.2068C30.777 17.5573 31.3057 17.0302 31.9545 17.0302H36.308L34.1154 18.4915C33.6302 18.815 33.1286 19.108 32.6187 19.3833ZM29.5994 12.324H45.4553C45.1857 13.0758 45.0185 13.8653 44.9537 14.6771H29.5994C28.9505 14.6771 28.4218 14.15 28.4218 13.5006C28.4218 12.8511 28.9505 12.324 29.5994 12.324ZM12.5812 33.8701C10.8407 33.1453 8.85886 33.5336 7.53292 34.8596L7.48464 34.909L5.8172 33.243L5.86666 33.1936C7.1926 31.8676 7.5812 29.8875 6.84051 28.1133C6.12572 26.3837 4.45357 25.266 2.58006 25.266H2.51529V22.9129H2.58006C4.45357 22.9129 6.12572 21.7952 6.85581 20.028C7.5812 18.2903 7.1926 16.3113 5.86666 14.9854L5.8172 14.936L7.48464 13.27L7.53409 13.3194C8.86239 14.6477 10.8442 15.0336 12.6188 14.2924C14.3499 13.5782 15.4686 11.9075 15.4686 10.0357V9.97095H17.8237V10.0357C17.8237 11.9075 18.9424 13.5794 20.7099 14.3077C22.448 15.0348 24.431 14.6465 25.7582 13.3194L25.8076 13.27L26.069 13.5323C26.0832 15.1454 27.1889 16.4902 28.6809 16.8949C28.5172 17.3008 28.4218 17.742 28.4218 18.2068C28.4218 19.1927 28.8304 20.0833 29.4852 20.7246C27.879 21.2564 26.2103 21.574 24.5217 21.6752C23.4772 18.2479 20.3225 15.8537 16.6461 15.8537C12.1007 15.8537 8.40314 19.5492 8.40314 24.0895C8.40314 27.785 10.8278 30.9523 14.291 31.977V35.0737C13.8317 34.5643 13.2547 34.1489 12.5812 33.8701ZM14.291 20.301V29.4616C12.1867 28.545 10.7583 26.4779 10.7583 24.0883C10.7583 20.8446 13.3996 18.2056 16.6461 18.2056C19.0107 18.2056 21.0585 19.6021 21.9899 21.6646C21.188 21.6081 20.3884 21.5187 19.5948 21.3611L14.291 20.301ZM9.58071 68.7982H2.51529V54.6796H9.58071V68.7982ZM34.3097 71.1512H24.1861C19.7737 71.1512 15.4509 69.6817 11.9358 67.0263V54.1325L13.0616 53.3819C16.4094 51.1523 20.3072 49.9734 24.3321 49.9734H30.777C30.777 51.2712 29.7218 52.3265 28.4265 52.3265H24.882V54.6796H39.0199C39.6688 54.6796 40.1975 55.2067 40.1975 55.8562C40.1975 56.5056 39.6688 57.0327 39.0199 57.0327H24.8891V59.3858H41.3751C42.0239 59.3858 42.5526 59.9129 42.5526 60.5623C42.5526 61.2118 42.0239 61.7389 41.3751 61.7389H24.8891V64.092H39.0199C39.6688 64.092 40.1975 64.6191 40.1975 65.2685C40.1975 65.918 39.6688 66.4451 39.0199 66.4451H24.8891V68.7982H34.3097C34.9585 68.7982 35.4872 69.3252 35.4872 69.9747C35.4872 70.6242 34.9585 71.1512 34.3097 71.1512ZM21.3564 42.9448V28.718C22.0347 28.7698 22.7141 28.7957 23.3877 28.7957C27.866 28.7957 31.9227 27.8791 35.4872 26.0849V52.3265H32.4774C32.8824 51.6312 33.1321 50.8347 33.1321 49.9734C33.1321 48.6757 32.0758 47.6204 30.777 47.6204H24.3321C23.4913 47.6204 22.6588 47.6815 21.831 47.7733C21.5213 46.1873 21.3564 44.5684 21.3564 42.9448ZM44.8925 60.4082C44.823 58.8505 43.7455 57.5633 42.2936 57.1692C42.4573 56.7621 42.5526 56.3209 42.5526 55.8562C42.5526 53.9102 40.9676 52.3265 39.0199 52.3265H37.8424V26.0849C41.4069 27.8803 45.4636 28.7957 49.9419 28.7957C50.6155 28.7957 51.2949 28.7698 51.9732 28.718V42.946C51.9732 49.5628 49.3884 55.7832 44.8925 60.4082ZM37.7741 70.65C37.8165 70.4312 37.8424 70.2053 37.8424 69.9747C37.8424 69.5606 37.7576 69.1676 37.6257 68.7982H39.0199C40.897 68.7982 42.4231 67.3228 42.5314 65.4744C49.9254 60.3506 54.3283 51.9853 54.3283 42.9448V26.0778L53.0024 26.2473C51.9861 26.3767 50.9558 26.4426 49.9419 26.4426C45.1386 26.4426 40.8805 25.3143 37.2842 23.0882L36.6648 22.7047L36.0454 23.0882C32.4491 25.3143 28.191 26.4426 23.3877 26.4426C22.3738 26.4426 21.3446 26.3767 20.3272 26.2473L19.0013 26.0778V42.9448C19.0013 44.6919 19.1755 46.4332 19.5029 48.1416C18.734 48.3086 17.978 48.5239 17.2302 48.771C16.8498 46.8568 16.6461 44.9049 16.6461 42.9448V23.1718L19.1343 23.6695C20.5321 23.9483 21.964 24.0895 23.3877 24.0895C27.6835 24.0895 31.845 22.8318 35.4213 20.4492L36.6648 19.621L37.9083 20.4492C41.4846 22.8318 45.6449 24.0895 49.9419 24.0895C51.3656 24.0895 52.7975 23.9483 54.1964 23.6695L56.6835 23.1718V42.946C56.6835 55.2597 49.1423 66.1862 37.7741 70.65ZM58.7784 46.8438C61.0028 47.7015 62.5713 49.8711 62.5713 52.3265C62.5713 55.5703 59.93 58.2093 56.6835 58.2093C56.1983 58.2093 55.7261 58.1481 55.2657 58.034C57.0921 54.5996 58.2944 50.8182 58.7784 46.8438ZM60.7473 42.5448C62.4854 43.2719 64.4684 42.8836 65.7955 41.5565L65.845 41.507L67.5124 43.173L67.4629 43.2224C66.137 44.5484 65.7484 46.5285 66.4891 48.3028C67.2039 50.0323 68.876 51.15 70.7495 51.15H70.8143V53.5031H70.7495C68.876 53.5031 67.2039 54.6208 66.4738 56.388C65.7484 58.1257 66.137 60.1047 67.4629 61.4306L67.5124 61.48L65.845 63.146L65.7955 63.0966C64.4672 61.7695 62.4854 61.38 60.7096 62.1236C58.9797 62.839 57.861 64.5085 57.861 66.3804V66.4451H55.5059V66.3804C55.5059 64.5285 54.4096 62.8778 52.6715 62.1342C53.1567 61.4824 53.6159 60.813 54.0516 60.1259C54.8947 60.4118 55.7756 60.5623 56.6835 60.5623C61.2289 60.5623 64.9265 56.8668 64.9265 52.3265C64.9265 48.6581 62.4324 45.4355 58.9797 44.4249C59.0021 43.9319 59.0386 43.4425 59.0386 42.9448V41.3411C59.4979 41.8518 60.0749 42.2671 60.7473 42.5448ZM53.7348 21.3622C51.5917 21.7893 49.4026 21.8211 47.2629 21.5199V15.4125C47.2629 13.5018 48.0684 11.7122 49.4461 10.438C50.5848 11.6252 52.1628 12.324 53.8726 12.324H54.3283V9.97095H53.8726C52.4242 9.97095 51.1242 9.16619 50.4671 7.85081C49.671 6.2566 48.0695 5.26477 46.2855 5.26477H42.5479C41.2526 5.26477 40.1975 4.20941 40.1975 2.91168H48.9975C53.0224 2.91168 56.9202 4.09058 60.268 6.32013L61.3937 7.07077V19.9716C60.6448 20.5375 59.8582 21.0505 59.0386 21.5081V20.301L53.7348 21.3622ZM70.8143 21.7364H63.7489V7.61786H70.8143V21.7364Z" fill="#2B2B2B"/>
<path d="M55.2998 14.9877C52.6456 15.6501 50.5436 17.595 49.6781 20.1881L51.912 20.9328C52.5219 19.1056 54.001 17.7373 55.8709 17.2702L56.9684 16.9961L56.3973 14.7148L55.2998 14.9877Z" fill="#2B2B2B"/>
<path d="M0.160156 45.2673H2.51529V47.6204H0.160156V45.2673Z" fill="#2B2B2B"/>
<path d="M4.87043 45.2673H7.22557V47.6204H4.87043V45.2673Z" fill="#2B2B2B"/>
<path d="M9.58071 45.2673H11.9358V47.6204H9.58071V45.2673Z" fill="#2B2B2B"/>
<path d="M61.3937 28.7957H63.7489V31.1487H61.3937V28.7957Z" fill="#2B2B2B"/>
<path d="M66.104 28.7957H68.4592V31.1487H66.104V28.7957Z" fill="#2B2B2B"/>
<path d="M70.8143 28.7957H73.1694V31.1487H70.8143V28.7957Z" fill="#2B2B2B"/>
</svg>
