<svg width="73" height="73" viewBox="0 0 73 73" fill="none" xmlns="http://www.w3.org/2000/svg">
<path d="M41.7834 27.821L41.8446 27.6422L39.615 26.9012L39.5538 27.0835C39.0458 28.5853 37.6288 29.5945 36.0261 29.5945C34.4233 29.5945 33.0063 28.5853 32.4983 27.08L32.4371 26.9012L30.2076 27.6422L30.2687 27.8175C31.0954 30.2705 33.4084 31.9174 36.0261 31.9174C38.6437 31.9174 40.9567 30.2705 41.7834 27.821Z" fill="#2B2B2B"/>
<path d="M48.4321 38.6329L41.5482 36.7444L41.2531 36.1613C45.3288 35.0219 48.4133 31.533 48.8919 27.2717H48.9613C51.5554 27.2717 53.665 25.188 53.665 22.6259C53.665 21.4877 53.2322 20.4563 52.5408 19.648C53.264 18.0266 53.665 16.2694 53.665 14.4958C53.665 10.7456 51.0779 7.46915 47.3479 6.50399C44.9102 2.82456 40.6957 0.558594 36.2248 0.558594H32.8899C24.8924 0.558594 18.3871 6.98483 18.3871 14.8826C18.3871 16.5493 18.7646 18.202 19.4455 19.7258C18.794 20.5237 18.3871 21.5237 18.3871 22.6259C18.3871 25.188 20.4967 27.2717 23.0908 27.2717H23.1602C23.64 31.533 26.7233 35.0219 30.7991 36.1613L30.5039 36.7444L23.62 38.6329C15.0005 40.9975 8.97971 48.821 8.97971 57.656V72.5677H63.0724V57.656C63.0724 48.821 57.0517 40.9975 48.4321 38.6329ZM45.2888 58.3901L37.8535 67.3657L43.7437 40.2171L47.5066 45.792L42.9393 51.4296L45.2888 58.3901ZM24.5455 45.792L28.3084 40.2171L34.1987 67.3657L26.7633 58.3901L29.1128 51.4296L24.5455 45.792ZM40.2582 45.1961L39.6197 42.5144L41.3483 39.1009L41.5682 39.1613L40.2582 45.1961ZM37.4466 43.5318L39.107 50.5074L36.0261 64.7036L32.9463 50.5074L34.6055 43.5318H37.4466ZM30.7038 39.0997L32.4324 42.5132L31.7939 45.195L30.4839 39.159L30.7038 39.0997ZM48.9613 24.9488V20.303C50.2583 20.303 51.3131 21.3448 51.3131 22.6259C51.3131 23.907 50.2583 24.9488 48.9613 24.9488ZM20.739 22.6259C20.739 21.3448 21.7938 20.303 23.0908 20.303H23.1461C23.1132 20.5702 23.0908 20.8396 23.0908 21.116V24.9488C21.7938 24.9488 20.739 23.907 20.739 22.6259ZM23.8928 17.9802H23.0908C22.4841 17.9802 21.909 18.1033 21.3763 18.3112C20.9577 17.2183 20.739 16.0522 20.739 14.8826C20.739 8.2659 26.1906 2.88147 32.8899 2.88147H36.2248C40.043 2.88147 43.6367 4.89076 45.6016 8.12536L45.8686 8.56439L46.3778 8.66543L46.4918 8.68866C49.2858 9.24034 51.3131 11.6828 51.3131 14.4958C51.3131 15.7897 51.0615 17.0789 50.5876 18.2833C50.0784 18.0963 49.5351 17.9802 48.9613 17.9802V16.9C48.9613 14.2938 46.814 12.173 44.1752 12.173C43.2251 12.173 42.3079 12.4471 41.52 12.9674L40.3852 13.7154C39.6091 14.2252 38.7048 14.4958 37.77 14.4958H29.7936C27.2454 14.4958 25.0264 15.907 23.8928 17.9802ZM25.4427 26.1102V21.116C25.4427 18.7467 27.3947 16.8187 29.7936 16.8187H37.77C39.1705 16.8187 40.5263 16.4134 41.6893 15.6468L42.8253 14.8989C43.2251 14.6352 43.6931 14.4958 44.1752 14.4958C45.5182 14.4958 46.6094 15.5748 46.6094 16.9V26.1102C46.6094 30.5934 42.9158 34.2403 38.3779 34.2403H33.6742C29.1363 34.2403 25.4427 30.5934 25.4427 26.1102ZM33.6742 36.5632H38.3779C38.5261 36.5632 38.6695 36.5469 38.8154 36.5411L39.4151 37.7246L37.6512 41.2089H34.4009L32.637 37.7246L33.2368 36.5411C33.3826 36.5469 33.526 36.5632 33.6742 36.5632ZM11.3316 57.656C11.3316 49.8605 16.6444 42.9569 24.2491 40.8698L25.2216 40.6026L21.635 45.9162L26.4752 51.893L24.121 58.8697L33.5437 70.2449H19.5631V52.8233H17.2112V70.2449H11.3316V57.656ZM60.7206 70.2449H54.8409V52.8233H52.4891V70.2449H38.5084L47.93 58.8709L45.5758 51.8941L50.4159 45.9174L46.8293 40.6038L47.8018 40.8709C55.4077 42.9569 60.7206 49.8605 60.7206 57.656V70.2449Z" fill="#2B2B2B"/>
<path d="M30.1464 21.4645C30.7959 21.4645 31.3223 20.9445 31.3223 20.303C31.3223 19.6616 30.7959 19.1416 30.1464 19.1416C29.497 19.1416 28.9705 19.6616 28.9705 20.303C28.9705 20.9445 29.497 21.4645 30.1464 21.4645Z" fill="#2B2B2B"/>
<path d="M41.9057 21.4645C42.5551 21.4645 43.0816 20.9445 43.0816 20.303C43.0816 19.6616 42.5551 19.1416 41.9057 19.1416C41.2563 19.1416 40.7298 19.6616 40.7298 20.303C40.7298 20.9445 41.2563 21.4645 41.9057 21.4645Z" fill="#2B2B2B"/>
<path d="M58.3687 40.0475H60.7206V42.3704H58.3687V40.0475Z" fill="#2B2B2B"/>
<path d="M65.8264 6.88495C65.3008 5.84894 64.246 5.20435 63.0724 5.20435C61.8988 5.20435 60.844 5.84894 60.3184 6.88495L54.1142 19.1416H58.3687V37.7246H60.7206V16.8187H57.9195L62.4221 7.92443C62.6702 7.43314 63.4746 7.43431 63.7215 7.92443L68.2253 16.8187H65.4243V67.922H67.7761V19.1416H72.0306L65.8264 6.88495Z" fill="#2B2B2B"/>
<path d="M65.4243 70.2449H67.7761V72.5677H65.4243V70.2449Z" fill="#2B2B2B"/>
<path d="M11.3316 40.0475H13.6834V42.3704H11.3316V40.0475Z" fill="#2B2B2B"/>
<path d="M9.63 18.3774L14.1326 27.2717H11.3316V37.7246H13.6834V29.5945H17.9379L11.7337 17.3379C11.2081 16.3019 10.1533 15.6573 8.97971 15.6573C7.80613 15.6573 6.75132 16.3019 6.22568 17.3379L0.0214844 29.5945H4.27599V67.922H6.62785V27.2717H3.82679L8.32942 18.3774C8.57754 17.8861 9.38188 17.8872 9.63 18.3774Z" fill="#2B2B2B"/>
<path d="M4.27599 70.2449H6.62785V72.5677H4.27599V70.2449Z" fill="#2B2B2B"/>
</svg>
