<svg width="73" height="73" viewBox="0 0 73 73" fill="none" xmlns="http://www.w3.org/2000/svg">
<path d="M70.8128 44.9987H72.097V28.9168H70.8128C68.3259 28.9168 66.1089 27.4338 65.1256 25.0479C64.1699 22.7494 64.688 20.1292 66.442 18.3739L67.3552 17.4653L55.9786 6.08848L55.0734 7.00056C53.3148 8.75693 50.6958 9.27385 48.3053 8.28137C46.0114 7.33598 44.5285 5.11897 44.5285 2.63201V1.34776H28.4468V2.63201C28.4468 5.11897 26.9638 7.33598 24.578 8.31927C22.2795 9.27615 19.6593 8.75693 17.9041 7.00285L16.9955 6.08963L15.5654 7.51977L8.60429 0.558594L5.76587 6.23552L0.0878906 9.07398L7.04896 16.0352L5.61884 17.4653L6.52975 18.3716C8.2861 20.1292 8.80416 22.7494 7.81054 25.1398C6.86632 27.4338 4.64934 28.9168 2.16243 28.9168H0.87819V44.9987H2.16243C4.64934 44.9987 6.86632 46.4817 7.8496 48.8676C8.80531 51.1661 8.28725 53.7863 6.5286 55.545L5.62458 56.4536L16.9955 67.8247L17.9018 66.9138C19.6581 65.1574 22.2806 64.6405 24.6699 65.633C26.9638 66.5784 28.4468 68.7965 28.4468 71.2835V72.5677H72.097V70.2703H67.5023V45.9969C68.4867 45.3617 69.6365 44.9987 70.8128 44.9987ZM17.0357 9.29797C19.41 11.1646 22.6229 11.6207 25.544 10.4053C28.387 9.2348 30.3249 6.64561 30.6844 3.64518H42.2908C42.6503 6.64675 44.5962 9.23824 47.515 10.4409C50.3581 11.6241 53.5629 11.1646 55.9384 9.29797L64.1469 17.5067C62.2803 19.8822 61.8254 23.094 63.0396 26.0151C64.2101 28.8582 66.7993 30.7961 69.7997 31.1545V42.7633C69.0071 42.8598 68.2351 43.0769 67.5023 43.3894V40.4039H62.6571C62.8064 39.2632 62.9075 38.1122 62.9075 36.9577C62.9075 22.3898 51.0553 10.5374 36.4876 10.5374C29.6161 10.5374 23.35 13.176 18.6461 17.4917L16.9599 15.8054V9.37379L17.0357 9.29797ZM60.3413 40.4039H58.3127V47.2272C57.6706 48.5896 56.8964 49.8761 56.0154 51.0915V47.2961H53.0357C54.9597 44.2107 56.0154 40.6198 56.0154 36.9577C56.0154 26.1897 47.2554 17.4297 36.4876 17.4297C31.5161 17.4297 26.9879 19.3124 23.5361 22.3818L20.2888 19.1344C24.5757 15.2357 30.2502 12.8349 36.4876 12.8349C49.7895 12.8349 60.6101 23.6557 60.6101 36.9577C60.6101 38.1133 60.5033 39.2655 60.3413 40.4039ZM46.8258 47.2961V50.725C43.8277 52.9845 40.2691 54.1884 36.4876 54.1884C26.9868 54.1884 19.2572 46.4587 19.2572 36.9577C19.2572 32.6202 20.8803 28.6629 23.5361 25.6303L28.4181 30.5123C27.0017 32.2814 26.1494 34.5202 26.1494 36.9577C26.1494 42.6588 30.7878 47.2961 36.4876 47.2961C42.1874 47.2961 46.8258 42.6588 46.8258 36.9577C46.8258 31.2579 42.1874 26.6194 36.4876 26.6194C34.0501 26.6194 31.8113 27.4717 30.0423 28.8881L25.1604 24.0061C28.1929 21.3502 32.1502 19.7271 36.4876 19.7271C45.9884 19.7271 53.718 27.4568 53.718 36.9577C53.718 40.7393 52.5141 44.2969 50.2558 47.2961H46.8258ZM35.6755 37.7699L37.2997 36.1456L31.6815 30.5273C33.0243 29.521 34.6842 28.9168 36.4876 28.9168C40.9216 28.9168 44.5285 32.5237 44.5285 36.9577C44.5285 41.3906 40.9216 44.9987 36.4876 44.9987C32.0537 44.9987 28.4468 41.3906 28.4468 36.9577C28.4468 35.1543 29.051 33.4944 30.0572 32.1515L35.6755 37.7699ZM21.9119 24.0061C18.8426 27.4579 16.9599 31.9861 16.9599 36.9577C16.9599 47.7257 25.7198 56.4858 36.4876 56.4858C40.1496 56.4858 43.7404 55.4301 46.8258 53.5049V58.7315C46.0769 59.0876 45.3107 59.4024 44.5285 59.6792V58.7832H35.3389V61.0221C22.5724 60.4167 12.3651 49.8715 12.3651 36.9577C12.3651 30.7203 14.7659 25.0456 18.6645 20.7586L21.9119 24.0061ZM37.6363 61.0806H42.2311V70.2703H37.6363V61.0806ZM44.5285 62.1018C45.3073 61.8526 46.0734 61.57 46.8258 61.2495V70.2703H44.5285V62.1018ZM49.1232 49.5936H53.718V70.2703H49.1232V49.5936ZM56.0154 54.7317C56.8482 53.8185 57.6201 52.857 58.3127 51.8427V70.2703H56.0154V54.7317ZM14.6625 13.508L13.5138 12.3593V8.71558L14.6625 9.86429V13.508ZM9.39458 15.1323L8.24589 13.9836H11.8895L13.0382 15.1323H9.39458ZM9.23377 4.43549L11.2164 6.41816V10.0619L8.01845 6.86386L9.23377 4.43549ZM6.3942 8.48813L9.59216 11.6861H5.94851L3.96587 9.70347L6.3942 8.48813ZM25.459 63.4746C22.6149 62.2925 19.4112 62.7509 17.0357 64.6175L8.82713 56.4088C10.6926 54.0333 11.1486 50.8215 9.93447 47.9004C8.7651 45.0584 6.17595 43.1206 3.17557 42.7622V31.1545C6.1771 30.7949 8.76855 28.849 9.97123 25.9301C11.1532 23.0859 10.6949 19.8833 8.82828 17.5067L8.90409 17.4297H15.3356L17.0219 19.116C12.7063 23.82 10.0677 30.0862 10.0677 36.9577C10.0677 51.1409 21.3019 62.7451 35.3389 63.3493V70.2703H30.6844C30.3237 67.2699 28.379 64.6773 25.459 63.4746ZM60.6101 70.2703V42.7013H65.2049V70.2703H60.6101Z" fill="#2B2B2B"/>
<path d="M36.4876 8.24001C37.122 8.24001 37.6363 7.72572 37.6363 7.0913C37.6363 6.45689 37.122 5.94259 36.4876 5.94259C35.8532 5.94259 35.3389 6.45689 35.3389 7.0913C35.3389 7.72572 35.8532 8.24001 36.4876 8.24001Z" fill="#2B2B2B"/>
<path d="M6.62165 38.1065C7.25605 38.1065 7.77034 37.5922 7.77034 36.9577C7.77034 36.3233 7.25605 35.809 6.62165 35.809C5.98724 35.809 5.47295 36.3233 5.47295 36.9577C5.47295 37.5922 5.98724 38.1065 6.62165 38.1065Z" fill="#2B2B2B"/>
<path d="M15.3689 56.9281C15.0749 56.9281 14.7808 57.0406 14.5568 57.2646C14.1077 57.7138 14.1077 58.4409 14.5568 58.8889C14.7808 59.1129 15.0749 59.2255 15.3689 59.2255C15.663 59.2255 15.9571 59.1129 16.1811 58.8889C16.6302 58.4398 16.6302 57.7126 16.1811 57.2646C15.9571 57.0395 15.663 56.9281 15.3689 56.9281Z" fill="#2B2B2B"/>
<path d="M66.3536 38.1065C66.988 38.1065 67.5023 37.5922 67.5023 36.9577C67.5023 36.3233 66.988 35.809 66.3536 35.809C65.7192 35.809 65.2049 36.3233 65.2049 36.9577C65.2049 37.5922 65.7192 38.1065 66.3536 38.1065Z" fill="#2B2B2B"/>
<path d="M57.6063 16.9874C57.9004 16.9874 58.1944 16.8749 58.4184 16.6509C58.8676 16.2017 58.8676 15.4746 58.4184 15.0266C58.1944 14.8026 57.9004 14.69 57.6063 14.69C57.3122 14.69 57.0182 14.8026 56.7942 15.0266C56.345 15.4757 56.345 16.2029 56.7942 16.6509C57.0182 16.876 57.3122 16.9874 57.6063 16.9874Z" fill="#2B2B2B"/>
</svg>
