<svg width="24" height="24" viewBox="0 0 24 24" fill="none" xmlns="http://www.w3.org/2000/svg">
<path d="M22.121 0.712891H16.1203C15.5202 0.712891 15.1201 1.11294 15.1201 1.71302C15.1201 2.31309 15.5202 2.71314 16.1203 2.71314H20.3208L14.8201 8.21384C14.5201 8.51388 14.5201 9.11395 14.8201 9.514C15.0201 9.61401 15.3202 9.71403 15.5202 9.71403C15.7202 9.71403 16.0203 9.61403 16.1203 9.41401L21.1209 4.41337V7.71378C21.1209 8.31386 21.521 8.71391 22.121 8.71391C22.7211 8.71391 23.1212 8.31386 23.1212 7.71378V1.71302C23.1212 1.11294 22.7211 0.712891 22.121 0.712891Z" fill="white"/>
<path d="M19.1207 23.6158C19.0206 23.6158 18.9206 23.6158 18.8206 23.6158C15.6202 23.2158 12.4198 22.1156 9.71947 20.4154C7.21915 18.8152 5.01888 16.6149 3.41868 14.1146C1.61845 11.4143 0.5183 8.21383 0.218262 5.01342C0.218262 4.21332 0.418299 3.41321 0.918363 2.81313C1.41843 2.21306 2.11852 1.81303 2.91862 1.71302C3.01863 1.71302 3.11863 1.71302 3.21864 1.71302H6.21902C7.71921 1.71302 9.01938 2.81313 9.21941 4.31332C9.31942 5.21344 9.51945 6.11359 9.81949 6.91369C10.2195 8.01383 9.91949 9.214 9.11939 10.1141L8.41932 10.8141C9.61947 12.6144 11.1196 14.2146 13.0199 15.4148L13.72 14.7147C14.5201 13.9146 15.8202 13.6145 16.9204 14.0146C17.7205 14.3146 18.6206 14.5147 19.5207 14.6147C21.0209 14.8147 22.121 16.1149 22.121 17.6151V20.6154C22.121 21.4155 21.821 22.2156 21.2209 22.7157C20.6209 23.2157 19.9208 23.6158 19.1207 23.6158ZM6.21902 3.71327H3.21864C2.9186 3.71327 2.61858 3.91332 2.41855 4.11335C2.31854 4.31337 2.21852 4.51335 2.21852 4.81339C2.51855 7.71376 3.51868 10.5141 5.11888 13.0144C6.61907 15.3147 8.51932 17.315 10.8196 18.7152C13.3199 20.3154 16.1203 21.3155 19.0206 21.6156C19.4207 21.6156 19.6207 21.5155 19.8208 21.3155C20.0208 21.1155 20.1208 20.9155 20.1208 20.6154V17.6151C20.1208 17.115 19.7207 16.7149 19.2207 16.6149C18.2205 16.5149 17.2204 16.2148 16.2203 15.8148C15.8202 15.7148 15.4202 15.7148 15.1201 16.0148L13.82 17.315C13.52 17.615 13.0199 17.715 12.6198 17.515C9.91949 16.0148 7.71921 13.8146 6.21902 11.1142C6.11901 10.7142 6.21901 10.2141 6.51905 9.91407L7.81923 8.61392C8.01926 8.41389 8.11925 7.91383 8.01924 7.61379C7.61919 6.61366 7.41918 5.61354 7.21915 4.61341C7.21915 4.11335 6.71909 3.71327 6.21902 3.71327Z" fill="white"/>
</svg>
