<svg width="21" height="21" viewBox="0 0 21 21" fill="none" xmlns="http://www.w3.org/2000/svg">
<path fill-rule="evenodd" clip-rule="evenodd" d="M9.20476 2.71217C5.33827 2.71217 2.20387 5.84657 2.20387 9.71306C2.20387 13.5795 5.33827 16.7139 9.20476 16.7139C13.0712 16.7139 16.2056 13.5795 16.2056 9.71306C16.2056 5.84657 13.0712 2.71217 9.20476 2.71217ZM0.203613 9.71306C0.203613 4.74186 4.23356 0.711914 9.20476 0.711914C14.176 0.711914 18.2059 4.74186 18.2059 9.71306C18.2059 14.6843 14.176 18.7142 9.20476 18.7142C4.23356 18.7142 0.203613 14.6843 0.203613 9.71306Z" fill="white"/>
<path fill-rule="evenodd" clip-rule="evenodd" d="M14.1483 14.6566C14.5389 14.266 15.1721 14.266 15.5627 14.6566L19.9132 19.0071C20.3038 19.3977 20.3038 20.031 19.9132 20.4216C19.5227 20.8121 18.8894 20.8121 18.4988 20.4216L14.1483 16.0709C13.7577 15.6803 13.7577 15.0471 14.1483 14.6566Z" fill="white"/>
</svg>
