<svg width="20" height="28" viewBox="0 0 20 28" fill="none" xmlns="http://www.w3.org/2000/svg">
<path d="M20 10C20 11.9736 19.4283 13.8137 18.4414 15.3636C18.3437 15.5171 18.2419 15.6677 18.1362 15.8153C16.322 18.349 13.3538 20 10 20C6.64618 20 3.67797 18.349 1.86383 15.8153C1.75813 15.6677 1.65634 15.5171 1.55862 15.3636C0.571739 13.8137 0 11.9736 0 10C0 4.47715 4.47715 0 10 0C15.5228 0 20 4.47715 20 10Z" fill="#005BAF"/>
<path d="M10 20C6.64618 20 3.67797 18.349 1.86383 15.8153L10 27.8571L18.1362 15.8153C16.322 18.349 13.3538 20 10 20Z" fill="#005BAF"/>
<circle cx="9.99833" cy="10.0003" r="7.14286" fill="#2F80ED"/>
</svg>
