<svg width="21" height="21" viewBox="0 0 21 21" fill="none" xmlns="http://www.w3.org/2000/svg">
<path fill-rule="evenodd" clip-rule="evenodd" d="M9.00114 2.00025C5.13466 2.00025 2.00025 5.13466 2.00025 9.00114C2.00025 12.8676 5.13466 16.002 9.00114 16.002C12.8676 16.002 16.002 12.8676 16.002 9.00114C16.002 5.13466 12.8676 2.00025 9.00114 2.00025ZM0 9.00114C0 4.02995 4.02995 0 9.00114 0C13.9723 0 18.0023 4.02995 18.0023 9.00114C18.0023 13.9723 13.9723 18.0023 9.00114 18.0023C4.02995 18.0023 0 13.9723 0 9.00114Z" fill="#2B2B2B"/>
<path fill-rule="evenodd" clip-rule="evenodd" d="M13.9447 13.9446C14.3352 13.5541 14.9685 13.5541 15.3591 13.9446L19.7096 18.2952C20.1002 18.6857 20.1002 19.3191 19.7096 19.7097C19.3191 20.1002 18.6858 20.1002 18.2952 19.7097L13.9447 15.359C13.5541 14.9684 13.5541 14.3352 13.9447 13.9446Z" fill="#2B2B2B"/>
</svg>
