<svg width="60" height="98" viewBox="0 0 60 98" fill="none" xmlns="http://www.w3.org/2000/svg">
<path d="M39.4737 88.5161H20.5263V91.6774H39.4737V88.5161Z" fill="#005BAF"/>
<path fill-rule="evenodd" clip-rule="evenodd" d="M60 7.90323C60 3.54539 56.4584 0 52.1053 0H7.89473C3.54158 0 0 3.54539 0 7.90323V90.0968C0 94.4546 3.54158 98 7.89473 98H52.1053C56.4584 98 60 94.4546 60 90.0968V7.90323ZM7.89473 3.16129C5.28316 3.16129 3.15789 5.28884 3.15789 7.90323V9.48387H56.8421V7.90323C56.8421 5.28884 54.7168 3.16129 52.1053 3.16129H7.89473ZM52.1053 94.8387C54.7168 94.8387 56.8421 92.7112 56.8421 90.0968V85.3548H3.15789V90.0968C3.15789 92.7112 5.28316 94.8387 7.89473 94.8387H52.1053ZM3.15789 82.1935H56.8421V12.6452H3.15789V82.1935Z" fill="#005BAF"/>
<path fill-rule="evenodd" clip-rule="evenodd" d="M39.4737 88.5161H20.5263V91.6774H39.4737V88.5161Z" fill="#005BAF"/>
<path fill-rule="evenodd" clip-rule="evenodd" d="M9.38896 55.5953H10.8565L17.1985 47.5626H15.7833V45.1316H29.6204L36.2244 51.3676V47.5626H33.9706V45.1316H44.5581C47.004 45.202 51.8959 46.6007 51.8959 51.6318C51.8959 55.9124 48.2794 58.0263 44.5581 58.0263H33.9706V55.5953H35.0189L26.8949 48.4081V55.5953H28.3625V58.0263H20.3433V55.5953H21.8632V54.1685H17.1985L15.9406 55.5953H17.4606V58.0263H9.38896V55.5953ZM21.706 48.8309L19.1902 51.7375H21.706V48.8309ZM41.2561 47.5626V55.5953H44.7677C45.3792 55.3487 46.6022 54.2107 46.6022 51.6318C46.6022 49.0528 45.3792 47.8444 44.7677 47.5626H41.2561Z" fill="#005BAF"/>
</svg>
