<svg width="89" height="19" viewBox="0 0 89 19" fill="none" xmlns="http://www.w3.org/2000/svg">
<path fill-rule="evenodd" clip-rule="evenodd" d="M5.59345 6.33009L14.1714 0.133436C14.2547 0.0603996 14.3601 0.01471 14.4723 0.00299363C14.5845 -0.00872271 14.6977 0.0141403 14.7955 0.0682734C14.8932 0.122407 14.9705 0.204996 15.0159 0.30405C15.0614 0.403104 15.0728 0.513472 15.0485 0.619152L13.7395 10.8396C13.6915 11.795 13.0175 11.7704 12.7352 11.398C12.3167 10.4512 11.424 9.47229 10.1999 8.69771C10.3836 8.70782 10.567 8.67361 10.7333 8.59821C12.5042 7.66636 11.7856 6.24451 12.0411 4.61831C10.702 5.64217 9.05609 5.75879 9.10072 7.69417C9.11527 7.86522 9.17352 8.0302 9.27034 8.17454L9.27926 8.18845C7.9759 7.56472 6.65021 7.31651 5.59011 7.43954C5.10915 7.39461 4.7543 6.84791 5.59345 6.33009Z" fill="black"/>
<path fill-rule="evenodd" clip-rule="evenodd" d="M3.56921 9.04755C1.23364 10.6096 -0.404501 12.9483 0.08761 13.5067C0.685732 14.1818 0.9502 13.2532 1.76704 14.1487C2.58387 15.0441 1.68223 17.4128 3.62836 18.6111C5.68496 19.6285 7.37108 17.6963 8.59076 17.9253C9.81043 18.1542 9.10407 18.839 10.0124 18.9952C10.7601 19.1257 12.0534 16.5965 12.2978 13.8769C12.4785 11.8602 11.4542 10.4341 9.77695 9.38349C9.93541 9.74296 9.84726 10.4715 8.73917 12.117C7.19253 14.4151 5.98179 15.3266 5.70058 15.1661C5.41937 15.0056 5.63363 13.5517 6.93588 11.1188C7.86877 9.376 8.4814 8.93842 8.88647 8.89028C7.10103 8.02689 5.29997 7.88889 3.56921 9.04755Z" fill="black"/>
<path d="M21.5157 11.0021H23.0985L24.003 8.89177H28.161L29.0529 11.0021H30.686L26.8169 2.19852H25.3848L21.5157 11.0021ZM24.5683 7.53064L26.0757 4.03417L27.5957 7.53064H24.5683Z" fill="black"/>
<path d="M33.1989 11.0021H34.7441V8.4672L36.1133 7.06861L39.1157 11.0021H40.9874L37.1686 6.01967L40.8241 2.26096H38.9273L34.7441 6.65653V2.26096H33.1989V11.0021Z" fill="black"/>
<path d="M45.847 11.0021H47.4047V3.68452H50.1935V2.26096H43.0582V3.68452H45.847V11.0021Z" fill="black"/>
<path d="M53.4275 11.0021H54.9726V2.26096H53.4275V11.0021Z" fill="black"/>
<path d="M62.4142 11.152C64.0598 11.152 65.0648 10.5526 65.9818 9.60355L64.9894 8.60456C64.2357 9.30385 63.5448 9.74092 62.4644 9.74092C60.7811 9.74092 59.5626 8.34233 59.5626 6.63155C59.5626 4.8958 60.7811 3.52219 62.4644 3.52219C63.4694 3.52219 64.2231 3.95925 64.9266 4.60859L65.919 3.47224C65.0774 2.67304 64.0975 2.11111 62.477 2.11111C59.8138 2.11111 57.9421 4.14656 57.9421 6.63155C57.9421 9.16649 59.8515 11.152 62.4142 11.152Z" fill="black"/>
<path d="M72.5612 11.152C75.2621 11.152 77.1715 9.09157 77.1715 6.63155C77.1715 4.14656 75.2872 2.11111 72.5864 2.11111C69.8855 2.11111 67.9761 4.17153 67.9761 6.63155C67.9761 9.11654 69.8604 11.152 72.5612 11.152ZM72.5864 9.74092C70.8402 9.74092 69.5966 8.32984 69.5966 6.63155C69.5966 4.90829 70.8151 3.52219 72.5612 3.52219C74.3074 3.52219 75.551 4.93326 75.551 6.63155C75.551 8.35481 74.3325 9.74092 72.5864 9.74092Z" fill="black"/>
<path d="M79.5409 11.0021H81.0609V4.75844L83.812 8.85431H83.8622L86.6385 4.73347V11.0021H88.1836V2.26096H86.538L83.8622 6.39429L81.1865 2.26096H79.5409V11.0021Z" fill="black"/>
<path d="M21.7024 16.1519H22.6075C23.0432 16.1519 23.331 15.9657 23.331 15.6185C23.331 15.3491 23.1717 15.2186 22.9427 15.1408C23.0879 15.0658 23.222 14.9408 23.222 14.7075C23.222 14.5714 23.1773 14.4658 23.0907 14.3797C22.979 14.2686 22.803 14.2075 22.5795 14.2075H21.7024V16.1519ZM22.0404 15.0269V14.5102H22.5348C22.7555 14.5102 22.8784 14.6047 22.8784 14.7575C22.8784 14.9408 22.7304 15.0269 22.5097 15.0269H22.0404ZM22.0404 15.8491V15.3158H22.5851C22.8561 15.3158 22.9874 15.413 22.9874 15.5769C22.9874 15.7574 22.8449 15.8491 22.6102 15.8491H22.0404Z" fill="black"/>
<path d="M26.2185 16.1519H26.5705L26.7716 15.6824H27.6962L27.8946 16.1519H28.2577L27.3973 14.1936H27.0789L26.2185 16.1519ZM26.8973 15.3797L27.2325 14.6019L27.5705 15.3797H26.8973Z" fill="black"/>
<path d="M32.6966 16.1519V15.6352L33.0039 15.288L33.5878 16.1519H34.0012L33.2274 15.0352L33.9621 14.2075H33.5514L32.6966 15.2186V14.2075H32.3558V15.2186L31.501 14.2075H31.0904L31.8223 15.0352L31.0513 16.1519H31.4647L32.0486 15.288L32.3558 15.6352V16.1519H32.6966Z" fill="black"/>
<path d="M36.9621 16.1519H38.4259V15.8463H37.3057V15.3241H38.2862V15.0186H37.3057V14.513H38.4119V14.2075H36.9621V16.1519Z" fill="black"/>
<path d="M41.5012 16.1519H41.8448V15.3324H42.7778V16.1519H43.1214V14.2075H42.7778V15.0158H41.8448V14.2075H41.5012V16.1519Z" fill="black"/>
<path d="M49.7966 16.1519H50.1402V15.5269H50.5285C50.9587 15.5269 51.3107 15.2991 51.3107 14.863C51.3107 14.4658 51.0229 14.2075 50.5676 14.2075H49.7966V16.1519ZM50.1402 15.2186V14.5186H50.5397C50.7967 14.5186 50.9615 14.638 50.9615 14.8658C50.9615 15.0741 50.7995 15.2186 50.5397 15.2186H50.1402Z" fill="black"/>
<path d="M54.3303 16.1519H55.7941V15.8463H54.6739V15.3241H55.6544V15.0186H54.6739V14.513H55.7801V14.2075H54.3303V16.1519Z" fill="black"/>
<path d="M59.5343 14.1741C59.1879 14.1741 58.9672 14.2908 58.7801 14.4686L58.9644 14.6908C59.1125 14.5491 59.2801 14.4741 59.512 14.4741C59.7298 14.4741 59.8807 14.5825 59.8807 14.7463C59.8807 14.9297 59.727 15.0297 59.4784 15.0297H59.2605V15.313H59.4812C59.7354 15.313 59.9282 15.3963 59.9282 15.5963C59.9282 15.7796 59.7522 15.888 59.5455 15.888C59.2801 15.888 59.0706 15.7963 58.8946 15.6296L58.7074 15.8658C58.9253 16.0741 59.1739 16.1852 59.5539 16.1852C59.9896 16.1852 60.2718 15.938 60.2718 15.6158C60.2718 15.363 60.107 15.2158 59.8891 15.1491C60.0623 15.0769 60.2215 14.9463 60.2215 14.6963C60.2215 14.3936 59.9394 14.1741 59.5343 14.1741Z" fill="black"/>
<path d="M63.6811 16.1824C63.9353 16.1824 64.1365 16.0574 64.3013 15.7269L65.0639 14.2075H64.6924L64.156 15.338L63.5471 14.2075H63.1616L63.9773 15.6796C63.8795 15.838 63.7566 15.8908 63.67 15.8908C63.5834 15.8908 63.5079 15.8741 63.4297 15.8296L63.2984 16.0852C63.413 16.1463 63.5303 16.1824 63.6811 16.1824Z" fill="black"/>
<path d="M68.0569 16.1741C68.4424 16.1741 68.6686 15.9269 68.6686 14.6908V14.5158H69.3447V16.1519H69.6883V14.2075H68.3474V14.5908C68.3474 15.7546 68.163 15.8796 67.9647 15.8796C67.9228 15.8796 67.8781 15.8713 67.853 15.863L67.8194 16.1435C67.8725 16.1574 67.9815 16.1741 68.0569 16.1741Z" fill="black"/>
<path d="M72.8606 16.1519H73.6484C74.1009 16.1519 74.3859 15.9074 74.3859 15.5158C74.3859 15.1241 74.0898 14.9074 73.6512 14.9074H73.2014V14.2075H72.8606V16.1519ZM73.2014 15.8463V15.2047H73.6372C73.897 15.2047 74.0451 15.313 74.0451 15.513C74.0451 15.7324 73.897 15.8463 73.6428 15.8463H73.2014Z" fill="black"/>
<path d="M77.8939 16.1519H78.2403V14.5241H78.8604V14.2075H77.2738V14.5241H77.8939V16.1519Z" fill="black"/>
<path d="M81.725 16.1519H82.0769L82.2781 15.6824H83.2027L83.401 16.1519H83.7642L82.9038 14.1936H82.5854L81.725 16.1519ZM82.4038 15.3797L82.739 14.6019L83.077 15.3797H82.4038Z" fill="black"/>
<path d="M87.2477 16.1519H87.5941V14.5241H88.2143V14.2075H86.6276V14.5241H87.2477V16.1519Z" fill="black"/>
</svg>
