<svg width="279" height="252" viewBox="0 0 279 252" fill="none" xmlns="http://www.w3.org/2000/svg">
<g opacity="0.34">
<path d="M91.2796 230.12C91.2796 272.176 127.858 298.23 146.147 306C28.4313 266.82 42.3195 186.583 72.3254 145.809C102.253 105.141 177.571 81.3355 151.135 55.0502C124.699 28.765 26.5632 79.5169 21.4482 157.712C17.4578 218.713 45.3904 259.877 57.3615 271.78C38.241 260.538 0 221.986 0 157.712C0 77.3679 56.3639 0 146.147 0C235.93 0 238.923 72.9044 207.998 105.141C177.072 137.378 91.2796 177.549 91.2796 230.12Z" fill="#F7F7F7"/>
<path d="M122.704 235.575C122.704 274.755 155.125 295.585 186.55 295.585C227.95 297.404 308.455 264.836 299.277 120.019C270.347 260.869 188.046 266.82 175.077 249.462C162.62 232.788 169.59 219.705 223.959 176.558C278.328 133.41 284.313 76.376 244.41 32.2366C274.338 105.141 221.964 139.361 186.55 160.191C151.135 181.021 122.704 196.395 122.704 235.575Z" fill="#F7F7F7"/>
</g>
</svg>
