<svg width="114" height="40" viewBox="0 0 114 40" fill="none" xmlns="http://www.w3.org/2000/svg">
<g clip-path="url(#clip0_74:17198)">
<path d="M36.8097 0V0.00740196L33.2482 3.53731V0H29.6855V0.000376838V0L23.749 5.88223V21.1762H26.1236V7.05907L30.8733 2.35306V21.1762H33.2482V7.05907L37.9971 2.35306V21.1762H40.372V0H36.8097Z" fill="#1E2321"/>
<path d="M0.00143477 21.1759H9.50059V-0.000348495H5.93786V0.000153956L5.93752 -0.000976562L0 5.88201L0.00143477 5.88338V21.1759ZM7.12566 2.35272V18.8229H2.37632V7.05848L7.12566 2.35272Z" fill="#1E2321"/>
<path d="M21.3738 0H11.875V21.1761H21.3738V0ZM14.2495 2.35294H18.999V18.8234H14.2495V2.35294Z" fill="#1E2321"/>
<path d="M0.00195312 25.8834H40.3726V23.5303H0.00195312V25.8834Z" fill="#1E2321"/>
<path d="M0.00195312 28.2354V39.9998H2.37684V37.6471H16.6253V28.2354H0.00195312ZM14.2505 35.2941H2.37684V30.5884H14.2505V35.2941Z" fill="#1E2321"/>
<path d="M19 28.2354V37.6471H28.4992V39.9998H30.8737V37.6471H40.3728V28.2354H19ZM21.3745 30.5884H28.4988V35.2941H21.3745V30.5884ZM37.9979 35.2941H30.8737V30.5884H37.9979V35.2941Z" fill="#1E2321"/>
<path d="M77.8951 26.4686H73.6279V15.8828H80.6791V17.726H75.7096V19.8664H77.8951C80.0361 19.8664 81.3524 21.2359 81.3524 23.1677C81.3524 25.1012 80.0508 26.4686 77.8951 26.4686ZM77.7905 21.7111H75.7096V24.6261H77.7905C78.7183 24.6261 79.272 24.0461 79.272 23.1677C79.272 22.3062 78.7183 21.7111 77.7905 21.7111Z" fill="#1E2321"/>
<path d="M90.2493 26.4686L89.6198 24.5961H85.8325L85.188 26.4686H83.0186L86.8957 15.8828H88.5271L92.4194 26.4686H90.2493ZM87.7637 19.0053L86.4163 22.8558H89.0655L87.7637 19.0053Z" fill="#1E2321"/>
<path d="M100.291 26.4686V22.037H96.6836V26.4686H94.6035V15.8828H96.6836V20.2086H100.291V15.8828H102.373V26.4686H100.291Z" fill="#1E2321"/>
<path d="M105.632 26.4686V15.8828H107.712V20.9085L111.156 15.8828H113.642L110.063 20.8496L114 26.4686H111.456L107.712 20.9374V26.4686H105.632Z" fill="#1E2321"/>
<path d="M59.3695 39.9963H56.9951V0.00585938H59.3695V39.9963Z" fill="#7FCB2C"/>
</g>
<defs>
<clipPath id="clip0_74:17198">
<rect width="114" height="40" fill="white"/>
</clipPath>
</defs>
</svg>
