<svg width="346" height="162" viewBox="0 0 346 162" fill="none" xmlns="http://www.w3.org/2000/svg">
<path d="M149.408 156.191C149.408 152.983 152.003 150.382 155.204 150.382C158.405 150.382 161 152.983 161 156.191C161 159.399 158.405 162 155.204 162C152.003 162 149.408 159.399 149.408 156.191Z" fill="#E0E0E0"/>
<path d="M149.408 118.757C149.408 115.549 152.003 112.948 155.204 112.948C158.405 112.948 161 115.549 161 118.757C161 121.965 158.405 124.566 155.204 124.566C152.003 124.566 149.408 121.965 149.408 118.757Z" fill="#E0E0E0"/>
<path d="M149.408 81.3227C149.408 78.1146 152.003 75.5139 155.204 75.5139C158.405 75.5139 161 78.1146 161 81.3227C161 84.5308 158.405 87.1315 155.204 87.1315C152.003 87.1315 149.408 84.5308 149.408 81.3227Z" fill="#E0E0E0"/>
<path d="M149.408 43.243C149.408 40.0349 152.003 37.4343 155.204 37.4343C158.405 37.4343 161 40.0349 161 43.243C161 46.4511 158.405 49.0518 155.204 49.0518C152.003 49.0518 149.408 46.4511 149.408 43.243Z" fill="#E0E0E0"/>
<path d="M112.056 43.243C112.056 40.0349 114.651 37.4343 117.852 37.4343C121.053 37.4343 123.648 40.0349 123.648 43.243C123.648 46.4511 121.053 49.0518 117.852 49.0518C114.651 49.0518 112.056 46.4511 112.056 43.243Z" fill="#E0E0E0"/>
<path d="M112.056 156.191C112.056 152.983 114.651 150.382 117.852 150.382C121.053 150.382 123.648 152.983 123.648 156.191C123.648 159.399 121.053 162 117.852 162C114.651 162 112.056 159.399 112.056 156.191Z" fill="#E0E0E0"/>
<path d="M112.056 81.3227C112.056 78.1146 114.651 75.5139 117.852 75.5139C121.053 75.5139 123.648 78.1146 123.648 81.3227C123.648 84.5308 121.053 87.1315 117.852 87.1315C114.651 87.1315 112.056 84.5308 112.056 81.3227Z" fill="#E0E0E0"/>
<path d="M112.056 5.80876C112.056 2.60066 114.651 0 117.852 0C121.053 0 123.648 2.60066 123.648 5.80876C123.648 9.01686 121.053 11.6175 117.852 11.6175C114.651 11.6175 112.056 9.01686 112.056 5.80876Z" fill="#E0E0E0"/>
<path d="M74.704 156.191C74.704 152.983 77.299 150.382 80.5 150.382C83.701 150.382 86.296 152.983 86.296 156.191C86.296 159.399 83.701 162 80.5 162C77.299 162 74.704 159.399 74.704 156.191Z" fill="#E0E0E0"/>
<path d="M74.704 118.757C74.704 115.549 77.299 112.948 80.5 112.948C83.701 112.948 86.296 115.549 86.296 118.757C86.296 121.965 83.701 124.566 80.5 124.566C77.299 124.566 74.704 121.965 74.704 118.757Z" fill="#E0E0E0"/>
<path d="M74.704 81.3227C74.704 78.1146 77.299 75.5139 80.5 75.5139C83.701 75.5139 86.296 78.1146 86.296 81.3227C86.296 84.5308 83.701 87.1315 80.5 87.1315C77.299 87.1315 74.704 84.5308 74.704 81.3227Z" fill="#E0E0E0"/>
<path d="M74.704 43.243C74.704 40.0349 77.299 37.4343 80.5 37.4343C83.701 37.4343 86.296 40.0349 86.296 43.243C86.296 46.4511 83.701 49.0518 80.5 49.0518C77.299 49.0518 74.704 46.4511 74.704 43.243Z" fill="#E0E0E0"/>
<path d="M74.704 5.80876C74.704 2.60066 77.299 0 80.5 0C83.701 0 86.296 2.60066 86.296 5.80876C86.296 9.01686 83.701 11.6175 80.5 11.6175C77.299 11.6175 74.704 9.01686 74.704 5.80876Z" fill="#E0E0E0"/>
<path d="M37.352 156.191C37.352 152.983 39.947 150.382 43.148 150.382C46.349 150.382 48.944 152.983 48.944 156.191C48.944 159.399 46.349 162 43.148 162C39.947 162 37.352 159.399 37.352 156.191Z" fill="#E0E0E0"/>
<path d="M37.352 118.757C37.352 115.549 39.947 112.948 43.148 112.948C46.349 112.948 48.944 115.549 48.944 118.757C48.944 121.965 46.349 124.566 43.148 124.566C39.947 124.566 37.352 121.965 37.352 118.757Z" fill="#E0E0E0"/>
<path d="M37.352 81.3227C37.352 78.1146 39.947 75.5139 43.148 75.5139C46.349 75.5139 48.944 78.1146 48.944 81.3227C48.944 84.5308 46.349 87.1315 43.148 87.1315C39.947 87.1315 37.352 84.5308 37.352 81.3227Z" fill="#E0E0E0"/>
<path d="M37.352 43.243C37.352 40.0349 39.947 37.4343 43.148 37.4343C46.349 37.4343 48.944 40.0349 48.944 43.243C48.944 46.4511 46.349 49.0518 43.148 49.0518C39.947 49.0518 37.352 46.4511 37.352 43.243Z" fill="#E0E0E0"/>
<path d="M37.352 5.80876C37.352 2.60066 39.947 0 43.148 0C46.349 0 48.944 2.60066 48.944 5.80876C48.944 9.01686 46.349 11.6175 43.148 11.6175C39.947 11.6175 37.352 9.01686 37.352 5.80876Z" fill="#E0E0E0"/>
<path d="M0 118.757C0 115.549 2.59496 112.948 5.79601 112.948C8.99706 112.948 11.592 115.549 11.592 118.757C11.592 121.965 8.99706 124.566 5.79601 124.566C2.59496 124.566 0 121.965 0 118.757Z" fill="#E0E0E0"/>
<path d="M0 81.3227C0 78.1146 2.59496 75.5139 5.79601 75.5139C8.99706 75.5139 11.592 78.1146 11.592 81.3227C11.592 84.5308 8.99706 87.1315 5.79601 87.1315C2.59496 87.1315 0 84.5308 0 81.3227Z" fill="#E0E0E0"/>
<path d="M0 43.243C0 40.0349 2.59496 37.4343 5.79601 37.4343C8.99706 37.4343 11.592 40.0349 11.592 43.243C11.592 46.4511 8.99706 49.0518 5.79601 49.0518C2.59496 49.0518 0 46.4511 0 43.243Z" fill="#E0E0E0"/>
<path d="M334.408 156.191C334.408 152.983 337.003 150.382 340.204 150.382C343.405 150.382 346 152.983 346 156.191C346 159.399 343.405 162 340.204 162C337.003 162 334.408 159.399 334.408 156.191Z" fill="#E0E0E0"/>
<path d="M334.408 118.757C334.408 115.549 337.003 112.948 340.204 112.948C343.405 112.948 346 115.549 346 118.757C346 121.965 343.405 124.566 340.204 124.566C337.003 124.566 334.408 121.965 334.408 118.757Z" fill="#E0E0E0"/>
<path d="M334.408 81.3227C334.408 78.1146 337.003 75.5139 340.204 75.5139C343.405 75.5139 346 78.1146 346 81.3227C346 84.5308 343.405 87.1315 340.204 87.1315C337.003 87.1315 334.408 84.5308 334.408 81.3227Z" fill="#E0E0E0"/>
<path d="M334.408 43.243C334.408 40.0349 337.003 37.4343 340.204 37.4343C343.405 37.4343 346 40.0349 346 43.243C346 46.4511 343.405 49.0518 340.204 49.0518C337.003 49.0518 334.408 46.4511 334.408 43.243Z" fill="#E0E0E0"/>
<path d="M297.056 43.243C297.056 40.0349 299.651 37.4343 302.852 37.4343C306.053 37.4343 308.648 40.0349 308.648 43.243C308.648 46.4511 306.053 49.0518 302.852 49.0518C299.651 49.0518 297.056 46.4511 297.056 43.243Z" fill="#E0E0E0"/>
<path d="M297.056 156.191C297.056 152.983 299.651 150.382 302.852 150.382C306.053 150.382 308.648 152.983 308.648 156.191C308.648 159.399 306.053 162 302.852 162C299.651 162 297.056 159.399 297.056 156.191Z" fill="#E0E0E0"/>
<path d="M297.056 81.3227C297.056 78.1146 299.651 75.5139 302.852 75.5139C306.053 75.5139 308.648 78.1146 308.648 81.3227C308.648 84.5308 306.053 87.1315 302.852 87.1315C299.651 87.1315 297.056 84.5308 297.056 81.3227Z" fill="#E0E0E0"/>
<path d="M297.056 5.80876C297.056 2.60066 299.651 0 302.852 0C306.053 0 308.648 2.60066 308.648 5.80876C308.648 9.01686 306.053 11.6175 302.852 11.6175C299.651 11.6175 297.056 9.01686 297.056 5.80876Z" fill="#E0E0E0"/>
<path d="M259.704 156.191C259.704 152.983 262.299 150.382 265.5 150.382C268.701 150.382 271.296 152.983 271.296 156.191C271.296 159.399 268.701 162 265.5 162C262.299 162 259.704 159.399 259.704 156.191Z" fill="#E0E0E0"/>
<path d="M259.704 118.757C259.704 115.549 262.299 112.948 265.5 112.948C268.701 112.948 271.296 115.549 271.296 118.757C271.296 121.965 268.701 124.566 265.5 124.566C262.299 124.566 259.704 121.965 259.704 118.757Z" fill="#E0E0E0"/>
<path d="M259.704 81.3227C259.704 78.1146 262.299 75.5139 265.5 75.5139C268.701 75.5139 271.296 78.1146 271.296 81.3227C271.296 84.5308 268.701 87.1315 265.5 87.1315C262.299 87.1315 259.704 84.5308 259.704 81.3227Z" fill="#E0E0E0"/>
<path d="M259.704 43.243C259.704 40.0349 262.299 37.4343 265.5 37.4343C268.701 37.4343 271.296 40.0349 271.296 43.243C271.296 46.4511 268.701 49.0518 265.5 49.0518C262.299 49.0518 259.704 46.4511 259.704 43.243Z" fill="#E0E0E0"/>
<path d="M259.704 5.80876C259.704 2.60066 262.299 0 265.5 0C268.701 0 271.296 2.60066 271.296 5.80876C271.296 9.01686 268.701 11.6175 265.5 11.6175C262.299 11.6175 259.704 9.01686 259.704 5.80876Z" fill="#E0E0E0"/>
<path d="M222.352 156.191C222.352 152.983 224.947 150.382 228.148 150.382C231.349 150.382 233.944 152.983 233.944 156.191C233.944 159.399 231.349 162 228.148 162C224.947 162 222.352 159.399 222.352 156.191Z" fill="#E0E0E0"/>
<path d="M222.352 118.757C222.352 115.549 224.947 112.948 228.148 112.948C231.349 112.948 233.944 115.549 233.944 118.757C233.944 121.965 231.349 124.566 228.148 124.566C224.947 124.566 222.352 121.965 222.352 118.757Z" fill="#E0E0E0"/>
<path d="M222.352 81.3227C222.352 78.1146 224.947 75.5139 228.148 75.5139C231.349 75.5139 233.944 78.1146 233.944 81.3227C233.944 84.5308 231.349 87.1315 228.148 87.1315C224.947 87.1315 222.352 84.5308 222.352 81.3227Z" fill="#E0E0E0"/>
<path d="M222.352 43.243C222.352 40.0349 224.947 37.4343 228.148 37.4343C231.349 37.4343 233.944 40.0349 233.944 43.243C233.944 46.4511 231.349 49.0518 228.148 49.0518C224.947 49.0518 222.352 46.4511 222.352 43.243Z" fill="#E0E0E0"/>
<path d="M222.352 5.80876C222.352 2.60066 224.947 0 228.148 0C231.349 0 233.944 2.60066 233.944 5.80876C233.944 9.01686 231.349 11.6175 228.148 11.6175C224.947 11.6175 222.352 9.01686 222.352 5.80876Z" fill="#E0E0E0"/>
<path d="M185 118.757C185 115.549 187.595 112.948 190.796 112.948C193.997 112.948 196.592 115.549 196.592 118.757C196.592 121.965 193.997 124.566 190.796 124.566C187.595 124.566 185 121.965 185 118.757Z" fill="#E0E0E0"/>
<path d="M185 81.3227C185 78.1146 187.595 75.5139 190.796 75.5139C193.997 75.5139 196.592 78.1146 196.592 81.3227C196.592 84.5308 193.997 87.1315 190.796 87.1315C187.595 87.1315 185 84.5308 185 81.3227Z" fill="#E0E0E0"/>
<path d="M185 43.243C185 40.0349 187.595 37.4343 190.796 37.4343C193.997 37.4343 196.592 40.0349 196.592 43.243C196.592 46.4511 193.997 49.0518 190.796 49.0518C187.595 49.0518 185 46.4511 185 43.243Z" fill="#E0E0E0"/>
<path d="M296.408 118.808C296.408 115.6 299.003 113 302.204 113C305.405 113 308 115.6 308 118.808C308 122.017 305.405 124.617 302.204 124.617C299.003 124.617 296.408 122.017 296.408 118.808Z" fill="#E41F25"/>
</svg>
