<svg width="604" height="329" viewBox="0 0 604 329" fill="none" xmlns="http://www.w3.org/2000/svg">
<path d="M183.776 313.256C183.776 398.468 257.421 451.257 294.243 467C57.2418 387.616 85.2032 225.043 145.615 142.429C205.87 60.0308 357.51 11.7974 304.285 -41.4603C251.06 -94.718 53.4806 8.1127 43.1824 166.546C35.1485 290.144 91.386 373.548 115.488 397.664C76.9919 374.888 0 296.776 0 166.546C0 3.7585 113.479 -153 294.243 -153C475.006 -153 481.032 -5.28526 418.769 60.0308C356.506 125.347 183.776 206.741 183.776 313.256Z" fill="#F1F1F1"/>
<path d="M247.043 324.31C247.043 403.694 312.319 445.898 375.586 445.898C458.938 449.582 621.023 383.596 602.545 90.1767C544.299 375.557 378.599 387.616 352.489 352.446C327.408 318.663 341.442 292.154 450.904 204.731C560.367 117.308 572.418 1.74878 492.078 -87.684C552.333 60.0308 446.888 129.366 375.586 171.57C304.285 213.775 247.043 244.925 247.043 324.31Z" fill="#F1F1F1"/>
<path d="M194.082 291.207C194.082 373.121 265.044 423.867 300.525 439C72.1568 362.689 99.0997 206.409 157.311 126.993C215.371 47.7844 361.488 1.41815 310.202 -49.778C258.916 -100.974 68.5327 -2.1239 58.6095 150.177C50.8682 268.99 105.057 349.165 128.281 372.348C91.1875 350.453 17 275.366 17 150.177C17 -6.30954 126.346 -157 300.525 -157C474.705 -157 480.511 -15.0033 420.516 47.7844C360.52 110.572 194.082 188.815 194.082 291.207Z" fill="#F7F7F7"/>
<path d="M255.045 301.833C255.045 378.144 317.943 418.715 378.906 418.715C459.222 422.257 615.403 358.825 597.598 76.7634C541.474 351.097 381.809 362.689 356.65 328.88C332.483 296.405 346.006 270.922 451.481 186.883C556.956 102.844 568.568 -8.24149 491.155 -94.2123C549.215 47.7844 447.61 114.436 378.906 155.007C310.202 195.577 255.045 225.522 255.045 301.833Z" fill="#F7F7F7"/>
</svg>
