<svg width="231" height="63" viewBox="0 0 231 63" fill="none" xmlns="http://www.w3.org/2000/svg">
<path d="M11.3442 8.82246C4.46132 13.9345 0 22.1245 0 31.3569C0 40.4848 4.36147 48.5927 11.112 53.7156C-2.50893 36.938 7.66615 21.8376 13.2169 17.5322C19.595 12.5861 26.6434 10.3686 27.9911 14.5925C26.6743 10.1931 22.2009 7.83512 17.1183 7.83447C15.2342 7.83447 13.2669 8.15811 11.3442 8.82246Z" fill="url(#paint0_linear)"/>
<path d="M30.7049 34.8325C23.9314 39.0483 22.0358 44.6853 23.6286 49.9326C24.7026 53.4702 26.9769 55.6497 30.6849 56.982C24.3273 54.341 28.8517 44.8607 34.0704 41.5865C34.0549 41.6014 34.04 41.6157 34.025 41.63C37.1306 38.6542 42.3636 35.7522 45.5725 32.2841C50.7958 26.6399 53.4917 16.5314 44.7945 8.84912C51.3013 23.1442 36.8966 30.9785 30.7049 34.8325Z" fill="url(#paint1_linear)"/>
<path d="M45.0567 45.7728C41.4558 49.374 34.0639 53.1641 31.7896 47.6678C30.8901 45.4928 32.0329 43.5249 34.0702 41.5862C28.8127 44.8847 24.2601 54.4808 30.827 57.0396C34.5241 58.2399 39.0634 57.7017 43.4105 54.8389C51.0446 49.8129 56.1026 41.1801 56.1026 31.3574C56.1026 29.0251 55.8169 26.7602 55.281 24.5942C54.2311 36.2283 48.4238 42.4055 45.0567 45.7728Z" fill="url(#paint2_linear)"/>
<path d="M13.0852 51.2224C16.0478 55.5661 21.0566 58.829 28.052 59.409C21.6933 57.5255 17.9435 52.207 17.6904 46.7733C17.4466 41.5235 19.7967 35.1265 28.052 30.4736C18.4857 34.6066 8.7006 43.4318 13.0852 51.2224Z" fill="url(#paint3_linear)"/>
<path d="M11.3409 8.82328C18.532 6.33729 26.3664 8.61154 28.0509 14.8033C29.4531 20.1609 21.4254 19.9376 13.4563 30.1557C8.7964 36.1321 8.73445 44.8426 13.084 51.2211C8.69948 43.4306 18.4846 34.6053 28.0509 30.4724C35.001 26.5551 41.9506 22.5114 41.9506 14.8033C41.9506 7.02978 35.2534 3.30469 28.0509 3.30469C21.7897 3.30469 16.0083 5.35629 11.3409 8.82328Z" fill="url(#paint4_linear)"/>
<path d="M98.9626 35.9094L98.4427 37.4843H97.7744L99.4749 32.479H100.255L101.963 37.4843H101.272L100.738 35.9094H98.9626ZM100.604 35.4046L100.114 33.9638C100.003 33.6374 99.9281 33.3403 99.8542 33.0505H99.8392C99.7645 33.3478 99.6831 33.6517 99.5868 33.9565L99.0963 35.4046H100.604Z" fill="#191919"/>
<path d="M105.239 33.8892V34.4169H103.679V37.4835H103.033V33.8892H105.239Z" fill="#191919"/>
<path d="M106.494 35.8059C106.509 36.6895 107.073 37.0533 107.727 37.0533C108.194 37.0533 108.476 36.9718 108.722 36.8674L108.833 37.3354C108.603 37.4394 108.209 37.5581 107.637 37.5581C106.531 37.5581 105.87 36.83 105.87 35.7462C105.87 34.6619 106.509 33.8076 107.556 33.8076C108.73 33.8076 109.041 34.8397 109.041 35.5013C109.041 35.6343 109.026 35.7387 109.019 35.8059H106.494ZM108.41 35.3377C108.417 34.9218 108.239 34.2758 107.504 34.2758C106.842 34.2758 106.553 34.8846 106.501 35.3377H108.41Z" fill="#191919"/>
<path d="M110.854 33.8892V35.3377H112.563V33.8892H113.209V37.4835H112.563V35.8577H110.854V37.4835H110.208V33.8892H110.854Z" fill="#191919"/>
<path d="M117.057 33.8892V34.4089H115.936V37.4835H115.29V34.4089H114.169V33.8892H117.057Z" fill="#191919"/>
<path d="M120.465 37.3512C120.294 37.4402 119.915 37.5589 119.433 37.5589C118.348 37.5589 117.643 36.8235 117.643 35.7247C117.643 34.618 118.4 33.8159 119.573 33.8159C119.96 33.8159 120.301 33.9128 120.48 34.0018L120.331 34.5068C120.175 34.4178 119.93 34.3363 119.573 34.3363C118.749 34.3363 118.304 34.9451 118.304 35.695C118.304 36.5268 118.838 37.0391 119.551 37.0391C119.923 37.0391 120.167 36.9428 120.353 36.8607L120.465 37.3512Z" fill="#191919"/>
<path d="M124.148 33.8892V34.4089H123.027V37.4835H122.381V34.4089H121.26V33.8892H124.148Z" fill="#191919"/>
<path d="M125.077 33.933C125.33 33.8883 125.798 33.8516 126.221 33.8516C126.822 33.8516 127.818 33.9478 127.818 34.7499C127.818 35.1957 127.476 35.4706 127.067 35.5595V35.5745C127.595 35.649 127.981 35.9456 127.981 36.4654C127.981 37.4086 126.793 37.5274 126.087 37.5274C125.687 37.5274 125.271 37.4976 125.077 37.4833V33.933ZM125.694 37.0523C125.879 37.0748 126.013 37.0823 126.221 37.0823C126.66 37.0823 127.313 36.9778 127.313 36.4579C127.313 35.9381 126.793 35.8269 126.17 35.8269H125.694V37.0523ZM125.701 35.3961H126.191C126.674 35.3961 127.172 35.2549 127.172 34.8314C127.172 34.4751 126.86 34.3048 126.206 34.3048C125.991 34.3048 125.857 34.3191 125.701 34.3346V35.3961Z" fill="#191919"/>
<path d="M132.429 35.6567C132.429 36.9861 131.508 37.5656 130.639 37.5656C129.666 37.5656 128.916 36.8524 128.916 35.7158C128.916 34.5133 129.703 33.8076 130.698 33.8076C131.731 33.8076 132.429 34.5575 132.429 35.6567ZM129.577 35.694C129.577 36.4811 130.03 37.0756 130.669 37.0756C131.292 37.0756 131.761 36.4886 131.761 35.6792C131.761 35.0698 131.456 34.2981 130.684 34.2981C129.911 34.2981 129.577 35.0108 129.577 35.694Z" fill="#191919"/>
<path d="M136.203 33.8892V35.3377H137.911V33.8892H138.557V37.4835H137.911V35.8577H136.203V37.4835H135.557V33.8892H136.203Z" fill="#191919"/>
<path d="M140.362 35.8059C140.377 36.6895 140.941 37.0533 141.595 37.0533C142.063 37.0533 142.345 36.9718 142.59 36.8674L142.702 37.3354C142.471 37.4394 142.078 37.5581 141.506 37.5581C140.399 37.5581 139.738 36.83 139.738 35.7462C139.738 34.6619 140.377 33.8076 141.424 33.8076C142.598 33.8076 142.909 34.8397 142.909 35.5013C142.909 35.6343 142.895 35.7387 142.887 35.8059H140.362ZM142.278 35.3377C142.286 34.9218 142.108 34.2758 141.372 34.2758C140.711 34.2758 140.422 34.8846 140.369 35.3377H142.278Z" fill="#191919"/>
<path d="M144.411 35.3978H144.723C145.273 35.3978 145.644 35.1453 145.644 34.8114C145.644 34.4918 145.355 34.291 144.946 34.291C144.656 34.291 144.33 34.388 144.077 34.544L143.914 34.143C144.278 33.9198 144.694 33.8159 145.11 33.8159C145.659 33.8159 146.328 34.0615 146.328 34.7592C146.328 35.2045 145.919 35.4948 145.518 35.5763V35.5911C146.053 35.6353 146.499 35.9623 146.499 36.4896C146.499 37.2699 145.704 37.5591 144.946 37.5591C144.523 37.5591 144.099 37.4477 143.78 37.2699L143.951 36.8309C144.211 36.9721 144.56 37.0765 144.902 37.0765C145.444 37.0765 145.785 36.8166 145.785 36.4597C145.785 35.9773 145.281 35.8436 144.738 35.8436H144.411V35.3978Z" fill="#191919"/>
<path d="M149.676 37.4841L149.624 37.0315H149.601C149.401 37.3138 149.014 37.5655 148.502 37.5655C147.774 37.5655 147.403 37.0533 147.403 36.5335C147.403 35.6649 148.175 35.1892 149.564 35.1966V35.122C149.564 34.8255 149.482 34.2908 148.747 34.2908C148.413 34.2908 148.064 34.3945 147.812 34.5582L147.663 34.1272C147.96 33.9338 148.391 33.8076 148.844 33.8076C149.943 33.8076 150.21 34.5582 150.21 35.2781V36.6223C150.21 36.9345 150.225 37.2391 150.27 37.4841H149.676ZM149.579 35.6499C148.866 35.6349 148.057 35.7611 148.057 36.4595C148.057 36.8828 148.338 37.083 148.673 37.083C149.141 37.083 149.438 36.7859 149.542 36.4818C149.564 36.4146 149.579 36.3406 149.579 36.2736V35.6499Z" fill="#191919"/>
<path d="M151.621 33.933C151.874 33.8883 152.342 33.8516 152.765 33.8516C153.366 33.8516 154.362 33.9478 154.362 34.7499C154.362 35.1957 154.021 35.4706 153.612 35.5595V35.5745C154.139 35.649 154.525 35.9456 154.525 36.4654C154.525 37.4086 153.337 37.5274 152.632 37.5274C152.23 37.5274 151.814 37.4976 151.621 37.4833V33.933ZM152.238 37.0523C152.424 37.0748 152.558 37.0823 152.765 37.0823C153.203 37.0823 153.857 36.9778 153.857 36.4579C153.857 35.9381 153.337 35.8269 152.713 35.8269H152.238V37.0523ZM152.245 35.3961H152.735C153.218 35.3961 153.716 35.2549 153.716 34.8314C153.716 34.4751 153.404 34.3048 152.75 34.3048C152.535 34.3048 152.401 34.3191 152.245 34.3346V35.3961Z" fill="#191919"/>
<path d="M156.324 33.8892V35.4044C156.324 35.9764 156.316 36.3325 156.286 36.845L156.309 36.8525C156.524 36.414 156.65 36.1623 156.888 35.7458L158.009 33.8892H158.775V37.4835H158.15V35.9614C158.15 35.3745 158.165 35.0699 158.195 34.4904H158.173C157.943 34.9511 157.787 35.2408 157.579 35.6051C157.237 36.1623 156.843 36.8525 156.457 37.4835H155.707V33.8892H156.324Z" fill="#191919"/>
<path d="M162.769 37.3512C162.598 37.4402 162.22 37.5589 161.737 37.5589C160.653 37.5589 159.947 36.8235 159.947 35.7247C159.947 34.618 160.705 33.8159 161.879 33.8159C162.265 33.8159 162.606 33.9128 162.784 34.0018L162.636 34.5068C162.48 34.4178 162.235 34.3363 161.879 34.3363C161.054 34.3363 160.609 34.9451 160.609 35.695C160.609 36.5268 161.143 37.0391 161.856 37.0391C162.228 37.0391 162.473 36.9428 162.658 36.8607L162.769 37.3512Z" fill="#191919"/>
<path d="M164.508 33.8892V35.4044C164.508 35.9764 164.501 36.3325 164.471 36.845L164.493 36.8525C164.709 36.414 164.835 36.1623 165.073 35.7458L166.194 33.8892H166.959V37.4835H166.335V35.9614C166.335 35.3745 166.35 35.0699 166.38 34.4904H166.357C166.127 34.9511 165.971 35.2408 165.764 35.6051C165.422 36.1623 165.028 36.8525 164.642 37.4835H163.892V33.8892H164.508Z" fill="#191919"/>
<path d="M168.429 33.8892H169.232L169.885 35.7015C169.974 35.9689 170.13 36.4072 170.212 36.6889H170.226C170.309 36.4215 170.509 35.8502 170.65 35.4566L171.229 33.8892H172.039L172.291 37.4835H171.667L171.586 35.768C171.563 35.3819 171.534 34.9212 171.519 34.4834H171.497C171.4 34.8105 171.303 35.0996 171.103 35.6493L170.412 37.4612H169.937L169.299 35.6866C169.187 35.3447 169.031 34.8248 168.942 34.4904H168.912C168.897 34.9137 168.875 35.3894 168.852 35.783L168.763 37.4835H168.162L168.429 33.8892Z" fill="#191919"/>
<path d="M174.14 33.8892V35.1146C174.281 35.0848 174.488 35.0699 174.726 35.0699C175.499 35.0699 176.279 35.3894 176.279 36.273C176.279 36.6523 176.137 36.9122 175.907 37.1049C175.513 37.4394 174.934 37.5209 174.459 37.5209C174.095 37.5209 173.761 37.4985 173.493 37.4692V33.8892H174.14ZM174.14 37.0309C174.266 37.0459 174.407 37.0602 174.592 37.0602C175.09 37.0602 175.632 36.8525 175.632 36.2953C175.632 35.7158 175.112 35.5381 174.622 35.5381C174.436 35.5381 174.273 35.5529 174.14 35.5753V37.0309ZM177.377 37.4842H176.731V33.8897H177.377V37.4842Z" fill="#191919"/>
<path d="M179.125 33.8892L179.637 34.662C179.772 34.8622 179.883 35.0481 180.001 35.2483H180.024C180.143 35.0331 180.262 34.8472 180.38 34.6545L180.885 33.8892H181.591L180.366 35.6269L181.628 37.4835H180.885L180.358 36.6746C180.217 36.4662 180.098 36.2655 179.972 36.0504H179.957C179.838 36.2655 179.712 36.4589 179.578 36.6746L179.059 37.4835H178.338L179.616 35.6493L178.398 33.8892H179.125Z" fill="#191919"/>
<path d="M184.724 35.4341H186.536C186.476 34.8179 186.098 34.3131 185.296 34.3131C184.917 34.3131 184.627 34.4243 184.434 34.5133L184.293 34.0898C184.605 33.912 185.021 33.8076 185.399 33.8076C185.92 33.8076 186.387 33.986 186.707 34.3199C187.011 34.6395 187.197 35.1145 187.197 35.7015C187.197 36.7485 186.506 37.5656 185.288 37.5656C184.902 37.5656 184.531 37.4691 184.241 37.3205L184.367 36.8529C184.538 36.9269 184.842 37.0456 185.266 37.0456C185.986 37.0456 186.47 36.5924 186.529 35.8792H184.724V35.4341Z" fill="#191919"/>
<path d="M189.04 33.8892V35.4491H189.196L190.547 33.8892H191.342L189.775 35.5156C190.354 35.5753 190.703 35.9614 190.985 36.6074C191.082 36.845 191.208 37.1943 191.372 37.4835H190.688C190.592 37.3275 190.465 37.0457 190.354 36.7485C190.109 36.1691 189.775 35.9017 189.166 35.9017H189.04V37.4835H188.394V33.8892H189.04Z" fill="#191919"/>
<path d="M194.842 37.3512C194.671 37.4402 194.293 37.5589 193.809 37.5589C192.725 37.5589 192.02 36.8235 192.02 35.7247C192.02 34.618 192.777 33.8159 193.951 33.8159C194.337 33.8159 194.678 33.9128 194.856 34.0018L194.708 34.5068C194.552 34.4178 194.307 34.3363 193.951 34.3363C193.126 34.3363 192.681 34.9451 192.681 35.695C192.681 36.5268 193.215 37.0391 193.928 37.0391C194.3 37.0391 194.545 36.9428 194.73 36.8607L194.842 37.3512Z" fill="#191919"/>
<path d="M198.932 33.8892V37.4835H198.278V34.4089H196.608V37.4835H195.961V33.8892H198.932Z" fill="#191919"/>
<path d="M200.732 35.8059C200.746 36.6895 201.311 37.0533 201.964 37.0533C202.432 37.0533 202.714 36.9718 202.96 36.8674L203.071 37.3354C202.841 37.4394 202.447 37.5581 201.875 37.5581C200.768 37.5581 200.107 36.83 200.107 35.7462C200.107 34.6619 200.746 33.8076 201.794 33.8076C202.967 33.8076 203.278 34.8397 203.278 35.5013C203.278 35.6343 203.264 35.7387 203.257 35.8059H200.732ZM202.647 35.3377C202.655 34.9218 202.477 34.2758 201.741 34.2758C201.08 34.2758 200.791 34.8846 200.739 35.3377H202.647Z" fill="#191919"/>
<path d="M204.457 35.063C204.457 34.6022 204.443 34.2309 204.428 33.8896H205.015L205.044 34.5058H205.059C205.327 34.068 205.75 33.8076 206.337 33.8076C207.205 33.8076 207.859 34.543 207.859 35.6349C207.859 36.9269 207.072 37.5655 206.225 37.5655C205.75 37.5655 205.334 37.3579 205.118 37.0015H205.104V38.9544H204.457V35.063ZM205.104 36.021C205.104 36.1175 205.118 36.2069 205.133 36.2884C205.252 36.741 205.646 37.0531 206.114 37.0531C206.804 37.0531 207.205 36.4892 207.205 35.6647C207.205 34.9441 206.827 34.3274 206.136 34.3274C205.69 34.3274 205.274 34.647 205.148 35.1375C205.126 35.2189 205.104 35.3154 205.104 35.4043V36.021Z" fill="#191919"/>
<path d="M211.424 33.8892V34.4089H210.303V37.4835H209.657V34.4089H208.536V33.8892H211.424Z" fill="#191919"/>
<path d="M212.969 33.8892V35.4044C212.969 35.9764 212.962 36.3325 212.932 36.845L212.954 36.8525C213.17 36.414 213.296 36.1623 213.534 35.7458L214.655 33.8892H215.42V37.4835H214.796V35.9614C214.796 35.3745 214.811 35.0699 214.841 34.4904H214.818C214.588 34.9511 214.432 35.2408 214.225 35.6051C213.883 36.1623 213.489 36.8525 213.103 37.4835H212.353V33.8892H212.969Z" fill="#191919"/>
<path d="M217.152 35.3978H217.464C218.014 35.3978 218.385 35.1453 218.385 34.8114C218.385 34.4918 218.095 34.291 217.687 34.291C217.397 34.291 217.071 34.388 216.818 34.544L216.655 34.143C217.018 33.9198 217.434 33.8159 217.85 33.8159C218.4 33.8159 219.068 34.0615 219.068 34.7592C219.068 35.2045 218.66 35.4948 218.259 35.5763V35.5911C218.793 35.6353 219.239 35.9623 219.239 36.4896C219.239 37.2699 218.445 37.5591 217.687 37.5591C217.263 37.5591 216.84 37.4477 216.521 37.2699L216.692 36.8309C216.952 36.9721 217.301 37.0765 217.643 37.0765C218.184 37.0765 218.526 36.8166 218.526 36.4597C218.526 35.9773 218.021 35.8436 217.479 35.8436H217.152V35.3978Z" fill="#191919"/>
<path d="M86.9131 10.4697H94.912V11.5392H88.7869V23.6128H86.9131V10.4697Z" fill="#191919"/>
<path d="M99.2288 20.1566V23.6128H97.293V10.4697H100.581C101.506 10.4697 102.299 10.5478 102.959 10.7039C103.618 10.8599 104.173 11.0676 104.62 11.327C105.068 11.5862 105.428 11.8851 105.699 12.2237C105.97 12.5633 106.176 12.9133 106.317 13.2759C106.459 13.638 106.551 14.0005 106.596 14.3625C106.64 14.7252 106.662 15.0631 106.662 15.3752C106.662 15.6816 106.637 16.0132 106.587 16.3695C106.536 16.7257 106.436 17.0809 106.286 17.4349C106.136 17.7883 105.924 18.1279 105.65 18.455C105.376 18.7825 105.014 19.0728 104.563 19.3259C104.112 19.5794 103.561 19.7814 102.91 19.9312C102.259 20.0814 101.482 20.1566 100.581 20.1566H99.2288ZM99.2288 11.3356V19.2902H100.316C100.97 19.2902 101.562 19.2169 102.092 19.0694C102.623 18.9225 103.075 18.6867 103.449 18.3626C103.823 18.0385 104.111 17.6242 104.311 17.1204C104.511 16.6174 104.611 16.0057 104.611 15.2869C104.611 14.739 104.56 14.2599 104.457 13.8502C104.354 13.4405 104.208 13.0901 104.019 12.7986C103.831 12.5072 103.605 12.2666 103.343 12.0785C103.081 11.8898 102.792 11.7394 102.477 11.627C102.162 11.5158 101.824 11.4388 101.465 11.3975C101.105 11.3562 100.734 11.3356 100.351 11.3356H99.2288Z" fill="#191919"/>
<path d="M119.872 23.6128H117.83L117.105 21.9072H109.919L109.212 23.6128H108.143L112.96 12.1583L112.253 10.4697H114.321L119.872 23.6128ZM110.282 21.0408H116.743L113.481 13.4044L110.282 21.0408Z" fill="#191919"/>
<path d="M132.355 23.6127H130.419V16.188H124.488V23.6127H122.553V10.4697H124.488V15.3223H130.419V10.4697H132.355V23.6127Z" fill="#191919"/>
<path d="M135.531 25.7072V22.7114H136.459C136.777 21.9862 137.049 21.1496 137.273 20.2007C137.496 19.2523 137.679 18.2432 137.82 17.1737C137.962 16.1043 138.066 14.9994 138.134 13.8587C138.202 12.7193 138.236 11.589 138.236 10.4697H145.51V22.7114H147.048V25.7072H145.864V23.6127H136.733V25.7072H135.531ZM143.628 22.7114V11.468H139.208C139.208 12.0812 139.189 12.7297 139.151 13.4124C139.113 14.0967 139.058 14.7869 138.987 15.4853C138.917 16.1835 138.833 16.8789 138.735 17.5714C138.638 18.2639 138.529 18.9237 138.409 19.5513C138.288 20.1789 138.158 20.7624 138.019 21.3017C137.881 21.8405 137.738 22.3103 137.59 22.7114H143.628Z" fill="#191919"/>
<path d="M160.786 10.4697H162.66V20.1216L169.537 12.0608V10.4697H171.41V23.6128H169.537V13.8107L162.66 21.8715V23.6128H160.786V10.4697Z" fill="#191919"/>
<path d="M181.656 10.1958C182.681 10.1958 183.631 10.3622 184.506 10.6949C185.381 11.0283 186.157 11.4891 186.835 12.0781L186.34 12.7322C186.069 12.5028 185.768 12.2876 185.439 12.0867C185.108 11.8872 184.761 11.7145 184.396 11.5699C184.03 11.4253 183.65 11.3111 183.255 11.2256C182.861 11.1402 182.463 11.0971 182.062 11.0971C181.202 11.0971 180.439 11.2537 179.773 11.5653C179.107 11.8779 178.547 12.3053 178.093 12.847C177.64 13.3891 177.295 14.0232 177.059 14.7477C176.824 15.4724 176.706 16.2504 176.706 17.0805C176.706 17.8942 176.822 18.66 177.055 19.3788C177.288 20.0983 177.629 20.7284 178.081 21.2706C178.531 21.8126 179.089 22.2413 179.755 22.5568C180.421 22.8718 181.184 23.0296 182.045 23.0296C182.457 23.0296 182.875 22.9883 183.3 22.9061C183.723 22.8235 184.133 22.7025 184.528 22.5436C184.923 22.3847 185.295 22.1902 185.646 21.9601C185.997 21.73 186.307 21.4678 186.579 21.173L187.083 21.819C186.387 22.4788 185.58 22.994 184.661 23.3651C183.741 23.7364 182.74 23.9223 181.656 23.9223C181.002 23.9223 180.374 23.8408 179.773 23.679C179.172 23.5172 178.611 23.2861 178.089 22.9854C177.568 22.6848 177.093 22.3267 176.666 21.9113C176.239 21.496 175.874 21.0347 175.57 20.5281C175.267 20.0215 175.031 19.4775 174.863 18.8976C174.695 18.317 174.611 17.7117 174.611 17.0805C174.611 16.4506 174.695 15.8408 174.863 15.2515C175.031 14.6623 175.267 14.1126 175.57 13.6026C175.874 13.0937 176.239 12.6296 176.666 12.2113C177.093 11.7925 177.568 11.4344 178.089 11.1366C178.611 10.8395 179.172 10.6078 179.773 10.443C180.374 10.2784 181.002 10.1958 181.656 10.1958Z" fill="#191919"/>
<path d="M197.254 10.4697V11.3356H194.072V23.6128H192.137V11.3356H188.928V10.4697H197.254Z" fill="#191919"/>
<path d="M207.81 10.4697V11.3356H201.702V15.3223H207.624V16.1882H201.702V22.7465H207.81V23.6128H199.767V10.4697H207.81Z" fill="#191919"/>
<path d="M211.754 20.1212L218.631 12.0604V10.4695H220.505V23.6125H218.631V13.8103L211.754 21.8712V23.6125H209.881V10.4695H211.754V20.1212ZM213.222 6.90723C213.222 7.14304 213.26 7.35983 213.336 7.55726C213.413 7.75454 213.533 7.92383 213.694 8.065C213.856 8.20665 214.061 8.31676 214.309 8.39661C214.556 8.4763 214.85 8.51598 215.192 8.51598C215.534 8.51598 215.829 8.4763 216.077 8.39661C216.324 8.31676 216.529 8.20665 216.691 8.065C216.853 7.92383 216.972 7.75454 217.049 7.55726C217.125 7.35983 217.164 7.14304 217.164 6.90723H218.631C218.631 7.29624 218.542 7.64265 218.366 7.94612C218.189 8.2491 217.946 8.50443 217.636 8.71049C217.327 8.91703 216.963 9.07413 216.545 9.18374C216.126 9.29222 215.675 9.34671 215.192 9.34671C214.497 9.34671 213.876 9.23774 213.328 9.01965C212.78 8.80221 212.37 8.48328 212.099 8.065C211.869 7.72932 211.754 7.34373 211.754 6.90723H213.222Z" fill="#191919"/>
<path d="M231 10.4697V11.3356H227.818V23.6128H225.883V11.3356H222.674V10.4697H231Z" fill="#191919"/>
<path d="M71.8252 62.7142H72.4138V0H71.8252V62.7142Z" fill="#1C1C1A"/>
<path d="M112.61 53.0869H113.409V50.6084C113.592 50.6542 113.813 50.6635 114.051 50.6635C114.832 50.6635 115.511 50.434 115.943 49.9842C116.255 49.6628 116.42 49.2222 116.42 48.6623C116.42 48.1115 116.209 47.6618 115.878 47.3679C115.511 47.0374 114.933 46.854 114.143 46.854C113.501 46.854 112.996 46.909 112.61 46.9732V53.0869ZM113.409 47.5515C113.547 47.5148 113.813 47.4873 114.162 47.4873C115.034 47.4873 115.621 47.882 115.621 48.7082C115.621 49.5436 115.034 50.0209 114.07 50.0209C113.804 50.0209 113.583 50.0026 113.409 49.9567V47.5515Z" fill="#CC1720"/>
<path d="M119.918 51.1409L120.579 53.0869H121.433L119.322 46.8999H118.367L116.256 53.0869H117.082L117.725 51.1409H119.918ZM117.89 50.5167L118.496 48.7266C118.624 48.3503 118.716 47.9647 118.808 47.6067H118.826C118.918 47.9647 119.01 48.3319 119.147 48.7359L119.763 50.5167H117.89Z" fill="#CC1720"/>
<path d="M122.343 46.8999V53.0685C122.609 53.1053 123.031 53.1421 123.591 53.1421C124.436 53.1421 125.271 52.9492 125.776 52.4535C126.088 52.1323 126.29 51.6917 126.29 51.1041C126.29 50.388 125.969 49.9016 125.5 49.5986C125.069 49.3142 124.491 49.1855 123.903 49.1855C123.701 49.1855 123.334 49.2039 123.141 49.2316V47.5699H125.813V46.8999H122.343ZM123.141 49.8465C123.343 49.8281 123.6 49.8097 123.775 49.8097C124.215 49.8097 124.638 49.9016 124.95 50.122C125.253 50.3331 125.455 50.6543 125.455 51.1316C125.455 51.5172 125.326 51.8202 125.115 52.0404C124.812 52.3617 124.307 52.5177 123.811 52.5177C123.536 52.5177 123.325 52.5086 123.141 52.4718V49.8465Z" fill="#CC1720"/>
<path d="M129.74 46.7905C128.088 46.7905 126.876 48.0758 126.876 50.0402C126.876 51.9128 128.014 53.1888 129.657 53.1888C131.236 53.1888 132.531 52.0505 132.531 49.93C132.531 48.0849 131.438 46.7905 129.74 46.7905ZM129.712 47.4424C131.044 47.4424 131.686 48.7275 131.686 49.9667C131.686 51.3712 130.97 52.537 129.703 52.537C128.436 52.537 127.721 51.3528 127.721 50.0219C127.721 48.6723 128.381 47.4424 129.712 47.4424Z" fill="#CC1720"/>
<path d="M134.67 53.0869H135.478V47.5792H137.369V46.8999H132.788V47.5792H134.67V53.0869Z" fill="#CC1720"/>
<path d="M140.509 51.1409L141.17 53.0869H142.024L139.913 46.8999H138.958L136.847 53.0869H137.673L138.315 51.1409H140.509ZM138.481 50.5167L139.086 48.7266C139.215 48.3503 139.307 47.9647 139.399 47.6067H139.417C139.509 47.9647 139.601 48.3319 139.738 48.7359L140.353 50.5167H138.481Z" fill="#CC1720"/>
<path d="M146.126 49.5253H143.73V47.5699H146.272V46.8999H142.922V53.0869H146.41V52.4169H143.73V50.1862H146.126V49.5253Z" fill="#CC1720"/>
<path d="M152.807 53.0869H153.597L153.211 46.8999H152.192L151.091 49.8923C150.815 50.6726 150.595 51.352 150.43 51.9762H150.411C150.246 51.3336 150.044 50.6543 149.787 49.8923L148.732 46.8999H147.713L147.281 53.0869H148.043L148.208 50.4341C148.263 49.4976 148.309 48.4696 148.328 47.6984H148.346C148.521 48.4329 148.759 49.2223 149.053 50.1036L150.063 53.0502H150.669L151.761 50.0485C152.073 49.1948 152.321 48.4145 152.541 47.6984H152.559C152.559 48.4604 152.615 49.5069 152.66 50.3698L152.807 53.0869Z" fill="#CC1720"/>
<path d="M160.933 52.253C160.611 52.409 160.116 52.51 159.62 52.51C158.124 52.51 157.252 51.5461 157.252 50.0224C157.252 48.3975 158.216 47.4703 159.666 47.4703C160.18 47.4703 160.611 47.5806 160.905 47.7275L161.107 47.0756C160.896 46.9655 160.4 46.8003 159.638 46.8003C157.72 46.8003 156.407 48.1038 156.407 50.0498C156.407 52.0878 157.711 53.1893 159.455 53.1893C160.208 53.1893 160.804 53.0424 161.089 52.8956L160.933 52.253Z" fill="#CC1720"/>
<path d="M184.817 46.8999V53.0869H185.625V47.5699H188.113V46.8999H184.817Z" fill="#CC1720"/>
<path d="M190.978 46.7905C189.326 46.7905 188.114 48.0758 188.114 50.0402C188.114 51.9128 189.252 53.1888 190.895 53.1888C192.474 53.1888 193.768 52.0505 193.768 49.93C193.768 48.0849 192.676 46.7905 190.978 46.7905ZM190.95 47.4424C192.281 47.4424 192.924 48.7275 192.924 49.9667C192.924 51.3712 192.208 52.537 190.941 52.537C189.674 52.537 188.958 51.3528 188.958 50.0219C188.958 48.6723 189.619 47.4424 190.95 47.4424Z" fill="#CC1720"/>
<path d="M195.385 46.8999V48.4696C195.385 49.5344 195.302 50.3606 195.091 51.0766C194.943 51.5631 194.713 52.0129 194.484 52.4351L194.023 52.4535L194.069 54.574H194.695L194.75 53.0869H198.653L198.708 54.574H199.332L199.387 52.4535L198.846 52.4351V46.8999H195.385ZM196.129 47.5608H198.047V52.426H195.311C195.486 52.0955 195.688 51.6824 195.816 51.251C196.037 50.5533 196.129 49.718 196.129 48.7266V47.5608Z" fill="#CC1720"/>
<path d="M203.618 51.1409L204.279 53.0869H205.132L203.021 46.8999H202.066L199.955 53.0869H200.781L201.424 51.1409H203.618ZM201.589 50.5167L202.195 48.7266C202.323 48.3503 202.415 47.9647 202.507 47.6067H202.525C202.617 47.9647 202.709 48.3319 202.847 48.7359L203.462 50.5167H201.589Z" fill="#CC1720"/>
<path d="M167.568 53.0877V52.4176H164.897V52.3992L165.365 51.9585C166.623 50.7469 167.421 49.8565 167.421 48.7548C167.421 47.9012 166.88 47.02 165.595 47.02C164.915 47.02 164.319 47.2861 163.915 47.6258L164.172 48.1949C164.447 47.9654 164.897 47.6901 165.439 47.6901C166.329 47.6901 166.614 48.25 166.614 48.8558C166.614 49.7555 165.916 50.5265 164.392 51.9769L163.759 52.592V53.0877H167.568Z" fill="#CC1720"/>
<path d="M170.471 47.02C169.259 47.02 168.387 48.1123 168.387 50.1227C168.405 52.0963 169.204 53.1887 170.37 53.1887C171.682 53.1887 172.444 52.0688 172.444 50.0401C172.444 48.1399 171.719 47.02 170.471 47.02ZM170.415 47.6442C171.26 47.6442 171.627 48.608 171.627 50.0767C171.627 51.6006 171.232 52.5645 170.415 52.5645C169.681 52.5645 169.204 51.6832 169.204 50.1318C169.204 48.507 169.718 47.6442 170.415 47.6442Z" fill="#CC1720"/>
<path d="M175.179 47.02C173.967 47.02 173.095 48.1123 173.095 50.1227C173.113 52.0963 173.912 53.1887 175.078 53.1887C176.39 53.1887 177.152 52.0688 177.152 50.0401C177.152 48.1399 176.427 47.02 175.179 47.02ZM175.123 47.6442C175.968 47.6442 176.335 48.608 176.335 50.0767C176.335 51.6006 175.94 52.5645 175.123 52.5645C174.389 52.5645 173.912 51.6832 173.912 50.1318C173.912 48.507 174.426 47.6442 175.123 47.6442Z" fill="#CC1720"/>
<path d="M177.858 52.7847C178.152 52.9776 178.74 53.1887 179.41 53.1887C180.833 53.1887 181.585 52.3532 181.585 51.3986C181.576 50.5633 180.989 50.0125 180.254 49.8749V49.8565C180.979 49.5903 181.356 49.0671 181.356 48.4427C181.356 47.7176 180.823 47.02 179.648 47.02C179.006 47.02 178.4 47.2495 178.079 47.479L178.299 48.0664C178.556 47.8828 179.015 47.6717 179.492 47.6717C180.236 47.6717 180.539 48.0939 180.539 48.5714C180.539 49.2782 179.795 49.581 179.208 49.581H178.758V50.187H179.208C179.988 50.187 180.741 50.5449 180.75 51.3802C180.759 51.8852 180.429 52.5368 179.4 52.5368C178.831 52.5368 178.308 52.3074 178.079 52.1698L177.858 52.7847Z" fill="#CC1720"/>
<defs>
<linearGradient id="paint0_linear" x1="11.8276" y1="55.1643" x2="16.7235" y2="0.0870073" gradientUnits="userSpaceOnUse">
<stop stop-color="#565655"/>
<stop offset="0.788235" stop-color="#1C1C1A"/>
<stop offset="1" stop-color="#1C1C1A"/>
</linearGradient>
<linearGradient id="paint1_linear" x1="35.3729" y1="30.9827" x2="37.9874" y2="34.6169" gradientUnits="userSpaceOnUse">
<stop stop-color="#BD1621"/>
<stop offset="0.141176" stop-color="#BD1621"/>
<stop offset="1" stop-color="#EA0522"/>
</linearGradient>
<linearGradient id="paint2_linear" x1="51.5026" y1="43.43" x2="32.9199" y2="38.9821" gradientUnits="userSpaceOnUse">
<stop stop-color="#565655"/>
<stop offset="0.870588" stop-color="#1C1C1A"/>
<stop offset="1" stop-color="#1C1C1A"/>
</linearGradient>
<linearGradient id="paint3_linear" x1="21.8032" y1="56.9041" x2="18.3683" y2="33.7372" gradientUnits="userSpaceOnUse">
<stop stop-color="#565655"/>
<stop offset="0.160784" stop-color="#565655"/>
<stop offset="0.780392" stop-color="#1C1C1A"/>
<stop offset="1" stop-color="#1C1C1A"/>
</linearGradient>
<linearGradient id="paint4_linear" x1="21.2485" y1="25.0382" x2="30.0563" y2="29.2326" gradientUnits="userSpaceOnUse">
<stop stop-color="#BD1621"/>
<stop offset="1" stop-color="#EA0522"/>
</linearGradient>
</defs>
</svg>
