<svg width="16" height="20" viewBox="0 0 16 20" fill="none" xmlns="http://www.w3.org/2000/svg">
<path d="M8 10.6923C9.5464 10.6923 10.8 9.45248 10.8 7.92308C10.8 6.39367 9.5464 5.15385 8 5.15385C6.4536 5.15385 5.2 6.39367 5.2 7.92308C5.2 9.45248 6.4536 10.6923 8 10.6923Z" stroke="#8A8A8A" stroke-linecap="round" stroke-linejoin="round"/>
<path d="M15 7.92308C15 14.1538 8 19 8 19C8 19 1 14.1538 1 7.92308C1 6.08696 1.7375 4.32605 3.05025 3.02772C4.36301 1.72939 6.14348 1 8 1C9.85652 1 11.637 1.72939 12.9497 3.02772C14.2625 4.32605 15 6.08696 15 7.92308Z" stroke="#8A8A8A" stroke-linecap="round" stroke-linejoin="round"/>
</svg>
