<svg width="17" height="17" viewBox="0 0 17 17" fill="none" xmlns="http://www.w3.org/2000/svg">
<path d="M9 4.125C9 3.84886 8.77614 3.625 8.5 3.625C8.22386 3.625 8 3.84886 8 4.125H9ZM8.5 8.5H8C8 8.77614 8.22386 9 8.5 9V8.5ZM12.875 9C13.1511 9 13.375 8.77614 13.375 8.5C13.375 8.22386 13.1511 8 12.875 8V9ZM15.5 8.5C15.5 12.366 12.366 15.5 8.5 15.5V16.5C12.9183 16.5 16.5 12.9183 16.5 8.5H15.5ZM8.5 15.5C4.63401 15.5 1.5 12.366 1.5 8.5H0.5C0.5 12.9183 4.08172 16.5 8.5 16.5V15.5ZM1.5 8.5C1.5 4.63401 4.63401 1.5 8.5 1.5V0.5C4.08172 0.5 0.5 4.08172 0.5 8.5H1.5ZM8.5 1.5C12.366 1.5 15.5 4.63401 15.5 8.5H16.5C16.5 4.08172 12.9183 0.5 8.5 0.5V1.5ZM8 4.125V8.5H9V4.125H8ZM8.5 9H12.875V8H8.5V9Z" fill="#8A8A8A"/>
</svg>
