<svg width="13" height="14" viewBox="0 0 13 14" fill="none" xmlns="http://www.w3.org/2000/svg">
<path d="M11.8817 9.73641C11.8817 11.0891 10.7643 12.1958 9.4607 12.1958H3.93593C2.57025 12.1958 1.51496 11.0891 1.51496 9.73641V4.2643C1.51496 2.91164 2.63233 1.80492 3.93593 1.80492H9.4607C10.8264 1.80492 11.8817 2.91164 11.8817 4.2643V9.73641ZM9.33655 0.636719H3.93593C1.88742 0.636719 0.273438 2.2968 0.273438 4.32578V9.67493C0.273438 11.7039 1.94949 13.364 3.93593 13.364H8.15711H9.33655C11.3851 13.364 12.999 11.7039 12.999 9.67493V4.32578C13.0611 2.2968 11.3851 0.636719 9.33655 0.636719ZM6.66728 9.12157C5.48783 9.12157 4.49461 8.13782 4.49461 6.96961C4.49461 5.80141 5.42576 4.81766 6.66728 4.81766C7.9088 4.81766 8.83994 5.80141 8.83994 6.96961C8.83994 8.1993 7.84672 9.12157 6.66728 9.12157ZM6.66728 3.71094C4.86707 3.71094 3.37724 5.18657 3.37724 7.0311C3.37724 8.87563 4.86707 10.3513 6.66728 10.3513C8.46749 10.3513 9.95731 8.87563 9.95731 7.0311C9.95731 5.18657 8.46749 3.71094 6.66728 3.71094ZM10.0815 2.78867C9.64693 2.78867 9.33655 3.15758 9.33655 3.52649C9.33655 3.89539 9.70901 4.2643 10.0815 4.2643C10.516 4.2643 10.8264 3.89539 10.8264 3.52649C10.8264 3.15758 10.516 2.78867 10.0815 2.78867Z" fill="white"/>
</svg>
