<svg width="604" height="467" viewBox="0 0 604 467" fill="none" xmlns="http://www.w3.org/2000/svg">
<path d="M183.776 433.256C183.776 518.468 257.421 571.257 294.243 587C57.2418 507.616 85.2032 345.043 145.615 262.429C205.87 180.031 357.51 131.797 304.285 78.5397C251.06 25.282 53.4806 128.113 43.1824 286.546C35.1485 410.144 91.386 493.548 115.488 517.664C76.9919 494.888 0 416.776 0 286.546C0 123.758 113.479 -33 294.243 -33C475.006 -33 481.032 114.715 418.769 180.031C356.506 245.347 183.776 326.741 183.776 433.256Z" fill="#F1F1F1"/>
<path d="M247.043 444.31C247.043 523.694 312.319 565.898 375.586 565.898C458.938 569.582 621.023 503.596 602.545 210.177C544.299 495.557 378.599 507.616 352.489 472.446C327.408 438.663 341.442 412.154 450.904 324.731C560.367 237.308 572.418 121.749 492.078 32.316C552.333 180.031 446.888 249.366 375.586 291.57C304.285 333.775 247.043 364.925 247.043 444.31Z" fill="#F1F1F1"/>
<path d="M194.082 411.207C194.082 493.121 265.044 543.867 300.525 559C72.1568 482.689 99.0997 326.409 157.311 246.993C215.371 167.784 361.488 121.418 310.202 70.222C258.916 19.0259 68.5327 117.876 58.6095 270.177C50.8682 388.99 105.057 469.165 128.281 492.348C91.1875 470.453 17 395.366 17 270.177C17 113.69 126.346 -37 300.525 -37C474.705 -37 480.511 104.997 420.516 167.784C360.52 230.572 194.082 308.815 194.082 411.207Z" fill="#F7F7F7"/>
<path d="M255.045 421.833C255.045 498.144 317.943 538.715 378.906 538.715C459.222 542.257 615.403 478.825 597.598 196.763C541.474 471.097 381.809 482.689 356.65 448.88C332.483 416.405 346.006 390.922 451.481 306.883C556.956 222.844 568.568 111.759 491.155 25.7877C549.215 167.784 447.61 234.436 378.906 275.007C310.202 315.577 255.045 345.522 255.045 421.833Z" fill="#F7F7F7"/>
</svg>
