<svg width="949" height="697" viewBox="0 0 949 697" fill="none" xmlns="http://www.w3.org/2000/svg">
<mask id="mask0_80:2932" style="mask-type:alpha" maskUnits="userSpaceOnUse" x="0" y="0" width="949" height="697">
<path d="M0 0H949V697H0V0Z" fill="#C4C4C4"/>
</mask>
<g mask="url(#mask0_80:2932)">
<path d="M356.85 698.084C356.85 805.562 449.759 872.144 496.214 892C197.216 791.874 232.491 586.823 308.706 482.622C384.723 378.694 576.031 317.857 508.883 250.684C441.735 183.511 192.471 313.21 179.478 513.041C169.343 668.934 240.292 774.13 270.698 804.548C222.132 775.82 125 677.299 125 513.041C125 307.718 268.164 110 496.214 110C724.263 110 731.864 296.311 653.314 378.694C574.764 461.076 356.85 563.737 356.85 698.084Z" fill="#F1F1F1"/>
<path d="M436.667 712.026C436.667 812.152 519.018 865.384 598.836 865.384C703.992 870.031 908.476 786.804 885.164 416.716C811.682 776.665 602.637 791.874 569.696 747.514C538.055 704.904 555.76 671.468 693.856 561.203C831.953 450.937 847.156 305.183 745.801 192.382C821.817 378.694 688.789 466.146 598.836 519.378C508.883 572.609 436.667 611.9 436.667 712.026Z" fill="#F1F1F1"/>
<path d="M369.635 669.523C369.635 772.878 459.252 836.905 504.06 856C215.657 759.715 249.683 562.53 323.197 462.327C396.52 362.386 581.049 303.883 516.281 239.287C451.512 174.69 211.08 299.414 198.548 491.579C188.772 641.491 257.206 742.652 286.536 771.903C239.69 744.277 146 649.535 146 491.579C146 294.133 284.092 104 504.06 104C724.029 104 731.361 283.164 655.594 362.386C579.827 441.608 369.635 540.331 369.635 669.523Z" fill="#F7F7F7"/>
<path d="M446.624 682.93C446.624 779.216 526.057 830.405 603.046 830.405C704.476 834.874 901.715 754.84 879.229 398.95C808.351 745.089 606.712 759.715 574.939 717.057C544.419 676.081 561.497 643.929 694.7 537.893C827.903 431.857 842.568 291.695 744.804 183.222C818.127 362.386 689.812 446.483 603.046 497.673C516.281 548.862 446.624 586.645 446.624 682.93Z" fill="#F7F7F7"/>
</g>
</svg>
