<svg width="326" height="89" viewBox="0 0 326 89" fill="none" xmlns="http://www.w3.org/2000/svg">
<path d="M16.0096 12.4509C6.29607 19.6653 0 31.2235 0 44.2528C0 57.1346 6.15514 68.5769 15.6819 75.8066C-3.54073 52.1291 10.8189 30.8186 18.6525 24.7426C27.6536 17.7624 37.6006 14.633 39.5026 20.5939C37.6442 14.3853 31.3311 11.0576 24.1583 11.0566C21.4994 11.0566 18.7229 11.5134 16.0096 12.4509Z" fill="url(#paint0_linear)"/>
<path d="M43.334 49.1568C33.7749 55.1063 31.0996 63.0615 33.3475 70.4668C34.8632 75.4592 38.0728 78.5352 43.3057 80.4154C34.3335 76.6883 40.7186 63.3091 48.0836 58.6883C48.0618 58.7094 48.0406 58.7296 48.0195 58.7498C52.4023 54.5501 59.7875 50.4547 64.316 45.5602C71.6874 37.5949 75.4921 23.3292 63.218 12.4875C72.4007 32.6615 52.0721 43.7177 43.334 49.1568Z" fill="url(#paint1_linear)"/>
<path d="M63.5885 64.5971C58.5068 69.6793 48.0748 75.0282 44.8653 67.2715C43.5958 64.2019 45.2086 61.4248 48.0838 58.6887C40.664 63.3438 34.2392 76.8863 43.5068 80.4975C48.7243 82.1913 55.1303 81.4319 61.2653 77.3917C72.039 70.2988 79.1771 58.1156 79.1771 44.2534C79.1771 40.9619 78.7739 37.7654 78.0176 34.7087C76.5359 51.1274 68.3403 59.845 63.5885 64.5971Z" fill="url(#paint2_linear)"/>
<path d="M18.4661 72.2867C22.6472 78.4168 29.7158 83.0216 39.5882 83.84C30.6144 81.182 25.3224 73.6762 24.9653 66.0078C24.6213 58.5991 27.9378 49.5713 39.5882 43.0049C26.0877 48.8376 12.2784 61.2922 18.4661 72.2867Z" fill="url(#paint3_linear)"/>
<path d="M16.0062 12.4529C26.1546 8.94457 37.2109 12.1541 39.5882 20.8922C41.5671 28.4532 30.2379 28.138 18.9915 42.5585C12.4152 50.9927 12.3277 63.2853 18.4661 72.2872C12.2784 61.2927 26.0876 48.838 39.5882 43.0053C49.3965 37.477 59.2042 31.7703 59.2042 20.8922C59.2042 9.92185 49.7527 4.66479 39.5882 4.66479C30.7521 4.66479 22.593 7.56013 16.0062 12.4529Z" fill="url(#paint4_linear)"/>
<path d="M139.663 50.6769L138.929 52.8995H137.986L140.386 45.8357H141.487L143.898 52.8995H142.923L142.168 50.6769H139.663ZM141.98 49.9644L141.288 47.9312C141.131 47.4705 141.026 47.0512 140.921 46.6422H140.9C140.795 47.0618 140.68 47.4907 140.544 47.9208L139.852 49.9644H141.98Z" fill="#191919"/>
<path d="M148.521 47.8264V48.5712H146.32V52.8989H145.408V47.8264H148.521Z" fill="#191919"/>
<path d="M150.292 50.5312C150.313 51.7782 151.11 52.2916 152.032 52.2916C152.692 52.2916 153.09 52.1766 153.436 52.0293L153.593 52.6898C153.269 52.8365 152.713 53.004 151.906 53.004C150.345 53.004 149.412 51.9765 149.412 50.447C149.412 48.9168 150.313 47.7112 151.791 47.7112C153.447 47.7112 153.887 49.1677 153.887 50.1013C153.887 50.2891 153.866 50.4365 153.856 50.5312H150.292ZM152.996 49.8705C153.007 49.2836 152.755 48.372 151.718 48.372C150.784 48.372 150.376 49.231 150.303 49.8705H152.996Z" fill="#191919"/>
<path d="M156.444 47.8264V49.8707H158.855V47.8264H159.767V52.8989H158.855V50.6045H156.444V52.8989H155.532V47.8264H156.444Z" fill="#191919"/>
<path d="M165.197 47.8264V48.5599H163.614V52.8989H162.702V48.5599H161.12V47.8264H165.197Z" fill="#191919"/>
<path d="M170.007 52.7111C169.766 52.8367 169.231 53.0042 168.55 53.0042C167.019 53.0042 166.024 51.9664 166.024 50.4157C166.024 48.8539 167.093 47.7219 168.749 47.7219C169.295 47.7219 169.776 47.8587 170.028 47.9843L169.819 48.6969C169.598 48.5713 169.253 48.4564 168.749 48.4564C167.585 48.4564 166.957 49.3155 166.957 50.3737C166.957 51.5477 167.712 52.2707 168.718 52.2707C169.242 52.2707 169.588 52.1348 169.85 52.0189L170.007 52.7111Z" fill="#191919"/>
<path d="M175.206 47.8264V48.5599H173.623V52.8989H172.711V48.5599H171.129V47.8264H175.206Z" fill="#191919"/>
<path d="M176.516 47.8894C176.872 47.8263 177.533 47.7744 178.13 47.7744C178.979 47.7744 180.383 47.9103 180.383 49.0423C180.383 49.6714 179.902 50.0593 179.324 50.1848V50.2059C180.069 50.311 180.614 50.7296 180.614 51.4632C180.614 52.7944 178.937 52.9619 177.941 52.9619C177.376 52.9619 176.789 52.9199 176.516 52.8997V47.8894ZM177.386 52.2915C177.648 52.3232 177.837 52.3337 178.13 52.3337C178.749 52.3337 179.671 52.1864 179.671 51.4526C179.671 50.7191 178.937 50.5621 178.057 50.5621H177.386V52.2915ZM177.397 49.9541H178.088C178.769 49.9541 179.472 49.7549 179.472 49.1572C179.472 48.6544 179.031 48.4141 178.109 48.4141C177.805 48.4141 177.617 48.4343 177.397 48.4561V49.9541Z" fill="#191919"/>
<path d="M186.893 50.3208C186.893 52.1968 185.594 53.0146 184.367 53.0146C182.994 53.0146 181.936 52.0082 181.936 50.4041C181.936 48.7071 183.046 47.7112 184.45 47.7112C185.908 47.7112 186.893 48.7695 186.893 50.3208ZM182.868 50.3733C182.868 51.4842 183.508 52.3231 184.409 52.3231C185.289 52.3231 185.95 51.4947 185.95 50.3524C185.95 49.4925 185.52 48.4034 184.43 48.4034C183.34 48.4034 182.868 49.4091 182.868 50.3733Z" fill="#191919"/>
<path d="M192.218 47.8264V49.8707H194.629V47.8264H195.54V52.8989H194.629V50.6045H192.218V52.8989H191.306V47.8264H192.218Z" fill="#191919"/>
<path d="M198.088 50.5312C198.108 51.7782 198.905 52.2916 199.827 52.2916C200.488 52.2916 200.886 52.1766 201.232 52.0293L201.389 52.6898C201.064 52.8365 200.509 53.004 199.702 53.004C198.14 53.004 197.207 51.9765 197.207 50.447C197.207 48.9168 198.108 47.7112 199.586 47.7112C201.243 47.7112 201.682 49.1677 201.682 50.1013C201.682 50.2891 201.662 50.4365 201.651 50.5312H198.088ZM200.792 49.8705C200.802 49.2836 200.551 48.372 199.513 48.372C198.58 48.372 198.171 49.231 198.098 49.8705H200.792Z" fill="#191919"/>
<path d="M203.8 49.9544H204.24C205.016 49.9544 205.54 49.598 205.54 49.1268C205.54 48.6758 205.131 48.3923 204.554 48.3923C204.146 48.3923 203.685 48.5293 203.328 48.7495L203.098 48.1835C203.611 47.8686 204.198 47.7219 204.785 47.7219C205.561 47.7219 206.504 48.0685 206.504 49.0531C206.504 49.6815 205.928 50.0912 205.362 50.2062V50.2271C206.116 50.2895 206.745 50.7511 206.745 51.4952C206.745 52.5964 205.624 53.0045 204.554 53.0045C203.957 53.0045 203.359 52.8472 202.909 52.5964L203.15 51.9769C203.517 52.1761 204.009 52.3235 204.492 52.3235C205.256 52.3235 205.739 51.9567 205.739 51.4529C205.739 50.7722 205.026 50.5835 204.261 50.5835H203.8V49.9544Z" fill="#191919"/>
<path d="M211.231 52.8991L211.158 52.2604H211.126C210.844 52.6588 210.298 53.0141 209.575 53.0141C208.548 53.0141 208.024 52.2911 208.024 51.5576C208.024 50.3317 209.114 49.6604 211.074 49.671V49.5656C211.074 49.1472 210.959 48.3926 209.921 48.3926C209.449 48.3926 208.956 48.539 208.601 48.7699L208.391 48.1617C208.81 47.8888 209.418 47.7107 210.057 47.7107C211.609 47.7107 211.985 48.7699 211.985 49.786V51.6829C211.985 52.1236 212.007 52.5535 212.069 52.8991H211.231ZM211.095 50.3106C210.088 50.2895 208.947 50.4676 208.947 51.4532C208.947 52.0506 209.344 52.3331 209.816 52.3331C210.476 52.3331 210.895 51.9138 211.043 51.4846C211.074 51.3898 211.095 51.2854 211.095 51.1908V50.3106Z" fill="#191919"/>
<path d="M213.977 47.8894C214.334 47.8263 214.994 47.7744 215.591 47.7744C216.44 47.7744 217.845 47.9103 217.845 49.0423C217.845 49.6714 217.363 50.0593 216.786 50.1848V50.2059C217.53 50.311 218.075 50.7296 218.075 51.4632C218.075 52.7944 216.398 52.9619 215.403 52.9619C214.837 52.9619 214.249 52.9199 213.977 52.8997V47.8894ZM214.847 52.2915C215.109 52.3232 215.298 52.3337 215.591 52.3337C216.21 52.3337 217.132 52.1864 217.132 51.4526C217.132 50.7191 216.398 50.5621 215.518 50.5621H214.847V52.2915ZM214.858 49.9541H215.549C216.231 49.9541 216.933 49.7549 216.933 49.1572C216.933 48.6544 216.492 48.4141 215.57 48.4141C215.266 48.4141 215.078 48.4343 214.858 48.4561V49.9541Z" fill="#191919"/>
<path d="M220.613 47.8264V49.9648C220.613 50.772 220.602 51.2747 220.56 51.9979L220.591 52.0084C220.895 51.3896 221.073 51.0343 221.409 50.4465L222.991 47.8264H224.072V52.8989H223.19V50.7509C223.19 49.9226 223.212 49.4927 223.254 48.6749H223.222C222.897 49.3251 222.677 49.7339 222.384 50.248C221.901 51.0343 221.346 52.0084 220.801 52.8989H219.742V47.8264H220.613Z" fill="#191919"/>
<path d="M229.71 52.7111C229.469 52.8367 228.935 53.0042 228.253 53.0042C226.723 53.0042 225.727 51.9664 225.727 50.4157C225.727 48.8539 226.796 47.7219 228.453 47.7219C228.997 47.7219 229.479 47.8587 229.731 47.9843L229.521 48.6969C229.301 48.5713 228.955 48.4564 228.453 48.4564C227.289 48.4564 226.66 49.3155 226.66 50.3737C226.66 51.5477 227.414 52.2707 228.421 52.2707C228.946 52.2707 229.291 52.1348 229.553 52.0189L229.71 52.7111Z" fill="#191919"/>
<path d="M232.163 47.8264V49.9648C232.163 50.772 232.153 51.2747 232.111 51.9979L232.142 52.0084C232.446 51.3896 232.624 51.0343 232.96 50.4465L234.542 47.8264H235.622V52.8989H234.741V50.7509C234.741 49.9226 234.762 49.4927 234.804 48.6749H234.773C234.448 49.3251 234.228 49.7339 233.935 50.248C233.452 51.0343 232.897 52.0084 232.352 52.8989H231.293V47.8264H232.163Z" fill="#191919"/>
<path d="M237.698 47.8264H238.83L239.752 50.3841C239.877 50.7614 240.097 51.38 240.213 51.7775H240.234C240.349 51.4002 240.632 50.5939 240.831 50.0385L241.649 47.8264H242.791L243.147 52.8989H242.267L242.152 50.478C242.12 49.9331 242.079 49.2829 242.058 48.6651H242.026C241.89 49.1266 241.753 49.5347 241.471 50.3104L240.496 52.8675H239.825L238.924 50.363C238.766 49.8806 238.546 49.1468 238.421 48.6749H238.379C238.358 49.2724 238.326 49.9437 238.294 50.4991L238.169 52.8989H237.32L237.698 47.8264Z" fill="#191919"/>
<path d="M245.758 47.8259V49.5553C245.957 49.5133 246.25 49.4922 246.585 49.4922C247.676 49.4922 248.776 49.9432 248.776 51.1902C248.776 51.7254 248.577 52.0922 248.251 52.3641C247.696 52.8363 246.879 52.9512 246.209 52.9512C245.694 52.9512 245.223 52.9196 244.845 52.8782V47.8259H245.758ZM245.758 52.2597C245.936 52.2808 246.134 52.301 246.397 52.301C247.099 52.301 247.864 52.0079 247.864 51.2216C247.864 50.4038 247.13 50.153 246.439 50.153C246.176 50.153 245.946 50.1739 245.758 50.2056V52.2597ZM250.327 52.8994H249.415V47.8266H250.327V52.8994Z" fill="#191919"/>
<path d="M252.79 47.8264L253.513 48.9171C253.703 49.1996 253.86 49.4619 254.026 49.7445H254.059C254.227 49.4408 254.394 49.1785 254.562 48.9065L255.274 47.8264H256.27L254.541 50.2788L256.323 52.8989H255.274L254.53 51.7573C254.331 51.4633 254.163 51.1801 253.985 50.8764H253.964C253.797 51.1801 253.618 51.453 253.43 51.7573L252.696 52.8989H251.679L253.483 50.3104L251.763 47.8264H252.79Z" fill="#191919"/>
<path d="M260.694 50.0066H263.251C263.167 49.1369 262.633 48.4245 261.501 48.4245C260.967 48.4245 260.558 48.5815 260.285 48.707L260.086 48.1094C260.526 47.8585 261.113 47.7112 261.647 47.7112C262.382 47.7112 263.042 47.963 263.493 48.4342C263.922 48.8852 264.184 49.5556 264.184 50.3839C264.184 51.8615 263.209 53.0146 261.49 53.0146C260.945 53.0146 260.421 52.8785 260.013 52.6687L260.191 52.0089C260.432 52.1133 260.861 52.2808 261.459 52.2808C262.476 52.2808 263.158 51.6412 263.241 50.6347H260.694V50.0066Z" fill="#191919"/>
<path d="M266.784 47.8264V50.0279H267.004L268.912 47.8264H270.033L267.822 50.1218C268.639 50.206 269.132 50.7509 269.529 51.6625C269.666 51.9979 269.844 52.4909 270.075 52.8989H269.111C268.974 52.6788 268.796 52.2811 268.639 51.8617C268.293 51.044 267.822 50.6667 266.962 50.6667H266.784V52.8989H265.872V47.8264H266.784Z" fill="#191919"/>
<path d="M274.97 52.7111C274.729 52.8367 274.195 53.0042 273.513 53.0042C271.983 53.0042 270.987 51.9664 270.987 50.4157C270.987 48.8539 272.055 47.7219 273.712 47.7219C274.257 47.7219 274.739 47.8587 274.99 47.9843L274.781 48.6969C274.561 48.5713 274.215 48.4564 273.712 48.4564C272.549 48.4564 271.92 49.3155 271.92 50.3737C271.92 51.5477 272.674 52.2707 273.681 52.2707C274.205 52.2707 274.551 52.1348 274.812 52.0189L274.97 52.7111Z" fill="#191919"/>
<path d="M280.744 47.8264V52.8989H279.822V48.5599H277.464V52.8989H276.552V47.8264H280.744Z" fill="#191919"/>
<path d="M283.282 50.5312C283.302 51.7782 284.099 52.2916 285.021 52.2916C285.682 52.2916 286.08 52.1766 286.426 52.0293L286.583 52.6898C286.258 52.8365 285.703 53.004 284.895 53.004C283.334 53.004 282.401 51.9765 282.401 50.447C282.401 48.9168 283.302 47.7112 284.78 47.7112C286.436 47.7112 286.876 49.1677 286.876 50.1013C286.876 50.2891 286.856 50.4365 286.845 50.5312H283.282ZM285.985 49.8705C285.996 49.2836 285.745 48.372 284.707 48.372C283.774 48.372 283.365 49.231 283.292 49.8705H285.985Z" fill="#191919"/>
<path d="M288.543 49.4823C288.543 48.8321 288.523 48.3081 288.501 47.8264H289.33L289.371 48.696H289.392C289.77 48.0781 290.367 47.7107 291.195 47.7107C292.421 47.7107 293.344 48.7485 293.344 50.2895C293.344 52.1128 292.233 53.0141 291.037 53.0141C290.367 53.0141 289.78 52.721 289.476 52.2181H289.455V54.9742H288.543V49.4823ZM289.455 50.8344C289.455 50.9705 289.476 51.0967 289.497 51.2117C289.665 51.8505 290.22 52.2909 290.881 52.2909C291.855 52.2909 292.421 51.4952 292.421 50.3315C292.421 49.3145 291.888 48.4442 290.912 48.4442C290.283 48.4442 289.696 48.8952 289.518 49.5874C289.487 49.7024 289.455 49.8385 289.455 49.9641V50.8344Z" fill="#191919"/>
<path d="M298.375 47.8264V48.5599H296.793V52.8989H295.88V48.5599H294.298V47.8264H298.375Z" fill="#191919"/>
<path d="M300.555 47.8264V49.9648C300.555 50.772 300.545 51.2747 300.502 51.9979L300.534 52.0084C300.838 51.3896 301.016 51.0343 301.352 50.4465L302.934 47.8264H304.014V52.8989H303.133V50.7509C303.133 49.9226 303.154 49.4927 303.196 48.6749H303.164C302.84 49.3251 302.62 49.7339 302.327 50.248C301.844 51.0343 301.289 52.0084 300.744 52.8989H299.685V47.8264H300.555Z" fill="#191919"/>
<path d="M306.456 49.9544H306.896C307.672 49.9544 308.196 49.598 308.196 49.1268C308.196 48.6758 307.787 48.3923 307.211 48.3923C306.802 48.3923 306.341 48.5293 305.985 48.7495L305.754 48.1835C306.267 47.8686 306.854 47.7219 307.441 47.7219C308.217 47.7219 309.16 48.0685 309.16 49.0531C309.16 49.6815 308.584 50.0912 308.018 50.2062V50.2271C308.772 50.2895 309.402 50.7511 309.402 51.4952C309.402 52.5964 308.28 53.0045 307.211 53.0045C306.613 53.0045 306.016 52.8472 305.565 52.5964L305.807 51.9769C306.173 52.1761 306.666 52.3235 307.148 52.3235C307.913 52.3235 308.395 51.9567 308.395 51.4529C308.395 50.7722 307.683 50.5835 306.917 50.5835H306.456V49.9544Z" fill="#191919"/>
<path d="M122.656 14.7754H133.945V16.2847H125.301V33.3237H122.656V14.7754Z" fill="#191919"/>
<path d="M140.038 28.446V33.3237H137.306V14.7754H141.946C143.251 14.7754 144.37 14.8855 145.301 15.1059C146.232 15.326 147.015 15.6191 147.646 15.9852C148.279 16.351 148.786 16.7729 149.168 17.2507C149.551 17.7299 149.842 18.2239 150.041 18.7357C150.241 19.2466 150.372 19.7582 150.435 20.2691C150.496 20.7809 150.528 21.2578 150.528 21.6983C150.528 22.1307 150.492 22.5986 150.422 23.1015C150.35 23.6041 150.209 24.1054 149.997 24.6051C149.785 25.1038 149.486 25.583 149.1 26.0446C148.713 26.5068 148.201 26.9165 147.565 27.2736C146.929 27.6315 146.151 27.9165 145.232 28.1279C144.313 28.34 143.218 28.446 141.946 28.446H140.038ZM140.038 15.9973V27.2234H141.572C142.495 27.2234 143.33 27.1199 144.079 26.9117C144.828 26.7045 145.466 26.3717 145.993 25.9142C146.521 25.4568 146.927 24.8722 147.21 24.1612C147.492 23.4513 147.634 22.5881 147.634 21.5736C147.634 20.8004 147.561 20.1243 147.415 19.5461C147.27 18.968 147.064 18.4733 146.798 18.0621C146.532 17.6508 146.214 17.3113 145.844 17.0458C145.474 16.7795 145.066 16.5672 144.621 16.4086C144.177 16.2516 143.7 16.1431 143.193 16.0848C142.686 16.0265 142.162 15.9973 141.621 15.9973H140.038Z" fill="#191919"/>
<path d="M169.168 33.3232H166.286L165.264 30.916H155.123L154.124 33.3232H152.615L159.414 17.158L158.416 14.7749H161.335L169.168 33.3232ZM155.635 29.6934H164.752L160.149 18.9165L155.635 29.6934Z" fill="#191919"/>
<path d="M186.786 33.3234H184.055V22.8454H175.685V33.3234H172.953V14.7754H175.685V21.6237H184.055V14.7754H186.786V33.3234Z" fill="#191919"/>
<path d="M191.269 36.2794V32.0515H192.578C193.028 31.0281 193.411 29.8474 193.726 28.5082C194.042 27.1699 194.301 25.7458 194.5 24.2365C194.7 22.7272 194.846 21.1679 194.943 19.558C195.038 17.95 195.086 16.3549 195.086 14.7754H205.352V32.0515H207.523V36.2794H205.851V33.3234H192.965V36.2794H191.269ZM202.695 32.0515V16.1842H196.458C196.458 17.0497 196.431 17.9647 196.377 18.9282C196.323 19.894 196.246 20.8681 196.146 21.8536C196.047 22.8389 195.928 23.8204 195.79 24.7976C195.653 25.7749 195.5 26.7061 195.33 27.5918C195.159 28.4775 194.976 29.301 194.78 30.062C194.585 30.8224 194.383 31.4855 194.175 32.0515H202.695Z" fill="#191919"/>
<path d="M226.909 14.7754H229.554V28.3967L239.258 17.0207V14.7754H241.902V33.3237H239.258V19.4903L229.554 30.8663V33.3237H226.909V14.7754Z" fill="#191919"/>
<path d="M256.364 14.3889C257.811 14.3889 259.152 14.6237 260.387 15.0933C261.622 15.5638 262.717 16.214 263.674 17.0453L262.975 17.9685C262.593 17.6446 262.168 17.341 261.703 17.0575C261.237 16.7759 260.746 16.5321 260.231 16.3281C259.715 16.1241 259.179 15.9629 258.622 15.8422C258.065 15.7217 257.503 15.6609 256.938 15.6609C255.724 15.6609 254.647 15.8819 253.708 16.3217C252.768 16.7628 251.977 17.366 251.337 18.1305C250.696 18.8955 250.21 19.7903 249.878 20.8128C249.545 21.8356 249.379 22.9335 249.379 24.105C249.379 25.2533 249.543 26.3341 249.871 27.3485C250.2 28.3639 250.682 29.253 251.319 30.0182C251.955 30.7832 252.743 31.3882 253.682 31.8335C254.622 32.278 255.699 32.5007 256.913 32.5007C257.494 32.5007 258.085 32.4424 258.685 32.3265C259.282 32.2099 259.86 32.0391 260.418 31.8149C260.975 31.5906 261.501 31.3161 261.995 30.9914C262.491 30.6666 262.929 30.2966 263.312 29.8805L264.023 30.7922C263.042 31.7233 261.902 32.4504 260.605 32.9742C259.307 33.4982 257.894 33.7605 256.364 33.7605C255.441 33.7605 254.555 33.6455 253.708 33.4171C252.859 33.1888 252.067 32.8626 251.331 32.4382C250.595 32.0141 249.926 31.5087 249.322 30.9225C248.72 30.3363 248.204 29.6854 247.776 28.9705C247.348 28.2556 247.016 27.4878 246.778 26.6694C246.541 25.85 246.423 24.9957 246.423 24.105C246.423 23.2161 246.541 22.3554 246.778 21.5239C247.016 20.6923 247.348 19.9166 247.776 19.1968C248.204 18.4787 248.72 17.8236 249.322 17.2333C249.926 16.6423 250.595 16.1369 251.331 15.7167C252.067 15.2974 252.859 14.9703 253.708 14.7378C254.555 14.5055 255.441 14.3889 256.364 14.3889Z" fill="#191919"/>
<path d="M278.373 14.7754V15.9973H273.883V33.3237H271.152V15.9973H266.623V14.7754H278.373Z" fill="#191919"/>
<path d="M293.271 14.7754V15.9973H284.652V21.6237H293.01V22.8456H284.652V32.101H293.271V33.3237H281.92V14.7754H293.271Z" fill="#191919"/>
<path d="M298.84 28.3964L308.545 17.0205V14.7754H311.189V33.3234H308.545V19.4901L298.84 30.866V33.3234H296.196V14.7754H298.84V28.3964ZM300.911 9.74805C300.911 10.0808 300.964 10.3868 301.073 10.6654C301.181 10.9438 301.35 11.1827 301.578 11.382C301.807 11.5819 302.096 11.7373 302.445 11.85C302.794 11.9624 303.21 12.0184 303.692 12.0184C304.175 12.0184 304.59 11.9624 304.94 11.85C305.29 11.7373 305.578 11.5819 305.807 11.382C306.035 11.1827 306.204 10.9438 306.312 10.6654C306.42 10.3868 306.474 10.0808 306.474 9.74805H308.545C308.545 10.297 308.42 10.7859 308.171 11.2142C307.921 11.6418 307.578 12.0021 307.141 12.2929C306.705 12.5844 306.191 12.8061 305.601 12.9608C305.01 13.1139 304.374 13.1908 303.692 13.1908C302.711 13.1908 301.834 13.037 301.061 12.7292C300.288 12.4224 299.71 11.9723 299.326 11.382C299.003 10.9082 298.84 10.3641 298.84 9.74805H300.911Z" fill="#191919"/>
<path d="M326 14.7754V15.9973H321.51V33.3237H318.779V15.9973H314.25V14.7754H326Z" fill="#191919"/>
<path d="M101.364 88.5057H102.195V0H101.364V88.5057Z" fill="#1C1C1A"/>
<path d="M158.923 74.9194H160.05V71.4217C160.309 71.4864 160.62 71.4994 160.957 71.4994C162.058 71.4994 163.017 71.1756 163.625 70.5408C164.066 70.0872 164.299 69.4655 164.299 68.6753C164.299 67.8979 164.001 67.2633 163.535 66.8486C163.016 66.3822 162.2 66.1233 161.086 66.1233C160.179 66.1233 159.467 66.2009 158.923 66.2915V74.9194ZM160.05 67.1077C160.244 67.0558 160.62 67.017 161.112 67.017C162.343 67.017 163.172 67.5741 163.172 68.74C163.172 69.919 162.343 70.5926 160.983 70.5926C160.607 70.5926 160.296 70.5667 160.05 70.502V67.1077Z" fill="#CC1720"/>
<path d="M169.234 72.1735L170.167 74.9199H171.372L168.392 66.1885H167.045L164.065 74.9199H165.231L166.138 72.1735H169.234ZM166.371 71.2927L167.226 68.7664C167.408 68.2353 167.537 67.6911 167.667 67.1859H167.693C167.822 67.6911 167.952 68.2094 168.146 68.7795L169.014 71.2927H166.371Z" fill="#CC1720"/>
<path d="M172.655 66.1885V74.894C173.031 74.9459 173.627 74.9977 174.417 74.9977C175.609 74.9977 176.788 74.7255 177.5 74.026C177.941 73.5727 178.226 72.9509 178.226 72.1217C178.226 71.1111 177.772 70.4246 177.112 69.997C176.503 69.5956 175.687 69.4141 174.857 69.4141C174.572 69.4141 174.054 69.44 173.782 69.4791V67.1341H177.552V66.1885H172.655ZM173.782 70.3468C174.067 70.3209 174.43 70.295 174.676 70.295C175.298 70.295 175.894 70.4247 176.334 70.7357C176.762 71.0336 177.047 71.4869 177.047 72.1605C177.047 72.7047 176.866 73.1322 176.568 73.443C176.14 73.8965 175.428 74.1166 174.728 74.1166C174.339 74.1166 174.041 74.1038 173.782 74.0519V70.3468Z" fill="#CC1720"/>
<path d="M183.097 66.0327C180.765 66.0327 179.055 67.8466 179.055 70.6189C179.055 73.2615 180.661 75.0623 182.98 75.0623C185.208 75.0623 187.035 73.4559 187.035 70.4633C187.035 67.8594 185.493 66.0327 183.097 66.0327ZM183.058 66.9526C184.936 66.9526 185.843 68.7662 185.843 70.5151C185.843 72.4972 184.832 74.1424 183.045 74.1424C181.257 74.1424 180.247 72.4713 180.247 70.5929C180.247 68.6884 181.179 66.9526 183.058 66.9526Z" fill="#CC1720"/>
<path d="M190.053 74.9199H191.193V67.1472H193.862V66.1885H187.397V67.1472H190.053V74.9199Z" fill="#CC1720"/>
<path d="M198.292 72.1735L199.225 74.9199H200.43L197.45 66.1885H196.103L193.124 74.9199H194.289L195.196 72.1735H198.292ZM195.429 71.2927L196.284 68.7664C196.466 68.2353 196.595 67.6911 196.725 67.1859H196.751C196.88 67.6911 197.01 68.2094 197.204 68.7795L198.072 71.2927H195.429Z" fill="#CC1720"/>
<path d="M206.22 69.8935H202.839V67.1341H206.428V66.1885H201.699V74.9199H206.622V73.9743H202.839V70.8263H206.22V69.8935Z" fill="#CC1720"/>
<path d="M215.652 74.9199H216.766L216.222 66.1885H214.784L213.229 70.4116C212.841 71.5128 212.53 72.4715 212.296 73.3524H212.271C212.037 72.4455 211.752 71.4868 211.39 70.4116L209.9 66.1885H208.462L207.853 74.9199H208.928L209.161 71.1761C209.239 69.8545 209.304 68.4038 209.33 67.3154H209.356C209.602 68.3519 209.939 69.466 210.353 70.7097L211.778 74.8681H212.633L214.175 70.6319C214.615 69.4272 214.965 68.326 215.276 67.3154H215.302C215.302 68.3907 215.38 69.8676 215.444 71.0854L215.652 74.9199Z" fill="#CC1720"/>
<path d="M227.117 73.7413C226.663 73.9614 225.964 74.104 225.264 74.104C223.153 74.104 221.922 72.7436 221.922 70.5933C221.922 68.3002 223.282 66.9918 225.329 66.9918C226.054 66.9918 226.663 67.1474 227.078 67.3546L227.363 66.4347C227.065 66.2793 226.365 66.0461 225.29 66.0461C222.582 66.0461 220.73 67.8857 220.73 70.6321C220.73 73.5081 222.57 75.0627 225.031 75.0627C226.093 75.0627 226.935 74.8554 227.337 74.6482L227.117 73.7413Z" fill="#CC1720"/>
<path d="M260.825 66.1885V74.9199H261.965V67.1341H265.476V66.1885H260.825Z" fill="#CC1720"/>
<path d="M269.518 66.0327C267.186 66.0327 265.476 67.8466 265.476 70.6189C265.476 73.2615 267.082 75.0623 269.401 75.0623C271.63 75.0623 273.456 73.4559 273.456 70.4633C273.456 67.8594 271.915 66.0327 269.518 66.0327ZM269.479 66.9526C271.358 66.9526 272.264 68.7662 272.264 70.5151C272.264 72.4972 271.254 74.1424 269.466 74.1424C267.678 74.1424 266.668 72.4713 266.668 70.5929C266.668 68.6884 267.601 66.9526 269.479 66.9526Z" fill="#CC1720"/>
<path d="M275.736 66.1885V68.4038C275.736 69.9064 275.62 71.0723 275.322 72.0829C275.112 72.7694 274.789 73.4042 274.465 74L273.815 74.026L273.88 77.0186H274.763L274.84 74.9199H280.348L280.426 77.0186H281.307L281.385 74.026L280.62 74V66.1885H275.736ZM276.786 67.1212H279.493V73.9872H275.633C275.879 73.5208 276.164 72.9379 276.345 72.329C276.656 71.3443 276.786 70.1655 276.786 68.7664V67.1212Z" fill="#CC1720"/>
<path d="M287.357 72.1735L288.29 74.9199H289.495L286.515 66.1885H285.168L282.188 74.9199H283.354L284.261 72.1735H287.357ZM284.494 71.2927L285.349 68.7664C285.53 68.2353 285.66 67.6911 285.79 67.1859H285.815C285.945 67.6911 286.074 68.2094 286.269 68.7795L287.137 71.2927H284.494Z" fill="#CC1720"/>
<path d="M236.483 74.9199V73.9743H232.713V73.9484L233.374 73.3264C235.149 71.6165 236.276 70.3599 236.276 68.8052C236.276 67.6005 235.512 66.3569 233.698 66.3569C232.739 66.3569 231.897 66.7324 231.327 67.2119L231.69 68.015C232.078 67.6911 232.713 67.3025 233.478 67.3025C234.734 67.3025 235.136 68.0928 235.136 68.9477C235.136 70.2174 234.151 71.3055 232.001 73.3524L231.107 74.2204V74.9199H236.483Z" fill="#CC1720"/>
<path d="M240.577 66.3569C238.867 66.3569 237.636 67.8984 237.636 70.7357C237.662 73.5208 238.789 75.0625 240.434 75.0625C242.287 75.0625 243.362 73.482 243.362 70.6191C243.362 67.9374 242.339 66.3569 240.577 66.3569ZM240.499 67.2378C241.691 67.2378 242.209 68.5979 242.209 70.6707C242.209 72.8213 241.652 74.1816 240.499 74.1816C239.463 74.1816 238.789 72.9378 238.789 70.7485C238.789 68.4554 239.515 67.2378 240.499 67.2378Z" fill="#CC1720"/>
<path d="M247.223 66.3569C245.512 66.3569 244.282 67.8984 244.282 70.7357C244.308 73.5208 245.435 75.0625 247.08 75.0625C248.932 75.0625 250.008 73.482 250.008 70.6191C250.008 67.9374 248.984 66.3569 247.223 66.3569ZM247.145 67.2378C248.337 67.2378 248.855 68.5979 248.855 70.6707C248.855 72.8213 248.298 74.1816 247.145 74.1816C246.108 74.1816 245.435 72.9378 245.435 70.7485C245.435 68.4554 246.16 67.2378 247.145 67.2378Z" fill="#CC1720"/>
<path d="M251.005 74.4924C251.42 74.7646 252.249 75.0625 253.195 75.0625C255.203 75.0625 256.265 73.8834 256.265 72.5362C256.252 71.3574 255.423 70.58 254.387 70.3859V70.3599C255.41 69.9842 255.941 69.2459 255.941 68.3647C255.941 67.3413 255.19 66.3569 253.531 66.3569C252.625 66.3569 251.77 66.6808 251.316 67.0046L251.627 67.8337C251.99 67.5745 252.638 67.2766 253.311 67.2766C254.361 67.2766 254.788 67.8724 254.788 68.5463C254.788 69.5438 253.739 69.9711 252.91 69.9711H252.275V70.8263H252.91C254.011 70.8263 255.073 71.3314 255.086 72.5102C255.099 73.2229 254.633 74.1426 253.182 74.1426C252.379 74.1426 251.64 73.8187 251.316 73.6245L251.005 74.4924Z" fill="#CC1720"/>
<defs>
<linearGradient id="paint0_linear" x1="16.6917" y1="77.8511" x2="23.6011" y2="0.122988" gradientUnits="userSpaceOnUse">
<stop stop-color="#565655"/>
<stop offset="0.788235" stop-color="#1C1C1A"/>
<stop offset="1" stop-color="#1C1C1A"/>
</linearGradient>
<linearGradient id="paint1_linear" x1="49.9217" y1="43.7237" x2="53.6114" y2="48.8524" gradientUnits="userSpaceOnUse">
<stop stop-color="#BD1621"/>
<stop offset="0.141176" stop-color="#BD1621"/>
<stop offset="1" stop-color="#EA0522"/>
</linearGradient>
<linearGradient id="paint2_linear" x1="72.6853" y1="61.2907" x2="46.4604" y2="55.0137" gradientUnits="userSpaceOnUse">
<stop stop-color="#565655"/>
<stop offset="0.870588" stop-color="#1C1C1A"/>
<stop offset="1" stop-color="#1C1C1A"/>
</linearGradient>
<linearGradient id="paint3_linear" x1="30.7695" y1="80.305" x2="25.9219" y2="47.6106" gradientUnits="userSpaceOnUse">
<stop stop-color="#565655"/>
<stop offset="0.160784" stop-color="#565655"/>
<stop offset="0.780392" stop-color="#1C1C1A"/>
<stop offset="1" stop-color="#1C1C1A"/>
</linearGradient>
<linearGradient id="paint4_linear" x1="29.9882" y1="35.3363" x2="42.4183" y2="41.2558" gradientUnits="userSpaceOnUse">
<stop stop-color="#BD1621"/>
<stop offset="1" stop-color="#EA0522"/>
</linearGradient>
</defs>
</svg>
