<svg width="218" height="48" viewBox="0 0 218 48" fill="none" xmlns="http://www.w3.org/2000/svg">
<path d="M204.824 19.1314H209.307V13.92H213.449V19.1314H217.931V6.10286H213.449V10.6971H209.307V6.10286H204.824V19.1314ZM177.455 9.80571C178.406 9.18857 179.697 8.70857 180.783 8.70857C181.326 8.70857 182.617 8.77714 182.617 9.87429C182.617 10.9714 181.53 10.9714 181.123 10.9714H178.882V13.7829H180.851C181.462 13.7829 182.685 13.8514 182.685 14.88C182.685 15.2914 182.413 16.1143 180.851 16.1143C179.289 16.1143 178.27 15.7029 176.98 14.88L175.825 17.9657C178.27 19.4057 180.511 19.5429 181.598 19.5429C186.759 19.5429 187.371 16.5257 187.371 15.5657C187.371 14.1943 186.556 12.8229 184.79 12.3429C185.945 11.8629 186.624 10.6971 186.624 9.32572C186.624 6.30857 183.432 5.69143 181.53 5.69143C179.697 5.69143 177.659 6.24 176.301 6.99429L177.455 9.80571ZM167.744 4.45714C169.781 4.45714 171.887 3.63429 172.837 1.44L169.917 0.342857C169.578 1.85143 168.287 1.92 167.744 1.92C167.201 1.92 165.978 1.85143 165.639 0.342857L162.718 1.44C163.533 3.63429 165.706 4.45714 167.744 4.45714ZM160.681 6.10286V19.0629H165.095L169.578 11.9314V19.0629H174.06V6.10286H169.713L165.231 13.0286V6.10286H160.681ZM130.731 16.32V9.12C129.237 9.12 127.675 10.2171 127.675 12.7543C127.675 15.1543 129.237 16.32 130.731 16.32ZM134.738 9.12V16.32C136.232 16.32 137.794 15.2229 137.794 12.7543C137.794 10.2171 136.232 9.12 134.738 9.12ZM130.46 24.7543V19.3371C127.743 19.3371 123.329 18.24 123.329 12.6171C123.329 7.06286 127.743 5.89714 130.46 5.96571V0.274286H134.942V5.89714C137.659 5.89714 142.073 6.99429 142.073 12.5486C142.073 18.1714 137.659 19.2686 134.942 19.2686V24.6857H130.46V24.7543ZM110.493 16.32V9.12C108.999 9.12 107.437 10.2171 107.437 12.7543C107.369 15.1543 108.931 16.32 110.493 16.32ZM114.432 9.12V16.32C115.926 16.32 117.488 15.2229 117.488 12.7543C117.488 10.2171 115.926 9.12 114.432 9.12ZM110.154 24.7543V19.3371C107.437 19.3371 103.023 18.24 103.023 12.6171C103.023 7.06286 107.437 5.89714 110.154 5.96571V0.274286H114.636V5.89714C117.353 5.89714 121.767 6.99429 121.767 12.5486C121.767 18.1714 117.353 19.2686 114.636 19.2686V24.6857H110.154V24.7543ZM94.6018 4.45714C96.6392 4.45714 98.7445 3.63429 99.6953 1.44L96.775 0.342857C96.4355 1.85143 95.1451 1.92 94.6018 1.92C94.0585 1.92 92.8361 1.85143 92.4286 0.342857L89.5084 1.44C90.4591 3.63429 92.5644 4.45714 94.6018 4.45714ZM87.5389 6.10286V19.0629H91.8853L96.3676 11.9314V19.0629H100.85V6.10286H96.5034L92.0211 13.0286V6.10286H87.5389ZM60.0342 4.11429V8.43429H61.6641C63.9053 8.43429 64.109 7.06286 64.109 6.24C64.109 5.34857 63.8373 4.11429 61.6641 4.11429H60.238H60.0342ZM55.1445 19.1314V0H62.7507C67.9121 0 69.3383 3.70286 69.3383 6.30857C69.3383 8.91429 67.8442 12.6171 62.7507 12.6171H59.9663V19.1314H55.1445ZM157.897 6.10286V19.0629H153.414V17.6229H153.346C152.531 18.9257 150.969 19.4743 149.543 19.4743C145.808 19.4743 143.159 16.2514 143.159 12.5486C143.159 8.84571 145.74 5.62286 149.543 5.62286C150.969 5.62286 152.531 6.17143 153.482 7.33714V6.10286H157.897ZM150.63 9.66857C148.796 9.66857 147.71 11.04 147.71 12.6171C147.71 14.2629 148.796 15.4971 150.63 15.4971C152.464 15.4971 153.55 14.1943 153.55 12.6171C153.55 11.04 152.464 9.66857 150.63 9.66857ZM84.7545 6.10286V19.0629H80.2722V17.6229H80.2043C79.3894 18.9257 77.8274 19.4743 76.4012 19.4743C72.666 19.4743 70.0174 16.2514 70.0174 12.5486C70.0174 8.84571 72.5981 5.62286 76.4012 5.62286C77.8274 5.62286 79.3894 6.17143 80.3401 7.33714V6.10286H84.7545ZM77.4878 9.66857C75.6542 9.66857 74.5676 11.04 74.5676 12.6171C74.5676 14.2629 75.6542 15.4971 77.4878 15.4971C79.3214 15.4971 80.4081 14.1943 80.4081 12.6171C80.4081 11.04 79.3214 9.66857 77.4878 9.66857ZM202.583 13.1657V13.6457H193.143C193.143 15.4971 194.094 16.5257 195.928 16.5257C196.878 16.5257 197.558 16.1829 198.101 15.36H202.447C201.7 18.4457 198.916 19.8171 195.996 19.8171C191.785 19.8171 188.661 17.4171 188.661 12.8914C188.661 8.57143 191.581 5.96571 195.656 5.96571C200.07 5.96571 202.583 8.70857 202.583 13.1657ZM193.211 10.9714H198.44C198.237 9.73714 197.082 8.91429 195.86 8.91429C194.569 8.91429 193.483 9.66857 193.211 10.9714ZM62.3433 39.84H60.985L60.3059 43.8857H61.5962C64.5844 43.8857 65.1277 43.0629 65.3314 41.9657C65.5352 40.7314 65.2635 39.84 62.3433 39.84ZM70.4928 41.9657C70.2891 43.2686 69.8816 44.5714 68.9308 45.4629C66.8934 47.52 63.8373 47.6571 61.9358 47.7257H54.3975L57.5894 28.6629H70.4928L69.8816 32.4343H62.0716L61.4604 36.2743H63.7015C65.3993 36.2743 67.5046 36.48 68.9987 37.7829C70.2211 38.7429 70.8324 40.1829 70.4928 41.9657ZM84.0753 44.4343H76.9445L75.0429 47.7257H69.542L80.3401 28.6629H85.9769L90.3233 47.7257H84.8224L84.0753 44.4343ZM83.3283 40.5943L82.2417 34.4914H82.1738L79.0498 40.5943H83.3283ZM119.186 28.6629H113.957L110.833 47.7257H115.994L117.353 39.4286H117.421L122.718 47.7257H129.441L122.446 37.7143L131.818 28.6629H125.434L117.896 36.5486H117.828L119.186 28.6629ZM99.2199 28.6629L98.0654 35.7943H104.925L106.079 28.6629H111.105L108.049 47.7257H103.023L104.313 39.4971H97.4542L96.1638 47.7257H91.1383L94.1943 28.6629H99.2199Z" fill="black"/>
<path d="M45.7048 1.57715H1.56152V46.1486H45.7048V1.57715Z" fill="#FAEB00"/>
<path d="M1.56199 1.57714H45.7053V46.1486H1.56199V1.57714ZM0 47.7257H47.2673V0H0V47.7257Z" fill="black"/>
<path d="M23.6329 29.2797L10.0504 42.994L4.68528 37.5769L18.2678 23.8626L15.4155 20.9826V15.3597L13.446 13.3712V18.3083L11.7482 20.0226L4.82111 13.0969L3.12329 14.8112C3.12329 13.5083 3.39494 9.73688 6.51893 6.65117C9.91457 3.35974 13.5819 4.86831 14.8722 6.1026L21.7993 13.0283L20.0336 14.8112L23.6329 18.4455L27.2323 14.8112L25.4666 13.0283L32.3937 6.03403C33.684 4.79974 37.3513 3.29117 40.747 6.5826C43.871 9.73688 44.1426 13.4397 44.1426 14.7426L42.4448 13.0283L35.5177 20.0226L33.8199 18.3083V13.3712L31.8504 15.3597V20.9826L28.9981 23.8626L42.5806 37.5769L37.2155 42.994L23.6329 29.2797Z" fill="black"/>
</svg>
