<svg width="367" height="320" viewBox="0 0 367 320" fill="none" xmlns="http://www.w3.org/2000/svg">
<g opacity="0.34">
<path d="M111.665 281.258C111.665 332.66 156.413 364.504 178.787 374C34.781 326.113 51.7708 228.046 88.478 178.211C125.09 128.506 217.229 99.41 184.889 67.2836C152.548 35.1572 32.4957 97.1873 26.2383 192.759C21.3568 267.316 55.5276 317.627 70.1722 332.175C46.7815 318.435 0 271.317 0 192.759C0 94.5608 68.9518 0 178.787 0C288.621 0 292.283 89.1053 254.451 128.506C216.619 167.906 111.665 217.005 111.665 281.258Z" fill="#F7F7F7"/>
<path d="M150.108 287.925C150.108 335.812 189.77 361.271 228.212 361.271C278.858 363.493 377.343 323.689 366.116 146.69C330.725 318.84 230.043 326.113 214.178 304.898C198.939 284.519 207.466 268.528 273.977 215.793C340.488 163.057 347.81 93.3485 298.995 39.4003C335.606 128.506 271.536 170.331 228.212 195.789C184.889 221.248 150.108 240.039 150.108 287.925Z" fill="#F7F7F7"/>
</g>
</svg>
