<svg width="161" height="162" viewBox="0 0 161 162" fill="none" xmlns="http://www.w3.org/2000/svg">
<path d="M11.592 156.191C11.592 152.983 8.99704 150.382 5.796 150.382C2.59496 150.382 0 152.983 0 156.191C0 159.399 2.59496 162 5.796 162C8.99704 162 11.592 159.399 11.592 156.191Z" fill="#E0E0E0"/>
<path d="M11.592 118.757C11.592 115.549 8.99704 112.948 5.796 112.948C2.59496 112.948 0 115.549 0 118.757C0 121.965 2.59496 124.566 5.796 124.566C8.99704 124.566 11.592 121.965 11.592 118.757Z" fill="#E0E0E0"/>
<path d="M11.592 81.3227C11.592 78.1146 8.99704 75.5139 5.796 75.5139C2.59496 75.5139 0 78.1146 0 81.3227C0 84.5308 2.59496 87.1315 5.796 87.1315C8.99704 87.1315 11.592 84.5308 11.592 81.3227Z" fill="#E0E0E0"/>
<path d="M11.592 43.243C11.592 40.0349 8.99704 37.4343 5.796 37.4343C2.59496 37.4343 0 40.0349 0 43.243C0 46.4511 2.59496 49.0518 5.796 49.0518C8.99704 49.0518 11.592 46.4511 11.592 43.243Z" fill="#E0E0E0"/>
<path d="M48.944 156.191C48.944 152.983 46.349 150.382 43.148 150.382C39.947 150.382 37.352 152.983 37.352 156.191C37.352 159.399 39.947 162 43.148 162C46.349 162 48.944 159.399 48.944 156.191Z" fill="#E0E0E0"/>
<path d="M48.944 81.3227C48.944 78.1146 46.349 75.5139 43.148 75.5139C39.947 75.5139 37.352 78.1146 37.352 81.3227C37.352 84.5308 39.947 87.1315 43.148 87.1315C46.349 87.1315 48.944 84.5308 48.944 81.3227Z" fill="#E0E0E0"/>
<path d="M48.944 42.8088C48.944 39.6007 46.349 37 43.148 37C39.947 37 37.352 39.6007 37.352 42.8088C37.352 46.0169 39.947 48.6175 43.148 48.6175C46.349 48.6175 48.944 46.0169 48.944 42.8088Z" fill="#E0E0E0"/>
<path d="M86.296 156.191C86.296 152.983 83.701 150.382 80.5 150.382C77.299 150.382 74.704 152.983 74.704 156.191C74.704 159.399 77.299 162 80.5 162C83.701 162 86.296 159.399 86.296 156.191Z" fill="#E0E0E0"/>
<path d="M86.296 118.757C86.296 115.549 83.701 112.948 80.5 112.948C77.299 112.948 74.704 115.549 74.704 118.757C74.704 121.965 77.299 124.566 80.5 124.566C83.701 124.566 86.296 121.965 86.296 118.757Z" fill="#E0E0E0"/>
<path d="M86.296 81.3227C86.296 78.1146 83.701 75.5139 80.5 75.5139C77.299 75.5139 74.704 78.1146 74.704 81.3227C74.704 84.5308 77.299 87.1315 80.5 87.1315C83.701 87.1315 86.296 84.5308 86.296 81.3227Z" fill="#E0E0E0"/>
<path d="M86.296 43.243C86.296 40.0349 83.701 37.4343 80.5 37.4343C77.299 37.4343 74.704 40.0349 74.704 43.243C74.704 46.4511 77.299 49.0518 80.5 49.0518C83.701 49.0518 86.296 46.4511 86.296 43.243Z" fill="#E0E0E0"/>
<path d="M86.296 5.80876C86.296 2.60066 83.701 0 80.5 0C77.299 0 74.704 2.60066 74.704 5.80876C74.704 9.01686 77.299 11.6175 80.5 11.6175C83.701 11.6175 86.296 9.01686 86.296 5.80876Z" fill="#E0E0E0"/>
<path d="M123.648 156.191C123.648 152.983 121.053 150.382 117.852 150.382C114.651 150.382 112.056 152.983 112.056 156.191C112.056 159.399 114.651 162 117.852 162C121.053 162 123.648 159.399 123.648 156.191Z" fill="#E0E0E0"/>
<path d="M123.648 118.757C123.648 115.549 121.053 112.948 117.852 112.948C114.651 112.948 112.056 115.549 112.056 118.757C112.056 121.965 114.651 124.566 117.852 124.566C121.053 124.566 123.648 121.965 123.648 118.757Z" fill="#E0E0E0"/>
<path d="M123.648 81.3227C123.648 78.1146 121.053 75.5139 117.852 75.5139C114.651 75.5139 112.056 78.1146 112.056 81.3227C112.056 84.5308 114.651 87.1315 117.852 87.1315C121.053 87.1315 123.648 84.5308 123.648 81.3227Z" fill="#E0E0E0"/>
<path d="M123.648 43.243C123.648 40.0349 121.053 37.4343 117.852 37.4343C114.651 37.4343 112.056 40.0349 112.056 43.243C112.056 46.4511 114.651 49.0518 117.852 49.0518C121.053 49.0518 123.648 46.4511 123.648 43.243Z" fill="#E0E0E0"/>
<path d="M123.648 5.80876C123.648 2.60066 121.053 0 117.852 0C114.651 0 112.056 2.60066 112.056 5.80876C112.056 9.01686 114.651 11.6175 117.852 11.6175C121.053 11.6175 123.648 9.01686 123.648 5.80876Z" fill="#E0E0E0"/>
<path d="M161 118.757C161 115.549 158.405 112.948 155.204 112.948C152.003 112.948 149.408 115.549 149.408 118.757C149.408 121.965 152.003 124.566 155.204 124.566C158.405 124.566 161 121.965 161 118.757Z" fill="#E0E0E0"/>
<path d="M161 81.3227C161 78.1146 158.405 75.5139 155.204 75.5139C152.003 75.5139 149.408 78.1146 149.408 81.3227C149.408 84.5308 152.003 87.1315 155.204 87.1315C158.405 87.1315 161 84.5308 161 81.3227Z" fill="#E0E0E0"/>
<path d="M49.592 118.808C49.592 115.6 46.997 113 43.796 113C40.595 113 38 115.6 38 118.808C38 122.017 40.595 124.617 43.796 124.617C46.997 124.617 49.592 122.017 49.592 118.808Z" fill="#E41F25"/>
</svg>
