<svg width="161" height="162" viewBox="0 0 161 162" fill="none" xmlns="http://www.w3.org/2000/svg">
<path d="M149.408 156.191C149.408 152.983 152.003 150.382 155.204 150.382C158.405 150.382 161 152.983 161 156.191C161 159.399 158.405 162 155.204 162C152.003 162 149.408 159.399 149.408 156.191Z" fill="#E0E0E0"/>
<path d="M149.408 118.757C149.408 115.549 152.003 112.948 155.204 112.948C158.405 112.948 161 115.549 161 118.757C161 121.965 158.405 124.566 155.204 124.566C152.003 124.566 149.408 121.965 149.408 118.757Z" fill="#E0E0E0"/>
<path d="M149.408 81.3227C149.408 78.1146 152.003 75.5139 155.204 75.5139C158.405 75.5139 161 78.1146 161 81.3227C161 84.5308 158.405 87.1315 155.204 87.1315C152.003 87.1315 149.408 84.5308 149.408 81.3227Z" fill="#E0E0E0"/>
<path d="M149.408 43.243C149.408 40.0349 152.003 37.4343 155.204 37.4343C158.405 37.4343 161 40.0349 161 43.243C161 46.4511 158.405 49.0518 155.204 49.0518C152.003 49.0518 149.408 46.4511 149.408 43.243Z" fill="#E0E0E0"/>
<path d="M112.056 156.191C112.056 152.983 114.651 150.382 117.852 150.382C121.053 150.382 123.648 152.983 123.648 156.191C123.648 159.399 121.053 162 117.852 162C114.651 162 112.056 159.399 112.056 156.191Z" fill="#E0E0E0"/>
<path d="M112.056 81.3227C112.056 78.1146 114.651 75.5139 117.852 75.5139C121.053 75.5139 123.648 78.1146 123.648 81.3227C123.648 84.5308 121.053 87.1315 117.852 87.1315C114.651 87.1315 112.056 84.5308 112.056 81.3227Z" fill="#E0E0E0"/>
<path d="M112.056 5.80876C112.056 2.60066 114.651 0 117.852 0C121.053 0 123.648 2.60066 123.648 5.80876C123.648 9.01686 121.053 11.6175 117.852 11.6175C114.651 11.6175 112.056 9.01686 112.056 5.80876Z" fill="#E0E0E0"/>
<path d="M74.704 156.191C74.704 152.983 77.299 150.382 80.5 150.382C83.701 150.382 86.296 152.983 86.296 156.191C86.296 159.399 83.701 162 80.5 162C77.299 162 74.704 159.399 74.704 156.191Z" fill="#E0E0E0"/>
<path d="M74.704 118.757C74.704 115.549 77.299 112.948 80.5 112.948C83.701 112.948 86.296 115.549 86.296 118.757C86.296 121.965 83.701 124.566 80.5 124.566C77.299 124.566 74.704 121.965 74.704 118.757Z" fill="#E0E0E0"/>
<path d="M74.704 81.3227C74.704 78.1146 77.299 75.5139 80.5 75.5139C83.701 75.5139 86.296 78.1146 86.296 81.3227C86.296 84.5308 83.701 87.1315 80.5 87.1315C77.299 87.1315 74.704 84.5308 74.704 81.3227Z" fill="#E0E0E0"/>
<path d="M74.704 43.243C74.704 40.0349 77.299 37.4343 80.5 37.4343C83.701 37.4343 86.296 40.0349 86.296 43.243C86.296 46.4511 83.701 49.0518 80.5 49.0518C77.299 49.0518 74.704 46.4511 74.704 43.243Z" fill="#E0E0E0"/>
<path d="M74.704 5.80876C74.704 2.60066 77.299 0 80.5 0C83.701 0 86.296 2.60066 86.296 5.80876C86.296 9.01686 83.701 11.6175 80.5 11.6175C77.299 11.6175 74.704 9.01686 74.704 5.80876Z" fill="#E0E0E0"/>
<path d="M37.352 156.191C37.352 152.983 39.947 150.382 43.148 150.382C46.349 150.382 48.944 152.983 48.944 156.191C48.944 159.399 46.349 162 43.148 162C39.947 162 37.352 159.399 37.352 156.191Z" fill="#E0E0E0"/>
<path d="M37.352 118.757C37.352 115.549 39.947 112.948 43.148 112.948C46.349 112.948 48.944 115.549 48.944 118.757C48.944 121.965 46.349 124.566 43.148 124.566C39.947 124.566 37.352 121.965 37.352 118.757Z" fill="#E0E0E0"/>
<path d="M37.352 81.3227C37.352 78.1146 39.947 75.5139 43.148 75.5139C46.349 75.5139 48.944 78.1146 48.944 81.3227C48.944 84.5308 46.349 87.1315 43.148 87.1315C39.947 87.1315 37.352 84.5308 37.352 81.3227Z" fill="#E0E0E0"/>
<path d="M37.352 43.243C37.352 40.0349 39.947 37.4343 43.148 37.4343C46.349 37.4343 48.944 40.0349 48.944 43.243C48.944 46.4511 46.349 49.0518 43.148 49.0518C39.947 49.0518 37.352 46.4511 37.352 43.243Z" fill="#E0E0E0"/>
<path d="M37.352 5.80876C37.352 2.60066 39.947 0 43.148 0C46.349 0 48.944 2.60066 48.944 5.80876C48.944 9.01686 46.349 11.6175 43.148 11.6175C39.947 11.6175 37.352 9.01686 37.352 5.80876Z" fill="#E0E0E0"/>
<path d="M0 118.757C0 115.549 2.59496 112.948 5.79601 112.948C8.99706 112.948 11.592 115.549 11.592 118.757C11.592 121.965 8.99706 124.566 5.79601 124.566C2.59496 124.566 0 121.965 0 118.757Z" fill="#E0E0E0"/>
<path d="M0 81.3227C0 78.1146 2.59496 75.5139 5.79601 75.5139C8.99706 75.5139 11.592 78.1146 11.592 81.3227C11.592 84.5308 8.99706 87.1315 5.79601 87.1315C2.59496 87.1315 0 84.5308 0 81.3227Z" fill="#E0E0E0"/>
<path d="M0 43.243C0 40.0349 2.59496 37.4343 5.79601 37.4343C8.99706 37.4343 11.592 40.0349 11.592 43.243C11.592 46.4511 8.99706 49.0518 5.79601 49.0518C2.59496 49.0518 0 46.4511 0 43.243Z" fill="#E0E0E0"/>
<path d="M0 5.80876C0 2.60066 2.59496 0 5.79601 0C8.99706 0 11.592 2.60066 11.592 5.80876C11.592 9.01686 8.99706 11.6175 5.79601 11.6175C2.59496 11.6175 0 9.01686 0 5.80876Z" fill="#E0E0E0"/>
<path d="M111.408 42.8084C111.408 39.6003 114.003 36.9997 117.204 36.9997C120.405 36.9997 123 39.6003 123 42.8084C123 46.0165 120.405 48.6172 117.204 48.6172C114.003 48.6172 111.408 46.0165 111.408 42.8084Z" fill="#E41F25"/>
</svg>
