<svg width="161" height="162" viewBox="0 0 161 162" fill="none" xmlns="http://www.w3.org/2000/svg">
<path d="M149.408 5.80876C149.408 9.01686 152.003 11.6175 155.204 11.6175C158.405 11.6175 161 9.01686 161 5.80876C161 2.60067 158.405 0 155.204 0C152.003 0 149.408 2.60067 149.408 5.80876Z" fill="#E0E0E0"/>
<path d="M149.408 43.243C149.408 46.4511 152.003 49.0518 155.204 49.0518C158.405 49.0518 161 46.4511 161 43.243C161 40.0349 158.405 37.4343 155.204 37.4343C152.003 37.4343 149.408 40.0349 149.408 43.243Z" fill="#E0E0E0"/>
<path d="M149.408 80.6773C149.408 83.8854 152.003 86.4861 155.204 86.4861C158.405 86.4861 161 83.8854 161 80.6773C161 77.4692 158.405 74.8685 155.204 74.8685C152.003 74.8685 149.408 77.4692 149.408 80.6773Z" fill="#E0E0E0"/>
<path d="M149.408 118.757C149.408 121.965 152.003 124.566 155.204 124.566C158.405 124.566 161 121.965 161 118.757C161 115.549 158.405 112.948 155.204 112.948C152.003 112.948 149.408 115.549 149.408 118.757Z" fill="#E0E0E0"/>
<path d="M149.408 156.191C149.408 159.399 152.003 162 155.204 162C158.405 162 161 159.399 161 156.191C161 152.983 158.405 150.382 155.204 150.382C152.003 150.382 149.408 152.983 149.408 156.191Z" fill="#E0E0E0"/>
<path d="M112.056 5.80876C112.056 9.01686 114.651 11.6175 117.852 11.6175C121.053 11.6175 123.648 9.01686 123.648 5.80876C123.648 2.60067 121.053 0 117.852 0C114.651 0 112.056 2.60067 112.056 5.80876Z" fill="#E0E0E0"/>
<path d="M112.056 80.6773C112.056 83.8854 114.651 86.4861 117.852 86.4861C121.053 86.4861 123.648 83.8854 123.648 80.6773C123.648 77.4692 121.053 74.8685 117.852 74.8685C114.651 74.8685 112.056 77.4692 112.056 80.6773Z" fill="#E0E0E0"/>
<path d="M112.056 156.191C112.056 159.399 114.651 162 117.852 162C121.053 162 123.648 159.399 123.648 156.191C123.648 152.983 121.053 150.382 117.852 150.382C114.651 150.382 112.056 152.983 112.056 156.191Z" fill="#E0E0E0"/>
<path d="M74.704 5.80876C74.704 9.01686 77.299 11.6175 80.5 11.6175C83.701 11.6175 86.296 9.01686 86.296 5.80876C86.296 2.60067 83.701 0 80.5 0C77.299 0 74.704 2.60067 74.704 5.80876Z" fill="#E0E0E0"/>
<path d="M74.704 43.243C74.704 46.4511 77.299 49.0518 80.5 49.0518C83.701 49.0518 86.296 46.4511 86.296 43.243C86.296 40.0349 83.701 37.4343 80.5 37.4343C77.299 37.4343 74.704 40.0349 74.704 43.243Z" fill="#E0E0E0"/>
<path d="M74.704 80.6773C74.704 83.8854 77.299 86.4861 80.5 86.4861C83.701 86.4861 86.296 83.8854 86.296 80.6773C86.296 77.4692 83.701 74.8685 80.5 74.8685C77.299 74.8685 74.704 77.4692 74.704 80.6773Z" fill="#E0E0E0"/>
<path d="M74.704 118.757C74.704 121.965 77.299 124.566 80.5 124.566C83.701 124.566 86.296 121.965 86.296 118.757C86.296 115.549 83.701 112.948 80.5 112.948C77.299 112.948 74.704 115.549 74.704 118.757Z" fill="#E0E0E0"/>
<path d="M74.704 156.191C74.704 159.399 77.299 162 80.5 162C83.701 162 86.296 159.399 86.296 156.191C86.296 152.983 83.701 150.382 80.5 150.382C77.299 150.382 74.704 152.983 74.704 156.191Z" fill="#E0E0E0"/>
<path d="M37.352 5.80876C37.352 9.01686 39.947 11.6175 43.148 11.6175C46.349 11.6175 48.944 9.01686 48.944 5.80876C48.944 2.60067 46.349 0 43.148 0C39.947 0 37.352 2.60067 37.352 5.80876Z" fill="#E0E0E0"/>
<path d="M37.352 43.243C37.352 46.4511 39.947 49.0518 43.148 49.0518C46.349 49.0518 48.944 46.4511 48.944 43.243C48.944 40.0349 46.349 37.4343 43.148 37.4343C39.947 37.4343 37.352 40.0349 37.352 43.243Z" fill="#E0E0E0"/>
<path d="M37.352 80.6773C37.352 83.8854 39.947 86.4861 43.148 86.4861C46.349 86.4861 48.944 83.8854 48.944 80.6773C48.944 77.4692 46.349 74.8685 43.148 74.8685C39.947 74.8685 37.352 77.4692 37.352 80.6773Z" fill="#E0E0E0"/>
<path d="M37.352 118.757C37.352 121.965 39.947 124.566 43.148 124.566C46.349 124.566 48.944 121.965 48.944 118.757C48.944 115.549 46.349 112.948 43.148 112.948C39.947 112.948 37.352 115.549 37.352 118.757Z" fill="#E0E0E0"/>
<path d="M37.352 156.191C37.352 159.399 39.947 162 43.148 162C46.349 162 48.944 159.399 48.944 156.191C48.944 152.983 46.349 150.382 43.148 150.382C39.947 150.382 37.352 152.983 37.352 156.191Z" fill="#E0E0E0"/>
<path d="M0 43.243C0 46.4511 2.59496 49.0518 5.79601 49.0518C8.99706 49.0518 11.592 46.4511 11.592 43.243C11.592 40.0349 8.99706 37.4343 5.79601 37.4343C2.59496 37.4343 0 40.0349 0 43.243Z" fill="#E0E0E0"/>
<path d="M0 80.6773C0 83.8854 2.59496 86.4861 5.79601 86.4861C8.99706 86.4861 11.592 83.8854 11.592 80.6773C11.592 77.4692 8.99706 74.8685 5.79601 74.8685C2.59496 74.8685 0 77.4692 0 80.6773Z" fill="#E0E0E0"/>
<path d="M0 118.757C0 121.965 2.59496 124.566 5.79601 124.566C8.99706 124.566 11.592 121.965 11.592 118.757C11.592 115.549 8.99706 112.948 5.79601 112.948C2.59496 112.948 0 115.549 0 118.757Z" fill="#E0E0E0"/>
<path d="M0 156.191C0 159.399 2.59496 162 5.79601 162C8.99706 162 11.592 159.399 11.592 156.191C11.592 152.983 8.99706 150.382 5.79601 150.382C2.59496 150.382 0 152.983 0 156.191Z" fill="#E0E0E0"/>
<path d="M111.408 119.192C111.408 122.4 114.003 125 117.204 125C120.405 125 123 122.4 123 119.192C123 115.983 120.405 113.383 117.204 113.383C114.003 113.383 111.408 115.983 111.408 119.192Z" fill="#E41F25"/>
</svg>
