<svg width="43" height="61" viewBox="0 0 43 61" fill="none" xmlns="http://www.w3.org/2000/svg">
<path d="M0 0L17 17H26L9 0H0Z" fill="url(#paint0_linear_80:2921)"/>
<path d="M42 40C42 51.598 32.598 61 21 61C9.40202 61 0 51.598 0 40C0 30.6707 6.08353 22.7623 14.5 20.0253C14.9923 19.8652 15.4925 19.7228 16 19.5989C17.6024 19.2075 19.277 19 21 19C22.723 19 24.3976 19.2075 26 19.5989C26.5075 19.7228 27.0077 19.8652 27.5 20.0253C35.9165 22.7623 42 30.6707 42 40Z" fill="#E41F25"/>
<path d="M16.5 15C15.3954 15 14.5 15.8954 14.5 17V20.0253C14.9923 19.8652 15.4925 19.7228 16 19.5989V17.5C16 16.9477 16.4477 16.5 17 16.5H25C25.5523 16.5 26 16.9477 26 17.5V19.5989C26.5075 19.7228 27.0077 19.8652 27.5 20.0253V17C27.5 15.8954 26.6046 15 25.5 15H16.5Z" fill="#E41F25"/>
<circle cx="21" cy="40" r="17" fill="#FBFBFB"/>
<g filter="url(#filter0_d_80:2921)">
<path d="M23.26 34V47.48H19.28V39.22H16V36.38C17.1867 36.38 18.0667 36.1933 18.64 35.82C19.2133 35.4467 19.5667 34.84 19.7 34H23.26Z" fill="#E41F25"/>
</g>
<path d="M43 0L26 17H17L34 0H43Z" fill="url(#paint1_linear_80:2921)"/>
<defs>
<filter id="filter0_d_80:2921" x="15" y="34" width="9.25977" height="15.4805" filterUnits="userSpaceOnUse" color-interpolation-filters="sRGB">
<feFlood flood-opacity="0" result="BackgroundImageFix"/>
<feColorMatrix in="SourceAlpha" type="matrix" values="0 0 0 0 0 0 0 0 0 0 0 0 0 0 0 0 0 0 127 0" result="hardAlpha"/>
<feOffset dy="1"/>
<feGaussianBlur stdDeviation="0.5"/>
<feComposite in2="hardAlpha" operator="out"/>
<feColorMatrix type="matrix" values="0 0 0 0 0 0 0 0 0 0 0 0 0 0 0 0 0 0 0.25 0"/>
<feBlend mode="normal" in2="BackgroundImageFix" result="effect1_dropShadow_80:2921"/>
<feBlend mode="normal" in="SourceGraphic" in2="effect1_dropShadow_80:2921" result="shape"/>
</filter>
<linearGradient id="paint0_linear_80:2921" x1="9.0339" y1="5.11441" x2="14.7573" y2="14.4579" gradientUnits="userSpaceOnUse">
<stop stop-color="#F3F3F3"/>
<stop offset="1" stop-color="#D5D5D5"/>
</linearGradient>
<linearGradient id="paint1_linear_80:2921" x1="33.9661" y1="5.11441" x2="28.2427" y2="14.4579" gradientUnits="userSpaceOnUse">
<stop stop-color="#D3D3D3"/>
<stop offset="1" stop-color="#E9E9E9"/>
</linearGradient>
</defs>
</svg>
