<svg width="67" height="61" viewBox="0 0 67 61" fill="none" xmlns="http://www.w3.org/2000/svg">
<path d="M41.8351 60.9996H3.4734C1.55513 60.9996 0 59.4445 0 57.5262V3.4734C0 1.55513 1.55501 0 3.4734 0H41.8351C43.7534 0 45.3085 1.55513 45.3085 3.4734V57.5262C45.3085 59.4445 43.7535 60.9996 41.8351 60.9996Z" fill="#EEEEEE"/>
<path d="M31.4078 49.2802H13.9596C11.2642 49.2802 9.23481 46.8268 9.74215 44.1811L10.4275 40.6016C10.6244 39.5747 11.023 38.6173 11.5885 37.7764C12.4819 36.4362 13.7927 35.389 15.3587 34.8205L22.7335 32.1465L30.0514 34.8C31.6253 35.3716 32.9407 36.4267 33.8356 37.7779V37.7795C34.409 38.641 34.8092 39.6205 34.9982 40.6724L35.6348 44.2314C36.1058 46.8631 34.083 49.2802 31.4078 49.2802Z" fill="#E41F25"/>
<path d="M26.7681 33.6205L22.642 37.2208L18.5186 33.6205V28.0938H26.7681V33.6205Z" fill="#F8F8F8"/>
<path d="M29.197 18.3445V23.0287C29.197 26.7019 26.1895 29.7955 22.5154 29.7247C18.9548 29.6561 16.0908 26.7497 16.0908 23.1753V18.3445C16.0908 14.7268 19.0248 12.8389 22.6438 12.8389C26.2633 12.8389 29.197 14.7268 29.197 18.3445Z" fill="white"/>
<path d="M15.8303 42.9567V49.2812H13.9587C11.2632 49.2812 9.23383 46.8277 9.74117 44.1821L10.4265 40.6025C10.6234 39.5757 11.022 38.6183 11.5876 37.7773C14.009 38.2608 15.8303 40.3961 15.8303 42.9567Z" fill="#F52C32"/>
<path d="M31.4085 49.2819H29.6045V42.9575C29.6045 40.4016 31.4211 38.2678 33.8362 37.7812C34.4096 38.6428 34.8098 39.6222 34.9989 40.6741L35.6355 44.2332C36.1065 46.8648 34.0837 49.2819 31.4085 49.2819Z" fill="#F52C32"/>
<path d="M29.1938 18.0258C28.9484 18.2139 28.7659 18.349 28.7659 18.349C28.3016 18.617 27.7977 18.8624 27.2574 19.0792C24.7999 20.0623 22.3972 20.0984 21.235 19.2845C21.235 19.2845 20.0214 18.3795 19.5668 17.8015C19.1123 17.2236 17.6665 17.0772 16.4682 18.349C16.3426 18.4821 16.2151 18.5696 16.0879 18.6208V18.349C16.0879 14.7289 19.023 11.7949 22.6447 11.7949C24.4557 11.7949 26.0952 12.5287 27.2802 13.7153C28.3968 14.8295 29.1122 16.3429 29.1938 18.0258Z" fill="#3C3C3C"/>
<path d="M54.9534 47.3083L50.9334 44.1621C50.7048 43.9831 50.3832 43.9831 50.1546 44.1621L46.1346 47.3083C45.7199 47.6328 45.1133 47.3375 45.1133 46.811V24.2545C45.1133 23.9057 45.3961 23.623 45.745 23.623H55.343C55.6919 23.623 55.9747 23.9058 55.9747 24.2545V46.8111C55.9747 47.3375 55.3681 47.6328 54.9534 47.3083Z" fill="#E41F25"/>
<path d="M66.0826 15.5351C66.0826 17.5179 63.9282 19.0578 63.2129 20.7819C62.4714 22.569 62.8769 25.1748 61.5294 26.5214C60.1821 27.8679 57.5764 27.4607 55.7888 28.2016C54.0646 28.9161 52.524 31.0703 50.5412 31.0703C48.5585 31.0703 47.0179 28.9161 45.2937 28.2016C43.5061 27.4608 40.9005 27.8679 39.5531 26.5214C38.2056 25.1748 38.6113 22.569 37.8698 20.7819C37.1543 19.0578 35 17.5178 35 15.5351C35 13.5524 37.1545 12.0124 37.8699 10.2884C38.6114 8.50132 38.2059 5.89546 39.5534 4.54886C40.9006 3.2024 43.5064 3.6096 45.294 2.86868C47.0182 2.15414 48.5588 0 50.5415 0C52.5243 0 54.0649 2.15414 55.7891 2.86868C57.5767 3.60945 60.1823 3.2024 61.5297 4.54886C62.8772 5.89546 62.4715 8.50132 63.213 10.2884C63.9282 12.0124 66.0826 13.5524 66.0826 15.5351Z" fill="#E41F25"/>
<path d="M63.3228 15.513C63.3228 17.1474 61.5476 18.4168 60.9582 19.838C60.3472 21.3111 60.6813 23.4592 59.571 24.5692C58.4609 25.6791 56.3138 25.3435 54.8408 25.9542C53.42 26.5432 52.1506 28.3189 50.5168 28.3189C48.883 28.3189 47.6136 26.5432 46.1929 25.9542C44.7199 25.3436 42.5729 25.6791 41.4627 24.5692C40.3523 23.4592 40.6866 21.3111 40.0756 19.838C39.4861 18.4168 37.7109 17.1473 37.7109 15.513C37.7109 13.8785 39.4862 12.6091 40.0757 11.1879C40.6867 9.71485 40.3526 7.56679 41.4629 6.45675C42.573 5.34684 44.7201 5.6825 46.1931 5.07175C47.6139 4.48274 48.8833 2.70703 50.5171 2.70703C52.1509 2.70703 53.4203 4.48274 54.841 5.07175C56.314 5.68238 58.461 5.34684 59.5712 6.45675C60.6816 7.56679 60.3473 9.71485 60.9583 11.1879C61.5476 12.6091 63.3228 13.8785 63.3228 15.513Z" fill="white"/>
<path d="M50.8016 7.85239L53.2976 11.5791C53.3386 11.6402 53.3999 11.6849 53.4708 11.7048L57.7879 12.926C58.0003 12.9861 58.0837 13.2425 57.9471 13.4158L55.1726 16.9402C55.127 16.998 55.1035 17.0702 55.1064 17.1437L55.2785 21.625C55.2871 21.8455 55.0688 22.004 54.8617 21.9278L50.651 20.3794C50.582 20.3539 50.506 20.3539 50.437 20.3794L46.2263 21.9278C46.0191 22.004 45.8009 21.8455 45.8093 21.625L45.9814 17.1437C45.9843 17.0702 45.9608 16.998 45.9153 16.9402L43.1408 13.4158C43.0043 13.2425 43.0876 12.9861 43.2999 12.926L47.6171 11.7048C47.688 11.6849 47.7494 11.6402 47.7903 11.5791L50.2862 7.85239C50.4092 7.66899 50.6789 7.66899 50.8016 7.85239Z" fill="#E41F25"/>
</svg>
