<svg width="70" height="65" viewBox="0 0 70 65" fill="none" xmlns="http://www.w3.org/2000/svg">
<path d="M35.0001 26.25C34.1926 26.25 33.541 25.5964 33.541 24.791V18.958C33.541 18.1526 34.1926 17.5 35.0001 17.5C35.8032 17.5 36.4569 18.1526 36.4569 18.958V24.791C36.4569 25.5964 35.8032 26.25 35.0001 26.25Z" fill="#E2E2E2"/>
<path d="M42.291 23.333H27.7069C26.9015 23.333 26.25 23.9856 26.25 24.791V30.6251C26.25 31.4305 26.9015 32.0831 27.7069 32.0831H42.291C43.0964 32.0831 43.7501 31.4305 43.7501 30.6251V24.791C43.7501 23.9857 43.0964 23.333 42.291 23.333Z" fill="#F0F0F0"/>
<path d="M65.6249 46.665H45.2068C44.4013 46.665 43.75 47.3187 43.75 48.1263V62.708C43.75 63.5134 44.4015 64.1649 45.2068 64.1649H65.6249C66.4282 64.1649 67.0818 63.5133 67.0818 62.708V48.1263C67.0818 47.3187 66.4282 46.665 65.6249 46.665Z" fill="#EEEEEE"/>
<path d="M24.7909 40.833H4.37497C3.56749 40.833 2.91602 41.4867 2.91602 42.2899V62.7079C2.91602 63.5134 3.56749 64.1648 4.37497 64.1648H24.7909C25.5964 64.1648 26.25 63.5132 26.25 62.7079V42.2899C26.2499 41.4867 25.5962 40.833 24.7909 40.833Z" fill="#EEEEEE"/>
<path d="M45.2068 29.166H24.791C23.9856 29.166 23.332 29.8197 23.332 30.6251V62.708C23.332 63.5134 23.9857 64.1649 24.791 64.1649H45.2069C46.0124 64.1649 46.666 63.5132 46.666 62.708V30.6251C46.6659 29.8198 46.0122 29.166 45.2068 29.166Z" fill="#E41F25"/>
<path d="M68.5408 64.1645H1.45691C0.651479 64.1645 0 63.5129 0 62.7076C0 61.9023 0.651479 61.251 1.45691 61.251H68.5409C69.3463 61.251 70 61.9023 70 62.7076C70 63.5129 69.3462 64.1645 68.5408 64.1645Z" fill="#333333"/>
<path d="M27.4182 16.0421C27.2494 16.0421 27.0764 16.0122 26.9076 15.9481C20.5204 13.5534 19.0356 4.97532 18.9759 4.61219C18.9075 4.18917 19.0271 3.75767 19.3028 3.43077C19.5805 3.1051 19.9864 2.91602 20.4158 2.91602H26.2499C27.0531 2.91602 27.7068 3.56968 27.7068 4.37497C27.7068 5.18026 27.0531 5.83297 26.2499 5.83297H22.2787C22.9645 8.0964 24.5921 11.9651 27.9311 13.218C28.6853 13.4999 29.0676 14.3406 28.7857 15.0948C28.5653 15.6799 28.0099 16.0421 27.4182 16.0421Z" fill="#E2E2E2"/>
<path d="M42.5769 16.0421C41.9874 16.0421 41.4319 15.6801 41.2119 15.0948C40.93 14.3406 41.3123 13.5001 42.0664 13.218C45.4224 11.9587 47.0436 8.09421 47.723 5.83297H43.7497C42.9422 5.83297 42.2906 5.1804 42.2906 4.37497C42.2906 3.56955 42.9422 2.91602 43.7497 2.91602H49.5815C50.0109 2.91602 50.4167 3.1051 50.6945 3.43077C50.9701 3.75767 51.0898 4.18917 51.0214 4.61219C50.9615 4.97532 49.4769 13.5534 43.0896 15.9481C42.9209 16.0122 42.7478 16.0421 42.5769 16.0421Z" fill="#E2E2E2"/>
<path d="M43.7502 0H26.2501C25.4426 0 24.791 0.652573 24.791 1.458V10.208C24.791 15.837 29.3689 20.4161 35 20.4161C40.6268 20.4161 45.2068 15.837 45.2068 10.208V1.458C45.207 0.652709 44.5533 0 43.7502 0Z" fill="#F0F0F0"/>
<path d="M35.0001 13.1251C34.1926 13.1251 33.541 12.4714 33.541 11.666V7.29101C33.541 6.48558 34.1926 5.83301 35.0001 5.83301C35.8032 5.83301 36.4569 6.48558 36.4569 7.29101V11.666C36.4569 12.4714 35.8032 13.1251 35.0001 13.1251Z" fill="#E41F25"/>
</svg>
