<svg width="72" height="72" viewBox="0 0 72 72" fill="none" xmlns="http://www.w3.org/2000/svg">
<g clip-path="url(#clip0_80:3010)">
<path d="M71.2676 4.45706C70.8077 3.98551 70.1759 3.72114 69.5173 3.72464H2.48279C1.82413 3.72114 1.19233 3.98551 0.732448 4.45706C0.260899 4.91694 -0.0034701 5.54874 3.44031e-05 6.2074V58.3453C-0.0034701 59.004 0.260899 59.6358 0.732448 60.0957C1.19233 60.5672 1.82413 60.8316 2.48279 60.8281H68.2759C70.3327 60.8281 72 59.1607 72 57.104V6.2074C72.0035 5.54874 71.7392 4.91694 71.2676 4.45706Z" fill="#E41F25"/>
<path d="M72 6.2074V57.104C72.0001 58.0915 71.607 59.0384 70.9076 59.7356L65.7931 54.6212V9.93151L71.2676 4.45706C71.7392 4.91694 72.0035 5.54874 72 6.2074Z" fill="#E41F25"/>
<path d="M6.2069 9.93151V54.6212L0.732448 60.0957C0.260899 59.6358 -0.0034701 59.004 3.44031e-05 58.3453V6.2074C-0.0034701 5.54874 0.260899 4.91694 0.732448 4.45706L6.2069 9.93151Z" fill="#E41F25"/>
<path d="M70.9076 59.7356C70.2104 60.4351 69.2635 60.8282 68.2759 60.8281H2.48279C1.82413 60.8316 1.19233 60.5672 0.732448 60.0957L6.2069 54.6212H65.7931L70.9076 59.7356Z" fill="#E41F25"/>
<path d="M6.20703 9.93164H65.7932V54.6213H6.20703V9.93164Z" fill="white"/>
<path d="M44.69 18.6214H27.3107C26.6251 18.6214 26.0693 18.0656 26.0693 17.3801C26.0693 16.6945 26.6251 16.1387 27.3107 16.1387H44.69C45.3756 16.1387 45.9314 16.6945 45.9314 17.3801C45.9314 18.0656 45.3756 18.6214 44.69 18.6214Z" fill="#333333"/>
<path d="M32.276 45.931H14.8967C14.2111 45.931 13.6553 45.3752 13.6553 44.6896C13.6553 44.004 14.2111 43.4482 14.8967 43.4482H32.276C32.9616 43.4482 33.5173 44.004 33.5173 44.6896C33.5173 45.3752 32.9616 45.931 32.276 45.931Z" fill="#333333"/>
<path d="M48.4137 24.8285H23.5861C22.9005 24.8285 22.3447 24.2727 22.3447 23.5871C22.3447 22.9015 22.9005 22.3457 23.5861 22.3457H48.4137C49.0993 22.3457 49.6551 22.9015 49.6551 23.5871C49.6551 24.2727 49.0993 24.8285 48.4137 24.8285Z" fill="#333333"/>
<path d="M43.4482 50.1523L43.4483 66.2654C43.4453 66.6979 43.6675 67.1008 44.035 67.3288C44.4024 67.5569 44.8621 67.5773 45.2483 67.3827L48.4759 65.7565C48.828 65.5827 49.241 65.5827 49.5931 65.7565L52.8207 67.3827C53.2069 67.5773 53.6665 67.5569 54.034 67.3288C54.4014 67.1008 54.6237 66.6979 54.6207 66.2654L54.6207 50.1523H43.4482Z" fill="#F52C32"/>
<path d="M32.276 40.9664C29.2363 40.9664 26.248 40.1822 23.6 38.6897C20.9475 40.1957 17.9468 40.9806 14.8967 40.9664C14.2111 40.9664 13.6553 40.4106 13.6553 39.725C13.6553 39.0394 14.2111 38.4836 14.8967 38.4836C17.1217 38.4935 19.3213 38.0097 21.3369 37.0672C20.0485 36.0795 19.2244 34.6042 19.059 32.9893C19.059 32.2444 19.3855 29.7939 23.5863 29.7939C27.7871 29.7939 28.1136 32.2395 28.1136 32.9893C27.949 34.6063 27.1255 36.084 25.8369 37.0746C27.8533 38.0129 30.052 38.494 32.276 38.4836C32.9616 38.4836 33.5173 39.0394 33.5173 39.725C33.5173 40.4106 32.9616 40.9664 32.276 40.9664ZM23.5863 32.2767C22.6429 32.2767 21.5418 32.4629 21.5418 32.9893C21.5418 33.5156 22.0991 34.5757 23.5764 35.7128C24.8972 34.7024 25.6309 33.6459 25.6309 32.9893C25.6309 32.4629 24.5298 32.2767 23.5863 32.2767Z" fill="#333333"/>
<path d="M52.2152 49.2673L52.2156 49.2672C52.7514 49.0452 53.3352 49.0342 53.8116 49.063C54.1928 49.0861 54.604 49.1438 54.9661 49.1946C55.0602 49.2078 55.151 49.2205 55.2371 49.232C55.693 49.2931 56.0464 49.3259 56.325 49.3056C56.6007 49.2855 56.6627 49.2224 56.6656 49.2195L56.6656 49.2195C56.6689 49.2162 56.7316 49.1536 56.7516 48.8789C56.772 48.6003 56.7392 48.2468 56.6782 47.7907C56.6667 47.7049 56.654 47.6144 56.6409 47.5206C56.5902 47.1582 56.5325 46.7464 56.5096 46.3646C56.4809 45.8878 56.4923 45.3039 56.7146 44.7679L52.2152 49.2673ZM52.2152 49.2673C51.683 49.4881 51.269 49.8984 50.9624 50.2515C50.7264 50.5233 50.4887 50.8416 50.2777 51.1241C50.2122 51.2118 50.1493 51.2961 50.0898 51.3745C49.8135 51.7382 49.5857 52.0109 49.3719 52.1929C49.1626 52.3709 49.0619 52.3802 49.0343 52.3802C49.0068 52.3802 48.906 52.3709 48.6968 52.1929C48.4829 52.0109 48.2551 51.7382 47.9789 51.3745C47.9194 51.2961 47.8564 51.2118 47.7909 51.1241C47.5799 50.8416 47.3423 50.5233 47.1062 50.2515C46.7996 49.8984 46.3857 49.4881 45.8535 49.2674C45.3175 49.045 44.7335 49.0337 44.2568 49.0623C43.8749 49.0852 43.4631 49.1429 43.1007 49.1936C43.0069 49.2068 42.9165 49.2194 42.8307 49.2309C42.3746 49.292 42.0211 49.3247 41.7424 49.3044C41.4678 49.2843 41.4052 49.2216 41.4019 49.2183L41.4018 49.2183L41.4018 49.2182C41.3985 49.2149 41.3358 49.1524 41.3158 48.8777C41.2954 48.5992 41.3282 48.2457 41.3893 47.7898C41.4009 47.7037 41.4136 47.6129 41.4268 47.5188C41.4776 47.1568 41.5353 46.7455 41.5583 46.3643C41.5871 45.8879 41.5761 45.3041 41.3542 44.7683L41.354 44.7679M52.2152 49.2673L41.354 44.7679M41.354 44.7679C41.1333 44.2357 40.7229 43.8218 40.3699 43.5151M41.354 44.7679L40.3699 43.5151M45.8544 33.9063L45.853 33.9069C45.3173 34.1289 44.7335 34.1399 44.257 34.111C43.8758 34.088 43.4646 34.0303 43.1026 33.9795C43.0084 33.9663 42.9176 33.9536 42.8316 33.9421C42.3757 33.8809 42.0222 33.8482 41.7436 33.8685C41.469 33.8885 41.4064 33.9512 41.4031 33.9545L41.4031 33.9546L41.403 33.9546C41.3997 33.9579 41.337 34.0205 41.317 34.2952C41.2966 34.5738 41.3294 34.9273 41.3904 35.3834C41.4019 35.4692 41.4146 35.5597 41.4277 35.6535C41.4785 36.0159 41.5361 36.4277 41.5591 36.8095C41.5877 37.2863 41.5763 37.8702 41.354 38.4062L45.8544 33.9063ZM45.8544 33.9063C46.3855 33.6854 46.7988 33.275 47.1048 32.9224M45.8544 33.9063L47.1048 32.9224M56.7146 38.4062L56.7144 38.4058C56.4925 37.87 56.4815 37.2862 56.5103 36.8098C56.5334 36.4286 56.591 36.0173 56.6418 35.6553C56.655 35.5612 56.6678 35.4704 56.6793 35.3843C56.7404 34.9284 56.7732 34.5749 56.7529 34.2964C56.7328 34.0217 56.6702 33.9592 56.6668 33.9558L56.6668 33.9558L56.6668 33.9558C56.6634 33.9524 56.6009 33.8898 56.3262 33.8697C56.0476 33.8494 55.694 33.8821 55.2379 33.9432C55.1522 33.9547 55.0617 33.9673 54.9679 33.9805C54.6055 34.0312 54.1937 34.0889 53.8119 34.1118C53.3351 34.1404 52.7512 34.1291 52.2152 33.9068L56.7146 38.4062ZM56.7146 38.4062C56.9354 38.9384 57.3457 39.3523 57.6988 39.6589C57.9706 39.895 58.2888 40.1327 58.5713 40.3436C58.6591 40.4091 58.7434 40.4721 58.8217 40.5316C59.1855 40.8078 59.4582 41.0356 59.6402 41.2495C59.8182 41.4587 59.8274 41.5595 59.8274 41.587C59.8274 41.6146 59.8182 41.7154 59.6402 41.9246M56.7146 38.4062L59.6402 41.9246M59.6402 41.9246C59.4582 42.1385 59.1855 42.3663 58.8217 42.6425M59.6402 41.9246L58.8217 42.6425M58.8217 42.6425C58.7434 42.702 58.6591 42.7649 58.5713 42.8305M58.8217 42.6425L58.5713 42.8305M58.5713 42.8305C58.2889 43.0414 57.9706 43.2791 57.6988 43.5151M58.5713 42.8305L57.6988 43.5151M57.6988 43.5151C57.3457 43.8218 56.9354 44.2357 56.7146 44.7679L57.6988 43.5151ZM40.3699 43.5151C40.0981 43.2791 39.7798 43.0414 39.4973 42.8305M40.3699 43.5151L39.4973 42.8305M39.4973 42.8305C39.4095 42.7649 39.3253 42.702 39.2469 42.6425M39.4973 42.8305L39.2469 42.6425M39.2469 42.6425C38.8832 42.3663 38.6105 42.1385 38.4285 41.9246M39.2469 42.6425L38.4285 41.9246M38.4285 41.9246C38.2504 41.7154 38.2412 41.6146 38.2412 41.587M38.4285 41.9246L38.2412 41.587M38.2412 41.587C38.2412 41.5595 38.2504 41.4587 38.4285 41.2495M38.2412 41.587L38.4285 41.2495M38.4285 41.2495C38.6105 41.0356 38.8832 40.8078 39.2469 40.5316M38.4285 41.2495L39.2469 40.5316M39.2469 40.5316C39.3253 40.4721 39.4096 40.4091 39.4973 40.3436M39.2469 40.5316L39.4973 40.3436M39.4973 40.3436C39.7798 40.1327 40.0981 39.895 40.3699 39.6589M39.4973 40.3436L40.3699 39.6589M40.3699 39.6589C40.7229 39.3523 41.1332 38.9384 41.354 38.4062L40.3699 39.6589ZM47.1048 32.9224C47.3399 32.6516 47.5769 32.3343 47.7875 32.0525M47.1048 32.9224L47.7875 32.0525M47.7875 32.0525C47.8536 31.964 47.9172 31.879 47.9772 31.8M47.7875 32.0525L47.9772 31.8M47.9772 31.8C48.2536 31.4364 48.4817 31.1636 48.6959 30.9815M47.9772 31.8L48.6959 30.9815M48.6959 30.9815C48.9055 30.8033 49.0066 30.7939 49.0343 30.7939M48.6959 30.9815L49.0343 30.7939M49.0343 30.7939C49.0619 30.7939 49.1626 30.8032 49.3719 30.9812M49.0343 30.7939L49.3719 30.9812M49.3719 30.9812C49.5857 31.1632 49.8135 31.4359 50.0898 31.7996M49.3719 30.9812L50.0898 31.7996M50.0898 31.7996C50.1493 31.878 50.2122 31.9623 50.2777 32.05M50.0898 31.7996L50.2777 32.05M50.2777 32.05C50.4887 32.3325 50.7264 32.6508 50.9624 32.9226M50.2777 32.05L50.9624 32.9226M50.9624 32.9226C51.269 33.2757 51.6829 33.686 52.2151 33.9067L50.9624 32.9226Z" fill="white" stroke="#F52C32" stroke-width="2"/>
<path d="M49.0343 45.9318C51.4339 45.9318 53.3791 43.9866 53.3791 41.587C53.3791 39.1874 51.4339 37.2422 49.0343 37.2422C46.6347 37.2422 44.6895 39.1874 44.6895 41.587C44.6895 43.9866 46.6347 45.9318 49.0343 45.9318Z" fill="#F52C32"/>
</g>
<defs>
<clipPath id="clip0_80:3010">
<rect width="72" height="72" fill="white"/>
</clipPath>
</defs>
</svg>
