<svg width="84" height="67" viewBox="0 0 84 67" fill="none" xmlns="http://www.w3.org/2000/svg">
<path d="M84 67V15H44L36 22.8413V67H84Z" fill="#E41F25"/>
<path d="M74 38.5V47.875C74 49.6009 72.6009 51 70.875 51H57.125C55.3991 51 54 49.6009 54 47.875V34.125C54 32.3991 55.3991 31 57.125 31H70.5625M58.6875 39.4375L63.375 44.125L74.3125 33.1875" stroke="white" stroke-width="1.875" stroke-linecap="round"/>
<path d="M62 67V4H14.5L5 13.5V67H62Z" fill="#EEEEEE"/>
<g filter="url(#filter0_d_111:2682)">
<path d="M14 13.5H5L14 4.5V13.5Z" fill="#EBEBEB"/>
</g>
<path d="M50 35V50C50 52.7614 47.7614 55 45 55H23C20.2386 55 18 52.7614 18 50V28C18 25.2386 20.2386 23 23 23H44.5M25.5 36.5L33 44L50.5 26.5" stroke="#E41F25" stroke-width="3" stroke-linecap="round"/>
<defs>
<filter id="filter0_d_111:2682" x="0" y="0.5" width="19" height="19" filterUnits="userSpaceOnUse" color-interpolation-filters="sRGB">
<feFlood flood-opacity="0" result="BackgroundImageFix"/>
<feColorMatrix in="SourceAlpha" type="matrix" values="0 0 0 0 0 0 0 0 0 0 0 0 0 0 0 0 0 0 127 0" result="hardAlpha"/>
<feOffset dy="1"/>
<feGaussianBlur stdDeviation="2.5"/>
<feComposite in2="hardAlpha" operator="out"/>
<feColorMatrix type="matrix" values="0 0 0 0 0 0 0 0 0 0 0 0 0 0 0 0 0 0 0.25 0"/>
<feBlend mode="normal" in2="BackgroundImageFix" result="effect1_dropShadow_111:2682"/>
<feBlend mode="normal" in="SourceGraphic" in2="effect1_dropShadow_111:2682" result="shape"/>
</filter>
</defs>
</svg>
