<svg width="15" height="9" viewBox="0 0 15 9" fill="none" xmlns="http://www.w3.org/2000/svg">
<path d="M14.0358 0.83432C14.1775 0.471719 14.0358 0.25416 13.6107 0.25416H12.1229C11.7686 0.25416 11.5561 0.471721 11.4852 0.689282C11.4852 0.689282 10.7059 2.5748 9.64316 3.80764C9.28892 4.17024 9.14722 4.24276 8.93467 4.24276C8.79298 4.24276 8.72213 4.09772 8.72213 3.80764V0.761801C8.72213 0.3992 8.58043 0.181641 8.29704 0.181641H5.95904C5.7465 0.181641 5.6048 0.326681 5.6048 0.544241C5.6048 0.906841 6.17159 0.97936 6.17159 2.06716V4.3878C6.17159 4.89544 6.02989 4.96797 5.8882 4.96797C5.39226 4.96797 4.11699 3.08244 3.4085 0.906841C3.26681 0.471721 3.12511 0.326681 2.77087 0.326681H1.28305C0.857961 0.326681 0.787109 0.54424 0.787109 0.761801C0.787109 1.1244 1.28305 3.15496 3.12511 5.83821C4.40038 7.65121 6.10074 8.66649 7.65941 8.66649C8.58044 8.66649 8.72213 8.44893 8.72213 8.08633V6.56341C8.72213 6.12829 8.86383 6.05577 9.07637 6.05577C9.28892 6.05577 9.64316 6.2008 10.5642 7.07104C11.6269 8.15884 11.7686 8.59397 12.3354 8.59397H13.8232C14.2483 8.59397 14.4608 8.37641 14.3191 7.94129C14.1775 7.50617 13.7524 6.85349 13.0439 6.12829C12.6896 5.69317 12.1937 5.25805 11.9812 5.04049C11.7686 4.75041 11.8395 4.60536 11.9812 4.3878C11.9812 4.3878 13.8941 1.70456 14.0358 0.83432Z" fill="white"/>
</svg>
