<svg width="164" height="58" viewBox="0 0 164 58" fill="none" xmlns="http://www.w3.org/2000/svg">
<path fill-rule="evenodd" clip-rule="evenodd" d="M11.1217 0L8.33954 7.58789H46.8941L49.6762 0H11.1217ZM6.94759 11.3801L4.16543 18.9663H42.72L45.5021 11.3801H6.94759ZM2.78216 22.7602L0 30.3464H38.5545L41.335 22.7602H2.78216Z" fill="#009FDF"/>
<mask id="mask0_74:17024" style="mask-type:alpha" maskUnits="userSpaceOnUse" x="57" y="11" width="107" height="47">
<path d="M57.8423 57.9982H163.381V11.5176H57.8423V57.9982Z" fill="white"/>
</mask>
<g mask="url(#mask0_74:17024)">
<path fill-rule="evenodd" clip-rule="evenodd" d="M81.9676 33.2364V33.3965C83.7295 34.0404 85.4126 35.1664 86.2944 35.8894C89.0189 38.1414 90.2216 41.1164 90.2216 44.9764C90.2216 51.3311 86.8555 55.9142 81.3259 57.3621C79.6428 57.8442 77.8809 58.0061 74.5937 58.0061H57.8472V11.5244H72.6722C75.7174 11.5244 77.8002 11.6845 79.6428 12.1666C85.0129 13.6145 88.5385 17.3144 88.5385 23.1835C88.5385 26.3204 87.4165 28.9753 85.5739 30.7434C84.7727 31.5474 83.6506 32.5133 81.9676 33.2364ZM67.1426 38.1414V50.3653H73.554C75.4755 50.3653 77.2392 50.2052 78.5226 48.9983C79.8041 47.7913 80.3652 46.2642 80.3652 44.2533C80.3652 42.7262 79.9637 41.2783 79.1625 40.2332C77.8002 38.5443 76.1172 38.1414 73.2332 38.1414H67.1426ZM67.0619 30.0995H72.2707C73.8731 30.0995 74.6743 30.0995 75.4755 29.8584C77.6407 29.2145 79.0029 27.2863 79.0029 24.6315C79.0029 21.4963 77.5601 20.1276 75.4755 19.4854C74.5937 19.2444 73.7135 19.1634 71.9498 19.1634H67.0619V30.0995ZM104.165 58.0061V19.3235H90.7826V11.5244H127.966L125.322 19.3235H113.46V58.0061H104.165ZM130.85 58.0061V11.5244H160.982L158.338 19.3235H140.067V29.6174H147.519C153.529 29.6174 156.655 31.0653 158.819 32.9144C160.502 34.3623 163.386 37.5784 163.386 43.9331C163.386 50.2052 160.421 53.6623 157.937 55.4321C155.053 57.4413 152.008 58.0061 145.836 58.0061H130.85ZM140.067 50.2052H147.039C149.683 50.2052 151.285 49.5612 152.407 48.1133C152.968 47.3902 153.77 46.1024 153.77 43.6903C153.77 41.2783 152.968 39.5893 151.366 38.3824C150.405 37.6593 149.122 37.2582 146.958 37.2582H140.067V50.2052Z" fill="#0A2973"/>
</g>
</svg>
