<svg width="13" height="9" viewBox="0 0 13 9" fill="none" xmlns="http://www.w3.org/2000/svg">
<path d="M12.457 1.53023C12.347 1.02451 11.9071 0.631169 11.4121 0.462596C10.4772 0.181641 6.7926 0.181641 6.7926 0.181641C6.7926 0.181641 3.10798 0.181641 2.17307 0.462596C1.67812 0.574978 1.29316 1.02451 1.12818 1.53023C0.908203 2.48547 0.908203 4.39597 0.908203 4.39597C0.908203 4.39597 0.908203 6.36265 1.18318 7.3179C1.29316 7.82362 1.73312 8.21696 2.22807 8.38553C3.16297 8.66649 6.8476 8.66649 6.8476 8.66649C6.8476 8.66649 10.5322 8.66649 11.4671 8.38553C11.9621 8.27315 12.347 7.82362 12.512 7.3179C12.787 6.36265 12.787 4.39597 12.787 4.39597C12.787 4.39597 12.732 2.48547 12.457 1.53023ZM5.69272 6.25027V2.65405L8.71741 4.45216L5.69272 6.25027Z" fill="#262626"/>
</svg>
