<svg width="36" height="29" viewBox="0 0 36 29" fill="none" xmlns="http://www.w3.org/2000/svg">
<path d="M16 3.21627C14.3063 4.18115 12.9369 5.02095 11.8919 5.73567C10.8468 6.41466 9.78378 7.32594 8.7027 8.4695C7.69369 9.54159 6.91892 10.6673 6.37838 11.8466C5.83784 13.0259 5.45946 14.5447 5.24324 16.403H7.83784C10.0721 16.403 11.8198 16.9569 13.0811 18.0647C14.3784 19.1368 15.027 20.727 15.027 22.8355C15.027 24.3364 14.4505 25.748 13.2973 27.0702C12.1802 28.3567 10.6306 29 8.64865 29C5.54955 29 3.33333 27.9994 2 25.9982C0.666667 23.9612 0 21.2988 0 18.0111C0 15.6882 0.504505 13.5798 1.51351 11.6858C2.52252 9.75601 3.74775 8.04067 5.18919 6.53974C6.66667 5.00308 8.23423 3.69871 9.89189 2.62662C11.5496 1.55453 12.9369 0.67899 14.0541 0L16 3.21627Z" fill="#3C5469"/>
<path d="M31.8919 5.73567C32.9369 5.02095 34.3063 4.18115 36 3.21627L34.0541 0C32.9369 0.67899 31.5496 1.55453 29.8919 2.62662C28.2342 3.69871 26.6667 5.00308 25.1892 6.53974C23.7477 8.04067 22.5225 9.75601 21.5135 11.6858C20.5045 13.5798 20 15.6882 20 18.0111C20 21.2988 20.6667 23.9612 22 25.9982C23.3333 27.9994 25.5495 29 28.6486 29C30.6306 29 32.1802 28.3567 33.2973 27.0702C34.4505 25.748 35.027 24.3364 35.027 22.8355C35.027 20.727 34.3784 19.1368 33.0811 18.0647C31.8198 16.9569 30.0721 16.403 27.8378 16.403H25.2432C25.4595 14.5447 25.8198 13.0437 26.3243 11.9002C26.8649 10.7209 27.6577 9.57733 28.7027 8.4695C29.7838 7.32594 30.8468 6.41466 31.8919 5.73567Z" fill="#3C5469"/>
</svg>
