<svg width="53" height="41" viewBox="0 0 53 41" fill="none" xmlns="http://www.w3.org/2000/svg">
<path fill-rule="evenodd" clip-rule="evenodd" d="M19.0285 2.48522C19.028 2.48485 19.0275 2.48448 19.027 2.4841C13.0511 -0.957586 5.37273 1.02005 1.87703 6.90146C-1.61871 12.7825 0.391922 20.3401 6.36788 23.7817C6.78097 24.0196 7.2022 24.2316 7.62962 24.4183C9.14526 25.1177 11.7755 26.1203 14.0914 25.9414C15.3608 25.8434 16.9323 25.7314 18.4199 25.6286C21.4311 25.4205 24.2696 27.0267 25.587 29.7001C26.2586 31.0629 26.9631 32.5092 27.5087 33.6687C28.4851 35.744 30.6625 37.5101 32.0244 38.4678C32.3982 38.7423 32.7915 38.9991 33.2034 39.2363C39.1793 42.678 46.8574 40.7004 50.3533 34.8193C53.8488 28.9384 51.8386 21.3813 45.8635 17.9394L45.8638 17.9387C45.8638 17.9387 45.8378 17.9238 45.7884 17.8965C45.2308 17.5804 44.659 17.3112 44.0771 17.0876C42.6042 16.4781 40.3976 15.7667 38.1423 15.7788C36.9224 15.7854 35.5402 15.8633 34.213 15.9677C30.8741 16.2302 27.6614 14.4739 26.2954 11.4631C25.7507 10.2627 25.1924 9.04506 24.725 8.05136C23.7242 5.92436 21.4617 4.12196 20.1088 3.182C19.8004 2.96023 19.4792 2.75032 19.1452 2.55302C19.07 2.50747 19.0291 2.48411 19.0291 2.48411L19.0285 2.48522Z" fill="#D2C6FF"/>
</svg>
