<svg width="70" height="70" viewBox="0 0 70 70" fill="none" xmlns="http://www.w3.org/2000/svg">
<circle cx="35" cy="35" r="35" fill="url(#paint0_linear_875_3273)"/>
<path d="M37.5884 34.9997L45.4718 27.1347C45.817 26.7895 46.0109 26.3212 46.0109 25.833C46.0109 25.3448 45.817 24.8766 45.4718 24.5314C45.1265 24.1861 44.6583 23.9922 44.1701 23.9922C43.6819 23.9922 43.2137 24.1861 42.8684 24.5314L35.0034 32.4147L27.1384 24.5314C26.7932 24.1861 26.325 23.9922 25.8368 23.9922C25.3485 23.9922 24.8803 24.1861 24.5351 24.5314C24.1899 24.8766 23.9959 25.3448 23.9959 25.833C23.9959 26.3212 24.1899 26.7895 24.5351 27.1347L32.4184 34.9997L24.5351 42.8647C24.3633 43.0351 24.2269 43.2379 24.1338 43.4613C24.0407 43.6847 23.9928 43.9243 23.9928 44.1664C23.9928 44.4084 24.0407 44.648 24.1338 44.8714C24.2269 45.0948 24.3633 45.2976 24.5351 45.468C24.7055 45.6399 24.9083 45.7762 25.1317 45.8693C25.3551 45.9624 25.5947 46.0103 25.8368 46.0103C26.0788 46.0103 26.3184 45.9624 26.5418 45.8693C26.7652 45.7762 26.968 45.6399 27.1384 45.468L35.0034 37.5847L42.8684 45.468C43.0389 45.6399 43.2416 45.7762 43.465 45.8693C43.6884 45.9624 43.9281 46.0103 44.1701 46.0103C44.4121 46.0103 44.6517 45.9624 44.8752 45.8693C45.0986 45.7762 45.3013 45.6399 45.4718 45.468C45.6436 45.2976 45.78 45.0948 45.8731 44.8714C45.9661 44.648 46.0141 44.4084 46.0141 44.1664C46.0141 43.9243 45.9661 43.6847 45.8731 43.4613C45.78 43.2379 45.6436 43.0351 45.4718 42.8647L37.5884 34.9997Z" fill="white"/>
<defs>
<linearGradient id="paint0_linear_875_3273" x1="35" y1="0" x2="35" y2="70" gradientUnits="userSpaceOnUse">
<stop stop-color="#353841"/>
<stop offset="1" stop-color="#262935"/>
</linearGradient>
</defs>
</svg>
