<svg width="70" height="70" viewBox="0 0 70 70" fill="none" xmlns="http://www.w3.org/2000/svg">
<circle cx="35" cy="35" r="35" fill="url(#paint0_linear_875_3250)"/>
<path d="M17.2404 33.6129C17.173 33.3427 17.1681 33.0607 17.2259 32.7883C17.2838 32.5159 17.4029 32.2603 17.5744 32.0408C17.7458 31.8213 17.9649 31.6438 18.2152 31.5217C18.4655 31.3995 18.7403 31.336 19.0187 31.3359H50.9921C51.2706 31.336 51.5454 31.3995 51.7956 31.5217C52.0459 31.6438 52.265 31.8213 52.4365 32.0408C52.6079 32.2603 52.727 32.5159 52.7849 32.7883C52.8428 33.0607 52.8378 33.3427 52.7704 33.6129L49.4502 46.8918C49.252 47.685 48.7942 48.3892 48.1498 48.8925C47.5054 49.3957 46.7112 49.6691 45.8936 49.6693H24.1172C23.2996 49.6691 22.5054 49.3957 21.861 48.8925C21.2166 48.3892 20.7589 47.685 20.5606 46.8918L17.2404 33.6148V33.6129Z" stroke="white" stroke-width="3.66667" stroke-linejoin="round"/>
<path d="M29.5049 38.6693V42.3359M40.5049 38.6693V42.3359M24.0049 31.3359L31.3382 20.3359M46.0049 31.3359L38.6715 20.3359" stroke="white" stroke-width="3.66667" stroke-linecap="round"/>
<defs>
<linearGradient id="paint0_linear_875_3250" x1="35" y1="0" x2="35" y2="70" gradientUnits="userSpaceOnUse">
<stop stop-color="#353841"/>
<stop offset="1" stop-color="#262935"/>
</linearGradient>
</defs>
</svg>
