<svg width="300" height="316" viewBox="0 0 300 316" fill="none" xmlns="http://www.w3.org/2000/svg">
<circle cx="258.5" cy="33.5" r="24.5" fill="url(#paint0_linear_24_71)"/>
<circle cx="25" cy="291" r="25" fill="url(#paint1_linear_24_71)"/>
<circle cx="150" cy="150" r="150" fill="white"/>
<path d="M90.6612 246.2H83L101.288 203H107.961L126.249 246.2H118.155L113.645 235.185H95.1714L90.6612 246.2ZM110.741 228.108L104.439 212.785L98.0752 228.108H110.741Z" fill="#292929"/>
<path d="M167.634 246.2H141.994V203.123H167.016V210.2H149.593V220.908H165.163V227.985H149.593V239.123H167.634V246.2Z" fill="#292929"/>
<path d="M207.188 210.2H184.513V203.123H217.382V208.354L193.41 239.123H218V246.2H183.278V241.031L207.188 210.2Z" fill="#292929"/>
<path fill-rule="evenodd" clip-rule="evenodd" d="M180.893 88.8114C180.894 88.8101 180.895 88.8088 180.896 88.8075C190.034 72.9652 184.611 52.7078 168.783 43.5613C152.956 34.4147 132.718 39.8427 123.58 55.685C122.948 56.7801 122.386 57.8963 121.892 59.0285C120.04 63.0438 117.392 70.0087 117.907 76.1249C118.19 79.4774 118.515 83.6279 118.813 87.557C119.418 95.5101 115.154 103.035 108.005 106.556C104.36 108.351 100.492 110.235 97.3907 111.694C91.8398 114.306 87.137 120.086 84.5896 123.699C83.8592 124.691 83.1766 125.734 82.5466 126.826C73.4087 142.668 78.8316 162.925 94.6589 172.072C110.485 181.218 130.722 175.791 139.861 159.951L139.863 159.952C139.863 159.952 139.902 159.883 139.975 159.752C140.814 158.274 141.527 156.759 142.118 155.218C143.73 151.317 145.604 145.476 145.536 139.517C145.499 136.294 145.269 132.643 144.969 129.138C144.213 120.32 148.873 111.804 156.927 108.149C160.138 106.692 163.395 105.198 166.053 103.948C171.742 101.271 176.541 95.2655 179.041 91.6763C179.631 90.8582 180.189 90.0062 180.713 89.1209C180.834 88.9215 180.896 88.813 180.896 88.813L180.893 88.8114Z" fill="url(#paint2_linear_24_71)"/>
<path fill-rule="evenodd" clip-rule="evenodd" d="M214.157 122.677C219.782 112.924 216.444 100.454 206.7 94.8232C196.957 89.1924 184.498 92.534 178.872 102.287C178.484 102.96 178.138 103.646 177.835 104.342C176.694 106.814 175.064 111.101 175.381 114.867C175.529 116.612 175.725 118.732 175.926 120.831C176.465 126.45 173.413 131.807 168.295 134.179C166.337 135.087 164.36 136.007 162.751 136.764C159.364 138.358 156.49 141.867 154.912 144.095C154.446 144.724 154.011 145.385 153.61 146.08C147.985 155.833 151.323 168.304 161.067 173.934C170.81 179.565 183.27 176.224 188.895 166.471L188.898 166.472C188.898 166.472 188.944 166.392 189.026 166.241C189.503 165.389 189.912 164.517 190.256 163.632C191.255 161.23 192.432 157.598 192.39 153.893C192.366 151.786 192.29 149.434 192.199 147.228C191.988 142.108 194.632 137.256 199.181 134.905C201.177 133.873 203.267 132.82 205.021 131.995C208.504 130.356 211.445 126.691 212.991 124.477C213.372 123.952 213.731 123.404 214.066 122.834C214.127 122.732 214.159 122.678 214.159 122.678L214.157 122.677Z" fill="url(#paint3_linear_24_71)"/>
<path d="M208.76 175.138C215.229 178.877 223.502 176.658 227.237 170.183C230.972 163.707 228.756 155.427 222.286 151.688C215.817 147.949 207.544 150.168 203.809 156.644C200.074 163.119 202.29 171.4 208.76 175.138Z" fill="url(#paint4_linear_24_71)"/>
<g filter="url(#filter0_f_24_71)">
<path d="M159.732 54.7329C164.574 57.2486 169.587 57.195 170.929 54.6131C172.271 52.0313 169.433 47.8989 164.592 45.3832C159.75 42.8675 154.737 42.9211 153.395 45.503C152.053 48.0848 154.891 52.2172 159.732 54.7329Z" fill="#BCA9FF"/>
</g>
<g filter="url(#filter1_f_24_71)">
<path d="M202.08 103.926C205.937 105.93 209.93 105.887 210.999 103.83C212.068 101.773 209.808 98.4814 205.951 96.4773C202.094 94.4732 198.1 94.516 197.031 96.5727C195.962 98.6295 198.222 101.921 202.08 103.926Z" fill="#BCA9FF"/>
</g>
<g filter="url(#filter2_f_24_71)">
<path d="M217.228 159.251C221.085 161.255 225.079 161.213 226.148 159.156C227.217 157.099 224.957 153.807 221.1 151.803C217.243 149.799 213.249 149.842 212.18 151.898C211.111 153.955 213.371 157.247 217.228 159.251Z" fill="#BCA9FF"/>
</g>
<defs>
<filter id="filter0_f_24_71" x="146.477" y="36.9455" width="31.37" height="26.2252" filterUnits="userSpaceOnUse" color-interpolation-filters="sRGB">
<feFlood flood-opacity="0" result="BackgroundImageFix"/>
<feBlend mode="normal" in="SourceGraphic" in2="BackgroundImageFix" result="shape"/>
<feGaussianBlur stdDeviation="3.29275" result="effect1_foregroundBlur_24_71"/>
</filter>
<filter id="filter1_f_24_71" x="190.181" y="88.4162" width="27.6687" height="23.5704" filterUnits="userSpaceOnUse" color-interpolation-filters="sRGB">
<feFlood flood-opacity="0" result="BackgroundImageFix"/>
<feBlend mode="normal" in="SourceGraphic" in2="BackgroundImageFix" result="shape"/>
<feGaussianBlur stdDeviation="3.29275" result="effect1_foregroundBlur_24_71"/>
</filter>
<filter id="filter2_f_24_71" x="205.33" y="143.742" width="27.6687" height="23.5704" filterUnits="userSpaceOnUse" color-interpolation-filters="sRGB">
<feFlood flood-opacity="0" result="BackgroundImageFix"/>
<feBlend mode="normal" in="SourceGraphic" in2="BackgroundImageFix" result="shape"/>
<feGaussianBlur stdDeviation="3.29275" result="effect1_foregroundBlur_24_71"/>
</filter>
<linearGradient id="paint0_linear_24_71" x1="275.437" y1="10.5848" x2="252.536" y2="61.3641" gradientUnits="userSpaceOnUse">
<stop stop-color="#B8A4FF"/>
<stop offset="0.411458" stop-color="#8D71F0"/>
<stop offset="1" stop-color="#412E83"/>
</linearGradient>
<linearGradient id="paint1_linear_24_71" x1="42.2828" y1="267.617" x2="18.9139" y2="319.433" gradientUnits="userSpaceOnUse">
<stop stop-color="#B8A4FF"/>
<stop offset="0.411458" stop-color="#8D71F0"/>
<stop offset="1" stop-color="#412E83"/>
</linearGradient>
<linearGradient id="paint2_linear_24_71" x1="168.785" y1="43.562" x2="94.5544" y2="172.012" gradientUnits="userSpaceOnUse">
<stop stop-color="#B8A4FF"/>
<stop offset="0.411458" stop-color="#8D71F0"/>
<stop offset="1" stop-color="#412E83"/>
</linearGradient>
<linearGradient id="paint3_linear_24_71" x1="206.7" y1="94.8232" x2="161.004" y2="173.898" gradientUnits="userSpaceOnUse">
<stop stop-color="#B8A4FF"/>
<stop offset="0.411458" stop-color="#8D71F0"/>
<stop offset="1" stop-color="#412E83"/>
</linearGradient>
<linearGradient id="paint4_linear_24_71" x1="227.237" y1="170.183" x2="213.692" y2="193.622" gradientUnits="userSpaceOnUse">
<stop stop-color="#B8A4FF"/>
<stop offset="0.411458" stop-color="#8D71F0"/>
<stop offset="1" stop-color="#412E83"/>
</linearGradient>
</defs>
</svg>
