<svg width="96" height="96" viewBox="0 0 96 96" fill="none" xmlns="http://www.w3.org/2000/svg">
<circle cx="48" cy="48" r="48" fill="url(#paint0_linear_432_849)"/>
<path d="M74.6816 28.7836C67.2167 35.4125 58.2587 46.6099 47.8078 62.3759L42.657 70.3933C38.3571 65.0185 31.4297 57.5535 21.8745 47.9984L26.667 43.2059L39.4769 54.4033C43.9559 49.9244 48.1213 45.8709 51.9732 42.2429C55.8251 38.6149 58.8932 35.8156 61.1775 33.8448C63.4618 31.8741 65.4251 30.2169 67.0674 28.8732C68.7097 27.5295 69.8593 26.6486 70.5162 26.2306L71.4568 25.6035C71.5762 25.6035 71.7404 25.6334 71.9495 25.6931C72.1585 25.7528 72.5467 26.0439 73.114 26.5665C73.6813 27.089 74.2039 27.8281 74.6816 28.7836Z" fill="white"/>
<defs>
<linearGradient id="paint0_linear_432_849" x1="48" y1="0" x2="48" y2="96" gradientUnits="userSpaceOnUse">
<stop stop-color="#9679FC"/>
<stop offset="1" stop-color="#7658E0"/>
</linearGradient>
</defs>
</svg>
