<svg width="18" height="18" viewBox="0 0 18 18" fill="none" xmlns="http://www.w3.org/2000/svg">
<path d="M4.0683 7.88284C5.3883 10.4757 7.515 12.5921 10.1092 13.9206L12.1258 11.9049C12.3733 11.6576 12.74 11.5751 13.0608 11.685C14.0875 12.024 15.1967 12.2073 16.3333 12.2073C16.8375 12.2073 17.25 12.6196 17.25 13.1235V16.321C17.25 16.8249 16.8375 17.2372 16.3333 17.2372C7.7258 17.2372 0.75 10.2649 0.75 1.66182C0.75 1.15791 1.1625 0.745605 1.6667 0.745605H4.875C5.3792 0.745605 5.7917 1.15791 5.7917 1.66182C5.7917 2.80704 5.975 3.90654 6.3142 4.93264C6.415 5.25334 6.3417 5.61064 6.085 5.86724L4.0683 7.88284Z" fill="#412E83"/>
</svg>
