<svg xmlns="http://www.w3.org/2000/svg" xmlns:xlink="http://www.w3.org/1999/xlink" width="14" height="14" viewBox="0 0 14 14"><defs><path id="e7lja" d="M1279.13 72.95h2.43v7.22h-2.43zm10.71 3.11v4.1h-2.41v-3.93c0-.81-.23-1.62-1.13-1.62-.91 0-1.3.8-1.3 1.64v3.92h-2.41v-7.22h2.42v.97c.64-.85 1.19-1.2 2.2-1.2 1 0 2.63.5 2.63 3.34zm-8.14-5.45c0 .7-.6 1.27-1.35 1.27-.75 0-1.35-.57-1.35-1.27 0-.7.6-1.28 1.35-1.28.75 0 1.35.57 1.35 1.28z"/></defs><g><g transform="translate(-1277 -68)"><use fill="#80828c" xlink:href="#e7lja"/></g></g></svg>