<svg xmlns="http://www.w3.org/2000/svg" xmlns:xlink="http://www.w3.org/1999/xlink" width="15" height="13" viewBox="0 0 15 13"><defs><path id="u8uea" d="M1181.82 73.53c1.03-.72 2.5-2.21 3.64-2.21 1.13 0 1.41 1.09 1.57 2.16.16 1.07.6 3.42 1.2 3.42.61 0 1.98-2.08 1.9-2.88-.07-.8-1.07-.68-1.61-.45.5-1.6 1.66-2.57 3.15-2.57 1.48 0 1.84 1.04 1.84 2.17 0 1.73-3.98 7-6.38 7-1.49 0-1.85-1.92-2.15-2.87-.3-.95-.9-3.45-1.6-3.6-.26-.05-1.02.48-1.02.48z"/></defs><g><g transform="translate(-1180 -69)"><use fill="#80828c" xlink:href="#u8uea"/></g></g></svg>