<svg width="56" height="56" viewBox="0 0 56 56" version="1.1" xmlns="http://www.w3.org/2000/svg" xmlns:xlink="http://www.w3.org/1999/xlink">
<g id="Canvas" fill="none">
<g id="barn">
<g id="Group">
<g id="Group_2">
<g id="Group_3">
<path id="Vector" d="M 6.53327 0C 2.89328 0 -1.33514e-06 2.89329 -1.33514e-06 6.53327L -1.33514e-06 12.1332L -1.33514e-06 15.8665L -1.33514e-06 55.0664C -1.33514e-06 55.6264 0.373296 55.9997 0.933294 55.9997L 4.66658 55.9997L 8.39986 55.9997L 12.1331 55.9997C 12.6931 55.9997 13.0664 55.6264 13.0664 55.0664L 13.0664 15.8665L 13.0664 12.1332L 13.0664 6.53327C 13.0665 2.89329 10.1733 0 6.53327 0ZM 1.86659 13.0667L 11.1998 13.0667L 11.1998 14.9333L 1.86659 14.9333L 1.86659 13.0667ZM 1.86659 6.53327C 1.86659 3.91998 3.91987 1.86659 6.53327 1.86659C 9.14656 1.86659 11.2 3.91988 11.2 6.53327L 11.2 11.2L 1.8667 11.2L 1.8667 6.53327L 1.86659 6.53327ZM 5.59987 54.1331L 5.59987 46.6664L 7.46657 46.6664L 7.46657 54.1331L 5.59987 54.1331ZM 11.1998 54.1331L 9.33315 54.1331L 9.33315 45.7331C 9.33315 45.1731 8.95986 44.7998 8.39986 44.7998L 4.66658 44.7998C 4.10658 44.7998 3.73328 45.1731 3.73328 45.7331L 3.73328 54.1331L 1.86659 54.1331L 1.86659 16.7999L 11.1998 16.7999L 11.1998 54.1331Z" transform="translate(42.9097 0)" fill="white"/>
<path id="Vector_2" d="M 19.5999 -1.46865e-07L 0.933293 -1.46865e-07C 0.373295 -1.46865e-07 3.53812e-07 0.373296 3.53812e-07 0.933294L 3.53812e-07 10.2667C 3.53812e-07 10.8267 0.373295 11.2 0.933293 11.2L 5.59998 11.2L 14.9332 11.2L 19.5999 11.2C 20.1599 11.2 20.5332 10.8267 20.5332 10.2667L 20.5332 0.933402C 20.5332 0.373404 20.1599 -1.46865e-07 19.5999 -1.46865e-07ZM 6.62657 9.33337C 6.90657 7.84008 7.93327 6.62668 9.42656 6.06668L 10.2666 5.69338L 11.1065 5.97338C 12.5998 6.62668 13.6265 7.84008 13.9065 9.33337L 6.62657 9.33337ZM 18.6665 9.33337L 15.7044 9.33337C 15.3769 7.10858 13.8932 5.19595 11.7598 4.29339L 10.5466 3.82669C 10.3598 3.73339 10.0799 3.73339 9.89326 3.82669L 8.67997 4.29339C 6.54541 5.11436 5.06142 7.09086 4.73493 9.33337L 1.8667 9.33337L 1.8667 1.8667L 18.6666 1.8667L 18.6666 9.33337L 18.6665 9.33337Z" transform="translate(10.243 26.1333)" fill="white"/>
<path id="Vector_3" d="M 38.0563 24.64C 37.9891 24.5504 37.9001 24.4775 37.799 24.4215L 32.3629 17.1734C 32.3629 17.0801 32.2696 17.0801 32.1762 16.9866L 29.8429 15.4311L 29.8429 5.97351L 31.0562 7.1868C 31.2429 7.3735 31.4295 7.4668 31.7095 7.4668C 31.9895 7.4668 32.1762 7.3735 32.3628 7.1868C 32.7361 6.8135 32.7361 6.2535 32.3628 5.8801L 30.2161 3.73341L 32.3628 1.58671C 32.7361 1.21342 32.7361 0.653417 32.3628 0.280013C 31.9895 -0.0933921 31.4295 -0.0932827 31.0561 0.280013L 28.9096 2.42682L 26.7629 0.280122C 26.3896 -0.0931734 25.8296 -0.0931734 25.4562 0.280122C 25.0829 0.653417 25.0829 1.21342 25.4562 1.58682L 27.6029 3.73351L 25.4562 5.88021C 25.0829 6.2535 25.0829 6.8135 25.4562 7.18691C 25.6429 7.37361 25.8295 7.46691 26.1095 7.46691C 26.3895 7.46691 26.5762 7.37361 26.7628 7.18691L 27.9761 5.97362L 27.9761 14.1869L 20.9761 9.5202C 20.6961 9.33349 20.2294 9.33349 19.9494 9.5202L 8.74948 16.9869C 8.74948 16.9869 8.65618 17.0802 8.56278 17.1736L 2.9628 24.6402L 0.162812 28.3735C -0.117187 28.7468 -0.0238905 29.4002 0.349514 29.6802C 0.536217 29.7735 0.72281 29.8669 0.909512 29.8669C 1.18951 29.8669 1.46951 29.7736 1.65621 29.4936L 2.77621 28.0003L 2.77621 51.3335C 2.77621 51.8935 3.1495 52.2668 3.7095 52.2668L 11.1762 52.2668L 20.5094 52.2668L 29.8427 52.2668L 37.3094 52.2668C 37.8694 52.2668 38.2427 51.8935 38.1494 51.3335L 38.1494 27.8757L 39.3627 29.4934C 39.5494 29.7734 39.8294 29.8667 40.1094 29.8667C 40.2961 29.8667 40.4827 29.8667 40.6694 29.68C 41.0427 29.4 41.1361 28.7467 40.8561 28.3733L 38.0563 24.64ZM 14.6964 44.7999L 12.1097 48.4212L 12.1097 41.1786L 14.6964 44.7999ZM 15.8431 46.4053L 18.6964 50.4L 12.9897 50.4L 15.8431 46.4053ZM 24.0297 44.7999L 21.4429 48.4212L 21.4429 41.1786L 24.0297 44.7999ZM 19.5764 48.4213L 16.9897 44.8001L 19.5764 41.1788L 19.5764 48.4213ZM 25.1763 46.4053L 28.0297 50.4L 22.3231 50.4L 25.1763 46.4053ZM 28.9096 48.4213L 26.323 44.8001L 28.9096 41.1788L 28.9096 48.4213ZM 25.1763 43.1947L 22.323 39.2L 28.0296 39.2L 25.1763 43.1947ZM 15.8431 43.1947L 12.9897 39.2L 18.6963 39.2L 15.8431 43.1947ZM 36.3763 50.3999L 30.7763 50.3999L 30.7763 38.4326C 30.8085 38.269 30.7899 38.1067 30.7337 37.9588C 30.6508 37.6752 30.4498 37.4704 30.1697 37.3823C 30.0053 37.3144 29.8372 37.3019 29.6797 37.3334L 20.7286 37.3334C 20.5499 37.2756 20.3709 37.2773 20.2089 37.3334L 11.1764 37.3334C 10.6164 37.3334 10.2431 37.7067 10.2431 38.2667L 10.2431 50.3999L 4.64312 50.3999L 4.64312 25.48L 9.9631 18.3868L 20.5098 11.3868L 28.1688 16.4703C 28.2755 16.6062 28.4228 16.705 28.6012 16.7572L 31.0564 18.3868L 36.3764 25.48L 36.3764 50.3999L 36.3763 50.3999Z" transform="translate(0 3.73315)" fill="white"/>
<path id="Vector_4" d="M 0.933294 5.59987L 4.66658 5.59987C 5.22657 5.59987 5.59987 5.22657 5.59987 4.66658L 5.59987 0.933292C 5.59987 0.373295 5.22657 4.40596e-07 4.66658 4.40596e-07L 0.933294 4.40596e-07C 0.373296 4.40596e-07 1.52206e-06 0.373295 1.52206e-06 0.933292L 1.52206e-06 4.66658C 1.52206e-06 5.22657 0.373296 5.59987 0.933294 5.59987ZM 1.86659 1.86659L 3.73328 1.86659L 3.73328 3.73328L 1.86659 3.73328L 1.86659 1.86659Z" transform="translate(46.6429 19.6001)" fill="white"/>
<path id="Vector_5" d="M 0.933294 5.59987L 4.66658 5.59987C 5.22657 5.59987 5.59987 5.22657 5.59987 4.66657L 5.59987 0.933293C 5.59987 0.373295 5.22657 7.7438e-07 4.66658 7.7438e-07L 0.933294 7.7438e-07C 0.373296 7.7438e-07 1.52206e-06 0.373295 1.52206e-06 0.933293L 1.52206e-06 4.66657C 1.52206e-06 5.22657 0.373296 5.59987 0.933294 5.59987ZM 1.86659 1.86658L 3.73328 1.86658L 3.73328 3.73328L 1.86659 3.73328L 1.86659 1.86658Z" transform="translate(46.6429 28)" fill="white"/>
<path id="Vector_6" d="M 0.933294 5.59987L 4.66658 5.59987C 5.22657 5.59987 5.59987 5.22657 5.59987 4.66658L 5.59987 0.933295C 5.59987 0.373297 5.22657 -5.60758e-07 4.66658 -5.60758e-07L 0.933294 -5.60758e-07C 0.373296 -5.60758e-07 1.52206e-06 0.373297 1.52206e-06 0.933295L 1.52206e-06 4.66658C 1.52206e-06 5.22657 0.373296 5.59987 0.933294 5.59987ZM 1.86659 1.86659L 3.73328 1.86659L 3.73328 3.73328L 1.86659 3.73328L 1.86659 1.86659Z" transform="translate(46.6429 36.3999)" fill="white"/>
</g>
</g>
</g>
</g>
</g>
</svg>
