<svg width="56" height="56" viewBox="0 0 56 56" version="1.1" xmlns="http://www.w3.org/2000/svg" xmlns:xlink="http://www.w3.org/1999/xlink">
<g id="Canvas" fill="none">
<g id="building">
<g id="Group">
<g id="Group_2">
<g id="Group_3">
<path id="Vector" d="M 27.0666 4.80652e-07L 0.933297 4.80652e-07C 0.418141 4.80652e-07 3.13759e-07 0.41814 3.13759e-07 0.933296L 3.13759e-07 2.8C 3.13759e-07 3.31516 0.418141 3.7333 0.933297 3.7333C 1.44845 3.7333 1.86659 3.31516 1.86659 2.8L 1.86659 1.8667L 27.0666 1.8667C 27.5818 1.8667 27.9999 1.44856 27.9999 0.933406C 27.9999 0.41825 27.5819 4.80652e-07 27.0666 4.80652e-07Z" transform="translate(13.0667 52.2666)" fill="white"/>
<path id="Vector_2" d="M 1.8692e-07 6.5333C 1.8692e-07 7.04845 0.418141 7.46659 0.933298 7.46659L 4.6667 7.46659C 5.18186 7.46659 5.6 7.04845 5.6 6.5333L 5.6 0.933296C 5.6 0.41814 5.18186 6.67572e-07 4.6667 6.67572e-07L 0.933406 6.67572e-07C 0.41825 6.67572e-07 0.000108667 0.41814 0.000108667 0.933296L 0.000108667 6.5333L 1.8692e-07 6.5333ZM 1.8667 1.8667L 3.73341 1.8667L 3.73341 5.6L 1.8667 5.6L 1.8667 1.8667Z" transform="translate(20.5333 16.8)" fill="white"/>
<path id="Vector_3" d="M 12.1333 1.66893e-07L 0.933297 1.66893e-07C 0.418141 1.66893e-07 0 0.418141 0 0.933297L 0 19.6C 0 20.1152 0.418141 20.5333 0.933297 20.5333C 1.44845 20.5333 1.86659 20.1152 1.86659 19.6L 1.86659 1.8667L 12.1333 1.8667C 12.6485 1.8667 13.0666 1.44856 13.0666 0.933406C 13.0666 0.41825 12.6486 1.66893e-07 12.1333 1.66893e-07Z" transform="translate(0 11.2)" fill="white"/>
<path id="Vector_4" d="M 6.67572e-07 6.5333C 6.67572e-07 7.04845 0.41814 7.46659 0.933296 7.46659L 4.66659 7.46659C 5.18175 7.46659 5.59989 7.04845 5.59989 6.5333L 5.59989 0.933298C 5.59989 0.418142 5.18175 -6.67572e-07 4.66659 -6.67572e-07L 0.933296 -6.67572e-07C 0.41814 -6.67572e-07 6.67572e-07 0.418142 6.67572e-07 0.933298L 6.67572e-07 6.5333ZM 1.8667 1.8667L 3.73341 1.8667L 3.73341 5.6L 1.8667 5.6L 1.8667 1.8667Z" transform="translate(44.8 39.2)" fill="white"/>
<path id="Vector_5" d="M 4.6667 1.33514e-06C 0.0531563 1.33514e-06 0 12.012 0 12.1333C 0 14.3873 1.60628 16.2717 3.7333 16.7057L 3.7333 21.4667C 3.7333 21.9819 4.15144 22.4 4.66659 22.4C 5.18175 22.4 5.59989 21.9819 5.59989 21.4667L 5.59989 16.7057C 7.72691 16.2717 9.33319 14.3873 9.33319 12.1333C 9.3333 12.012 9.28014 1.33514e-06 4.6667 1.33514e-06ZM 4.6667 14.9333C 3.12298 14.9333 1.8667 13.677 1.8667 12.1333C 1.8667 7.48344 3.11555 1.86659 4.6667 1.86659C 6.21786 1.86659 7.4667 7.48344 7.4667 12.1333C 7.4667 13.677 6.21042 14.9333 4.6667 14.9333Z" transform="translate(0 33.6001)" fill="white"/>
<path id="Vector_6" d="M 4.6667 0L 0.933297 0C 0.418141 0 8.34465e-08 0.418139 8.34465e-08 0.933296L 8.34465e-08 2.8C 8.34465e-08 3.31516 0.418141 3.7333 0.933297 3.7333C 1.44845 3.7333 1.86659 3.31516 1.86659 2.8L 1.86659 1.8667L 3.7333 1.8667L 3.7333 6.53341C 3.7333 7.04856 4.15144 7.4667 4.66659 7.4667C 5.18175 7.4667 5.59989 7.04856 5.59989 6.53341L 5.59989 0.933406C 5.6 0.41814 5.18186 0 4.6667 0Z" transform="translate(5.59998 28)" fill="white"/>
<path id="Vector_7" d="M 0.933296 7.46659L 4.66659 7.46659C 5.18175 7.46659 5.59989 7.04845 5.59989 6.5333L 5.59989 0.933297C 5.59989 0.418141 5.18175 -2.26974e-07 4.66659 -2.26974e-07L 0.933296 -2.26974e-07C 0.41814 -2.26974e-07 6.67572e-07 0.418141 6.67572e-07 0.933297L 6.67572e-07 6.5333C 6.67572e-07 7.04845 0.41814 7.46659 0.933296 7.46659ZM 1.8667 1.86659L 3.73341 1.86659L 3.73341 5.59989L 1.8667 5.59989L 1.8667 1.86659Z" transform="translate(44.8 16.8)" fill="white"/>
<path id="Vector_8" d="M 4.6667 6.67572e-07L 0.933297 6.67572e-07C 0.418141 6.67572e-07 8.34465e-08 0.41814 8.34465e-08 0.933296L 8.34465e-08 6.5333C 8.34465e-08 7.04845 0.418141 7.46659 0.933297 7.46659L 4.66659 7.46659C 5.18175 7.46659 5.59989 7.04845 5.59989 6.5333L 5.59989 0.933296C 5.6 0.41814 5.18186 6.67572e-07 4.6667 6.67572e-07ZM 3.7333 5.6L 1.8667 5.6L 1.8667 1.8667L 3.73341 1.8667L 3.73341 5.6L 3.7333 5.6Z" transform="translate(5.59998 16.8)" fill="white"/>
<path id="Vector_9" d="M -1.52206e-06 6.5333C -1.52206e-06 7.04845 0.418141 7.46659 0.933298 7.46659L 4.66659 7.46659C 5.18175 7.46659 5.59989 7.04845 5.59989 6.5333L 5.59989 0.933296C 5.59989 0.41814 5.18175 6.67572e-07 4.66659 6.67572e-07L 0.933298 6.67572e-07C 0.418141 6.67572e-07 -1.52206e-06 0.41814 -1.52206e-06 0.933296L -1.52206e-06 6.5333ZM 1.86659 1.8667L 3.7333 1.8667L 3.7333 5.6L 1.86659 5.6L 1.86659 1.8667Z" transform="translate(29.8667 16.8)" fill="white"/>
<path id="Vector_10" d="M 12.1333 1.66893e-07L 0.933295 1.66893e-07C 0.418139 1.66893e-07 -3.7384e-07 0.418141 -3.7384e-07 0.933297C -3.7384e-07 1.44845 0.418139 1.86659 0.933295 1.86659L 11.2 1.86659L 11.2 39.3717C 10.907 39.2672 10.5961 39.2 10.2667 39.2C 10.1053 39.2 9.94471 39.214 9.78699 39.242C 9.14299 38.0819 7.91755 37.3333 6.53341 37.3333C 5.14927 37.3333 3.92383 38.0819 3.27983 39.242C 3.12211 39.214 2.96155 39.2 2.80011 39.2C 1.25639 39.2 0.000109776 40.4563 0.000109776 42C 0.000109776 43.5437 1.25639 44.8 2.80011 44.8L 10.2666 44.8C 11.8103 44.8 13.0666 43.5437 13.0666 42L 13.0666 0.933297C 13.0666 0.418141 12.6485 1.66893e-07 12.1333 1.66893e-07ZM 10.2666 42.9333L 2.79989 42.9333C 2.28561 42.9333 1.86659 42.5143 1.86659 42C 1.86659 41.4857 2.28561 41.0667 2.79989 41.0667C 2.97905 41.0667 3.14891 41.118 3.30575 41.2188C 3.56147 41.3831 3.88074 41.413 4.16259 41.2991C 4.44445 41.1853 4.65259 40.9407 4.72074 40.6448C 4.91772 39.7946 5.66344 39.2 6.5333 39.2C 7.40316 39.2 8.14887 39.7946 8.34586 40.6448C 8.414 40.9407 8.62214 41.1853 8.904 41.2991C 9.18498 41.413 9.50502 41.3831 9.76084 41.2188C 10.3684 40.8268 11.2 41.3066 11.2 42C 11.1999 42.5143 10.7809 42.9333 10.2666 42.9333Z" transform="translate(42.9333 11.2)" fill="white"/>
<path id="Vector_11" d="M 0.933298 7.46659L 4.66659 7.46659C 5.18175 7.46659 5.59989 7.04845 5.59989 6.5333L 5.59989 0.933297C 5.59989 0.418141 5.18175 2.3365e-08 4.66659 2.3365e-08L 0.933298 2.3365e-08C 0.418141 2.3365e-08 -1.52206e-06 0.418141 -1.52206e-06 0.933297L -1.52206e-06 6.5333C -1.52206e-06 7.04845 0.418141 7.46659 0.933298 7.46659ZM 1.86659 1.86659L 3.7333 1.86659L 3.7333 5.59989L 1.86659 5.59989L 1.86659 1.86659Z" transform="translate(29.8667 5.6001)" fill="white"/>
<path id="Vector_12" d="M -1.52206e-06 6.5333C -1.52206e-06 7.04845 0.418141 7.46659 0.933298 7.46659L 4.66659 7.46659C 5.18175 7.46659 5.59989 7.04845 5.59989 6.5333L 5.59989 0.933296C 5.59989 0.418139 5.18175 0 4.66659 0L 0.933298 0C 0.418141 0 -1.52206e-06 0.418139 -1.52206e-06 0.933296L -1.52206e-06 6.5333ZM 1.86659 1.8667L 3.7333 1.8667L 3.7333 5.6L 1.86659 5.6L 1.86659 1.8667Z" transform="translate(29.8667 28)" fill="white"/>
<path id="Vector_13" d="M 0.933297 7.46659L 4.66659 7.46659C 5.18175 7.46659 5.59989 7.04845 5.59989 6.5333L 5.59989 0.933297C 5.59989 0.418141 5.18175 2.3365e-08 4.66659 2.3365e-08L 0.933297 2.3365e-08C 0.41814 2.3365e-08 -6.86174e-07 0.418141 -6.86174e-07 0.933297L -6.86174e-07 6.5333C -0.000110061 7.04845 0.418031 7.46659 0.933297 7.46659ZM 1.86659 1.86659L 3.7333 1.86659L 3.7333 5.59989L 1.86659 5.59989L 1.86659 1.86659Z" transform="translate(20.5334 5.6001)" fill="white"/>
<path id="Vector_14" d="M 0.270702 0.259056C 0.102702 0.436353 3.7384e-07 0.679055 3.7384e-07 0.921758C 3.7384e-07 1.16446 0.102702 1.40705 0.270702 1.58446C 0.447999 1.75246 0.690703 1.85516 0.933406 1.85516C 1.17611 1.85516 1.4187 1.75246 1.59611 1.58446C 1.76411 1.40716 1.86681 1.16446 1.86681 0.921758C 1.86681 0.679055 1.76411 0.436462 1.59611 0.259056C 1.24141 -0.0863502 0.625406 -0.0863502 0.270702 0.259056Z" transform="translate(27.0667 44.8118)" fill="white"/>
<path id="Vector_15" d="M 1.8692e-07 6.5333C 1.8692e-07 7.04845 0.418141 7.46659 0.933298 7.46659L 4.6667 7.46659C 5.18186 7.46659 5.6 7.04845 5.6 6.5333L 5.6 0.933296C 5.6 0.418139 5.18186 0 4.6667 0L 0.933406 0C 0.41825 0 0.000108667 0.418139 0.000108667 0.933296L 0.000108667 6.5333L 1.8692e-07 6.5333ZM 1.8667 1.8667L 3.73341 1.8667L 3.73341 5.6L 1.8667 5.6L 1.8667 1.8667Z" transform="translate(20.5333 28)" fill="white"/>
<path id="Vector_16" d="M 8.14438e-07 0.933298C 8.14438e-07 1.44845 0.41814 1.86659 0.933297 1.86659L 3.7333 1.86659L 3.7333 10.2666C 3.7333 10.7817 4.15144 11.1999 4.66659 11.1999C 5.18175 11.1999 5.59989 10.7817 5.59989 10.2666L 5.59989 1.86659L 13.0666 1.86659L 13.0666 10.2666C 13.0666 10.7817 13.4847 11.1999 13.9999 11.1999C 14.515 11.1999 14.9332 10.7817 14.9332 10.2666L 14.9332 1.86659L 17.7332 1.86659C 18.2483 1.86659 18.6665 1.44845 18.6665 0.933298C 18.6665 0.418142 18.2483 -6.67572e-07 17.7332 -6.67572e-07L 0.933297 -6.67572e-07C 0.41814 -6.67572e-07 8.14438e-07 0.418142 8.14438e-07 0.933298Z" transform="translate(18.6667 39.2)" fill="white"/>
<path id="Vector_17" d="M 6.67572e-07 6.5333C 6.67572e-07 7.04845 0.41814 7.46659 0.933296 7.46659L 4.66659 7.46659C 5.18175 7.46659 5.59989 7.04845 5.59989 6.5333L 5.59989 0.933296C 5.59989 0.418139 5.18175 0 4.66659 0L 0.933296 0C 0.41814 0 6.67572e-07 0.418139 6.67572e-07 0.933296L 6.67572e-07 6.5333ZM 1.8667 1.8667L 3.73341 1.8667L 3.73341 5.6L 1.8667 5.6L 1.8667 1.8667Z" transform="translate(44.8 28)" fill="white"/>
<path id="Vector_18" d="M 25.1999 0L 0.933297 0C 0.418141 0 -3.7384e-07 0.418141 -3.7384e-07 0.933297L -3.7384e-07 49.4666C -3.7384e-07 49.9818 0.418141 50.3999 0.933297 50.3999C 1.44845 50.3999 1.86659 49.9818 1.86659 49.4666L 1.86659 1.86659L 24.2666 1.86659L 24.2666 49.4666C 24.2666 49.9818 24.6847 50.3999 25.1999 50.3999C 25.715 50.3999 26.1332 49.9818 26.1332 49.4666L 26.1332 0.933297C 26.1333 0.418141 25.7152 0 25.1999 0Z" transform="translate(14.9333 0)" fill="white"/>
</g>
</g>
</g>
</g>
</g>
</svg>
