<svg width="56" height="47" viewBox="0 0 56 47" version="1.1" xmlns="http://www.w3.org/2000/svg" xmlns:xlink="http://www.w3.org/1999/xlink">
<g id="Canvas" fill="none">
<g id="hydro-power">
<g id="Group">
<g id="Group_2">
<path id="Vector" d="M 40.1828 0L 0 0L 0 1.71239L 40.1828 1.71239L 40.1828 0Z" transform="translate(7.82648 5.02271)" fill="white"/>
</g>
</g>
<g id="Group_3">
<g id="Group_4">
<path id="Vector_2" d="M 54.0297 37.0914C 53.4218 36.5456 52.6781 35.8816 51.369 35.7542L 51.369 1.71239L 54.2241 1.71239L 54.2241 34.5323L 55.9365 34.5323L 55.9365 2.67031e-08L 49.6566 2.67031e-08L 49.6566 35.9136C 48.8232 36.1743 48.2708 36.6686 47.7999 37.0914C 47.2034 37.6269 46.7726 38.0139 45.8291 38.0139C 45.5527 38.0139 45.3213 37.9799 45.1158 37.9195L 42.304 21.5755L 46.6398 21.5755L 46.6398 19.8631L 42.0093 19.8631L 41.8609 19.0008C 41.5712 17.3176 40.1215 16.096 38.4136 16.096C 36.7057 16.096 35.2559 17.3177 34.9663 19.0008L 34.8178 19.8631L 33.4476 19.8631L 33.4476 13.3562L 43.3791 13.3562L 43.3791 18.2078L 45.0915 18.2078L 45.0915 11.6438L 31.7353 11.6438L 31.7353 19.8631L 30.0869 19.8631L 30.0869 21.5755L 34.5232 21.5755L 32.0438 35.9871C 31.6347 35.8311 31.1548 35.7308 30.5737 35.7308C 28.9745 35.7308 28.1343 36.4853 27.4592 37.0915C 26.8629 37.627 26.4322 38.0139 25.4889 38.0139C 24.7305 38.0139 24.3032 37.7635 23.8549 37.3871L 21.1346 21.5755L 25.6349 21.5755L 25.6349 19.8631L 23.9728 19.8631L 23.9728 11.6438L 10.6163 11.6438L 10.6163 18.2078L 12.3287 18.2078L 12.3287 13.3562L 22.2603 13.3562L 22.2603 19.8631L 20.8398 19.8631L 20.6915 19.0008C 20.4019 17.3176 18.9521 16.096 17.2442 16.096C 15.5363 16.096 14.0865 17.3177 13.7969 19.0008L 13.6486 19.8631L 8.96827 19.8631L 8.96827 21.5755L 13.3544 21.5755L 10.9104 35.7817C 10.7003 35.75 10.4768 35.7309 10.2339 35.7309C 8.63468 35.7309 7.79445 36.4854 7.11938 37.0915C 6.82648 37.3546 6.57327 37.5814 6.27992 37.7445L 6.27992 2.67031e-08L 0 2.67031e-08L 0 32.8199L 1.71239 32.8199L 1.71239 1.71239L 4.56754 1.71239L 4.56754 37.9536C 3.9978 37.8257 3.63664 37.5028 3.17857 37.0915C 2.50361 36.4854 1.66339 35.7308 0.0642036 35.7308L 0.0642036 37.4432C 1.00735 37.4432 1.43818 37.83 2.0345 38.3655C 2.70957 38.9717 3.54968 39.7263 5.14887 39.7263C 6.74805 39.7263 7.58839 38.9718 8.26346 38.3655C 8.85977 37.83 9.2906 37.4432 10.2339 37.4432C 11.1771 37.4432 11.6081 37.83 12.2044 38.3657C 12.8794 38.9718 13.7197 39.7263 15.3189 39.7263C 16.918 39.7263 17.7583 38.9718 18.4333 38.3655C 19.0296 37.83 19.4605 37.4432 20.4037 37.4432C 21.291 37.4432 21.725 37.7855 22.2695 38.2717L 22.2795 38.3302L 22.3259 38.3222C 22.342 38.3367 22.3577 38.3508 22.374 38.3655C 23.0491 38.9717 23.8893 39.7263 25.4886 39.7263C 27.0878 39.7263 27.928 38.9718 28.6031 38.3655C 29.1994 37.83 29.6302 37.4432 30.5734 37.4432C 31.5167 37.4432 31.9476 37.83 32.5439 38.3657C 33.219 38.9718 34.0591 39.7263 35.6583 39.7263C 37.2576 39.7263 38.0978 38.9718 38.7729 38.3657C 39.3693 37.8302 39.8001 37.4432 40.7434 37.4432C 41.6866 37.4432 42.1176 37.83 42.7139 38.3657C 43.389 38.9718 44.2292 39.7263 45.8284 39.7263C 47.4277 39.7263 48.268 38.9718 48.9432 38.3657C 49.5396 37.8302 49.9706 37.4432 50.9141 37.4432C 51.8576 37.4432 52.2886 37.8302 52.8851 38.3657C 53.5602 38.9718 54.4005 39.7263 56 39.7263L 56 38.0139C 55.0571 38.0139 54.6261 37.6269 54.0297 37.0914ZM 20.4038 35.7308C 18.8047 35.7308 17.9644 36.4853 17.2894 37.0915C 16.6931 37.627 16.2622 38.0139 15.319 38.0139C 14.3757 38.0139 13.9448 37.627 13.3484 37.0915C 13.108 36.8755 12.8458 36.6413 12.5366 36.4285L 15.485 19.2911C 15.6328 18.4319 16.3728 17.8082 17.2447 17.8082C 18.1166 17.8082 18.8566 18.4319 19.0045 19.2911L 21.8771 35.9879C 21.4671 35.8316 20.9863 35.7308 20.4038 35.7308ZM 40.7439 35.7308C 39.1446 35.7308 38.3044 36.4853 37.6293 37.0914C 37.033 37.6269 36.6021 38.0139 35.6588 38.0139C 34.7157 38.0139 34.2847 37.627 33.6885 37.0915C 33.661 37.0668 33.6326 37.0416 33.6045 37.0163L 36.654 19.2911C 36.8018 18.4319 37.5418 17.8082 38.4138 17.8082C 39.2856 17.8082 40.0257 18.4319 40.1735 19.2911L 43.1323 36.4882C 42.5608 36.0769 41.8266 35.7308 40.7439 35.7308Z" fill="white"/>
</g>
</g>
<g id="Group_5">
<g id="Group_6">
<path id="Vector_3" d="M 38.7092 1.36074C 38.0341 0.754473 37.1939 8.81202e-07 35.5946 8.81202e-07C 33.9953 8.81202e-07 33.1551 0.754476 32.48 1.36064C 31.8837 1.89614 31.4528 2.28311 30.5095 2.28311C 29.5663 2.28311 29.1354 1.89625 28.5391 1.36074C 27.864 0.754583 27.0238 8.81202e-07 25.4246 8.81202e-07C 23.8255 8.81202e-07 22.9852 0.754473 22.3102 1.36074C 21.7138 1.89625 21.2831 2.28311 20.3399 2.28311C 19.3966 2.28311 18.9657 1.89625 18.3693 1.36064C 17.6943 0.754366 16.8541 8.81202e-07 15.2548 8.81202e-07C 13.6556 8.81202e-07 12.8153 0.754473 12.1403 1.36074C 11.544 1.89625 11.1131 2.28311 10.17 2.28311C 9.22673 2.28311 8.79579 1.89625 8.19947 1.36064C 7.5244 0.754366 6.68418 8.81202e-07 5.08499 8.81202e-07C 3.4857 8.81202e-07 2.64547 0.754473 1.97041 1.36074C 1.37409 1.89625 0.943257 2.28311 2.00273e-08 2.28311L 2.00273e-08 3.9955C 1.59918 3.9955 2.43941 3.24103 3.11448 2.63486C 3.71079 2.09936 4.14163 1.71239 5.08488 1.71239C 6.02814 1.71239 6.45908 2.09925 7.0554 2.63475C 7.73047 3.24102 8.57069 3.9955 10.17 3.9955C 11.7692 3.9955 12.6094 3.24102 13.2845 2.63475C 13.8808 2.09925 14.3116 1.71239 15.2549 1.71239C 16.1981 1.71239 16.6291 2.09925 17.2254 2.63486C 17.9005 3.24103 18.7407 3.9955 20.34 3.9955C 21.9392 3.9955 22.7794 3.24102 23.4545 2.63475C 24.0508 2.09925 24.4816 1.71239 25.4247 1.71239C 26.368 1.71239 26.7988 2.09925 27.3952 2.63475C 28.0702 3.24102 28.9104 3.9955 30.5096 3.9955C 32.1089 3.9955 32.9492 3.24103 33.6242 2.63486C 34.2205 2.09936 34.6515 1.71239 35.5947 1.71239C 36.538 1.71239 36.9689 2.09925 37.5651 2.63486C 38.2402 3.24103 39.0804 3.9955 40.6796 3.9955L 40.6796 2.28311C 39.7365 2.28311 39.3056 1.89625 38.7092 1.36074Z" transform="translate(7.69275 42.0095)" fill="white"/>
</g>
</g>
</g>
</g>
</svg>
