<svg width="56" height="56" viewBox="0 0 56 56" version="1.1" xmlns="http://www.w3.org/2000/svg" xmlns:xlink="http://www.w3.org/1999/xlink">
<g id="Canvas" fill="none">
<g id="refinery">
<g id="Group">
<g id="Group_2">
<g id="Group_3">
<path id="Vector" d="M 3.6129 0L 0 0L 0 1.80645L 3.6129 1.80645L 3.6129 0Z" transform="translate(39.7419 43.3547)" fill="white"/>
<path id="Vector_2" d="M 3.6129 0L 0 0L 0 1.80645L 3.6129 1.80645L 3.6129 0Z" transform="translate(48.7742 43.3547)" fill="white"/>
<path id="Vector_3" d="M 49.6774 18.0645L 41.5484 18.0645L 41.5484 16.2581L 43.3548 16.2581L 43.3548 14.4516L 41.5484 14.4516L 41.5484 12.6452L 43.3548 12.6452L 43.3548 10.8387L 41.5484 10.8387C 41.5423 7.20063 38.835 4.13316 35.2258 3.67523L 35.2258 2.70968C 35.2258 1.21315 34.0127 0 32.5161 0L 19.871 0C 18.3744 0 17.1613 1.21315 17.1613 2.70968L 17.1613 3.67523C 15.7287 3.85632 14.3836 4.46397 13.3009 5.41935L 8.12903 5.41935C 6.6325 5.41935 5.41935 6.6325 5.41935 8.12903L 5.41935 18.9677C 5.41935 20.4643 6.6325 21.6774 8.12903 21.6774L 10.8387 21.6774L 10.8387 25.2903L 9.03226 25.2903L 9.03226 27.0968L 10.8387 27.0968L 10.8387 28.9032L 9.03226 28.9032L 9.03226 30.7097L 10.8387 30.7097L 10.8387 32.5622C 4.7285 33.0375 0.00982258 38.1293 0 44.2581L 0 55.0968C 0 55.5956 0.404419 56 0.903226 56L 55.0968 56C 55.5956 56 56 55.5956 56 55.0968L 56 24.3871C 55.996 20.8969 53.1676 18.0685 49.6774 18.0645ZM 41.5484 30.7097L 43.3548 30.7097L 43.3548 28.9032L 41.5484 28.9032L 41.5484 27.0968L 43.3548 27.0968L 43.3548 25.2903L 41.5484 25.2903L 41.5484 23.4839L 49.6774 23.4839C 50.1762 23.4839 50.5806 23.8883 50.5806 24.3871L 50.5806 39.7419L 48.7742 39.7419L 48.7742 35.2258C 48.7742 33.7293 47.561 32.5161 46.0645 32.5161L 41.5484 32.5161L 41.5484 30.7097ZM 41.5484 34.3226L 46.0645 34.3226C 46.5633 34.3226 46.9677 34.727 46.9677 35.2258L 46.9677 39.7419L 41.5484 39.7419L 41.5484 34.3226ZM 39.7419 10.8387L 28.9032 10.8387C 28.9032 7.84564 31.3295 5.41935 34.3226 5.41935C 37.3156 5.41935 39.7419 7.84564 39.7419 10.8387ZM 28.9032 28.9032L 28.9032 27.0968L 39.7419 27.0968L 39.7419 28.9032L 28.9032 28.9032ZM 39.7419 30.7097L 39.7419 39.7419L 37.0323 39.7419L 28.9032 39.7419L 28.9032 30.7097L 39.7419 30.7097ZM 28.9032 25.2903L 28.9032 16.2581L 39.7419 16.2581L 39.7419 25.2903L 28.9032 25.2903ZM 28.9032 14.4516L 28.9032 12.6452L 39.7419 12.6452L 39.7419 14.4516L 28.9032 14.4516ZM 18.9677 2.70968C 18.9677 2.21087 19.3722 1.80645 19.871 1.80645L 32.5161 1.80645C 33.0149 1.80645 33.4194 2.21087 33.4194 2.70968L 33.4194 3.67523C 29.8102 4.13316 27.1029 7.20063 27.0968 10.8387L 25.2903 10.8387C 25.2842 7.20063 22.5769 4.13316 18.9677 3.67523L 18.9677 2.70968ZM 25.2903 28.9032L 25.2903 27.0968L 27.0968 27.0968L 27.0968 28.9032L 25.2903 28.9032ZM 27.0968 30.7097L 27.0968 39.7419L 25.2903 39.7419L 25.2903 30.7097L 27.0968 30.7097ZM 25.2903 25.2903L 25.2903 16.2581L 27.0968 16.2581L 27.0968 25.2903L 25.2903 25.2903ZM 25.2903 14.4516L 25.2903 12.6452L 27.0968 12.6452L 27.0968 14.4516L 25.2903 14.4516ZM 18.0645 5.41935C 21.0563 5.42229 23.4809 7.84689 23.4839 10.8387L 12.6452 10.8387C 12.6481 7.84689 15.0727 5.42229 18.0645 5.41935ZM 12.6452 12.6452L 23.4839 12.6452L 23.4839 14.4516L 12.6452 14.4516L 12.6452 12.6452ZM 12.6452 16.2581L 23.4839 16.2581L 23.4839 25.2903L 12.6452 25.2903L 12.6452 16.2581ZM 12.6452 27.0968L 23.4839 27.0968L 23.4839 28.9032L 12.6452 28.9032L 12.6452 27.0968ZM 12.6452 30.7097L 23.4839 30.7097L 23.4839 39.7419L 12.6452 39.7419L 12.6452 30.7097ZM 8.12903 19.871C 7.63023 19.871 7.22581 19.4665 7.22581 18.9677L 7.22581 8.12903C 7.22581 7.63023 7.63023 7.22581 8.12903 7.22581L 11.816 7.22581C 11.1762 8.32232 10.8389 9.56911 10.8387 10.8387L 9.03226 10.8387L 9.03226 12.6452L 10.8387 12.6452L 10.8387 14.4516L 9.03226 14.4516L 9.03226 16.2581L 10.8387 16.2581L 10.8387 19.871L 8.12903 19.871ZM 36.129 41.5484L 36.129 43.3548L 10.8387 43.3548L 10.8387 41.5484L 36.129 41.5484ZM 36.129 45.1613L 36.129 50.5806L 28.9032 50.5806L 28.9032 45.1613L 36.129 45.1613ZM 27.0968 45.1613L 27.0968 50.5806L 25.2903 50.5806L 25.2903 45.1613L 27.0968 45.1613ZM 23.4839 45.1613L 23.4839 50.5806L 12.6452 50.5806L 12.6452 45.1613L 23.4839 45.1613ZM 1.80645 44.2581C 1.81323 39.1244 5.72668 34.8396 10.8387 34.3686L 10.8387 39.7419L 9.93548 39.7419C 9.43668 39.7419 9.03226 40.1464 9.03226 40.6452L 9.03226 44.2581C 9.03226 44.7569 9.43668 45.1613 9.93548 45.1613L 10.8387 45.1613L 10.8387 50.5806L 1.80645 50.5806L 1.80645 44.2581ZM 54.1935 54.1935L 1.80645 54.1935L 1.80645 52.3871L 54.1935 52.3871L 54.1935 54.1935ZM 54.1935 50.5806L 37.9355 50.5806L 37.9355 41.5484L 54.1935 41.5484L 54.1935 50.5806ZM 54.1935 39.7419L 52.3871 39.7419L 52.3871 24.3871C 52.3871 22.8906 51.174 21.6774 49.6774 21.6774L 41.5484 21.6774L 41.5484 19.871L 49.6774 19.871C 52.1703 19.8739 54.1906 21.8942 54.1935 24.3871L 54.1935 39.7419Z" fill="white"/>
</g>
</g>
</g>
</g>
</g>
</svg>
