<svg width="56" height="40" viewBox="0 0 56 40" version="1.1" xmlns="http://www.w3.org/2000/svg" xmlns:xlink="http://www.w3.org/1999/xlink">
<g id="Canvas" fill="none">
<g id="steamroller">
<g id="Group">
<g id="Group_2">
<g id="Group_3">
<path id="Vector" d="M 3.24209 3.47137e-07C 1.45447 3.47137e-07 -5.6076e-07 1.45436 -5.6076e-07 3.24209C -5.6076e-07 5.02982 1.45447 6.48418 3.24209 6.48418C 5.02971 6.48418 6.48418 5.02982 6.48418 3.24209C 6.48429 1.45436 5.02982 3.47137e-07 3.24209 3.47137e-07ZM 3.24209 4.71581C 2.42944 4.71581 1.76837 4.05475 1.76837 3.24209C 1.76837 2.42944 2.42944 1.76837 3.24209 1.76837C 4.05475 1.76837 4.71581 2.42944 4.71581 3.24209C 4.71581 4.05464 4.05475 4.71581 3.24209 4.71581Z" transform="translate(37.7262 28.2947)" fill="white"/>
<path id="Vector_2" d="M 55.9066 25.2467L 52.3697 18.173C 52.2199 17.8734 51.9138 17.6842 51.5788 17.6842L 47.7472 17.6842L 47.7472 16.2105C 47.7472 15.7221 47.3515 15.3263 46.863 15.3263L 45.3893 15.3263L 45.3893 11.4946C 45.3893 11.1141 45.1458 10.7762 44.7848 10.6559L 41.2479 9.4769C 40.9779 9.38699 40.6818 9.43217 40.4512 9.59842C 40.2208 9.76466 40.084 10.0315 40.084 10.3158L 40.084 15.3262L 38.6104 15.3262C 38.122 15.3262 37.7263 15.7221 37.7263 16.2103L 37.7263 17.6841L 34.7789 17.6841L 34.7789 7.9579C 34.7789 3.56989 31.209 3.80516e-07 26.821 3.80516e-07L 16.2105 3.80516e-07C 15.722 3.80516e-07 15.3263 0.395938 15.3263 0.884187L 15.3263 18.5684C 15.3263 18.571 15.3274 18.5731 15.3274 18.5757C 15.3291 18.7762 15.3979 18.9744 15.5312 19.1344L 21.221 25.9621L 21.221 28.8842L 19.4527 28.8842L 19.4527 26.821C 19.4527 26.366 19.109 25.9917 18.6671 25.9426C 17.1464 22.3892 13.6301 20.0421 9.72638 20.0421C 5.82268 20.0421 2.30628 22.3893 0.785203 25.9427C 0.343547 25.992 0 26.3662 0 26.8211L 0 32.7159C 0 33.1708 0.343547 33.5451 0.785203 33.5942C 1.50926 35.2861 2.68505 36.7047 4.14083 37.7264L 0.884187 37.7264C 0.395718 37.7264 0 38.1223 0 38.6106C 0 39.0989 0.395828 39.4947 0.884187 39.4947L 48.0421 39.4947C 48.5305 39.4947 48.9262 39.0988 48.9262 38.6106C 48.9262 38.1222 48.5305 37.7264 48.0421 37.7264L 45.9625 37.7264C 47.2525 36.6834 48.2109 35.2467 48.6534 33.6001L 51.5789 33.6001C 51.9138 33.6001 52.2201 33.4109 52.3698 33.1113L 55.9067 26.0376C 56.0311 25.7887 56.0311 25.4956 55.9066 25.2467ZM 41.8526 11.5427L 43.621 12.1321L 43.621 15.3264L 41.8526 15.3264L 41.8526 11.5427ZM 39.4947 17.0948L 45.9789 17.0948L 45.9789 20.0421L 39.4947 20.0421L 39.4947 17.0948ZM 17.0948 1.76848L 26.821 1.76848C 30.2339 1.76848 33.0104 4.54497 33.0104 7.9579L 33.0104 17.6842L 30.0631 17.6842L 30.0631 7.9579C 30.0631 6.17017 28.6087 4.71581 26.821 4.71581L 17.0948 4.71581L 17.0948 1.76848ZM 17.0948 6.48429L 26.821 6.48429C 27.6337 6.48429 28.2947 7.14535 28.2947 7.95801L 28.2947 17.6843L 17.0948 17.6843L 17.0948 6.48429ZM 9.72627 21.8106C 12.6563 21.8106 15.3203 23.4256 16.7012 25.9368L 2.75122 25.9368C 4.13229 23.4256 6.79634 21.8106 9.72627 21.8106ZM 1.76837 27.7053L 17.6842 27.7053L 17.6842 31.8316L 1.76837 31.8316L 1.76837 27.7053ZM 2.75122 33.6001L 16.7013 33.6001C 15.3204 36.1113 12.6562 37.7264 9.72638 37.7264C 6.79656 37.7264 4.13229 36.1113 2.75122 33.6001ZM 15.3118 37.7264C 16.7676 36.7048 17.9432 35.2861 18.6672 33.5942C 19.1091 33.5451 19.4527 33.1707 19.4527 32.7159L 19.4527 30.6528L 21.221 30.6528L 21.221 35.0738C 21.221 35.5622 21.6168 35.958 22.1052 35.958L 33.8946 35.958C 34.0384 35.958 34.1736 35.923 34.2937 35.8622C 34.7532 36.5687 35.3209 37.1982 35.9742 37.7265L 15.3118 37.7265L 15.3118 37.7264ZM 40.9683 37.7264C 37.5555 37.7264 34.7789 34.9499 34.7789 31.5369C 34.7789 28.124 37.5556 25.3475 40.9683 25.3475C 44.3811 25.3475 47.1578 28.124 47.1578 31.5369C 47.1578 34.9499 44.3812 37.7264 40.9683 37.7264ZM 34.7789 26.5428L 34.7789 25.3474L 35.9743 25.3474C 35.5348 25.7027 35.1342 26.1033 34.7789 26.5428ZM 51.0325 31.8316L 48.9187 31.8316C 48.9222 31.7336 48.9262 31.6357 48.9262 31.5368C 48.9262 27.1488 45.3564 23.5789 40.9683 23.5789L 33.8946 23.5789C 33.4062 23.5789 33.0104 23.9749 33.0104 24.4631L 33.0104 34.1894L 22.9894 34.1894L 22.9894 25.6421C 22.9894 25.4352 22.9169 25.2349 22.7845 25.0761L 18.0984 19.4525L 33.8947 19.4525L 37.7264 19.4525L 37.7264 20.9263C 37.7264 21.4146 38.1221 21.8105 38.6105 21.8105L 46.8632 21.8105C 47.3517 21.8105 47.7474 21.4145 47.7474 20.9263L 47.7474 19.4525L 51.0326 19.4525L 54.1274 25.642L 51.0325 31.8316Z" fill="white"/>
</g>
</g>
</g>
</g>
</g>
</svg>
