<?xml version="1.0" standalone="no"?>
<!DOCTYPE svg PUBLIC "-//W3C//DTD SVG 1.1//EN" "http://www.w3.org/Graphics/SVG/1.1/DTD/svg11.dtd" >
<svg xmlns="http://www.w3.org/2000/svg" xmlns:xlink="http://www.w3.org/1999/xlink" version="1.1">
<metadata>
Created by FontForge 20170731 at Fri Apr  1 10:46:25 2022
 By Aleksey,,,
Ivan Tsanko
</metadata>
<defs>
<font id="GlockGrotesque-Regular" horiz-adv-x="1564" vert-adv-y="2048" >
  <font-face 
    font-family="Glock Grotesque"
    font-weight="500"
    font-stretch="normal"
    units-per-em="2048"
    panose-1="0 0 6 0 0 0 0 0 0 0"
    ascent="1638"
    descent="-410"
    x-height="1434"
    cap-height="1841"
    bbox="-963 -1024 3146 2832"
    underline-thickness="102"
    underline-position="-307"
    unicode-range="U+0020-25CA"
  />
<missing-glyph horiz-adv-x="1433" vert-adv-y="2867" 
d="M1176 1843v-2867h-910v2867h910zM954 1651h-473v-95h187v-106h-189v-94h475v94h-188v106h188v95zM766 1282h-287v-299h475v98h-188v201zM668 1184v-103h-95v103h95zM954 905h-475v-94h189v-106h-189v-95h287v201h188v94zM954 733h-94v-188h-381v-99h475v287zM954 383
h-286v-160h98v66h94v-135h-287v229h-94v-324h475v324zM954 -113h-475v-323h475v323zM860 -207v-135h-287v135h287zM954 -502h-475v-94h201l-201 -135v-94h475v94h-292l200 135h92v94z" />
    <glyph glyph-name=".notdef" horiz-adv-x="1433" vert-adv-y="2867" 
d="M1176 1843v-2867h-910v2867h910zM954 1651h-473v-95h187v-106h-189v-94h475v94h-188v106h188v95zM766 1282h-287v-299h475v98h-188v201zM668 1184v-103h-95v103h95zM954 905h-475v-94h189v-106h-189v-95h287v201h188v94zM954 733h-94v-188h-381v-99h475v287zM954 383
h-286v-160h98v66h94v-135h-287v229h-94v-324h475v324zM954 -113h-475v-323h475v323zM860 -207v-135h-287v135h287zM954 -502h-475v-94h201l-201 -135v-94h475v94h-292l200 135h92v94z" />
    <glyph glyph-name=".null" horiz-adv-x="0" vert-adv-y="0" 
 />
    <glyph glyph-name="nonmarkingreturn" horiz-adv-x="682" 
 />
    <glyph glyph-name="space" unicode=" " horiz-adv-x="1638" vert-adv-y="2867" 
 />
    <glyph glyph-name="exclam" unicode="!" horiz-adv-x="624" vert-adv-y="2867" 
d="M420 520h-215v1319h215v-1319zM313 418l209 -209l-209 -209l-211 209z" />
    <glyph glyph-name="quotedbl" unicode="&#x22;" horiz-adv-x="720" vert-adv-y="2867" 
d="M252 1012h-150v422h211zM557 1012h-149v422h210z" />
    <glyph glyph-name="numbersign" unicode="#" horiz-adv-x="1638" vert-adv-y="2867" 
d="M1536 934l-377 -60l-33 -212l410 63v-211l-444 -70l-70 -444h-211l63 410l-212 -33l-60 -377h-211l53 342l-342 -53v211l377 59l33 213l-410 -63v211l445 69l69 445h211l-63 -410l213 33l59 377h211l-53 -342l342 53v-211zM909 627l35 215l-215 -35l-35 -215z" />
    <glyph glyph-name="dollar" unicode="$" horiz-adv-x="1908" vert-adv-y="2867" 
d="M1704 518q0 -140 -84.5 -252t-230.5 -179t-332 -83v-188h-205v188q-186 16 -332 83t-230.5 179t-84.5 252h209q0 -132 115.5 -224t322.5 -112v733q-296 12 -430.5 110.5t-134.5 313.5q0 207 150 342t415 158v189h205v-189q265 -23 415 -158t150 -342h-205
q0 130 -86 216.5t-274 105.5v-610q341 -13 494 -139.5t153 -393.5zM492 1339q0 -142 81 -207t279 -77v606q-188 -19 -274 -105.5t-86 -216.5zM1057 182q207 20 322.5 112t115.5 224q0 162 -114 265.5t-324 125.5v-727z" />
    <glyph glyph-name="percent" unicode="%" horiz-adv-x="2099" vert-adv-y="2867" 
d="M205 1305q0 172 122 293.5t294 121.5q171 0 293 -122t122 -293t-122 -293.5t-293 -122.5q-172 0 -294 122t-122 294zM586 -82l719 1802h211l-719 -1802h-211zM356 1305q0 -109 78 -187t187 -78t186.5 78t77.5 187t-77.5 186.5t-186.5 77.5t-187 -77.5t-78 -186.5z
M1063 334q0 172 122 294t294 122q112 0 207.5 -56t151.5 -152t56 -208t-56 -208t-151.5 -152t-207.5 -56q-172 0 -294 122t-122 294zM1214 334q0 -109 78 -186.5t187 -77.5t186.5 77.5t77.5 186.5t-77.5 186.5t-186.5 77.5t-187 -77.5t-78 -186.5z" />
    <glyph glyph-name="ampersand" unicode="&#x26;" horiz-adv-x="2091" vert-adv-y="2867" 
d="M205 518q0 151 104 265t334 200q-22 28 -73.5 89t-73.5 90.5t-52.5 79.5t-42.5 97.5t-12 102.5q0 80 41.5 153t114 128t179 87.5t230.5 32.5q236 0 360 -104t124 -297q0 -199 -121.5 -319.5t-368.5 -192.5l525 -520q22 55 22 108h209q0 -138 -86 -254l268 -264h-303
l-117 129q-106 -65 -241 -97t-271 -32q-209 0 -379.5 64t-270 183t-99.5 271zM604 1446q0 -84 61.5 -180.5t178.5 -223.5q92 29 163.5 63.5t134.5 82.5t97.5 113.5t34.5 144.5q0 39 -13.5 74t-46.5 69.5t-99.5 55t-160.5 20.5q-184 0 -267 -62t-83 -157zM414 518
q0 -149 143.5 -244.5t396.5 -95.5q128 0 211.5 17t159.5 59l-586 606q-62 -22 -117 -53t-103.5 -73.5t-76.5 -98t-28 -117.5z" />
    <glyph glyph-name="quotesingle" unicode="'" horiz-adv-x="415" vert-adv-y="2867" 
d="M252 1012h-150v422h211z" />
    <glyph glyph-name="parenleft" unicode="(" horiz-adv-x="434" vert-adv-y="2867" 
d="M393 0h-211l-18 53q-123 360 -122 666t124 665l16 50h211l-16 -50q-123 -359 -124 -665t122 -666z" />
    <glyph glyph-name="parenright" unicode=")" horiz-adv-x="434" vert-adv-y="2867" 
d="M41 0l18 53q123 360 122 666t-124 665l-16 50h211l16 -50q123 -359 124 -665t-122 -666l-18 -53h-211z" />
    <glyph glyph-name="asterisk" unicode="*" horiz-adv-x="854" vert-adv-y="2867" 
d="M752 1186v-150h-146l103 -102l-107 -107l-100 101v-142h-150v142l-100 -101l-107 107l103 102h-144v150h142l-101 100l107 107l100 -101v142h150v-142l100 101l107 -107l-101 -100h144z" />
    <glyph glyph-name="plus" unicode="+" horiz-adv-x="1603" vert-adv-y="2867" 
d="M1501 803v-205h-598v-598h-205v598h-596v205h596v596h205v-596h598z" />
    <glyph glyph-name="comma" unicode="," horiz-adv-x="624" vert-adv-y="2867" 
d="M313 174h209l-209 -778h-211z" />
    <glyph glyph-name="hyphen" unicode="-" horiz-adv-x="901" vert-adv-y="2867" 
d="M102 811h697v-174h-697v174z" />
    <glyph glyph-name="period" unicode="." horiz-adv-x="501" vert-adv-y="2867" 
d="M252 418l209 -209l-209 -209l-211 209z" />
    <glyph glyph-name="slash" unicode="/" horiz-adv-x="518" vert-adv-y="2867" 
d="M252 0h-211l225 1434h211z" />
    <glyph glyph-name="zero" unicode="0" horiz-adv-x="1900" vert-adv-y="2867" 
d="M952 0q-156 0 -291.5 61.5t-237 176.5t-160 291t-58.5 393t58.5 393t160 290.5t237 176t291.5 61.5q155 0 289.5 -61.5t236 -176t160 -291t58.5 -392.5t-58.5 -392.5t-160 -291.5t-236 -176.5t-289.5 -61.5zM952 205q280 0 404.5 174t124.5 543t-124.5 542.5
t-404.5 173.5q-283 0 -407.5 -173t-124.5 -543t124.5 -543.5t407.5 -173.5z" />
    <glyph glyph-name="one" unicode="1" horiz-adv-x="1110" vert-adv-y="2867" 
d="M905 1843v-1843h-209l13 1759h-144l-164 -325h-215l205 409h514z" />
    <glyph glyph-name="two" unicode="2" horiz-adv-x="1839" vert-adv-y="2867" 
d="M266 1210q0 126 21.5 222t72.5 175.5t134 130t208 78t293 27.5q153 0 271.5 -23.5t205.5 -72.5t133 -130t46 -190q0 -114 -42 -208t-113 -160t-162.5 -122t-193.5 -102t-203.5 -92t-193 -100t-162.5 -117t-113 -153t-42 -199h1173v-174h-1394v174q-3 87 18 165.5t49 136
t92 118t106 95.5t134 86t134.5 71.5t145.5 68.5q139 65 208.5 102t161.5 101.5t131.5 138t39.5 164.5q0 131 -97 177.5t-333 46.5q-98 0 -172 -5t-130 -19.5t-94 -29t-64 -46.5t-40.5 -58t-21.5 -77t-8.5 -90.5t-1.5 -109.5h-197z" />
    <glyph glyph-name="three" unicode="3" horiz-adv-x="1804" vert-adv-y="2867" 
d="M850 831v181q139 0 233.5 24.5t148 76t75.5 120.5t22 168q0 244 -397 244q-69 0 -125 -3.5t-101.5 -12t-81 -18.5t-62.5 -28.5t-46.5 -36.5t-33 -47t-21.5 -56t-12 -67t-5.5 -77t-1.5 -89h-196q0 156 36.5 271t117 197.5t213 123.5t319.5 41q84 0 169 -17t163.5 -53
t139.5 -86.5t97.5 -123t36.5 -156.5q0 -102 -11 -153q-46 -211 -284 -332q92 -40 157 -82.5t103.5 -82t60 -88t28.5 -91.5t7 -101q0 -80 -30 -150t-81.5 -121.5t-118 -91.5t-142 -64.5t-150 -37t-145.5 -12.5q-202 0 -343 41t-225 124t-121.5 197t-37.5 271h196
q0 -67 2.5 -110t10.5 -90.5t23.5 -76t42 -58t65.5 -45.5t94 -30t127 -19t166 -5q75 0 149.5 14.5t147 45t117.5 88.5t45 136q0 164 -133.5 256t-407.5 92z" />
    <glyph glyph-name="four" unicode="4" horiz-adv-x="1880" vert-adv-y="2867" 
d="M1675 596v-166h-325v-430h-205v430h-940l649 1413h496v-1247h325zM477 596h668v1163h-133z" />
    <glyph glyph-name="five" unicode="5" horiz-adv-x="1804" vert-adv-y="2867" 
d="M223 805l219 1038h1157v-166h-987l-131 -610q136 109 389 109q115 0 211.5 -14.5t166.5 -37.5t126 -60t92 -73t62 -86t39.5 -89.5t21 -92t9 -85.5t1.5 -79q0 -80 -15 -149.5t-46.5 -133.5t-84 -113.5t-125 -86.5t-173 -56.5t-223.5 -19.5q-727 0 -727 633h196
q0 -84 7.5 -142t28.5 -110t58 -83.5t96.5 -55.5t142.5 -33.5t198 -9.5q70 0 128.5 6.5t102.5 16.5t78.5 27.5t58 36t40.5 45t27 51t15.5 57.5t7 61t1.5 65q0 97 -29 176t-89.5 140.5t-162.5 95t-240 33.5q-392 0 -462 -211z" />
    <glyph glyph-name="six" unicode="6" horiz-adv-x="1681" vert-adv-y="2867" 
d="M829 1176q63 0 117 -4t122.5 -18.5t123.5 -39t110 -68t92 -102.5t60 -147t23 -197q0 -114 -39 -213t-104 -168.5t-149 -120t-175 -74.5t-181 -24q-121 0 -232.5 40t-199 113.5t-140 189.5t-52.5 257v703q0 144 80.5 268.5t218.5 198t299 73.5q125 0 232.5 -31.5
t189.5 -91.5t129 -155t47 -215h-205q0 161 -108.5 244t-284.5 83q-166 0 -279.5 -120t-113.5 -289v-221q71 71 162.5 100t256.5 29zM829 199q443 0 443 401q0 117 -30 198t-89.5 127t-137.5 65.5t-186 19.5q-419 0 -419 -410q0 -195 119.5 -298t299.5 -103z" />
    <glyph glyph-name="seven" unicode="7" horiz-adv-x="1667" vert-adv-y="2867" 
d="M1462 1843l-532 -1843h-207l485 1677h-1003v166h1257z" />
    <glyph glyph-name="eight" unicode="8" horiz-adv-x="1908" vert-adv-y="2867" 
d="M1348 983q114 -43 187 -93t109 -111.5t48 -120t12 -140.5q0 -152 -100 -271t-270.5 -183t-379.5 -64t-379.5 64t-270 183t-99.5 271q0 82 12 140.5t48 120t109 111.5t187 93q-114 47 -174 98.5t-80 109t-20 148.5q0 226 178.5 365t488.5 139t489 -139t179 -365
q0 -58 -4.5 -94t-19.5 -76t-44.5 -69t-80 -58.5t-125.5 -58.5zM492 1339q0 -159 102 -222.5t360 -63.5q259 0 361 63.5t102 222.5q0 70 -24.5 126.5t-76.5 102.5t-144 71.5t-218 25.5t-217.5 -25.5t-144 -71.5t-76.5 -102.5t-24 -126.5zM954 178q253 0 397 95.5t144 244.5
q0 181 -142.5 288t-398.5 107t-398 -107t-142 -288q0 -149 143.5 -244.5t396.5 -95.5z" />
    <glyph glyph-name="nine" unicode="9" horiz-adv-x="1681" vert-adv-y="2867" 
d="M852 1843q121 0 232.5 -40t199.5 -113.5t140.5 -189.5t52.5 -257v-702q0 -144 -80.5 -269t-218.5 -198.5t-299 -73.5q-168 0 -301 54t-215 167.5t-82 272.5h204q0 -161 109 -244.5t285 -83.5q166 0 279.5 120t113.5 289v222q-71 -71 -163 -100t-257 -29q-63 0 -117 4
t-122.5 18.5t-123 38.5t-109.5 68t-92 102.5t-60 146.5t-23 197q0 114 38.5 213t103.5 168.5t149 120t175 74.5t181 24zM852 834q420 0 420 409q0 100 -33.5 178t-92 126t-133.5 73t-161 25q-442 0 -442 -402q0 -117 29.5 -198t89.5 -126.5t137.5 -65t185.5 -19.5z" />
    <glyph glyph-name="colon" unicode=":" horiz-adv-x="727" vert-adv-y="2867" 
d="M365 1434l208 -209l-208 -209l-211 209zM365 418l208 -209l-208 -209l-211 209z" />
    <glyph glyph-name="semicolon" unicode=";" horiz-adv-x="675" vert-adv-y="2867" 
d="M365 1434l208 -209l-208 -209l-211 209zM313 174h209l-209 -778h-211z" />
    <glyph glyph-name="less" unicode="&#x3c;" horiz-adv-x="892" vert-adv-y="2867" 
d="M791 1196l-474 -471l474 -471l-144 -143l-545 542v144l545 542z" />
    <glyph glyph-name="equal" unicode="=" horiz-adv-x="1603" vert-adv-y="2867" 
d="M1501 1008v-205h-1399v205h1399zM1501 598v-205h-1399v205h1399z" />
    <glyph glyph-name="greater" unicode="&#x3e;" horiz-adv-x="892" vert-adv-y="2867" 
d="M246 1339l545 -542v-144l-545 -542l-144 143l473 471l-473 471z" />
    <glyph glyph-name="question" unicode="?" horiz-adv-x="1435" vert-adv-y="2867" 
d="M557 504q72 299 272 467q22 19 59.5 50t54.5 45.5t46 39.5t41.5 39t33 37.5t29 40t20.5 40.5t16.5 47t8 51t3.5 60q0 58 -32.5 102t-90 70t-130.5 39t-159 13q-232 0 -361.5 -104.5t-129.5 -330.5h-197q0 118 39 221t105.5 177.5t154.5 128t187 80t202 26.5
q114 0 225 -27t204 -77t150.5 -131.5t57.5 -180.5q0 -67 -17.5 -126.5t-42 -104t-72 -95.5t-85.5 -84t-105 -87q-112 -91 -181.5 -191t-106.5 -235h-199zM655 0l-211 209l211 209l209 -209z" />
    <glyph glyph-name="at" unicode="@" horiz-adv-x="2240" vert-adv-y="2867" 
d="M1141 1788q175 0 324.5 -34.5t280 -113t221.5 -197.5t143.5 -297t52.5 -403v-620h-453h-4q-73 1 -121.5 50.5t-48.5 123.5v178q-88 -352 -442 -352q-164 0 -304.5 82t-222.5 223t-82 307q0 126 48.5 240.5t130.5 197t194.5 131t235.5 48.5q354 0 442 -353v318h170v-1049
h262v475q0 846 -827 846q-225 0 -415.5 -113.5t-301.5 -308t-111 -424.5q0 -172 65.5 -328.5t176.5 -269.5t264.5 -180t321.5 -67v-199q-166 0 -322 53t-281.5 150t-220.5 225.5t-146.5 287.5t-51.5 328t51.5 328t146.5 288t220.5 226t281.5 150t322 53zM1110 287
q179 0 302.5 125t123.5 323q0 191 -125 322t-301 131q-204 0 -312 -126t-108 -327q0 -198 108 -323t312 -125z" />
    <glyph glyph-name="A" unicode="A" horiz-adv-x="1814" vert-adv-y="2867" 
d="M68 0l630 1843h418l631 -1843h-209l-301 895h-659l-302 -895h-208zM643 1069h528l-235 690h-57z" />
    <glyph glyph-name="B" unicode="B" horiz-adv-x="1576" vert-adv-y="2252" 
d="M123 0v1843h610q90 0 171 -14t159.5 -48.5t134.5 -87.5t90.5 -137.5t34.5 -191.5q0 -126 -65 -215.5t-154 -122.5q160 -57 255 -186.5t95 -337.5q0 -90 -17 -161.5t-48 -123.5t-80 -90.5t-106 -62.5t-134 -38.5t-156.5 -20t-179.5 -5.5h-610zM307 1079h426q86 0 157 16
t128 48.5t89 89t32 131.5q0 64 -18.5 114.5t-51.5 82.5t-72.5 54.5t-88 33.5t-89.5 15.5t-86 4.5h-426v-590zM307 174h426q102 0 178 7.5t146.5 28.5t115 57t71 95t26.5 140q0 100 -26.5 172.5t-71 116.5t-115.5 70t-146.5 35t-177.5 9h-426v-731z" />
    <glyph glyph-name="C" unicode="C" horiz-adv-x="1892" vert-adv-y="2867" 
d="M1769 772q0 -376 -216 -591.5t-605 -215.5q-164 0 -300 49.5t-232 137.5t-163 208.5t-98.5 261.5t-31.5 298t31.5 297.5t98.5 260.5t163 207.5t232 137t300 49.5q387 0 604 -218t217 -589h-202q0 320 -153.5 471.5t-465.5 151.5q-620 0 -620 -768q0 -770 620 -770
q314 0 466.5 149t152.5 473h202z" />
    <glyph glyph-name="D" unicode="D" horiz-adv-x="1515" vert-adv-y="2867" 
d="M123 0h549q100 0 179.5 5.5t156.5 20t134 38.5t106 62.5t80 90.5t48 123.5t17 161.5v837q0 90 -17 161.5t-48 123.5t-80 90.5t-106 62.5t-134 38.5t-156.5 20t-179.5 5.5h-549v-1841zM307 174v1493h365q56 0 91.5 -0.5t82 -3t76 -7.5t65.5 -13t58.5 -21t47.5 -30.5
t39.5 -42t27.5 -55t18.5 -69.5t5.5 -86v-837q0 -47 -5.5 -86t-18.5 -69.5t-27.5 -55t-39.5 -42t-47.5 -30.5t-58.5 -21t-65.5 -13t-76 -7.5t-82 -3t-91.5 -0.5h-365z" />
    <glyph glyph-name="E" unicode="E" horiz-adv-x="1343" vert-adv-y="2867" 
d="M1262 1843h-1180v-1843h1180v174h-996v721h707v174h-707v600h996v174z" />
    <glyph glyph-name="F" unicode="F" horiz-adv-x="1366" vert-adv-y="2867" 
d="M82 0v1841h1202v-174h-1018v-620h729v-175h-729v-872h-184z" />
    <glyph glyph-name="G" unicode="G" horiz-adv-x="1988" vert-adv-y="2867" 
d="M1866 915v-915h-174v741h-43q0 -121 -26 -233t-82 -212t-137 -174t-198 -117.5t-258 -43.5q-164 0 -300 49.5t-232 137t-163 208t-98.5 261.5t-31.5 298t31.5 297.5t98.5 261t163 208t232 137t300 49.5q189 0 340.5 -65.5t251 -181t157.5 -265.5t72 -328l-206 -6
q-9 141 -54 260.5t-121 209t-189 140.5t-251 51q-151 0 -270 -58.5t-195 -162.5t-115.5 -243t-39.5 -304q0 -166 39.5 -305.5t115.5 -243.5t195 -162.5t270 -58.5q213 0 353.5 150.5t173.5 445.5h-527v174h918z" />
    <glyph glyph-name="H" unicode="H" horiz-adv-x="1665" vert-adv-y="2867" 
d="M123 0v1841h184v-803h1047v803h188v-1841h-188v864h-1047v-864h-184z" />
    <glyph glyph-name="I" unicode="I" horiz-adv-x="1298" vert-adv-y="2867" 
d="M123 0h1030v172h-428v1495h428v174h-1030v-174h428v-1495h-428v-172z" />
    <glyph glyph-name="J" unicode="J" horiz-adv-x="921" vert-adv-y="2867" 
d="M82 0v184q94 0 164.5 9.5t134 32.5t107 64t75.5 103t47 150.5t15 204.5v1093h174v-1093q0 -178 -29 -306.5t-83.5 -214t-144 -136t-199.5 -71t-261 -20.5z" />
    <glyph glyph-name="K" unicode="K" horiz-adv-x="1421" vert-adv-y="2867" 
d="M1298 1665h-399l-174 -741h573v-924h-184v750h-807v-750h-184v1841h184v-917h217l160 630q32 131 138.5 209t246.5 78h229v-176z" />
    <glyph glyph-name="L" unicode="L" horiz-adv-x="1366" vert-adv-y="2867" 
d="M307 1841h-184v-1841h1202v174h-1018v1667z" />
    <glyph glyph-name="M" unicode="M" horiz-adv-x="2162" vert-adv-y="2867" 
d="M113 0v1841h440l506 -1759h45l506 1759h440v-1841h-184v1759h-78l-500 -1759h-414l-499 1759h-78v-1759h-184z" />
    <glyph glyph-name="N" unicode="N" horiz-adv-x="1413" vert-adv-y="2867" 
d="M113 0v1841h440l506 -1759h45v1759h184v-1841h-416l-499 1759h-76v-1759h-184z" />
    <glyph glyph-name="O" unicode="O" horiz-adv-x="1732" vert-adv-y="2867" 
d="M866 -35q-164 0 -300 49.5t-232 137.5t-163 208.5t-98.5 261.5t-31.5 298t31.5 297.5t98.5 260.5t163 207.5t232 137t300 49.5t300 -49.5t232.5 -137t163.5 -207.5t98.5 -260.5t31.5 -297.5t-31.5 -298t-98.5 -261.5t-163.5 -208.5t-232.5 -137.5t-300 -49.5zM240 920
q0 -144 22.5 -262t70.5 -213.5t121 -160t177 -99.5t235 -35q164 0 285 53t195.5 155t110.5 241.5t36 320.5q0 180 -36 319.5t-110.5 241t-195.5 154.5t-285 53q-131 0 -235 -35t-177 -99.5t-121 -160t-70.5 -213t-22.5 -260.5z" />
    <glyph glyph-name="P" unicode="P" horiz-adv-x="1572" vert-adv-y="2867" 
d="M123 0v1841h610q171 0 299.5 -26.5t224 -85t144.5 -156t49 -234.5q0 -138 -49 -237t-144.5 -158t-224 -86t-299.5 -27h-426v-831h-184zM307 1006h426q66 0 113.5 1.5t102 7t92 15.5t76.5 26.5t64 41.5t45.5 58.5t30 79.5t9.5 103q0 56 -9.5 101.5t-30 78.5t-45.5 57.5
t-64 40.5t-76.5 26.5t-92 15.5t-101.5 6.5t-114 1.5h-426v-661z" />
    <glyph glyph-name="Q" unicode="Q" horiz-adv-x="1896" vert-adv-y="2867" 
d="M1364 68q33 -14 64.5 -33t67.5 -53t62.5 -74.5t44 -99.5t17.5 -127q0 -44 -9 -86.5t-31 -88t-56.5 -85t-88.5 -75.5t-122.5 -61t-164 -40t-208.5 -15h-494v170h494q102 0 183.5 11.5t132.5 27.5t88 43t54.5 49t27 54.5t11 50t1.5 45.5q0 74 -24 126t-63.5 82.5t-105.5 48
t-133 22.5t-164 5q-164 0 -300 49.5t-232 137.5t-163 208.5t-98.5 261.5t-31.5 298t31.5 297.5t98.5 260.5t163 207.5t232 137t300 49.5t300 -49.5t232.5 -137t163.5 -207.5t98.5 -260.5t31.5 -297.5q0 -285 -104.5 -511t-307.5 -341h2zM322 920q0 -144 22.5 -262
t70.5 -213.5t121 -160t177 -99.5t235 -35q164 0 285 53t195.5 155t110.5 241.5t36 320.5q0 180 -36 319.5t-110.5 241t-195.5 154.5t-285 53q-131 0 -235 -35t-177 -99.5t-121 -160t-70.5 -213t-22.5 -260.5z" />
    <glyph glyph-name="R" unicode="R" horiz-adv-x="1572" vert-adv-y="2867" 
d="M123 -2v1841h610q170 0 298.5 -27t224 -85.5t145 -156.5t49.5 -235q0 -293 -229 -415h188v-922h-188v829h-914v-829h-184zM307 1004h426q67 0 113.5 1.5t100.5 6.5t90.5 15t74.5 26.5t61.5 41t43.5 58t29 79.5t9 103q0 56 -9 101.5t-29 79t-44 58t-61.5 41t-74.5 26.5
t-90 15.5t-100.5 7t-113.5 1.5h-426v-661z" />
    <glyph glyph-name="S" unicode="S" horiz-adv-x="1691" vert-adv-y="2867" 
d="M840 -20q-169 0 -306.5 50.5t-226.5 138.5t-136.5 205t-47.5 251h213q1 -236 135 -350t369 -111q284 0 409 74t125 251q0 57 -14.5 99.5t-53 85t-110.5 81.5t-181 81t-270 92q-242 75 -308 102q-152 61 -209 149q-52 79 -52 205q0 94 43.5 174.5t125.5 141.5t209.5 96
t285.5 35q140 -1 254 -33t190 -85.5t127.5 -125.5t74.5 -149.5t23 -161.5l-206 -2q0 191 -122 282t-341 91q-97 0 -178.5 -13t-152 -42t-110 -82t-39.5 -126q0 -30 2.5 -51.5t14.5 -43t25.5 -36.5t45 -33.5t61.5 -31.5t87.5 -33.5t111 -37.5t142.5 -44q141 -43 239.5 -79
t184 -77t137.5 -82.5t89.5 -94t53 -113t15.5 -138.5q0 -82 -21 -153t-73 -138t-133 -114t-209 -75.5t-293 -28.5z" />
    <glyph glyph-name="T" unicode="T" horiz-adv-x="1460" vert-adv-y="2455" 
d="M637 0v1667h-555v174h1296v-174h-555v-1667h-186z" />
    <glyph glyph-name="U" unicode="U" horiz-adv-x="1896" vert-adv-y="2867" 
d="M1589 1839h185v-919q0 -157 -31.5 -298t-98.5 -261.5t-163.5 -208.5t-232.5 -137.5t-300 -49.5t-300 49.5t-232 137.5t-163 208.5t-98.5 261.5t-31.5 298v919h184v-919q0 -180 38 -322t115.5 -245.5t200.5 -158.5t287 -55t287 55t200.5 158.5t115.5 245.5t38 322v919z
" />
    <glyph glyph-name="V" unicode="V" horiz-adv-x="1650" vert-adv-y="2867" 
d="M82 1841h209l500 -1759h69l500 1759h209l-529 -1841h-430z" />
    <glyph glyph-name="W" unicode="W" horiz-adv-x="3137" vert-adv-y="2867" 
d="M82 1841h215l500 -1759h57l500 1759h430l500 -1759h57l500 1759h215l-529 -1841h-430l-506 1759h-45l-506 -1759h-430z" />
    <glyph glyph-name="X" unicode="X" horiz-adv-x="1650" vert-adv-y="2867" 
d="M82 0l526 922l-526 919h215l500 -883h57l500 883h215l-527 -919l527 -922h-215l-500 883h-57l-500 -883h-215z" />
    <glyph glyph-name="Y" unicode="Y" horiz-adv-x="1650" vert-adv-y="2867" 
d="M1354 1841h215l-527 -958h-124v-883h-185v883h-125l-526 958h215l500 -883h57z" />
    <glyph glyph-name="Z" unicode="Z" horiz-adv-x="1800" vert-adv-y="2867" 
d="M123 2v391l1472 1202v52h-1370v194h1452v-438l-1472 -1155v-51h1472v-195h-1554z" />
    <glyph glyph-name="bracketleft" unicode="[" horiz-adv-x="905" vert-adv-y="2867" 
d="M864 1260h-618v-1086h618v-174h-823v1434h823v-174z" />
    <glyph glyph-name="backslash" unicode="\" horiz-adv-x="518" vert-adv-y="2867" 
d="M266 0l-225 1434h211l225 -1434h-211z" />
    <glyph glyph-name="bracketright" unicode="]" horiz-adv-x="905" vert-adv-y="2867" 
d="M864 1434v-1434h-823v174h618v1086h-618v174h823z" />
    <glyph glyph-name="asciicircum" unicode="^" horiz-adv-x="790" vert-adv-y="2867" 
d="M580 1012l-148 338h-74l-147 -338h-191l185 422h381l184 -422h-190z" />
    <glyph glyph-name="underscore" unicode="_" horiz-adv-x="1228" vert-adv-y="2867" 
d="M102 154h1024v-154h-1024v154z" />
    <glyph glyph-name="a" unicode="a" vert-adv-y="2867" 
d="M119 451q0 70 28 138.5t80 128t136 101t188 51.5l731 72q0 35 -12.5 74t-46 83.5t-85 79.5t-139.5 58t-198 23q-434 0 -471 -277h-185q30 217 208 334t450 117q124 0 225.5 -18t171.5 -48.5t123 -75t83.5 -91t49.5 -104t25 -107.5t6 -107v-883h-205v500
q-15 -56 -49 -119.5t-93 -132.5t-131.5 -124t-172 -90.5t-207.5 -35.5q-133 0 -233.5 36t-159.5 100t-88 143.5t-29 173.5zM324 451q0 -60 15.5 -108t50 -87t96 -60.5t147.5 -21.5q213 0 386 154.5t263 449.5l-690 -63q-128 -11 -198 -88.5t-70 -175.5z" />
    <glyph glyph-name="b" unicode="b" horiz-adv-x="1845" vert-adv-y="2504" 
d="M119 1647v194h180q91 0 150 -59t59 -150v-620q107 422 530 422q148 0 283 -58.5t232.5 -157t155.5 -235t58 -285.5q0 -201 -98 -371.5t-266 -269t-365 -98.5q-423 0 -530 422v-381h-205v1647h-184zM508 698q0 -149 68.5 -278.5t191 -208t270.5 -78.5q164 0 284 73
t180.5 200t60.5 292q0 253 -140.5 407.5t-384.5 154.5q-150 0 -272 -75.5t-190 -204t-68 -282.5z" />
    <glyph glyph-name="c" unicode="c" horiz-adv-x="1605" vert-adv-y="2867" 
d="M119 719q0 150 54.5 285.5t147.5 234.5t224.5 157t279.5 58q325 0 514 -157.5t189 -405.5l-228 -6q-13 85 -30.5 140.5t-50.5 104t-83.5 75t-126.5 41t-184 14.5q-221 0 -352 -150.5t-131 -390.5q0 -244 130.5 -394.5t352.5 -150.5q107 0 184 16.5t127 45t83 78t50.5 103
t30.5 132.5l228 -6q0 -248 -189 -405.5t-514 -157.5q-148 0 -279 58t-224.5 157t-148 235.5t-54.5 288.5z" />
    <glyph glyph-name="d" unicode="d" horiz-adv-x="1824" vert-adv-y="2867" 
d="M1767 1667h-184v-1667h-205v381q-107 -422 -530 -422q-197 0 -365 98.5t-266 269t-98 371.5q0 149 58 285.5t155.5 235t232.5 157t283 58.5q423 0 530 -422v620q0 91 59 150t150 59h180v-174zM1378 698q0 154 -68 282.5t-190 204t-272 75.5q-244 0 -384 -154.5
t-140 -407.5q0 -252 139 -408.5t385 -156.5q148 0 270.5 78.5t191 208t68.5 278.5z" />
    <glyph glyph-name="e" unicode="e" vert-adv-y="2867" 
d="M1487 602h-1143q0 -45 2.5 -79.5t13 -80t29 -79t53 -68.5t82 -57t119.5 -36t162 -14q190 0 307.5 66t138.5 195h209q-20 -145 -111.5 -248t-230.5 -153t-313 -50q-125 0 -228.5 25t-173 65t-122.5 98t-83 116.5t-48.5 128t-24.5 125t-6 114.5q0 385 178 574.5t508 189.5
q164 0 288.5 -47t213.5 -146.5t134.5 -259.5t45.5 -379zM1251 776q-8 117 -33 199.5t-76 143t-134.5 89.5t-202.5 29q-118 0 -203.5 -29t-139.5 -89t-82 -143.5t-36 -199.5h907z" />
    <glyph glyph-name="f" unicode="f" horiz-adv-x="1056" vert-adv-y="2867" 
d="M979 1667h-451v-233h410v-154h-410v-1280h-204v1280h-205v154h205v198q0 91 58.5 150t149.5 59h447v-174z" />
    <glyph glyph-name="g" unicode="g" horiz-adv-x="1652" vert-adv-y="2867" 
d="M1575 1464h-311l-7 -106q148 -79 233 -216.5t85 -320.5q0 -92 -18 -166t-45.5 -126.5t-77.5 -102t-96.5 -82.5t-120.5 -78q29 -7 63 -22.5t78 -48t78 -75.5t58 -110.5t24 -146.5q0 -44 -9 -86.5t-31 -88t-56.5 -85t-88.5 -75.5t-122.5 -61t-164 -40t-208.5 -15h-494v174
h494q119 0 208 18.5t138.5 46t80 66.5t39.5 73t9 73q0 68 -32.5 120.5t-83.5 81.5t-114 44t-124 13t-113 -16l-502 -139v187l502 133q-727 0 -727 534q0 119 37 221.5t103.5 177.5t157.5 128t199.5 79.5t229.5 26.5q108 0 198 -20q36 95 126.5 149.5t201.5 54.5h203v-174z
M1370 821q0 235 -128.5 347t-395.5 112q-266 0 -394 -111.5t-128 -347.5q0 -111 31 -185t98.5 -116.5t161 -60t231.5 -17.5q139 0 232.5 17.5t161.5 60t99 116.5t31 185z" />
    <glyph glyph-name="h" unicode="h" horiz-adv-x="1609" vert-adv-y="2867" 
d="M961 1434q275 0 423 -160.5t148 -435.5v-838h-205v838q0 206 -100 314t-264 108q-106 0 -187.5 -24t-131.5 -63t-81.5 -95.5t-43 -114t-11.5 -125.5v-838h-205v1669h-184v174h180h4q89 -1 147 -60.5t58 -148.5v-477q94 277 453 277z" />
    <glyph glyph-name="i" unicode="i" horiz-adv-x="1200" vert-adv-y="2867" 
d="M799 1776l-209 -209l-211 209l211 209zM733 174h389v-174h-983v174h389v1086h-409v174h405q91 0 150 -59t59 -150v-1051z" />
    <glyph glyph-name="j" unicode="j" horiz-adv-x="630" vert-adv-y="2867" 
d="M553 1776l-209 -209l-211 209l211 209zM299 1434q91 0 150 -59t59 -150v-1719q0 -289 -238 -407l-84 196q53 26 85 81t32 130v1754h-184v174h180z" />
    <glyph glyph-name="k" unicode="k" horiz-adv-x="1544" vert-adv-y="2867" 
d="M1466 1260h-311l-74 -297l250 -789h135v-174h-149q-66 0 -117 38t-70 101l-204 711h-418v-850h-205v1665h-184v174h180q91 0 150 -59t59 -150v-606h369l45 154q34 117 126.5 186.5t215.5 69.5h202v-174z" />
    <glyph glyph-name="l" unicode="l" horiz-adv-x="770" vert-adv-y="2867" 
d="M119 0v174h184v1542h-184v174h180q91 0 150 -59t59 -150v-1507h184v-174h-573z" />
    <glyph glyph-name="m" unicode="m" horiz-adv-x="2674" vert-adv-y="2867" 
d="M1997 1434q289 0 444.5 -160t155.5 -436v-838h-205v838q0 207 -107 314.5t-286 107.5q-95 0 -171.5 -24t-127 -64t-84.5 -94.5t-49 -114.5t-15 -125v-838h-204v838q0 219 -90 320.5t-304 101.5q-118 0 -206.5 -35.5t-139.5 -97t-75.5 -134t-24.5 -155.5v-838h-205v1260
h-184v174h180h4q89 -1 147 -60.5t58 -148.5v-68q94 277 444 277q240 0 376.5 -85t189.5 -247q46 142 171 237t308 95z" />
    <glyph glyph-name="n" unicode="n" horiz-adv-x="1609" vert-adv-y="2867" 
d="M961 1434q275 0 423 -160.5t148 -435.5v-838h-205v838q0 206 -100 314t-264 108q-100 0 -179.5 -24t-130.5 -63.5t-84.5 -95t-47 -114.5t-13.5 -125v-838h-205v1260h-184v174h180h4q89 -1 147 -60.5t58 -148.5v-68q94 277 453 277z" />
    <glyph glyph-name="o" unicode="o" horiz-adv-x="1660" vert-adv-y="2867" 
d="M829 -20q-148 0 -282.5 58.5t-232 157t-155 235.5t-57.5 288q0 200 97.5 369t265 267.5t364.5 98.5q148 0 283 -58t233 -156.5t156 -235t58 -285.5q0 -151 -58 -288t-156 -235.5t-233 -157t-283 -58.5zM829 174q124 0 222.5 42t161.5 116t96.5 173t33.5 214
q0 153 -57 274t-175 194t-282 73q-124 0 -222.5 -42t-161 -116t-95.5 -171.5t-33 -211.5q0 -116 33 -214.5t95.5 -172.5t161 -116t222.5 -42z" />
    <glyph glyph-name="p" unicode="p" horiz-adv-x="1669" vert-adv-y="2867" 
d="M307 -692h-205v2126h205v-381q107 422 531 422q148 0 282.5 -58.5t232.5 -157.5t156 -236t58 -288q0 -200 -98 -369t-266 -267.5t-365 -98.5q-424 0 -531 422v-1114zM307 735q0 -238 147.5 -388t362.5 -150q124 0 221.5 41t158.5 114.5t92.5 170.5t31.5 212
q0 157 -54 277.5t-169.5 193t-280.5 72.5q-139 0 -256 -71t-185.5 -196t-68.5 -276z" />
    <glyph glyph-name="q" unicode="q" horiz-adv-x="1669" vert-adv-y="2867" 
d="M1362 -303v725q-107 -422 -531 -422q-197 0 -365 98.5t-266 267.5t-98 369q0 151 58 288t156 236t232.5 157.5t282.5 58.5q424 0 531 -422v381h205v-1737h-205zM1362 735q0 151 -68.5 276t-185.5 196t-256 71q-165 0 -280.5 -72.5t-169.5 -193t-54 -277.5
q0 -115 31.5 -212t92.5 -170.5t158.5 -114.5t221.5 -41q215 0 362.5 150t147.5 388z" />
    <glyph glyph-name="r" unicode="r" horiz-adv-x="1519" vert-adv-y="2867" 
d="M119 1260v174h184q89 -1 147 -60.5t58 -148.5v-68q59 118 176.5 197.5t273.5 79.5q204 0 328.5 -115t155.5 -336h-207q0 140 -76 208.5t-198 68.5q-227 0 -340 -123.5t-113 -360.5v-776h-205v1260h-184z" />
    <glyph glyph-name="s" unicode="s" horiz-adv-x="1335" vert-adv-y="2867" 
d="M688 -20q-134 0 -246.5 47t-185.5 126.5t-113.5 183t-40.5 218.5h197q1 -183 107 -291t272 -108q184 0 267 48.5t83 160.5q0 83 -28.5 134.5t-108.5 92t-229 70.5q-86 17 -160.5 41.5t-145.5 62t-121 84t-80 110.5t-30 138q0 166 133 261t404 95q90 0 165 -20t126 -50.5
t91.5 -76.5t64 -88.5t41 -96.5t24.5 -91t12 -81l-197 -2q-7 55 -17 97.5t-33.5 88.5t-57 76.5t-90 50t-129.5 19.5q-157 0 -244.5 -45.5t-87.5 -136.5q0 -101 81.5 -158.5t250.5 -93.5q571 -119 571 -461q0 -72 -15 -130t-53 -110.5t-99 -88t-156.5 -56t-221.5 -20.5z" />
    <glyph glyph-name="t" unicode="t" horiz-adv-x="1056" vert-adv-y="2252" 
d="M528 174h451v-174h-447q-91 0 -149.5 59t-58.5 150v1071h-205v154h205v204h204v-204h410v-154h-410v-1106z" />
    <glyph glyph-name="u" unicode="u" horiz-adv-x="1609" vert-adv-y="2867" 
d="M1348 174h184v-174h-180h-4q-89 1 -147 60.5t-58 148.5v67q-94 -276 -453 -276q-275 0 -423 160.5t-148 435.5v838h205v-838q0 -206 100 -314t264 -108q100 0 179.5 24t130.5 63.5t84.5 95t47 114.5t13.5 125v838h205v-1260z" />
    <glyph glyph-name="v" unicode="v" horiz-adv-x="1277" vert-adv-y="2867" 
d="M1012 1434h205l-310 -1295q-15 -62 -67 -100.5t-119 -38.5h-164q-67 0 -119 38.5t-67 100.5l-310 1295h205l305 -1276h136z" />
    <glyph glyph-name="w" unicode="w" horiz-adv-x="2494" vert-adv-y="2867" 
d="M2228 1434h205l-309 -1295q-15 -62 -67.5 -100.5t-119.5 -38.5h-163q-67 0 -119.5 38.5t-67.5 100.5l-14 62l-2 2l-256 1073h-135l-260 -1090h-2l-11 -47q-15 -62 -67 -100.5t-119 -38.5h-164q-67 0 -119 38.5t-67 100.5l-310 1295h205l305 -1276h136l266 1114l6 22
q15 62 67 101t119 39h164q67 0 119.5 -39t67.5 -101l22 -92l250 -1044h135z" />
    <glyph glyph-name="x" unicode="x" horiz-adv-x="1271" vert-adv-y="2867" 
d="M119 0l319 717l-299 717h205l246 -643h143l236 643h205l-289 -717l309 -717h-205l-256 643h-143l-266 -643h-205z" />
    <glyph glyph-name="y" unicode="y" horiz-adv-x="1277" vert-adv-y="2867" 
d="M61 1434h205l305 -1276h136l305 1276h205l-459 -1928q-43 -177 -105.5 -264.5t-173.5 -142.5l-84 196q122 59 158 211l117 494h-113q-67 0 -119 38.5t-67 100.5z" />
    <glyph glyph-name="z" unicode="z" horiz-adv-x="1400" vert-adv-y="2867" 
d="M244 1260v174h884q105 0 162 -72q43 -61 28.5 -130.5t-71.5 -123.5l-979 -934h1049v-174h-1008q-101 0 -159 74q-28 37 -29.5 86t18 92.5t51.5 73.5l979 934h-925z" />
    <glyph glyph-name="braceleft" unicode="{" horiz-adv-x="706" vert-adv-y="2867" 
d="M41 641v150h149v233q0 200 105 305t305 105h66v-174h-265v-365q0 -166 -102 -166v-27q102 0 102 -165v-363h265v-174h-66q-200 0 -305 105t-105 305v231h-149z" />
    <glyph glyph-name="bar" unicode="|" horiz-adv-x="614" vert-adv-y="2867" 
d="M410 -569h-205v2412h205v-2412z" />
    <glyph glyph-name="braceright" unicode="}" horiz-adv-x="706" vert-adv-y="2867" 
d="M666 641h-150v-231q0 -200 -105 -305t-305 -105h-65v174h264v363q0 165 103 165v27q-103 0 -103 166v365h-264v174h65q200 0 305 -105t105 -305v-233h150v-150z" />
    <glyph glyph-name="asciitilde" unicode="~" horiz-adv-x="1519" vert-adv-y="2867" 
d="M102 467q0 79 29.5 162t77.5 129q48 47 109.5 66.5t131 12.5t130 -23.5t135.5 -45.5l139 -53q54 -20 86.5 -31t76 -21t72.5 -9.5t59.5 11.5t53.5 35q24 25 41 79.5t17 97.5h157q0 -82 -30 -182t-76 -144q-48 -47 -109 -66.5t-131 -12.5t-130 23t-136 46l-137 53
q-66 25 -108.5 38t-90.5 20t-84.5 -4t-65.5 -40q-59 -59 -59 -141h-158z" />
    <glyph glyph-name="exclamdown" unicode="&#xa1;" horiz-adv-x="624" vert-adv-y="2867" 
d="M313 1421l-211 209l211 209l209 -209zM420 1319v-1319h-215v1319h215z" />
    <glyph glyph-name="cent" unicode="&#xa2;" horiz-adv-x="1495" vert-adv-y="2867" 
d="M850 291q134 16 188 81.5t76 200.5l176 -4q0 -173 -116.5 -289.5t-323.5 -140.5v-137h-205v141q-193 37 -316.5 194.5t-123.5 367.5q0 206 123.5 362t316.5 193v141h205v-137q207 -24 323.5 -140.5t116.5 -289.5l-176 -5q-10 72 -25 118t-44 83t-76 57t-119 27v-823z
M377 705q0 -164 66.5 -272t201.5 -138v813q-135 -30 -201.5 -136t-66.5 -267z" />
    <glyph glyph-name="sterling" unicode="&#xa3;" horiz-adv-x="1730" vert-adv-y="2867" 
d="M532 166h994v-164h-1321q60 87 93.5 138.5t75 126.5t62.5 134t36 134t15 153v4h-282v164h264q-15 63 -47 122.5t-59 98t-48.5 107t-21.5 155.5q0 145 87 261t234.5 179.5t325.5 63.5q111 0 229.5 -36t202.5 -111l-110 -170q-131 139 -322 139q-206 0 -324 -93.5
t-118 -232.5q0 -58 20.5 -118.5t46.5 -107t57 -117t46 -140.5h675v-164h-659q0 -160 -34.5 -280t-117.5 -246z" />
    <glyph glyph-name="currency" unicode="&#xa4;" horiz-adv-x="1544" vert-adv-y="2867" 
d="M1188 801q0 -114 -60 -213l209 -209l-143 -146l-211 211q-92 -59 -211 -59q-116 0 -213 59l-209 -208l-145 143l209 209q-58 99 -58 213t58 213l-209 209l143 145l211 -211q99 60 213 60q117 0 211 -60l211 211l145 -143l-211 -211q60 -99 60 -213zM508 801
q0 -109 77.5 -186.5t186.5 -77.5t186.5 77.5t77.5 186.5t-77.5 186.5t-186.5 77.5t-186.5 -77.5t-77.5 -186.5z" />
    <glyph glyph-name="yen" unicode="&#xa5;" horiz-adv-x="1650" vert-adv-y="2867" 
d="M1569 1841l-486 -883h170v-163h-335v-123h335v-164h-335v-508h-185v508h-334v164h334v123h-334v163h168l-485 883h215l500 -883h57l500 883h215z" />
    <glyph glyph-name="brokenbar" unicode="&#xa6;" horiz-adv-x="1228" vert-adv-y="2867" 
d="M688 719h-205v1124h205v-1124zM688 -569h-205v1124h205v-1124z" />
    <glyph glyph-name="section" unicode="&#xa7;" horiz-adv-x="1241" vert-adv-y="2867" 
d="M848 408q87 -54 137.5 -141t50.5 -193q0 -112 -56 -208t-151.5 -152t-207.5 -56q-116 0 -213 57l88 125q62 -30 125 -30q109 0 186.5 77.5t77.5 186.5q0 118 -86 194q-77 70 -178 70q-172 0 -294 122t-122 294q0 107 50 198.5t138 149.5q-87 52 -137.5 139t-50.5 193
q0 171 122.5 293t293.5 122q116 0 213 -57l-89 -125q-64 31 -124 31q-109 0 -187 -77.5t-78 -186.5q0 -119 86 -195q77 -70 179 -70q171 0 293 -122t122 -293q0 -107 -51 -198t-137 -148zM356 754q0 -109 78 -187t187 -78t186.5 78t77.5 187t-77.5 186.5t-186.5 77.5
t-187 -77.5t-78 -186.5z" />
    <glyph glyph-name="copyright" unicode="&#xa9;" horiz-adv-x="1640" vert-adv-y="2867" 
d="M109 717q0 146 57 278.5t152.5 228.5t228.5 153t278 57t277.5 -57t229 -153t153.5 -229t57 -278t-57 -278t-153.5 -229t-229 -153t-277.5 -57t-278 57t-228.5 153t-152.5 228.5t-57 278.5zM227 717q0 -122 47.5 -232.5t127.5 -190.5t190.5 -127.5t232.5 -47.5
q161 0 299 80t218.5 218t80.5 300t-80.5 300t-218.5 218t-299 80q-122 0 -232.5 -47.5t-190.5 -127.5t-127.5 -190.5t-47.5 -232.5zM418 719q0 176 118 300t291 124q188 0 297 -91t109 -235l-131 -4q-14 83 -37 126.5t-79.5 67t-158.5 23.5q-142 0 -211 -83.5t-69 -227.5
q0 -147 69 -231.5t211 -84.5q76 0 126.5 13.5t80 43.5t44 66.5t24.5 94.5l131 -5q0 -144 -109 -234.5t-297 -90.5q-174 0 -291.5 124t-117.5 304z" />
    <glyph glyph-name="logicalnot" unicode="&#xac;" horiz-adv-x="1282" vert-adv-y="2867" 
d="M989 766l-282 543h-132l-282 -543h-191l349 668h380l349 -668h-191z" />
    <glyph glyph-name="registered" unicode="&#xae;" horiz-adv-x="1605" vert-adv-y="2867" 
d="M205 1040q0 122 47.5 232.5t127.5 190.5t190.5 127.5t232.5 47.5q161 0 299 -80t218.5 -218t80.5 -300t-80.5 -300t-218.5 -218t-299 -80q-122 0 -232.5 47.5t-190.5 127.5t-127.5 190.5t-47.5 232.5zM305 1040q0 -135 67 -249.5t181.5 -181t249.5 -66.5
q134 0 248.5 66.5t181.5 181t67 249.5t-67 249.5t-181.5 181.5t-248.5 67q-135 0 -249.5 -67t-181.5 -181.5t-67 -249.5zM600 729v619h205q242 0 242 -170q0 -97 -78 -140h63v-309h-84v279h-264v-279h-84zM686 1073h121q84 0 124 23t40 82t-40 81.5t-124 22.5h-121v-209z
" />
    <glyph glyph-name="degree" unicode="&#xb0;" horiz-adv-x="1241" vert-adv-y="2867" 
d="M205 1018q0 172 122 294t294 122q112 0 207.5 -56t151.5 -152t56 -208t-56 -208t-151.5 -152t-207.5 -56q-172 0 -294 122t-122 294zM356 1018q0 -109 78 -186.5t187 -77.5t186.5 77.5t77.5 186.5t-77.5 186.5t-186.5 77.5t-187 -77.5t-78 -186.5z" />
    <glyph glyph-name="plusminus" unicode="&#xb1;" horiz-adv-x="1603" vert-adv-y="2867" 
d="M905 803h596v-205h-596v-496h-205v496h-598v205h598v596h205v-596zM102 -238v205h1399v-205h-1399z" />
    <glyph glyph-name="paragraph" unicode="&#xb6;" horiz-adv-x="1591" vert-adv-y="2867" 
d="M307 1460q0 159 112.5 271.5t270.5 111.5h205v-1841h-205v1075q-158 0 -270.5 112.5t-112.5 270.5zM1079 1843h205v-1841h-205v1841z" />
    <glyph glyph-name="periodcentered" unicode="&#xb7;" horiz-adv-x="501" vert-adv-y="2867" 
d="M252 432l-211 209l211 209l209 -209z" />
    <glyph glyph-name="questiondown" unicode="&#xbf;" horiz-adv-x="1435" vert-adv-y="2867" 
d="M655 1843l209 -209l-209 -209l-211 209zM557 1339h199q37 -135 106.5 -235t181.5 -191q67 -54 105 -87t85.5 -84t72 -95.5t42 -104t17.5 -126.5q0 -99 -57.5 -180.5t-150.5 -131.5t-204 -77t-225 -27q-103 0 -202 26.5t-187 80t-154.5 128t-105.5 177.5t-39 221h197
q0 -434 491 -434q117 0 206.5 21.5t147.5 73t58 128.5q0 32 -3.5 60t-8 51t-16.5 47t-20.5 40.5t-29 40t-33 37.5t-41.5 39t-46 39.5t-54.5 45.5t-59.5 50q-200 168 -272 467z" />
    <glyph glyph-name="Agrave" unicode="&#xc0;" horiz-adv-x="1814" vert-adv-y="2867" 
d="M850 1944l-164 421h211l82 -421h-129zM68 0l630 1843h418l631 -1843h-209l-301 895h-659l-302 -895h-208zM643 1069h528l-235 690h-57z" />
    <glyph glyph-name="Aacute" unicode="&#xc1;" horiz-adv-x="1814" vert-adv-y="2867" 
d="M973 1946h-129l82 421h211zM68 0l630 1843h418l631 -1843h-209l-301 895h-659l-302 -895h-208zM643 1069h528l-235 690h-57z" />
    <glyph glyph-name="Acircumflex" unicode="&#xc2;" horiz-adv-x="1814" vert-adv-y="2867" 
d="M870 2284l-147 -338h-191l185 421h381l184 -421h-190l-148 338h-74zM1116 1843l631 -1843h-209l-301 895h-659l-302 -895h-208l630 1843h418zM643 1069h528l-235 690h-57z" />
    <glyph glyph-name="Atilde" unicode="&#xc3;" horiz-adv-x="1814" vert-adv-y="2867" 
d="M522 2044q0 46 18 94.5t46 75.5q38 36 91.5 43t98 -3.5t105.5 -33.5l82 -31q51 -20 81.5 -28t64.5 -5t56 25q15 15 25 46t10 57h92q0 -48 -17.5 -106.5t-45.5 -84.5q-38 -36 -91.5 -43t-98 3.5t-105.5 33.5l-82 31q-51 20 -82 28t-65 5t-56 -25q-35 -35 -35 -82h-92z
M68 0l630 1843h418l631 -1843h-209l-301 895h-659l-302 -895h-208zM643 1069h528l-235 690h-57z" />
    <glyph glyph-name="Adieresis" unicode="&#xc4;" horiz-adv-x="1814" vert-adv-y="2867" 
d="M647 2365l209 -208l-209 -209l-211 209zM1169 2365l209 -208l-209 -209l-211 209zM68 0l630 1843h418l631 -1843h-209l-301 895h-659l-302 -895h-208zM643 1069h528l-235 690h-57z" />
    <glyph glyph-name="Aring" unicode="&#xc5;" horiz-adv-x="1814" vert-adv-y="2867" 
d="M698 2154q0 86 61.5 147.5t147.5 61.5t147.5 -61.5t61.5 -147.5t-61.5 -147t-147.5 -61t-147.5 61t-61.5 147zM801 2154q0 -43 31.5 -74.5t74.5 -31.5t75 31.5t32 74.5t-32 75t-75 32t-74.5 -32t-31.5 -75zM68 0l630 1843h418l631 -1843h-209l-301 895h-659l-302 -895
h-208zM643 1069h528l-235 690h-57z" />
    <glyph glyph-name="AE" unicode="&#xc6;" horiz-adv-x="2484" vert-adv-y="2867" 
d="M68 0l645 1843h1704v-174h-996v-600h707v-174h-707v-721h996v-174h-1180v895h-653l-301 -895h-215zM641 1069h596v600h-373z" />
    <glyph glyph-name="Ccedilla" unicode="&#xc7;" horiz-adv-x="1892" vert-adv-y="2867" 
d="M948 150q314 0 466.5 149t152.5 473h202q0 -349 -186.5 -560.5t-527.5 -242.5l-103 -301q75 -11 126.5 -70t51.5 -137q0 -86 -61 -147.5t-147 -61.5t-147.5 61.5t-61.5 147.5h92q0 -47 35 -81.5t82 -34.5t81.5 34.5t34.5 81.5q0 51 -29.5 84t-86.5 33h-129l65 391
q-146 13 -267.5 68.5t-207 144t-145 205t-87.5 251t-28 282.5q0 157 31.5 297.5t98.5 260.5t163 207.5t232 137t300 49.5q387 0 604 -218t217 -589h-202q0 320 -153.5 471.5t-465.5 151.5q-620 0 -620 -768q0 -770 620 -770z" />
    <glyph glyph-name="Egrave" unicode="&#xc8;" horiz-adv-x="1343" vert-adv-y="2867" 
d="M690 1944l-164 421h211l82 -421h-129zM1262 1843h-1180v-1843h1180v174h-996v721h707v174h-707v600h996v174z" />
    <glyph glyph-name="Eacute" unicode="&#xc9;" horiz-adv-x="1343" vert-adv-y="2867" 
d="M655 1946h-129l82 421h211zM1262 1843h-1180v-1843h1180v174h-996v721h707v174h-707v600h996v174z" />
    <glyph glyph-name="Ecircumflex" unicode="&#xca;" horiz-adv-x="1343" vert-adv-y="2867" 
d="M635 2284l-148 -338h-190l184 421h381l185 -421h-191l-147 338h-74zM1262 1669h-996v-600h707v-174h-707v-721h996v-174h-1180v1843h1180v-174z" />
    <glyph glyph-name="Edieresis" unicode="&#xcb;" horiz-adv-x="1343" vert-adv-y="2867" 
d="M412 2365l209 -208l-209 -209l-211 209zM934 2365l209 -208l-209 -209l-211 209zM1262 1843h-1180v-1843h1180v174h-996v721h707v174h-707v600h996v174z" />
    <glyph glyph-name="Igrave" unicode="&#xcc;" horiz-adv-x="1298" vert-adv-y="2867" 
d="M582 1944l-164 421h211l82 -421h-129zM123 0h1030v172h-428v1495h428v174h-1030v-174h428v-1495h-428v-172z" />
    <glyph glyph-name="Iacute" unicode="&#xcd;" horiz-adv-x="1298" vert-adv-y="2867" 
d="M694 1946h-129l82 421h211zM123 0h1030v172h-428v1495h428v174h-1030v-174h428v-1495h-428v-172z" />
    <glyph glyph-name="Icircumflex" unicode="&#xce;" horiz-adv-x="1298" vert-adv-y="2867" 
d="M612 2284l-147 -338h-191l185 421h381l184 -421h-190l-148 338h-74zM1153 1667h-428v-1495h428v-172h-1030v172h428v1495h-428v174h1030v-174z" />
    <glyph glyph-name="Idieresis" unicode="&#xcf;" horiz-adv-x="1298" vert-adv-y="2867" 
d="M389 2365l209 -208l-209 -209l-211 209zM911 2365l209 -208l-209 -209l-211 209zM123 0h1030v172h-428v1495h428v174h-1030v-174h428v-1495h-428v-172z" />
    <glyph glyph-name="Eth" unicode="&#xd0;" horiz-adv-x="1652" vert-adv-y="2867" 
d="M809 1841q100 0 179.5 -5.5t156.5 -20t134 -38.5t106 -62.5t80 -90.5t48 -123.5t17 -161.5v-837q0 -90 -17 -161.5t-48 -123.5t-80 -90.5t-106 -62.5t-134 -38.5t-156.5 -20t-179.5 -5.5h-549v840h-137v168h137v833h549zM1321 502v837q0 78 -14.5 134.5t-50 92t-72 56.5
t-104.5 30.5t-122 12t-149 2.5h-365v-659h146v-168h-146v-666h365q95 0 149 2.5t122 12t104.5 30.5t72 56.5t50 92t14.5 134.5z" />
    <glyph glyph-name="Ntilde" unicode="&#xd1;" horiz-adv-x="1413" vert-adv-y="2867" 
d="M322 2044q0 46 17.5 94.5t45.5 75.5q38 36 91.5 43t98 -3.5t105.5 -33.5l82 -31q51 -20 82 -28t65 -5t56 25q14 14 24 45.5t10 57.5h93q0 -48 -18 -106.5t-46 -84.5q-38 -36 -91.5 -43t-98 3.5t-105.5 33.5l-82 31q-51 20 -81.5 28t-64.5 5t-56 -25q-35 -35 -35 -82h-92z
M113 0v1841h440l506 -1759h45v1759h184v-1841h-416l-499 1759h-76v-1759h-184z" />
    <glyph glyph-name="Ograve" unicode="&#xd2;" horiz-adv-x="1896" vert-adv-y="2867" 
d="M932 1942h-129l82 421h211zM866 -35q-164 0 -300 49.5t-232 137.5t-163 208.5t-98.5 261.5t-31.5 298t31.5 297.5t98.5 260.5t163 207.5t232 137t300 49.5t300 -49.5t232.5 -137t163.5 -207.5t98.5 -260.5t31.5 -297.5t-31.5 -298t-98.5 -261.5t-163.5 -208.5
t-232.5 -137.5t-300 -49.5zM240 920q0 -144 22.5 -262t70.5 -213.5t121 -160t177 -99.5t235 -35q164 0 285 53t195.5 155t110.5 241.5t36 320.5q0 180 -36 319.5t-110.5 241t-195.5 154.5t-285 53q-131 0 -235 -35t-177 -99.5t-121 -160t-70.5 -213t-22.5 -260.5z" />
    <glyph glyph-name="Oacute" unicode="&#xd3;" horiz-adv-x="1896" vert-adv-y="2867" 
d="M891 1942h-129l82 421h211zM866 -35q-164 0 -300 49.5t-232 137.5t-163 208.5t-98.5 261.5t-31.5 298t31.5 297.5t98.5 260.5t163 207.5t232 137t300 49.5t300 -49.5t232.5 -137t163.5 -207.5t98.5 -260.5t31.5 -297.5t-31.5 -298t-98.5 -261.5t-163.5 -208.5
t-232.5 -137.5t-300 -49.5zM240 920q0 -144 22.5 -262t70.5 -213.5t121 -160t177 -99.5t235 -35q164 0 285 53t195.5 155t110.5 241.5t36 320.5q0 180 -36 319.5t-110.5 241t-195.5 154.5t-285 53q-131 0 -235 -35t-177 -99.5t-121 -160t-70.5 -213t-22.5 -260.5z" />
    <glyph glyph-name="Ocircumflex" unicode="&#xd4;" horiz-adv-x="1896" vert-adv-y="2867" 
d="M829 2284l-147 -338h-190l184 421h381l184 -421h-190l-148 338h-74zM866 1872q164 0 300 -49.5t232.5 -137t163.5 -207.5t98.5 -260.5t31.5 -297.5t-31.5 -298t-98.5 -261.5t-163.5 -208.5t-232.5 -137.5t-300 -49.5t-300 49.5t-232 137.5t-163 208.5t-98.5 261.5
t-31.5 298t31.5 297.5t98.5 260.5t163 207.5t232 137t300 49.5zM866 150q164 0 285 53t195.5 155t110.5 241.5t36 320.5q0 180 -36 319.5t-110.5 241t-195.5 154.5t-285 53q-131 0 -235 -35t-177 -99.5t-121 -160t-70.5 -213t-22.5 -260.5q0 -144 22.5 -262t70.5 -213.5
t121 -160t177 -99.5t235 -35z" />
    <glyph glyph-name="Otilde" unicode="&#xd5;" horiz-adv-x="1896" vert-adv-y="2867" 
d="M563 2048q0 46 18 94.5t46 75.5q38 36 91.5 43t98 -3.5t105.5 -33.5l82 -31q51 -20 81.5 -28t64.5 -5t56 25q15 15 25 46t10 57h92q0 -48 -17.5 -106.5t-45.5 -84.5q-38 -36 -91.5 -43t-98 3.5t-105.5 33.5l-82 31q-51 20 -82 28t-65 5t-56 -25q-35 -35 -35 -82h-92z
M866 -35q-164 0 -300 49.5t-232 137.5t-163 208.5t-98.5 261.5t-31.5 298t31.5 297.5t98.5 260.5t163 207.5t232 137t300 49.5t300 -49.5t232.5 -137t163.5 -207.5t98.5 -260.5t31.5 -297.5t-31.5 -298t-98.5 -261.5t-163.5 -208.5t-232.5 -137.5t-300 -49.5zM240 920
q0 -144 22.5 -262t70.5 -213.5t121 -160t177 -99.5t235 -35q164 0 285 53t195.5 155t110.5 241.5t36 320.5q0 180 -36 319.5t-110.5 241t-195.5 154.5t-285 53q-131 0 -235 -35t-177 -99.5t-121 -160t-70.5 -213t-22.5 -260.5z" />
    <glyph glyph-name="Odieresis" unicode="&#xd6;" horiz-adv-x="1732" vert-adv-y="2867" 
d="M606 2365l209 -208l-209 -209l-211 209zM1128 2365l209 -208l-209 -209l-210 209zM866 -35q-164 0 -300 49.5t-232 137.5t-163 208.5t-98.5 261.5t-31.5 298t31.5 297.5t98.5 260.5t163 207.5t232 137t300 49.5t300 -49.5t232.5 -137t163.5 -207.5t98.5 -260.5
t31.5 -297.5t-31.5 -298t-98.5 -261.5t-163.5 -208.5t-232.5 -137.5t-300 -49.5zM240 920q0 -144 22.5 -262t70.5 -213.5t121 -160t177 -99.5t235 -35q164 0 285 53t195.5 155t110.5 241.5t36 320.5q0 180 -36 319.5t-110.5 241t-195.5 154.5t-285 53q-131 0 -235 -35
t-177 -99.5t-121 -160t-70.5 -213t-22.5 -260.5z" />
    <glyph glyph-name="multiply" unicode="&#xd7;" horiz-adv-x="1341" vert-adv-y="2867" 
d="M1239 279l-145 -146l-422 424l-424 -424l-146 146l424 423l-422 420l146 146l422 -420l420 420l145 -146l-420 -420z" />
    <glyph glyph-name="Oslash" unicode="&#xd8;" horiz-adv-x="1855" vert-adv-y="2867" 
d="M1815 1692l-199 -199q137 -241 137 -573q0 -157 -31.5 -298t-98.5 -261.5t-163 -208.5t-232 -137.5t-300 -49.5q-373 0 -594 248l-174 -174l-119 119l195 194q-134 238 -134 568q0 157 31.5 297.5t98.5 260.5t163.5 207.5t232.5 137t300 49.5q370 0 588 -242l180 180z
M301 920q0 -253 70 -433l1024 1022q-160 199 -467 199q-163 0 -284.5 -56.5t-196 -161.5t-110.5 -247.5t-36 -322.5zM1554 920q0 265 -73 438l-1024 -1022q158 -207 471 -207q163 0 284.5 56.5t195.5 162.5t110 248.5t36 323.5z" />
    <glyph glyph-name="Ugrave" unicode="&#xd9;" horiz-adv-x="1896" vert-adv-y="2867" 
d="M1096 1944h-129l-164 421h211zM1589 1839h185v-919q0 -157 -31.5 -298t-98.5 -261.5t-163.5 -208.5t-232.5 -137.5t-300 -49.5t-300 49.5t-232 137.5t-163 208.5t-98.5 261.5t-31.5 298v919h184v-919q0 -180 38 -322t115.5 -245.5t200.5 -158.5t287 -55t287 55
t200.5 158.5t115.5 245.5t38 322v919z" />
    <glyph glyph-name="Uacute" unicode="&#xda;" horiz-adv-x="1896" vert-adv-y="2867" 
d="M1096 2367l-164 -421h-129l82 421h211zM1589 1839h185v-919q0 -157 -31.5 -298t-98.5 -261.5t-163.5 -208.5t-232.5 -137.5t-300 -49.5t-300 49.5t-232 137.5t-163 208.5t-98.5 261.5t-31.5 298v919h184v-919q0 -180 38 -322t115.5 -245.5t200.5 -158.5t287 -55t287 55
t200.5 158.5t115.5 245.5t38 322v919z" />
    <glyph glyph-name="Ucircumflex" unicode="&#xdb;" horiz-adv-x="1896" vert-adv-y="2867" 
d="M911 2284l-147 -338h-191l185 421h381l184 -421h-190l-148 338h-74zM1589 1839h185v-919q0 -157 -31.5 -298t-98.5 -261.5t-163.5 -208.5t-232.5 -137.5t-300 -49.5t-300 49.5t-232 137.5t-163 208.5t-98.5 261.5t-31.5 298v919h184v-919q0 -180 38 -322t115.5 -245.5
t200.5 -158.5t287 -55t287 55t200.5 158.5t115.5 245.5t38 322v919z" />
    <glyph glyph-name="Udieresis" unicode="&#xdc;" horiz-adv-x="1896" vert-adv-y="2867" 
d="M897 2157l-209 -209l-211 209l211 208zM1419 2157l-209 -209l-211 209l211 208zM1589 1839h185v-919q0 -157 -31.5 -298t-98.5 -261.5t-163.5 -208.5t-232.5 -137.5t-300 -49.5t-300 49.5t-232 137.5t-163 208.5t-98.5 261.5t-31.5 298v919h184v-919q0 -180 38 -322
t115.5 -245.5t200.5 -158.5t287 -55t287 55t200.5 158.5t115.5 245.5t38 322v919z" />
    <glyph glyph-name="Yacute" unicode="&#xdd;" horiz-adv-x="1650" vert-adv-y="2867" 
d="M1065 2367l-164 -421h-129l82 421h211zM1354 1841h215l-527 -958h-124v-883h-185v883h-125l-526 958h215l500 -883h57z" />
    <glyph glyph-name="Thorn" unicode="&#xde;" horiz-adv-x="1572" vert-adv-y="2867" 
d="M123 0v1841l184 2v-205h426q171 0 299.5 -26.5t224 -84.5t144.5 -155.5t49 -234.5q0 -138 -49 -237t-144.5 -158t-224 -86t-299.5 -27h-426v-629h-184zM307 803h426q76 0 129.5 2t113.5 10t100 22t79 39t61.5 60t36 85.5t13.5 115.5q0 56 -9.5 101.5t-30 78.5t-45.5 57.5
t-64 40.5t-76.5 26t-92 15t-101.5 6.5t-114 1.5h-426v-661z" />
    <glyph glyph-name="germandbls" unicode="&#xdf;" horiz-adv-x="1280" vert-adv-y="2867" 
d="M119 6v1315q0 154 81.5 235.5t235.5 81.5h211q109 0 196 -24.5t142 -64t91 -93.5t50.5 -109t14.5 -114q0 -137 -90 -248t-263 -176q110 -35 182.5 -70t127 -84.5t79.5 -115t25 -154.5q0 -81 -14 -138.5t-55 -110.5t-112.5 -85.5t-190 -51.5t-283.5 -19v157
q103 0 174.5 4.5t122.5 18t80.5 30t46 47t21.5 63.5t5 85q0 50 -10 83.5t-34 65.5t-79 66.5t-128 71t-199 92.5v90q132 66 209.5 113.5t117 92t51 81t11.5 92.5q0 118 -64 174.5t-225 56.5h-323v-1458h-205z" />
    <glyph glyph-name="agrave" unicode="&#xe0;" vert-adv-y="2867" 
d="M821 1563l-164 422h211l82 -422h-129zM119 451q0 70 28 138.5t80 128t136 101t188 51.5l731 72q0 35 -12.5 74t-46 83.5t-85 79.5t-139.5 58t-198 23q-434 0 -471 -277h-185q30 217 208 334t450 117q124 0 225.5 -18t171.5 -48.5t123 -75t83.5 -91t49.5 -104t25 -107.5
t6 -107v-883h-205v500q-15 -56 -49 -119.5t-93 -132.5t-131.5 -124t-172 -90.5t-207.5 -35.5q-133 0 -233.5 36t-159.5 100t-88 143.5t-29 173.5zM324 451q0 -60 15.5 -108t50 -87t96 -60.5t147.5 -21.5q213 0 386 154.5t263 449.5l-690 -63q-128 -11 -198 -88.5t-70 -175.5
z" />
    <glyph glyph-name="aacute" unicode="&#xe1;" vert-adv-y="2867" 
d="M786 1563h-129l82 422h211zM119 451q0 70 28 138.5t80 128t136 101t188 51.5l731 72q0 35 -12.5 74t-46 83.5t-85 79.5t-139.5 58t-198 23q-434 0 -471 -277h-185q30 217 208 334t450 117q124 0 225.5 -18t171.5 -48.5t123 -75t83.5 -91t49.5 -104t25 -107.5t6 -107v-883
h-205v500q-15 -56 -49 -119.5t-93 -132.5t-131.5 -124t-172 -90.5t-207.5 -35.5q-133 0 -233.5 36t-159.5 100t-88 143.5t-29 173.5zM324 451q0 -60 15.5 -108t50 -87t96 -60.5t147.5 -21.5q213 0 386 154.5t263 449.5l-690 -63q-128 -11 -198 -88.5t-70 -175.5z" />
    <glyph glyph-name="acircumflex" unicode="&#xe2;" vert-adv-y="2867" 
d="M766 1901l-148 -338h-190l184 422h381l185 -422h-191l-147 338h-74zM803 1434q124 0 225.5 -18t171.5 -48.5t123 -75t83.5 -91t49.5 -104t25 -107.5t6 -107v-883h-205v500q-15 -56 -49 -119.5t-93 -132.5t-131.5 -124t-172 -90.5t-207.5 -35.5q-133 0 -233.5 36
t-159.5 100t-88 143.5t-29 173.5q0 70 28 138.5t80 128t136 101t188 51.5l731 72q0 35 -12.5 74t-46 83.5t-85 79.5t-139.5 58t-198 23q-434 0 -471 -277h-185q30 217 208 334t450 117zM633 174q213 0 386 154.5t263 449.5l-690 -63q-128 -11 -198 -88.5t-70 -175.5
q0 -60 15.5 -108t50 -87t96 -60.5t147.5 -21.5z" />
    <glyph glyph-name="atilde" unicode="&#xe3;" vert-adv-y="2867" 
d="M418 1669q0 46 17.5 94.5t45.5 75.5q38 36 91.5 43t98 -3.5t105.5 -33.5l82 -30q52 -20 82.5 -28.5t64.5 -5.5t56 25q15 15 25 46t10 57h92q0 -48 -18 -106.5t-46 -84.5q-38 -36 -91.5 -43t-98 3.5t-105.5 33.5l-81 31q-51 20 -82 28t-65 5t-56 -25q-35 -35 -35 -82h-92z
M119 451q0 70 28 138.5t80 128t136 101t188 51.5l731 72q0 35 -12.5 74t-46 83.5t-85 79.5t-139.5 58t-198 23q-434 0 -471 -277h-185q30 217 208 334t450 117q124 0 225.5 -18t171.5 -48.5t123 -75t83.5 -91t49.5 -104t25 -107.5t6 -107v-883h-205v500q-15 -56 -49 -119.5
t-93 -132.5t-131.5 -124t-172 -90.5t-207.5 -35.5q-133 0 -233.5 36t-159.5 100t-88 143.5t-29 173.5zM324 451q0 -60 15.5 -108t50 -87t96 -60.5t147.5 -21.5q213 0 386 154.5t263 449.5l-690 -63q-128 -11 -198 -88.5t-70 -175.5z" />
    <glyph glyph-name="adieresis" unicode="&#xe4;" vert-adv-y="2867" 
d="M543 1985l209 -209l-209 -209l-211 209zM1065 1985l209 -209l-209 -209l-211 209zM119 451q0 70 28 138.5t80 128t136 101t188 51.5l731 72q0 35 -12.5 74t-46 83.5t-85 79.5t-139.5 58t-198 23q-434 0 -471 -277h-185q30 217 208 334t450 117q124 0 225.5 -18
t171.5 -48.5t123 -75t83.5 -91t49.5 -104t25 -107.5t6 -107v-883h-205v500q-15 -56 -49 -119.5t-93 -132.5t-131.5 -124t-172 -90.5t-207.5 -35.5q-133 0 -233.5 36t-159.5 100t-88 143.5t-29 173.5zM324 451q0 -60 15.5 -108t50 -87t96 -60.5t147.5 -21.5q213 0 386 154.5
t263 449.5l-690 -63q-128 -11 -198 -88.5t-70 -175.5z" />
    <glyph glyph-name="aring" unicode="&#xe5;" vert-adv-y="2867" 
d="M594 1772q0 86 61.5 147t147.5 61t147.5 -61t61.5 -147t-61.5 -147.5t-147.5 -61.5t-147.5 61.5t-61.5 147.5zM696 1772q0 -43 32 -75t75 -32t74.5 32t31.5 75t-31.5 74.5t-74.5 31.5t-75 -31.5t-32 -74.5zM119 451q0 70 28 138.5t80 128t136 101t188 51.5l731 72
q0 35 -12.5 74t-46 83.5t-85 79.5t-139.5 58t-198 23q-434 0 -471 -277h-185q30 217 208 334t450 117q124 0 225.5 -18t171.5 -48.5t123 -75t83.5 -91t49.5 -104t25 -107.5t6 -107v-883h-205v500q-15 -56 -49 -119.5t-93 -132.5t-131.5 -124t-172 -90.5t-207.5 -35.5
q-133 0 -233.5 36t-159.5 100t-88 143.5t-29 173.5zM324 451q0 -60 15.5 -108t50 -87t96 -60.5t147.5 -21.5q213 0 386 154.5t263 449.5l-690 -63q-128 -11 -198 -88.5t-70 -175.5z" />
    <glyph glyph-name="ae" unicode="&#xe6;" horiz-adv-x="2705" vert-adv-y="2867" 
d="M1946 168q200 0 312.5 63.5t133.5 217.5h209q-20 -145 -111.5 -248t-230.5 -153t-313 -50q-136 0 -245 29t-180 75t-123 112t-78.5 130.5t-41.5 138.5q-18 -57 -53.5 -119t-94.5 -128.5t-130.5 -118.5t-168.5 -85.5t-202 -33.5q-133 0 -233.5 36t-159.5 100t-88 143.5
t-29 173.5q0 70 28 138.5t80 127.5t136 100.5t188 52.5l690 72v6q0 26 -0.5 41t-4.5 45t-11 50t-22.5 48.5t-36.5 47.5t-55 40.5t-76.5 34t-102.5 21t-131 8.5q-213 0 -331.5 -71.5t-139.5 -229.5h-185q30 217 208 334t450 117q460 0 588 -250q172 250 555 250
q164 0 288.5 -47t213.5 -146.5t134.5 -259.5t45.5 -379h-1143q0 -46 2.5 -81t13 -82.5t29 -82.5t53 -72.5t82 -61t119.5 -39t162 -15.5zM1946 1237q-118 0 -203.5 -29t-139.5 -89t-82 -143.5t-36 -199.5h907q-8 117 -33 199.5t-76 143t-134.5 89.5t-202.5 29zM633 174
q211 0 371.5 153.5t236.5 450.5l-649 -63q-129 -13 -198.5 -90t-69.5 -174q0 -60 15.5 -108t50 -87t96 -60.5t147.5 -21.5z" />
    <glyph glyph-name="ccedilla" unicode="&#xe7;" horiz-adv-x="1605" vert-adv-y="2867" 
d="M825 174q107 0 184 16.5t127 45t83 78t50.5 103t30.5 132.5l228 -6q0 -220 -150 -371t-415 -184l-109 -320q75 -11 126.5 -70t51.5 -137q0 -86 -61.5 -147.5t-147.5 -61.5t-147.5 61.5t-61.5 147.5h93q0 -47 34.5 -81.5t81.5 -34.5t82 34.5t35 81.5q0 50 -30 83.5
t-87 33.5h-129l68 404q-182 16 -329.5 118t-230.5 265t-83 354q0 150 54.5 285.5t147.5 234.5t224.5 157t279.5 58q325 0 514 -157.5t189 -405.5l-228 -6q-13 85 -30.5 140.5t-50.5 104t-83.5 75t-126.5 41t-184 14.5q-221 0 -352 -150.5t-131 -390.5q0 -244 130.5 -394.5
t352.5 -150.5z" />
    <glyph glyph-name="egrave" unicode="&#xe8;" vert-adv-y="2867" 
d="M821 1563l-164 422h211l82 -422h-129zM1487 602h-1143q0 -45 2.5 -79.5t13 -80t29 -79t53 -68.5t82 -57t119.5 -36t162 -14q190 0 307.5 66t138.5 195h209q-20 -145 -111.5 -248t-230.5 -153t-313 -50q-125 0 -228.5 25t-173 65t-122.5 98t-83 116.5t-48.5 128t-24.5 125
t-6 114.5q0 385 178 574.5t508 189.5q164 0 288.5 -47t213.5 -146.5t134.5 -259.5t45.5 -379zM1251 776q-8 117 -33 199.5t-76 143t-134.5 89.5t-202.5 29q-118 0 -203.5 -29t-139.5 -89t-82 -143.5t-36 -199.5h907z" />
    <glyph glyph-name="eacute" unicode="&#xe9;" vert-adv-y="2867" 
d="M786 1563h-129l82 422h211zM1487 602h-1143q0 -45 2.5 -79.5t13 -80t29 -79t53 -68.5t82 -57t119.5 -36t162 -14q190 0 307.5 66t138.5 195h209q-20 -145 -111.5 -248t-230.5 -153t-313 -50q-125 0 -228.5 25t-173 65t-122.5 98t-83 116.5t-48.5 128t-24.5 125t-6 114.5
q0 385 178 574.5t508 189.5q164 0 288.5 -47t213.5 -146.5t134.5 -259.5t45.5 -379zM1251 776q-8 117 -33 199.5t-76 143t-134.5 89.5t-202.5 29q-118 0 -203.5 -29t-139.5 -89t-82 -143.5t-36 -199.5h907z" />
    <glyph glyph-name="ecircumflex" unicode="&#xea;" vert-adv-y="2867" 
d="M766 1901l-148 -338h-190l184 422h381l185 -422h-191l-147 338h-74zM805 188q190 0 307.5 66t138.5 195h209q-20 -145 -111.5 -248t-230.5 -153t-313 -50q-125 0 -228.5 25t-173 65t-122.5 98t-83 116.5t-48.5 128t-24.5 125t-6 114.5q0 385 178 574.5t508 189.5
q164 0 288.5 -47t213.5 -146.5t134.5 -259.5t45.5 -379h-1143q0 -45 2.5 -79.5t13 -80t29 -79t53 -68.5t82 -57t119.5 -36t162 -14zM805 1237q-118 0 -203.5 -29t-139.5 -89t-82 -143.5t-36 -199.5h907q-8 117 -33 199.5t-76 143t-134.5 89.5t-202.5 29z" />
    <glyph glyph-name="edieresis" unicode="&#xeb;" vert-adv-y="2867" 
d="M543 1985l209 -209l-209 -209l-211 209zM1065 1985l209 -209l-209 -209l-211 209zM1487 602h-1143q0 -45 2.5 -79.5t13 -80t29 -79t53 -68.5t82 -57t119.5 -36t162 -14q190 0 307.5 66t138.5 195h209q-20 -145 -111.5 -248t-230.5 -153t-313 -50q-125 0 -228.5 25
t-173 65t-122.5 98t-83 116.5t-48.5 128t-24.5 125t-6 114.5q0 385 178 574.5t508 189.5q164 0 288.5 -47t213.5 -146.5t134.5 -259.5t45.5 -379zM1251 776q-8 117 -33 199.5t-76 143t-134.5 89.5t-202.5 29q-118 0 -203.5 -29t-139.5 -89t-82 -143.5t-36 -199.5h907z" />
    <glyph glyph-name="igrave" unicode="&#xec;" horiz-adv-x="1200" vert-adv-y="2867" 
d="M676 1563h-129l-164 422h211zM733 174h389v-174h-983v174h389v1086h-409v174h405q91 0 150 -59t59 -150v-1051z" />
    <glyph glyph-name="iacute" unicode="&#xed;" horiz-adv-x="1200" vert-adv-y="2867" 
d="M858 1985l-164 -422h-129l82 422h211zM733 174h389v-174h-983v174h389v1086h-409v174h405q91 0 150 -59t59 -150v-1051z" />
    <glyph glyph-name="icircumflex" unicode="&#xee;" horiz-adv-x="1200" vert-adv-y="2867" 
d="M561 1901l-147 -338h-191l185 422h380l185 -422h-191l-147 338h-74zM733 174h389v-174h-983v174h389v1086h-409v174h405q91 0 150 -59t59 -150v-1051z" />
    <glyph glyph-name="idieresis" unicode="&#xef;" horiz-adv-x="1200" vert-adv-y="2867" 
d="M543 1776l-209 -209l-211 209l211 209zM1065 1776l-209 -209l-211 209l211 209zM733 174h389v-174h-983v174h389v1086h-409v174h405q91 0 150 -59t59 -150v-1051z" />
    <glyph glyph-name="eth" unicode="&#xf0;" horiz-adv-x="1824" vert-adv-y="2867" 
d="M1767 1667h-184v-49h184v-168h-184v-1450h-205v381q-107 -422 -530 -422q-197 0 -365 98.5t-266 269t-98 371.5q0 149 58 285.5t155.5 235t232.5 157t283 58.5q423 0 530 -422v438h-184v168h184v14q0 91 59 150t150 59h180v-174zM848 133q148 0 270.5 78.5t191 208
t68.5 278.5q0 154 -68 282.5t-190 204t-272 75.5q-244 0 -384 -154.5t-140 -407.5q0 -252 139 -408.5t385 -156.5z" />
    <glyph glyph-name="ntilde" unicode="&#xf1;" horiz-adv-x="1609" vert-adv-y="2867" 
d="M643 1751q-35 -35 -35 -82h-92q0 46 18 94.5t46 75.5q38 36 91 43t97.5 -3.5t105.5 -33.5l82 -30q52 -20 82.5 -28.5t64.5 -5.5t56 25q15 15 25 46t10 57h92q0 -48 -17.5 -106.5t-45.5 -84.5q-38 -36 -91.5 -43t-98 3.5t-105.5 33.5l-82 31q-51 20 -82 28t-65 5t-56 -25z
M961 1434q275 0 423 -160.5t148 -435.5v-838h-205v838q0 206 -100 314t-264 108q-100 0 -179.5 -24t-130.5 -63.5t-84.5 -95t-47 -114.5t-13.5 -125v-838h-205v1260h-184v174h180h4q89 -1 147 -60.5t58 -148.5v-68q94 277 453 277z" />
    <glyph glyph-name="ograve" unicode="&#xf2;" horiz-adv-x="1660" vert-adv-y="2867" 
d="M803 1563l-164 422h211l82 -422h-129zM829 -20q-148 0 -282.5 58.5t-232 157t-155 235.5t-57.5 288q0 200 97.5 369t265 267.5t364.5 98.5q148 0 283 -58t233 -156.5t156 -235t58 -285.5q0 -151 -58 -288t-156 -235.5t-233 -157t-283 -58.5zM829 174q124 0 222.5 42
t161.5 116t96.5 173t33.5 214q0 153 -57 274t-175 194t-282 73q-124 0 -222.5 -42t-161 -116t-95.5 -171.5t-33 -211.5q0 -116 33 -214.5t95.5 -172.5t161 -116t222.5 -42z" />
    <glyph glyph-name="oacute" unicode="&#xf3;" horiz-adv-x="1660" vert-adv-y="2867" 
d="M813 1563h-129l82 422h211zM829 -20q-148 0 -282.5 58.5t-232 157t-155 235.5t-57.5 288q0 200 97.5 369t265 267.5t364.5 98.5q148 0 283 -58t233 -156.5t156 -235t58 -285.5q0 -151 -58 -288t-156 -235.5t-233 -157t-283 -58.5zM829 174q124 0 222.5 42t161.5 116
t96.5 173t33.5 214q0 153 -57 274t-175 194t-282 73q-124 0 -222.5 -42t-161 -116t-95.5 -171.5t-33 -211.5q0 -116 33 -214.5t95.5 -172.5t161 -116t222.5 -42z" />
    <glyph glyph-name="ocircumflex" unicode="&#xf4;" horiz-adv-x="1660" vert-adv-y="2867" 
d="M795 1901l-148 -338h-190l184 422h381l184 -422h-190l-148 338h-73zM829 1454q148 0 283 -58t233 -156.5t156 -235t58 -285.5q0 -151 -58 -288t-156 -235.5t-233 -157t-283 -58.5t-282.5 58.5t-232 157t-155 235.5t-57.5 288q0 200 97.5 369t265 267.5t364.5 98.5z
M829 174q124 0 222.5 42t161.5 116t96.5 173t33.5 214q0 153 -57 274t-175 194t-282 73q-124 0 -222.5 -42t-161 -116t-95.5 -171.5t-33 -211.5q0 -116 33 -214.5t95.5 -172.5t161 -116t222.5 -42z" />
    <glyph glyph-name="otilde" unicode="&#xf5;" horiz-adv-x="1660" vert-adv-y="2867" 
d="M446 1669q0 46 18 94.5t46 75.5q38 36 91.5 43t98 -3.5t105.5 -33.5l82 -30q52 -20 82.5 -28.5t64.5 -5.5t56 25q14 14 24 45.5t10 57.5h93q0 -48 -18 -106.5t-46 -84.5q-38 -36 -91.5 -43t-98 3.5t-105.5 33.5l-82 31q-51 20 -82 28t-65 5t-56 -25q-34 -34 -34 -82h-93z
M829 -20q-148 0 -282.5 58.5t-232 157t-155 235.5t-57.5 288q0 200 97.5 369t265 267.5t364.5 98.5q148 0 283 -58t233 -156.5t156 -235t58 -285.5q0 -151 -58 -288t-156 -235.5t-233 -157t-283 -58.5zM829 174q124 0 222.5 42t161.5 116t96.5 173t33.5 214q0 153 -57 274
t-175 194t-282 73q-124 0 -222.5 -42t-161 -116t-95.5 -171.5t-33 -211.5q0 -116 33 -214.5t95.5 -172.5t161 -116t222.5 -42z" />
    <glyph glyph-name="odieresis" unicode="&#xf6;" horiz-adv-x="1660" vert-adv-y="2867" 
d="M571 1985l209 -209l-209 -209l-211 209zM1094 1985l209 -209l-209 -209l-211 209zM829 -20q-148 0 -282.5 58.5t-232 157t-155 235.5t-57.5 288q0 200 97.5 369t265 267.5t364.5 98.5q148 0 283 -58t233 -156.5t156 -235t58 -285.5q0 -151 -58 -288t-156 -235.5
t-233 -157t-283 -58.5zM829 174q124 0 222.5 42t161.5 116t96.5 173t33.5 214q0 153 -57 274t-175 194t-282 73q-124 0 -222.5 -42t-161 -116t-95.5 -171.5t-33 -211.5q0 -116 33 -214.5t95.5 -172.5t161 -116t222.5 -42z" />
    <glyph glyph-name="divide" unicode="&#xf7;" horiz-adv-x="1603" vert-adv-y="2867" 
d="M1501 803v-205h-1399v205h1399z" />
    <glyph glyph-name="oslash" unicode="&#xf8;" horiz-adv-x="1705" vert-adv-y="2867" 
d="M1427 1198q177 -206 177 -479q0 -151 -58 -288t-156 -235.5t-233 -157t-283 -58.5q-137 0 -261.5 49.5t-223.5 138.5l-168 -168l-119 119l177 176q-132 192 -132 424q0 200 97.5 369t265 267.5t364.5 98.5q237 0 431 -141l135 133l119 -119zM362 719q0 -157 60 -283
l747 742q-121 82 -295 82q-124 0 -222.5 -42t-161 -116t-95.5 -171.5t-33 -211.5zM874 174q164 0 282.5 73.5t175.5 195t57 276.5q0 204 -99 342l-768 -762q138 -125 352 -125z" />
    <glyph glyph-name="ugrave" unicode="&#xf9;" horiz-adv-x="1609" vert-adv-y="2867" 
d="M788 1563h-129l-163 422h211zM1348 174h184v-174h-180h-4q-89 1 -147 60.5t-58 148.5v67q-94 -276 -453 -276q-275 0 -423 160.5t-148 435.5v838h205v-838q0 -206 100 -314t264 -108q100 0 179.5 24t130.5 63.5t84.5 95t47 114.5t13.5 125v838h205v-1260z" />
    <glyph glyph-name="uacute" unicode="&#xfa;" horiz-adv-x="1609" vert-adv-y="2867" 
d="M895 1985l-164 -422h-129l82 422h211zM1348 174h184v-174h-180h-4q-89 1 -147 60.5t-58 148.5v67q-94 -276 -453 -276q-275 0 -423 160.5t-148 435.5v838h205v-838q0 -206 100 -314t264 -108q100 0 179.5 24t130.5 63.5t84.5 95t47 114.5t13.5 125v838h205v-1260z" />
    <glyph glyph-name="ucircumflex" unicode="&#xfb;" horiz-adv-x="1609" vert-adv-y="2867" 
d="M727 1901l-147 -338h-191l184 422h381l185 -422h-191l-147 338h-74zM1348 174h184v-174h-180h-4q-89 1 -147 60.5t-58 148.5v67q-94 -276 -453 -276q-275 0 -423 160.5t-148 435.5v838h205v-838q0 -206 100 -314t264 -108q100 0 179.5 24t130.5 63.5t84.5 95t47 114.5
t13.5 125v838h205v-1260z" />
    <glyph glyph-name="udieresis" unicode="&#xfc;" horiz-adv-x="1609" vert-adv-y="2867" 
d="M692 1776l-209 -209l-211 209l211 209zM1214 1776l-208 -209l-211 209l211 209zM1348 174h184v-174h-180h-4q-89 1 -147 60.5t-58 148.5v67q-94 -276 -453 -276q-275 0 -423 160.5t-148 435.5v838h205v-838q0 -206 100 -314t264 -108q100 0 179.5 24t130.5 63.5t84.5 95
t47 114.5t13.5 125v838h205v-1260z" />
    <glyph glyph-name="yacute" unicode="&#xfd;" horiz-adv-x="1277" vert-adv-y="2867" 
d="M633 1563h-129l82 422h211zM61 1434h205l305 -1276h136l305 1276h205l-459 -1928q-43 -177 -105.5 -264.5t-173.5 -142.5l-84 196q122 59 158 211l117 494h-113q-67 0 -119 38.5t-67 100.5z" />
    <glyph glyph-name="thorn" unicode="&#xfe;" horiz-adv-x="1669" vert-adv-y="2867" 
d="M838 1475q148 0 282.5 -58.5t232.5 -157.5t156 -236t58 -288q0 -200 -98 -369t-266 -267.5t-365 -98.5q-424 0 -531 422v-1114h-205v2535h205v-790q107 422 531 422zM817 197q124 0 221.5 41t158.5 114.5t92.5 170.5t31.5 212q0 157 -54 277.5t-169.5 193t-280.5 72.5
q-139 0 -256 -71t-185.5 -196t-68.5 -276q0 -238 147.5 -388t362.5 -150z" />
    <glyph glyph-name="ydieresis" unicode="&#xff;" horiz-adv-x="1277" vert-adv-y="2867" 
d="M379 1985l209 -209l-209 -209l-211 209zM901 1985l209 -209l-209 -209l-211 209zM61 1434h205l305 -1276h136l305 1276h205l-459 -1928q-43 -177 -105.5 -264.5t-173.5 -142.5l-84 196q122 59 158 211l117 494h-113q-67 0 -119 38.5t-67 100.5z" />
    <glyph glyph-name="Amacron" unicode="&#x100;" horiz-adv-x="1814" vert-adv-y="2867" 
d="M717 2195h381v-145h-381v145zM68 0l630 1843h418l631 -1843h-209l-301 895h-659l-302 -895h-208zM643 1069h528l-235 690h-57z" />
    <glyph glyph-name="amacron" unicode="&#x101;" vert-adv-y="2867" 
d="M612 1843h381v-145h-381v145zM119 451q0 70 28 138.5t80 128t136 101t188 51.5l731 72q0 35 -12.5 74t-46 83.5t-85 79.5t-139.5 58t-198 23q-434 0 -471 -277h-185q30 217 208 334t450 117q124 0 225.5 -18t171.5 -48.5t123 -75t83.5 -91t49.5 -104t25 -107.5t6 -107
v-883h-205v500q-15 -56 -49 -119.5t-93 -132.5t-131.5 -124t-172 -90.5t-207.5 -35.5q-133 0 -233.5 36t-159.5 100t-88 143.5t-29 173.5zM324 451q0 -60 15.5 -108t50 -87t96 -60.5t147.5 -21.5q213 0 386 154.5t263 449.5l-690 -63q-128 -11 -198 -88.5t-70 -175.5z" />
    <glyph glyph-name="Abreve" unicode="&#x102;" horiz-adv-x="1814" vert-adv-y="2867" 
d="M1116 2259q0 -100 -60.5 -164.5t-148.5 -64.5t-148.5 64.5t-60.5 164.5h113q0 -50 25.5 -83.5t70.5 -33.5t71 33.5t26 83.5h112zM68 0l630 1843h418l631 -1843h-209l-301 895h-659l-302 -895h-208zM643 1069h528l-235 690h-57z" />
    <glyph glyph-name="abreve" unicode="&#x103;" vert-adv-y="2867" 
d="M1012 1884q0 -100 -60.5 -164.5t-148.5 -64.5t-148.5 64.5t-60.5 164.5h113q0 -50 25.5 -83.5t70.5 -33.5t70.5 33.5t25.5 83.5h113zM119 451q0 70 28 138.5t80 128t136 101t188 51.5l731 72q0 35 -12.5 74t-46 83.5t-85 79.5t-139.5 58t-198 23q-434 0 -471 -277h-185
q30 217 208 334t450 117q124 0 225.5 -18t171.5 -48.5t123 -75t83.5 -91t49.5 -104t25 -107.5t6 -107v-883h-205v500q-15 -56 -49 -119.5t-93 -132.5t-131.5 -124t-172 -90.5t-207.5 -35.5q-133 0 -233.5 36t-159.5 100t-88 143.5t-29 173.5zM324 451q0 -60 15.5 -108
t50 -87t96 -60.5t147.5 -21.5q213 0 386 154.5t263 449.5l-690 -63q-128 -11 -198 -88.5t-70 -175.5z" />
    <glyph glyph-name="Aogonek" unicode="&#x104;" horiz-adv-x="1878" vert-adv-y="2867" 
d="M1718 -207h92q0 -86 -61 -147.5t-147 -61.5t-147.5 61.5t-61.5 147.5q0 78 42.5 138t102.5 69l-301 895h-659l-302 -895h-208l630 1843h418l631 -1843h-16l-115 -25q-44 -10 -72 -30t-40 -48.5t-15.5 -51t-3.5 -52.5q0 -47 35 -82t82 -35t81.5 35t34.5 82zM643 1069h528
l-235 690h-57z" />
    <glyph glyph-name="aogonek" unicode="&#x105;" horiz-adv-x="1572" vert-adv-y="2867" 
d="M1403 -207h92q0 -86 -61.5 -147.5t-147.5 -61.5t-147.5 61.5t-61.5 147.5q0 78 43 138t103 69h59v500q-15 -56 -49 -119.5t-93 -132.5t-131.5 -124t-172 -90.5t-207.5 -35.5q-133 0 -233.5 36t-159.5 100t-88 143.5t-29 173.5q0 70 28 138.5t80 128t136 101t188 51.5
l731 72q0 35 -12.5 74t-46 83.5t-85 79.5t-139.5 58t-198 23q-434 0 -471 -277h-185q30 217 208 334t450 117q124 0 225.5 -18t171.5 -48.5t123 -75t83.5 -91t49.5 -104t25 -107.5t6 -107v-883h-72l-115 -25q-44 -10 -72 -30t-40 -48.5t-15.5 -51t-3.5 -52.5q0 -47 35 -82
t82 -35t82 35t35 82zM633 174q213 0 386 154.5t263 449.5l-690 -63q-128 -11 -198 -88.5t-70 -175.5q0 -60 15.5 -108t50 -87t96 -60.5t147.5 -21.5z" />
    <glyph glyph-name="Cacute" unicode="&#x106;" horiz-adv-x="1892" vert-adv-y="2867" 
d="M1032 1942h-129l82 421h211zM1769 772q0 -376 -216 -591.5t-605 -215.5q-164 0 -300 49.5t-232 137.5t-163 208.5t-98.5 261.5t-31.5 298t31.5 297.5t98.5 260.5t163 207.5t232 137t300 49.5q387 0 604 -218t217 -589h-202q0 320 -153.5 471.5t-465.5 151.5
q-620 0 -620 -768q0 -770 620 -770q314 0 466.5 149t152.5 473h202z" />
    <glyph glyph-name="cacute" unicode="&#x107;" horiz-adv-x="1605" vert-adv-y="2867" 
d="M807 1563h-129l82 422h211zM119 719q0 150 54.5 285.5t147.5 234.5t224.5 157t279.5 58q325 0 514 -157.5t189 -405.5l-228 -6q-13 85 -30.5 140.5t-50.5 104t-83.5 75t-126.5 41t-184 14.5q-221 0 -352 -150.5t-131 -390.5q0 -244 130.5 -394.5t352.5 -150.5
q107 0 184 16.5t127 45t83 78t50.5 103t30.5 132.5l228 -6q0 -248 -189 -405.5t-514 -157.5q-148 0 -279 58t-224.5 157t-148 235.5t-54.5 288.5z" />
    <glyph glyph-name="Cdotaccent" unicode="&#x10a;" horiz-adv-x="1892" vert-adv-y="2867" 
d="M969 2361l209 -209l-209 -208l-211 208zM1769 772q0 -376 -216 -591.5t-605 -215.5q-164 0 -300 49.5t-232 137.5t-163 208.5t-98.5 261.5t-31.5 298t31.5 297.5t98.5 260.5t163 207.5t232 137t300 49.5q387 0 604 -218t217 -589h-202q0 320 -153.5 471.5t-465.5 151.5
q-620 0 -620 -768q0 -770 620 -770q314 0 466.5 149t152.5 473h202z" />
    <glyph glyph-name="cdotaccent" unicode="&#x10b;" horiz-adv-x="1605" vert-adv-y="2867" 
d="M825 1985l209 -209l-209 -209l-211 209zM119 719q0 150 54.5 285.5t147.5 234.5t224.5 157t279.5 58q325 0 514 -157.5t189 -405.5l-228 -6q-13 85 -30.5 140.5t-50.5 104t-83.5 75t-126.5 41t-184 14.5q-221 0 -352 -150.5t-131 -390.5q0 -244 130.5 -394.5
t352.5 -150.5q107 0 184 16.5t127 45t83 78t50.5 103t30.5 132.5l228 -6q0 -248 -189 -405.5t-514 -157.5q-148 0 -279 58t-224.5 157t-148 235.5t-54.5 288.5z" />
    <glyph glyph-name="Ccaron" unicode="&#x10c;" horiz-adv-x="1892" vert-adv-y="2867" 
d="M756 1937l-185 422h191l147 -338h74l147 338h191l-184 -422h-381zM948 150q314 0 466.5 149t152.5 473h202q0 -376 -216 -591.5t-605 -215.5q-164 0 -300 49.5t-232 137.5t-163 208.5t-98.5 261.5t-31.5 298t31.5 297.5t98.5 260.5t163 207.5t232 137t300 49.5
q387 0 604 -218t217 -589h-202q0 320 -153.5 471.5t-465.5 151.5q-620 0 -620 -768q0 -770 620 -770z" />
    <glyph glyph-name="ccaron" unicode="&#x10d;" horiz-adv-x="1605" vert-adv-y="2867" 
d="M633 1563l-184 422h190l147 -338h74l148 338h190l-184 -422h-381zM825 174q107 0 184 16.5t127 45t83 78t50.5 103t30.5 132.5l228 -6q0 -248 -189 -405.5t-514 -157.5q-148 0 -279 58t-224.5 157t-148 235.5t-54.5 288.5q0 150 54.5 285.5t147.5 234.5t224.5 157
t279.5 58q325 0 514 -157.5t189 -405.5l-228 -6q-13 85 -30.5 140.5t-50.5 104t-83.5 75t-126.5 41t-184 14.5q-221 0 -352 -150.5t-131 -390.5q0 -244 130.5 -394.5t352.5 -150.5z" />
    <glyph glyph-name="Dcaron" unicode="&#x10e;" horiz-adv-x="1515" vert-adv-y="2867" 
d="M506 1937l-184 422h190l147 -338h74l148 338h190l-184 -422h-381zM672 1841q100 0 179.5 -5.5t156.5 -20t134 -38.5t106 -62.5t80 -90.5t48 -123.5t17 -161.5v-837q0 -90 -17 -161.5t-48 -123.5t-80 -90.5t-106 -62.5t-134 -38.5t-156.5 -20t-179.5 -5.5h-549v1841h549z
M1184 502v837q0 47 -5.5 86t-18.5 69.5t-27.5 55t-39.5 42t-47.5 30.5t-58.5 21t-65.5 13t-76 7.5t-82 3t-91.5 0.5h-365v-1493h365q56 0 91.5 0.5t82 3t76 7.5t65.5 13t58.5 21t47.5 30.5t39.5 42t27.5 55t18.5 69.5t5.5 86z" />
    <glyph glyph-name="dcaron" unicode="&#x10f;" horiz-adv-x="1824" vert-adv-y="2867" 
d="M1907 1423h-129l82 422h211zM1767 1667h-184v-1667h-205v381q-107 -422 -530 -422q-197 0 -365 98.5t-266 269t-98 371.5q0 149 58 285.5t155.5 235t232.5 157t283 58.5q423 0 530 -422v620q0 91 59 150t150 59h180v-174zM1378 698q0 154 -68 282.5t-190 204t-272 75.5
q-244 0 -384 -154.5t-140 -407.5q0 -252 139 -408.5t385 -156.5q148 0 270.5 78.5t191 208t68.5 278.5z" />
    <glyph glyph-name="Dcroat" unicode="&#x110;" horiz-adv-x="1652" vert-adv-y="2867" 
d="M809 1841q100 0 179.5 -5.5t156.5 -20t134 -38.5t106 -62.5t80 -90.5t48 -123.5t17 -161.5v-837q0 -90 -17 -161.5t-48 -123.5t-80 -90.5t-106 -62.5t-134 -38.5t-156.5 -20t-179.5 -5.5h-549v840h-137v168h137v833h549zM1321 502v837q0 78 -14.5 134.5t-50 92t-72 56.5
t-104.5 30.5t-122 12t-149 2.5h-365v-659h146v-168h-146v-666h365q95 0 149 2.5t122 12t104.5 30.5t72 56.5t50 92t14.5 134.5z" />
    <glyph glyph-name="dcroat" unicode="&#x111;" horiz-adv-x="1824" vert-adv-y="2867" 
d="M1767 1667h-184v-49h184v-168h-184v-1450h-205v381q-107 -422 -530 -422q-197 0 -365 98.5t-266 269t-98 371.5q0 149 58 285.5t155.5 235t232.5 157t283 58.5q423 0 530 -422v438h-184v168h184v14q0 91 59 150t150 59h180v-174zM848 133q148 0 270.5 78.5t191 208
t68.5 278.5q0 154 -68 282.5t-190 204t-272 75.5q-244 0 -384 -154.5t-140 -407.5q0 -252 139 -408.5t385 -156.5z" />
    <glyph glyph-name="Emacron" unicode="&#x112;" horiz-adv-x="1343" vert-adv-y="2867" 
d="M481 2195h381v-145h-381v145zM1262 1843h-1180v-1843h1180v174h-996v721h707v174h-707v600h996v174z" />
    <glyph glyph-name="emacron" unicode="&#x113;" vert-adv-y="2867" 
d="M612 1843h381v-145h-381v145zM1487 602h-1143q0 -45 2.5 -79.5t13 -80t29 -79t53 -68.5t82 -57t119.5 -36t162 -14q190 0 307.5 66t138.5 195h209q-20 -145 -111.5 -248t-230.5 -153t-313 -50q-125 0 -228.5 25t-173 65t-122.5 98t-83 116.5t-48.5 128t-24.5 125
t-6 114.5q0 385 178 574.5t508 189.5q164 0 288.5 -47t213.5 -146.5t134.5 -259.5t45.5 -379zM1251 776q-8 117 -33 199.5t-76 143t-134.5 89.5t-202.5 29q-118 0 -203.5 -29t-139.5 -89t-82 -143.5t-36 -199.5h907z" />
    <glyph glyph-name="Edotaccent" unicode="&#x116;" horiz-adv-x="1343" vert-adv-y="2867" 
d="M674 2365l209 -208l-209 -209l-211 209zM1262 1843h-1180v-1843h1180v174h-996v721h707v174h-707v600h996v174z" />
    <glyph glyph-name="edotaccent" unicode="&#x117;" vert-adv-y="2867" 
d="M805 1985l209 -209l-209 -209l-211 209zM1487 602h-1143q0 -45 2.5 -79.5t13 -80t29 -79t53 -68.5t82 -57t119.5 -36t162 -14q190 0 307.5 66t138.5 195h209q-20 -145 -111.5 -248t-230.5 -153t-313 -50q-125 0 -228.5 25t-173 65t-122.5 98t-83 116.5t-48.5 128
t-24.5 125t-6 114.5q0 385 178 574.5t508 189.5q164 0 288.5 -47t213.5 -146.5t134.5 -259.5t45.5 -379zM1251 776q-8 117 -33 199.5t-76 143t-134.5 89.5t-202.5 29q-118 0 -203.5 -29t-139.5 -89t-82 -143.5t-36 -199.5h907z" />
    <glyph glyph-name="Eogonek" unicode="&#x118;" horiz-adv-x="1343" vert-adv-y="2867" 
d="M1288 -207h92q0 -86 -61.5 -147.5t-147.5 -61.5t-147 61.5t-61 147.5q0 78 42.5 138t102.5 69h-1026v1843h1180v-174h-996v-600h707v-174h-707v-721h996v-174h38l-114 -25q-44 -10 -72 -30t-40 -48.5t-15.5 -51t-3.5 -52.5q0 -47 34.5 -82t81.5 -35t82 35t35 82z" />
    <glyph glyph-name="eogonek" unicode="&#x119;" vert-adv-y="2867" 
d="M805 188q190 0 307.5 66t138.5 195h209q-19 -139 -104 -240t-215 -153t-295 -58q-41 -10 -68.5 -30t-38.5 -48t-14.5 -50t-3.5 -52q0 -47 35 -82t82 -35t81.5 35t34.5 82h93q0 -86 -61.5 -147.5t-147.5 -61.5t-147.5 61.5t-61.5 147.5q0 57 24.5 106t63.5 78
q-109 8 -198.5 37.5t-150.5 71t-107 98.5t-72.5 113t-42.5 121.5t-21.5 118t-5.5 108.5q0 385 178 574.5t508 189.5q164 0 288.5 -47t213.5 -146.5t134.5 -259.5t45.5 -379h-1143q0 -45 2.5 -79.5t13 -80t29 -79t53 -68.5t82 -57t119.5 -36t162 -14zM805 1237
q-118 0 -203.5 -29t-139.5 -89t-82 -143.5t-36 -199.5h907q-8 117 -33 199.5t-76 143t-134.5 89.5t-202.5 29z" />
    <glyph glyph-name="Ecaron" unicode="&#x11a;" horiz-adv-x="1343" vert-adv-y="2867" 
d="M481 1937l-184 422h190l148 -338h74l147 338h191l-185 -422h-381zM1262 1669h-996v-600h707v-174h-707v-721h996v-174h-1180v1843h1180v-174z" />
    <glyph glyph-name="ecaron" unicode="&#x11b;" vert-adv-y="2867" 
d="M612 1563l-184 422h190l148 -338h74l147 338h191l-185 -422h-381zM805 188q190 0 307.5 66t138.5 195h209q-20 -145 -111.5 -248t-230.5 -153t-313 -50q-125 0 -228.5 25t-173 65t-122.5 98t-83 116.5t-48.5 128t-24.5 125t-6 114.5q0 385 178 574.5t508 189.5
q164 0 288.5 -47t213.5 -146.5t134.5 -259.5t45.5 -379h-1143q0 -45 2.5 -79.5t13 -80t29 -79t53 -68.5t82 -57t119.5 -36t162 -14zM805 1237q-118 0 -203.5 -29t-139.5 -89t-82 -143.5t-36 -199.5h907q-8 117 -33 199.5t-76 143t-134.5 89.5t-202.5 29z" />
    <glyph glyph-name="Gbreve" unicode="&#x11e;" horiz-adv-x="1988" vert-adv-y="2867" 
d="M995 2048q-88 0 -148.5 64.5t-60.5 164.5h113q0 -50 25.5 -83t70.5 -33t71 33t26 83h112q0 -100 -60.5 -164.5t-148.5 -64.5zM1866 915v-915h-174v741h-43q0 -121 -26 -233t-82 -212t-137 -174t-198 -117.5t-258 -43.5q-164 0 -300 49.5t-232 137t-163 208t-98.5 261.5
t-31.5 298t31.5 297.5t98.5 261t163 208t232 137t300 49.5q189 0 340.5 -65.5t251 -181t157.5 -265.5t72 -328l-206 -6q-9 141 -54 260.5t-121 209t-189 140.5t-251 51q-151 0 -270 -58.5t-195 -162.5t-115.5 -243t-39.5 -304q0 -166 39.5 -305.5t115.5 -243.5t195 -162.5
t270 -58.5q213 0 353.5 150.5t173.5 445.5h-527v174h918z" />
    <glyph glyph-name="gbreve" unicode="&#x11f;" horiz-adv-x="1652" vert-adv-y="2867" 
d="M848 1655q-88 0 -148.5 64.5t-60.5 164.5h113q0 -50 25.5 -83.5t70.5 -33.5t70.5 33.5t25.5 83.5h113q0 -100 -60.5 -164.5t-148.5 -64.5zM1575 1464h-311l-7 -106q148 -79 233 -216.5t85 -320.5q0 -92 -18 -166t-45.5 -126.5t-77.5 -102t-96.5 -82.5t-120.5 -78
q29 -7 63 -22.5t78 -48t78 -75.5t58 -110.5t24 -146.5q0 -44 -9 -86.5t-31 -88t-56.5 -85t-88.5 -75.5t-122.5 -61t-164 -40t-208.5 -15h-494v174h494q119 0 208 18.5t138.5 46t80 66.5t39.5 73t9 73q0 68 -32.5 120.5t-83.5 81.5t-114 44t-124 13t-113 -16l-502 -139v187
l502 133q-727 0 -727 534q0 119 37 221.5t103.5 177.5t157.5 128t199.5 79.5t229.5 26.5q108 0 198 -20q36 95 126.5 149.5t201.5 54.5h203v-174zM1370 821q0 235 -128.5 347t-395.5 112q-266 0 -394 -111.5t-128 -347.5q0 -111 31 -185t98.5 -116.5t161 -60t231.5 -17.5
q139 0 232.5 17.5t161.5 60t99 116.5t31 185z" />
    <glyph glyph-name="Gdotaccent" unicode="&#x120;" horiz-adv-x="1988" vert-adv-y="2867" 
d="M1163 2152l-209 -208l-211 208l211 209zM1866 915v-915h-174v741h-43q0 -121 -26 -233t-82 -212t-137 -174t-198 -117.5t-258 -43.5q-164 0 -300 49.5t-232 137t-163 208t-98.5 261.5t-31.5 298t31.5 297.5t98.5 261t163 208t232 137t300 49.5q189 0 340.5 -65.5
t251 -181t157.5 -265.5t72 -328l-206 -6q-9 141 -54 260.5t-121 209t-189 140.5t-251 51q-151 0 -270 -58.5t-195 -162.5t-115.5 -243t-39.5 -304q0 -166 39.5 -305.5t115.5 -243.5t195 -162.5t270 -58.5q213 0 353.5 150.5t173.5 445.5h-527v174h918z" />
    <glyph glyph-name="gdotaccent" unicode="&#x121;" horiz-adv-x="1652" vert-adv-y="2867" 
d="M1057 1776l-209 -209l-211 209l211 209zM1575 1464h-311l-7 -106q148 -79 233 -216.5t85 -320.5q0 -92 -18 -166t-45.5 -126.5t-77.5 -102t-96.5 -82.5t-120.5 -78q29 -7 63 -22.5t78 -48t78 -75.5t58 -110.5t24 -146.5q0 -44 -9 -86.5t-31 -88t-56.5 -85t-88.5 -75.5
t-122.5 -61t-164 -40t-208.5 -15h-494v174h494q119 0 208 18.5t138.5 46t80 66.5t39.5 73t9 73q0 68 -32.5 120.5t-83.5 81.5t-114 44t-124 13t-113 -16l-502 -139v187l502 133q-727 0 -727 534q0 119 37 221.5t103.5 177.5t157.5 128t199.5 79.5t229.5 26.5q108 0 198 -20
q36 95 126.5 149.5t201.5 54.5h203v-174zM1370 821q0 235 -128.5 347t-395.5 112q-266 0 -394 -111.5t-128 -347.5q0 -111 31 -185t98.5 -116.5t161 -60t231.5 -17.5q139 0 232.5 17.5t161.5 60t99 116.5t31 185z" />
    <glyph glyph-name="uni0122" unicode="&#x122;" horiz-adv-x="1988" vert-adv-y="2867" 
d="M1866 915v-915h-174v741h-43q0 -121 -26 -233t-82 -212t-137 -174t-198 -117.5t-258 -43.5q-164 0 -300 49.5t-232 137t-163 208t-98.5 261.5t-31.5 298t31.5 297.5t98.5 261t163 208t232 137t300 49.5q189 0 340.5 -65.5t251 -181t157.5 -265.5t72 -328l-206 -6
q-9 141 -54 260.5t-121 209t-189 140.5t-251 51q-151 0 -270 -58.5t-195 -162.5t-115.5 -243t-39.5 -304q0 -166 39.5 -305.5t115.5 -243.5t195 -162.5t270 -58.5q213 0 353.5 150.5t173.5 445.5h-527v174h918zM807 -516l184 422h191l-185 -422h-190z" />
    <glyph glyph-name="uni0123" unicode="&#x123;" horiz-adv-x="1652" vert-adv-y="2867" 
d="M993 1985l-82 -422h-211l164 422h129zM1575 1464h-311l-7 -106q148 -79 233 -216.5t85 -320.5q0 -92 -18 -166t-45.5 -126.5t-77.5 -102t-96.5 -82.5t-120.5 -78q29 -7 63 -22.5t78 -48t78 -75.5t58 -110.5t24 -146.5q0 -44 -9 -86.5t-31 -88t-56.5 -85t-88.5 -75.5
t-122.5 -61t-164 -40t-208.5 -15h-494v174h494q119 0 208 18.5t138.5 46t80 66.5t39.5 73t9 73q0 68 -32.5 120.5t-83.5 81.5t-114 44t-124 13t-113 -16l-502 -139v187l502 133q-727 0 -727 534q0 119 37 221.5t103.5 177.5t157.5 128t199.5 79.5t229.5 26.5q108 0 198 -20
q36 95 126.5 149.5t201.5 54.5h203v-174zM1370 821q0 235 -128.5 347t-395.5 112q-266 0 -394 -111.5t-128 -347.5q0 -111 31 -185t98.5 -116.5t161 -60t231.5 -17.5q139 0 232.5 17.5t161.5 60t99 116.5t31 185z" />
    <glyph glyph-name="Hbar" unicode="&#x126;" horiz-adv-x="1542" vert-adv-y="2867" 
d="M1354 1841h188v-1841h-188v864h-1047v-864h-184v1841h184v-506h1047v506zM307 1038h1047v123h-1047v-123z" />
    <glyph glyph-name="hbar" unicode="&#x127;" horiz-adv-x="1609" vert-adv-y="2867" 
d="M961 1434q275 0 423 -160.5t148 -435.5v-838h-205v838q0 206 -100 314t-264 108q-106 0 -187.5 -24t-131.5 -63t-81.5 -95.5t-43 -114t-11.5 -125.5v-838h-205v1434h-184v168h184v67h-184v174h180h4q89 -1 147 -60.5t58 -148.5v-32h184v-168h-184v-277q94 277 453 277z
" />
    <glyph glyph-name="Imacron" unicode="&#x12a;" horiz-adv-x="1298" vert-adv-y="2867" 
d="M459 2193h381v-145h-381v145zM123 0h1030v172h-428v1495h428v174h-1030v-174h428v-1495h-428v-172z" />
    <glyph glyph-name="imacron" unicode="&#x12b;" horiz-adv-x="1200" vert-adv-y="2867" 
d="M786 1843v-145h-380v145h380zM733 174h389v-174h-983v174h389v1086h-409v174h405q91 0 150 -59t59 -150v-1051z" />
    <glyph glyph-name="Iogonek" unicode="&#x12e;" horiz-adv-x="1298" vert-adv-y="2867" 
d="M1153 1667h-428v-1495h428v-172h-467l-115 -25q-44 -10 -72 -30t-40 -48.5t-15.5 -51t-3.5 -52.5q0 -47 35 -82t82 -35t82 35t35 82h92q0 -86 -61.5 -147.5t-147.5 -61.5t-147.5 61.5t-61.5 147.5q0 78 43 138t103 69h-371v172h428v1495h-428v174h1030v-174z" />
    <glyph glyph-name="iogonek" unicode="&#x12f;" horiz-adv-x="1200" vert-adv-y="2867" 
d="M838 1776l-209 -209l-211 209l211 209zM668 0q-44 -10 -72 -30t-40 -48.5t-15.5 -51t-3.5 -52.5q0 -47 34.5 -82t81.5 -35t82 35t35 82h92q0 -86 -61.5 -147.5t-147.5 -61.5t-147.5 61.5t-61.5 147.5q0 57 23.5 105.5t62.5 76.5h-391v174h389v1086h-409v174h405
q91 0 150 -59t59 -150v-1051h389v-174h-454z" />
    <glyph glyph-name="Idotaccent" unicode="&#x130;" horiz-adv-x="1298" vert-adv-y="2867" 
d="M651 2361l209 -209l-209 -208l-211 208zM123 0h1030v172h-428v1495h428v174h-1030v-174h428v-1495h-428v-172z" />
    <glyph glyph-name="dotlessi" unicode="&#x131;" horiz-adv-x="1179" vert-adv-y="2867" 
d="M119 0v174h389v1086h-389v174h983v-174h-389v-1086h389v-174h-983z" />
    <glyph glyph-name="uni0136" unicode="&#x136;" horiz-adv-x="1421" vert-adv-y="2867" 
d="M1298 1665h-399l-174 -741h573v-924h-184v750h-807v-750h-184v1841h184v-917h217l160 630q32 131 138.5 209t246.5 78h229v-176zM524 -516l185 422h190l-184 -422h-191z" />
    <glyph glyph-name="uni0137" unicode="&#x137;" horiz-adv-x="1544" vert-adv-y="2867" 
d="M1466 1260h-311l-74 -297l250 -789h135v-174h-149q-66 0 -117 38t-70 101l-204 711h-418v-850h-205v1665h-184v174h180q91 0 150 -59t59 -150v-606h369l45 154q34 117 126.5 186.5t215.5 69.5h202v-174zM606 -516l185 422h190l-184 -422h-191z" />
    <glyph glyph-name="Lacute" unicode="&#x139;" horiz-adv-x="1386" vert-adv-y="2867" 
d="M270 1944h-129l82 421h211zM307 1841h-184v-1841h1202v174h-1018v1667z" />
    <glyph glyph-name="lacute" unicode="&#x13a;" horiz-adv-x="770" vert-adv-y="2867" 
d="M389 1993h-129l82 422h211zM119 0v174h184v1542h-184v174h180q91 0 150 -59t59 -150v-1507h184v-174h-573z" />
    <glyph glyph-name="uni013B" unicode="&#x13b;" horiz-adv-x="1386" vert-adv-y="2867" 
d="M307 1841h-184v-1841h1202v174h-1018v1667zM653 -516h-190l184 422h191z" />
    <glyph glyph-name="uni013C" unicode="&#x13c;" horiz-adv-x="770" vert-adv-y="2867" 
d="M119 0v174h184v1542h-184v174h180q91 0 150 -59t59 -150v-1507h184v-174h-573zM348 -516h-190l184 422h190z" />
    <glyph glyph-name="Lcaron" unicode="&#x13d;" horiz-adv-x="1386" vert-adv-y="2867" 
d="M612 1423h-129l82 422h211zM307 1841h-184v-1841h1202v174h-1018v1667z" />
    <glyph glyph-name="lcaron" unicode="&#x13e;" horiz-adv-x="942" vert-adv-y="2867" 
d="M119 0v174h184v1542h-184v174h180q91 0 150 -59t59 -150v-1507h184v-174h-573zM700 1468h-129l82 422h211z" />
    <glyph glyph-name="Lslash" unicode="&#x141;" horiz-adv-x="1728" vert-adv-y="2867" 
d="M670 176h1018v-176h-1203v717l-243 -246l-119 119l362 364v887h185v-702l229 231l119 -119l-348 -350v-725z" />
    <glyph glyph-name="lslash" unicode="&#x142;" horiz-adv-x="1091" vert-adv-y="2867" 
d="M729 989v-815h184v-174h-573v174h184v610l-286 -288l-119 118l405 408v694h-184v174h180q91 0 150 -59t59 -150v-452l166 166l119 -119z" />
    <glyph glyph-name="Nacute" unicode="&#x143;" horiz-adv-x="1413" vert-adv-y="2867" 
d="M690 1942h-129l82 421h211zM113 0v1841h440l506 -1759h45v1759h184v-1841h-416l-499 1759h-76v-1759h-184z" />
    <glyph glyph-name="nacute" unicode="&#x144;" horiz-adv-x="1609" vert-adv-y="2867" 
d="M1098 1985l-164 -422h-129l82 422h211zM961 1434q275 0 423 -160.5t148 -435.5v-838h-205v838q0 206 -100 314t-264 108q-100 0 -179.5 -24t-130.5 -63.5t-84.5 -95t-47 -114.5t-13.5 -125v-838h-205v1260h-184v174h180h4q89 -1 147 -60.5t58 -148.5v-68q94 277 453 277z
" />
    <glyph glyph-name="uni0145" unicode="&#x145;" horiz-adv-x="1413" vert-adv-y="2867" 
d="M113 0v1841h440l506 -1759h45v1759h184v-1841h-416l-499 1759h-76v-1759h-184zM670 -516h-191l185 422h190z" />
    <glyph glyph-name="uni0146" unicode="&#x146;" horiz-adv-x="1609" vert-adv-y="2867" 
d="M961 1434q275 0 423 -160.5t148 -435.5v-838h-205v838q0 206 -100 314t-264 108q-100 0 -179.5 -24t-130.5 -63.5t-84.5 -95t-47 -114.5t-13.5 -125v-838h-205v1260h-184v174h180h4q89 -1 147 -60.5t58 -148.5v-68q94 277 453 277zM618 -516l185 422h190l-184 -422h-191z
" />
    <glyph glyph-name="Ncaron" unicode="&#x147;" horiz-adv-x="1413" vert-adv-y="2867" 
d="M516 1937l-184 422h190l148 -338h73l148 338h190l-184 -422h-381zM1104 1841h184v-1841h-416l-499 1759h-76v-1759h-184v1841h440l506 -1759h45v1759z" />
    <glyph glyph-name="ncaron" unicode="&#x148;" horiz-adv-x="1609" vert-adv-y="2867" 
d="M696 1563l-184 422h190l148 -338h74l147 338h191l-185 -422h-381zM961 1434q275 0 423 -160.5t148 -435.5v-838h-205v838q0 206 -100 314t-264 108q-100 0 -179.5 -24t-130.5 -63.5t-84.5 -95t-47 -114.5t-13.5 -125v-838h-205v1260h-184v174h180h4q89 -1 147 -60.5
t58 -148.5v-68q94 277 453 277z" />
    <glyph glyph-name="Eng" unicode="&#x14a;" horiz-adv-x="1415" vert-adv-y="2867" 
d="M1110 -393q76 -11 128 -70.5t52 -136.5q0 -86 -62.5 -147.5t-150.5 -61.5q-86 0 -148.5 61.5t-62.5 147.5h95q0 -47 34.5 -82t81.5 -35q49 0 84 34.5t35 82.5q0 51 -30.5 84t-88.5 33h-129l82 483h-158l-499 1759h-76v-1759h-184v1841h440l506 -1759h45v1759h184v-1841
h-45z" />
    <glyph glyph-name="eng" unicode="&#x14b;" horiz-adv-x="1652" vert-adv-y="2867" 
d="M1403 -393q72 -11 122 -70t50 -137q0 -86 -59.5 -147.5t-141.5 -61.5q-83 0 -141.5 61.5t-58.5 147.5h88q0 -47 33 -82t79 -35q44 0 77.5 35t33.5 82q0 51 -28.5 84t-82.5 33h-125l78 483v838q0 206 -100 314t-264 108q-100 0 -179.5 -24t-130.5 -63.5t-84.5 -95
t-47 -114.5t-13.5 -125v-838h-205v1260h-184v174h180h4q89 -1 147 -60.5t58 -148.5v-68q94 277 453 277q275 0 423 -160.5t148 -435.5v-838h-2z" />
    <glyph glyph-name="Omacron" unicode="&#x14c;" horiz-adv-x="1896" vert-adv-y="2867" 
d="M932 1942h-129l82 421h211zM866 -35q-164 0 -300 49.5t-232 137.5t-163 208.5t-98.5 261.5t-31.5 298t31.5 297.5t98.5 260.5t163 207.5t232 137t300 49.5t300 -49.5t232.5 -137t163.5 -207.5t98.5 -260.5t31.5 -297.5t-31.5 -298t-98.5 -261.5t-163.5 -208.5
t-232.5 -137.5t-300 -49.5zM240 920q0 -144 22.5 -262t70.5 -213.5t121 -160t177 -99.5t235 -35q164 0 285 53t195.5 155t110.5 241.5t36 320.5q0 180 -36 319.5t-110.5 241t-195.5 154.5t-285 53q-131 0 -235 -35t-177 -99.5t-121 -160t-70.5 -213t-22.5 -260.5z" />
    <glyph glyph-name="omacron" unicode="&#x14d;" horiz-adv-x="1660" vert-adv-y="2867" 
d="M641 1843h381v-145h-381v145zM829 -20q-148 0 -282.5 58.5t-232 157t-155 235.5t-57.5 288q0 200 97.5 369t265 267.5t364.5 98.5q148 0 283 -58t233 -156.5t156 -235t58 -285.5q0 -151 -58 -288t-156 -235.5t-233 -157t-283 -58.5zM829 174q124 0 222.5 42t161.5 116
t96.5 173t33.5 214q0 153 -57 274t-175 194t-282 73q-124 0 -222.5 -42t-161 -116t-95.5 -171.5t-33 -211.5q0 -116 33 -214.5t95.5 -172.5t161 -116t222.5 -42z" />
    <glyph glyph-name="Ohungarumlaut" unicode="&#x150;" horiz-adv-x="1896" vert-adv-y="2867" 
d="M758 1935h-129l82 422h211zM1106 1935h-129l82 422h211zM866 -35q-164 0 -300 49.5t-232 137.5t-163 208.5t-98.5 261.5t-31.5 298t31.5 297.5t98.5 260.5t163 207.5t232 137t300 49.5t300 -49.5t232.5 -137t163.5 -207.5t98.5 -260.5t31.5 -297.5t-31.5 -298
t-98.5 -261.5t-163.5 -208.5t-232.5 -137.5t-300 -49.5zM240 920q0 -144 22.5 -262t70.5 -213.5t121 -160t177 -99.5t235 -35q164 0 285 53t195.5 155t110.5 241.5t36 320.5q0 180 -36 319.5t-110.5 241t-195.5 154.5t-285 53q-131 0 -235 -35t-177 -99.5t-121 -160
t-70.5 -213t-22.5 -260.5z" />
    <glyph glyph-name="ohungarumlaut" unicode="&#x151;" horiz-adv-x="1660" vert-adv-y="2867" 
d="M639 1567h-129l82 422h211zM987 1567h-129l82 422h211zM829 -20q-148 0 -282.5 58.5t-232 157t-155 235.5t-57.5 288q0 200 97.5 369t265 267.5t364.5 98.5q148 0 283 -58t233 -156.5t156 -235t58 -285.5q0 -151 -58 -288t-156 -235.5t-233 -157t-283 -58.5zM829 174
q124 0 222.5 42t161.5 116t96.5 173t33.5 214q0 153 -57 274t-175 194t-282 73q-124 0 -222.5 -42t-161 -116t-95.5 -171.5t-33 -211.5q0 -116 33 -214.5t95.5 -172.5t161 -116t222.5 -42z" />
    <glyph glyph-name="OE" unicode="&#x152;" horiz-adv-x="2736" vert-adv-y="2867" 
d="M2695 1669h-1003v-600h714v-174h-714v-721h1003v-174h-1179v285q-105 -152 -269 -236t-381 -84q-164 0 -300 49.5t-232 137.5t-163 208.5t-98.5 261.5t-31.5 298t31.5 297.5t98.5 260.5t163 207.5t232 137t300 49.5q217 0 381 -84t269 -236v291h1179v-174zM866 150
q164 0 285 53t195.5 155t110.5 241.5t36 320.5q0 180 -36 319.5t-110.5 241t-195.5 154.5t-285 53q-131 0 -235 -35t-177 -99.5t-121 -160t-70.5 -213t-22.5 -260.5q0 -144 22.5 -262t70.5 -213.5t121 -160t177 -99.5t235 -35z" />
    <glyph glyph-name="oe" unicode="&#x153;" horiz-adv-x="2785" vert-adv-y="2867" 
d="M2025 168q200 0 313 63.5t134 217.5h209q-30 -216 -209.5 -333.5t-446.5 -117.5q-439 0 -600 293q-102 -144 -258.5 -227.5t-337.5 -83.5q-148 0 -282.5 58.5t-232 157t-155 235.5t-57.5 288q0 200 97.5 369t265 267.5t364.5 98.5q186 0 346.5 -88t260.5 -238
q164 306 589 306q164 0 288.5 -47t213.5 -146.5t134.5 -259.5t45.5 -379h-1142q0 -46 2.5 -81t13 -82.5t28.5 -82.5t52.5 -72.5t82 -61t119.5 -39t162 -15.5zM829 180q124 0 221.5 41t159.5 114t94.5 170.5t32.5 213.5q0 153 -55.5 272t-172 190.5t-280.5 71.5
q-124 0 -220 -41t-156 -113.5t-90.5 -168.5t-30.5 -211q0 -116 30.5 -213t90.5 -170.5t156 -114.5t220 -41zM2025 1237q-118 0 -203 -29t-139 -89t-82 -143.5t-36 -199.5h907q-8 117 -33.5 199.5t-76.5 143t-134.5 89.5t-202.5 29z" />
    <glyph glyph-name="Racute" unicode="&#x154;" horiz-adv-x="1572" vert-adv-y="2867" 
d="M711 1935h-129l82 422h210zM123 -2v1841h610q170 0 298.5 -27t224 -85.5t145 -156.5t49.5 -235q0 -293 -229 -415h188v-922h-188v829h-914v-829h-184zM307 1004h426q67 0 113.5 1.5t100.5 6.5t90.5 15t74.5 26.5t61.5 41t43.5 58t29 79.5t9 103q0 56 -9 101.5t-29 79
t-44 58t-61.5 41t-74.5 26.5t-90 15.5t-100.5 7t-113.5 1.5h-426v-661z" />
    <glyph glyph-name="racute" unicode="&#x155;" horiz-adv-x="1519" vert-adv-y="2867" 
d="M674 1563h-129l82 422h211zM119 1260v174h184q89 -1 147 -60.5t58 -148.5v-68q59 118 176.5 197.5t273.5 79.5q204 0 328.5 -115t155.5 -336h-207q0 140 -76 208.5t-198 68.5q-227 0 -340 -123.5t-113 -360.5v-776h-205v1260h-184z" />
    <glyph glyph-name="uni0156" unicode="&#x156;" horiz-adv-x="1572" vert-adv-y="2867" 
d="M123 -2v1841h610q170 0 298.5 -27t224 -85.5t145 -156.5t49.5 -235q0 -293 -229 -415h188v-922h-188v829h-914v-829h-184zM307 1004h426q67 0 113.5 1.5t100.5 6.5t90.5 15t74.5 26.5t61.5 41t43.5 58t29 79.5t9 103q0 56 -9 101.5t-29 79t-44 58t-61.5 41t-74.5 26.5
t-90 15.5t-100.5 7t-113.5 1.5h-426v-661zM653 -516h-190l184 422h191z" />
    <glyph glyph-name="uni0157" unicode="&#x157;" horiz-adv-x="1531" vert-adv-y="2867" 
d="M131 1260v174h184q89 -1 147 -60.5t58 -148.5v-68q59 118 177 197.5t274 79.5q204 0 328 -115t155 -336h-207q0 140 -76 208.5t-198 68.5q-227 0 -340 -123.5t-113 -360.5v-776h-205v1260h-184zM309 -516h-190l184 422h191z" />
    <glyph glyph-name="Rcaron" unicode="&#x158;" horiz-adv-x="1572" vert-adv-y="2867" 
d="M537 1937l-185 422h191l147 -338h74l147 338h191l-184 -422h-381zM1450 1335q0 -293 -229 -415h188v-922h-188v829h-914v-829h-184v1841h610q170 0 298.5 -27t224 -85.5t145 -156.5t49.5 -235zM733 1004q67 0 113.5 1.5t100.5 6.5t90.5 15t74.5 26.5t61.5 41t43.5 58
t29 79.5t9 103q0 56 -9 101.5t-29 79t-44 58t-61.5 41t-74.5 26.5t-90 15.5t-100.5 7t-113.5 1.5h-426v-661h426z" />
    <glyph glyph-name="rcaron" unicode="&#x159;" horiz-adv-x="1519" vert-adv-y="2867" 
d="M528 1563l-184 422h191l147 -338h74l147 338h191l-185 -422h-381zM958 1434q204 0 328.5 -115t155.5 -336h-207q0 140 -76 208.5t-198 68.5q-227 0 -340 -123.5t-113 -360.5v-776h-205v1260h-184v174h184q89 -1 147 -60.5t58 -148.5v-68q59 118 176.5 197.5t273.5 79.5z
" />
    <glyph glyph-name="Sacute" unicode="&#x15a;" horiz-adv-x="1691" vert-adv-y="2867" 
d="M829 1935h-129l82 422h211zM840 -20q-169 0 -306.5 50.5t-226.5 138.5t-136.5 205t-47.5 251h213q1 -236 135 -350t369 -111q284 0 409 74t125 251q0 57 -14.5 99.5t-53 85t-110.5 81.5t-181 81t-270 92q-242 75 -308 102q-152 61 -209 149q-52 79 -52 205
q0 94 43.5 174.5t125.5 141.5t209.5 96t285.5 35q140 -1 254 -33t190 -85.5t127.5 -125.5t74.5 -149.5t23 -161.5l-206 -2q0 191 -122 282t-341 91q-97 0 -178.5 -13t-152 -42t-110 -82t-39.5 -126q0 -30 2.5 -51.5t14.5 -43t25.5 -36.5t45 -33.5t61.5 -31.5t87.5 -33.5
t111 -37.5t142.5 -44q141 -43 239.5 -79t184 -77t137.5 -82.5t89.5 -94t53 -113t15.5 -138.5q0 -82 -21 -153t-73 -138t-133 -114t-209 -75.5t-293 -28.5z" />
    <glyph glyph-name="sacute" unicode="&#x15b;" horiz-adv-x="1335" vert-adv-y="2867" 
d="M651 1563h-129l82 422h211zM688 -20q-134 0 -246.5 47t-185.5 126.5t-113.5 183t-40.5 218.5h197q1 -183 107 -291t272 -108q184 0 267 48.5t83 160.5q0 83 -28.5 134.5t-108.5 92t-229 70.5q-86 17 -160.5 41.5t-145.5 62t-121 84t-80 110.5t-30 138q0 166 133 261
t404 95q90 0 165 -20t126 -50.5t91.5 -76.5t64 -88.5t41 -96.5t24.5 -91t12 -81l-197 -2q-7 55 -17 97.5t-33.5 88.5t-57 76.5t-90 50t-129.5 19.5q-157 0 -244.5 -45.5t-87.5 -136.5q0 -101 81.5 -158.5t250.5 -93.5q571 -119 571 -461q0 -72 -15 -130t-53 -110.5t-99 -88
t-156.5 -56t-221.5 -20.5z" />
    <glyph glyph-name="Scedilla" unicode="&#x15e;" horiz-adv-x="1691" vert-adv-y="2867" 
d="M1569 489q0 -75 -17 -140.5t-59 -128t-107.5 -109.5t-168 -80.5t-234.5 -44.5l-106 -318q75 -11 126.5 -70t51.5 -137q0 -86 -61.5 -147.5t-147.5 -61.5t-147.5 61.5t-61.5 147.5h92q0 -47 35 -81.5t82 -34.5t82 34.5t35 81.5q0 50 -30 83.5t-87 33.5h-129l67 404
q-157 7 -283.5 60.5t-208.5 140.5t-125.5 200t-43.5 242h213q1 -236 135 -350t369 -111q284 0 409 74t125 251q0 57 -14.5 99.5t-53 85t-110.5 81.5t-181 81t-270 92q-242 75 -308 102q-152 61 -209 149q-52 79 -52 205q0 94 43.5 174.5t125.5 141.5t209.5 96t285.5 35
q140 -1 254 -33t190 -85.5t127.5 -125.5t74.5 -149.5t23 -161.5l-206 -2q0 191 -122 282t-341 91q-97 0 -178.5 -13t-152 -42t-110 -82t-39.5 -126q0 -30 2.5 -51.5t14.5 -43t25.5 -36.5t45 -33.5t61.5 -31.5t87.5 -33.5t111 -37.5t142.5 -44q141 -43 239.5 -79t184 -77
t137.5 -82.5t89.5 -94t53 -113t15.5 -138.5z" />
    <glyph glyph-name="scedilla" unicode="&#x15f;" horiz-adv-x="1335" vert-adv-y="2867" 
d="M1233 385q0 -81 -20.5 -145.5t-67.5 -119.5t-133 -90t-207 -46l-107 -316q75 -11 127 -70t52 -137q0 -86 -61.5 -147.5t-147.5 -61.5t-147.5 61.5t-61.5 147.5h92q0 -47 35 -81.5t82 -34.5t81.5 34.5t34.5 81.5q0 51 -29.5 84t-86.5 33h-129l69 406q-155 18 -271.5 101
t-175.5 205t-59 265h197q1 -183 107 -291t272 -108q184 0 267 48.5t83 160.5q0 83 -28.5 134.5t-108.5 92t-229 70.5q-86 17 -160.5 41.5t-145.5 62t-121 84t-80 110.5t-30 138q0 166 133 261t404 95q90 0 165 -20t126 -50.5t91.5 -76.5t64 -88.5t41 -96.5t24.5 -91t12 -81
l-197 -2q-7 55 -17 97.5t-33.5 88.5t-57 76.5t-90 50t-129.5 19.5q-157 0 -244.5 -45.5t-87.5 -136.5q0 -101 81.5 -158.5t250.5 -93.5q571 -119 571 -461z" />
    <glyph glyph-name="Scaron" unicode="&#x160;" horiz-adv-x="1691" vert-adv-y="2867" 
d="M655 1937l-184 422h191l147 -338h74l147 338h191l-185 -422h-381zM850 1073q141 -43 239.5 -79t184 -77t137.5 -82.5t89.5 -94t53 -113t15.5 -138.5q0 -82 -21 -153t-73 -138t-133 -114t-209 -75.5t-293 -28.5q-169 0 -306.5 50.5t-226.5 138.5t-136.5 205t-47.5 251h213
q1 -236 135 -350t369 -111q284 0 409 74t125 251q0 57 -14.5 99.5t-53 85t-110.5 81.5t-181 81t-270 92q-242 75 -308 102q-152 61 -209 149q-52 79 -52 205q0 94 43.5 174.5t125.5 141.5t209.5 96t285.5 35q140 -1 254 -33t190 -85.5t127.5 -125.5t74.5 -149.5t23 -161.5
l-206 -2q0 191 -122 282t-341 91q-97 0 -178.5 -13t-152 -42t-110 -82t-39.5 -126q0 -30 2.5 -51.5t14.5 -43t25.5 -36.5t45 -33.5t61.5 -31.5t87.5 -33.5t111 -37.5t142.5 -44z" />
    <glyph glyph-name="scaron" unicode="&#x161;" horiz-adv-x="1335" vert-adv-y="2867" 
d="M477 1563l-184 422h190l148 -338h74l147 338h190l-184 -422h-381zM662 846q571 -119 571 -461q0 -72 -15 -130t-53 -110.5t-99 -88t-156.5 -56t-221.5 -20.5q-134 0 -246.5 47t-185.5 126.5t-113.5 183t-40.5 218.5h197q1 -183 107 -291t272 -108q184 0 267 48.5
t83 160.5q0 83 -28.5 134.5t-108.5 92t-229 70.5q-86 17 -160.5 41.5t-145.5 62t-121 84t-80 110.5t-30 138q0 166 133 261t404 95q90 0 165 -20t126 -50.5t91.5 -76.5t64 -88.5t41 -96.5t24.5 -91t12 -81l-197 -2q-7 55 -17 97.5t-33.5 88.5t-57 76.5t-90 50t-129.5 19.5
q-157 0 -244.5 -45.5t-87.5 -136.5q0 -101 81.5 -158.5t250.5 -93.5z" />
    <glyph glyph-name="uni0162" unicode="&#x162;" horiz-adv-x="1460" vert-adv-y="2867" 
d="M823 0h-2l-110 -330q63 -9 106 -58.5t43 -115.5q0 -72 -52 -124t-124 -52t-124 52t-52 124h78q0 -40 29 -69t69 -29t69 29t29 69q0 43 -25 70.5t-73 27.5h-109l70 406h-8v1667h-555v174h1296v-174h-555v-1667z" />
    <glyph glyph-name="uni0163" unicode="&#x163;" horiz-adv-x="1056" vert-adv-y="2867" 
d="M979 0h-272l-113 -332q75 -11 126.5 -70t51.5 -137q0 -86 -61.5 -147.5t-147.5 -61.5t-147.5 61.5t-61.5 147.5h92q0 -47 35 -81.5t82 -34.5t82 34.5t35 81.5q0 50 -30 83.5t-87 33.5h-129l72 424q-80 9 -131 66t-51 141v1071h-205v154h205v204h204v-204h410v-154h-410
v-1106h451v-174z" />
    <glyph glyph-name="Tcaron" unicode="&#x164;" horiz-adv-x="1460" vert-adv-y="2867" 
d="M518 1937l-184 422h190l148 -338h73l148 338h190l-184 -422h-381zM82 1841h1296v-174h-555v-1667h-186v1667h-555v174z" />
    <glyph glyph-name="tcaron" unicode="&#x165;" horiz-adv-x="1056" vert-adv-y="2867" 
d="M877 1931l-164 -422h-129l82 422h211zM528 174h451v-174h-447q-91 0 -149.5 59t-58.5 150v1071h-205v154h205v204h204v-204h410v-154h-410v-1106z" />
    <glyph glyph-name="Tbar" unicode="&#x166;" horiz-adv-x="1460" vert-adv-y="2867" 
d="M1378 1667h-555v-233h99v-146h-99v-1288h-186v1288h-96v146h96v233h-555v174h1296v-174z" />
    <glyph glyph-name="tbar" unicode="&#x167;" horiz-adv-x="1056" vert-adv-y="2867" 
d="M528 174h451v-174h-447q-91 0 -149.5 59t-58.5 150v756h-205v153h205v162h-205v154h205v204h204v-204h410v-154h-410v-162h410v-153h-410v-791z" />
    <glyph glyph-name="Umacron" unicode="&#x16a;" horiz-adv-x="1896" vert-adv-y="2867" 
d="M1139 2195v-145h-381v145h381zM1589 1839h185v-919q0 -157 -31.5 -298t-98.5 -261.5t-163.5 -208.5t-232.5 -137.5t-300 -49.5t-300 49.5t-232 137.5t-163 208.5t-98.5 261.5t-31.5 298v919h184v-919q0 -180 38 -322t115.5 -245.5t200.5 -158.5t287 -55t287 55
t200.5 158.5t115.5 245.5t38 322v919z" />
    <glyph glyph-name="umacron" unicode="&#x16b;" horiz-adv-x="1609" vert-adv-y="2867" 
d="M977 1843v-145h-381v145h381zM1348 174h184v-174h-180h-4q-89 1 -147 60.5t-58 148.5v67q-94 -276 -453 -276q-275 0 -423 160.5t-148 435.5v838h205v-838q0 -206 100 -314t264 -108q100 0 179.5 24t130.5 63.5t84.5 95t47 114.5t13.5 125v838h205v-1260z" />
    <glyph glyph-name="Uring" unicode="&#x16e;" horiz-adv-x="1896" vert-adv-y="2867" 
d="M948 1946q-86 0 -147.5 61t-61.5 147t61.5 147.5t147.5 61.5t147.5 -61.5t61.5 -147.5t-61.5 -147t-147.5 -61zM948 2261q-43 0 -74.5 -32t-31.5 -75t31.5 -74.5t74.5 -31.5t75 31.5t32 74.5t-32 75t-75 32zM1589 1839h185v-919q0 -157 -31.5 -298t-98.5 -261.5
t-163.5 -208.5t-232.5 -137.5t-300 -49.5t-300 49.5t-232 137.5t-163 208.5t-98.5 261.5t-31.5 298v919h184v-919q0 -180 38 -322t115.5 -245.5t200.5 -158.5t287 -55t287 55t200.5 158.5t115.5 245.5t38 322v919z" />
    <glyph glyph-name="uring" unicode="&#x16f;" horiz-adv-x="1609" vert-adv-y="2867" 
d="M733 1563q-86 0 -147.5 61.5t-61.5 147.5t61.5 147t147.5 61t147.5 -61t61.5 -147t-61.5 -147.5t-147.5 -61.5zM733 1878q-43 0 -74.5 -31.5t-31.5 -74.5t31.5 -75t74.5 -32t75 32t32 75t-32 74.5t-75 31.5zM1348 174h184v-174h-180h-4q-89 1 -147 60.5t-58 148.5v67
q-94 -276 -453 -276q-275 0 -423 160.5t-148 435.5v838h205v-838q0 -206 100 -314t264 -108q100 0 179.5 24t130.5 63.5t84.5 95t47 114.5t13.5 125v838h205v-1260z" />
    <glyph glyph-name="Uhungarumlaut" unicode="&#x170;" horiz-adv-x="1896" vert-adv-y="2867" 
d="M922 2357l-164 -422h-129l82 422h211zM1270 2357l-164 -422h-129l82 422h211zM1589 1839h185v-919q0 -157 -31.5 -298t-98.5 -261.5t-163.5 -208.5t-232.5 -137.5t-300 -49.5t-300 49.5t-232 137.5t-163 208.5t-98.5 261.5t-31.5 298v919h184v-919q0 -180 38 -322
t115.5 -245.5t200.5 -158.5t287 -55t287 55t200.5 158.5t115.5 245.5t38 322v919z" />
    <glyph glyph-name="uhungarumlaut" unicode="&#x171;" horiz-adv-x="1609" vert-adv-y="2867" 
d="M758 1989l-164 -422h-129l82 422h211zM1106 1989l-164 -422h-129l82 422h211zM1348 174h184v-174h-180h-4q-89 1 -147 60.5t-58 148.5v67q-94 -276 -453 -276q-275 0 -423 160.5t-148 435.5v838h205v-838q0 -206 100 -314t264 -108q100 0 179.5 24t130.5 63.5t84.5 95
t47 114.5t13.5 125v838h205v-1260z" />
    <glyph glyph-name="Uogonek" unicode="&#x172;" horiz-adv-x="1896" vert-adv-y="2867" 
d="M1589 1839h185v-919q0 -153 -30 -290.5t-93 -256t-153.5 -206.5t-218.5 -140.5t-282 -59.5q-33 -12 -55 -32.5t-31 -47t-11.5 -47t-2.5 -47.5q0 -47 35 -82t82 -35t81.5 35t34.5 82h93q0 -86 -61.5 -147.5t-147.5 -61.5t-147.5 61.5t-61.5 147.5q0 53 20.5 99.5
t55.5 74.5q-150 10 -275 64.5t-213.5 142.5t-149.5 205.5t-90.5 253.5t-29.5 287v919h184v-919q0 -180 38 -322t115.5 -245.5t200.5 -158.5t287 -55t287 55t200.5 158.5t115.5 245.5t38 322v919z" />
    <glyph glyph-name="uogonek" unicode="&#x173;" horiz-adv-x="1609" vert-adv-y="2867" 
d="M1538 -207h92q0 -86 -61.5 -147.5t-147.5 -61.5t-147.5 61.5t-61.5 147.5q0 78 43 138t103 69h-6h-4q-89 1 -147 60.5t-58 148.5v67q-94 -276 -453 -276q-275 0 -423 160.5t-148 435.5v838h205v-838q0 -206 100 -314t264 -108q100 0 179.5 24t130.5 63.5t84.5 95
t47 114.5t13.5 125v838h205v-1260h184v-174h18l-114 -25q-44 -10 -72 -30t-40 -48.5t-15.5 -51t-3.5 -52.5q0 -47 34.5 -82t81.5 -35t82 35t35 82z" />
    <glyph glyph-name="Wcircumflex" unicode="&#x174;" horiz-adv-x="3137" vert-adv-y="2867" 
d="M1552 2284l-147 -338h-191l185 421h381l184 -421h-190l-148 338h-74zM2841 1841h215l-529 -1841h-430l-506 1759h-45l-506 -1759h-430l-528 1841h215l500 -1759h57l500 1759h430l500 -1759h57z" />
    <glyph glyph-name="wcircumflex" unicode="&#x175;" horiz-adv-x="2494" vert-adv-y="2867" 
d="M1210 1901l-147 -338h-191l185 422h381l184 -422h-190l-148 338h-74zM2228 1434h205l-309 -1295q-15 -62 -67.5 -100.5t-119.5 -38.5h-163q-67 0 -119.5 38.5t-67.5 100.5l-14 62l-2 2l-256 1073h-135l-260 -1090h-2l-11 -47q-15 -62 -67 -100.5t-119 -38.5h-164
q-67 0 -119 38.5t-67 100.5l-310 1295h205l305 -1276h136l266 1114l6 22q15 62 67 101t119 39h164q67 0 119.5 -39t67.5 -101l22 -92l250 -1044h135z" />
    <glyph glyph-name="Ycircumflex" unicode="&#x176;" horiz-adv-x="1650" vert-adv-y="2867" 
d="M809 2284l-147 -338h-191l184 421h381l185 -421h-191l-147 338h-74zM1354 1841h215l-527 -958h-124v-883h-185v883h-125l-526 958h215l500 -883h57z" />
    <glyph glyph-name="ycircumflex" unicode="&#x177;" horiz-adv-x="1277" vert-adv-y="2867" 
d="M602 1901l-147 -338h-191l185 422h380l185 -422h-191l-147 338h-74zM1012 1434h205l-459 -1928q-43 -177 -105.5 -264.5t-173.5 -142.5l-84 196q122 59 158 211l117 494h-113q-67 0 -119 38.5t-67 100.5l-310 1295h205l305 -1276h136z" />
    <glyph glyph-name="Ydieresis" unicode="&#x178;" horiz-adv-x="1650" vert-adv-y="2867" 
d="M795 2157l-209 -209l-211 209l211 208zM1317 2157l-209 -209l-211 209l211 208zM1354 1841h215l-527 -958h-124v-883h-185v883h-125l-526 958h215l500 -883h57z" />
    <glyph glyph-name="Zacute" unicode="&#x179;" horiz-adv-x="1800" vert-adv-y="2867" 
d="M883 1946h-129l82 421h211zM123 2v391l1472 1202v52h-1370v194h1452v-438l-1472 -1155v-51h1472v-195h-1554z" />
    <glyph glyph-name="zacute" unicode="&#x17a;" horiz-adv-x="1449" vert-adv-y="2867" 
d="M709 1563h-129l82 422h210zM248 1260v174h885q104 0 161 -72q43 -61 28.5 -130.5t-71.5 -123.5l-979 -934h1049v-174h-1008q-101 0 -159 74q-28 37 -29.5 86t18.5 92.5t52 73.5l979 934h-926z" />
    <glyph glyph-name="Zdotaccent" unicode="&#x17b;" horiz-adv-x="1800" vert-adv-y="2867" 
d="M901 2365l209 -208l-209 -209l-211 209zM123 2v391l1472 1202v52h-1370v194h1452v-438l-1472 -1155v-51h1472v-195h-1554z" />
    <glyph glyph-name="zdotaccent" unicode="&#x17c;" horiz-adv-x="1449" vert-adv-y="2867" 
d="M727 1985l209 -209l-209 -209l-211 209zM248 1260v174h885q104 0 161 -72q43 -61 28.5 -130.5t-71.5 -123.5l-979 -934h1049v-174h-1008q-101 0 -159 74q-28 37 -29.5 86t18.5 92.5t52 73.5l979 934h-926z" />
    <glyph glyph-name="Zcaron" unicode="&#x17d;" horiz-adv-x="1800" vert-adv-y="2867" 
d="M711 1937l-185 422h191l147 -338h74l147 338h191l-184 -422h-381zM1677 1403l-1472 -1155v-51h1472v-195h-1554v391l1472 1202v52h-1370v194h1452v-438z" />
    <glyph glyph-name="zcaron" unicode="&#x17e;" horiz-adv-x="1449" vert-adv-y="2867" 
d="M535 1563l-185 422h191l147 -338h74l147 338h191l-185 -422h-380zM1251 1108l-979 -934h1049v-174h-1008q-101 0 -159 74q-28 37 -29.5 86t18.5 92.5t52 73.5l979 934h-926v174h885q104 0 161 -72q43 -61 28.5 -130.5t-71.5 -123.5z" />
    <glyph glyph-name="uni01CD" unicode="&#x1cd;" horiz-adv-x="1812" vert-adv-y="2867" 
d="M717 1946l-185 421h191l147 -337h74l148 337h190l-184 -421h-381zM1114 1843l631 -1843h-209l-301 895h-660l-301 -895h-208l630 1843h418zM641 1069h528l-235 690h-57z" />
    <glyph glyph-name="uni01CE" unicode="&#x1ce;" vert-adv-y="2867" 
d="M612 1563l-184 422h190l148 -338h74l147 338h191l-185 -422h-381zM803 1434q124 0 225.5 -18t171.5 -48.5t123 -75t83.5 -91t49.5 -104t25 -107.5t6 -107v-883h-205v500q-15 -56 -49 -119.5t-93 -132.5t-131.5 -124t-172 -90.5t-207.5 -35.5q-133 0 -233.5 36t-159.5 100
t-88 143.5t-29 173.5q0 70 28 138.5t80 128t136 101t188 51.5l731 72q0 35 -12.5 74t-46 83.5t-85 79.5t-139.5 58t-198 23q-434 0 -471 -277h-185q30 217 208 334t450 117zM633 174q213 0 386 154.5t263 449.5l-690 -63q-128 -11 -198 -88.5t-70 -175.5q0 -60 15.5 -108
t50 -87t96 -60.5t147.5 -21.5z" />
    <glyph glyph-name="uni01CF" unicode="&#x1cf;" horiz-adv-x="1275" vert-adv-y="2867" 
d="M449 1962l-185 422h191l147 -338h74l147 338h191l-185 -422h-380zM1153 1667h-428v-1495h428v-172h-1030v172h428v1495h-428v174h1030v-174z" />
    <glyph glyph-name="uni01D0" unicode="&#x1d0;" horiz-adv-x="1179" vert-adv-y="2867" 
d="M420 1563l-184 422h190l147 -338h74l148 338h190l-184 -422h-381zM1102 1260h-389v-1086h389v-174h-983v174h389v1086h-389v174h983v-174z" />
    <glyph glyph-name="uni01D1" unicode="&#x1d1;" horiz-adv-x="1896" vert-adv-y="2867" 
d="M676 1980l-184 422h190l147 -338h74l148 338h190l-184 -422h-381zM866 1872q164 0 300 -49.5t232.5 -137t163.5 -207.5t98.5 -260.5t31.5 -297.5t-31.5 -298t-98.5 -261.5t-163.5 -208.5t-232.5 -137.5t-300 -49.5t-300 49.5t-232 137.5t-163 208.5t-98.5 261.5
t-31.5 298t31.5 297.5t98.5 260.5t163 207.5t232 137t300 49.5zM866 150q164 0 285 53t195.5 155t110.5 241.5t36 320.5q0 180 -36 319.5t-110.5 241t-195.5 154.5t-285 53q-131 0 -235 -35t-177 -99.5t-121 -160t-70.5 -213t-22.5 -260.5q0 -144 22.5 -262t70.5 -213.5
t121 -160t177 -99.5t235 -35z" />
    <glyph glyph-name="uni01D2" unicode="&#x1d2;" horiz-adv-x="1660" vert-adv-y="2867" 
d="M641 1563l-184 422h190l148 -338h73l148 338h190l-184 -422h-381zM829 1454q148 0 283 -58t233 -156.5t156 -235t58 -285.5q0 -151 -58 -288t-156 -235.5t-233 -157t-283 -58.5t-282.5 58.5t-232 157t-155 235.5t-57.5 288q0 200 97.5 369t265 267.5t364.5 98.5zM829 174
q124 0 222.5 42t161.5 116t96.5 173t33.5 214q0 153 -57 274t-175 194t-282 73q-124 0 -222.5 -42t-161 -116t-95.5 -171.5t-33 -211.5q0 -116 33 -214.5t95.5 -172.5t161 -116t222.5 -42z" />
    <glyph glyph-name="uni01D3" unicode="&#x1d3;" horiz-adv-x="1896" vert-adv-y="2867" 
d="M758 1942l-185 421h191l147 -338h74l148 338h190l-184 -421h-381zM1589 1839h185v-919q0 -157 -31.5 -298t-98.5 -261.5t-163.5 -208.5t-232.5 -137.5t-300 -49.5t-300 49.5t-232 137.5t-163 208.5t-98.5 261.5t-31.5 298v919h184v-919q0 -180 38 -322t115.5 -245.5
t200.5 -158.5t287 -55t287 55t200.5 158.5t115.5 245.5t38 322v919z" />
    <glyph glyph-name="uni01D4" unicode="&#x1d4;" horiz-adv-x="1609" vert-adv-y="2867" 
d="M635 1563l-184 422h190l147 -338h74l148 338h190l-184 -422h-381zM1348 174h184v-174h-180h-4q-89 1 -147 60.5t-58 148.5v67q-94 -276 -453 -276q-275 0 -423 160.5t-148 435.5v838h205v-838q0 -206 100 -314t264 -108q100 0 179.5 24t130.5 63.5t84.5 95t47 114.5
t13.5 125v838h205v-1260z" />
    <glyph glyph-name="uni01D5" unicode="&#x1d5;" horiz-adv-x="1896" vert-adv-y="2867" 
d="M1145 2540v-146h-381v146h381zM893 2157l-209 -209l-211 209l211 208zM1206 1948l-211 209l211 208l209 -208zM1585 1839h184v-919q0 -157 -31.5 -298t-98.5 -261.5t-163 -208.5t-232 -137.5t-300 -49.5t-300 49.5t-232 137.5t-163 208.5t-98.5 261.5t-31.5 298v919h184
v-919q0 -180 38 -322t115.5 -245.5t200.5 -158.5t287 -55t287 55t200.5 158.5t115.5 245.5t38 322v919z" />
    <glyph glyph-name="uni01D6" unicode="&#x1d6;" horiz-adv-x="1609" vert-adv-y="2867" 
d="M956 2171v-146h-381v146h381zM713 1776l-209 -209l-211 209l211 209zM1026 1567l-211 209l211 209l209 -209zM1348 174h184v-174h-180h-4q-89 1 -147 60.5t-58 148.5v67q-94 -276 -453 -276q-275 0 -423 160.5t-148 435.5v838h205v-838q0 -206 100 -314t264 -108
q100 0 179.5 24t130.5 63.5t84.5 95t47 114.5t13.5 125v838h205v-1260z" />
    <glyph glyph-name="uni01D7" unicode="&#x1d7;" horiz-adv-x="1896" vert-adv-y="2867" 
d="M1169 2814l-163 -422h-129l81 422h211zM893 2157l-209 -209l-211 209l211 208zM1206 1948l-211 209l211 208l209 -208zM1585 1839h184v-919q0 -157 -31.5 -298t-98.5 -261.5t-163 -208.5t-232 -137.5t-300 -49.5t-300 49.5t-232 137.5t-163 208.5t-98.5 261.5t-31.5 298
v919h184v-919q0 -180 38 -322t115.5 -245.5t200.5 -158.5t287 -55t287 55t200.5 158.5t115.5 245.5t38 322v919z" />
    <glyph glyph-name="uni01D8" unicode="&#x1d8;" horiz-adv-x="1609" vert-adv-y="2867" 
d="M977 2447l-164 -422h-129l82 422h211zM713 1776l-209 -209l-211 209l211 209zM1026 1567l-211 209l211 209l209 -209zM1348 174h184v-174h-180h-4q-89 1 -147 60.5t-58 148.5v67q-94 -276 -453 -276q-275 0 -423 160.5t-148 435.5v838h205v-838q0 -206 100 -314t264 -108
q100 0 179.5 24t130.5 63.5t84.5 95t47 114.5t13.5 125v838h205v-1260z" />
    <glyph glyph-name="uni01D9" unicode="&#x1d9;" horiz-adv-x="1896" vert-adv-y="2867" 
d="M758 2410l-185 422h191l147 -338h74l148 338h190l-184 -422h-381zM893 2157l-209 -209l-211 209l211 208zM995 2157l211 208l209 -208l-209 -209zM1589 1839h185v-919q0 -157 -31.5 -298t-98.5 -261.5t-163.5 -208.5t-232.5 -137.5t-300 -49.5t-300 49.5t-232 137.5
t-163 208.5t-98.5 261.5t-31.5 298v919h184v-919q0 -180 38 -322t115.5 -245.5t200.5 -158.5t287 -55t287 55t200.5 158.5t115.5 245.5t38 322v919z" />
    <glyph glyph-name="uni01DA" unicode="&#x1da;" horiz-adv-x="1609" vert-adv-y="2867" 
d="M573 2025l-184 422h191l147 -338h74l147 338h191l-185 -422h-381zM713 1776l-209 -209l-211 209l211 209zM815 1776l211 209l209 -209l-209 -209zM1348 174h184v-174h-180h-4q-89 1 -147 60.5t-58 148.5v67q-94 -276 -453 -276q-275 0 -423 160.5t-148 435.5v838h205
v-838q0 -206 100 -314t264 -108q100 0 179.5 24t130.5 63.5t84.5 95t47 114.5t13.5 125v838h205v-1260z" />
    <glyph glyph-name="uni01DB" unicode="&#x1db;" horiz-adv-x="1896" vert-adv-y="2867" 
d="M1047 2392h-129l-164 422h211zM893 2157l-209 -209l-211 209l211 208zM1206 1948l-211 209l211 208l209 -208zM1585 1839h184v-919q0 -157 -31.5 -298t-98.5 -261.5t-163 -208.5t-232 -137.5t-300 -49.5t-300 49.5t-232 137.5t-163 208.5t-98.5 261.5t-31.5 298v919h184
v-919q0 -180 38 -322t115.5 -245.5t200.5 -158.5t287 -55t287 55t200.5 158.5t115.5 245.5t38 322v919z" />
    <glyph glyph-name="uni01DC" unicode="&#x1dc;" horiz-adv-x="1609" vert-adv-y="2867" 
d="M854 2025h-129l-164 422h211zM713 1776l-209 -209l-211 209l211 209zM1026 1567l-211 209l211 209l209 -209zM1348 174h184v-174h-180h-4q-89 1 -147 60.5t-58 148.5v67q-94 -276 -453 -276q-275 0 -423 160.5t-148 435.5v838h205v-838q0 -206 100 -314t264 -108
q100 0 179.5 24t130.5 63.5t84.5 95t47 114.5t13.5 125v838h205v-1260z" />
    <glyph glyph-name="uni0218" unicode="&#x218;" horiz-adv-x="1691" vert-adv-y="2867" 
d="M840 -20q-169 0 -306.5 50.5t-226.5 138.5t-136.5 205t-47.5 251h213q1 -236 135 -350t369 -111q284 0 409 74t125 251q0 57 -14.5 99.5t-53 85t-110.5 81.5t-181 81t-270 92q-242 75 -308 102q-152 61 -209 149q-52 79 -52 205q0 94 43.5 174.5t125.5 141.5t209.5 96
t285.5 35q140 -1 254 -33t190 -85.5t127.5 -125.5t74.5 -149.5t23 -161.5l-206 -2q0 191 -122 282t-341 91q-97 0 -178.5 -13t-152 -42t-110 -82t-39.5 -126q0 -30 2.5 -51.5t14.5 -43t25.5 -36.5t45 -33.5t61.5 -31.5t87.5 -33.5t111 -37.5t142.5 -44q141 -43 239.5 -79
t184 -77t137.5 -82.5t89.5 -94t53 -113t15.5 -138.5q0 -82 -21 -153t-73 -138t-133 -114t-209 -75.5t-293 -28.5zM850 -524h-191l185 422h190z" />
    <glyph glyph-name="uni0219" unicode="&#x219;" horiz-adv-x="1335" vert-adv-y="2867" 
d="M688 -20q-134 0 -246.5 47t-185.5 126.5t-113.5 183t-40.5 218.5h197q1 -183 107 -291t272 -108q184 0 267 48.5t83 160.5q0 83 -28.5 134.5t-108.5 92t-229 70.5q-86 17 -160.5 41.5t-145.5 62t-121 84t-80 110.5t-30 138q0 166 133 261t404 95q90 0 165 -20t126 -50.5
t91.5 -76.5t64 -88.5t41 -96.5t24.5 -91t12 -81l-197 -2q-7 55 -17 97.5t-33.5 88.5t-57 76.5t-90 50t-129.5 19.5q-157 0 -244.5 -45.5t-87.5 -136.5q0 -101 81.5 -158.5t250.5 -93.5q571 -119 571 -461q0 -72 -15 -130t-53 -110.5t-99 -88t-156.5 -56t-221.5 -20.5z
M672 -524h-191l185 422h190z" />
    <glyph glyph-name="uni021A" unicode="&#x21a;" horiz-adv-x="1460" vert-adv-y="2867" 
d="M637 0v1667h-555v174h1296v-174h-555v-1667h-186zM647 -524h-190l184 422h190z" />
    <glyph glyph-name="uni021B" unicode="&#x21b;" horiz-adv-x="1056" vert-adv-y="2867" 
d="M528 174h451v-174h-447q-91 0 -149.5 59t-58.5 150v1071h-205v154h205v204h204v-204h410v-154h-410v-1106zM274 -524l185 422h190l-184 -422h-191z" />
    <glyph glyph-name="uni02B0" unicode="&#x2b0;" horiz-adv-x="1609" vert-adv-y="2867" 
d="M961 1434q275 0 423 -160.5t148 -435.5v-838h-205v838q0 206 -100 314t-264 108q-106 0 -187.5 -24t-131.5 -63t-81.5 -95.5t-43 -114t-11.5 -125.5v-838h-205v1669h-184v174h180h4q89 -1 147 -60.5t58 -148.5v-477q94 277 453 277z" />
    <glyph glyph-name="uni02B2" unicode="&#x2b2;" horiz-adv-x="630" vert-adv-y="2867" 
d="M553 1776l-209 -209l-211 209l211 209zM299 1434q91 0 150 -59t59 -150v-1719q0 -289 -238 -407l-84 196q53 26 85 81t32 130v1754h-184v174h180z" />
    <glyph glyph-name="uni02B7" unicode="&#x2b7;" horiz-adv-x="2494" vert-adv-y="2867" 
d="M2228 1434h205l-309 -1295q-15 -62 -67.5 -100.5t-119.5 -38.5h-163q-67 0 -119.5 38.5t-67.5 100.5l-14 62l-2 2l-256 1073h-135l-260 -1090h-2l-11 -47q-15 -62 -67 -100.5t-119 -38.5h-164q-67 0 -119 38.5t-67 100.5l-310 1295h205l305 -1276h136l266 1114l6 22
q15 62 67 101t119 39h164q67 0 119.5 -39t67.5 -101l22 -92l250 -1044h135z" />
    <glyph glyph-name="uni02BC" unicode="&#x2bc;" horiz-adv-x="716" vert-adv-y="2867" 
d="M410 678h-205l102 1165h205z" />
    <glyph glyph-name="uni02E1" unicode="&#x2e1;" horiz-adv-x="770" vert-adv-y="2867" 
d="M119 0v174h184v1542h-184v174h180q91 0 150 -59t59 -150v-1507h184v-174h-573z" />
    <glyph glyph-name="gravecomb" unicode="&#x300;" horiz-adv-x="0" vert-adv-y="2867" 
d="M-150 1563l-163 422h211l82 -422h-130z" />
    <glyph glyph-name="acutecomb" unicode="&#x301;" horiz-adv-x="0" vert-adv-y="2867" 
d="M-184 1563h-129l82 422h211z" />
    <glyph glyph-name="uni0302" unicode="&#x302;" horiz-adv-x="0" vert-adv-y="2867" 
d="M-211 1563l-147 338h-74l-148 -338h-190l184 422h381l185 -422h-191z" />
    <glyph glyph-name="tildecomb" unicode="&#x303;" horiz-adv-x="0" vert-adv-y="2867" 
d="M-791 1669q0 46 18 94.5t46 75.5q38 36 91.5 43t98 -3.5t105.5 -33.5l82 -30q52 -20 82.5 -28.5t64.5 -5.5t56 25q14 14 24 45.5t10 57.5h93q0 -48 -18 -106.5t-46 -84.5q-38 -36 -91.5 -43t-98 3.5t-105.5 33.5l-82 31q-51 20 -82 28t-65 5t-56 -25q-34 -34 -34 -82h-93
z" />
    <glyph glyph-name="uni0304" unicode="&#x304;" horiz-adv-x="0" vert-adv-y="2867" 
d="M-401 1843h381v-145h-381v145z" />
    <glyph glyph-name="uni0306" unicode="&#x306;" horiz-adv-x="0" vert-adv-y="2867" 
d="M-20 1884q0 -100 -60.5 -164.5t-148.5 -64.5t-148.5 64.5t-60.5 164.5h112q0 -50 26 -83.5t71 -33.5t70.5 33.5t25.5 83.5h113z" />
    <glyph glyph-name="uni0307" unicode="&#x307;" horiz-adv-x="0" vert-adv-y="2867" 
d="M-229 1985l209 -209l-209 -209l-211 209z" />
    <glyph glyph-name="uni0308" unicode="&#x308;" horiz-adv-x="0" vert-adv-y="2867" 
d="M-752 1985l209 -209l-209 -209l-211 209zM-229 1985l209 -209l-209 -209l-211 209z" />
    <glyph glyph-name="uni030A" unicode="&#x30a;" horiz-adv-x="0" vert-adv-y="2867" 
d="M-438 1772q0 86 61.5 147t147.5 61t147.5 -61t61.5 -147t-61.5 -147.5t-147.5 -61.5t-147.5 61.5t-61.5 147.5zM-336 1772q0 -43 32 -75t75 -32t74.5 32t31.5 75t-31.5 74.5t-74.5 31.5t-75 -31.5t-32 -74.5z" />
    <glyph glyph-name="uni030B" unicode="&#x30b;" horiz-adv-x="0" vert-adv-y="2867" 
d="M-532 1563h-130l82 422h211zM-184 1563h-129l82 422h211z" />
    <glyph glyph-name="uni030C" unicode="&#x30c;" horiz-adv-x="0" vert-adv-y="2867" 
d="M-211 1985h191l-185 -422h-381l-184 422h190l148 -338h74z" />
    <glyph glyph-name="uni0312" unicode="&#x312;" horiz-adv-x="0" vert-adv-y="2867" 
d="M-350 2294l309 -516l-209 -209l-211 209l144 141z" />
    <glyph glyph-name="uni0326" unicode="&#x326;" horiz-adv-x="0" vert-adv-y="2867" 
d="M-205 -422h-190l184 422h191z" />
    <glyph glyph-name="uni0327" unicode="&#x327;" horiz-adv-x="0" vert-adv-y="2867" 
d="M-438 -539h92q0 -47 35 -81.5t82 -34.5t81.5 34.5t34.5 81.5q0 51 -29.5 84t-86.5 33h-129l82 483h210l-133 -393q75 -11 127 -70t52 -137q0 -86 -61.5 -147.5t-147.5 -61.5t-147.5 61.5t-61.5 147.5z" />
    <glyph glyph-name="uni0328" unicode="&#x328;" horiz-adv-x="0" vert-adv-y="2867" 
d="M-20 -207q0 -86 -61.5 -147.5t-147.5 -61.5t-147.5 61.5t-61.5 147.5q0 78 42.5 138t102.5 69h193l-115 -25q-44 -10 -72 -30t-40 -48.5t-15.5 -51t-3.5 -52.5q0 -47 35 -82t82 -35t81.5 35t34.5 82h93z" />
    <glyph glyph-name="uni0400" unicode="&#x400;" horiz-adv-x="1343" vert-adv-y="2867" 
d="M659 1946l-163 421h211l81 -421h-129zM1262 1843h-1180v-1843h1180v174h-996v721h707v174h-707v600h996v174z" />
    <glyph glyph-name="uni0401" unicode="&#x401;" horiz-adv-x="1343" vert-adv-y="2867" 
d="M412 2365l209 -208l-209 -209l-211 209zM934 2365l209 -208l-209 -209l-211 209zM1262 1843h-1180v-1843h1180v174h-996v721h707v174h-707v600h996v174z" />
    <glyph glyph-name="uni0402" unicode="&#x402;" horiz-adv-x="2080" vert-adv-y="2867" 
d="M82 1667v174h1296v-174h-561v-657h424q171 0 299.5 -27t224 -86t144.5 -158t49 -237q0 -137 -49 -234.5t-144.5 -156t-224 -85t-299.5 -26.5v174q77 0 130 2t114.5 9.5t102 21.5t81 38t63.5 58.5t37.5 84.5t14.5 114q0 65 -14.5 115.5t-37.5 85.5t-63 60t-81 39t-102 22
t-115 10t-130 2h-424v-836l-184 2l-2 -2v1667h-549z" />
    <glyph glyph-name="uni0403" unicode="&#x403;" horiz-adv-x="1343" vert-adv-y="2867" 
d="M625 1950h-129l82 422h210zM82 0v1843h1180v-174h-996v-1669h-184z" />
    <glyph glyph-name="uni0404" unicode="&#x404;" horiz-adv-x="1892" vert-adv-y="2867" 
d="M948 150q314 0 469.5 149.5t155.5 472.5h196q0 -376 -216 -591.5t-605 -215.5q-164 0 -300 49.5t-232 137.5t-163 208.5t-98.5 261.5t-31.5 298t31.5 297.5t98.5 260.5t163 207.5t232 137t300 49.5q387 0 604 -218t217 -589h-196q0 319 -156 471t-469 152
q-587 0 -624 -682h870v-175h-870q37 -681 624 -681z" />
    <glyph glyph-name="uni0405" unicode="&#x405;" horiz-adv-x="1691" vert-adv-y="2867" 
d="M840 -20q-169 0 -306.5 50.5t-226.5 138.5t-136.5 205t-47.5 251h213q1 -236 135 -350t369 -111q284 0 409 74t125 251q0 57 -14.5 99.5t-53 85t-110.5 81.5t-181 81t-270 92q-242 75 -308 102q-152 61 -209 149q-52 79 -52 205q0 94 43.5 174.5t125.5 141.5t209.5 96
t285.5 35q140 -1 254 -33t190 -85.5t127.5 -125.5t74.5 -149.5t23 -161.5l-206 -2q0 191 -122 282t-341 91q-97 0 -178.5 -13t-152 -42t-110 -82t-39.5 -126q0 -30 2.5 -51.5t14.5 -43t25.5 -36.5t45 -33.5t61.5 -31.5t87.5 -33.5t111 -37.5t142.5 -44q141 -43 239.5 -79
t184 -77t137.5 -82.5t89.5 -94t53 -113t15.5 -138.5q0 -82 -21 -153t-73 -138t-133 -114t-209 -75.5t-293 -28.5z" />
    <glyph glyph-name="uni0406" unicode="&#x406;" horiz-adv-x="1298" vert-adv-y="2867" 
d="M123 0h1030v172h-428v1495h428v174h-1030v-174h428v-1495h-428v-172z" />
    <glyph glyph-name="uni0407" unicode="&#x407;" horiz-adv-x="1298" vert-adv-y="2867" 
d="M379 2365l209 -208l-209 -209l-211 209zM901 2365l209 -208l-209 -209l-211 209zM123 0h1030v172h-428v1495h428v174h-1030v-174h428v-1495h-428v-172z" />
    <glyph glyph-name="uni0408" unicode="&#x408;" horiz-adv-x="921" vert-adv-y="2867" 
d="M82 0v184q94 0 164.5 9.5t134 32.5t107 64t75.5 103t47 150.5t15 204.5v1093h174v-1093q0 -178 -29 -306.5t-83.5 -214t-144 -136t-199.5 -71t-261 -20.5z" />
    <glyph glyph-name="uni0409" unicode="&#x409;" horiz-adv-x="2523" vert-adv-y="2867" 
d="M1683 1010q171 0 299.5 -27t224 -86t144.5 -158t49 -237q0 -137 -49 -234.5t-144.5 -156t-224 -85t-299.5 -26.5h-610v1667h-479v-1104q0 -69 -4 -122.5t-17.5 -115t-36 -106t-63 -88t-95.5 -71t-135.5 -44t-181.5 -16.5v184h349v1657h886v-831h387zM1683 174
q67 0 113.5 1.5t100.5 6.5t90.5 15t74.5 26.5t62 41t44 57.5t29 78.5t9 101.5q0 51 -8 93t-21.5 74t-36.5 57t-48 42.5t-61.5 30t-71.5 19.5t-83.5 11t-91.5 5.5t-101 1.5h-387v-662h387z" />
    <glyph glyph-name="uni040A" unicode="&#x40a;" horiz-adv-x="2805" vert-adv-y="2867" 
d="M1966 1010q171 0 299.5 -27t224 -86t144.5 -158t49 -237q0 -137 -49 -234.5t-144.5 -156t-224 -85t-299.5 -26.5h-612v864h-1047v-864h-184v1841h184v-803h1047v803h188v-831h424zM1966 174q77 0 129 2t111.5 9.5t98 21.5t76.5 38t59.5 58.5t34.5 84.5t13 114q0 51 -8 93
t-21.5 74t-36.5 57t-47.5 42.5t-61.5 30t-71.5 19.5t-83 11t-91.5 5.5t-101 1.5h-424v-662h424z" />
    <glyph glyph-name="uni040B" unicode="&#x40b;" horiz-adv-x="1933" vert-adv-y="2867" 
d="M1284 1434q275 0 423 -160.5t148 -435.5v-838h-204v838q0 206 -100.5 314t-264.5 108q-106 0 -187.5 -24t-131.5 -63t-81.5 -95.5t-43 -114t-11.5 -125.5v-838h-204v1667h-545v174h545v2h204v-2h547v-174h-547v-510q94 277 453 277z" />
    <glyph glyph-name="uni040C" unicode="&#x40c;" horiz-adv-x="1421" vert-adv-y="2867" 
d="M807 2367l-164 -421h-129l82 421h211zM1298 1665h-399l-174 -741h573v-924h-184v750h-807v-750h-184v1841h184v-917h217l160 630q32 131 138.5 209t246.5 78h229v-176z" />
    <glyph glyph-name="uni040D" unicode="&#x40d;" horiz-adv-x="1413" vert-adv-y="2867" 
d="M678 1946l-164 421h211l82 -421h-129zM1298 0h-184v1759h-76l-499 -1759h-416v1841h184v-1759h45l506 1759h440v-1841z" />
    <glyph glyph-name="uni040E" unicode="&#x40e;" horiz-adv-x="1650" vert-adv-y="2867" 
d="M1196 2353q0 -177 -108 -291t-263 -114t-261.5 114t-106.5 291h198q0 -89 44.5 -148t125.5 -59t126.5 59t45.5 148h199zM307 0l527 883h-211l-541 958h215l500 -883h57l500 883h215l-1047 -1841h-215z" />
    <glyph glyph-name="uni040F" unicode="&#x40f;" horiz-adv-x="1665" vert-adv-y="2867" 
d="M1358 1841h184v-1841h-620v-203h-177v203h-622v1841h184v-1667h1051v1667z" />
    <glyph glyph-name="uni0410" unicode="&#x410;" horiz-adv-x="1875" vert-adv-y="2867" 
d="M119 0l631 1843h417l631 -1843h-209l-301 895h-659l-301 -895h-209zM694 1069h529l-236 690h-57z" />
    <glyph glyph-name="uni0411" unicode="&#x411;" horiz-adv-x="1576" vert-adv-y="2867" 
d="M123 0v1843h1180v-174h-996v-590h426q139 0 245.5 -15t198.5 -52.5t151 -98.5t92.5 -156.5t33.5 -224.5q0 -125 -33.5 -218t-92.5 -152.5t-151 -96t-198.5 -51t-245.5 -14.5h-610zM307 174h426q74 0 130 3t115.5 12.5t102.5 25.5t82.5 43t63.5 64.5t38.5 90t14.5 119.5
q0 72 -14.5 128t-38.5 95t-64 66.5t-82 43.5t-102.5 25.5t-115.5 12t-130 2.5h-426v-731z" />
    <glyph glyph-name="uni0412" unicode="&#x412;" horiz-adv-x="1576" vert-adv-y="2867" 
d="M123 0v1843h610q90 0 171 -14t159.5 -48.5t134.5 -87.5t90.5 -137.5t34.5 -191.5q0 -126 -65 -215.5t-154 -122.5q160 -57 255 -186.5t95 -337.5q0 -90 -17 -161.5t-48 -123.5t-80 -90.5t-106 -62.5t-134 -38.5t-156.5 -20t-179.5 -5.5h-610zM307 1079h426q86 0 157 16
t128 48.5t89 89t32 131.5q0 64 -18.5 114.5t-51.5 82.5t-72.5 54.5t-88 33.5t-89.5 15.5t-86 4.5h-426v-590zM307 174h426q102 0 178 7.5t146.5 28.5t115 57t71 95t26.5 140q0 100 -26.5 172.5t-71 116.5t-115.5 70t-146.5 35t-177.5 9h-426v-731z" />
    <glyph glyph-name="uni0413" unicode="&#x413;" horiz-adv-x="1343" vert-adv-y="2867" 
d="M82 0v1843h1180v-174h-996v-1669h-184z" />
    <glyph glyph-name="uni0414" unicode="&#x414;" horiz-adv-x="1798" vert-adv-y="2867" 
d="M123 -203v387h184l389 1657h877v-1657h102v-387h-176v203h-1200v-203h-176zM498 184h891v1483h-555z" />
    <glyph glyph-name="uni0415" unicode="&#x415;" horiz-adv-x="1343" vert-adv-y="2867" 
d="M1262 1843h-1180v-1843h1180v174h-996v721h707v174h-707v600h996v174z" />
    <glyph glyph-name="uni0416" unicode="&#x416;" horiz-adv-x="2410" vert-adv-y="2867" 
d="M2288 1665h-400l-174 -741h574v-924h-185v750h-805v-750h-186v750h-805v-750h-184v924h573l-174 741h-399v176h229q139 0 245.5 -78t139.5 -209l160 -630h215v917h186v-917h215l160 630q32 131 138.5 209t246.5 78h230v-176z" />
    <glyph glyph-name="uni0417" unicode="&#x417;" horiz-adv-x="1800" vert-adv-y="2867" 
d="M1677 1403l-1472 -1155v-51h1472v-400h-176v205h-1378v391l1472 1202v52h-1370v194h1452v-438z" />
    <glyph glyph-name="uni0418" unicode="&#x418;" horiz-adv-x="1421" vert-adv-y="2867" 
d="M1298 0h-184v1759h-76l-499 -1759h-416v1841h184v-1759h45l506 1759h440v-1841z" />
    <glyph glyph-name="uni0419" unicode="&#x419;" horiz-adv-x="1421" vert-adv-y="2867" 
d="M1081 2353q0 -177 -107.5 -291t-262.5 -114t-262 114t-107 291h199q0 -89 44.5 -148t125.5 -59t126.5 59t45.5 148h198zM1298 0h-184v1759h-76l-499 -1759h-416v1841h184v-1759h45l506 1759h440v-1841z" />
    <glyph glyph-name="uni041A" unicode="&#x41a;" horiz-adv-x="1421" vert-adv-y="2867" 
d="M1298 1665h-399l-174 -741h573v-924h-184v750h-807v-750h-184v1841h184v-917h217l160 630q32 131 138.5 209t246.5 78h229v-176z" />
    <glyph glyph-name="uni041B" unicode="&#x41b;" horiz-adv-x="1419" vert-adv-y="2867" 
d="M1296 1841v-1841h-184v1667h-518v-1104q0 -69 -4 -122.5t-17.5 -115t-36 -106t-63 -88t-95.5 -71t-135.5 -44t-181.5 -16.5v184h349v1657h886z" />
    <glyph glyph-name="uni041C" unicode="&#x41c;" horiz-adv-x="2183" vert-adv-y="2867" 
d="M123 0v1841h440l506 -1759h45l506 1759h440v-1841h-184v1759h-78l-500 -1759h-413l-500 1759h-78v-1759h-184z" />
    <glyph glyph-name="uni041D" unicode="&#x41d;" horiz-adv-x="1665" vert-adv-y="2867" 
d="M123 0v1841h184v-803h1047v803h188v-1841h-188v864h-1047v-864h-184z" />
    <glyph glyph-name="uni041E" unicode="&#x41e;" horiz-adv-x="1773" vert-adv-y="2867" 
d="M887 -35q-164 0 -300 49.5t-232.5 137.5t-163.5 208.5t-98.5 261.5t-31.5 298t31.5 297.5t98.5 260.5t163.5 207.5t232.5 137t300 49.5t300 -49.5t232 -137t163 -207.5t98.5 -260.5t31.5 -297.5t-31.5 -298t-98.5 -261.5t-163 -208.5t-232 -137.5t-300 -49.5zM260 920
q0 -181 36 -320.5t110.5 -241.5t195.5 -155t285 -53q131 0 235 35t177 99.5t121 160t70.5 213.5t22.5 262q0 143 -22.5 260.5t-70.5 213t-121 160t-177 99.5t-235 35q-164 0 -285 -53t-195.5 -154.5t-110.5 -241t-36 -319.5z" />
    <glyph glyph-name="uni041F" unicode="&#x41f;" horiz-adv-x="1665" vert-adv-y="2867" 
d="M123 0v1841h1419v-1841h-180v1667h-1055v-1667h-184z" />
    <glyph glyph-name="uni0420" unicode="&#x420;" horiz-adv-x="1511" vert-adv-y="2867" 
d="M123 0v1841h610q171 0 299.5 -26.5t224 -85t144.5 -156t49 -234.5q0 -138 -49 -237t-144.5 -158t-224 -86t-299.5 -27h-426v-831h-184zM307 1006h426q66 0 113.5 1.5t102 7t92 15.5t76.5 26.5t64 41.5t45.5 58.5t30 79.5t9.5 103q0 56 -9.5 101.5t-30 78.5t-45.5 57.5
t-64 40.5t-76.5 26.5t-92 15.5t-101.5 6.5t-114 1.5h-426v-661z" />
    <glyph glyph-name="uni0421" unicode="&#x421;" horiz-adv-x="1769" vert-adv-y="2867" 
d="M1708 772q0 -376 -216 -591.5t-605 -215.5q-164 0 -300 49.5t-232.5 137.5t-163.5 208.5t-98.5 261.5t-31.5 298t31.5 297.5t98.5 260.5t163.5 207.5t232.5 137t300 49.5q387 0 604 -218t217 -589h-203q0 320 -153 471.5t-465 151.5q-621 0 -621 -768q0 -770 621 -770
q313 0 465.5 149t152.5 473h203z" />
    <glyph glyph-name="uni0422" unicode="&#x422;" horiz-adv-x="1460" vert-adv-y="2867" 
d="M637 0v1667h-555v174h1296v-174h-555v-1667h-186z" />
    <glyph glyph-name="uni0423" unicode="&#x423;" horiz-adv-x="1650" vert-adv-y="2867" 
d="M307 0l527 883h-211l-541 958h215l500 -883h57l500 883h215l-1047 -1841h-215z" />
    <glyph glyph-name="uni0424" unicode="&#x424;" horiz-adv-x="1896" vert-adv-y="2867" 
d="M1774 920q0 -154 -46 -288t-134.5 -241t-230.5 -175t-323 -81v-135h-184v135q-181 13 -323 81t-230.5 175t-134 241t-45.5 288q0 122 28 232t87.5 206t145 168.5t206.5 118.5t266 57v139h184v-139q181 -13 323 -80.5t230.5 -174.5t134.5 -240.5t46 -286.5zM322 920
q0 -572 534 -613v1223q-534 -41 -534 -610zM1040 307q535 41 535 613q0 569 -535 610v-1223z" />
    <glyph glyph-name="uni0425" unicode="&#x425;" horiz-adv-x="1650" vert-adv-y="2867" 
d="M82 0l526 922l-526 919h215l500 -883h57l500 883h215l-527 -919l527 -922h-215l-500 883h-57l-500 -883h-215z" />
    <glyph glyph-name="uni0426" unicode="&#x426;" horiz-adv-x="1841" vert-adv-y="2867" 
d="M1542 -203v203h-1419v1841h184v-1667h1051v1667h184v-1667h176v-377h-176z" />
    <glyph glyph-name="uni0427" unicode="&#x427;" horiz-adv-x="1572" vert-adv-y="2867" 
d="M1266 1841h184v-1841h-184v831h-426q-171 0 -299.5 27t-224 86t-144.5 158t-49 237v502h184v-502q0 -57 9.5 -103t30 -79.5t45.5 -58.5t64 -41.5t76.5 -26.5t92 -15.5t102 -7t113.5 -1.5h426v835z" />
    <glyph glyph-name="uni0428" unicode="&#x428;" horiz-adv-x="2373" vert-adv-y="2867" 
d="M102 0h2169v1841h-184v-1667h-827v1667h-185v-1667h-788v1667h-185v-1841z" />
    <glyph glyph-name="uni0429" unicode="&#x429;" horiz-adv-x="2545" vert-adv-y="2867" 
d="M102 0h2165v-203h176v377h-172v1667h-184v-1667h-827v1667h-185v-1667h-788v1667h-185v-1841z" />
    <glyph glyph-name="uni042A" unicode="&#x42a;" horiz-adv-x="1521" vert-adv-y="2867" 
d="M682 1010q171 0 299.5 -27t224 -86t144.5 -158t49 -237q0 -137 -49 -234.5t-144.5 -156t-224 -85t-299.5 -26.5h-610v1657h-174v184h358v-831h426zM682 174q77 0 130 2t114.5 9.5t102 21.5t81 38t63.5 58.5t37.5 84.5t14.5 114q0 65 -14.5 115.5t-37.5 85.5t-63 60
t-81 39t-102 22t-115 10t-130 2h-426v-662h426z" />
    <glyph glyph-name="uni042B" unicode="&#x42b;" horiz-adv-x="1992" vert-adv-y="2867" 
d="M123 1841h184v-831h426q171 0 299.5 -27t224 -86t144.5 -158t49 -237q0 -137 -49 -234.5t-144.5 -156t-224 -85t-299.5 -26.5h-610v1841zM1870 0v1841h-174v-1841h174zM307 836v-662h426q77 0 130 2t114.5 9.5t102 21.5t81 38t63.5 58.5t37.5 84.5t14.5 114
q0 65 -14.5 115.5t-37.5 85.5t-63 60t-81 39t-102 22t-115 10t-130 2h-426z" />
    <glyph glyph-name="uni042C" unicode="&#x42c;" horiz-adv-x="1572" vert-adv-y="2867" 
d="M123 1841h184v-831h426q171 0 299.5 -27t224 -86t144.5 -158t49 -237q0 -137 -49 -234.5t-144.5 -156t-224 -85t-299.5 -26.5h-610v1841zM307 836v-662h426q77 0 130 2t114.5 9.5t102 21.5t81 38t63.5 58.5t37.5 84.5t14.5 114q0 65 -14.5 115.5t-37.5 85.5t-63 60
t-81 39t-102 22t-115 10t-130 2h-426z" />
    <glyph glyph-name="uni042D" unicode="&#x42d;" horiz-adv-x="1892" vert-adv-y="2867" 
d="M944 1872q164 0 300 -49.5t232 -137t163 -207.5t98.5 -260.5t31.5 -297.5t-31.5 -298t-98.5 -261.5t-163 -208.5t-232 -137.5t-300 -49.5q-389 0 -605 215.5t-216 591.5h196q0 -323 155.5 -472.5t469.5 -149.5q588 0 625 681h-871v175h871q-37 682 -625 682
q-313 0 -469 -152t-156 -471h-196q0 371 217 589t604 218z" />
    <glyph glyph-name="uni042E" unicode="&#x42e;" horiz-adv-x="2265" vert-adv-y="2867" 
d="M1317 1872q164 0 300 -49.5t232 -137t163 -207.5t98.5 -260.5t31.5 -297.5t-31.5 -298t-98.5 -261.5t-163 -208.5t-232 -137.5t-300 -49.5q-158 0 -290.5 46t-228 128t-163 195t-102 246.5t-39.5 283.5h-187v-864h-184v1841h184v-803h189q12 141 50.5 264.5t107 229
t162.5 180.5t222 117.5t279 42.5zM1317 150q164 0 285 53t195.5 155t110.5 241.5t36 320.5q0 180 -36 319.5t-110.5 241t-195.5 154.5t-285 53t-285 -53t-195.5 -154.5t-110.5 -241t-36 -319.5q0 -181 36 -320.5t110.5 -241.5t195.5 -155t285 -53z" />
    <glyph glyph-name="uni042F" unicode="&#x42f;" horiz-adv-x="1572" vert-adv-y="2867" 
d="M1450 -2h-184v829h-914v-829h-188v922h188q-229 122 -229 415q0 137 49.5 235t145 156.5t224 85.5t298.5 27h610v-1841zM1266 1004v661h-426q-66 0 -113.5 -1.5t-101 -7t-90 -15.5t-74.5 -26.5t-62 -41t-44 -58t-29 -79t-9 -101.5q0 -57 9 -103t29 -79.5t44 -58t62 -41
t74.5 -26.5t90.5 -15t100.5 -6.5t113.5 -1.5h426z" />
    <glyph glyph-name="uni0430" unicode="&#x430;" vert-adv-y="2867" 
d="M119 451q0 70 28 138.5t80 128t136 101t188 51.5l731 72q0 35 -12.5 74t-46 83.5t-85 79.5t-139.5 58t-198 23q-434 0 -471 -277h-185q30 217 208 334t450 117q124 0 225.5 -18t171.5 -48.5t123 -75t83.5 -91t49.5 -104t25 -107.5t6 -107v-883h-205v500
q-15 -56 -49 -119.5t-93 -132.5t-131.5 -124t-172 -90.5t-207.5 -35.5q-133 0 -233.5 36t-159.5 100t-88 143.5t-29 173.5zM324 451q0 -60 15.5 -108t50 -87t96 -60.5t147.5 -21.5q213 0 386 154.5t263 449.5l-690 -63q-128 -11 -198 -88.5t-70 -175.5z" />
    <glyph glyph-name="uni0431" unicode="&#x431;" horiz-adv-x="1660" vert-adv-y="2867" 
d="M1432 1950q-45 -86 -116.5 -149.5t-153 -97.5t-160 -49.5t-156.5 -15.5q-111 0 -201 -28.5t-148.5 -75.5t-98.5 -110.5t-57 -131t-17 -139.5v-141q107 422 530 422q148 0 283 -58.5t232.5 -157t155.5 -235t58 -285.5q0 -157 -44 -289t-130.5 -233.5t-228.5 -159
t-326 -57.5q-133 0 -244.5 31.5t-190.5 87.5t-138 127.5t-93.5 155.5t-51.5 168t-17 169v455q0 157 56.5 283.5t155.5 208t230 124.5t283 43q158 0 248.5 53.5t150.5 174.5zM324 698q0 -144 40 -253.5t112 -177t167 -101t211 -33.5q246 0 385 156.5t139 408.5
q0 253 -140 407.5t-384 154.5q-150 0 -272 -75.5t-190 -204t-68 -282.5z" />
    <glyph glyph-name="uni0432" unicode="&#x432;" horiz-adv-x="1462" vert-adv-y="2867" 
d="M1192 754q58 -27 103 -81t67 -112t22 -110q0 -94 -29 -173t-88.5 -142.5t-160.5 -99.5t-234 -36h-753v1434h581q317 0 470 -106t153 -304q0 -53 -11 -102.5t-42 -97.5t-78 -70zM324 1260v-426h526q94 0 154 14.5t87 43.5t35.5 58t8.5 74q0 92 -34 140.5t-127 72
t-272 23.5h-378zM870 176q310 0 310 275q0 49 -11 87.5t-39 74t-83.5 56t-135.5 23.5h-587v-516h546z" />
    <glyph glyph-name="uni0433" unicode="&#x433;" horiz-adv-x="1308" vert-adv-y="2867" 
d="M961 1434h270v-174h-270q-227 0 -340 -123.5t-113 -360.5v-776h-205v1260h-184v174h184q89 -1 147 -60.5t58 -148.5v-68q59 118 177.5 197.5t275.5 79.5z" />
    <glyph glyph-name="uni0434" unicode="&#x434;" horiz-adv-x="1566" vert-adv-y="2867" 
d="M1366 174h123v-358h-205v184h-1001v-184h-205v358h135l385 1260h768v-1260zM424 174h737v1086h-426z" />
    <glyph glyph-name="uni0435" unicode="&#x435;" vert-adv-y="2867" 
d="M1487 602h-1143q0 -45 2.5 -79.5t13 -80t29 -79t53 -68.5t82 -57t119.5 -36t162 -14q190 0 307.5 66t138.5 195h209q-20 -145 -111.5 -248t-230.5 -153t-313 -50q-125 0 -228.5 25t-173 65t-122.5 98t-83 116.5t-48.5 128t-24.5 125t-6 114.5q0 385 178 574.5t508 189.5
q164 0 288.5 -47t213.5 -146.5t134.5 -259.5t45.5 -379zM1251 776q-8 117 -33 199.5t-76 143t-134.5 89.5t-202.5 29q-118 0 -203.5 -29t-139.5 -89t-82 -143.5t-36 -199.5h907z" />
    <glyph glyph-name="uni0436" unicode="&#x436;" horiz-adv-x="2318" vert-adv-y="2867" 
d="M119 0v174h135l250 789l-74 297h-311v174h203q123 0 215.5 -69.5t126.5 -186.5l45 -154h368l-4 410h209v-410h369l45 154q34 117 126.5 186.5t215.5 69.5h203v-174h-312l-74 -297l250 -789h136v-174h-150q-66 0 -116.5 38t-69.5 101l-205 711h-418v-850h-205v850h-418
l-204 -711q-19 -63 -70 -101t-117 -38h-149z" />
    <glyph glyph-name="uni0437" unicode="&#x437;" horiz-adv-x="1415" vert-adv-y="2867" 
d="M1128 174q77 0 143 -53t66 -121v-387h-168v387h-860q-101 0 -159 74q-28 37 -29.5 86t18 92.5t51.5 73.5l979 934h-925v174h884q105 0 162 -72q43 -61 28.5 -130.5t-71.5 -123.5l-979 -934h860z" />
    <glyph glyph-name="uni0438" unicode="&#x438;" horiz-adv-x="1368" vert-adv-y="2867" 
d="M1266 1434v-1434h-205v1266h-80l-449 -1266h-430v1434h205v-1266h80l449 1266h430z" />
    <glyph glyph-name="uni0439" unicode="&#x439;" horiz-adv-x="1368" vert-adv-y="2867" 
d="M700 1585q-116 0 -195 84.5t-79 216.5h147q0 -66 33 -109.5t94 -43.5q59 0 92 43.5t33 109.5h148q0 -131 -79 -216t-194 -85zM1266 1434v-1434h-205v1266h-80l-449 -1266h-430v1434h205v-1266h80l449 1266h430z" />
    <glyph glyph-name="uni043A" unicode="&#x43a;" horiz-adv-x="1368" vert-adv-y="2867" 
d="M307 1434v-410h369l45 154q34 117 126.5 186.5t215.5 69.5h203v-174h-312l-73 -297l249 -789h136v-174h-150q-66 0 -116.5 38t-69.5 101l-205 711h-418v-850h-205v1434h205z" />
    <glyph glyph-name="uni043B" unicode="&#x43b;" horiz-adv-x="1492" vert-adv-y="2867" 
d="M1391 1434v-1434h-205v1260h-426l-322 -1121q-19 -63 -69.5 -101t-116.5 -38h-150v174h136l385 1260h768z" />
    <glyph glyph-name="uni043C" unicode="&#x43c;" horiz-adv-x="2043" vert-adv-y="2867" 
d="M1942 1434v-1434h-205v1266h-80l-449 -1266h-372l-449 1266h-80v-1266h-205v1434h430l449 -1266h82l448 1266h431z" />
    <glyph glyph-name="uni043D" unicode="&#x43d;" horiz-adv-x="1486" vert-adv-y="2867" 
d="M1180 1436h204v-1434h-204v631h-873v-631h-205v1434h205v-629h873v629z" />
    <glyph glyph-name="uni043E" unicode="&#x43e;" horiz-adv-x="1579" vert-adv-y="2867" 
d="M788 -20q-148 0 -282.5 58.5t-232 157t-155 235.5t-57.5 288q0 200 97.5 369t265 267.5t364.5 98.5q148 0 283 -58t233 -156.5t156 -235t58 -285.5q0 -151 -58 -288t-156 -235.5t-233 -157t-283 -58.5zM788 174q164 0 282.5 73.5t175.5 195t57 276.5q0 114 -33.5 211.5
t-97 171.5t-162 116t-222.5 42t-222.5 -42t-161 -116t-95.5 -171.5t-33 -211.5q0 -116 33 -214.5t95.5 -172.5t161 -116t222.5 -42z" />
    <glyph glyph-name="uni043F" unicode="&#x43f;" horiz-adv-x="1445" vert-adv-y="2867" 
d="M1343 1434v-1434h-204v1260h-832v-1260h-205v1434h1241z" />
    <glyph glyph-name="uni0440" unicode="&#x440;" horiz-adv-x="1669" vert-adv-y="2867" 
d="M307 -692h-205v2126h205v-381q107 422 531 422q148 0 282.5 -58.5t232.5 -157.5t156 -236t58 -288q0 -200 -98 -369t-266 -267.5t-365 -98.5q-424 0 -531 422v-1114zM307 735q0 -238 147.5 -388t362.5 -150q124 0 221.5 41t158.5 114.5t92.5 170.5t31.5 212
q0 157 -54 277.5t-169.5 193t-280.5 72.5q-139 0 -256 -71t-185.5 -196t-68.5 -276z" />
    <glyph glyph-name="uni0441" unicode="&#x441;" horiz-adv-x="1531" vert-adv-y="2867" 
d="M61 719q0 201 92.5 369.5t255 267t359.5 98.5q163 0 296 -42.5t221.5 -117.5t136.5 -178.5t48 -224.5l-227 -6q-13 85 -30.5 140.5t-50.5 104t-83.5 75t-126.5 41t-184 14.5q-221 0 -352 -150.5t-131 -390.5q0 -244 130.5 -394.5t352.5 -150.5q107 0 184 16.5t127 45
t83 78t50.5 103t30.5 132.5l227 -6q0 -121 -48 -224.5t-136.5 -178.5t-221.5 -117.5t-296 -42.5q-197 0 -359.5 98.5t-255 268.5t-92.5 372z" />
    <glyph glyph-name="uni0442" unicode="&#x442;" horiz-adv-x="1280" vert-adv-y="2867" 
d="M1219 1434v-174h-478v-1260h-204v1260h-476v174h1158z" />
    <glyph glyph-name="uni0443" unicode="&#x443;" horiz-adv-x="1277" vert-adv-y="2867" 
d="M61 1434h205l305 -1276h136l305 1276h205l-459 -1928q-43 -177 -105.5 -264.5t-173.5 -142.5l-84 196q122 59 158 211l117 494h-113q-67 0 -119 38.5t-67 100.5z" />
    <glyph glyph-name="uni0444" unicode="&#x444;" horiz-adv-x="1660" vert-adv-y="2867" 
d="M1559 719q0 -152 -82.5 -284t-225.5 -217.5t-317 -106.5v-316h-205v316q-175 20 -318.5 105t-226 217.5t-82.5 285.5q0 152 82.5 284t226 217t318.5 105v313h205v-313q174 -21 317 -106.5t225.5 -217t82.5 -282.5zM317 719q0 -176 107 -298t305 -149v891
q-198 -27 -305 -148t-107 -296zM934 272q197 27 303 149t106 298q0 175 -106 296t-303 148v-891z" />
    <glyph glyph-name="uni0445" unicode="&#x445;" horiz-adv-x="1271" vert-adv-y="2867" 
d="M119 0l319 717l-299 717h205l246 -643h143l236 643h205l-289 -717l309 -717h-205l-256 643h-143l-266 -643h-205z" />
    <glyph glyph-name="uni0446" unicode="&#x446;" horiz-adv-x="1615" vert-adv-y="2867" 
d="M102 0v1434h205v-1260h832v1260h204v-1260h170v-358h-204v184h-1207z" />
    <glyph glyph-name="uni0447" unicode="&#x447;" horiz-adv-x="1277" vert-adv-y="2867" 
d="M995 1432h205v-1434h-205v563h-450q-83 0 -155 26t-121.5 69t-85.5 98.5t-53 113t-17 113.5v451h204v-451q0 -46 17 -91.5t49 -84.5t85 -63.5t118 -24.5h409v715z" />
    <glyph glyph-name="uni0448" unicode="&#x448;" horiz-adv-x="2031" vert-adv-y="2867" 
d="M1724 1434h205v-1434h-1827v1434h205v-1260h606v1260h205v-1260h606v1260z" />
    <glyph glyph-name="uni0449" unicode="&#x449;" horiz-adv-x="2236" vert-adv-y="2867" 
d="M1929 174h205v-358h-205v184h-1827v1434h205v-1260h606v1260h205v-1260h606v1260h205v-1260z" />
    <glyph glyph-name="uni044A" unicode="&#x44a;" horiz-adv-x="1794" vert-adv-y="2867" 
d="M1260 870q83 0 155 -26t121.5 -69t85.5 -98t53 -112.5t17 -113.5q0 -94 -29 -173.5t-88 -143.5t-159.5 -100t-233.5 -36q-134 0 -253 42t-199 107.5t-131.5 137.5t-70.5 141v-426h-204v1260h-222v174h426v-564h732zM1178 174q86 0 147.5 21.5t96 60.5t50 87t15.5 108
q0 63 -28 121.5t-91 100.5t-149 42h-670q36 -122 86.5 -215.5t109 -154.5t129.5 -100t145 -55t159 -16z" />
    <glyph glyph-name="uni044B" unicode="&#x44b;" horiz-adv-x="1996" vert-adv-y="2867" 
d="M119 0v1434h205v-564h731q83 0 155 -26t121.5 -69t85.5 -98t53 -112.5t17 -113.5q0 -94 -29 -173.5t-88 -143.5t-159.5 -100t-233.5 -36q-108 0 -207.5 28t-172.5 72.5t-131 101.5t-92.5 114.5t-49.5 111.5v-426h-205zM1714 1434h205v-1434h-205v1434zM344 715
q36 -122 86.5 -215.5t109 -154.5t129.5 -100t145 -55t159 -16q86 0 147.5 21.5t96 60.5t50 87t15.5 108q0 63 -28 121.5t-91 100.5t-149 42h-670z" />
    <glyph glyph-name="uni044C" unicode="&#x44c;" vert-adv-y="2867" 
d="M119 0v1434h205v-564h731q83 0 155 -26t121.5 -69t85.5 -98t53 -112.5t17 -113.5q0 -94 -29 -173.5t-88 -143.5t-159.5 -100t-233.5 -36q-108 0 -207.5 28t-172.5 72.5t-131 101.5t-92.5 114.5t-49.5 111.5v-426h-205zM344 715q36 -122 86.5 -215.5t109 -154.5
t129.5 -100t145 -55t159 -16q86 0 147.5 21.5t96 60.5t50 87t15.5 108q0 63 -28 121.5t-91 100.5t-149 42h-670z" />
    <glyph glyph-name="uni044D" unicode="&#x44d;" horiz-adv-x="1605" vert-adv-y="2867" 
d="M821 1454q197 0 359.5 -98.5t255 -267t92.5 -369.5q0 -202 -92.5 -372t-255 -268.5t-359.5 -98.5q-163 0 -296 42.5t-221.5 117.5t-136.5 178.5t-48 224.5l227 6q13 -79 30.5 -132.5t50.5 -103t83 -78t127 -45t184 -16.5q200 0 327.5 124.5t151.5 332.5h-698v174h698
q-24 206 -151.5 330.5t-327.5 124.5q-108 0 -184 -14.5t-126.5 -41t-83.5 -75t-50.5 -104t-30.5 -140.5l-227 6q0 121 48 224.5t136.5 178.5t221.5 117.5t296 42.5z" />
    <glyph glyph-name="uni044E" unicode="&#x44e;" horiz-adv-x="2113" vert-adv-y="2867" 
d="M1282 1454q197 0 365 -98.5t266 -267.5t98 -369q0 -201 -98 -371.5t-266 -269t-365 -98.5q-183 0 -341.5 86t-259.5 235.5t-122 331.5h-252v-631h-205v1434h205v-629h254q21 181 121.5 329t258.5 233t341 85zM1282 174q124 0 222.5 42t161.5 116t96.5 173t33.5 214
q0 153 -57 274t-175 194t-282 73q-124 0 -222.5 -42t-161 -116t-95.5 -171.5t-33 -211.5q0 -116 33 -214.5t95.5 -172.5t161 -116t222.5 -42z" />
    <glyph glyph-name="uni044F" unicode="&#x44f;" horiz-adv-x="1462" vert-adv-y="2867" 
d="M119 981q0 94 29 173.5t88 143.5t159.5 100t233.5 36q108 0 197 -28.5t146.5 -71.5t101.5 -103t67 -113t39 -112v426h204v-1434h-204v563h-508l-119 -422q-19 -63 -69.5 -101t-116.5 -38h-150v174h135l117 387q-74 0 -141 40t-111.5 102t-71 135.5t-26.5 142.5zM324 981
q0 -63 28 -121.5t91 -100.5t149 -42h567q-62 210 -131.5 326t-162 165t-232.5 49q-309 0 -309 -276z" />
    <glyph glyph-name="uni0450" unicode="&#x450;" vert-adv-y="2867" 
d="M772 1563l-164 422h211l82 -422h-129zM1487 602h-1143q0 -45 2.5 -79.5t13 -80t29 -79t53 -68.5t82 -57t119.5 -36t162 -14q190 0 307.5 66t138.5 195h209q-20 -145 -111.5 -248t-230.5 -153t-313 -50q-125 0 -228.5 25t-173 65t-122.5 98t-83 116.5t-48.5 128t-24.5 125
t-6 114.5q0 385 178 574.5t508 189.5q164 0 288.5 -47t213.5 -146.5t134.5 -259.5t45.5 -379zM1251 776q-8 117 -33 199.5t-76 143t-134.5 89.5t-202.5 29q-118 0 -203.5 -29t-139.5 -89t-82 -143.5t-36 -199.5h907z" />
    <glyph glyph-name="uni0451" unicode="&#x451;" vert-adv-y="2867" 
d="M543 1985l209 -209l-209 -209l-211 209zM1065 1985l209 -209l-209 -209l-211 209zM1487 602h-1143q0 -45 2.5 -79.5t13 -80t29 -79t53 -68.5t82 -57t119.5 -36t162 -14q190 0 307.5 66t138.5 195h209q-20 -145 -111.5 -248t-230.5 -153t-313 -50q-125 0 -228.5 25
t-173 65t-122.5 98t-83 116.5t-48.5 128t-24.5 125t-6 114.5q0 385 178 574.5t508 189.5q164 0 288.5 -47t213.5 -146.5t134.5 -259.5t45.5 -379zM1251 776q-8 117 -33 199.5t-76 143t-134.5 89.5t-202.5 29q-118 0 -203.5 -29t-139.5 -89t-82 -143.5t-36 -199.5h907z" />
    <glyph glyph-name="uni0452" unicode="&#x452;" horiz-adv-x="1556" vert-adv-y="2867" 
d="M961 1434q275 0 423 -160.5t148 -435.5v-1332q0 -289 -238 -407l-84 196q53 26 85 81t32 130v1332q0 206 -100 314t-264 108q-106 0 -187.5 -24t-131.5 -63t-81.5 -95.5t-43 -114t-11.5 -125.5v-838h-205v1434h-184v168h184v67h-184v174h180h4q89 -1 147 -60.5t58 -148.5
v-32h184v-168h-184v-277q94 277 453 277z" />
    <glyph glyph-name="uni0453" unicode="&#x453;" horiz-adv-x="1308" vert-adv-y="2867" 
d="M772 1985l-164 -422h-129l82 422h211zM961 1434h270v-174h-270q-227 0 -340 -123.5t-113 -360.5v-776h-205v1260h-184v174h184q89 -1 147 -60.5t58 -148.5v-68q59 118 177.5 197.5t275.5 79.5z" />
    <glyph glyph-name="uni0454" unicode="&#x454;" horiz-adv-x="1605" vert-adv-y="2867" 
d="M825 174q107 0 184 16.5t127 45t83 78t50.5 103t30.5 132.5l228 -6q0 -248 -189 -405.5t-514 -157.5q-148 0 -279 58t-224.5 157t-148 235.5t-54.5 288.5q0 150 54.5 285.5t147.5 234.5t224.5 157t279.5 58q325 0 514 -157.5t189 -405.5l-228 -6q-13 85 -30.5 140.5
t-50.5 104t-83.5 75t-126.5 41t-184 14.5q-200 0 -327.5 -124.5t-151.5 -330.5h698v-174h-698q24 -208 151.5 -332.5t327.5 -124.5z" />
    <glyph glyph-name="uni0455" unicode="&#x455;" horiz-adv-x="1335" vert-adv-y="2867" 
d="M688 -20q-134 0 -246.5 47t-185.5 126.5t-113.5 183t-40.5 218.5h197q1 -183 107 -291t272 -108q184 0 267 48.5t83 160.5q0 83 -28.5 134.5t-108.5 92t-229 70.5q-86 17 -160.5 41.5t-145.5 62t-121 84t-80 110.5t-30 138q0 166 133 261t404 95q90 0 165 -20t126 -50.5
t91.5 -76.5t64 -88.5t41 -96.5t24.5 -91t12 -81l-197 -2q-7 55 -17 97.5t-33.5 88.5t-57 76.5t-90 50t-129.5 19.5q-157 0 -244.5 -45.5t-87.5 -136.5q0 -101 81.5 -158.5t250.5 -93.5q571 -119 571 -461q0 -72 -15 -130t-53 -110.5t-99 -88t-156.5 -56t-221.5 -20.5z" />
    <glyph glyph-name="uni0456" unicode="&#x456;" horiz-adv-x="1200" vert-adv-y="2867" 
d="M799 1776l-209 -209l-211 209l211 209zM733 174h389v-174h-983v174h389v1086h-409v174h405q91 0 150 -59t59 -150v-1051z" />
    <glyph glyph-name="uni0457" unicode="&#x457;" horiz-adv-x="1179" vert-adv-y="2867" 
d="M336 1985l209 -209l-209 -209l-211 209zM858 1985l209 -209l-209 -209l-211 209zM119 0v174h389v1086h-389v174h983v-174h-389v-1086h389v-174h-983z" />
    <glyph glyph-name="uni0458" unicode="&#x458;" horiz-adv-x="630" vert-adv-y="2867" 
d="M553 1776l-209 -209l-211 209l211 209zM299 1434q91 0 150 -59t59 -150v-1719q0 -289 -238 -407l-84 196q53 26 85 81t32 130v1754h-184v174h180z" />
    <glyph glyph-name="uni0459" unicode="&#x459;" horiz-adv-x="2625" vert-adv-y="2867" 
d="M2116 870q83 0 155 -26t121.5 -69t85.5 -98t53 -112.5t17 -113.5q0 -94 -29 -173.5t-88 -143.5t-159.5 -100t-233.5 -36q-129 0 -244 39t-194.5 101t-132.5 131t-76 137v-406h-211v1260h-420l-322 -1121q-19 -63 -69.5 -101t-116.5 -38h-150v174h136l385 1260h768v-564
h725zM2034 174q86 0 147.5 21.5t96 60.5t50 87t15.5 108q0 63 -28 121.5t-91 100.5t-149 42h-670q36 -122 86.5 -215.5t109 -154.5t129.5 -100t145 -55t159 -16z" />
    <glyph glyph-name="uni045A" unicode="&#x45a;" horiz-adv-x="2625" vert-adv-y="2867" 
d="M2116 870q83 0 155 -26t121.5 -69t85.5 -98t53 -112.5t17 -113.5q0 -94 -29 -173.5t-88 -143.5t-159.5 -100t-233.5 -36q-134 0 -253 42t-199 107.5t-131.5 137.5t-70.5 141v-426h-204v633h-873v-631h-205v1434h205v-629h873v629h204v-566h732zM2034 174q86 0 147.5 21.5
t96 60.5t50 87t15.5 108q0 63 -28 121.5t-91 100.5t-149 42h-670q36 -122 86.5 -215.5t109 -154.5t129.5 -100t145 -55t159 -16z" />
    <glyph glyph-name="uni045B" unicode="&#x45b;" horiz-adv-x="1556" vert-adv-y="2867" 
d="M961 1434q275 0 423 -160.5t148 -435.5v-838h-205v838q0 206 -100 314t-264 108q-106 0 -187.5 -24t-131.5 -63t-81.5 -95.5t-43 -114t-11.5 -125.5v-838h-205v1434h-184v168h184v67h-184v174h180h4q89 -1 147 -60.5t58 -148.5v-32h184v-168h-184v-277q94 277 453 277z
" />
    <glyph glyph-name="uni045C" unicode="&#x45c;" horiz-adv-x="1368" vert-adv-y="2867" 
d="M637 1563h-129l82 422h211zM307 1434v-410h369l45 154q34 117 126.5 186.5t215.5 69.5h203v-174h-312l-73 -297l249 -789h136v-174h-150q-66 0 -116.5 38t-69.5 101l-205 711h-418v-850h-205v1434h205z" />
    <glyph glyph-name="uni045D" unicode="&#x45d;" horiz-adv-x="1343" vert-adv-y="2867" 
d="M791 1548h-129l-164 422h211zM1266 1434v-1434h-205v1266h-80l-449 -1266h-430v1434h205v-1266h80l449 1266h430z" />
    <glyph glyph-name="uni045E" unicode="&#x45e;" horiz-adv-x="1277" vert-adv-y="2867" 
d="M911 1886q0 -131 -79 -216t-193 -85q-116 0 -195 84.5t-79 216.5h147q0 -66 33 -109.5t94 -43.5q59 0 92 43.5t33 109.5h147zM61 1434h205l305 -1276h136l305 1276h205l-459 -1928q-43 -177 -105.5 -264.5t-173.5 -142.5l-84 196q122 59 158 211l117 494h-113
q-67 0 -119 38.5t-67 100.5z" />
    <glyph glyph-name="uni045F" unicode="&#x45f;" horiz-adv-x="1445" vert-adv-y="2867" 
d="M1139 1434h204v-1434h-518v-184h-204v184h-519v1434h205v-1260h832v1260z" />
    <glyph glyph-name="uni0462" unicode="&#x462;" horiz-adv-x="1689" vert-adv-y="2867" 
d="M895 1010q171 0 299.5 -27t224 -86t144.5 -158t49 -237q0 -137 -49 -234.5t-144.5 -156t-224 -85t-299.5 -26.5h-610v1454h-166v184h166v203h184v-203h172v-184h-172v-444h426zM895 174q77 0 130 2t114.5 9.5t102 21.5t81 38t63.5 58.5t37.5 84.5t14.5 114
q0 65 -14.5 115.5t-37.5 85.5t-63 60t-81 39t-102 22t-115 10t-130 2h-426v-662h426z" />
    <glyph glyph-name="uni0463" unicode="&#x463;" horiz-adv-x="1785" vert-adv-y="2867" 
d="M1276 870q83 0 155 -26t121.5 -69t85.5 -98t53 -112.5t17 -113.5q0 -94 -29 -173.5t-88 -143.5t-159.5 -100t-233.5 -36q-108 0 -207.5 28t-172.5 72.5t-131 101.5t-92.5 114.5t-49.5 111.5v-426h-205v1137h-221v174h221v123h205v-123h221v-174h-221v-267h731zM1194 174
q86 0 147.5 21.5t96 60.5t50 87t15.5 108q0 63 -28 121.5t-91 100.5t-149 42h-670q36 -122 86.5 -215.5t109 -154.5t129.5 -100t145 -55t159 -16z" />
    <glyph glyph-name="uni046A" unicode="&#x46a;" horiz-adv-x="2258" vert-adv-y="2867" 
d="M123 0v924h594l-174 741h-400v178h1973v-178h-400l-174 -741h594v-924h-184v750h-729v-750h-189v750h-727v-750h-184zM711 1665l207 -741h423l207 741h-837z" />
    <glyph glyph-name="uni046B" unicode="&#x46b;" horiz-adv-x="2320" vert-adv-y="2867" 
d="M119 0v174h135l250 789l-74 297h-311v174h2124v-174h-314l-74 -297l250 -789h136v-174h-150q-66 0 -116.5 38t-69.5 101l-205 711h-418v-850h-205v850h-418l-204 -711q-19 -63 -70 -101t-117 -38h-149zM629 1260l80 -236h942l80 236h-1102z" />
    <glyph glyph-name="uni0472" unicode="&#x472;" horiz-adv-x="1732" vert-adv-y="2867" 
d="M866 1872q164 0 300 -49.5t232.5 -137t163.5 -207.5t98.5 -260.5t31.5 -297.5t-31.5 -298t-98.5 -261.5t-163.5 -208.5t-232.5 -137.5t-300 -49.5t-300 49.5t-232 137.5t-163 208.5t-98.5 261.5t-31.5 298t31.5 297.5t98.5 260.5t163 207.5t232 137t300 49.5zM866 1688
q-584 0 -624 -672l172 26q259 41 434 -34q187 -80 428 -41l215 32q-16 330 -168.5 509.5t-456.5 179.5zM866 150q585 0 625 675l-215 -32q-241 -39 -428 41q-175 75 -434 34l-172 -26q7 -163 46.5 -289t114.5 -217t191.5 -138.5t271.5 -47.5z" />
    <glyph glyph-name="uni0473" unicode="&#x473;" horiz-adv-x="1660" vert-adv-y="2867" 
d="M829 1454q148 0 283 -58t233 -156.5t156 -235t58 -285.5q0 -151 -58 -288t-156 -235.5t-233 -157t-283 -58.5t-282.5 58.5t-232 157t-155 235.5t-57.5 288q0 200 97.5 369t265 267.5t364.5 98.5zM829 1260q-212 0 -340.5 -115.5t-160.5 -306.5l18 4q242 47 434 -35
q197 -84 428 -41l131 25q-20 208 -152.5 338.5t-357.5 130.5zM829 174q217 0 348 121t160 319l-129 -22q-231 -43 -428 41q-192 82 -434 35l-27 -6q16 -216 148.5 -352t361.5 -136z" />
    <glyph glyph-name="uni0474" unicode="&#x474;" horiz-adv-x="1873" vert-adv-y="2867" 
d="M1792 1759h-246l-305 -1061l-199 -698h-432l-528 1841h209l500 -1759h65l305 1061l199 698h432v-82z" />
    <glyph glyph-name="uni0475" unicode="&#x475;" horiz-adv-x="1378" vert-adv-y="2867" 
d="M61 1434h205l305 -1276h136l274 1136q15 62 67 101t119 39h150v-158h-135l-275 -1137q-15 -62 -67 -100.5t-119 -38.5h-164q-67 0 -119 38.5t-67 100.5z" />
    <glyph glyph-name="uni0490" unicode="&#x490;" horiz-adv-x="1343" vert-adv-y="2867" 
d="M1085 2046h177v-377h-996v-1669h-184v1843h1003v203z" />
    <glyph glyph-name="uni0491" unicode="&#x491;" horiz-adv-x="1308" vert-adv-y="2867" 
d="M1059 1530h172v-270h-270q-227 0 -340 -123.5t-113 -360.5v-776h-205v1260h-184v174h184q89 -1 147 -60.5t58 -148.5v-68q59 118 177.5 197.5t275.5 79.5h98v96z" />
    <glyph glyph-name="uni0492" unicode="&#x492;" horiz-adv-x="1720" vert-adv-y="2867" 
d="M1638 1667h-1017v-620h729v-175h-2v-2h-727v-870h-185v870h-354v174h354v797h1202v-174z" />
    <glyph glyph-name="uni0493" unicode="&#x493;" horiz-adv-x="1056" vert-adv-y="2867" 
d="M979 1260h-451v-234h410v-154h-410v-872h-204v872h-205v154h205v199q0 91 58.5 150t149.5 59h447v-174z" />
    <glyph glyph-name="uni0494" unicode="&#x494;" horiz-adv-x="1572" vert-adv-y="2867" 
d="M733 1010q171 0 299.5 -27t224 -86t144.5 -158t49 -237q0 -137 -49 -234.5t-144.5 -156t-224 -85t-299.5 -26.5v174q77 0 130 2t114.5 9.5t102 21.5t81 38t63.5 58.5t37.5 84.5t14.5 114q0 65 -14.5 115.5t-37.5 85.5t-63 60t-81 39t-102 22t-115 10t-130 2h-424v-836
l-184 2l-2 -2v1843h186v-2h967v-174h-967v-657h424z" />
    <glyph glyph-name="uni0495" unicode="&#x495;" horiz-adv-x="1462" vert-adv-y="2867" 
d="M952 870q210 0 321 -145.5t111 -396.5q0 -132 -28.5 -235.5t-88.5 -181t-159 -118.5t-234 -41l-4 176q170 0 240 99.5t70 300.5q0 185 -67.5 286t-201.5 101h-587v-715h-205v1434h917v-174h-712v-390h628z" />
    <glyph glyph-name="uni0496" unicode="&#x496;" horiz-adv-x="2600" vert-adv-y="2867" 
d="M2288 184h190v-387h-176v203h-199v750h-805v-750h-186v750h-805v-750h-184v924h573l-174 741h-399v176h229q139 0 245.5 -78t139.5 -209l160 -630h215v917h186v-917h215l160 630q32 131 138.5 209t246.5 78h230v-176h-400l-174 -741h574v-740z" />
    <glyph glyph-name="uni0497" unicode="&#x497;" horiz-adv-x="2523" vert-adv-y="2867" 
d="M2445 174v-358h-245v184h-109q-66 0 -116.5 38t-69.5 101l-205 711h-418v-850h-205v850h-418l-204 -711q-19 -63 -70 -101t-117 -38h-149v174h135l250 789l-74 297h-311v174h203q123 0 215.5 -69.5t126.5 -186.5l45 -154h368l-4 410h209v-410h369l45 154
q34 117 126.5 186.5t215.5 69.5h203v-174h-312l-74 -297l250 -789h340z" />
    <glyph glyph-name="uni0498" unicode="&#x498;" horiz-adv-x="1800" vert-adv-y="2867" 
d="M1677 1403l-1472 -1155v-51h1472v-400h-176v205h-457l-112 -334q75 -11 126.5 -70t51.5 -137q0 -86 -61.5 -147.5t-147.5 -61.5t-147.5 61.5t-61.5 147.5h92q0 -47 35 -81.5t82 -34.5t82 34.5t35 81.5q0 50 -30 83.5t-87 33.5h-129l72 424h-721v391l1472 1202v52h-1370
v194h1452v-438z" />
    <glyph glyph-name="uni0499" unicode="&#x499;" horiz-adv-x="1415" vert-adv-y="2867" 
d="M1128 174q77 0 143 -53t66 -121v-387h-168v387h-297l-112 -332q75 -11 126.5 -70t51.5 -137q0 -86 -61.5 -147.5t-147.5 -61.5t-147.5 61.5t-61.5 147.5h92q0 -47 35 -81.5t82 -34.5t82 34.5t35 81.5q0 50 -30 83.5t-87 33.5h-129l72 422h-363q-101 0 -159 74
q-28 37 -29.5 86t18 92.5t51.5 73.5l979 934h-925v174h884q105 0 162 -72q43 -61 28.5 -130.5t-71.5 -123.5l-979 -934h860z" />
    <glyph glyph-name="uni049A" unicode="&#x49a;" horiz-adv-x="1611" vert-adv-y="2867" 
d="M1298 184h191v-387h-176v203h-199v750h-807v-750h-184v1841h184v-917h217l160 630q32 131 138.5 209t246.5 78h229v-176h-399l-174 -741h573v-740z" />
    <glyph glyph-name="uni049B" unicode="&#x49b;" vert-adv-y="2867" 
d="M1487 174v-358h-246v184h-108q-66 0 -117 38t-70 101l-205 711h-417v-850h-205v1434h205v-410h368l45 154q34 117 126.5 186.5t215.5 69.5h203v-174h-311l-74 -297l250 -789h340z" />
    <glyph glyph-name="uni049C" unicode="&#x49c;" horiz-adv-x="1421" vert-adv-y="2867" 
d="M1298 1665h-399l-174 -741h573v-924h-184v750h-573v-265h-150v265h-84v-750h-184v1841h184v-917h84v317h150v-252l143 565q32 131 138.5 209t246.5 78h229v-176z" />
    <glyph glyph-name="uni049D" unicode="&#x49d;" horiz-adv-x="1359" vert-adv-y="2867" 
d="M1282 1260h-311l-74 -297l250 -789h135v-174h-149q-66 0 -117 38t-70 101l-205 711h-112v-191h-205v191h-100v-850h-205v1434h205v-410h100v199h205v-199h63l45 154q34 117 126.5 186.5t215.5 69.5h203v-174z" />
    <glyph glyph-name="uni049E" unicode="&#x49e;" horiz-adv-x="1542" vert-adv-y="2867" 
d="M1419 1665h-399l-174 -741h573v-924h-184v750h-807v-750h-184v1501h-121v176h121v164h184v-162h123v-176h-123v-579h217l160 630q32 131 138.5 209t246.5 78h229v-176z" />
    <glyph glyph-name="uni049F" unicode="&#x49f;" horiz-adv-x="1540" vert-adv-y="2867" 
d="M1462 1260h-311l-74 -297l250 -789h135v-174h-149q-66 0 -117 38t-70 101l-204 711h-418v-850h-205v1460h-180v205h180v178h205v-178h180v-205h-180v-436h368l46 154q34 117 126.5 186.5t215.5 69.5h202v-174z" />
    <glyph glyph-name="uni04A0" unicode="&#x4a0;" horiz-adv-x="1849" vert-adv-y="2867" 
d="M1726 1665h-399l-174 -741h573v-924h-184v750h-807v-750h-184v1665l-428 -2v176l428 2h184v-917h217l160 630q32 131 138.5 209t246.5 78h229v-176z" />
    <glyph glyph-name="uni04A1" unicode="&#x4a1;" horiz-adv-x="1720" vert-adv-y="2867" 
d="M1642 1260h-311l-74 -297l250 -789h135v-174h-149q-66 0 -116.5 38t-69.5 101l-205 711h-418v-850h-205v1229h-360v205h565v-410h369l45 154q34 117 126.5 186.5t215.5 69.5h202v-174z" />
    <glyph glyph-name="uni04A2" unicode="&#x4a2;" horiz-adv-x="1851" vert-adv-y="2867" 
d="M1542 184h187v-387h-177v203h-198v864h-1047v-864h-184v1841h184v-803h1047v803h188v-1657z" />
    <glyph glyph-name="uni04A3" unicode="&#x4a3;" horiz-adv-x="1691" vert-adv-y="2867" 
d="M1384 174h205v-358h-225v186h-184v631h-873v-631h-205v1434h205v-629h873v629h204v-1262z" />
    <glyph glyph-name="uni04A4" unicode="&#x4a4;" horiz-adv-x="2105" vert-adv-y="2867" 
d="M1982 1843v-176l-440 -2v-1665h-188v864h-1047v-864h-184v1841h184v-803h1047v803z" />
    <glyph glyph-name="uni04A5" unicode="&#x4a5;" horiz-adv-x="2183" vert-adv-y="2867" 
d="M1835 1436h270v-174h-270q-212 0 -324.5 -107.5t-126.5 -314.5v-838h-206v631h-871v-631h-205v1434h205v-629h871v455h-185v174h185h2h204v-273q59 116 177 194.5t274 78.5z" />
    <glyph glyph-name="uni04A6" unicode="&#x4a6;" horiz-adv-x="2807" vert-adv-y="2867" 
d="M1968 1010q171 0 299.5 -27t224 -86t144.5 -158t49 -237q0 -137 -49 -234.5t-144.5 -156t-224 -85t-299.5 -26.5v174q77 0 129 2t111.5 9.5t98 21.5t76.5 38t59.5 58.5t34.5 84.5t13 114q0 51 -8 93t-21.5 74t-36.5 57t-47.5 42.5t-61.5 30t-71.5 19.5t-83 11t-91.5 5.5
t-101 1.5h-424v-836h-182v2h-2l-2 -2v1667h-1051v-1667h-184v1841h1235v2h186v-833h424z" />
    <glyph glyph-name="uni04A7" unicode="&#x4a7;" horiz-adv-x="2506" vert-adv-y="2867" 
d="M1972 870q210 0 321 -145.5t111 -396.5q0 -132 -28.5 -235.5t-88.5 -181t-159 -118.5t-234 -41l-4 176q170 0 240 99.5t70 300.5q0 185 -67.5 286t-201.5 101h-588v-715h-204v1260h-832v-1260h-205v1434h1241v-564h629z" />
    <glyph glyph-name="uni04A8" unicode="&#x4a8;" horiz-adv-x="2314" vert-adv-y="2867" 
d="M41 920q0 151 44.5 291.5t126.5 253.5t192 198t249 131.5t289 46.5v-194q-147 0 -279 -57.5t-225 -155t-147.5 -232t-54.5 -282.5q0 -314 156.5 -484t447.5 -219q-117 101 -181.5 234.5t-64.5 283.5q0 164 41 290.5t126 219t223.5 141t326.5 48.5t326.5 -48.5t223.5 -141
t126 -219t41 -290.5q0 -159 -72 -299t-203 -243h520v-195h-1126q-199 0 -366 33t-305 104t-234 178t-148.5 261t-52.5 346zM788 735q0 -96 38 -190.5t104 -169.5t166 -121.5t215 -46.5q91 0 174 30t145.5 82t108.5 119.5t70 143.5t24 153q0 124 -26.5 214t-86 157
t-161.5 100t-248 33t-248 -33t-162 -100t-86.5 -157t-26.5 -214z" />
    <glyph glyph-name="uni04A9" unicode="&#x4a9;" horiz-adv-x="2437" vert-adv-y="2867" 
d="M102 920q0 188 70 358.5t189.5 294t287 196t355.5 72.5v-194q-197 0 -359.5 -97.5t-255 -264.5t-92.5 -365q0 -314 156.5 -484t447.5 -219q-117 101 -181.5 234.5t-64.5 283.5q0 164 41 290.5t126 219t223.5 141t326.5 48.5t326.5 -48.5t223.5 -141t126 -219t41 -290.5
q0 -159 -71.5 -299.5t-202.5 -242.5h520v-195h-1127q-199 0 -366 33t-305 104t-234 178t-148.5 261t-52.5 346zM850 735q0 -96 37.5 -190.5t104 -169.5t166 -121.5t214.5 -46.5q91 0 174 30t145.5 82t108.5 119.5t70 143.5t24 153q0 124 -26.5 214t-86 157t-161.5 100
t-248 33t-248 -33t-161.5 -100t-86 -157t-26.5 -214z" />
    <glyph glyph-name="uni04AA" unicode="&#x4aa;" horiz-adv-x="1892" vert-adv-y="2867" 
d="M948 150q314 0 466.5 149t152.5 473h202q0 -349 -186.5 -560.5t-527.5 -242.5l-103 -301q75 -11 126.5 -70t51.5 -137q0 -86 -61 -147.5t-147 -61.5t-147.5 61.5t-61.5 147.5h92q0 -47 35 -81.5t82 -34.5t81.5 34.5t34.5 81.5q0 51 -29.5 84t-86.5 33h-129l65 391
q-146 13 -267.5 68.5t-207 144t-145 205t-87.5 251t-28 282.5q0 157 31.5 297.5t98.5 260.5t163 207.5t232 137t300 49.5q387 0 604 -218t217 -589h-202q0 320 -153.5 471.5t-465.5 151.5q-620 0 -620 -768q0 -770 620 -770z" />
    <glyph glyph-name="uni04AB" unicode="&#x4ab;" horiz-adv-x="1605" vert-adv-y="2867" 
d="M825 174q107 0 184 16.5t127 45t83 78t50.5 103t30.5 132.5l228 -6q0 -220 -150 -371t-415 -184l-109 -320q75 -11 126.5 -70t51.5 -137q0 -86 -61.5 -147.5t-147.5 -61.5t-147.5 61.5t-61.5 147.5h93q0 -47 34.5 -81.5t81.5 -34.5t82 34.5t35 81.5q0 50 -30 83.5
t-87 33.5h-129l68 404q-182 16 -329.5 118t-230.5 265t-83 354q0 150 54.5 285.5t147.5 234.5t224.5 157t279.5 58q325 0 514 -157.5t189 -405.5l-228 -6q-13 85 -30.5 140.5t-50.5 104t-83.5 75t-126.5 41t-184 14.5q-221 0 -352 -150.5t-131 -390.5q0 -244 130.5 -394.5
t352.5 -150.5z" />
    <glyph glyph-name="uni04AC" unicode="&#x4ac;" horiz-adv-x="1460" vert-adv-y="2867" 
d="M1378 1667h-555v-1483h189v-387h-176v203h-199v1667h-555v174h1296v-174z" />
    <glyph glyph-name="uni04AD" unicode="&#x4ad;" horiz-adv-x="1361" vert-adv-y="2867" 
d="M1219 1260h-478v-1055h232v-481h-205v276h-231v1260h-476v174h1158v-174z" />
    <glyph glyph-name="uni04AE" unicode="&#x4ae;" horiz-adv-x="1650" vert-adv-y="2867" 
d="M1354 1841h215l-527 -958h-124v-883h-185v883h-125l-526 958h215l500 -883h57z" />
    <glyph glyph-name="uni04AF" unicode="&#x4af;" horiz-adv-x="1277" vert-adv-y="2867" 
d="M1012 1434h205l-310 -1295q-13 -58 -59 -95.5t-107 -43.5v-324h-204v324q-61 6 -107 43.5t-59 95.5l-310 1295h205l305 -1276h136z" />
    <glyph glyph-name="uni04B0" unicode="&#x4b0;" horiz-adv-x="1650" vert-adv-y="2867" 
d="M1569 1841l-439 -797h328v-194h-540v-850h-185v850h-540v194h327l-438 797h215l451 -797h155l451 797h215z" />
    <glyph glyph-name="uni04B1" unicode="&#x4b1;" horiz-adv-x="1228" vert-adv-y="2867" 
d="M1217 1434l-306 -1276h174v-205h-344v-277h-204v277h-342v205h172l-306 1276h205l305 -1276h136l305 1276h205z" />
    <glyph glyph-name="uni04B2" unicode="&#x4b2;" horiz-adv-x="1810" vert-adv-y="2867" 
d="M1464 184h265v-387h-177v203h-198l-500 883h-57l-500 -883h-215l526 922l-526 919h215l500 -883h57l500 883h215l-527 -919z" />
    <glyph glyph-name="uni04B3" unicode="&#x4b3;" horiz-adv-x="1427" vert-adv-y="2867" 
d="M1350 205v-481h-205v276h-156l-256 643h-143l-266 -643h-205l319 717l-299 717h205l246 -643h143l236 643h205l-289 -717l221 -512h244z" />
    <glyph glyph-name="uni04B4" unicode="&#x4b4;" horiz-adv-x="2316" vert-adv-y="2867" 
d="M2058 174h176v-377h-176v203h-1421v1667h-555v174h1296v-174h-555v-1493h1051v1667h184v-1667z" />
    <glyph glyph-name="uni04B5" unicode="&#x4b5;" horiz-adv-x="2099" vert-adv-y="2867" 
d="M1827 174h170v-358h-205v184h-1255v1260h-476v174h1158v-174h-428v-1086h831v1260h205v-1260z" />
    <glyph glyph-name="uni04B6" unicode="&#x4b6;" horiz-adv-x="1769" vert-adv-y="2867" 
d="M1450 184h197v-387h-177v203h-204v831h-426q-171 0 -299.5 27t-224 86t-144.5 158t-49 237v502h184v-502q0 -57 9.5 -103t30 -79.5t45.5 -58.5t64 -41.5t76.5 -26.5t92 -15.5t102 -7t113.5 -1.5h426v835h184v-1657z" />
    <glyph glyph-name="uni04B7" unicode="&#x4b7;" horiz-adv-x="1427" vert-adv-y="2867" 
d="M1200 205h150v-481h-205v274h-150v563h-450q-83 0 -155 26t-121.5 69t-85.5 98.5t-53 113t-17 113.5v451h204v-451q0 -46 17 -91.5t49 -84.5t85 -63.5t118 -24.5h409v715h205v-1227z" />
    <glyph glyph-name="uni04B8" unicode="&#x4b8;" horiz-adv-x="1572" vert-adv-y="2867" 
d="M1266 1841h184v-1841h-184v831h-392v-346h-176v351q-281 23 -428 142.5t-147 360.5v502h184v-502q0 -77 18.5 -133.5t50 -92t82.5 -58.5t107.5 -33t132.5 -14v233h176v-235h392v835z" />
    <glyph glyph-name="uni04B9" unicode="&#x4b9;" horiz-adv-x="1228" vert-adv-y="2867" 
d="M995 1432h205v-1434h-205v563h-135v-176h-205v176h-110q-83 0 -155 26t-121.5 69t-85.5 98.5t-53 113t-17 113.5v451h204v-451q0 -46 17 -91.5t49 -84.5t85 -63.5t118 -24.5h69v231h205v-231h135v715z" />
    <glyph glyph-name="uni04BA" unicode="&#x4ba;" horiz-adv-x="1572" vert-adv-y="2867" 
d="M733 1010q171 0 299.5 -27t224 -86t144.5 -158t49 -237v-502h-184v502q0 65 -13.5 115.5t-36 85.5t-61.5 60t-79 39t-100 22t-113.5 10t-129.5 2h-426v-836h-184v1841h184v-831h426z" />
    <glyph glyph-name="uni04BB" unicode="&#x4bb;" horiz-adv-x="1609" vert-adv-y="2867" 
d="M961 1434q275 0 423 -160.5t148 -435.5v-838h-205v838q0 206 -100 314t-264 108q-106 0 -187.5 -24t-131.5 -63t-81.5 -95.5t-43 -114t-11.5 -125.5v-838h-205v1669h-184v174h180h4q89 -1 147 -60.5t58 -148.5v-477q94 277 453 277z" />
    <glyph glyph-name="uni04BC" unicode="&#x4bc;" horiz-adv-x="1837" vert-adv-y="2867" 
d="M1077 188q191 0 308.5 66t138.5 195h209q-30 -216 -209.5 -333.5t-446.5 -117.5q-114 0 -209 20.5t-163 54.5t-121 82.5t-86.5 100t-56.5 113t-33.5 115t-14.5 110.5q-134 15 -204 98.5t-70 229.5v57h176v-203h100q24 332 200 495t482 163q164 0 288.5 -47t213.5 -146.5
t134.5 -259.5t45.5 -379h-1143q0 -45 2.5 -79.5t13 -80t29 -79t53 -68.5t82 -57t119.5 -36t162 -14zM1077 1237q-118 0 -203.5 -29t-139.5 -89t-82 -143.5t-36 -199.5h908q-8 117 -33.5 199.5t-76.5 143t-134.5 89.5t-202.5 29z" />
    <glyph glyph-name="uni04BD" unicode="&#x4bd;" horiz-adv-x="1837" vert-adv-y="2867" 
d="M1077 188q191 0 308.5 66t138.5 195h209q-30 -216 -209.5 -333.5t-446.5 -117.5q-114 0 -209 20.5t-163 54.5t-121 82.5t-86.5 100t-56.5 113t-33.5 115t-14.5 110.5q-134 15 -204 98.5t-70 229.5v57h176v-203h100q24 332 200 495t482 163q164 0 288.5 -47t213.5 -146.5
t134.5 -259.5t45.5 -379h-1143q0 -45 2.5 -79.5t13 -80t29 -79t53 -68.5t82 -57t119.5 -36t162 -14zM1077 1237q-118 0 -203.5 -29t-139.5 -89t-82 -143.5t-36 -199.5h908q-8 117 -33.5 199.5t-76.5 143t-134.5 89.5t-202.5 29z" />
    <glyph glyph-name="uni04BE" unicode="&#x4be;" horiz-adv-x="1837" vert-adv-y="2867" 
d="M1077 188q191 0 308.5 66t138.5 195h209q-27 -194 -175.5 -309.5t-375.5 -137.5v-205h-176v203q-140 8 -248.5 51t-173 102t-107.5 139.5t-60.5 151t-23.5 150.5q-134 15 -204 98.5t-70 229.5v57h176v-203h100q24 332 200 495t482 163q164 0 288.5 -47t213.5 -146.5
t134.5 -259.5t45.5 -379h-1143q0 -45 2.5 -79.5t13 -80t29 -79t53 -68.5t82 -57t119.5 -36t162 -14zM1077 1237q-118 0 -203.5 -29t-139.5 -89t-82 -143.5t-36 -199.5h908q-8 117 -33.5 199.5t-76.5 143t-134.5 89.5t-202.5 29z" />
    <glyph glyph-name="uni04BF" unicode="&#x4bf;" horiz-adv-x="1837" vert-adv-y="2867" 
d="M1077 188q191 0 308.5 66t138.5 195h209q-27 -194 -175.5 -309.5t-375.5 -137.5v-205h-176v203q-140 8 -248.5 51t-173 102t-107.5 139.5t-60.5 151t-23.5 150.5q-134 15 -204 98.5t-70 229.5v57h176v-203h100q24 332 200 495t482 163q164 0 288.5 -47t213.5 -146.5
t134.5 -259.5t45.5 -379h-1143q0 -45 2.5 -79.5t13 -80t29 -79t53 -68.5t82 -57t119.5 -36t162 -14zM1077 1237q-118 0 -203.5 -29t-139.5 -89t-82 -143.5t-36 -199.5h908q-8 117 -33.5 199.5t-76.5 143t-134.5 89.5t-202.5 29z" />
    <glyph glyph-name="uni04C0" unicode="&#x4c0;" horiz-adv-x="1298" vert-adv-y="2867" 
d="M123 0h1030v172h-428v1495h428v174h-1030v-174h428v-1495h-428v-172z" />
    <glyph glyph-name="uni04C1" unicode="&#x4c1;" horiz-adv-x="2410" vert-adv-y="2867" 
d="M2288 1665h-400l-174 -741h574v-924h-185v750h-805v-750h-186v750h-805v-750h-184v924h573l-174 741h-399v176h229q139 0 245.5 -78t139.5 -209l160 -630h215v917h186v-917h215l160 630q32 131 138.5 209t246.5 78h230v-176z" />
    <glyph glyph-name="uni04C2" unicode="&#x4c2;" horiz-adv-x="2318" vert-adv-y="2867" 
d="M1452 1886q0 -131 -79 -216t-193 -85q-116 0 -195.5 85t-79.5 216h148q0 -66 33 -109.5t94 -43.5q59 0 92 43.5t33 109.5h147zM119 0v174h135l250 789l-74 297h-311v174h203q123 0 215.5 -69.5t126.5 -186.5l45 -154h368l-4 410h209v-410h369l45 154q34 117 126.5 186.5
t215.5 69.5h203v-174h-312l-74 -297l250 -789h136v-174h-150q-66 0 -116.5 38t-69.5 101l-205 711h-418v-850h-205v850h-418l-204 -711q-19 -63 -70 -101t-117 -38h-149z" />
    <glyph glyph-name="uni04C3" unicode="&#x4c3;" horiz-adv-x="1421" vert-adv-y="2867" 
d="M123 0v1841h184v-917h217l160 630q32 131 138.5 209t246.5 78h229v-176h-399l-174 -741h113q199 0 329.5 -130.5t130.5 -330.5v-975h-184v952q0 151 -79 230.5t-230 79.5h-498v-750h-184z" />
    <glyph glyph-name="uni04C4" unicode="&#x4c4;" horiz-adv-x="1589" vert-adv-y="2867" 
d="M1282 174q111 0 170 -69t59 -199v-182h-204v276h-174q-66 0 -117 38t-70 101l-205 711h-417v-850h-205v1434h205v-410h368l45 154q34 117 126.5 186.5t215.5 69.5h203v-174h-311l-74 -297l250 -789h135z" />
    <glyph glyph-name="uni04C5" unicode="&#x4c5;" horiz-adv-x="1652" vert-adv-y="2867" 
d="M1296 184h234l-164 -387h-188l94 203h-160v1667h-518v-1104q0 -69 -4 -122.5t-17.5 -115t-36 -106t-63 -88t-95.5 -71t-135.5 -44t-181.5 -16.5v184h349v1657h886v-1657z" />
    <glyph glyph-name="uni04C6" unicode="&#x4c6;" horiz-adv-x="1751" vert-adv-y="2867" 
d="M1391 184h258l-164 -387h-189l95 203h-205v1260h-426l-322 -1121q-19 -63 -69.5 -101t-116.5 -38h-150v174h136l385 1260h768v-1250z" />
    <glyph glyph-name="uni04C7" unicode="&#x4c7;" horiz-adv-x="1933" vert-adv-y="2867" 
d="M1542 184h268l-163 -387h-189l94 203h-198v864h-1047v-864h-184v1841h184v-803h1047v803h188v-1657z" />
    <glyph glyph-name="uni04C8" unicode="&#x4c8;" horiz-adv-x="1486" vert-adv-y="2867" 
d="M1180 1436h204v-1930q0 -289 -237 -407l-84 196q53 26 85 81t32 130v1127h-873v-631h-205v1434h205v-629h873v629z" />
    <glyph glyph-name="uni04C9" unicode="&#x4c9;" horiz-adv-x="1933" vert-adv-y="2867" 
d="M1542 184h268l-163 -387h-189l94 203h-198v864h-1047v-864h-184v1841h184v-803h1047v803h188v-1657z" />
    <glyph glyph-name="uni04CA" unicode="&#x4ca;" horiz-adv-x="1751" vert-adv-y="2867" 
d="M1384 184h265l-164 -387h-189l95 203h-199v2h-12v631h-873v-631h-205v1434h205v-629h873v629h204v-1252z" />
    <glyph glyph-name="uni04CB" unicode="&#x4cb;" horiz-adv-x="1572" vert-adv-y="2867" 
d="M1266 1841h184v-1841h-199v-203h-176v387h191v647h-426q-171 0 -299.5 27t-224 86t-144.5 158t-49 237v502h184v-502q0 -57 9.5 -103t30 -79.5t45.5 -58.5t64 -41.5t76.5 -26.5t92 -15.5t102 -7t113.5 -1.5h426v835z" />
    <glyph glyph-name="uni04CC" unicode="&#x4cc;" horiz-adv-x="1427" vert-adv-y="2867" 
d="M1200 1432v-1434h-131v-274h-205v481h131v356h-450q-83 0 -155 26t-121.5 69t-85.5 98.5t-53 113t-17 113.5v451h204v-451q0 -46 17 -91.5t49 -84.5t85 -63.5t118 -24.5h409v715h205z" />
    <glyph glyph-name="uni04CD" unicode="&#x4cd;" horiz-adv-x="2445" vert-adv-y="2867" 
d="M2060 184h262l-163 -387h-189l94 203h-188v1759h-78l-500 -1759h-413l-500 1759h-78v-1759h-184v1841h440l506 -1759h45l506 1759h440v-1657z" />
    <glyph glyph-name="uni04CE" unicode="&#x4ce;" horiz-adv-x="2301" vert-adv-y="2867" 
d="M1942 184h258l-164 -387h-189l95 203h-205v1266h-80l-449 -1266h-372l-449 1266h-80v-1266h-205v1434h430l449 -1266h82l448 1266h431v-1250z" />
    <glyph glyph-name="uni04CF" unicode="&#x4cf;" horiz-adv-x="770" vert-adv-y="2867" 
d="M119 0v174h184v1542h-184v174h180q91 0 150 -59t59 -150v-1507h184v-174h-573z" />
    <glyph glyph-name="uni04D0" unicode="&#x4d0;" horiz-adv-x="1814" vert-adv-y="2867" 
d="M119 0l631 1843h417l631 -1843h-209l-301 895h-659l-301 -895h-209zM694 1069h529l-236 690h-57z" />
    <glyph glyph-name="uni04D1" unicode="&#x4d1;" vert-adv-y="2867" 
d="M1075 1886q0 -131 -79 -216t-193 -85q-116 0 -195.5 85t-79.5 216h148q0 -66 33 -109.5t94 -43.5q59 0 92 43.5t33 109.5h147zM119 451q0 70 28 138.5t80 128t136 101t188 51.5l731 72q0 35 -12.5 74t-46 83.5t-85 79.5t-139.5 58t-198 23q-434 0 -471 -277h-185
q30 217 208 334t450 117q124 0 225.5 -18t171.5 -48.5t123 -75t83.5 -91t49.5 -104t25 -107.5t6 -107v-883h-205v500q-15 -56 -49 -119.5t-93 -132.5t-131.5 -124t-172 -90.5t-207.5 -35.5q-133 0 -233.5 36t-159.5 100t-88 143.5t-29 173.5zM324 451q0 -60 15.5 -108
t50 -87t96 -60.5t147.5 -21.5q213 0 386 154.5t263 449.5l-690 -63q-128 -11 -198 -88.5t-70 -175.5z" />
    <glyph glyph-name="uni04D2" unicode="&#x4d2;" horiz-adv-x="1814" vert-adv-y="2867" 
d="M647 2365l209 -208l-209 -209l-211 209zM1169 2365l209 -208l-209 -209l-211 209zM119 0l631 1843h417l631 -1843h-209l-301 895h-659l-301 -895h-209zM694 1069h529l-236 690h-57z" />
    <glyph glyph-name="uni04D3" unicode="&#x4d3;" vert-adv-y="2867" 
d="M543 1985l209 -209l-209 -209l-211 209zM1065 1985l209 -209l-209 -209l-211 209zM119 451q0 70 28 138.5t80 128t136 101t188 51.5l731 72q0 35 -12.5 74t-46 83.5t-85 79.5t-139.5 58t-198 23q-434 0 -471 -277h-185q30 217 208 334t450 117q124 0 225.5 -18
t171.5 -48.5t123 -75t83.5 -91t49.5 -104t25 -107.5t6 -107v-883h-205v500q-15 -56 -49 -119.5t-93 -132.5t-131.5 -124t-172 -90.5t-207.5 -35.5q-133 0 -233.5 36t-159.5 100t-88 143.5t-29 173.5zM324 451q0 -60 15.5 -108t50 -87t96 -60.5t147.5 -21.5q213 0 386 154.5
t263 449.5l-690 -63q-128 -11 -198 -88.5t-70 -175.5z" />
    <glyph glyph-name="uni04D4" unicode="&#x4d4;" horiz-adv-x="2484" vert-adv-y="2867" 
d="M68 0l645 1843h1704v-174h-996v-600h707v-174h-707v-721h996v-174h-1180v895h-653l-301 -895h-215zM641 1069h596v600h-373z" />
    <glyph glyph-name="uni04D5" unicode="&#x4d5;" horiz-adv-x="2705" vert-adv-y="2867" 
d="M1946 168q200 0 312.5 63.5t133.5 217.5h209q-20 -145 -111.5 -248t-230.5 -153t-313 -50q-136 0 -245 29t-180 75t-123 112t-78.5 130.5t-41.5 138.5q-18 -57 -53.5 -119t-94.5 -128.5t-130.5 -118.5t-168.5 -85.5t-202 -33.5q-133 0 -233.5 36t-159.5 100t-88 143.5
t-29 173.5q0 70 28 138.5t80 127.5t136 100.5t188 52.5l690 72v6q0 26 -0.5 41t-4.5 45t-11 50t-22.5 48.5t-36.5 47.5t-55 40.5t-76.5 34t-102.5 21t-131 8.5q-213 0 -331.5 -71.5t-139.5 -229.5h-185q30 217 208 334t450 117q460 0 588 -250q172 250 555 250
q164 0 288.5 -47t213.5 -146.5t134.5 -259.5t45.5 -379h-1143q0 -46 2.5 -81t13 -82.5t29 -82.5t53 -72.5t82 -61t119.5 -39t162 -15.5zM1946 1237q-118 0 -203.5 -29t-139.5 -89t-82 -143.5t-36 -199.5h907q-8 117 -33 199.5t-76 143t-134.5 89.5t-202.5 29zM633 174
q211 0 371.5 153.5t236.5 450.5l-649 -63q-129 -13 -198.5 -90t-69.5 -174q0 -60 15.5 -108t50 -87t96 -60.5t147.5 -21.5z" />
    <glyph glyph-name="uni04D6" unicode="&#x4d6;" horiz-adv-x="1343" vert-adv-y="2867" 
d="M1262 1843h-1180v-1843h1180v174h-996v721h707v174h-707v600h996v174z" />
    <glyph glyph-name="uni04D7" unicode="&#x4d7;" vert-adv-y="2867" 
d="M1075 1886q0 -131 -79 -216t-193 -85q-116 0 -195.5 85t-79.5 216h148q0 -66 33 -109.5t94 -43.5q59 0 92 43.5t33 109.5h147zM1487 602h-1143q0 -45 2.5 -79.5t13 -80t29 -79t53 -68.5t82 -57t119.5 -36t162 -14q190 0 307.5 66t138.5 195h209q-20 -145 -111.5 -248
t-230.5 -153t-313 -50q-125 0 -228.5 25t-173 65t-122.5 98t-83 116.5t-48.5 128t-24.5 125t-6 114.5q0 385 178 574.5t508 189.5q164 0 288.5 -47t213.5 -146.5t134.5 -259.5t45.5 -379zM1251 776q-8 117 -33 199.5t-76 143t-134.5 89.5t-202.5 29q-118 0 -203.5 -29
t-139.5 -89t-82 -143.5t-36 -199.5h907z" />
    <glyph glyph-name="uni04D8" unicode="&#x4d8;" horiz-adv-x="1728" vert-adv-y="2867" 
d="M862 1872q164 0 300 -49.5t232.5 -137t163.5 -207.5t98.5 -260.5t31.5 -297.5t-31.5 -298t-98.5 -261.5t-163.5 -208.5t-232.5 -137.5t-300 -49.5q-253 0 -438 100.5t-282 281t-101 423.5v174h1448q-2 174 -39.5 309.5t-112.5 233.5t-194.5 149.5t-280.5 51.5
q-313 0 -468.5 -152t-155.5 -471h-197q0 371 217 589t604 218zM862 150q561 0 621 620h-1245q6 -314 161.5 -467t462.5 -153z" />
    <glyph glyph-name="uni04D9" unicode="&#x4d9;" vert-adv-y="2867" 
d="M119 836l1143 -5q1 45 -1.5 79.5t-13 80t-28.5 79t-52.5 68.5t-82 57.5t-119.5 37t-162 14.5q-191 0 -308.5 -65.5t-138.5 -194.5h-209q30 216 209.5 333.5t446.5 117.5q125 0 228.5 -25.5t173 -66t122.5 -98.5t83 -116.5t48 -128t23.5 -125t5.5 -114.5
q0 -385 -178 -574.5t-508 -187.5q-333 0 -507.5 201t-174.5 633zM354 659q8 -117 33.5 -199.5t76.5 -142.5t134.5 -89t202.5 -29q118 -1 203.5 28t139.5 88t82 142.5t36 199.5z" />
    <glyph glyph-name="uni04DA" unicode="&#x4da;" horiz-adv-x="1728" vert-adv-y="2867" 
d="M813 2157l-209 -209l-211 209l211 208zM1335 2157l-209 -209l-211 209l211 208zM862 1872q164 0 300 -49.5t232.5 -137t163.5 -207.5t98.5 -260.5t31.5 -297.5t-31.5 -298t-98.5 -261.5t-163.5 -208.5t-232.5 -137.5t-300 -49.5q-253 0 -438 100.5t-282 281t-101 423.5
v174h1448q-2 174 -39.5 309.5t-112.5 233.5t-194.5 149.5t-280.5 51.5q-313 0 -468.5 -152t-155.5 -471h-197q0 371 217 589t604 218zM862 150q561 0 621 620h-1245q6 -314 161.5 -467t462.5 -153z" />
    <glyph glyph-name="uni04DB" unicode="&#x4db;" vert-adv-y="2867" 
d="M502 1985l209 -209l-209 -209l-211 209zM1024 1985l209 -209l-209 -209l-211 209zM119 836l1143 -5q1 45 -1.5 79.5t-13 80t-28.5 79t-52.5 68.5t-82 57.5t-119.5 37t-162 14.5q-191 0 -308.5 -65.5t-138.5 -194.5h-209q30 216 209.5 333.5t446.5 117.5
q125 0 228.5 -25.5t173 -66t122.5 -98.5t83 -116.5t48 -128t23.5 -125t5.5 -114.5q0 -385 -178 -574.5t-508 -187.5q-333 0 -507.5 201t-174.5 633zM354 659q8 -117 33.5 -199.5t76.5 -142.5t134.5 -89t202.5 -29q118 -1 203.5 28t139.5 88t82 142.5t36 199.5z" />
    <glyph glyph-name="uni04DC" unicode="&#x4dc;" horiz-adv-x="2410" vert-adv-y="2867" 
d="M1155 2157l-209 -209l-211 209l211 208zM1677 2157l-209 -209l-211 209l211 208zM2288 1665h-400l-174 -741h574v-924h-185v750h-805v-750h-186v750h-805v-750h-184v924h573l-174 741h-399v176h229q139 0 245.5 -78t139.5 -209l160 -630h215v917h186v-917h215l160 630
q32 131 138.5 209t246.5 78h230v-176z" />
    <glyph glyph-name="uni04DD" unicode="&#x4dd;" horiz-adv-x="2318" vert-adv-y="2867" 
d="M920 1985l208 -209l-208 -209l-211 209zM1442 1985l209 -209l-209 -209l-211 209zM119 0v174h135l250 789l-74 297h-311v174h203q123 0 215.5 -69.5t126.5 -186.5l45 -154h368l-4 410h209v-410h369l45 154q34 117 126.5 186.5t215.5 69.5h203v-174h-312l-74 -297
l250 -789h136v-174h-150q-66 0 -116.5 38t-69.5 101l-205 711h-418v-850h-205v850h-418l-204 -711q-19 -63 -70 -101t-117 -38h-149z" />
    <glyph glyph-name="uni04DE" unicode="&#x4de;" horiz-adv-x="1800" vert-adv-y="2867" 
d="M850 2157l-209 -209l-211 209l211 208zM1372 2157l-209 -209l-211 209l211 208zM1677 1403l-1472 -1155v-51h1472v-400h-176v205h-1378v391l1472 1202v52h-1370v194h1452v-438z" />
    <glyph glyph-name="uni04DF" unicode="&#x4df;" horiz-adv-x="1415" vert-adv-y="2867" 
d="M678 1776l-209 -209l-211 209l211 209zM1200 1776l-209 -209l-211 209l211 209zM1128 174q77 0 143 -53t66 -121v-387h-168v387h-860q-101 0 -159 74q-28 37 -29.5 86t18 92.5t51.5 73.5l979 934h-925v174h884q105 0 162 -72q43 -61 28.5 -130.5t-71.5 -123.5l-979 -934
h860z" />
    <glyph glyph-name="uni04E0" unicode="&#x4e0;" horiz-adv-x="1462" vert-adv-y="2867" 
d="M123 502h174q0 -52 8.5 -95t22.5 -74.5t37.5 -56.5t46 -41.5t57 -28t62.5 -18t68.5 -9.5t69.5 -4t72 -1q75 0 134.5 10t115 36t93 69t59.5 112.5t22 161.5q0 73 -4.5 124t-18 100.5t-36 81.5t-61 61t-90.5 46t-127 29.5t-168 17.5t-216 5l469 641h-698v174h1055
l-494 -667q563 0 563 -613q0 -156 -42 -266.5t-123 -174.5t-187 -93t-246 -29q-78 0 -142 5.5t-129 20t-115.5 38.5t-95 62.5t-73.5 90.5t-46 124t-17 161z" />
    <glyph glyph-name="uni04E1" unicode="&#x4e1;" horiz-adv-x="1228" vert-adv-y="2867" 
d="M688 836q110 -5 193.5 -39t133 -84.5t80 -123.5t41.5 -144.5t11 -157.5q0 -340 -121 -498t-395 -158q-133 0 -234 36t-160.5 99.5t-88.5 142.5t-29 173h205q0 -125 71.5 -200t235.5 -75q177 0 244 105.5t67 374.5q0 52 -1 86.5t-5.5 75t-12.5 67t-21.5 56.5t-33.5 49
t-48 38.5t-65.5 31t-85.5 21.5t-108 15t-133 6l330 527h-537v174h844z" />
    <glyph glyph-name="uni04E2" unicode="&#x4e2;" horiz-adv-x="1413" vert-adv-y="2867" 
d="M471 2093h381v-145h-381v145zM1298 0h-184v1759h-76l-499 -1759h-416v1841h184v-1759h45l506 1759h440v-1841z" />
    <glyph glyph-name="uni04E3" unicode="&#x4e3;" horiz-adv-x="1368" vert-adv-y="2867" 
d="M834 1843v-145h-381v145h381zM1266 1434v-1434h-205v1266h-80l-449 -1266h-430v1434h205v-1266h80l449 1266h430z" />
    <glyph glyph-name="uni04E4" unicode="&#x4e4;" horiz-adv-x="1413" vert-adv-y="2867" 
d="M453 2365l209 -208l-209 -209l-211 209zM975 2365l209 -208l-209 -209l-211 209zM1298 0h-184v1759h-76l-499 -1759h-416v1841h184v-1759h45l506 1759h440v-1841z" />
    <glyph glyph-name="uni04E5" unicode="&#x4e5;" horiz-adv-x="1359" vert-adv-y="2867" 
d="M649 1776l-209 -209l-211 209l211 209zM1171 1776l-208 -209l-211 209l211 209zM1282 1434v-1434h-205v1266h-80l-448 -1266h-430v1434h205v-1266h79l449 1266h430z" />
    <glyph glyph-name="uni04E6" unicode="&#x4e6;" horiz-adv-x="1896" vert-adv-y="2867" 
d="M647 2365l209 -208l-209 -209l-211 209zM1169 2365l209 -208l-209 -209l-211 209zM887 -35q-164 0 -300 49.5t-232.5 137.5t-163.5 208.5t-98.5 261.5t-31.5 298t31.5 297.5t98.5 260.5t163.5 207.5t232.5 137t300 49.5t300 -49.5t232 -137t163 -207.5t98.5 -260.5
t31.5 -297.5t-31.5 -298t-98.5 -261.5t-163 -208.5t-232 -137.5t-300 -49.5zM260 920q0 -181 36 -320.5t110.5 -241.5t195.5 -155t285 -53q131 0 235 35t177 99.5t121 160t70.5 213.5t22.5 262q0 143 -22.5 260.5t-70.5 213t-121 160t-177 99.5t-235 35q-164 0 -285 -53
t-195.5 -154.5t-110.5 -241t-36 -319.5z" />
    <glyph glyph-name="uni04E7" unicode="&#x4e7;" horiz-adv-x="1660" vert-adv-y="2867" 
d="M571 1985l209 -209l-209 -209l-211 209zM1094 1985l209 -209l-209 -209l-211 209zM788 -20q-148 0 -282.5 58.5t-232 157t-155 235.5t-57.5 288q0 200 97.5 369t265 267.5t364.5 98.5q148 0 283 -58t233 -156.5t156 -235t58 -285.5q0 -151 -58 -288t-156 -235.5
t-233 -157t-283 -58.5zM788 174q164 0 282.5 73.5t175.5 195t57 276.5q0 114 -33.5 211.5t-97 171.5t-162 116t-222.5 42t-222.5 -42t-161 -116t-95.5 -171.5t-33 -211.5q0 -116 33 -214.5t95.5 -172.5t161 -116t222.5 -42z" />
    <glyph glyph-name="uni04E8" unicode="&#x4e8;" horiz-adv-x="1896" vert-adv-y="2867" 
d="M887 -35q-164 0 -300 49.5t-232.5 137.5t-163.5 208.5t-98.5 261.5t-31.5 298t31.5 297.5t98.5 260.5t163.5 207.5t232.5 137t300 49.5t300 -49.5t232 -137t163 -207.5t98.5 -260.5t31.5 -297.5t-31.5 -298t-98.5 -261.5t-163 -208.5t-232 -137.5t-300 -49.5zM260 920
q0 -181 36 -320.5t110.5 -241.5t195.5 -155t285 -53q131 0 235 35t177 99.5t121 160t70.5 213.5t22.5 262q0 143 -22.5 260.5t-70.5 213t-121 160t-177 99.5t-235 35q-164 0 -285 -53t-195.5 -154.5t-110.5 -241t-36 -319.5z" />
    <glyph glyph-name="uni04E9" unicode="&#x4e9;" horiz-adv-x="1660" vert-adv-y="2867" 
d="M829 1454q148 0 283 -58t233 -156.5t156 -235t58 -285.5q0 -151 -58 -288t-156 -235.5t-233 -157t-283 -58.5t-282.5 58.5t-232 157t-155 235.5t-57.5 288q0 200 97.5 369t265 267.5t364.5 98.5zM829 1260q-220 0 -350.5 -125t-154.5 -328h1013q-24 202 -155.5 327.5
t-352.5 125.5zM829 174q221 0 353.5 127t156.5 332h-1017q24 -205 155 -332t352 -127z" />
    <glyph glyph-name="uni04EA" unicode="&#x4ea;" horiz-adv-x="1896" vert-adv-y="2867" 
d="M647 2365l209 -208l-209 -209l-211 209zM1169 2365l209 -208l-209 -209l-211 209zM887 -35q-164 0 -300 49.5t-232.5 137.5t-163.5 208.5t-98.5 261.5t-31.5 298t31.5 297.5t98.5 260.5t163.5 207.5t232.5 137t300 49.5t300 -49.5t232 -137t163 -207.5t98.5 -260.5
t31.5 -297.5t-31.5 -298t-98.5 -261.5t-163 -208.5t-232 -137.5t-300 -49.5zM260 920q0 -181 36 -320.5t110.5 -241.5t195.5 -155t285 -53q131 0 235 35t177 99.5t121 160t70.5 213.5t22.5 262q0 143 -22.5 260.5t-70.5 213t-121 160t-177 99.5t-235 35q-164 0 -285 -53
t-195.5 -154.5t-110.5 -241t-36 -319.5z" />
    <glyph glyph-name="uni04EB" unicode="&#x4eb;" horiz-adv-x="1660" vert-adv-y="2867" 
d="M780 1776l-209 -209l-211 209l211 209zM1303 1776l-209 -209l-211 209l211 209zM829 1454q148 0 283 -58t233 -156.5t156 -235t58 -285.5q0 -151 -58 -288t-156 -235.5t-233 -157t-283 -58.5t-282.5 58.5t-232 157t-155 235.5t-57.5 288q0 200 97.5 369t265 267.5
t364.5 98.5zM829 1260q-220 0 -350.5 -125t-154.5 -328h1013q-24 202 -155.5 327.5t-352.5 125.5zM829 174q221 0 353.5 127t156.5 332h-1017q24 -205 155 -332t352 -127z" />
    <glyph glyph-name="uni04EC" unicode="&#x4ec;" horiz-adv-x="1892" vert-adv-y="2867" 
d="M895 2157l-209 -209l-211 209l211 208zM1417 2157l-209 -209l-211 209l211 208zM944 1872q164 0 300 -49.5t232 -137t163 -207.5t98.5 -260.5t31.5 -297.5t-31.5 -298t-98.5 -261.5t-163 -208.5t-232 -137.5t-300 -49.5q-389 0 -605 215.5t-216 591.5h196
q0 -323 155.5 -472.5t469.5 -149.5q588 0 625 681h-871v175h871q-37 682 -625 682q-313 0 -469 -152t-156 -471h-196q0 371 217 589t604 218z" />
    <glyph glyph-name="uni04ED" unicode="&#x4ed;" horiz-adv-x="1613" vert-adv-y="2867" 
d="M756 1776l-209 -209l-211 209l211 209zM1278 1776l-209 -209l-211 209l211 209zM805 1454q148 0 279.5 -58t224.5 -157t147.5 -234.5t54.5 -285.5q0 -152 -54.5 -288.5t-148 -235.5t-224.5 -157t-279 -58q-325 0 -514 157.5t-189 405.5l228 6q13 -79 30.5 -132.5
t50.5 -103t83 -78t127 -45t184 -16.5q200 0 327.5 124.5t151.5 332.5h-698v174h698q-24 206 -151.5 330.5t-327.5 124.5q-108 0 -184 -14.5t-126.5 -41t-83.5 -75t-50.5 -104t-30.5 -140.5l-228 6q0 248 189 405.5t514 157.5z" />
    <glyph glyph-name="uni04EE" unicode="&#x4ee;" horiz-adv-x="1650" vert-adv-y="2867" 
d="M635 2093h381v-145h-381v145zM307 0l527 883h-211l-541 958h215l500 -883h57l500 883h215l-1047 -1841h-215z" />
    <glyph glyph-name="uni04EF" unicode="&#x4ef;" horiz-adv-x="1277" vert-adv-y="2867" 
d="M428 1843h381v-145h-381v145zM61 1434h205l305 -1276h136l305 1276h205l-459 -1928q-43 -177 -105.5 -264.5t-173.5 -142.5l-84 196q122 59 158 211l117 494h-113q-67 0 -119 38.5t-67 100.5z" />
    <glyph glyph-name="uni04F0" unicode="&#x4f0;" horiz-adv-x="1650" vert-adv-y="2867" 
d="M565 2365l209 -208l-209 -209l-211 209zM1087 2365l209 -208l-209 -209l-210 209zM307 0l527 883h-211l-541 958h215l500 -883h57l500 883h215l-1047 -1841h-215z" />
    <glyph glyph-name="uni04F1" unicode="&#x4f1;" horiz-adv-x="1277" vert-adv-y="2867" 
d="M379 1985l209 -209l-209 -209l-211 209zM901 1985l209 -209l-209 -209l-211 209zM61 1434h205l305 -1276h136l305 1276h205l-459 -1928q-43 -177 -105.5 -264.5t-173.5 -142.5l-84 196q122 59 158 211l117 494h-113q-67 0 -119 38.5t-67 100.5z" />
    <glyph glyph-name="uni04F2" unicode="&#x4f2;" horiz-adv-x="1650" vert-adv-y="2867" 
d="M635 2034h-129l82 422h211zM983 2034h-129l82 422h211zM307 0l527 883h-211l-541 958h215l500 -883h57l500 883h215l-1047 -1841h-215z" />
    <glyph glyph-name="uni04F3" unicode="&#x4f3;" horiz-adv-x="1277" vert-adv-y="2867" 
d="M449 1563h-130l82 422h211zM797 1563h-129l82 422h211zM61 1434h205l305 -1276h136l305 1276h205l-459 -1928q-43 -177 -105.5 -264.5t-173.5 -142.5l-84 196q122 59 158 211l117 494h-113q-67 0 -119 38.5t-67 100.5z" />
    <glyph glyph-name="uni04F4" unicode="&#x4f4;" horiz-adv-x="1572" vert-adv-y="2867" 
d="M735 2157l-209 -209l-211 209l211 208zM1257 2157l-208 -209l-211 209l211 208zM1266 1841h184v-1841h-184v831h-426q-171 0 -299.5 27t-224 86t-144.5 158t-49 237v502h184v-502q0 -57 9.5 -103t30 -79.5t45.5 -58.5t64 -41.5t76.5 -26.5t92 -15.5t102 -7t113.5 -1.5
h426v835z" />
    <glyph glyph-name="uni04F5" unicode="&#x4f5;" horiz-adv-x="1277" vert-adv-y="2867" 
d="M606 1776l-209 -209l-211 209l211 209zM1128 1776l-208 -209l-211 209l211 209zM995 1432h205v-1434h-205v563h-450q-83 0 -155 26t-121.5 69t-85.5 98.5t-53 113t-17 113.5v451h204v-451q0 -46 17 -91.5t49 -84.5t85 -63.5t118 -24.5h409v715z" />
    <glyph glyph-name="uni04F6" unicode="&#x4f6;" horiz-adv-x="1343" vert-adv-y="2867" 
d="M1262 1669h-996v-1485h191v-387h-176v203h-199v1843h1180v-174z" />
    <glyph glyph-name="uni04F7" unicode="&#x4f7;" horiz-adv-x="1308" vert-adv-y="2867" 
d="M961 1434h270v-174h-270q-227 0 -340 -123.5t-113 -360.5v-571h100v-481h-205v276h-100v1260h-184v174h184q89 -1 147 -60.5t58 -148.5v-68q59 118 177.5 197.5t275.5 79.5z" />
    <glyph glyph-name="uni04F8" unicode="&#x4f8;" horiz-adv-x="1992" vert-adv-y="2867" 
d="M737 2365l209 -208l-209 -209l-211 209zM1260 2365l208 -208l-208 -209l-211 209zM123 1841h184v-831h426q171 0 299.5 -27t224 -86t144.5 -158t49 -237q0 -137 -49 -234.5t-144.5 -156t-224 -85t-299.5 -26.5h-610v1841zM1870 0v1841h-174v-1841h174zM307 836v-662h426
q77 0 130 2t114.5 9.5t102 21.5t81 38t63.5 58.5t37.5 84.5t14.5 114q0 65 -14.5 115.5t-37.5 85.5t-63 60t-81 39t-102 22t-115 10t-130 2h-426z" />
    <glyph glyph-name="uni04F9" unicode="&#x4f9;" horiz-adv-x="1996" vert-adv-y="2867" 
d="M760 1985l209 -209l-209 -209l-211 209zM1282 1985l209 -209l-209 -209l-211 209zM119 0v1434h205v-564h731q83 0 155 -26t121.5 -69t85.5 -98t53 -112.5t17 -113.5q0 -94 -29 -173.5t-88 -143.5t-159.5 -100t-233.5 -36q-108 0 -207.5 28t-172.5 72.5t-131 101.5
t-92.5 114.5t-49.5 111.5v-426h-205zM1714 1434h205v-1434h-205v1434zM344 715q36 -122 86.5 -215.5t109 -154.5t129.5 -100t145 -55t159 -16q86 0 147.5 21.5t96 60.5t50 87t15.5 108q0 63 -28 121.5t-91 100.5t-149 42h-670z" />
    <glyph glyph-name="uni04FC" unicode="&#x4fc;" horiz-adv-x="1701" vert-adv-y="2867" 
d="M1569 0q36 -69 46.5 -126.5t-2.5 -97.5t-41 -70t-70.5 -47.5t-90 -25.5t-100.5 -8h-58v176h246l-108 199h-37l-500 883h-57l-500 -883h-215l526 922l-526 919h215l500 -883h57l500 883h215l-527 -919z" />
    <glyph glyph-name="uni04FD" unicode="&#x4fd;" horiz-adv-x="1290" vert-adv-y="2867" 
d="M1194 0q18 -43 19 -92.5t-15.5 -95t-44.5 -82.5t-72 -59.5t-94 -22.5h-182v205h246l-62 147l-256 643h-143l-266 -643h-205l319 717l-299 717h205l246 -643h143l236 643h205l-289 -717z" />
    <glyph glyph-name="uni0510" unicode="&#x510;" horiz-adv-x="1804" vert-adv-y="2867" 
d="M954 831q-274 0 -407 -92t-133 -256q0 -78 45 -136t117 -88.5t146.5 -45t149.5 -14.5q94 0 166 5t127 19t94 30t65.5 45.5t42 58t23.5 76t10.5 90.5t2.5 110h196q0 -157 -37.5 -271t-121.5 -197t-225 -124t-343 -41q-71 0 -145.5 12.5t-150 37t-142 64.5t-118 91.5
t-81.5 121.5t-30 150q0 58 7 101t28.5 91.5t60 88t103.5 82t157 82.5q-48 24 -88.5 52t-69 56t-51.5 58t-37 58.5t-24.5 57.5t-14.5 54.5t-7.5 50.5t-2.5 45.5t0 37.5v5.5v4.5v5q0 84 36.5 156.5t97.5 123t139.5 86.5t163.5 53t169 17q187 0 319.5 -41t213 -123.5
t117.5 -197.5t37 -271h-197q0 52 -1.5 89t-5.5 77t-12 67t-21.5 56t-33 47t-46.5 36.5t-62.5 28.5t-81 18.5t-101.5 12t-125 3.5q-397 0 -397 -244q0 -99 22 -168t75.5 -120.5t148 -76t233.5 -24.5v-181z" />
    <glyph glyph-name="uni0511" unicode="&#x511;" horiz-adv-x="1435" vert-adv-y="2867" 
d="M784 739q-243 0 -362 -82t-119 -227q0 -69 40 -121t104.5 -79.5t131.5 -40.5t134 -13t121 3t98 10.5t78 16.5t60 25.5t44.5 32.5t31 41.5t20 49.5t12 60t5.5 68.5t1 79.5h174q0 -139 -33.5 -240.5t-107.5 -175.5t-199.5 -110.5t-304.5 -36.5q-76 0 -156 15.5t-159 49.5
t-140.5 82t-100 120t-38.5 157q0 52 6 90.5t24.5 81t53 77.5t92 72.5t139.5 73.5q-55 27 -98 60.5t-70 63.5t-46.5 68.5t-28.5 64t-13.5 63t-5 53t-0.5 45.5v5v4.5v4.5q0 75 32.5 139t87 109t125 77t146 47t150.5 15q165 0 282.5 -37t189 -110.5t104 -175.5t32.5 -240h-174
q0 59 -2 97.5t-9 81t-19.5 68t-34.5 52t-53.5 40.5t-76.5 26.5t-103.5 17t-135.5 4.5q-73 0 -132.5 -10t-111.5 -33.5t-81.5 -67.5t-29.5 -106q0 -87 20 -148.5t67.5 -107.5t131.5 -68t207 -22v-160z" />
    <glyph glyph-name="uni0512" unicode="&#x512;" horiz-adv-x="1419" vert-adv-y="2867" 
d="M1296 1841v-2335q0 -299 -217 -407l-84 196q53 26 85 81t32 130v2161h-518v-1104q0 -69 -4 -122.5t-17.5 -115t-36 -106t-63 -88t-95.5 -71t-135.5 -44t-181.5 -16.5v184h349v1657h886z" />
    <glyph glyph-name="uni0513" unicode="&#x513;" horiz-adv-x="1492" vert-adv-y="2867" 
d="M1391 1434v-1928q0 -289 -238 -407l-84 196q53 26 85 81t32 130v1754h-426l-322 -1121q-19 -63 -69.5 -101t-116.5 -38h-150v174h136l385 1260h768z" />
    <glyph glyph-name="uni051C" unicode="&#x51c;" horiz-adv-x="3137" vert-adv-y="2867" 
d="M82 1841h215l500 -1759h57l500 1759h430l500 -1759h57l500 1759h215l-529 -1841h-430l-506 1759h-45l-506 -1759h-430z" />
    <glyph glyph-name="uni051D" unicode="&#x51d;" horiz-adv-x="2494" vert-adv-y="2867" 
d="M2228 1434h205l-309 -1295q-15 -62 -67.5 -100.5t-119.5 -38.5h-163q-67 0 -119.5 38.5t-67.5 100.5l-14 62l-2 2l-256 1073h-135l-260 -1090h-2l-11 -47q-15 -62 -67 -100.5t-119 -38.5h-164q-67 0 -119 38.5t-67 100.5l-310 1295h205l305 -1276h136l266 1114l6 22
q15 62 67 101t119 39h164q67 0 119.5 -39t67.5 -101l22 -92l250 -1044h135z" />
    <glyph glyph-name="uni0524" unicode="&#x524;" horiz-adv-x="1851" vert-adv-y="2867" 
d="M1542 184h187v-387h-177v203h-190v1667h-1055v-1667h-184v1841h1419v-1657z" />
    <glyph glyph-name="uni0525" unicode="&#x525;" horiz-adv-x="1650" vert-adv-y="2867" 
d="M1343 174h205v-358h-245v184h-164v1260h-832v-1260h-205v1434h1241v-1260z" />
    <glyph glyph-name="uni0526" unicode="&#x526;" horiz-adv-x="1796" vert-adv-y="2867" 
d="M1450 184h223v-387h-176v203h-231v502q0 65 -13.5 115.5t-36 85.5t-61.5 60t-79 39t-100 22t-113.5 10t-129.5 2h-426v-836h-184v1841h184v-831h426q171 0 299.5 -27t224 -86t144.5 -158t49 -237v-318z" />
    <glyph glyph-name="uni0527" unicode="&#x527;" horiz-adv-x="1812" vert-adv-y="2867" 
d="M1532 205h203v-481h-267v276h-141v838q0 206 -100 314t-264 108q-106 0 -187.5 -24t-131.5 -63t-81.5 -95.5t-43 -114t-11.5 -125.5v-838h-205v1669h-184v174h180h4q89 -1 147 -60.5t58 -148.5v-477q94 277 453 277q275 0 423 -160.5t148 -435.5v-633z" />
    <glyph glyph-name="Wgrave" unicode="&#x1e80;" horiz-adv-x="3137" vert-adv-y="2867" 
d="M1522 1944l-164 421h211l82 -421h-129zM82 1841h215l500 -1759h57l500 1759h430l500 -1759h57l500 1759h215l-529 -1841h-430l-506 1759h-45l-506 -1759h-430z" />
    <glyph glyph-name="wgrave" unicode="&#x1e81;" horiz-adv-x="2494" vert-adv-y="2867" 
d="M1350 1563h-129l-164 422h211zM2228 1434h205l-309 -1295q-15 -62 -67.5 -100.5t-119.5 -38.5h-163q-67 0 -119.5 38.5t-67.5 100.5l-14 62l-2 2l-256 1073h-135l-260 -1090h-2l-11 -47q-15 -62 -67 -100.5t-119 -38.5h-164q-67 0 -119 38.5t-67 100.5l-310 1295h205
l305 -1276h136l266 1114l6 22q15 62 67 101t119 39h164q67 0 119.5 -39t67.5 -101l22 -92l250 -1044h135z" />
    <glyph glyph-name="Wacute" unicode="&#x1e82;" horiz-adv-x="3137" vert-adv-y="2867" 
d="M1651 1946h-129l82 421h211zM82 1841h215l500 -1759h57l500 1759h430l500 -1759h57l500 1759h215l-529 -1841h-430l-506 1759h-45l-506 -1759h-430z" />
    <glyph glyph-name="wacute" unicode="&#x1e83;" horiz-adv-x="2494" vert-adv-y="2867" 
d="M1436 1985l-164 -422h-129l82 422h211zM2228 1434h205l-309 -1295q-15 -62 -67.5 -100.5t-119.5 -38.5h-163q-67 0 -119.5 38.5t-67.5 100.5l-14 62l-2 2l-256 1073h-135l-260 -1090h-2l-11 -47q-15 -62 -67 -100.5t-119 -38.5h-164q-67 0 -119 38.5t-67 100.5l-310 1295
h205l305 -1276h136l266 1114l6 22q15 62 67 101t119 39h164q67 0 119.5 -39t67.5 -101l22 -92l250 -1044h135z" />
    <glyph glyph-name="Wdieresis" unicode="&#x1e84;" horiz-adv-x="3137" vert-adv-y="2867" 
d="M1309 2365l209 -208l-209 -209l-211 209zM1831 2365l209 -208l-209 -209l-211 209zM82 1841h215l500 -1759h57l500 1759h430l500 -1759h57l500 1759h215l-529 -1841h-430l-506 1759h-45l-506 -1759h-430z" />
    <glyph glyph-name="wdieresis" unicode="&#x1e85;" horiz-adv-x="2494" vert-adv-y="2867" 
d="M1196 1776l-209 -209l-211 209l211 209zM1718 1776l-209 -209l-211 209l211 209zM2228 1434h205l-309 -1295q-15 -62 -67.5 -100.5t-119.5 -38.5h-163q-67 0 -119.5 38.5t-67.5 100.5l-14 62l-2 2l-256 1073h-135l-260 -1090h-2l-11 -47q-15 -62 -67 -100.5t-119 -38.5
h-164q-67 0 -119 38.5t-67 100.5l-310 1295h205l305 -1276h136l266 1114l6 22q15 62 67 101t119 39h164q67 0 119.5 -39t67.5 -101l22 -92l250 -1044h135z" />
    <glyph glyph-name="uni1E9E" unicode="&#x1e9e;" horiz-adv-x="1560" vert-adv-y="2867" 
d="M123 0v1608q0 114 60.5 174.5t174.5 60.5l564 -2q74 0 135 -24t94.5 -65.5t43.5 -90.5t-14.5 -105t-82.5 -104l-443 -371q164 -51 276.5 -94t215 -96.5t162.5 -110t94.5 -130t34.5 -161.5q0 -61 -8.5 -110.5t-34.5 -104t-69.5 -95.5t-118 -80t-175 -64t-245 -40
t-324.5 -15v174q167 0 289.5 8t209.5 26.5t141.5 43.5t85.5 65t42.5 84.5t11.5 107.5q0 64 -37 121t-127 120.5t-253 132t-404 143.5v102l547 461q40 37 24 62.5t-63 25.5h-623v-1657h-184z" />
    <glyph glyph-name="Ygrave" unicode="&#x1ef2;" horiz-adv-x="1650" vert-adv-y="2867" 
d="M924 1944h-129l-164 421h211zM1354 1841h215l-527 -958h-124v-883h-185v883h-125l-526 958h215l500 -883h57z" />
    <glyph glyph-name="ygrave" unicode="&#x1ef3;" horiz-adv-x="1277" vert-adv-y="2867" 
d="M657 1563l-163 422h211l81 -422h-129zM61 1434h205l305 -1276h136l305 1276h205l-459 -1928q-43 -177 -105.5 -264.5t-173.5 -142.5l-84 196q122 59 158 211l117 494h-113q-67 0 -119 38.5t-67 100.5z" />
    <glyph glyph-name="uni1EF9" unicode="&#x1ef9;" horiz-adv-x="1277" vert-adv-y="2867" 
d="M254 1669q0 46 17.5 94.5t45.5 75.5q38 36 91.5 43t98 -3.5t105.5 -33.5l82 -30q52 -20 82.5 -28.5t64.5 -5.5t56 25q15 15 25 46t10 57h92q0 -48 -17.5 -106.5t-45.5 -84.5q-38 -36 -91.5 -43t-98 3.5t-105.5 33.5l-82 31q-51 20 -82 28t-65 5t-56 -25q-35 -35 -35 -82
h-92zM61 1434h205l305 -1276h136l305 1276h205l-459 -1928q-43 -177 -105.5 -264.5t-173.5 -142.5l-84 196q122 59 158 211l117 494h-113q-67 0 -119 38.5t-67 100.5z" />
    <glyph glyph-name="endash" unicode="&#x2013;" horiz-adv-x="1228" vert-adv-y="2867" 
d="M102 811h1024v-174h-1024v174z" />
    <glyph glyph-name="emdash" unicode="&#x2014;" horiz-adv-x="2252" vert-adv-y="2867" 
d="M2150 811v-174h-2048v174h2048z" />
    <glyph glyph-name="quoteleft" unicode="&#x2018;" horiz-adv-x="497" vert-adv-y="2867" 
d="M266 1434h129l-82 -422h-211z" />
    <glyph glyph-name="quotesinglbase" unicode="&#x201a;" horiz-adv-x="501" vert-adv-y="2867" 
d="M313 174h209l-209 -778h-211z" />
    <glyph glyph-name="quotedblleft" unicode="&#x201c;" horiz-adv-x="845" vert-adv-y="2867" 
d="M231 1012h-129l82 422h211zM580 1012h-129l81 422h211z" />
    <glyph glyph-name="quotedblright" unicode="&#x201d;" horiz-adv-x="845" vert-adv-y="2867" 
d="M266 1012l-164 422h211l82 -422h-129zM614 1012l-163 422h211l81 -422h-129z" />
    <glyph glyph-name="quotedblbase" unicode="&#x201e;" horiz-adv-x="501" vert-adv-y="2867" 
d="M313 174h209l-209 -778h-211z" />
    <glyph glyph-name="dagger" unicode="&#x2020;" horiz-adv-x="1288" vert-adv-y="2867" 
d="M1083 1636v-204h-338v-1432h-204v1432h-336v204h336v207h204v-207h338z" />
    <glyph glyph-name="daggerdbl" unicode="&#x2021;" horiz-adv-x="1288" vert-adv-y="2867" 
d="M1083 1434h-338v-103h338v-205h-338v-1124h-204v1124h-336v205h336v103h-336v204h336v207h204v-207h338v-204z" />
    <glyph glyph-name="bullet" unicode="&#x2022;" horiz-adv-x="1169" vert-adv-y="2867" 
d="M586 305l-340 336l340 336l338 -336z" />
    <glyph glyph-name="ellipsis" unicode="&#x2026;" horiz-adv-x="501" vert-adv-y="2867" 
d="M252 418l209 -209l-209 -209l-211 209z" />
    <glyph glyph-name="perthousand" unicode="&#x2030;" horiz-adv-x="3084" vert-adv-y="2867" 
d="M1036 1305q0 -171 -122 -293.5t-293 -122.5q-172 0 -294 122t-122 294t122 293.5t294 121.5q171 0 293 -122t122 -293zM1305 1720h211l-719 -1802h-211zM356 1305q0 -109 78 -187t187 -78t186.5 78t77.5 187t-77.5 186.5t-186.5 77.5t-187 -77.5t-78 -186.5zM1479 750
q112 0 207.5 -56t151.5 -152t56 -208t-56 -208t-151.5 -152t-207.5 -56q-172 0 -294 122t-122 294t122 294t294 122zM2464 750q170 0 292.5 -122t122.5 -294t-122.5 -294t-292.5 -122q-172 0 -294 122t-122 294t122 294t294 122zM1479 70q109 0 186.5 77.5t77.5 186.5
q0 111 -78 187.5t-186 76.5q-109 0 -187 -77.5t-78 -186.5t78 -186.5t187 -77.5zM2464 70q109 0 186.5 77.5t77.5 186.5q0 111 -78 187.5t-186 76.5q-109 0 -186.5 -77.5t-77.5 -186.5t77.5 -186.5t186.5 -77.5z" />
    <glyph glyph-name="fraction" unicode="&#x2044;" horiz-adv-x="1583" vert-adv-y="2867" 
d="M293 0h-252l1249 1434h252z" />
    <glyph glyph-name="uni207F" unicode="&#x207f;" horiz-adv-x="1609" vert-adv-y="2867" 
d="M961 1434q275 0 423 -160.5t148 -435.5v-838h-205v838q0 206 -100 314t-264 108q-100 0 -179.5 -24t-130.5 -63.5t-84.5 -95t-47 -114.5t-13.5 -125v-838h-205v1260h-184v174h180h4q89 -1 147 -60.5t58 -148.5v-68q94 277 453 277z" />
    <glyph glyph-name="Euro" unicode="&#x20ac;" horiz-adv-x="2056" vert-adv-y="2867" 
d="M1030 150q314 0 466.5 149t152.5 473h202q0 -376 -216 -591.5t-605 -215.5q-164 0 -300 49.5t-232 137.5t-163 208.5t-98.5 261.5t-31.5 298t31.5 297.5t98.5 260.5t163 207.5t232 137t300 49.5q387 0 604 -218t217 -589h-202q0 320 -153.5 471.5t-465.5 151.5
q-522 0 -604 -545h727v-164h-743v-59q0 -44 2 -64h741v-164h-727q82 -542 604 -542z" />
    <glyph glyph-name="trademark" unicode="&#x2122;" horiz-adv-x="917" vert-adv-y="2867" 
d="M203 1436v366h-121v39h285v-39h-121v-366h-43zM410 1436v405h96l112 -387h11l110 387h97v-405h-39v387h-19l-108 -387h-92l-111 387h-16v-387h-41z" />
    <glyph glyph-name="arrowleft" unicode="&#x2190;" horiz-adv-x="1880" vert-adv-y="2867" 
d="M1673 831v-204l-1151 2l373 -371l-143 -143l-547 542l2 144l543 542l143 -143l-373 -373z" />
    <glyph glyph-name="arrowup" unicode="&#x2191;" horiz-adv-x="1638" vert-adv-y="2867" 
d="M1434 926l-144 -144l-368 371v-1153h-205v1153l-369 -371l-143 144l543 544h143z" />
    <glyph glyph-name="arrowright" unicode="&#x2192;" horiz-adv-x="1878" vert-adv-y="2867" 
d="M1128 1339l545 -542v-144l-545 -542l-143 143l373 371l-1153 -2v204l1153 -2l-373 371z" />
    <glyph glyph-name="arrowdown" unicode="&#x2193;" horiz-adv-x="1638" vert-adv-y="2867" 
d="M1290 676l144 -144l-543 -546l-143 2l-543 542l143 144l373 -373l-4 1153h205l-2 -1151z" />
    <glyph glyph-name="arrowboth" unicode="&#x2194;" horiz-adv-x="3350" vert-adv-y="2867" 
d="M2603 1343l543 -542v-144l-545 -542l-143 143l372 371h-2308l373 -371l-143 -143l-545 542v144l543 542l143 -143l-373 -373h2312l-372 373z" />
    <glyph glyph-name="arrowupdn" unicode="&#x2195;" horiz-adv-x="1638" vert-adv-y="2867" 
d="M922 -707l368 371l144 -143l-543 -545h-143l-543 545l143 143l369 -371v2233l-369 -371l-143 143l543 545h143l543 -545l-144 -143l-368 371v-2233z" />
    <glyph glyph-name="uni2196" unicode="&#x2196;" horiz-adv-x="1570" vert-adv-y="2867" 
d="M1366 283l-143 -146l-815 817l2 -526h-203l-2 770l102 100h768v-202h-526z" />
    <glyph glyph-name="uni2197" unicode="&#x2197;" horiz-adv-x="1572" vert-adv-y="2867" 
d="M1266 1307l102 -103l-2 -768h-203l2 525l-815 -818l-145 146l817 815l-524 -2v203z" />
    <glyph glyph-name="uni2198" unicode="&#x2198;" horiz-adv-x="1570" vert-adv-y="2867" 
d="M1364 1026l2 -770l-102 -100h-768v202h526l-817 813l143 146l815 -817l-2 526h203z" />
    <glyph glyph-name="uni2199" unicode="&#x2199;" horiz-adv-x="1570" vert-adv-y="2867" 
d="M1366 1165l-817 -815l526 2v-202l-770 -3l-100 103v768h203v-526l813 817z" />
    <glyph glyph-name="partialdiff" unicode="&#x2202;" horiz-adv-x="1429" vert-adv-y="2867" 
d="M82 532q0 76 19 142.5t64 127t114.5 104t177.5 69t245 26.5l441 3q0 194 -379 348q-56 23 -93.5 39t-97 45.5t-100.5 56t-90.5 66t-82 80t-59 93.5t-36.5 111h221q15 -62 54 -116.5t94 -94.5t112.5 -68t120.5 -48q541 -173 541 -633q0 -142 -21.5 -262.5t-59 -210
t-91.5 -160.5t-115.5 -117.5t-133.5 -77.5t-144.5 -44t-149.5 -13q-107 0 -198 30.5t-155 82t-109.5 120t-67 145t-21.5 156.5zM287 532q0 -66 22 -128.5t64 -114.5t110.5 -83.5t153.5 -31.5q105 0 195 39.5t160.5 117.5t110.5 208.5t40 300.5l-400 6q-237 4 -346.5 -82
t-109.5 -232z" />
    <glyph glyph-name="emptyset" unicode="&#x2205;" horiz-adv-x="1726" vert-adv-y="2867" 
d="M1268 1309q145 -98 230 -255t85 -339q0 -146 -57 -279.5t-153.5 -230t-230 -154t-278.5 -57.5q-122 0 -237 41l-17 -35h-211l60 119q-146 100 -231 257t-85 339q0 145 57.5 278.5t154 230t230 153.5t279.5 57q119 0 234 -39l20 39h211zM295 715q0 -138 62.5 -258.5
t170.5 -200.5l502 1001q-83 25 -166 25q-154 0 -285 -76.5t-207.5 -207t-76.5 -283.5zM864 145q115 0 220 45.5t181 122t121.5 182t45.5 220.5q0 137 -63 257.5t-171 198.5l-502 -1001q83 -25 168 -25z" />
    <glyph glyph-name="product" unicode="&#x220f;" horiz-adv-x="1689" vert-adv-y="2867" 
d="M1546 1638v-174h-266v-1464h-174v1464h-522v-1464h-174v1464h-267v174h1403z" />
    <glyph glyph-name="summation" unicode="&#x2211;" horiz-adv-x="1648" vert-adv-y="2867" 
d="M1546 1638v-174h-1036l565 -645l-565 -645h1036v-174h-1403l9 6l712 813l-712 813l-9 6h1403z" />
    <glyph glyph-name="minus" unicode="&#x2212;" horiz-adv-x="1603" vert-adv-y="2867" 
d="M803 1434l209 -209l-209 -209l-211 209zM1501 803v-205h-1399v205h1399zM803 418l209 -209l-209 -209l-211 209z" />
    <glyph glyph-name="radical" unicode="&#x221a;" horiz-adv-x="1968" vert-adv-y="2867" 
d="M2077 2273h198v-157h-329l-539 -1876q-34 -121 -126 -180.5t-228 -59.5h-357l-491 1434h194l439 -1276h346l538 1876q34 121 126 180t229 59z" />
    </font>
</defs>
</svg>
