<svg width="11" height="11" viewBox="0 0 11 11" fill="none" xmlns="http://www.w3.org/2000/svg">
<path d="M10.4897 3.58703C10.4651 3.02912 10.3749 2.64557 10.2457 2.31321C10.1123 1.96043 9.90721 1.64458 9.63847 1.38201C9.37591 1.11535 9.05797 0.908153 8.70927 0.77691C8.37499 0.647669 7.99344 0.557449 7.43554 0.532851C6.87346 0.50617 6.69503 0.5 5.26946 0.5C3.84389 0.5 3.66545 0.50617 3.10546 0.530768C2.54755 0.555366 2.164 0.645666 1.83172 0.774826C1.47886 0.908153 1.16301 1.11327 0.900441 1.38201C0.633787 1.64458 0.426666 1.96251 0.295342 2.31121C0.166102 2.64557 0.0758817 3.02704 0.0512836 3.58495C0.0246022 4.14702 0.0184326 4.32545 0.0184326 5.75103C0.0184326 7.1766 0.0246022 7.35503 0.0492003 7.91502C0.0737985 8.47293 0.164099 8.85648 0.293339 9.18884C0.426666 9.54163 0.633787 9.85748 0.900441 10.12C1.16301 10.3867 1.48094 10.5939 1.82964 10.7251C2.164 10.8544 2.54547 10.9446 3.10346 10.9692C3.66337 10.9939 3.84188 11 5.26745 11C6.69302 11 6.87146 10.9939 7.43145 10.9692C7.98935 10.9446 8.37291 10.8544 8.70518 10.7251C9.41084 10.4523 9.96874 9.89441 10.2416 9.18884C10.3707 8.85448 10.461 8.47293 10.4856 7.91502C10.5102 7.35503 10.5164 7.1766 10.5164 5.75103C10.5164 4.32545 10.5143 4.14702 10.4897 3.58703ZM9.54417 7.874C9.52157 8.38679 9.43544 8.6637 9.36365 8.84831C9.18721 9.30574 8.82417 9.66878 8.36674 9.84522C8.18213 9.91701 7.90322 10.0031 7.39243 10.0257C6.83861 10.0503 6.67251 10.0564 5.27154 10.0564C3.87057 10.0564 3.70239 10.0503 3.15057 10.0257C2.63777 10.0031 2.36087 9.91701 2.17626 9.84522C1.94863 9.76109 1.74142 9.62776 1.57324 9.45341C1.39889 9.28314 1.26557 9.07803 1.18144 8.85039C1.10965 8.66579 1.02351 8.38679 1.001 7.87608C0.976318 7.32226 0.970229 7.15609 0.970229 5.75511C0.970229 4.35414 0.976318 4.18596 1.001 3.63422C1.02351 3.12143 1.10965 2.84452 1.18144 2.65991C1.26557 2.4322 1.39889 2.22508 1.57533 2.05682C1.74551 1.88246 1.95063 1.74914 2.17834 1.66509C2.36295 1.5933 2.64194 1.50716 3.15265 1.48457C3.70647 1.45997 3.87265 1.4538 5.27354 1.4538C6.6766 1.4538 6.8427 1.45997 7.39451 1.48457C7.90731 1.50716 8.18422 1.5933 8.36882 1.66509C8.59646 1.74914 8.80366 1.88246 8.97184 2.05682C9.14619 2.22708 9.27952 2.4322 9.36365 2.65991C9.43544 2.84452 9.52157 3.12343 9.54417 3.63422C9.56876 4.18804 9.57493 4.35414 9.57493 5.75511C9.57493 7.15609 9.56876 7.32018 9.54417 7.874Z" fill="white"/>
<path d="M5.26945 3.05372C3.78034 3.05372 2.57215 4.26184 2.57215 5.75103C2.57215 7.24022 3.78034 8.44833 5.26945 8.44833C6.75864 8.44833 7.96676 7.24022 7.96676 5.75103C7.96676 4.26184 6.75864 3.05372 5.26945 3.05372ZM5.26945 7.5007C4.3034 7.5007 3.51978 6.71717 3.51978 5.75103C3.51978 4.78489 4.3034 4.00135 5.26945 4.00135C6.23559 4.00135 7.01913 4.78489 7.01913 5.75103C7.01913 6.71717 6.23559 7.5007 5.26945 7.5007Z" fill="white"/>
<path d="M8.7032 2.94705C8.7032 3.29479 8.42125 3.57675 8.07343 3.57675C7.72569 3.57675 7.44373 3.29479 7.44373 2.94705C7.44373 2.59923 7.72569 2.31736 8.07343 2.31736C8.42125 2.31736 8.7032 2.59923 8.7032 2.94705Z" fill="white"/>
</svg>
