<svg width="12" height="7" viewBox="0 0 12 7" fill="none" xmlns="http://www.w3.org/2000/svg">
<path d="M9.85687 4.2856C10.2323 4.64967 10.6305 5.00237 10.9718 5.40057C11.1197 5.58261 11.2563 5.76464 11.37 5.96943C11.5179 6.26524 11.3814 6.59518 11.1197 6.60656H9.47005C9.04909 6.64069 8.70777 6.47003 8.42334 6.17423C8.1958 5.94668 7.97963 5.69638 7.76346 5.45746C7.67244 5.35506 7.58142 5.26405 7.46765 5.19578C7.24011 5.04788 7.04669 5.09339 6.92154 5.33231C6.78502 5.57123 6.76226 5.83291 6.75088 6.10596C6.72813 6.49279 6.61436 6.59518 6.22753 6.61794C5.39699 6.65207 4.60058 6.52692 3.86106 6.10596C3.21256 5.73051 2.71196 5.20716 2.26825 4.61554C1.41496 3.46644 0.766454 2.19219 0.174837 0.883807C0.0383101 0.587998 0.140705 0.428717 0.459268 0.428717C0.993999 0.41734 1.54011 0.41734 2.07484 0.428717C2.291 0.428717 2.43891 0.553866 2.51855 0.758657C2.81436 1.47542 3.16705 2.15806 3.61076 2.78381C3.72454 2.95446 3.84969 3.12512 4.02035 3.2389C4.21376 3.37542 4.36166 3.32991 4.45268 3.11375C4.50957 2.97722 4.53232 2.82932 4.5437 2.69279C4.58921 2.19219 4.58921 1.69159 4.52094 1.20237C4.47544 0.895183 4.30478 0.690393 3.98621 0.633507C3.82693 0.599375 3.84969 0.542489 3.92933 0.451471C4.06586 0.292189 4.191 0.201172 4.42993 0.201172H6.29579C6.5916 0.258058 6.65987 0.394585 6.694 0.690393V2.76105C6.694 2.87482 6.75088 3.21614 6.95567 3.29578C7.11496 3.35267 7.22873 3.21614 7.33112 3.11375C7.77484 2.6359 8.0934 2.07842 8.37783 1.49818C8.50298 1.24788 8.61675 0.974825 8.71915 0.713148C8.79879 0.519735 8.92394 0.41734 9.14011 0.428717H10.9377C10.9946 0.428717 11.0401 0.428717 11.097 0.440094C11.4042 0.49698 11.4838 0.622129 11.3928 0.917938C11.2449 1.3844 10.9605 1.77123 10.676 2.15806C10.3802 2.56764 10.0617 2.97722 9.75448 3.3868C9.4928 3.76225 9.51555 3.95566 9.85687 4.2856Z" fill="white"/>
</svg>
