<svg width="125" height="46" viewBox="0 0 125 46" fill="none" xmlns="http://www.w3.org/2000/svg">
<path fill-rule="evenodd" clip-rule="evenodd" d="M2.75424 10.2401V3.10731H7.34463C10.8051 3.10731 13.065 3.3898 13.065 6.63839C13.065 9.9576 10.8051 10.2401 7.34463 10.2401H2.75424ZM0 22.8107H2.75424V12.7825H7.34463C12.6412 12.7825 15.9605 11.1582 15.9605 6.63839C15.9605 2.18923 12.6412 0.564941 7.34463 0.564941H0V22.8107Z" fill="white"/>
<path fill-rule="evenodd" clip-rule="evenodd" d="M38.7712 20.4097V5.50854H35.8757V14.9012C35.8757 17.8673 34.5339 20.3391 30.3673 20.3391C27.8249 20.3391 26.4124 18.7148 26.4124 15.5368V5.50854H23.517V15.6074C23.517 19.9153 25.9181 22.8108 30.3673 22.8108C33.5452 22.8108 35.1695 21.3984 35.8051 19.4916V20.3391C35.8051 21.8221 36.8644 22.8814 38.3475 22.8814H40.9605V20.4803H38.7712V20.4097Z" fill="white"/>
<path fill-rule="evenodd" clip-rule="evenodd" d="M53.1073 14.3361C53.1073 10.5932 55.6497 7.83895 59.322 7.83895C63.2062 7.83895 65.3955 10.5226 65.3955 14.3361C65.3955 18.0791 63.2768 20.9039 59.322 20.9039C55.6497 20.9039 53.1073 17.9378 53.1073 14.3361ZM48.0226 3.10731H50.2118V22.7401H53.1073V18.1497C54.0254 21.7514 56.3559 23.2344 59.5339 23.2344C64.3361 23.2344 68.2909 19.2796 68.2909 14.3361C68.2909 9.46325 64.3361 5.50844 59.5339 5.50844C56.3559 5.50844 54.0254 6.99149 53.1073 10.5932V3.10731C53.1073 1.62426 52.048 0.564941 50.565 0.564941H48.0226V3.10731Z" fill="white"/>
<path fill-rule="evenodd" clip-rule="evenodd" d="M75 22.8107H82.4153V20.4096H80.226V2.54237C80.226 1.05932 78.8842 0 77.4718 0H75.0706V2.40113H77.2599V20.4096H75.0706V22.8107H75Z" fill="white"/>
<path fill-rule="evenodd" clip-rule="evenodd" d="M97.5988 20.4095V8.05077C97.5988 6.56772 96.5395 5.50839 95.0565 5.50839H90.1836V7.90952H94.774V20.4095H90.2542V22.8107H102.119V20.4095H97.5988ZM98.2344 1.41235L97.1751 0.353027H94.2796L93.1497 1.41235L95.6921 3.95472L98.2344 1.41235Z" fill="white"/>
<path fill-rule="evenodd" clip-rule="evenodd" d="M107.98 14.1244C107.98 19.0679 111.653 23.0227 116.525 23.0227C121.822 23.0227 124.929 19.986 125 16.1018L121.893 16.0312C121.398 18.856 120.268 20.2684 116.525 20.2684C113.065 20.2684 111.017 17.6555 111.017 14.1244C111.017 10.6639 113.065 7.98031 116.525 7.98031C120.268 7.98031 121.469 9.18088 121.893 12.2176L125 12.147C124.929 8.2628 121.893 5.22607 116.525 5.22607C111.653 5.22607 107.98 9.2515 107.98 14.1244Z" fill="white"/>
<path d="M110.381 40.6779C110.381 40.8191 110.311 40.9604 110.24 41.1016C110.169 41.2429 110.028 41.3135 109.887 41.3135C109.675 41.3135 109.534 41.2429 109.463 41.1722C109.393 41.1016 109.322 40.9604 109.322 40.8898C109.322 40.8191 109.322 40.7485 109.322 40.6779C109.322 40.6073 109.322 40.5366 109.322 40.5366C109.181 40.5366 108.969 40.6073 108.828 40.7485C108.616 40.8898 108.475 41.031 108.333 41.2429V44.0677C108.333 44.209 108.333 44.2796 108.404 44.3502C108.475 44.4208 108.545 44.4914 108.616 44.4914C108.686 44.4914 108.828 44.5621 108.898 44.5621C109.039 44.5621 109.11 44.5621 109.251 44.5621V44.9152H106.709V44.5621C106.78 44.5621 106.85 44.5621 106.921 44.5621C106.991 44.5621 107.062 44.5621 107.133 44.4914C107.203 44.4914 107.274 44.4208 107.345 44.3502C107.415 44.2796 107.415 44.209 107.415 44.0677V41.1016C107.415 41.031 107.415 40.8898 107.345 40.8191C107.274 40.7485 107.203 40.6779 107.133 40.6073C107.062 40.5366 106.991 40.5366 106.921 40.5366C106.85 40.5366 106.78 40.5366 106.638 40.466V40.1129L108.263 39.9717L108.333 40.0423V40.6779C108.545 40.3954 108.757 40.1835 108.969 40.1129C109.181 39.9717 109.463 39.9011 109.675 39.9011C109.887 39.9011 110.028 39.9717 110.169 40.1129C110.311 40.2542 110.381 40.466 110.381 40.6779ZM103.037 42.2316C102.754 42.3022 102.542 42.3728 102.33 42.4434C102.119 42.514 101.907 42.5847 101.765 42.7259C101.624 42.8672 101.483 42.9378 101.412 43.1496C101.342 43.2909 101.271 43.5027 101.271 43.7146C101.271 43.9971 101.342 44.209 101.483 44.2796C101.624 44.4208 101.836 44.4914 102.048 44.4914C102.26 44.4914 102.472 44.4208 102.684 44.3502C102.825 44.209 103.037 44.1383 103.107 43.9265L103.037 42.2316ZM104.732 44.7739C104.59 44.8446 104.449 44.8446 104.308 44.9152C104.167 44.9152 104.096 44.9858 103.884 44.9858C103.602 44.9858 103.46 44.9152 103.249 44.7739C103.107 44.6327 102.966 44.4914 102.966 44.2796C102.754 44.4914 102.542 44.7033 102.26 44.8446C102.048 44.9858 101.695 45.0564 101.412 45.0564C101.059 45.0564 100.777 44.9152 100.565 44.7033C100.353 44.4914 100.212 44.209 100.212 43.8559C100.212 43.644 100.212 43.5027 100.282 43.3615C100.353 43.2203 100.424 43.079 100.494 42.9378C100.565 42.8672 100.706 42.7259 100.847 42.6553C100.989 42.5847 101.13 42.514 101.201 42.4434C101.342 42.3728 101.624 42.3022 102.119 42.1609C102.542 42.0197 102.895 41.8785 103.037 41.8078V41.3135C103.037 41.2429 103.037 41.1722 103.037 41.1016C103.037 40.9604 102.966 40.8898 102.895 40.7485C102.825 40.6073 102.754 40.5366 102.613 40.466C102.472 40.3954 102.33 40.3248 102.119 40.3248C101.977 40.3248 101.836 40.3248 101.695 40.3954C101.554 40.466 101.483 40.466 101.412 40.5366C101.412 40.6073 101.412 40.6779 101.483 40.8191C101.483 40.9604 101.554 41.031 101.554 41.1722C101.554 41.3135 101.483 41.3841 101.412 41.4547C101.342 41.5253 101.201 41.596 100.989 41.596C100.847 41.596 100.706 41.5253 100.636 41.4547C100.565 41.3135 100.494 41.2429 100.494 41.1016C100.494 40.9604 100.565 40.8191 100.636 40.6779C100.706 40.5366 100.847 40.3954 101.059 40.3248C101.201 40.2542 101.412 40.1835 101.624 40.1129C101.836 40.0423 102.048 40.0423 102.26 40.0423C102.542 40.0423 102.754 40.0423 102.966 40.1129C103.178 40.1835 103.319 40.2542 103.531 40.3248C103.672 40.466 103.814 40.6073 103.884 40.8191C103.955 41.031 104.025 41.3135 104.025 41.596C104.025 42.0903 104.025 42.4434 104.025 42.7965C104.025 43.1496 104.025 43.5734 104.025 43.9971C104.025 44.1383 104.025 44.209 104.096 44.2796C104.167 44.3502 104.237 44.4208 104.308 44.4914C104.378 44.4914 104.449 44.5621 104.52 44.5621C104.59 44.5621 104.732 44.5621 104.873 44.5621V44.7739H104.732ZM96.6101 42.7965C96.6101 42.3728 96.4689 42.0903 96.1864 41.8078C95.9039 41.5253 95.5508 41.3841 94.9858 41.3841C94.774 41.3841 94.6327 41.3841 94.4915 41.3841C94.3502 41.3841 94.209 41.3841 94.1384 41.3841V43.7852C94.1384 43.9971 94.209 44.1383 94.3502 44.2796C94.4915 44.3502 94.774 44.4208 95.0564 44.4208C95.5508 44.4208 95.9039 44.2796 96.1864 43.9971C96.4689 43.7852 96.6101 43.3615 96.6101 42.7965ZM95.9745 40.6073C96.1158 40.466 96.1864 40.3248 96.257 40.1835C96.3276 40.0423 96.3276 39.8304 96.3276 39.6186C96.3276 39.2655 96.257 38.9123 96.0452 38.7005C95.8333 38.4886 95.4802 38.3474 95.0564 38.3474C94.9858 38.3474 94.8446 38.3474 94.6327 38.3474C94.4915 38.3474 94.3502 38.3474 94.209 38.3474V41.031H94.8446C95.1271 41.031 95.3389 41.031 95.5508 40.9604C95.692 40.8191 95.8333 40.7485 95.9745 40.6073ZM97.1045 41.6666C97.3163 41.8078 97.4576 41.9491 97.5988 42.2316C97.7401 42.4434 97.8107 42.7259 97.8107 43.0084C97.8107 43.3615 97.7401 43.5734 97.5988 43.8559C97.4576 44.0677 97.2457 44.2796 97.0338 44.4208C96.822 44.5621 96.5395 44.7033 96.3276 44.7739C96.0451 44.8446 95.7627 44.9152 95.4802 44.9152H92.2316V44.4914C92.3022 44.4914 92.4435 44.4914 92.5847 44.4208C92.7259 44.4208 92.8672 44.3502 92.9378 44.3502C93.0084 44.2796 93.079 44.209 93.1497 44.1383C93.2203 44.0677 93.2203 43.9971 93.2203 43.8559V38.9123C93.2203 38.7711 93.2203 38.7005 93.1497 38.6299C93.079 38.5592 93.0084 38.4886 92.9378 38.418C92.8672 38.3474 92.7259 38.3474 92.5847 38.2768C92.4435 38.2768 92.3728 38.2061 92.3022 38.2061V37.853H95.4802C95.692 37.853 95.9745 37.853 96.1864 37.9237C96.3983 37.9943 96.6101 38.0649 96.822 38.2061C97.0339 38.3474 97.1751 38.4886 97.3163 38.7005C97.4576 38.9123 97.5282 39.1242 97.5282 39.4067C97.5282 39.6186 97.4576 39.8304 97.3869 40.0423C97.3163 40.2542 97.1751 40.3954 97.0338 40.5366C96.8926 40.6779 96.6807 40.7485 96.5395 40.8898C96.3276 40.9604 96.1158 41.031 95.9039 41.1016V41.1722C96.1158 41.1722 96.3276 41.2429 96.5395 41.3135C96.6807 41.3841 96.8926 41.5253 97.1045 41.6666ZM84.7457 43.7852C84.4632 43.4321 84.1101 43.0084 83.757 42.514C83.4039 42.0903 83.0508 41.6666 82.8389 41.3841C82.5564 41.596 82.4152 41.8078 82.274 42.0197C82.1327 42.2316 82.1327 42.514 82.1327 42.8672C82.1327 43.2909 82.274 43.644 82.4858 43.9265C82.7683 44.209 83.0508 44.3502 83.4745 44.3502C83.6864 44.3502 83.9689 44.2796 84.1807 44.209C84.3926 44.0677 84.6045 43.9265 84.7457 43.7852ZM84.322 39.2655C84.322 38.9123 84.2514 38.7005 84.1101 38.4886C83.9689 38.2768 83.757 38.2061 83.4745 38.2061C83.3333 38.2061 83.192 38.2061 83.1214 38.2768C83.0508 38.3474 82.9096 38.418 82.8389 38.4886C82.7683 38.5592 82.6977 38.7005 82.6977 38.7711C82.6977 38.8417 82.6271 38.983 82.6271 39.0536C82.6271 39.2655 82.6977 39.4773 82.7683 39.7598C82.9096 39.9717 83.0508 40.2542 83.3333 40.6073C83.6864 40.3954 83.8983 40.1835 84.0395 39.9717C84.2514 39.8304 84.322 39.5479 84.322 39.2655ZM87.7824 40.8191C87.5706 40.8191 87.4293 40.8898 87.2175 40.9604C87.0056 41.031 86.8644 41.1016 86.7937 41.2429C86.7231 41.3135 86.6525 41.4547 86.5819 41.596C86.5112 41.7372 86.4406 41.9491 86.2994 42.1609C86.2288 42.3728 86.0875 42.5847 86.0169 42.7965C85.9463 43.0084 85.805 43.2203 85.6638 43.3615C85.805 43.5027 85.9463 43.7146 86.1581 43.8559C86.37 44.0677 86.5112 44.1383 86.6525 44.2796C86.7937 44.3502 86.935 44.4208 87.2175 44.4914C87.4293 44.5621 87.6412 44.5621 87.7824 44.5621V44.9152H85.805L85.0988 44.0677C84.9576 44.209 84.887 44.2796 84.7457 44.4208C84.6045 44.5621 84.4632 44.6327 84.322 44.7739C84.1807 44.8446 83.9689 44.9152 83.8276 44.9858C83.6864 45.0564 83.4745 45.0564 83.2627 45.0564C83.0508 45.0564 82.7683 45.0564 82.5564 44.9858C82.3446 44.9152 82.1327 44.7739 81.9209 44.6327C81.709 44.4914 81.5677 44.2796 81.4971 44.0677C81.3559 43.8559 81.3559 43.5734 81.3559 43.2203C81.3559 42.7965 81.4971 42.4434 81.709 42.1609C81.9209 41.8078 82.3446 41.5253 82.9096 41.1016C82.6271 40.7485 82.4152 40.466 82.274 40.1835C82.1327 39.9011 82.0621 39.6186 82.0621 39.3361C82.0621 39.1242 82.1327 38.9123 82.2033 38.7005C82.274 38.4886 82.4152 38.3474 82.5564 38.2061C82.6977 38.0649 82.9096 37.9943 83.1214 37.9237C83.3333 37.853 83.5451 37.853 83.757 37.853C84.0395 37.853 84.2514 37.9236 84.4632 37.9943C84.6751 38.0649 84.8163 38.2061 84.9576 38.3474C85.0988 38.4886 85.1694 38.6299 85.2401 38.7711C85.3107 38.9124 85.3107 39.1242 85.3107 39.2655C85.3107 39.6186 85.1694 39.9717 84.9576 40.2542C84.7457 40.5366 84.3926 40.8191 83.9689 41.031C84.2514 41.4547 84.5338 41.8078 84.887 42.1609C85.1694 42.514 85.4519 42.8672 85.7344 43.1496C85.9463 42.7965 86.0875 42.514 86.2288 42.1609C86.37 41.8785 86.4406 41.596 86.4406 41.3841C86.4406 41.3135 86.37 41.1722 86.2288 41.1722C86.0875 41.1016 85.8757 41.031 85.5932 41.031V40.6779H88.2062V40.8191H87.7824ZM76.6242 44.6327C76.4124 44.7033 76.2005 44.7739 76.0593 44.8446C75.8474 44.9152 75.6355 44.9152 75.3531 44.9152C74.9293 44.9152 74.6468 44.8446 74.5056 44.6327C74.3644 44.4208 74.2937 44.1383 74.2937 43.7852V40.5366H73.4463V40.0423H74.3644V38.5592H75.2824V40.0423H76.6242V40.5366H75.2824V43.2203C75.2824 43.4321 75.2824 43.5734 75.2824 43.7146C75.2824 43.8559 75.3531 43.9971 75.3531 44.0677C75.4237 44.1383 75.4943 44.209 75.5649 44.2796C75.6355 44.3502 75.7768 44.3502 75.9887 44.3502C76.0593 44.3502 76.2005 44.3502 76.3418 44.3502C76.483 44.3502 76.6242 44.3502 76.6949 44.2796V44.6327H76.6242ZM71.5395 44.8446H69.209V44.4914C69.2796 44.4914 69.3502 44.4914 69.4209 44.4914C69.4915 44.4914 69.5621 44.4914 69.6327 44.4208C69.7033 44.4208 69.774 44.3502 69.8446 44.2796C69.9152 44.209 69.9152 44.1383 69.9152 43.9971V41.5253C69.9152 41.1722 69.8446 40.8898 69.7033 40.7485C69.5621 40.5366 69.3502 40.466 69.1384 40.466C68.9971 40.466 68.7853 40.466 68.644 40.5366C68.5028 40.6073 68.3615 40.6779 68.2909 40.7485C68.1497 40.8191 68.079 40.8898 68.0084 40.9604C67.9378 41.031 67.8672 41.1016 67.8672 41.1722V43.9265C67.8672 44.0677 67.8672 44.1383 67.9378 44.209C68.0084 44.2796 68.079 44.3502 68.1497 44.3502C68.2203 44.3502 68.2909 44.4208 68.3615 44.4208C68.4322 44.4208 68.5028 44.4208 68.5734 44.4208V44.7739H66.2429V44.4208C66.3135 44.4208 66.3841 44.4208 66.4548 44.4208C66.5254 44.4208 66.596 44.4208 66.6666 44.3502C66.7372 44.3502 66.8079 44.2796 66.8785 44.209C66.9491 44.1383 66.9491 44.0677 66.9491 43.9265V40.9604C66.9491 40.8191 66.9491 40.7485 66.8785 40.6779C66.8079 40.6073 66.7372 40.5366 66.6666 40.466C66.596 40.3954 66.5254 40.3954 66.4548 40.3954C66.3841 40.3954 66.3135 40.3954 66.1723 40.3248V39.9717L67.7966 39.8304L67.8672 39.9011V40.6073C67.9378 40.5366 68.0084 40.466 68.1497 40.3248C68.2909 40.1835 68.3615 40.1129 68.5028 40.0423C68.644 39.9717 68.7853 39.9011 68.9265 39.8304C69.0677 39.7598 69.2796 39.7598 69.4915 39.7598C69.9152 39.7598 70.2683 39.9011 70.4802 40.1835C70.692 40.466 70.8333 40.8191 70.8333 41.3135V43.7852C70.8333 43.9265 70.8333 43.9971 70.9039 44.0677C70.9745 44.1383 71.0451 44.209 71.1158 44.209C71.1864 44.209 71.257 44.2796 71.3276 44.2796C71.3983 44.2796 71.4689 44.2796 71.5395 44.2796V44.8446ZM62.5 42.2316C62.2175 42.3022 62.0056 42.3728 61.7937 42.4434C61.5819 42.514 61.37 42.5847 61.2288 42.7259C61.0875 42.8672 60.9463 42.9378 60.8757 43.1496C60.805 43.2909 60.7344 43.5027 60.7344 43.7146C60.7344 43.9971 60.805 44.209 60.9463 44.2796C61.0875 44.4208 61.2994 44.4914 61.5112 44.4914C61.7231 44.4914 61.935 44.4208 62.1468 44.3502C62.2881 44.209 62.5 44.1383 62.5706 43.9265L62.5 42.2316ZM64.1949 44.7739C64.0536 44.8446 63.9124 44.8446 63.7711 44.9152C63.6299 44.9152 63.5593 44.9858 63.3474 44.9858C63.0649 44.9858 62.9237 44.9152 62.7118 44.7739C62.5706 44.6327 62.4293 44.4914 62.4293 44.2796C62.2175 44.4914 62.0056 44.7033 61.7231 44.8446C61.5112 44.9858 61.1581 45.0564 60.8757 45.0564C60.5225 45.0564 60.2401 44.9152 59.9576 44.7033C59.7457 44.4914 59.6045 44.209 59.6045 43.8559C59.6045 43.644 59.6045 43.5027 59.6751 43.3615C59.7457 43.2203 59.8163 43.079 59.887 42.9378C59.9576 42.8672 60.0988 42.7259 60.2401 42.6553C60.3813 42.5847 60.5226 42.514 60.5932 42.4434C60.7344 42.3728 61.0169 42.3022 61.5112 42.1609C61.935 42.0197 62.2881 41.8785 62.4293 41.8078V41.3135C62.4293 41.2429 62.4293 41.1722 62.4293 41.1016C62.4293 40.9604 62.3587 40.8898 62.2881 40.7485C62.2175 40.6073 62.1468 40.5366 62.0056 40.466C61.8644 40.3954 61.7231 40.3248 61.5112 40.3248C61.37 40.3248 61.2288 40.3248 61.0875 40.3954C60.9463 40.466 60.8757 40.466 60.805 40.5366C60.805 40.6073 60.805 40.6779 60.8757 40.8191C60.8757 40.9604 60.9463 41.031 60.9463 41.1722C60.9463 41.3135 60.8757 41.3841 60.805 41.4547C60.7344 41.5253 60.5932 41.596 60.3813 41.596C60.2401 41.596 60.0988 41.5253 60.0282 41.4547C59.9576 41.3135 59.887 41.2429 59.887 41.1016C59.887 40.9604 59.9576 40.8191 60.0282 40.6779C60.0988 40.5366 60.2401 40.3954 60.4519 40.3248C60.5932 40.2542 60.805 40.1835 61.0169 40.1129C61.2288 40.0423 61.4406 40.0423 61.6525 40.0423C61.935 40.0423 62.1468 40.0423 62.3587 40.1129C62.5706 40.1835 62.7118 40.2542 62.9237 40.3248C63.0649 40.466 63.2062 40.6073 63.2768 40.8191C63.3474 41.031 63.418 41.3135 63.418 41.596C63.418 42.0903 63.418 42.4434 63.418 42.7965C63.418 43.1496 63.418 43.5734 63.418 43.9971C63.418 44.1383 63.418 44.209 63.4887 44.2796C63.5593 44.3502 63.6299 44.4208 63.7005 44.4914C63.7711 44.4914 63.8418 44.5621 63.9124 44.5621C64.0536 44.5621 64.1242 44.5621 64.2655 44.5621V44.7739H64.1949ZM57.6977 40.6779C57.6977 40.8191 57.6271 40.9604 57.5564 41.1016C57.4858 41.2429 57.3446 41.3135 57.2033 41.3135C56.9915 41.3135 56.8502 41.2429 56.7796 41.1722C56.709 41.1016 56.6384 40.9604 56.6384 40.8898C56.6384 40.8191 56.6384 40.7485 56.6384 40.6779C56.6384 40.6073 56.6384 40.5366 56.6384 40.5366C56.4971 40.5366 56.2853 40.6073 56.144 40.7485C55.9322 40.8898 55.7909 41.031 55.6497 41.2429V44.0677C55.6497 44.209 55.6497 44.2796 55.7203 44.3502C55.7909 44.4208 55.8615 44.4914 55.9322 44.4914C56.0028 44.4914 56.144 44.5621 56.2146 44.5621C56.3559 44.5621 56.4265 44.5621 56.5677 44.5621V44.9152H54.0254V44.5621C54.096 44.5621 54.1666 44.5621 54.2372 44.5621C54.3079 44.5621 54.3785 44.5621 54.4491 44.4914C54.5197 44.4914 54.5903 44.4208 54.661 44.3502C54.7316 44.2796 54.7316 44.209 54.7316 44.0677V41.1016C54.7316 41.031 54.7316 40.8898 54.661 40.8191C54.5903 40.7485 54.5197 40.6779 54.4491 40.6073C54.3785 40.5366 54.3079 40.5366 54.2372 40.5366C54.1666 40.5366 54.096 40.5366 53.9548 40.466V40.1129L55.579 39.9717L55.6497 40.0423V40.6779C55.8615 40.3954 56.0734 40.1835 56.2853 40.1129C56.4971 39.9717 56.7796 39.9011 56.9915 39.9011C57.2033 39.9011 57.3446 39.9717 57.4858 40.1129C57.6271 40.2542 57.6977 40.466 57.6977 40.6779ZM51.9067 44.7739L50.3531 44.9152L50.2824 44.8446V44.209C50.2118 44.2796 50.1412 44.3502 50 44.4914C49.9293 44.5621 49.7881 44.6327 49.6468 44.7739C49.5056 44.8446 49.3644 44.9152 49.2231 44.9858C49.0819 45.0564 48.87 45.0564 48.6581 45.0564C48.2344 45.0564 47.8813 44.9152 47.6694 44.6327C47.4576 44.3502 47.3163 43.9265 47.3163 43.4321V41.1722C47.3163 41.031 47.3163 40.9604 47.2457 40.8898C47.1751 40.8191 47.1045 40.7485 47.0338 40.6779C46.9632 40.6073 46.8926 40.6073 46.822 40.6073C46.7514 40.6073 46.6101 40.6073 46.5395 40.5366V40.1835L48.1638 40.0423L48.2344 40.1129V43.4321C48.2344 43.7852 48.305 44.0677 48.4463 44.209C48.5875 44.3502 48.7994 44.4914 49.0113 44.4914C49.2231 44.4914 49.3644 44.4914 49.5056 44.4208C49.6468 44.3502 49.7881 44.2796 49.8587 44.209C49.9293 44.1383 50 44.0677 50.0706 43.9971C50.1412 43.9265 50.2118 43.8559 50.2118 43.7852V41.1016C50.2118 40.9604 50.2118 40.8898 50.1412 40.8191C50.0706 40.7485 50 40.6779 49.9293 40.6073C49.8587 40.5366 49.7881 40.5366 49.6468 40.5366C49.5056 40.5366 49.435 40.5366 49.2937 40.5366V40.1835L51.0593 40.0423L51.1299 40.1129V43.9265C51.1299 44.0677 51.1299 44.1383 51.2005 44.209C51.2711 44.2796 51.3418 44.3502 51.4124 44.4208C51.483 44.4914 51.5536 44.4914 51.6242 44.4914C51.6949 44.4914 51.7655 44.4914 51.9067 44.4914V44.7739ZM43.0084 42.2316C42.7259 42.3022 42.5141 42.3728 42.3022 42.4434C42.0903 42.514 41.8785 42.5847 41.7372 42.7259C41.596 42.8672 41.4548 42.9378 41.3841 43.1496C41.3135 43.2909 41.2429 43.5027 41.2429 43.7146C41.2429 43.9971 41.3135 44.209 41.4548 44.2796C41.596 44.4208 41.8079 44.4914 42.0197 44.4914C42.2316 44.4914 42.4435 44.4208 42.6553 44.3502C42.7966 44.209 43.0084 44.1383 43.079 43.9265L43.0084 42.2316ZM44.7033 44.7739C44.5621 44.8446 44.4209 44.8446 44.2796 44.9152C44.1384 44.9152 44.0677 44.9858 43.8559 44.9858C43.5734 44.9858 43.4322 44.9152 43.2203 44.7739C43.079 44.6327 42.9378 44.4914 42.9378 44.2796C42.7259 44.4914 42.5141 44.7033 42.2316 44.8446C42.0197 44.9858 41.6666 45.0564 41.3841 45.0564C41.031 45.0564 40.7485 44.9152 40.466 44.7033C40.2542 44.4914 40.1129 44.209 40.1129 43.8559C40.1129 43.644 40.1129 43.5027 40.1836 43.3615C40.2542 43.2203 40.3248 43.079 40.3954 42.9378C40.4661 42.8672 40.6073 42.7259 40.7485 42.6553C40.8898 42.5847 41.031 42.514 41.1016 42.4434C41.2429 42.3728 41.5254 42.3022 42.0197 42.1609C42.4435 42.0197 42.7966 41.8785 42.9378 41.8078V41.3135C42.9378 41.2429 42.9378 41.1722 42.9378 41.1016C42.9378 40.9604 42.8672 40.8898 42.7966 40.7485C42.7259 40.6073 42.6553 40.5366 42.5141 40.466C42.3728 40.3954 42.2316 40.3248 42.0197 40.3248C41.8785 40.3248 41.7372 40.3248 41.596 40.3954C41.4548 40.466 41.3841 40.466 41.3135 40.5366C41.3135 40.6073 41.3135 40.6779 41.3841 40.8191C41.3841 40.9604 41.4548 41.031 41.4548 41.1722C41.4548 41.3135 41.3841 41.3841 41.3135 41.4547C41.2429 41.5253 41.1016 41.596 40.8898 41.596C40.7485 41.596 40.6073 41.5253 40.5367 41.4547C40.4661 41.3135 40.3954 41.2429 40.3954 41.1016C40.3954 40.9604 40.4661 40.8191 40.5367 40.6779C40.6073 40.5366 40.7485 40.3954 40.9604 40.3248C41.1016 40.2542 41.3135 40.1835 41.5254 40.1129C41.7372 40.0423 41.9491 40.0423 42.161 40.0423C42.4435 40.0423 42.6553 40.0423 42.8672 40.1129C43.079 40.1835 43.2203 40.2542 43.4322 40.3248C43.5734 40.466 43.7146 40.6073 43.7853 40.8191C43.8559 41.031 43.9265 41.3135 43.9265 41.596C43.9265 42.0903 43.9265 42.4434 43.9265 42.7965C43.9265 43.1496 43.9265 43.5734 43.9265 43.9971C43.9265 44.1383 43.9265 44.209 43.9971 44.2796C44.0677 44.3502 44.1384 44.4208 44.209 44.4914C44.2796 44.4914 44.3502 44.5621 44.4209 44.5621C44.5621 44.5621 44.6327 44.5621 44.774 44.5621V44.7739H44.7033ZM38.1355 44.6327C37.9237 44.7033 37.7118 44.7739 37.5706 44.8446C37.3587 44.9152 37.1468 44.9152 36.8644 44.9152C36.4406 44.9152 36.1581 44.8446 36.0169 44.6327C35.8757 44.4208 35.805 44.1383 35.805 43.7852V40.5366H34.9576V40.0423H35.8757V38.5592H36.7937V40.0423H38.1355V40.5366H36.7937V43.2203C36.7937 43.4321 36.7937 43.5734 36.7937 43.7146C36.7937 43.8559 36.8644 43.9971 36.8644 44.0677C36.935 44.1383 37.0056 44.209 37.0762 44.2796C37.1468 44.3502 37.2881 44.3502 37.5 44.3502C37.5706 44.3502 37.7118 44.3502 37.8531 44.3502C37.9943 44.3502 38.1355 44.3502 38.2062 44.2796V44.6327H38.1355ZM32.4858 42.514C32.6271 42.6553 32.6977 42.7965 32.7683 42.9378C32.8389 43.079 32.9096 43.2909 32.9096 43.5027C32.9096 43.9265 32.7683 44.2796 32.4152 44.5621C32.0621 44.8446 31.6384 44.9858 31.144 44.9858C30.8615 44.9858 30.579 44.9152 30.3672 44.8446C30.1553 44.7739 29.9435 44.6327 29.8728 44.5621L29.8022 44.8446H29.4491L29.3785 43.1496H29.661C29.661 43.2909 29.7316 43.4321 29.8022 43.5734C29.8728 43.7146 30.0141 43.9265 30.0847 43.9971C30.2259 44.1383 30.3672 44.2796 30.5084 44.3502C30.6497 44.4208 30.8615 44.4914 31.0734 44.4914C31.3559 44.4914 31.6384 44.4208 31.7796 44.2796C31.9209 44.1383 32.0621 43.9265 32.0621 43.644C32.0621 43.5027 32.0621 43.3615 31.9915 43.2909C31.9209 43.2203 31.8502 43.079 31.7796 43.0084C31.6384 42.9378 31.5677 42.8672 31.3559 42.7965C31.2146 42.7259 31.0028 42.6553 30.8615 42.6553C30.7203 42.5847 30.5084 42.514 30.3672 42.4434C30.1553 42.3728 30.0141 42.3022 29.8728 42.1609C29.7316 42.0197 29.5903 41.8785 29.5197 41.7372C29.4491 41.596 29.3785 41.3841 29.3785 41.1722C29.3785 40.7485 29.5197 40.466 29.8022 40.1835C30.0847 39.9011 30.5084 39.7598 31.0028 39.7598C31.2146 39.7598 31.3559 39.7598 31.5677 39.8304C31.7796 39.9011 31.9209 39.9717 32.0621 39.9717L32.2033 39.6892H32.5564L32.6271 41.2429H32.274C32.2033 40.8898 32.0621 40.6073 31.8502 40.3954C31.6384 40.1835 31.3559 40.0423 31.0028 40.0423C30.7203 40.0423 30.5084 40.1129 30.3672 40.2542C30.2259 40.3954 30.1553 40.5366 30.1553 40.7485C30.1553 40.8898 30.1553 41.031 30.2259 41.1016C30.2966 41.1722 30.3672 41.3135 30.4378 41.3135C30.5084 41.3841 30.6497 41.4547 30.7909 41.5253C30.9322 41.596 31.144 41.6666 31.3559 41.7372C31.5677 41.8078 31.7796 41.8785 31.9915 41.9491C32.2033 42.3022 32.3446 42.4434 32.4858 42.514ZM26.1299 41.9491C26.1299 41.7372 26.1299 41.596 26.0593 41.3841C26.0593 41.1722 25.9887 41.031 25.918 40.8898C25.8474 40.7485 25.7062 40.6073 25.6355 40.5366C25.4943 40.466 25.3531 40.3954 25.1412 40.3954C24.7881 40.3954 24.5056 40.5366 24.2937 40.8191C24.0819 41.1016 23.9406 41.5253 23.9406 42.0197H26.1299V41.9491ZM27.1892 43.7146C26.9774 44.0677 26.6949 44.4208 26.4124 44.6327C26.0593 44.8446 25.7062 44.9858 25.2824 44.9858C24.9293 44.9858 24.5762 44.9152 24.2937 44.7739C24.0113 44.6327 23.7994 44.4208 23.5875 44.209C23.3757 43.9971 23.2344 43.7146 23.1638 43.3615C23.0932 43.079 23.0225 42.7259 23.0225 42.3728C23.0225 42.0903 23.0932 41.7372 23.1638 41.4547C23.2344 41.1722 23.3757 40.8898 23.5875 40.6779C23.7994 40.466 24.0113 40.2542 24.2937 40.1129C24.5762 39.9717 24.8587 39.9011 25.2118 39.9011C25.5649 39.9011 25.8474 39.9717 26.1299 40.0423C26.4124 40.1835 26.5536 40.3248 26.7655 40.466C26.9067 40.6779 27.048 40.8898 27.1186 41.1016C27.1892 41.3135 27.2598 41.596 27.2598 41.8785V42.2316H24.0819C24.0819 42.514 24.0819 42.7965 24.1525 43.079C24.2231 43.3615 24.2937 43.5734 24.435 43.7852C24.5762 43.9971 24.7175 44.1383 24.9293 44.209C25.1412 44.3502 25.3531 44.3502 25.6355 44.3502C25.918 44.3502 26.2005 44.2796 26.4124 44.1383C26.6242 43.9971 26.8361 43.7852 27.048 43.4321L27.1892 43.7146ZM18.7146 39.6892C18.7146 39.2655 18.5734 38.9123 18.3615 38.7005C18.1497 38.4886 17.7966 38.3474 17.3728 38.3474H16.5254V41.3135H17.161C17.5847 41.3135 18.0084 41.1722 18.2909 40.8898C18.5028 40.6073 18.7146 40.1835 18.7146 39.6892ZM21.257 44.8446H19.4209C18.9971 44.209 18.644 43.644 18.2909 43.1496C17.9378 42.6553 17.5847 42.2316 17.2316 41.6666H16.5254V43.8559C16.5254 43.9971 16.5254 44.0677 16.596 44.1383C16.6666 44.209 16.7372 44.2796 16.8079 44.3502C16.8785 44.3502 16.9491 44.4208 17.0903 44.4208C17.2316 44.4208 17.3728 44.4208 17.4435 44.4208V44.7739H14.548V44.4914C14.6186 44.4914 14.7598 44.4914 14.9011 44.4914C15.0423 44.4914 15.1836 44.4208 15.1836 44.4208C15.2542 44.3502 15.3248 44.3502 15.3954 44.209C15.4661 44.1383 15.4661 43.9971 15.4661 43.9265V38.983C15.4661 38.8417 15.4661 38.7711 15.3954 38.7005C15.3954 38.6299 15.2542 38.5592 15.1836 38.4886C15.1129 38.4886 14.9717 38.418 14.9011 38.418C14.7598 38.418 14.6892 38.3474 14.548 38.3474V37.9943H17.7259C18.0084 37.9943 18.2909 37.9943 18.5734 38.0649C18.8559 38.1355 19.0677 38.2061 19.2796 38.3474C19.4915 38.4886 19.6327 38.6299 19.774 38.8417C19.9152 39.0536 19.9858 39.3361 19.9858 39.6186C19.9858 39.9011 19.9152 40.1129 19.8446 40.3248C19.774 40.5366 19.6327 40.6779 19.4915 40.8898C19.3502 41.031 19.1384 41.1722 18.9971 41.2429C18.7853 41.3135 18.5734 41.4547 18.2909 41.5253C18.644 41.9491 18.9265 42.3728 19.1384 42.6553C19.3502 42.9378 19.6327 43.3615 19.9858 43.7852C20.1271 43.9971 20.2683 44.1383 20.3389 44.209C20.4802 44.2796 20.5508 44.3502 20.692 44.4208C20.7627 44.4914 20.9039 44.4914 20.9745 44.4914C21.1158 44.4914 21.1864 44.4914 21.257 44.5621V44.8446Z" fill="white"/>
</svg>
