<svg width="320" height="111" viewBox="0 0 320 111" fill="none" xmlns="http://www.w3.org/2000/svg">
<path d="M23.9021 60.9306C21.7861 60.9306 19.7431 60.4929 17.919 59.6903C16.2409 58.9606 14.6357 58.6688 13.0305 58.8147C11.4253 58.9606 9.96602 59.3984 8.7986 60.274C7.55822 61.0766 6.68266 62.171 6.09895 63.4114L5.07746 65.6733C8.28786 61.5873 12.1549 60.6388 16.7516 62.6818C18.9405 63.6303 20.6917 65.0896 22.078 66.9136C23.4643 68.7377 24.2669 70.8537 24.5587 73.1155C24.8506 75.4504 24.4858 77.7122 23.4643 79.9741C21.8591 83.6953 19.5242 86.1031 16.5327 87.4164C13.5412 88.6568 10.039 88.4379 6.09895 86.6868C3.32634 85.4464 1.2104 83.8412 -0.0299847 81.7982C-1.34333 79.8282 -2 77.7123 -2 75.5233C-2 73.3344 -1.56222 71.2185 -0.686656 69.1755L2.5967 61.8062C3.61819 59.5443 5.0045 57.7932 6.82859 56.6258C8.65267 55.4584 10.6957 54.8017 12.8846 54.7287C15.1464 54.6558 17.3353 55.0936 19.5242 56.115C21.2024 56.8447 22.7346 57.2095 23.975 57.0636C25.2154 56.9176 26.4558 56.3339 27.6962 55.3124L29.7391 58.9606C27.988 60.274 26.091 60.9306 23.9021 60.9306ZM2.96152 78.3689C3.76412 80.4119 5.36932 81.9441 7.77711 82.9656C9.38231 83.6953 10.9145 83.9142 12.3738 83.7682C13.8331 83.6223 15.2194 82.9656 16.3868 82.0171C17.5542 80.9956 18.5028 79.6823 19.2324 78.0771C19.962 76.3989 20.3268 74.8667 20.2539 73.3344C20.1809 71.8022 19.7431 70.4159 18.8676 69.2485C17.992 68.0811 16.7516 67.0596 15.2194 66.3299C13.7601 65.6733 12.2279 65.4544 10.6957 65.6003C9.16342 65.8192 7.77711 66.4029 6.53673 67.3514C5.29635 68.3 4.34783 69.5403 3.69116 71.0726C2.30485 73.9181 2.08596 76.3259 2.96152 78.3689Z" fill="#404B5C"/>
<path d="M34.1899 92.3049L37.0355 93.0345L47.5422 72.7507L52.5038 73.9911L36.014 105.219C34.9925 107.117 33.971 108.503 33.0225 109.305C32.074 110.108 30.8336 110.692 29.3743 110.984L27.4043 106.825C28.9365 106.533 30.1769 105.511 31.0525 103.906L35.2844 95.8801L33.3143 95.3694C32.001 95.0046 30.9795 94.4209 30.1769 93.4723C29.4473 92.5238 29.0825 91.2834 29.0825 89.7512L29.4473 68.0081L34.6277 69.3214L34.1899 92.3049Z" fill="#404B5C"/>
<path d="M77.5303 97.7042L79.7192 97.8502L79.2084 105.074L74.101 104.709L74.3199 101.425L56.5168 100.258L56.2979 103.541L51.1904 103.176L51.7012 95.9531L54.109 96.099L62.3539 75.0126L78.9166 76.107L77.5303 97.7042ZM59.3623 96.4638L72.4958 97.3394L73.6632 79.7552L65.7831 79.1715L59.3623 96.4638Z" fill="#404B5C"/>
<path d="M88.1829 75.3044L89.6422 85.2275L102.557 83.3304C104.162 83.1115 105.548 83.2575 106.862 83.8412C108.102 84.4249 109.123 85.2275 109.926 86.3219C110.656 87.3434 111.166 88.4379 111.312 89.6053C111.677 91.9401 111.239 93.9102 109.926 95.6613C108.686 97.4124 106.497 98.5069 103.505 98.9446C101.462 99.2365 99.4923 99.1635 97.7411 98.5798C95.99 97.9961 94.5307 97.2665 93.3633 96.245C92.1959 95.2235 91.3203 94.202 90.8826 93.1075L91.977 100.623L86.6507 101.425L82.8566 76.18L88.1829 75.3044ZM94.093 93.1805C95.1874 94.129 96.3548 94.7857 97.5222 95.0776C98.6897 95.3694 100.149 95.3694 101.827 95.1505C103.505 94.9316 104.673 94.3479 105.402 93.5453C106.132 92.7427 106.351 91.6483 106.132 90.3349C105.986 89.2405 105.475 88.4379 104.527 87.8542C103.651 87.2705 102.557 87.0516 101.316 87.1975L90.4448 88.8027C91.7581 90.6997 92.9985 92.159 94.093 93.1805Z" fill="#404B5C"/>
<path d="M163.116 62.171C164.211 62.7547 165.014 63.4843 165.524 64.2869C166.692 66.2569 167.057 68.2999 166.546 70.4158C166.035 72.4588 164.43 74.2829 161.803 75.8881L148.816 83.6952L135.682 61.8061L146.043 55.6042C149.326 53.6342 152.026 52.6857 154.142 52.8316C156.258 52.9046 157.936 53.9261 159.176 55.9691C159.76 56.9176 160.125 57.9391 160.271 58.8876C160.417 59.9091 160.271 60.7847 159.76 61.5143C160.928 61.3684 162.022 61.5873 163.116 62.171ZM145.532 67.7892L152.975 63.3384C154.288 62.5358 155.09 61.7332 155.455 61.0035C155.747 60.2009 155.674 59.3984 155.236 58.5958C154.726 57.7202 154.142 57.1365 153.485 56.9176C152.829 56.6987 152.099 56.6987 151.223 56.9906C150.348 57.2824 149.326 57.7932 148.013 58.5958L142.249 62.098L145.532 67.7892ZM161.803 70.3429C162.095 69.3214 161.876 68.154 161.146 66.9136C159.906 64.7976 158.009 64.4328 155.455 65.8191L147.356 70.7807L151.588 77.8581L159.103 73.3344C160.636 72.3859 161.511 71.4373 161.803 70.3429Z" fill="#404B5C"/>
<path d="M196.534 27.8781L195.877 25.1055C195.512 23.7192 195.658 22.3329 196.169 21.0925C196.68 19.8521 197.555 18.8307 198.869 18.101L202.59 15.9121L204.56 19.3414L200.401 21.7492L201.495 26.2729L211.856 35.2474L213.315 34.3719L215.431 37.9471L212.513 39.6253C211.856 39.9901 211.126 40.136 210.397 40.063C209.667 39.9901 209.011 39.6982 208.427 39.1145L199.306 30.7967L192.886 34.5178L200.109 46.8486L195.731 49.4024L182.89 27.3674L187.267 24.8137L190.916 31.0885L196.534 27.8781Z" fill="#404B5C"/>
<path d="M226.011 30.7237L228.784 29.7752L226.595 7.01059L231.41 5.4054L234.548 40.5738C234.767 42.7627 234.621 44.4409 234.256 45.6813C233.891 46.9216 233.161 48.0161 232.14 49.0376L228.2 46.6298C229.367 45.5353 229.805 44.0031 229.659 42.179L228.857 33.2045L226.96 33.8612C225.646 34.299 224.479 34.299 223.311 33.9341C222.144 33.5693 221.195 32.6938 220.393 31.4534L208.865 12.9936L213.972 11.3154L226.011 30.7237Z" fill="#404B5C"/>
<path d="M239.072 3.72722L243.887 3.07055L244.763 9.78319C245.346 4.67575 248.119 1.75721 253.153 1.10053C255.488 0.80868 257.677 1.10053 259.793 1.9761C261.909 2.85166 263.733 4.23797 265.12 6.13502C266.579 7.95911 267.381 10.075 267.746 12.4828C268.038 14.8177 267.746 17.0795 266.871 19.1955C265.995 21.3114 264.609 23.1355 262.785 24.5948C260.961 26.0541 258.918 26.9296 256.583 27.2215C251.621 27.8782 248.119 25.8352 246.222 21.0196L248.849 40.7197L244.033 41.3764L239.072 3.72722ZM248.922 21.6033C250.746 22.9166 253.081 23.4274 255.78 23.0626C257.531 22.8437 258.991 22.187 260.158 21.2385C261.252 20.2899 262.055 19.0496 262.493 17.6633C262.931 16.204 263.004 14.6718 262.785 12.9936C262.566 11.3154 262.055 9.85616 261.252 8.54281C260.45 7.22947 259.428 6.28094 258.042 5.69724C256.656 5.11353 255.124 4.89464 253.372 5.11353C251.621 5.33242 250.089 5.91613 248.776 6.86465C247.535 7.81318 246.587 8.9806 246.003 10.4399C245.419 11.8991 245.273 13.5773 245.492 15.3284C245.93 18.247 247.025 20.2899 248.922 21.6033Z" fill="#404B5C"/>
<path d="M272.489 6.28097C273.656 4.31095 275.188 2.77872 277.159 1.6113C279.129 0.51685 281.244 -0.066858 283.579 0.00610555C286.133 0.0790691 288.322 0.589814 290.146 1.53834C291.97 2.48687 293.356 3.80021 294.305 5.40541C295.253 7.0106 295.764 8.83469 295.837 10.7317L290.803 10.6588C290.511 8.54284 289.854 7.0106 288.687 6.06208C287.519 5.11355 285.768 4.67577 283.433 4.60281C281.901 4.60281 280.515 4.89466 279.347 5.6243C278.18 6.35393 277.304 7.37542 276.648 8.6158C275.991 9.92915 275.699 11.3155 275.626 12.8477C275.553 14.4529 275.845 15.9122 276.429 17.2255C277.013 18.5388 277.888 19.5603 278.983 20.3629C280.077 21.1655 281.463 21.5303 283.069 21.6033C285.33 21.6763 287.082 21.2385 288.249 20.29C289.489 19.3414 290.292 17.8822 290.657 15.8392L295.691 15.9851C295.545 17.9551 294.962 19.7063 293.94 21.2385C292.919 22.8437 291.459 24.0111 289.562 24.8867C287.665 25.7622 285.476 26.2 282.923 26.1271C280.588 26.0541 278.472 25.3974 276.575 24.23C274.678 23.0626 273.218 21.3844 272.124 19.3414C271.03 17.2985 270.592 15.1096 270.592 12.7018C270.665 10.4399 271.321 8.25098 272.489 6.28097Z" fill="#404B5C"/>
<path d="M305.322 21.5304C306.125 22.9167 307.876 23.7922 310.576 24.1571C312.765 24.4489 314.443 24.376 315.683 23.8652C316.924 23.3545 317.726 22.4059 318.091 21.0926L322.761 21.7493C322.323 23.5004 321.52 24.9597 320.28 26.1271C319.04 27.2215 317.507 28.0241 315.756 28.389C314.005 28.7538 312.108 28.8267 309.992 28.5349C305.322 27.8782 302.258 26.1271 300.945 23.4274C299.631 20.7278 299.193 17.8092 299.631 14.6718C300.288 10.1481 301.82 6.86471 304.301 4.82173C306.709 2.85172 309.846 2.12208 313.713 2.63283C321.739 3.80024 325.023 9.34547 323.563 19.2685L304.52 16.5689C304.228 18.5389 304.52 20.1441 305.322 21.5304ZM317.799 9.27251C316.997 7.8862 315.391 7.0836 313.056 6.71879C310.722 6.35397 308.971 6.79175 307.73 7.81324C306.49 8.90769 305.614 10.6588 305.031 13.1396L318.748 15.1096C318.967 12.6288 318.602 10.6588 317.799 9.27251Z" fill="#404B5C"/>
</svg>
