<svg width="24" height="24" viewBox="0 0 24 24" fill="none" xmlns="http://www.w3.org/2000/svg">
<g clip-path="url(#clip0)">
<path d="M12 24C18.5049 24 24 18.5044 24 12C24 11.448 23.552 11 23 11C22.448 11 22 11.448 22 12C22 17.0835 17.9719 21.427 13 21.9475V14H15C15.552 14 16 13.552 16 13C16 12.448 15.552 12 15 12H13V5.82495C14.1636 5.41211 15 4.30347 15 3C15 1.34546 13.6545 0 12 0C10.3455 0 9 1.34546 9 3C9 4.30347 9.83643 5.41211 11 5.82495V12H9C8.448 12 8 12.448 8 13C8 13.552 8.448 14 9 14H11V21.9475C6.02808 21.427 2 17.0835 2 12C2 11.448 1.552 11 1 11C0.447998 11 0 11.448 0 12C0 18.5044 5.49512 24 12 24ZM12 2C12.5515 2 13 2.44849 13 3C13 3.55151 12.5515 4 12 4C11.4485 4 11 3.55151 11 3C11 2.44849 11.4485 2 12 2Z" fill="#242424"/>
</g>
<defs>
<clipPath id="clip0">
<rect width="24" height="24" fill="white"/>
</clipPath>
</defs>
</svg>
