<svg width="24" height="24" viewBox="0 0 24 24" fill="none" xmlns="http://www.w3.org/2000/svg">
<path d="M11.25 6.75C10.8358 6.75 10.5 6.41455 10.5 6V0.75C10.5 0.335449 10.8358 0 11.25 0C11.6642 0 12 0.335449 12 0.75V6C12 6.41455 11.6642 6.75 11.25 6.75Z" fill="black"/>
<path d="M13.5002 8.09994C13.1904 8.09994 12.9004 7.90658 12.7924 7.5975C12.6554 7.20639 12.8616 6.77865 13.2523 6.64169L19.252 4.54183C19.6449 4.40652 20.0712 4.61215 20.2078 5.00253C20.3447 5.39364 20.1386 5.82138 19.7478 5.95834L13.7482 8.05819C13.6661 8.08676 13.5823 8.09994 13.5002 8.09994Z" fill="black"/>
<path d="M23.9998 14.2528C23.9998 14.2519 24 14.251 24 14.2501C24 14.1852 23.9786 14.1272 23.963 14.0671C23.954 14.032 23.9564 13.9961 23.9421 13.9615L23.9414 13.9597C23.9409 13.9586 23.9405 13.9576 23.9401 13.9565L20.1936 4.96479C20.1936 4.9646 20.1934 4.96442 20.1934 4.96424L20.1923 4.96149C20.1848 4.94373 20.1698 4.93238 20.1614 4.91553C20.126 4.84558 20.0867 4.77729 20.0305 4.72107C19.89 4.5799 19.6992 4.4997 19.5002 4.50025C19.301 4.4997 19.1102 4.58008 18.9699 4.72107C18.9139 4.77729 18.8747 4.84522 18.8394 4.91498C18.8306 4.93201 18.8156 4.94355 18.808 4.96149L18.8069 4.96424C18.8069 4.96442 18.8068 4.9646 18.8068 4.96479L15.0602 13.9565C15.0597 13.9576 15.0593 13.9586 15.059 13.9597L15.058 13.9615C15.0438 13.9961 15.0461 14.032 15.0372 14.0671C15.0214 14.1272 15 14.1852 15 14.2501C15 14.251 15.0002 14.2519 15.0002 14.2528V14.2552C15.0031 16.7343 17.0204 18.7501 19.5 18.7501C21.9796 18.7501 23.9969 16.7343 23.9996 14.2552C23.9998 14.2545 23.9998 14.2535 23.9998 14.2528ZM19.5 7.19977L22.1252 13.5001H16.8748L19.5 7.19977ZM19.5 17.2501C18.1047 17.2501 16.9288 16.2928 16.5948 15.0001H22.4052C22.0712 16.2928 20.8953 17.2501 19.5 17.2501Z" fill="black"/>
<path d="M11.25 5.25C9.59583 5.25 8.25 6.59546 8.25 8.25C8.25 8.29724 8.2619 8.34119 8.26392 8.38788L4.25244 9.79175C4.24548 9.79413 4.24109 9.79999 4.23413 9.80255C4.22717 9.8053 4.2193 9.80493 4.21216 9.80768C4.21198 9.80786 4.21161 9.80786 4.21143 9.80786C4.20209 9.81171 4.19641 9.81995 4.18726 9.82434C4.15302 9.84009 4.12445 9.86554 4.09277 9.8866C4.05725 9.9104 4.01733 9.92761 3.98676 9.95654C3.98145 9.96185 3.97559 9.96552 3.97028 9.97064C3.93988 10.001 3.92303 10.0402 3.8985 10.075C3.8703 10.1147 3.83862 10.1508 3.81885 10.1953C3.8161 10.2014 3.81061 10.2052 3.80786 10.2114L3.80676 10.2142C3.80676 10.2144 3.80658 10.2145 3.80658 10.2147L0.0600586 19.2065C0.0596924 19.2076 0.0593262 19.2085 0.0587768 19.2096L0.0580444 19.2114C0.0437622 19.246 0.0461426 19.2819 0.0371704 19.3171C0.0214233 19.3771 0 19.4352 0 19.5C0 19.5009 0.000183105 19.5018 0.000183105 19.5027V19.5051C0.00311279 21.9842 2.02039 24 4.5 24C6.97961 24 8.99689 21.9842 8.99963 19.5051C8.99963 19.5044 8.99982 19.5035 8.99982 19.5027C8.99982 19.5018 8.99982 19.5009 8.99982 19.5002C8.99982 19.4352 8.97839 19.3771 8.96301 19.3173C8.95404 19.2819 8.95642 19.2462 8.94214 19.2116L8.94122 19.2096C8.94086 19.2085 8.94049 19.2078 8.93994 19.2065L5.49792 10.9459L8.70667 9.82269C9.23639 10.676 10.1741 11.25 11.25 11.25C12.9042 11.25 14.25 9.90454 14.25 8.25C14.25 6.59546 12.9042 5.25 11.25 5.25ZM4.5 12.4497L7.12518 18.75H1.87482L4.5 12.4497ZM4.5 22.5C3.10474 22.5 1.92883 21.5427 1.59485 20.25H7.40515C7.07117 21.5427 5.89526 22.5 4.5 22.5ZM11.25 9.75C10.4227 9.75 9.75 9.0769 9.75 8.25C9.75 7.4231 10.4227 6.75 11.25 6.75C12.0773 6.75 12.75 7.4231 12.75 8.25C12.75 9.0769 12.0773 9.75 11.25 9.75Z" fill="black"/>
</svg>
