<svg width="24" height="24" viewBox="0 0 24 24" fill="none" xmlns="http://www.w3.org/2000/svg">
<path d="M21.9084 3.31036H16.9429V1.6842C16.9429 0.755676 16.1873 0 15.2587 0H8.69604C7.76752 0 7.01184 0.755676 7.01184 1.6842V3.31036H2.04639C1.58936 3.31036 1.21875 3.68042 1.21875 4.138C1.21875 4.5954 1.58936 4.96545 2.04639 4.96545H2.90918L3.59601 20.7609C3.67474 22.5776 5.16101 24 6.97925 24H16.9757C18.7938 24 20.2798 22.5776 20.3588 20.7609L21.0456 4.96545H21.9084C22.3654 4.96545 22.736 4.5954 22.736 4.138C22.736 3.68042 22.3654 3.31036 21.9084 3.31036ZM8.69604 1.65509H15.2587L15.2877 3.31036H8.67682L8.69604 1.65509ZM18.7051 20.6896C18.6647 21.6174 17.9052 22.3449 16.9755 22.3449H6.97906C6.04962 22.3449 5.28992 21.6174 5.24945 20.6896L4.56573 4.96545H19.3889L18.7051 20.6896Z" fill="black"/>
<path d="M11.9774 19.0344C11.5203 19.0344 11.1499 18.6642 11.1499 18.2068V8.2757C11.1499 7.8183 11.5203 7.44824 11.9774 7.44824C12.4344 7.44824 12.805 7.8183 12.805 8.2757V18.2068C12.805 18.6642 12.4344 19.0344 11.9774 19.0344Z" fill="black"/>
<path d="M15.2877 19.0344C14.8306 19.0344 14.4602 18.6642 14.4602 18.2068V8.2757C14.4602 7.8183 14.8306 7.44824 15.2877 7.44824C15.7447 7.44824 16.1153 7.8183 16.1153 8.2757V18.2068C16.1153 18.6642 15.7447 19.0344 15.2877 19.0344Z" fill="black"/>
<path d="M8.66724 19.0344C8.21002 19.0344 7.8396 18.6642 7.8396 18.2068V8.2757C7.8396 7.8183 8.21002 7.44824 8.66724 7.44824C9.12427 7.44824 9.49469 7.8183 9.49469 8.2757V18.2068C9.49469 18.6642 9.12427 19.0344 8.66724 19.0344Z" fill="black"/>
</svg>
