<svg width="24" height="24" viewBox="0 0 24 24" fill="none" xmlns="http://www.w3.org/2000/svg">
<path d="M16.2792 13.9355C16.1293 13.9355 15.9795 13.8921 15.8499 13.8055L13.9567 12.5433L12.0636 13.8055C11.8254 13.9635 11.5196 13.9781 11.2689 13.8439C11.0172 13.7092 10.8599 13.4468 10.8599 13.1613V4.64526C10.8599 4.21771 11.2067 3.87109 11.6342 3.87109C12.0618 3.87109 12.4084 4.21771 12.4084 4.64526V11.7146L13.5272 10.9688C13.7874 10.7958 14.1261 10.7958 14.3861 10.9688L15.5051 11.7146V4.64526C15.5051 4.21771 15.8517 3.87109 16.2792 3.87109C16.7068 3.87109 17.0534 4.21771 17.0534 4.64526V13.1613C17.0534 13.4468 16.8963 13.7092 16.6443 13.8441C16.5303 13.9053 16.4045 13.9355 16.2792 13.9355Z" fill="black"/>
<path d="M20.9244 3.87103C20.2841 3.87103 19.7631 3.3501 19.7631 2.70959C19.7631 2.06927 20.2841 1.54834 20.9244 1.54834C21.3519 1.54834 21.6985 1.20172 21.6985 0.77417C21.6985 0.346619 21.3519 0 20.9244 0H5.05334C3.55939 0 2.34375 1.21564 2.34375 2.70959C2.34375 2.79803 2.36151 2.88153 2.36993 2.96759C2.36206 3.01117 2.34375 3.05109 2.34375 3.09686V20.6217C2.34375 22.4844 3.85931 24 5.72205 24H20.9244C21.3519 24 21.6985 23.6534 21.6985 23.2258V4.6452C21.6985 4.21765 21.3519 3.87103 20.9244 3.87103ZM5.05334 1.54834H18.4763C18.3089 1.90082 18.2148 2.29431 18.2148 2.70959C18.2148 3.12506 18.3089 3.51855 18.4763 3.87103H5.05334C4.41302 3.87103 3.89209 3.3501 3.89209 2.70959C3.89209 2.06927 4.41302 1.54834 5.05334 1.54834ZM5.72205 22.4517C4.71313 22.4517 3.89209 21.6306 3.89209 20.6217V5.14746C4.24548 5.31665 4.63623 5.41937 5.05334 5.41937H20.1502V22.4517H5.72205Z" fill="black"/>
</svg>
