<svg width="42" height="24" viewBox="0 0 42 24" fill="none" xmlns="http://www.w3.org/2000/svg">
<path d="M29.25 6.75C28.8358 6.75 28.5 6.41455 28.5 6V0.75C28.5 0.335449 28.8358 0 29.25 0C29.6642 0 30 0.335449 30 0.75V6C30 6.41455 29.6642 6.75 29.25 6.75Z" fill="black"/>
<path d="M31.5002 8.09985C31.1904 8.09985 30.9004 7.90649 30.7924 7.59741C30.6554 7.20629 30.8616 6.77856 31.2523 6.6416L37.252 4.54174C37.6449 4.40643 38.0712 4.61206 38.2078 5.00244C38.3447 5.39355 38.1386 5.82128 37.7478 5.95825L31.7482 8.0581C31.6661 8.08666 31.5823 8.09985 31.5002 8.09985Z" fill="black"/>
<path d="M41.9998 14.2528C41.9998 14.2518 42 14.2509 42 14.25C42 14.1852 41.9786 14.1271 41.963 14.0671C41.954 14.0319 41.9564 13.996 41.9421 13.9614L41.9414 13.9596C41.9409 13.9585 41.9405 13.9576 41.9401 13.9565L38.1936 4.96472C38.1936 4.96454 38.1934 4.96436 38.1934 4.96418L38.1923 4.96143C38.1848 4.94367 38.1698 4.93231 38.1614 4.91547C38.126 4.84552 38.0867 4.77722 38.0305 4.72101C37.89 4.57984 37.6992 4.49964 37.5002 4.50019C37.301 4.49964 37.1102 4.58002 36.9699 4.72101C36.9139 4.77722 36.8747 4.84516 36.8394 4.91492C36.8306 4.93195 36.8156 4.94348 36.808 4.96143L36.8069 4.96418C36.8069 4.96436 36.8068 4.96454 36.8068 4.96472L33.0602 13.9565C33.0597 13.9576 33.0593 13.9585 33.059 13.9596L33.058 13.9614C33.0438 13.996 33.0461 14.0319 33.0372 14.0671C33.0214 14.1271 33 14.1852 33 14.25C33 14.2509 33.0002 14.2518 33.0002 14.2528V14.2551C33.0031 16.7342 35.0204 18.75 37.5 18.75C39.9796 18.75 41.9969 16.7342 41.9996 14.2551C41.9998 14.2544 41.9998 14.2535 41.9998 14.2528ZM37.5 7.19971L40.1252 13.5H34.8748L37.5 7.19971ZM37.5 17.25C36.1047 17.25 34.9288 16.2927 34.5948 15H40.4052C40.0712 16.2927 38.8953 17.25 37.5 17.25Z" fill="black"/>
<path d="M29.25 5.25C27.5958 5.25 26.25 6.59546 26.25 8.25C26.25 8.29724 26.2619 8.34119 26.2639 8.38788L22.2524 9.79175C22.2455 9.79413 22.2411 9.79999 22.2341 9.80255C22.2272 9.8053 22.2193 9.80493 22.2122 9.80768C22.212 9.80786 22.2116 9.80786 22.2114 9.80786C22.2021 9.81171 22.1964 9.81995 22.1873 9.82434C22.153 9.84009 22.1245 9.86554 22.0928 9.8866C22.0573 9.9104 22.0173 9.92761 21.9868 9.95654C21.9814 9.96185 21.9756 9.96552 21.9703 9.97064C21.9399 10.001 21.923 10.0402 21.8985 10.075C21.8703 10.1147 21.8386 10.1508 21.8188 10.1953C21.8161 10.2014 21.8106 10.2052 21.8079 10.2114L21.8068 10.2142C21.8068 10.2144 21.8066 10.2145 21.8066 10.2147L18.0601 19.2065C18.0597 19.2076 18.0593 19.2085 18.0588 19.2096L18.058 19.2114C18.0438 19.246 18.0461 19.2819 18.0372 19.3171C18.0214 19.3771 18 19.4352 18 19.5C18 19.5009 18.0002 19.5018 18.0002 19.5027V19.5051C18.0031 21.9842 20.0204 24 22.5 24C24.9796 24 26.9969 21.9842 26.9996 19.5051C26.9996 19.5044 26.9998 19.5035 26.9998 19.5027C26.9998 19.5018 26.9998 19.5009 26.9998 19.5002C26.9998 19.4352 26.9784 19.3771 26.963 19.3173C26.954 19.2819 26.9564 19.2462 26.9421 19.2116L26.9412 19.2096C26.9409 19.2085 26.9405 19.2078 26.9399 19.2065L23.4979 10.9459L26.7067 9.82269C27.2364 10.676 28.1741 11.25 29.25 11.25C30.9042 11.25 32.25 9.90454 32.25 8.25C32.25 6.59546 30.9042 5.25 29.25 5.25ZM22.5 12.4497L25.1252 18.75H19.8748L22.5 12.4497ZM22.5 22.5C21.1047 22.5 19.9288 21.5427 19.5948 20.25H25.4052C25.0712 21.5427 23.8953 22.5 22.5 22.5ZM29.25 9.75C28.4227 9.75 27.75 9.0769 27.75 8.25C27.75 7.4231 28.4227 6.75 29.25 6.75C30.0773 6.75 30.75 7.4231 30.75 8.25C30.75 9.0769 30.0773 9.75 29.25 9.75Z" fill="black"/>
<path fill-rule="evenodd" clip-rule="evenodd" d="M6.71739 6.75C6.71739 6.33579 6.38161 6 5.96739 6C5.55318 6 5.21739 6.33579 5.21739 6.75V11.2174H0.75C0.335786 11.2174 0 11.5532 0 11.9674C0 12.3816 0.335786 12.7174 0.75 12.7174H5.21739V17.1848C5.21739 17.599 5.55318 17.9348 5.96739 17.9348C6.38161 17.9348 6.71739 17.599 6.71739 17.1848V12.7174H11.1848C11.599 12.7174 11.9348 12.3816 11.9348 11.9674C11.9348 11.5532 11.599 11.2174 11.1848 11.2174H6.71739V6.75Z" fill="black"/>
</svg>
