<svg width="28" height="28" viewBox="0 0 28 28" fill="none" xmlns="http://www.w3.org/2000/svg">
<g clip-path="url(#clip0)">
<path d="M14.8203 27.5625C14.3371 27.5625 13.9453 27.1712 13.9453 26.6875V18.2964C13.9453 17.8127 14.3371 17.4214 14.8203 17.4214C15.3035 17.4214 15.6953 17.8127 15.6953 18.2964V26.6875C15.6953 27.1712 15.3035 27.5625 14.8203 27.5625Z" fill="black"/>
<path d="M14.8203 4.81251C14.3371 4.81251 13.9453 4.42115 13.9453 3.93751V1.3125C13.9453 0.828858 14.3371 0.4375 14.8203 0.4375C15.3035 0.4375 15.6953 0.828858 15.6953 1.3125V3.93751C15.6953 4.42115 15.3035 4.81251 14.8203 4.81251Z" fill="black"/>
<path d="M27.689 6.81886L24.189 3.31885C24.025 3.15479 23.8024 3.0625 23.5704 3.0625H5.19532C4.71211 3.0625 4.32032 3.45386 4.32032 3.9375V10.0625C4.08833 10.0625 3.86573 10.1548 3.70167 10.3189L0.201661 13.8189C-0.140137 14.1607 -0.140137 14.7144 0.201661 15.0562L3.70167 18.5562C3.86573 18.7202 4.08833 18.8125 4.32032 18.8125H22.6954C23.1786 18.8125 23.5704 18.4212 23.5704 17.9375V11.8125C23.8024 11.8125 24.025 11.7202 24.189 11.5562L27.689 8.05616C28.0308 7.71437 28.0308 7.16065 27.689 6.81886ZM21.8204 17.0625H4.68263L2.05762 14.4375L4.68263 11.8125H21.8204V17.0625ZM23.2081 10.0625H6.07032V4.8125H23.2081L25.8331 7.43751L23.2081 10.0625Z" fill="black"/>
</g>
<defs>
<clipPath id="clip0">
<rect width="28" height="28" fill="white"/>
</clipPath>
</defs>
</svg>
