<svg width="28" height="28" viewBox="0 0 28 28" fill="none" xmlns="http://www.w3.org/2000/svg">
<g clip-path="url(#clip0)">
<path d="M6.06913e-05 19.1554L6.09944e-05 12.2234C6.10169e-05 11.7079 0.41748 11.29 0.93338 11.29C1.44928 11.29 1.8667 11.7079 1.8667 12.2234L1.8667 19.1554C1.8667 19.6709 1.44928 20.089 0.93338 20.089C0.41748 20.089 6.06688e-05 19.6709 6.06913e-05 19.1554Z" fill="black"/>
<path d="M15.3409 22.3054L17.5292 13.5554L25.2002 13.5555C26.0233 13.5555 26.8009 13.1957 27.3339 12.5683C27.8671 11.9415 28.0959 11.1122 27.963 10.2919C27.746 8.95978 26.5147 7.95532 25.1 7.95532L15.3655 7.95532L16.0125 6.9248C16.8978 5.51575 17.048 4.06097 16.4237 2.93411C15.8923 1.97302 14.8916 1.42187 13.6766 1.42187C13.395 1.42187 13.128 1.54962 12.95 1.7688L12.3649 2.49341C9.56218 5.96478 5.39482 7.95532 0.9333 7.95532C0.4174 7.95532 -1.93773e-05 8.37317 -1.93999e-05 8.88864C-1.94224e-05 9.40411 0.4174 9.82196 0.9333 9.82196C5.96199 9.82196 10.6578 7.57849 13.818 3.66641L14.0859 3.33401C14.4059 3.4107 14.6492 3.58289 14.7904 3.8371C15.0711 4.34488 14.9382 5.12823 14.4321 5.93124L12.8864 8.39175C12.7059 8.68036 12.695 9.04309 12.8599 9.34024C13.0239 9.63739 13.3367 9.82196 13.6766 9.82196L25.1 9.82196C25.6023 9.82196 26.0498 10.1599 26.1199 10.5916C26.1665 10.8762 26.0917 11.1473 25.9122 11.3592C25.7345 11.5688 25.4747 11.6886 25.2002 11.6886L14.0002 11.6886C13.4843 11.6886 13.0667 12.1064 13.0667 12.6219C13.0667 13.1374 13.4843 13.5552 14.0002 13.5552L15.6051 13.5552L15.1286 15.4612C15.0636 15.4471 15.0027 15.4219 14.9335 15.4219L14.0002 15.4219C13.4843 15.4219 13.0667 15.8399 13.0667 16.3554C13.0667 16.8707 13.4843 17.2887 14.0002 17.2887L14.6716 17.2887L14.1952 19.1947C14.1303 19.1804 14.0694 19.1554 14.0002 19.1554L13.0667 19.1554C12.5508 19.1554 12.1333 19.5732 12.1333 20.0887C12.1333 20.6042 12.5508 21.022 13.0667 21.022L13.7383 21.022L13.5307 21.8524C13.3777 22.4625 12.8317 22.8886 12.2028 22.8886L8.08284 22.8886L4.91374 21.1382C4.77616 21.0622 4.62022 21.022 4.46257 21.022L0.933299 21.022C0.4174 21.022 -1.99485e-05 21.4398 -1.9971e-05 21.9553C-1.99936e-05 22.4708 0.417399 22.8886 0.933299 22.8886L4.22203 22.8886L7.39112 24.6393C7.52891 24.7153 7.68464 24.7555 7.8423 24.7555L12.2028 24.7555C13.6902 24.7555 14.9809 23.7478 15.3409 22.3054Z" fill="black"/>
<path d="M27.0666 22.8886H19.5998C19.0844 22.8886 18.6665 22.4712 18.6665 21.9553C18.6665 21.4394 19.0844 21.022 19.5998 21.022H27.0666C27.5821 21.022 27.9999 21.4394 27.9999 21.9553C27.9999 22.4712 27.5821 22.8886 27.0666 22.8886Z" fill="black"/>
<path d="M24.2664 25.6887C24.0275 25.6887 23.7887 25.5974 23.6065 25.4152C23.2418 25.0506 23.2418 24.4599 23.6065 24.0955L25.7466 21.9552L23.6065 19.8151C23.2418 19.4504 23.2418 18.8598 23.6065 18.4953C23.9712 18.1309 24.5618 18.1307 24.9263 18.4953L27.7262 21.2953C28.0909 21.6599 28.0909 22.2506 27.7262 22.6151L24.9263 25.4152C24.744 25.5974 24.5052 25.6887 24.2664 25.6887Z" fill="black"/>
</g>
<defs>
<clipPath id="clip0">
<rect width="28" height="28" fill="white" transform="translate(28) rotate(90)"/>
</clipPath>
</defs>
</svg>
