<svg width="42" height="24" viewBox="0 0 42 24" fill="none" xmlns="http://www.w3.org/2000/svg">
<g clip-path="url(#clip0)">
<path d="M36.3106 23.0947C35.9328 23.0947 35.5545 22.9805 35.2195 22.7508L30.2015 19.3134C30.0824 19.2312 29.9292 19.2316 29.8103 19.313L24.7918 22.7508C24.0941 23.2291 23.2079 23.2073 22.5348 22.6941C21.8615 22.1814 21.6048 21.3332 21.8804 20.5331L23.7184 15.1999C23.7721 15.0437 23.7146 14.8691 23.578 14.7755L18.9267 11.5893C18.1434 11.0528 17.8187 10.12 18.0996 9.21275C18.3802 8.30546 19.1754 7.71952 20.1253 7.71952H25.9382C26.1085 7.71952 26.3564 7.54282 26.4121 7.38169L28.1853 2.23551C28.457 1.44687 29.1715 0.937469 30.0055 0.937469C30.8394 0.937469 31.5541 1.44687 31.8258 2.23496V2.23551L33.6883 7.64115C33.7044 7.68803 33.7486 7.71952 33.798 7.71952H39.87C40.8218 7.71952 41.6186 8.30692 41.9003 9.21586C42.1815 10.125 41.8565 11.0603 41.0712 11.5981L36.4327 14.7759C36.2965 14.8691 36.2388 15.0434 36.2926 15.1998L38.1307 20.5329C38.4062 21.3332 38.1493 22.1812 37.4762 22.6941C37.1265 22.9605 36.7189 23.0947 36.3106 23.0947ZM30.0055 17.683C30.3855 17.683 30.7654 17.7944 31.0899 18.0165L36.1073 21.4537C36.2928 21.5808 36.4476 21.5017 36.5237 21.4437C36.6001 21.3854 36.7173 21.2565 36.6446 21.0449L34.8067 15.7117C34.5231 14.889 34.8267 13.9706 35.5447 13.4786L40.1829 10.3011C40.4949 10.0874 40.4268 9.77232 40.3984 9.68095C40.37 9.58976 40.2485 9.29148 39.87 9.29148H33.798C33.078 9.29148 32.4368 8.83408 32.2022 8.15311L30.3397 2.74747C30.2681 2.54056 30.0995 2.50943 30.0055 2.50943C29.9114 2.50943 29.7426 2.54056 29.6712 2.74784L27.8982 7.89365C27.6237 8.69035 26.7814 9.29148 25.9382 9.29148H20.1253C19.75 9.29148 19.6295 9.58701 19.6015 9.67765C19.5731 9.76811 19.5059 10.0803 19.8152 10.292L24.4668 13.4787C25.1845 13.9711 25.4881 14.889 25.2045 15.7119L23.3665 21.045C23.294 21.2565 23.411 21.3854 23.4873 21.4438C23.563 21.5017 23.7186 21.5808 23.9037 21.4539L28.9217 18.0163C29.2458 17.794 29.6256 17.683 30.0055 17.683Z" fill="black"/>
</g>
<path fill-rule="evenodd" clip-rule="evenodd" d="M6.71739 6.75C6.71739 6.33579 6.38161 6 5.96739 6C5.55318 6 5.21739 6.33579 5.21739 6.75V11.2174H0.75C0.335786 11.2174 0 11.5532 0 11.9674C0 12.3816 0.335786 12.7174 0.75 12.7174H5.21739V17.1848C5.21739 17.599 5.55318 17.9348 5.96739 17.9348C6.38161 17.9348 6.71739 17.599 6.71739 17.1848V12.7174H11.1848C11.599 12.7174 11.9348 12.3816 11.9348 11.9674C11.9348 11.5532 11.599 11.2174 11.1848 11.2174H6.71739V6.75Z" fill="black"/>
<defs>
<clipPath id="clip0">
<rect width="24" height="24" fill="white" transform="translate(18)"/>
</clipPath>
</defs>
</svg>
