<svg width="108" height="80" viewBox="0 0 108 80" fill="none" xmlns="http://www.w3.org/2000/svg">
<path d="M37.3564 64.9717L37.2953 64.8647C37.2953 64.8647 34.5926 70.8107 31.079 74.3242C27.5655 77.8377 23.2412 79.9999 23.2412 79.9999H45.4034C38.3386 77.5064 36.5747 70.8594 37.3564 64.9717Z" fill="#BF5E41"/>
<path d="M53.5117 25.9459L64.8631 0L91.6198 60C95.3641 69.2483 99.7279 75.9459 107.025 80H77.5658H61.0793C71.3496 76.7568 71.3496 66.4865 68.6658 60L53.5117 25.9459Z" fill="black"/>
<path d="M4.36576 57.0862H1.83963L1.28774 58.3784H0L2.66074 52.2538H3.60747L6.27718 58.3784H4.91316L4.36576 57.0862ZM2.27486 56.0676H3.93502L3.40108 54.7978L3.12737 54.0126H3.09148L2.81329 54.8068L2.27486 56.0676Z" fill="black"/>
<path d="M10.1356 55.8074L10.4093 56.6195H10.4497L10.7324 55.7984L12.1143 52.2941H13.4694L10.8086 58.4188H9.88882L7.21014 52.2941H8.70428L10.1356 55.8074Z" fill="black"/>
<path d="M14.725 55.3452C14.725 54.8427 14.7983 54.3955 14.9448 54.0037C15.0914 53.6088 15.2978 53.2768 15.564 53.0076C15.8333 52.7384 16.1548 52.5335 16.5287 52.3929C16.9026 52.2493 17.3184 52.1775 17.7761 52.1775C18.2607 52.1775 18.6914 52.2538 19.0683 52.4063C19.4482 52.5589 19.7698 52.7742 20.033 53.0524C20.2962 53.3306 20.4967 53.6642 20.6342 54.053C20.7718 54.4389 20.8406 54.8666 20.8406 55.3363C20.8406 55.8089 20.7718 56.2396 20.6342 56.6285C20.4967 57.0174 20.2962 57.3509 20.033 57.6291C19.7698 57.9073 19.4482 58.1226 19.0683 58.2752C18.6914 58.4277 18.2607 58.504 17.7761 58.504C17.3184 58.504 16.9026 58.4337 16.5287 58.2931C16.1548 58.1496 15.8333 57.9432 15.564 57.6739C15.2978 57.4047 15.0914 57.0742 14.9448 56.6823C14.7983 56.2905 14.725 55.8448 14.725 55.3452ZM16.0845 55.3363C16.0845 55.6862 16.1249 55.9899 16.2057 56.2471C16.2864 56.5044 16.4001 56.7167 16.5467 56.8843C16.6962 57.0518 16.8742 57.1759 17.0806 57.2567C17.29 57.3374 17.5218 57.3778 17.7761 57.3778C18.0662 57.3778 18.3175 57.3255 18.5299 57.2208C18.7453 57.1161 18.9217 56.9725 19.0593 56.79C19.1999 56.6076 19.3031 56.3922 19.3689 56.1439C19.4377 55.8926 19.4721 55.6234 19.4721 55.3363C19.4721 55.0491 19.4377 54.7814 19.3689 54.5331C19.3031 54.2848 19.1999 54.071 19.0593 53.8915C18.9217 53.709 18.7453 53.5654 18.5299 53.4607C18.3175 53.3561 18.0662 53.3037 17.7761 53.3037C17.5218 53.3037 17.29 53.3441 17.0806 53.4248C16.8742 53.5056 16.6962 53.6298 16.5467 53.7973C16.4001 53.9648 16.2864 54.1772 16.2057 54.4344C16.1249 54.6887 16.0845 54.9893 16.0845 55.3363Z" fill="black"/>
<path d="M26.0627 55.1792H28.5036V57.9073C28.2972 58.0299 28.0878 58.1301 27.8754 58.2079C27.663 58.2857 27.4551 58.3455 27.2517 58.3874C27.0483 58.4322 26.8524 58.4621 26.6639 58.4771C26.4785 58.4921 26.308 58.4995 26.1524 58.4995C25.9281 58.4995 25.7007 58.4846 25.4704 58.4547C25.2401 58.4277 25.0142 58.3814 24.7929 58.3156C24.5745 58.2498 24.3636 58.1615 24.1602 58.0508C23.9598 57.9402 23.7759 57.8041 23.6084 57.6425C23.3182 57.3614 23.0983 57.0293 22.9488 56.6464C22.7992 56.2606 22.7244 55.8194 22.7244 55.3228C22.7244 55.0895 22.7454 54.8681 22.7872 54.6587C22.8321 54.4494 22.8904 54.2549 22.9622 54.0755C23.037 53.893 23.1253 53.7255 23.227 53.5729C23.3287 53.4174 23.4378 53.2768 23.5545 53.1511C23.728 52.9627 23.9194 52.8072 24.1288 52.6845C24.3382 52.5589 24.5551 52.4587 24.7794 52.3839C25.0068 52.3091 25.2356 52.2568 25.4659 52.2268C25.6993 52.1939 25.9236 52.1775 26.139 52.1775C26.5189 52.1775 26.9002 52.2119 27.2831 52.2807C27.666 52.3495 28.025 52.4602 28.36 52.6127L27.9876 53.721C27.7333 53.6013 27.4581 53.5026 27.162 53.4248C26.8658 53.3441 26.5697 53.3037 26.2736 53.3037C26.127 53.3037 25.9804 53.3112 25.8339 53.3261C25.6903 53.3411 25.5497 53.3665 25.4121 53.4024C25.2745 53.4383 25.1429 53.4877 25.0172 53.5505C24.8946 53.6133 24.7824 53.6926 24.6807 53.7883C24.4923 53.9648 24.3457 54.1846 24.241 54.4479C24.1393 54.7081 24.0885 55.0102 24.0885 55.3542C24.0885 55.761 24.1632 56.1095 24.3128 56.3997C24.4654 56.6868 24.6732 56.9082 24.9365 57.0637C25.116 57.1714 25.3164 57.2492 25.5377 57.297C25.7591 57.3449 26.0074 57.3688 26.2825 57.3688C26.3603 57.3688 26.4501 57.3658 26.5518 57.3599C26.6535 57.3539 26.7567 57.3419 26.8614 57.324C26.969 57.306 27.0752 57.2821 27.1799 57.2522C27.2846 57.2223 27.3774 57.1849 27.4581 57.14V56.099L26.0627 55.9644V55.1792Z" fill="black"/>
<path d="M34.5288 57.0862H32.0026L31.4507 58.3784H30.163L32.8237 52.2538H33.7705L36.4402 58.3784H35.0762L34.5288 57.0862ZM32.4379 56.0676H34.098L33.5641 54.7978L33.2904 54.0126H33.2545L32.9763 54.8068L32.4379 56.0676Z" fill="black"/>
<path d="M38.2567 52.2941C38.3823 52.2762 38.5319 52.2627 38.7054 52.2538C38.8789 52.2418 39.0583 52.2328 39.2438 52.2268C39.4292 52.2179 39.6102 52.2134 39.7867 52.2134C39.9662 52.2104 40.1217 52.2089 40.2533 52.2089C40.8336 52.2089 41.3302 52.2852 41.743 52.4377C42.1558 52.5903 42.4938 52.8042 42.757 53.0794C43.0203 53.3516 43.2132 53.6761 43.3358 54.053C43.4585 54.4269 43.5198 54.8382 43.5198 55.2869C43.5198 55.5561 43.4944 55.8224 43.4435 56.0856C43.3927 56.3458 43.3104 56.5956 43.1968 56.8349C43.0861 57.0712 42.941 57.2896 42.7615 57.49C42.585 57.6904 42.3712 57.8639 42.1199 58.0105C41.8716 58.157 41.583 58.2722 41.2539 58.356C40.9249 58.4367 40.554 58.4771 40.1412 58.4771C40.0724 58.4771 39.9856 58.4741 39.8809 58.4681C39.7762 58.4651 39.6626 58.4607 39.5399 58.4547C39.4203 58.4517 39.2946 58.4472 39.163 58.4412C39.0344 58.4352 38.9118 58.4292 38.7951 58.4233C38.6784 58.4173 38.5722 58.4113 38.4765 58.4053C38.3808 58.3993 38.3075 58.3933 38.2567 58.3874V52.2941ZM40.3476 53.3396C40.2788 53.3396 40.2055 53.3396 40.1277 53.3396C40.0499 53.3396 39.9737 53.3411 39.8989 53.3441C39.8271 53.3471 39.7583 53.3501 39.6925 53.3531C39.6297 53.3561 39.5788 53.359 39.5399 53.362V57.3105C39.5668 57.3165 39.6147 57.3225 39.6835 57.3285C39.7523 57.3314 39.8256 57.3344 39.9034 57.3374C39.9811 57.3374 40.0544 57.3389 40.1232 57.3419C40.195 57.3419 40.2444 57.3419 40.2713 57.3419C40.6422 57.3419 40.9488 57.2851 41.1911 57.1714C41.4334 57.0548 41.6263 56.9007 41.7699 56.7093C41.9135 56.5178 42.0137 56.301 42.0705 56.0587C42.1274 55.8134 42.1558 55.5606 42.1558 55.3004C42.1558 55.1927 42.1498 55.082 42.1378 54.9683C42.1259 54.8547 42.1049 54.7425 42.075 54.6318C42.0481 54.5182 42.0107 54.409 41.9629 54.3043C41.918 54.1966 41.8612 54.0949 41.7924 53.9992C41.6577 53.8077 41.4738 53.6507 41.2405 53.528C41.0101 53.4024 40.7125 53.3396 40.3476 53.3396Z" fill="black"/>
<path d="M45.6773 52.357C45.8179 52.333 45.9794 52.3121 46.1619 52.2941C46.3444 52.2762 46.5298 52.2612 46.7183 52.2493C46.9067 52.2343 47.0907 52.2239 47.2701 52.2179C47.4496 52.2119 47.6067 52.2089 47.7413 52.2089C47.8968 52.2089 48.0569 52.2164 48.2214 52.2313C48.3889 52.2433 48.5519 52.2657 48.7104 52.2986C48.872 52.3315 49.026 52.3749 49.1726 52.4288C49.3192 52.4796 49.4523 52.5424 49.5719 52.6172C49.7963 52.7608 49.9758 52.9492 50.1104 53.1826C50.248 53.4159 50.3168 53.6956 50.3168 54.0216C50.3168 54.2729 50.2824 54.4972 50.2136 54.6946C50.1448 54.8921 50.0505 55.0626 49.9309 55.2062C49.8142 55.3497 49.6751 55.4679 49.5136 55.5606C49.3551 55.6533 49.1846 55.7206 49.0021 55.7625L49.3162 56.0766L51.1648 58.3784H49.5764L47.7951 56.0228L46.9606 55.9196V58.3784H45.6773V52.357ZM47.7592 53.3396C47.6904 53.3396 47.6171 53.3411 47.5394 53.3441C47.4646 53.3441 47.3898 53.3456 47.315 53.3486C47.2432 53.3486 47.1759 53.3516 47.1131 53.3575C47.0503 53.3605 46.9994 53.365 46.9606 53.371V55.0536H47.6605C47.825 55.0536 47.9896 55.0416 48.1541 55.0177C48.3186 54.9908 48.4622 54.9414 48.5848 54.8696C48.6985 54.8008 48.7882 54.7081 48.854 54.5914C48.9198 54.4748 48.9527 54.3222 48.9527 54.1338C48.9527 54.0171 48.9228 53.902 48.863 53.7883C48.8032 53.6716 48.7194 53.5804 48.6117 53.5146C48.507 53.4488 48.3799 53.4039 48.2303 53.38C48.0808 53.3531 47.9237 53.3396 47.7592 53.3396Z" fill="black"/>
<path d="M52.6268 55.3452C52.6268 54.8427 52.7001 54.3955 52.8467 54.0037C52.9932 53.6088 53.1996 53.2768 53.4659 53.0076C53.7351 52.7384 54.0566 52.5335 54.4305 52.3929C54.8044 52.2493 55.2202 52.1775 55.6779 52.1775C56.1625 52.1775 56.5932 52.2538 56.9701 52.4063C57.35 52.5589 57.6716 52.7742 57.9348 53.0524C58.198 53.3306 58.3985 53.6642 58.5361 54.053C58.6737 54.4389 58.7425 54.8666 58.7425 55.3363C58.7425 55.8089 58.6737 56.2396 58.5361 56.6285C58.3985 57.0174 58.198 57.3509 57.9348 57.6291C57.6716 57.9073 57.35 58.1226 56.9701 58.2752C56.5932 58.4277 56.1625 58.504 55.6779 58.504C55.2202 58.504 54.8044 58.4337 54.4305 58.2931C54.0566 58.1496 53.7351 57.9432 53.4659 57.6739C53.1996 57.4047 52.9932 57.0742 52.8467 56.6823C52.7001 56.2905 52.6268 55.8448 52.6268 55.3452ZM53.9863 55.3363C53.9863 55.6862 54.0267 55.9899 54.1075 56.2471C54.1882 56.5044 54.3019 56.7167 54.4485 56.8843C54.598 57.0518 54.776 57.1759 54.9824 57.2567C55.1918 57.3374 55.4236 57.3778 55.6779 57.3778C55.9681 57.3778 56.2193 57.3255 56.4317 57.2208C56.6471 57.1161 56.8236 56.9725 56.9612 56.79C57.1017 56.6076 57.2049 56.3922 57.2708 56.1439C57.3396 55.8926 57.374 55.6234 57.374 55.3363C57.374 55.0491 57.3396 54.7814 57.2708 54.5331C57.2049 54.2848 57.1017 54.071 56.9612 53.8915C56.8236 53.709 56.6471 53.5654 56.4317 53.4607C56.2193 53.3561 55.9681 53.3037 55.6779 53.3037C55.4236 53.3037 55.1918 53.3441 54.9824 53.4248C54.776 53.5056 54.598 53.6298 54.4485 53.7973C54.3019 53.9648 54.1882 54.1772 54.1075 54.4344C54.0267 54.6887 53.9863 54.9893 53.9863 55.3363Z" fill="black"/>
</svg>
