<svg width="27" height="27" viewBox="0 0 27 27" fill="none" xmlns="http://www.w3.org/2000/svg">
<circle cx="12" cy="12" r="11" stroke="#DEBEA9" stroke-width="2"/>
<path d="M13 5C13 5 15 5 17 7C19 9 19 11 19 11" stroke="#DEBEA9" stroke-width="2" stroke-linecap="round" stroke-linejoin="round"/>
<path d="M20.7071 19.2929C20.3166 18.9024 19.6834 18.9024 19.2929 19.2929C18.9024 19.6834 18.9024 20.3166 19.2929 20.7071L20.7071 19.2929ZM25.2929 26.7071C25.6834 27.0976 26.3166 27.0976 26.7071 26.7071C27.0976 26.3166 27.0976 25.6834 26.7071 25.2929L25.2929 26.7071ZM19.2929 20.7071L25.2929 26.7071L26.7071 25.2929L20.7071 19.2929L19.2929 20.7071Z" fill="#DEBEA9"/>
</svg>
