<svg width="26" height="26" viewBox="0 0 26 26" fill="none" xmlns="http://www.w3.org/2000/svg">
<g clip-path="url(#clip0)">
<path d="M25.9853 4.39615C25.9806 4.3418 25.9693 4.29062 25.9534 4.23746C25.9371 4.1837 25.9177 4.13411 25.8913 4.08571C25.8794 4.06369 25.8776 4.03929 25.8635 4.01807C25.8488 3.99585 25.8256 3.98415 25.809 3.96371C25.7733 3.91968 25.735 3.88179 25.6908 3.84608C25.6507 3.81395 25.6108 3.78578 25.566 3.76218C25.5208 3.73778 25.4749 3.71992 25.4251 3.70425C25.3712 3.68759 25.3188 3.67668 25.2627 3.67152C25.2367 3.66895 25.2143 3.65625 25.1875 3.65625H0.8125C0.785919 3.65625 0.763306 3.66895 0.73732 3.67133C0.680588 3.67668 0.627426 3.68759 0.573074 3.70445C0.524277 3.71992 0.479446 3.73738 0.435013 3.76118C0.389191 3.78539 0.348526 3.81395 0.307663 3.84708C0.264221 3.88239 0.226532 3.91988 0.191223 3.96332C0.174561 3.98375 0.151352 3.99565 0.136475 4.01807C0.117828 4.04584 0.109894 4.07678 0.0952148 4.10574C0.0813293 4.13312 0.0674438 4.15871 0.0565338 4.18787C0.0226135 4.27951 0 4.37314 0 4.46796V4.46835V4.46875V18.9644C0 20.8275 1.5159 22.3438 3.37894 22.3438H22.6211C24.4841 22.3438 26 20.8275 26 18.9644V4.46875C26 4.44296 25.9877 4.42134 25.9853 4.39615ZM13 11.6172L3.49597 5.28125H22.504L13 11.6172ZM22.6211 20.7188H3.37894C2.41171 20.7188 1.625 19.9316 1.625 18.9644V5.98683L12.5493 13.2698C12.5594 13.2765 12.5709 13.2785 12.5813 13.2849C12.6265 13.312 12.6735 13.3333 12.7227 13.3511C12.7439 13.3588 12.7643 13.3692 12.7862 13.3749C12.8532 13.3934 12.9218 13.4043 12.9915 13.4051C12.994 13.4051 12.9966 13.4061 12.999 13.4061H12.9998H13.0008C13.0032 13.4061 13.0058 13.4051 13.0083 13.4051C13.078 13.4043 13.1466 13.3934 13.2136 13.3749C13.2355 13.369 13.2559 13.3588 13.2771 13.3511C13.3263 13.3331 13.3733 13.3118 13.4185 13.2849C13.4289 13.2785 13.4406 13.2765 13.4505 13.2698L24.375 5.98683V18.9644C24.375 19.9316 23.5883 20.7188 22.6211 20.7188Z" fill="black"/>
<path d="M21.6875 18.625H16.8125C16.3638 18.625 16 18.2616 16 17.8125C16 17.3634 16.3638 17 16.8125 17H21.6875C22.1362 17 22.5 17.3634 22.5 17.8125C22.5 18.2616 22.1362 18.625 21.6875 18.625Z" fill="black"/>
</g>
<defs>
<clipPath id="clip0">
<rect width="26" height="26" fill="white"/>
</clipPath>
</defs>
</svg>
