<svg width="28" height="28" viewBox="0 0 28 28" fill="none" xmlns="http://www.w3.org/2000/svg">
<path d="M24.4466 1.47656H16.6201C15.5791 1.47656 14.6505 1.93457 14 2.65021C13.3495 1.93457 12.4209 1.47656 11.3799 1.47656H3.55341C1.59406 1.47656 0 3.07062 0 5.03018V21.3125C0 22.7261 1.15015 23.8764 2.5639 23.8764H11.3799C12.3102 23.8764 13.0667 24.6329 13.0667 25.5636C13.0667 26.0795 13.4845 26.4969 14 26.4969C14.5155 26.4969 14.9333 26.0795 14.9333 25.5636C14.9333 24.6329 15.6898 23.8764 16.6201 23.8764H25.4361C26.8496 23.8764 28 22.7263 28 21.3125V5.03018C28 3.07062 26.4059 1.47656 24.4466 1.47656V1.47656ZM13.0667 22.4364C12.5645 22.1638 11.9902 22.0098 11.3799 22.0098H2.5639C2.17938 22.0098 1.86664 21.6973 1.86664 21.3125V5.03018C1.86664 4.09964 2.62308 3.3432 3.55341 3.3432H11.3799C12.3102 3.3432 13.0667 4.09964 13.0667 5.03018V22.4364ZM26.1334 21.3125C26.1334 21.6973 25.8206 22.0098 25.4361 22.0098H16.6201C16.0098 22.0098 15.4355 22.1638 14.9333 22.4364V5.03018C14.9333 4.09964 15.6898 3.3432 16.6201 3.3432H24.4466C25.3769 3.3432 26.1334 4.09964 26.1334 5.03018V21.3125Z" fill="black"/>
<path d="M23.3333 8.0097H17.7331C17.2177 8.0097 16.7998 7.59229 16.7998 7.07639C16.7998 6.56049 17.2177 6.14307 17.7331 6.14307H23.3333C23.8485 6.14307 24.2666 6.56049 24.2666 7.07639C24.2666 7.59229 23.8485 8.0097 23.3333 8.0097Z" fill="black"/>
<path d="M23.3333 11.7433H17.7331C17.2177 11.7433 16.7998 11.3259 16.7998 10.81C16.7998 10.2941 17.2177 9.87671 17.7331 9.87671H23.3333C23.8485 9.87671 24.2666 10.2941 24.2666 10.81C24.2666 11.3259 23.8485 11.7433 23.3333 11.7433Z" fill="black"/>
<path d="M23.3333 15.4765H17.7331C17.2177 15.4765 16.7998 15.0591 16.7998 14.5432C16.7998 14.0273 17.2177 13.6099 17.7331 13.6099H23.3333C23.8485 13.6099 24.2666 14.0273 24.2666 14.5432C24.2666 15.0591 23.8485 15.4765 23.3333 15.4765Z" fill="black"/>
<path d="M10.2668 9.87662H4.66672C4.15146 9.87662 3.7334 9.4592 3.7334 8.9433C3.7334 8.4274 4.15146 8.00977 4.66672 8.00977H10.2668C10.7823 8.00977 11.2002 8.4274 11.2002 8.9433C11.2002 9.4592 10.7823 9.87662 10.2668 9.87662Z" fill="black"/>
<path d="M10.2668 13.6098H4.66672C4.15146 13.6098 3.7334 13.1924 3.7334 12.6765C3.7334 12.1606 4.15146 11.7432 4.66672 11.7432H10.2668C10.7823 11.7432 11.2002 12.1606 11.2002 12.6765C11.2002 13.1924 10.7823 13.6098 10.2668 13.6098Z" fill="black"/>
<path d="M10.2668 17.3432H4.66672C4.15146 17.3432 3.7334 16.9258 3.7334 16.4099C3.7334 15.894 4.15146 15.4766 4.66672 15.4766H10.2668C10.7823 15.4766 11.2002 15.894 11.2002 16.4099C11.2002 16.9258 10.7823 17.3432 10.2668 17.3432Z" fill="black"/>
</svg>
