<svg width="28" height="28" viewBox="0 0 28 28" fill="none" xmlns="http://www.w3.org/2000/svg">
<path d="M17.675 28C17.1918 28 16.8 27.6082 16.8 27.125V21.5375L13.9999 18.7373L11.1997 21.5375V27.125C11.1997 27.6082 10.8079 28 10.3247 28C9.84149 28 9.44971 27.6082 9.44971 27.125V21.1752C9.44971 20.9432 9.54199 20.7206 9.70605 20.5565L13.3812 16.8813C13.723 16.5396 14.2767 16.5396 14.6185 16.8813L18.2937 20.5565C18.4578 20.7206 18.55 20.9432 18.55 21.1752V27.125C18.55 27.6082 18.1583 28 17.675 28Z" fill="black"/>
<path d="M21.875 26.25H21V20.125C21 19.893 20.9077 19.6704 20.7437 19.5063L15.2373 14L20.7437 8.49365C20.9077 8.32959 21 8.10699 21 7.875V1.75H21.875C22.3582 1.75 22.75 1.35822 22.75 0.875C22.75 0.391785 22.3582 0 21.875 0H6.125C5.64178 0 5.25 0.391785 5.25 0.875C5.25 1.35822 5.64178 1.75 6.125 1.75H7V7.875C7 8.10699 7.09229 8.32959 7.25635 8.49365L12.7627 14L7.25635 19.5063C7.09229 19.6704 7 19.893 7 20.125V26.25H6.125C5.64178 26.25 5.25 26.6418 5.25 27.125C5.25 27.6082 5.64178 28 6.125 28H21.875C22.3582 28 22.75 27.6082 22.75 27.125C22.75 26.6418 22.3582 26.25 21.875 26.25ZM8.75 1.75H19.25V7.5127L14 12.7627L8.75 7.5127V1.75ZM8.75 20.4873L14 15.2373L19.25 20.4873V26.25H8.75V20.4873Z" fill="black"/>
</svg>
