<svg width="28" height="28" viewBox="0 0 28 28" fill="none" xmlns="http://www.w3.org/2000/svg">
<g clip-path="url(#clip0)">
<path d="M19.1554 27.9999H12.2234C11.7079 27.9999 11.29 27.5825 11.29 27.0666C11.29 26.5507 11.7079 26.1333 12.2234 26.1333H19.1554C19.6709 26.1333 20.089 26.5507 20.089 27.0666C20.089 27.5825 19.6709 27.9999 19.1554 27.9999Z" fill="black"/>
<path d="M22.3055 12.6591L13.5555 10.4708V2.79976C13.5555 1.97667 13.1957 1.19908 12.5683 0.666096C11.9415 0.132892 11.1122 -0.0958978 10.2919 0.0369757C8.95978 0.254017 7.95532 1.48534 7.95532 2.89995V12.6345L6.9248 11.9875C5.51575 11.1022 4.06097 10.952 2.93411 11.5763C1.97302 12.1077 1.42188 13.1084 1.42188 14.3234C1.42188 14.605 1.54962 14.872 1.7688 15.05L2.49341 15.6351C5.96478 18.4378 7.95532 22.6052 7.95532 27.0667C7.95532 27.5826 8.37317 28 8.88864 28C9.40411 28 9.82196 27.5826 9.82196 27.0667C9.82196 22.038 7.57849 17.3422 3.66641 14.182L3.33401 13.9141C3.41071 13.5941 3.58289 13.3508 3.8371 13.2096C4.34488 12.9289 5.12823 13.0618 5.93124 13.5679L8.39175 15.1136C8.68036 15.2941 9.04309 15.305 9.34024 15.1401C9.63739 14.9761 9.82196 14.6633 9.82196 14.3234V2.89995C9.82196 2.39772 10.1599 1.95018 10.5916 1.88012C10.8762 1.83355 11.1473 1.90831 11.3592 2.08776C11.5688 2.26549 11.6886 2.52526 11.6886 2.79976V13.9998C11.6886 14.5157 12.1064 14.9333 12.6219 14.9333C13.1374 14.9333 13.5552 14.5157 13.5552 13.9998V12.3949L15.4612 12.8714C15.4471 12.9364 15.4219 12.9973 15.4219 13.0665V13.9998C15.4219 14.5157 15.8399 14.9333 16.3554 14.9333C16.8707 14.9333 17.2887 14.5157 17.2887 13.9998V13.3284L19.1947 13.8048C19.1804 13.8697 19.1554 13.9306 19.1554 13.9998V14.9333C19.1554 15.4492 19.5732 15.8667 20.0887 15.8667C20.6042 15.8667 21.022 15.4492 21.022 14.9333V14.2617L21.8524 14.4693C22.4625 14.6223 22.8886 15.1683 22.8886 15.7972V19.9172L21.1382 23.0863C21.0622 23.2238 21.022 23.3798 21.022 23.5374V27.0667C21.022 27.5826 21.4398 28 21.9553 28C22.4708 28 22.8886 27.5826 22.8886 27.0667V23.778L24.6393 20.6089C24.7153 20.4711 24.7555 20.3154 24.7555 20.1577V15.7972C24.7555 14.3098 23.7478 13.0191 22.3055 12.6591Z" fill="black"/>
<path d="M22.8886 0.933411L22.8886 8.40018C22.8886 8.91565 22.4712 9.3335 21.9553 9.3335C21.4394 9.3335 21.022 8.91565 21.022 8.40018L21.022 0.933411C21.022 0.417938 21.4394 9.15345e-05 21.9553 9.15119e-05C22.4712 9.14894e-05 22.8886 0.417938 22.8886 0.933411Z" fill="black"/>
<path d="M25.6887 3.73338C25.6887 3.97221 25.5974 4.21104 25.4152 4.39326C25.0506 4.75791 24.4599 4.75791 24.0955 4.39326L21.9552 2.25318L19.8151 4.39326C19.4504 4.75791 18.8598 4.75791 18.4953 4.39326C18.1309 4.0286 18.1307 3.43793 18.4953 3.07349L21.2953 0.273537C21.6599 -0.091118 22.2506 -0.091118 22.6151 0.273536L25.4152 3.07349C25.5974 3.25571 25.6887 3.49454 25.6887 3.73338Z" fill="black"/>
</g>
<defs>
<clipPath id="clip0">
<rect width="28" height="28" fill="white"/>
</clipPath>
</defs>
</svg>
