<svg width="111" height="83" viewBox="0 0 111 83" fill="none" xmlns="http://www.w3.org/2000/svg">
<path d="M6.97648 58.9639C7.10258 58.9639 7.1814 59.0372 7.21555 59.1864L10.3997 70.665C10.4122 70.6924 10.4148 70.7232 10.4072 70.7523C10.3995 70.7814 10.382 70.807 10.3577 70.8248C10.3063 70.8655 10.2421 70.8868 10.1764 70.885H7.91702C7.79091 70.885 7.7121 70.8117 7.67794 70.665L6.97648 68.1043H3.43499L2.73353 70.665C2.69937 70.8117 2.61793 70.885 2.49182 70.885H0.235046C0.169384 70.8868 0.105176 70.8655 0.0537678 70.8248C0.0294219 70.807 0.0119533 70.7814 0.00429826 70.7523C-0.0033568 70.7232 -0.000731674 70.6924 0.0117324 70.665L3.19592 59.1864C3.23007 59.0372 3.30889 58.9639 3.43499 58.9639H6.97648ZM4.34926 64.5251L4.00773 65.8029H6.40374L6.04382 64.5251L5.25565 61.0952H5.1348L4.34926 64.5251Z" fill="white"/>
<path d="M21.2501 70.6309C21.267 70.659 21.2759 70.6911 21.2759 70.7239C21.2759 70.7566 21.267 70.7888 21.2501 70.8168C21.2321 70.8459 21.2064 70.8694 21.1758 70.8847C21.1451 70.8999 21.1108 70.9064 21.0767 70.9032H18.5782C18.519 70.904 18.4608 70.8885 18.4098 70.8585C18.3589 70.8285 18.3171 70.7851 18.2892 70.733L15.5149 66.0751H14.464V70.6938C14.4684 70.724 14.4657 70.7549 14.456 70.7839C14.4464 70.8129 14.43 70.8392 14.4083 70.8609C14.3867 70.8825 14.3602 70.8987 14.3311 70.9084C14.302 70.918 14.271 70.9207 14.2407 70.9163H12.026C11.9956 70.9207 11.9647 70.918 11.9355 70.9084C11.9064 70.8987 11.88 70.8825 11.8583 70.8609C11.8366 70.8392 11.8203 70.8129 11.8106 70.7839C11.801 70.7549 11.7982 70.724 11.8026 70.6938V59.1994C11.7982 59.1692 11.801 59.1384 11.8106 59.1093C11.8203 59.0803 11.8366 59.054 11.8583 59.0324C11.88 59.0108 11.9064 58.9945 11.9355 58.9849C11.9647 58.9752 11.9956 58.9725 12.026 58.9769H14.2486C14.2789 58.9725 14.3099 58.9752 14.339 58.9849C14.3681 58.9945 14.3945 59.0108 14.4162 59.0324C14.4379 59.054 14.4542 59.0803 14.4639 59.1093C14.4736 59.1384 14.4763 59.1692 14.4719 59.1994V63.771H15.4807L18.1526 59.1471C18.1803 59.0949 18.222 59.0513 18.273 59.0213C18.324 58.9912 18.3824 58.9759 18.4416 58.9769H20.8902C20.9229 58.9736 20.9558 58.98 20.9848 58.9954C21.0138 59.0108 21.0376 59.0344 21.0531 59.0633C21.0678 59.0921 21.0755 59.1239 21.0755 59.1562C21.0755 59.1886 21.0678 59.2204 21.0531 59.2492L17.8426 64.8314L21.2501 70.6309Z" fill="white"/>
<path d="M27.2034 58.9639C27.7707 58.9585 28.336 59.0334 28.8822 59.1865C29.3688 59.3206 29.823 59.5522 30.2168 59.8672C30.6002 60.1844 30.902 60.5884 31.0969 61.0454C31.3203 61.5855 31.4286 62.166 31.4148 62.75V62.9201C31.4268 63.5208 31.3131 64.1173 31.0812 64.6718C30.874 65.151 30.5605 65.5771 30.1643 65.9181C29.7586 66.2571 29.2873 66.5093 28.7797 66.6591C28.2192 66.8277 27.6365 66.9116 27.051 66.9078H25.3906V70.6939C25.395 70.7241 25.3923 70.755 25.3826 70.784C25.3729 70.813 25.3566 70.8393 25.3349 70.861C25.3133 70.8826 25.2868 70.8988 25.2577 70.9085C25.2286 70.9181 25.1976 70.9208 25.1673 70.9164H22.942C22.9119 70.9204 22.8812 70.9173 22.8525 70.9075C22.8237 70.8976 22.7976 70.8813 22.7762 70.8598C22.7549 70.8382 22.7388 70.812 22.7293 70.7832C22.7198 70.7545 22.717 70.7239 22.7214 70.6939V59.1995C22.717 59.1695 22.7198 59.139 22.7293 59.1102C22.7388 59.0814 22.7549 59.0552 22.7762 59.0337C22.7976 59.0121 22.8237 58.9958 22.8525 58.9859C22.8812 58.9761 22.9119 58.973 22.942 58.977L27.2034 58.9639ZM28.7114 62.9044C28.7291 62.6804 28.6976 62.4551 28.6191 62.2444C28.5406 62.0337 28.417 61.8426 28.2569 61.6843C27.9556 61.4172 27.4679 61.2837 26.7935 61.2837H25.4064V64.7294H26.7594C27.4319 64.7294 27.9224 64.5871 28.2306 64.3026C28.3918 64.1393 28.5164 63.9438 28.5961 63.7289C28.6758 63.5141 28.7088 63.2848 28.693 63.0563L28.7114 62.9044Z" fill="white"/>
<path d="M37.8988 58.7417C38.5178 58.7411 39.1322 58.8483 39.7142 59.0585C40.2882 59.2638 40.8127 59.5867 41.2538 60.0063C41.7113 60.4503 42.0695 60.9856 42.3046 61.5773C42.5798 62.2839 42.7137 63.0372 42.6987 63.795V66.0468C42.714 66.8045 42.5801 67.558 42.3046 68.2645C42.0711 68.8608 41.7129 69.4008 41.2538 69.8485C40.8127 70.2682 40.2882 70.5911 39.7142 70.7963C39.1321 71.0057 38.5177 71.1121 37.8988 71.1105H37.6361C37.0172 71.1121 36.4028 71.0057 35.8207 70.7963C35.2467 70.5911 34.7222 70.2682 34.2811 69.8485C33.822 69.4008 33.4638 68.8608 33.2302 68.2645C32.9548 67.558 32.8209 66.8045 32.8362 66.0468V63.795C32.8212 63.0372 32.9551 62.2839 33.2302 61.5773C33.4654 60.9856 33.8236 60.4503 34.2811 60.0063C34.7222 59.5867 35.2467 59.2638 35.8207 59.0585C36.4027 58.8483 37.017 58.7411 37.6361 58.7417H37.8988ZM37.7123 61.0458C37.4175 61.0272 37.1223 61.0757 36.8492 61.1878C36.5761 61.2999 36.3321 61.4725 36.1359 61.6925C35.7646 62.1254 35.579 62.7512 35.579 63.5698V66.2824C35.579 67.0993 35.7646 67.7242 36.1359 68.1571C36.332 68.3775 36.5758 68.5505 36.849 68.663C37.1221 68.7755 37.4173 68.8245 37.7123 68.8064H37.8489C38.1438 68.8244 38.439 68.7752 38.7121 68.6627C38.9852 68.5502 39.229 68.3773 39.4252 68.1571C39.7948 67.726 39.9804 67.1011 39.9822 66.2824V63.5698C39.9822 62.7512 39.7965 62.1254 39.4252 61.6925C39.2289 61.4726 38.985 61.3001 38.7119 61.1881C38.4388 61.076 38.1436 61.0274 37.8489 61.0458H37.7123Z" fill="white"/>
<path d="M53.9353 58.964C53.9655 58.96 53.9961 58.9631 54.0249 58.9729C54.0536 58.9827 54.0797 58.9991 54.1011 59.0206C54.1225 59.0422 54.1386 59.0684 54.1481 59.0971C54.1576 59.1259 54.1603 59.1565 54.156 59.1865V70.6939C54.1603 70.7239 54.1576 70.7545 54.1481 70.7833C54.1386 70.812 54.1225 70.8382 54.1011 70.8598C54.0797 70.8813 54.0536 70.8977 54.0249 70.9075C53.9961 70.9173 53.9655 70.9204 53.9353 70.9165H51.7101C51.6803 70.9195 51.6503 70.9158 51.6222 70.9056C51.5941 70.8954 51.5687 70.8789 51.548 70.8575C51.5272 70.836 51.5116 70.8102 51.5024 70.7818C51.4931 70.7535 51.4905 70.7234 51.4946 70.6939V65.981H47.2911V70.6939C47.2955 70.7242 47.2928 70.755 47.2831 70.784C47.2734 70.813 47.2571 70.8394 47.2354 70.861C47.2137 70.8826 47.1873 70.8989 47.1582 70.9085C47.1291 70.9181 47.0981 70.9209 47.0678 70.9165H44.8425C44.8124 70.9204 44.7817 70.9173 44.753 70.9075C44.7242 70.8977 44.6981 70.8813 44.6767 70.8598C44.6554 70.8382 44.6393 70.812 44.6298 70.7833C44.6202 70.7545 44.6175 70.7239 44.6218 70.6939V59.1996C44.6175 59.1696 44.6202 59.139 44.6298 59.1102C44.6393 59.0815 44.6554 59.0553 44.6767 59.0337C44.6981 59.0122 44.7242 58.9958 44.753 58.986C44.7817 58.9762 44.8124 58.9731 44.8425 58.977H47.0678C47.0981 58.9727 47.1291 58.9754 47.1582 58.985C47.1873 58.9946 47.2137 59.0109 47.2354 59.0325C47.2571 59.0541 47.2734 59.0805 47.2831 59.1095C47.2928 59.1385 47.2955 59.1694 47.2911 59.1996V63.6847H51.4946V59.1865C51.4902 59.1563 51.493 59.1254 51.5026 59.0964C51.5123 59.0674 51.5286 59.041 51.5503 59.0194C51.572 58.9978 51.5984 58.9816 51.6275 58.9719C51.6566 58.9623 51.6876 58.9596 51.7179 58.964H53.9353Z" fill="white"/>
<path d="M65.1272 58.7259C65.4013 58.725 65.6751 58.7425 65.9469 58.7782C66.2227 58.8096 66.4723 58.8542 66.7088 58.9039C66.9452 58.9537 67.1554 59.0139 67.3419 59.0741C67.4999 59.1236 67.6522 59.1894 67.7964 59.2705C67.8522 59.3039 67.9012 59.3474 67.9409 59.3988C67.9855 59.467 68.0067 59.5479 68.0014 59.6292V61.4384C68.0026 61.4693 67.9952 61.4999 67.9799 61.5267C67.9645 61.5536 67.9419 61.5756 67.9147 61.5903C67.8871 61.6075 67.8559 61.6181 67.8236 61.6213C67.7912 61.6245 67.7585 61.6201 67.7281 61.6086C67.3619 61.4426 66.9844 61.3027 66.5984 61.1897C66.2015 61.0865 65.7922 61.0381 65.382 61.0457H65.298C64.9147 61.0295 64.5323 61.0939 64.1757 61.2347C63.819 61.3754 63.496 61.5893 63.2277 61.8626C62.7023 62.4107 62.4396 63.1787 62.4396 64.1667V65.6853C62.4396 66.6715 62.7023 67.4387 63.2277 67.9868C63.4959 68.2604 63.8188 68.4747 64.1754 68.6159C64.5321 68.7571 64.9145 68.8219 65.298 68.8063H65.382C65.8099 68.8144 66.2365 68.7597 66.6484 68.644C67.0151 68.5295 67.3756 68.3958 67.7281 68.2434C67.7583 68.2314 67.7909 68.2266 67.8233 68.2294C67.8556 68.2321 67.8869 68.2423 67.9147 68.2591C67.9421 68.2742 67.9648 68.2967 67.9802 68.324C67.9955 68.3513 68.0028 68.3823 68.0014 68.4136V70.2464C68.0017 70.3187 67.9807 70.3894 67.941 70.45C67.9013 70.5105 67.8446 70.558 67.7781 70.5867C67.6317 70.669 67.4766 70.7349 67.3157 70.7831C67.1239 70.8459 66.9058 70.9009 66.6667 70.9533C66.4277 71.0057 66.1728 71.0476 65.9049 71.0816C65.6434 71.1146 65.3802 71.1312 65.1167 71.1313H64.8776C64.2171 71.1341 63.5617 71.0161 62.944 70.7831C62.3321 70.5537 61.7735 70.2028 61.302 69.7515C60.8054 69.2713 60.4145 68.6936 60.1539 68.0548C59.855 67.3057 59.7094 66.5045 59.7257 65.6984V64.1641C59.7094 63.358 59.855 62.5568 60.1539 61.8076C60.4145 61.1689 60.8054 60.5911 61.302 60.1109C61.7735 59.6597 62.3321 59.3087 62.944 59.0793C63.5616 58.8455 64.217 58.7266 64.8776 58.7285L65.1272 58.7259Z" fill="white"/>
<path d="M78.9543 70.6309C78.9686 70.6592 78.9752 70.6906 78.9734 70.7222C78.9717 70.7537 78.9617 70.7843 78.9444 70.8108C78.9271 70.8373 78.9032 70.8588 78.8749 70.8732C78.8467 70.8876 78.8152 70.8943 78.7835 70.8928H76.285C76.2254 70.894 76.1666 70.8787 76.1151 70.8487C76.0636 70.8187 76.0215 70.775 75.9934 70.7226L73.2217 66.0751H72.1708V70.6938C72.1751 70.7238 72.1724 70.7544 72.1629 70.7831C72.1534 70.8119 72.1373 70.8381 72.1159 70.8597C72.0945 70.8812 72.0685 70.8975 72.0397 70.9074C72.0109 70.9172 71.9803 70.9203 71.9501 70.9163H69.7249C69.6945 70.9207 69.6636 70.918 69.6345 70.9084C69.6054 70.8987 69.5789 70.8825 69.5572 70.8609C69.5356 70.8392 69.5192 70.8129 69.5096 70.7839C69.4999 70.7549 69.4972 70.724 69.5016 70.6938V59.1994C69.4972 59.1692 69.4999 59.1384 69.5096 59.1093C69.5192 59.0803 69.5356 59.054 69.5572 59.0324C69.5789 59.0108 69.6054 58.9945 69.6345 58.9849C69.6636 58.9752 69.6945 58.9725 69.7249 58.9769H71.9501C71.9803 58.9729 72.0109 58.976 72.0397 58.9858C72.0685 58.9957 72.0945 59.012 72.1159 59.0336C72.1373 59.0551 72.1534 59.0813 72.1629 59.1101C72.1724 59.1389 72.1751 59.1695 72.1708 59.1994V63.771H73.1823L75.8515 59.1471C75.8796 59.0947 75.9218 59.051 75.9732 59.021C76.0247 58.9909 76.0835 58.9757 76.1432 58.9769H78.5891C78.6218 58.9736 78.6547 58.98 78.6837 58.9954C78.7127 59.0108 78.7365 59.0344 78.752 59.0633C78.7674 59.0919 78.7754 59.1238 78.7754 59.1562C78.7754 59.1887 78.7674 59.2206 78.752 59.2492L75.5494 64.8445L78.9543 70.6309Z" fill="white"/>
<path d="M84.9102 58.9639C85.4766 58.9585 86.041 59.0334 86.5863 59.1865C87.0732 59.3201 87.5274 59.5518 87.9209 59.8672C88.3043 60.1844 88.6061 60.5884 88.8011 61.0454C89.0256 61.5852 89.1339 62.1659 89.1189 62.75V62.9201C89.1316 63.5225 89.018 64.1209 88.7853 64.677C88.5781 65.1562 88.2646 65.5823 87.8684 65.9233C87.4631 66.2628 86.9917 66.5151 86.4838 66.6643C85.9234 66.8332 85.3406 66.917 84.7551 66.9131H83.0947V70.6939C83.0992 70.7241 83.0964 70.755 83.0868 70.784C83.0771 70.813 83.0608 70.8393 83.0391 70.861C83.0174 70.8826 82.991 70.8988 82.9618 70.9085C82.9327 70.9181 82.9018 70.9208 82.8714 70.9164H80.6567C80.6263 70.9208 80.5954 70.9181 80.5663 70.9085C80.5372 70.8988 80.5107 70.8826 80.489 70.861C80.4674 70.8393 80.451 70.813 80.4414 70.784C80.4317 70.755 80.429 70.7241 80.4334 70.6939V59.1995C80.429 59.1693 80.4317 59.1384 80.4414 59.1094C80.451 59.0804 80.4674 59.0541 80.489 59.0325C80.5107 59.0109 80.5372 58.9946 80.5663 58.985C80.5954 58.9753 80.6263 58.9726 80.6567 58.977L84.9102 58.9639ZM86.4155 62.9044C86.4332 62.6804 86.4018 62.4551 86.3233 62.2444C86.2448 62.0337 86.1212 61.8426 85.961 61.6843C85.6598 61.4172 85.172 61.2837 84.4977 61.2837H83.1105V64.7294H84.4635C85.1361 64.7294 85.6265 64.5871 85.9348 64.3026C86.0964 64.1396 86.2212 63.9441 86.301 63.7292C86.3807 63.5143 86.4135 63.2849 86.3972 63.0563L86.4155 62.9044Z" fill="white"/>
<path d="M95.7974 58.9639C95.9235 58.9639 96.0023 59.0372 96.0364 59.1864L99.2206 70.665C99.2328 70.6927 99.235 70.7237 99.2269 70.7528C99.2187 70.7819 99.2007 70.8073 99.1759 70.8247C99.1259 70.8662 99.0623 70.8876 98.9973 70.885H96.7379C96.6118 70.885 96.533 70.8117 96.4988 70.665L95.7974 68.1043H92.2559L91.5544 70.665C91.5177 70.8117 91.4388 70.885 91.3127 70.885H89.0638C88.998 70.8883 88.9333 70.8668 88.8826 70.8247C88.8582 70.807 88.8408 70.7814 88.8331 70.7523C88.8254 70.7232 88.8281 70.6924 88.8405 70.665L92.0221 59.1864C92.0562 59.0372 92.1377 58.9639 92.2638 58.9639H95.7974ZM93.1702 64.5251L92.8286 65.8029H95.222L94.8805 64.5251L94.0923 61.0952H93.9715L93.1702 64.5251Z" fill="white"/>
<path d="M109.916 58.964C109.946 58.9596 109.977 58.9623 110.006 58.9719C110.036 58.9816 110.062 58.9978 110.084 59.0194C110.105 59.041 110.122 59.0674 110.131 59.0964C110.141 59.1254 110.144 59.1563 110.139 59.1865V70.6939C110.144 70.7242 110.141 70.755 110.131 70.784C110.122 70.813 110.105 70.8394 110.084 70.861C110.062 70.8826 110.036 70.8989 110.006 70.9085C109.977 70.9181 109.946 70.9209 109.916 70.9165H107.691C107.66 70.9209 107.629 70.9181 107.6 70.9085C107.571 70.8989 107.545 70.8826 107.523 70.861C107.501 70.8394 107.485 70.813 107.475 70.784C107.466 70.755 107.463 70.7242 107.467 70.6939V61.2681H103.311V70.6939C103.316 70.7242 103.313 70.755 103.303 70.784C103.294 70.813 103.277 70.8394 103.256 70.861C103.234 70.8826 103.207 70.8989 103.178 70.9085C103.149 70.9181 103.118 70.9209 103.088 70.9165H100.863C100.832 70.9209 100.801 70.9181 100.772 70.9085C100.743 70.8989 100.717 70.8826 100.695 70.861C100.673 70.8394 100.657 70.813 100.647 70.784C100.638 70.755 100.635 70.7242 100.639 70.6939V59.1996C100.635 59.1694 100.638 59.1385 100.647 59.1095C100.657 59.0805 100.673 59.0541 100.695 59.0325C100.717 59.0109 100.743 58.9946 100.772 58.985C100.801 58.9754 100.832 58.9727 100.863 58.977L109.916 58.964Z" fill="white"/>
<path d="M62.4212 11.9995L56.6229 22.0014L63.0675 33.1161H50.1731L44.4064 43.0577H68.8342L74.6062 53.002H86.2027L62.4212 11.9995Z" fill="white"/>
<path d="M43.2531 45.0479L38.6397 53.0022H72.2864L67.6678 45.0479H43.2531Z" fill="white"/>
<path d="M54.3005 22.0015L61.26 9.99927L55.4591 0L24.718 53.0022H36.3198L49.0066 31.1263H59.5943L54.3005 22.0015Z" fill="white"/>
<path d="M93.2306 47.9148C93.7296 48.4113 94.0405 49.0649 94.1102 49.7641C94.1799 50.4634 94.0042 51.1652 93.6129 51.7498C93.2216 52.3344 92.639 52.7657 91.9644 52.9702C91.2898 53.1747 90.5649 53.1398 89.9132 52.8713C89.2616 52.6028 88.7235 52.1174 88.3908 51.4979C88.058 50.8783 87.9511 50.1629 88.0882 49.4736C88.2254 48.7843 88.5982 48.1637 89.143 47.7176C89.6879 47.2715 90.3711 47.0275 91.0762 47.0272C91.4771 47.0208 91.875 47.0963 92.2455 47.2489C92.616 47.4016 92.9513 47.6282 93.2306 47.9148ZM92.8023 51.8161C93.2542 51.3425 93.5062 50.714 93.5062 50.0605C93.5062 49.407 93.2542 48.7785 92.8023 48.305C92.5759 48.0776 92.3066 47.8971 92.0099 47.774C91.7132 47.6509 91.395 47.5875 91.0736 47.5875C90.7522 47.5875 90.434 47.6509 90.1373 47.774C89.8406 47.8971 89.5713 48.0776 89.3449 48.305C88.8912 48.7776 88.638 49.4065 88.638 50.0605C88.638 50.7146 88.8912 51.3434 89.3449 51.8161C89.5713 52.0435 89.8406 52.2239 90.1373 52.347C90.434 52.4702 90.7522 52.5336 91.0736 52.5336C91.395 52.5336 91.7132 52.4702 92.0099 52.347C92.3066 52.2239 92.5759 52.0435 92.8023 51.8161ZM92.3977 51.6957H91.7173L91.0421 50.3865H90.6217V51.6957H90.0175V48.4123H91.2549C91.3947 48.4084 91.5338 48.4323 91.6642 48.4827C91.7946 48.533 91.9135 48.6088 92.0142 48.7056C92.1105 48.7974 92.1869 48.908 92.2384 49.0305C92.2899 49.1531 92.3156 49.2849 92.3137 49.4177C92.3198 49.6189 92.2558 49.8161 92.1324 49.9754C92.0122 50.1292 91.8497 50.2448 91.6647 50.308L92.3977 51.6957ZM91.5649 49.7764C91.613 49.7312 91.6513 49.6766 91.6775 49.616C91.7037 49.5555 91.7172 49.4902 91.7172 49.4243C91.7172 49.3583 91.7037 49.2931 91.6775 49.2325C91.6513 49.172 91.613 49.1174 91.5649 49.0721C91.4603 48.9752 91.3214 48.9234 91.1787 48.9281H90.6217V49.9178H91.1787C91.2496 49.9199 91.3202 49.9081 91.3865 49.8829C91.4527 49.8577 91.5134 49.8198 91.5649 49.7712V49.7764Z" fill="white"/>
<path d="M41.0646 74.8569C41.9631 74.8569 42.6584 75.0585 43.1506 75.4618C43.6428 75.865 43.888 76.4646 43.8862 77.2605V77.4438C43.9061 77.7931 43.8483 78.1425 43.7171 78.467C43.5858 78.7915 43.3843 79.0832 43.1269 79.3211C42.6199 79.7715 41.9105 79.994 40.9963 79.994H39.5329V82.738C39.535 82.7534 39.5336 82.7691 39.5287 82.7838C39.5238 82.7986 39.5156 82.812 39.5047 82.8231C39.4938 82.8342 39.4805 82.8427 39.4658 82.8479C39.4511 82.8531 39.4354 82.855 39.4199 82.8532H38.4584C38.4438 82.8534 38.4294 82.8504 38.4162 82.8445C38.4029 82.8385 38.3911 82.8297 38.3816 82.8188C38.3721 82.8078 38.3651 82.7949 38.3611 82.7809C38.3571 82.767 38.3563 82.7523 38.3586 82.738V74.9826C38.3564 74.9673 38.3578 74.9517 38.3627 74.9371C38.3676 74.9224 38.3758 74.9091 38.3868 74.8982C38.3977 74.8872 38.4111 74.879 38.4258 74.8741C38.4405 74.8692 38.4562 74.8678 38.4715 74.87L41.0646 74.8569ZM42.6882 77.3286C42.6981 77.1348 42.6665 76.9412 42.5954 76.7606C42.5242 76.58 42.4153 76.4166 42.2757 76.2813C42.013 76.0195 41.5401 75.9043 40.8938 75.9043H39.5329V79.0017H40.8807C41.5305 79.0017 41.9937 78.8594 42.2705 78.5749C42.411 78.4271 42.5204 78.2527 42.5921 78.062C42.6639 77.8713 42.6965 77.6682 42.6882 77.4648V77.3286Z" fill="white"/>
<path d="M47.4067 76.999C47.743 76.9967 48.0773 77.0525 48.3945 77.164C48.6948 77.2692 48.9695 77.436 49.2011 77.6536C49.4373 77.8823 49.6226 78.158 49.7449 78.4627C49.8828 78.8164 49.9506 79.1934 49.9446 79.5728V80.4159C49.9509 80.7954 49.8831 81.1725 49.7449 81.5261C49.6226 81.8308 49.4373 82.1065 49.2011 82.3351C48.9702 82.5537 48.6952 82.7206 48.3945 82.8248C48.0773 82.9363 47.743 82.9921 47.4067 82.9897H47.2911C46.9547 82.9918 46.6205 82.936 46.3032 82.8248C46.0028 82.72 45.7279 82.5532 45.4967 82.3351C45.2604 82.1071 45.0759 81.8312 44.9555 81.5261C44.8162 81.1728 44.7483 80.7955 44.7558 80.4159V79.5728C44.7483 79.1933 44.8162 78.816 44.9555 78.4627C45.0702 78.1594 45.2504 77.885 45.4833 77.6587C45.7162 77.4325 45.9961 77.26 46.3032 77.1535C46.6205 77.0423 46.9547 76.9865 47.2911 76.9886L47.4067 76.999ZM47.3042 77.9207C47.1165 77.9144 46.9296 77.9472 46.7554 78.0171C46.5813 78.087 46.4237 78.1924 46.2927 78.3265C46.0087 78.6552 45.867 79.0826 45.8986 79.5152V80.4604C45.8672 80.8938 46.0088 81.322 46.2927 81.6518C46.4238 81.7856 46.5815 81.8906 46.7557 81.96C46.9299 82.0294 47.1167 82.0618 47.3042 82.055H47.383C47.5705 82.0618 47.7574 82.0294 47.9316 81.96C48.1057 81.8906 48.2634 81.7856 48.3945 81.6518C48.6794 81.3224 48.822 80.8942 48.7912 80.4604V79.5152C48.8221 79.0823 48.6795 78.6548 48.3945 78.3265C48.2636 78.1924 48.106 78.087 47.9318 78.0171C47.7576 77.9472 47.5707 77.9144 47.383 77.9207H47.3042Z" fill="white"/>
<path d="M53.8592 77.033C54.1487 77.0344 54.4364 77.0785 54.713 77.1639C54.9568 77.2349 55.192 77.3324 55.4145 77.4546C55.4475 77.4653 55.4757 77.487 55.4944 77.5161C55.5131 77.5453 55.5211 77.58 55.5169 77.6143V78.2872C55.5169 78.371 55.4802 78.3972 55.404 78.3657C55.1718 78.2487 54.9332 78.1447 54.6894 78.0542C54.4717 77.9734 54.2412 77.9326 54.0089 77.9337H53.9301C53.7153 77.933 53.5019 77.9693 53.2996 78.0411C53.101 78.1101 52.9212 78.2239 52.7741 78.3736C52.6229 78.5295 52.5057 78.7149 52.4299 78.9182C52.3412 79.1614 52.2985 79.4188 52.3038 79.6775V80.3373C52.2988 80.5951 52.3415 80.8517 52.4299 81.094C52.5054 81.2982 52.6226 81.4846 52.7741 81.6412C52.9206 81.7911 53.1007 81.9042 53.2996 81.9711C53.5016 82.0442 53.7152 82.0806 53.9301 82.0785H54.0089C54.2409 82.0792 54.4712 82.0393 54.6894 81.9607C54.9332 81.8691 55.1718 81.7643 55.404 81.6465C55.4802 81.6177 55.5169 81.6465 55.5169 81.7276V82.411C55.5215 82.4451 55.5136 82.4796 55.4948 82.5084C55.4761 82.5373 55.4475 82.5584 55.4145 82.5681C55.1926 82.6914 54.9572 82.7889 54.713 82.8587C54.4373 82.9489 54.1493 82.9966 53.8592 83.0001H53.7357C53.4009 83.001 53.0685 82.9443 52.7531 82.8326C52.4453 82.7267 52.164 82.5561 51.9282 82.3325C51.6844 82.0966 51.4921 81.8132 51.3633 81.4998C51.2154 81.1331 51.1439 80.7403 51.1531 80.3452V79.6513C51.1436 79.2553 51.2151 78.8616 51.3633 78.494C51.4921 78.1815 51.6844 77.8989 51.9282 77.664C52.1639 77.4396 52.4452 77.2681 52.7531 77.1613C53.0687 77.0505 53.4011 76.9947 53.7357 76.9964L53.8592 77.033Z" fill="white"/>
<path d="M61.189 77.1482C61.2046 77.1455 61.2205 77.1466 61.2356 77.1512C61.2506 77.1559 61.2644 77.1641 61.2757 77.1751C61.2869 77.186 61.2954 77.1995 61.3005 77.2144C61.3055 77.2293 61.3069 77.2452 61.3046 77.2607V77.9336C61.3069 77.9492 61.3055 77.9651 61.3005 77.98C61.2954 77.9948 61.2869 78.0083 61.2757 78.0193C61.2644 78.0303 61.2506 78.0385 61.2356 78.0431C61.2205 78.0478 61.2046 78.0489 61.189 78.0462H59.4288V82.7382C59.4315 82.7537 59.4304 82.7696 59.4257 82.7846C59.421 82.7996 59.4128 82.8133 59.4018 82.8245C59.3908 82.8358 59.3772 82.8442 59.3623 82.8493C59.3474 82.8543 59.3314 82.8557 59.3158 82.8534H58.4121C58.3965 82.8557 58.3806 82.8543 58.3656 82.8493C58.3507 82.8442 58.3371 82.8358 58.3261 82.8245C58.3151 82.8133 58.3069 82.7996 58.3022 82.7846C58.2975 82.7696 58.2964 82.7537 58.2991 82.7382V78.0462H56.5389C56.5233 78.0489 56.5074 78.0478 56.4923 78.0431C56.4773 78.0385 56.4635 78.0303 56.4523 78.0193C56.441 78.0083 56.4325 77.9948 56.4274 77.98C56.4224 77.9651 56.421 77.9492 56.4233 77.9336V77.2607C56.421 77.2452 56.4224 77.2293 56.4274 77.2144C56.4325 77.1995 56.441 77.186 56.4523 77.1751C56.4635 77.1641 56.4773 77.1559 56.4923 77.1512C56.5074 77.1466 56.5233 77.1455 56.5389 77.1482H61.189Z" fill="white"/>
<path d="M64.6649 76.9991C65.0012 76.997 65.3354 77.0528 65.6527 77.164C65.9519 77.2698 66.2257 77.4366 66.4566 77.6537C66.6929 77.8823 66.8782 78.158 67.0004 78.4627C67.1398 78.8161 67.2076 79.1933 67.2001 79.5729V80.416C67.2076 80.7955 67.1398 81.1728 67.0004 81.5261C66.8782 81.8309 66.6929 82.1065 66.4566 82.3352C66.2263 82.5531 65.9523 82.72 65.6527 82.8248C65.3354 82.9361 65.0012 82.9919 64.6649 82.9898H64.5387C64.2015 82.9921 63.8664 82.9363 63.5483 82.8248C63.2486 82.72 62.9746 82.5531 62.7444 82.3352C62.5081 82.1065 62.3228 81.8309 62.2005 81.5261C62.0612 81.1728 61.9934 80.7955 62.0009 80.416V79.5729C61.9934 79.1933 62.0612 78.8161 62.2005 78.4627C62.3228 78.158 62.5081 77.8823 62.7444 77.6537C62.9753 77.4366 63.2491 77.2698 63.5483 77.164C63.8664 77.0526 64.2015 76.9967 64.5387 76.9991H64.6649ZM64.5598 77.9207C64.3721 77.9148 64.1853 77.9477 64.0112 78.0176C63.8371 78.0875 63.6794 78.1927 63.5483 78.3266C63.2643 78.6552 63.1226 79.0827 63.1542 79.5153V80.4605C63.1227 80.8939 63.2644 81.3221 63.5483 81.6518C63.6795 81.7853 63.8373 81.8902 64.0114 81.9596C64.1856 82.029 64.3723 82.0615 64.5598 82.055H64.6307C64.8182 82.0615 65.0049 82.029 65.179 81.9596C65.3532 81.8902 65.5109 81.7853 65.6422 81.6518C65.9261 81.3221 66.0677 80.8939 66.0363 80.4605V79.5153C66.0679 79.0827 65.9262 78.6552 65.6422 78.3266C65.5111 78.1927 65.3534 78.0875 65.1793 78.0176C65.0051 77.9477 64.8183 77.9148 64.6307 77.9207H64.5598Z" fill="white"/>
<path d="M70.8231 77.135C71.5166 77.135 72.0316 77.2659 72.3731 77.5225C72.5394 77.6511 72.6723 77.8176 72.7606 78.0081C72.8488 78.1986 72.8898 78.4074 72.8802 78.617V78.7086C72.8817 78.9534 72.8144 79.1938 72.6858 79.4024C72.5459 79.6292 72.3434 79.811 72.1025 79.9261C72.3935 80.0061 72.6506 80.1779 72.8355 80.4157C72.9995 80.6443 73.0836 80.9203 73.0746 81.2012V81.2902C73.0819 81.5062 73.0398 81.7209 72.9515 81.9183C72.8632 82.1156 72.731 82.2903 72.5649 82.4292C72.2269 82.7207 71.7111 82.8656 71.0175 82.8638H68.5952C68.5795 82.866 68.5635 82.8645 68.5485 82.8595C68.5335 82.8545 68.5198 82.846 68.5086 82.8349C68.4974 82.8237 68.489 82.8101 68.4839 82.7952C68.4789 82.7802 68.4774 82.7643 68.4796 82.7486V77.2607C68.4773 77.2451 68.4787 77.2293 68.4838 77.2144C68.4888 77.1995 68.4973 77.186 68.5086 77.175C68.5199 77.164 68.5336 77.1559 68.5486 77.1512C68.5637 77.1465 68.5796 77.1454 68.5952 77.1481L70.8231 77.135ZM69.6224 79.6198H70.6733C70.9708 79.6479 71.2675 79.5597 71.5009 79.3736C71.5775 79.303 71.6388 79.2177 71.6813 79.1227C71.7237 79.0277 71.7464 78.9251 71.7478 78.8212V78.7086C71.7514 78.6072 71.732 78.5063 71.6911 78.4133C71.6501 78.3204 71.5887 78.2379 71.5114 78.1718C71.2709 78.0117 70.9822 77.9395 70.6943 77.9676H69.6224V79.6198ZM69.6224 81.9998H70.8809C71.1731 82.0289 71.4654 81.9455 71.6979 81.7668C71.7729 81.6929 71.8322 81.6047 71.8723 81.5076C71.9125 81.4105 71.9327 81.3063 71.9317 81.2012V81.0886C71.9349 80.9809 71.9157 80.8738 71.8755 80.7738C71.8352 80.6738 71.7748 80.5831 71.6979 80.5074C71.464 80.3317 71.1723 80.2503 70.8809 80.2796H69.6224V81.9998Z" fill="white"/>
</svg>
