<svg width="64" height="64" viewBox="0 0 64 64" fill="none" xmlns="http://www.w3.org/2000/svg">
<path d="M32 0C26.4883 0 22 4.48828 22 10C22 10.6914 22.0703 11.3594 22.1992 12H15.5391C14.1797 12 12.9922 12.9219 12.6406 14.2383L2.6875 52.2383C2.44922 53.1484 2.64063 54.0898 3.21875 54.8281C3.78907 55.5703 4.64844 56 5.58985 56H59.4102C60.3516 56 61.2109 55.5703 61.7813 54.8281C62.3594 54.0898 62.5508 53.1484 62.3125 52.2383L52.3594 14.2383C52.0078 12.9219 50.8203 12 49.4609 12H41.8008C41.9297 11.3594 42 10.6914 42 10C42 4.48828 37.5117 0 32 0ZM32 2C36.4102 2 40 5.58984 40 10C40 10.6914 39.9102 11.3594 39.75 12H37.6523C37.8789 11.3711 38 10.6992 38 10C38 6.69141 35.3086 4 32 4C28.6914 4 26 6.69141 26 10C26 10.6992 26.1211 11.3711 26.3477 12H24.25C24.0898 11.3594 24 10.6914 24 10C24 5.58984 27.5898 2 32 2ZM32 6C34.2109 6 36 7.78906 36 10C36 10.7305 35.8008 11.4102 35.4609 12H28.5391C28.1992 11.4102 28 10.7305 28 10C28 7.78906 29.7891 6 32 6ZM15.5391 14H49.4609C49.9102 14 50.3086 14.3086 50.4219 14.75L59.2344 48.3789C59.0938 48.5508 59 48.7617 59 49V51C59 51.5508 59.4453 52 60 52C60.0625 52 60.1133 51.9766 60.1719 51.9648L60.3789 52.75C60.4609 53.0508 60.3906 53.3594 60.1992 53.6094C60.0078 53.8594 59.7188 54 59.4102 54H5.58985C5.28125 54 4.99219 53.8594 4.80078 53.6094C4.60938 53.3594 4.53907 53.0508 4.61719 52.75L4.82813 51.9648C4.88672 51.9766 4.9375 52 5 52C5.55469 52 6 51.5508 6 51V49C6 48.7617 5.90625 48.5508 5.76563 48.3789L14.5781 14.75C14.6914 14.3086 15.0898 14 15.5391 14ZM25 22C24.4453 22 24 22.4492 24 23V39C24 39.5508 24.4453 40 25 40C25.5547 40 26 39.5508 26 39V33.3125L27.7734 30.7812L32.1055 39.4492C32.2813 39.7969 32.6367 40 33 40C33.1523 40 33.3047 39.9648 33.4492 39.8945C33.9414 39.6484 34.1406 39.0469 33.8945 38.5508L29.0781 28.9219L32.8203 23.5742C33.1367 23.1211 33.0273 22.5 32.5742 22.1836C32.1211 21.8672 31.5 21.9766 31.1836 22.4258L26 29.8281V23C26 22.4492 25.5547 22 25 22ZM39 30C37.3477 30 36 31.3477 36 33V37C36 38.6523 37.3477 40 39 40H41C41.3516 40 41.6875 39.9297 42 39.8164V41C42 41.5508 41.5508 42 41 42H39C38.4492 42 38 41.5508 38 41C38 40.4492 37.5547 40 37 40C36.4453 40 36 40.4492 36 41C36 42.6523 37.3477 44 39 44H41C42.6523 44 44 42.6523 44 41V31C44 30.4492 43.5547 30 43 30C42.7188 30 42.4688 30.1172 42.2852 30.3008C41.8945 30.1133 41.4609 30 41 30H39ZM39 32H41C41.5508 32 42 32.4492 42 33V37C42 37.5508 41.5508 38 41 38H39C38.4492 38 38 37.5508 38 37V33C38 32.4492 38.4492 32 39 32ZM10 48C9.44532 48 9 48.4492 9 49V51C9 51.5508 9.44532 52 10 52C10.5547 52 11 51.5508 11 51V49C11 48.4492 10.5547 48 10 48ZM15 48C14.4453 48 14 48.4492 14 49V51C14 51.5508 14.4453 52 15 52C15.5547 52 16 51.5508 16 51V49C16 48.4492 15.5547 48 15 48ZM20 48C19.4453 48 19 48.4492 19 49V51C19 51.5508 19.4453 52 20 52C20.5547 52 21 51.5508 21 51V49C21 48.4492 20.5547 48 20 48ZM25 48C24.4453 48 24 48.4492 24 49V51C24 51.5508 24.4453 52 25 52C25.5547 52 26 51.5508 26 51V49C26 48.4492 25.5547 48 25 48ZM30 48C29.4453 48 29 48.4492 29 49V51C29 51.5508 29.4453 52 30 52C30.5547 52 31 51.5508 31 51V49C31 48.4492 30.5547 48 30 48ZM35 48C34.4453 48 34 48.4492 34 49V51C34 51.5508 34.4453 52 35 52C35.5547 52 36 51.5508 36 51V49C36 48.4492 35.5547 48 35 48ZM40 48C39.4453 48 39 48.4492 39 49V51C39 51.5508 39.4453 52 40 52C40.5547 52 41 51.5508 41 51V49C41 48.4492 40.5547 48 40 48ZM45 48C44.4453 48 44 48.4492 44 49V51C44 51.5508 44.4453 52 45 52C45.5547 52 46 51.5508 46 51V49C46 48.4492 45.5547 48 45 48ZM50 48C49.4453 48 49 48.4492 49 49V51C49 51.5508 49.4453 52 50 52C50.5547 52 51 51.5508 51 51V49C51 48.4492 50.5547 48 50 48ZM55 48C54.4453 48 54 48.4492 54 49V51C54 51.5508 54.4453 52 55 52C55.5547 52 56 51.5508 56 51V49C56 48.4492 55.5547 48 55 48Z" fill="black"/>
</svg>
