<svg width="25" height="25" viewBox="0 0 25 25" fill="none" xmlns="http://www.w3.org/2000/svg">
<path d="M14.5833 2.5C14.3533 2.5 14.1667 2.68667 14.1667 2.91667V4.16667V4.58333C14.1667 4.81333 13.98 5 13.75 5C13.52 5 13.3333 4.81333 13.3333 4.58333V3.90299C12.6242 4.24049 11.9978 4.71868 11.4811 5.29785C11.9528 5.57952 12.3072 6.04021 12.4414 6.58854C13.3306 7.02104 14.1037 7.62 14.7428 8.33333H21.6016C21.3191 6.36917 20.0608 4.72145 18.3333 3.89811V4.58333C18.3333 4.81333 18.1467 5 17.9167 5C17.6867 5 17.5 4.81333 17.5 4.58333V3.5791V2.91667C17.5 2.68667 17.3133 2.5 17.0833 2.5H14.5833ZM7.91666 6.66667C7.68666 6.66667 7.5 6.85333 7.5 7.08333V8.33333V8.75C7.5 8.98 7.31333 9.16667 7.08333 9.16667C6.85333 9.16667 6.66666 8.98 6.66666 8.75V8.06966C4.6975 9.00633 3.33333 11.0075 3.33333 13.3333V14.1667C3.2229 14.1651 3.11327 14.1855 3.01079 14.2267C2.90832 14.2679 2.81505 14.329 2.73641 14.4065C2.65777 14.4841 2.59532 14.5765 2.5527 14.6783C2.51008 14.7802 2.48813 14.8896 2.48813 15C2.48813 15.1104 2.51008 15.2198 2.5527 15.3217C2.59532 15.4235 2.65777 15.5159 2.73641 15.5935C2.81505 15.671 2.90832 15.7321 3.01079 15.7733C3.11327 15.8145 3.2229 15.8349 3.33333 15.8333V17.0003C3.33333 17.8475 3.71984 18.4978 4.11784 18.846C4.33217 19.0336 4.40784 19.0245 4.57357 19.0951C4.79028 19.641 5.94153 22.334 9.16666 22.334C12.3918 22.334 13.543 19.641 13.7598 19.0951C13.9255 19.0245 14.0012 19.0336 14.2155 18.846C14.6135 18.4978 15 17.8475 15 17.0003V15.8333C15.1104 15.8349 15.2201 15.8145 15.3225 15.7733C15.425 15.7321 15.5183 15.671 15.5969 15.5935C15.6756 15.5159 15.738 15.4235 15.7806 15.3217C15.8233 15.2198 15.8452 15.1104 15.8452 15C15.8452 14.8896 15.8233 14.7802 15.7806 14.6783C15.738 14.5765 15.6756 14.4841 15.5969 14.4065C15.5183 14.329 15.425 14.2679 15.3225 14.2267C15.2201 14.1855 15.1104 14.1651 15 14.1667H7.5C7.04 14.1667 6.66666 13.7933 6.66666 13.3333C6.66666 12.8733 7.04 12.5 7.5 12.5H14.9333C14.6516 10.5358 13.3933 8.88811 11.6667 8.06478V8.75C11.6667 8.98 11.48 9.16667 11.25 9.16667C11.02 9.16667 10.8333 8.98 10.8333 8.75V7.74577V7.08333C10.8333 6.85333 10.6467 6.66667 10.4167 6.66667H7.91666ZM15.8659 10C16.1267 10.5258 16.3275 11.0833 16.46 11.6667H20V12.8337C20 13.3495 19.7263 13.4937 19.6322 13.5254L19.1911 13.6377L19.0446 14.0674C19.0179 14.1449 18.5069 15.567 17.1794 16.1995C17.0427 16.4462 16.8758 16.6745 16.6667 16.862V17.0003C16.6667 17.3878 16.6119 17.761 16.5186 18.1169C18.9527 17.7927 20.0994 15.8009 20.4769 14.9626C21.0269 14.6584 21.6667 13.9978 21.6667 12.8337V11.6667C22.1275 11.6667 22.5 11.2933 22.5 10.8333C22.5 10.3733 22.1275 10 21.6667 10H15.8659ZM5 15.8333H13.3333V17.0003C13.3333 17.4031 13.2205 17.5019 13.1185 17.5911C13.0165 17.6804 12.9639 17.6921 12.9639 17.6921L12.5212 17.8027L12.3763 18.2357C12.3763 18.2357 11.6111 20.6673 9.16666 20.6673C6.72222 20.6673 5.95703 18.2357 5.95703 18.2357L5.81217 17.8027L5.36946 17.6921C5.36946 17.6921 5.31684 17.6804 5.21484 17.5911C5.11284 17.5019 5 17.4031 5 17.0003V15.8333Z" fill="#686868"/>
</svg>
