<svg width="100" height="100" viewBox="0 0 100 100" fill="none" xmlns="http://www.w3.org/2000/svg">
<path d="M73 11C65.3018 11 58.8593 16.4502 57.3418 23.6875L38.791 18.043C38.6954 18.014 38.596 17.9995 38.4961 18C38.3967 18.0003 38.298 18.0155 38.2031 18.0449L15.7031 25.0449C15.4994 25.1083 15.3212 25.2352 15.1947 25.407C15.0682 25.5788 15 25.7866 15 26V81C15 81.1567 15.0368 81.3113 15.1075 81.4512C15.1782 81.5911 15.2808 81.7124 15.407 81.8053C15.5333 81.8983 15.6795 81.9602 15.8341 81.9863C15.9887 82.0123 16.1472 82.0016 16.2969 81.9551L38.5039 75.0469L61.209 81.957C61.4007 82.0153 61.6055 82.0146 61.7969 81.9551L84.2969 74.9551C84.5006 74.8917 84.6788 74.7648 84.8053 74.593C84.9318 74.4212 85 74.2134 85 74V39.0801C87.2686 35.1583 89 30.9283 89 26.959C89 18.1559 81.8221 11 73 11ZM73 13C80.7439 13 87 19.2401 87 26.959C87 32.0266 83.3929 38.4682 79.6934 43.5293C76.5594 47.8166 73.8852 50.6207 73 51.5332C72.1148 50.6207 69.4406 47.8166 66.3066 43.5293C62.6071 38.4682 59 32.0266 59 26.959C59 19.2401 65.2561 13 73 13ZM73.0156 15C66.3986 15 61.0039 20.3884 61.0039 27C61.0039 33.6116 66.3986 39 73.0156 39C79.4567 39 84.7236 33.8915 85 27.5215C85.0061 27.4541 84.9985 27.3862 84.9776 27.3218C84.9567 27.2574 84.9229 27.198 84.8784 27.1471C84.8338 27.0961 84.7794 27.0548 84.7184 27.0255C84.6574 26.9962 84.5911 26.9796 84.5235 26.9767C84.4559 26.9738 84.3884 26.9846 84.3251 27.0086C84.2618 27.0325 84.204 27.069 84.1553 27.1159C84.1065 27.1629 84.0678 27.2192 84.0414 27.2815C84.0151 27.3438 84.0016 27.4108 84.002 27.4785C83.7484 33.3225 78.9286 38 73.0156 38C66.9407 38 62.0039 33.0684 62.0039 27C62.0039 20.9316 66.9407 16 73.0156 16C74.5452 16 75.9994 16.3136 77.3242 16.8789C77.4462 16.931 77.5839 16.9324 77.707 16.883C77.83 16.8335 77.9284 16.7372 77.9805 16.6152C78.0325 16.4932 78.034 16.3556 77.9846 16.2325C77.9351 16.1094 77.8388 16.011 77.7168 15.959C76.2716 15.3423 74.682 15 73.0156 15ZM79.5254 17.0195C79.4173 17.0174 79.3114 17.0504 79.2236 17.1136C79.1358 17.1768 79.0709 17.2667 79.0385 17.3699C79.0062 17.4731 79.0081 17.584 79.0442 17.686C79.0802 17.788 79.1483 17.8756 79.2383 17.9355C80.0188 18.4724 80.7246 19.1093 81.3438 19.8262C81.3852 19.8802 81.4372 19.9252 81.4967 19.9584C81.5561 19.9916 81.6217 20.0123 81.6895 20.0193C81.7572 20.0262 81.8257 20.0193 81.8906 19.9988C81.9556 19.9784 82.0157 19.9449 82.0672 19.9004C82.1188 19.8559 82.1607 19.8013 82.1904 19.7401C82.2201 19.6788 82.237 19.6121 82.2401 19.5441C82.2431 19.4761 82.2322 19.4081 82.2081 19.3445C82.1839 19.2808 82.147 19.2227 82.0996 19.1738C81.4268 18.3947 80.6582 17.6984 79.8047 17.1113C79.7229 17.0534 79.6256 17.0215 79.5254 17.0195ZM73.0156 18C68.0536 18 64.0059 22.0424 64.0059 27C64.0059 31.9576 68.0536 36 73.0156 36C77.9776 36 82.0234 31.9576 82.0234 27C82.0234 22.0424 77.9776 18 73.0156 18ZM73.0156 19C77.4356 19 81.0234 22.5856 81.0234 27C81.0234 31.4144 77.4356 35 73.0156 35C68.5956 35 65.0059 31.4144 65.0059 27C65.0059 22.5856 68.5956 19 73.0156 19ZM39 20.1973L57.0645 25.6953C57.0314 26.1133 57 26.5327 57 26.959C57 30.9283 58.7314 35.1583 61 39.0801V62.375C60.9991 62.4413 61.0113 62.507 61.036 62.5685C61.0607 62.63 61.0974 62.686 61.1439 62.7332C61.1904 62.7803 61.2459 62.8178 61.307 62.8434C61.3681 62.8689 61.4337 62.8821 61.5 62.8821C61.5663 62.8821 61.6319 62.8689 61.693 62.8434C61.7541 62.8178 61.8096 62.7803 61.8561 62.7332C61.9026 62.686 61.9393 62.63 61.964 62.5685C61.9887 62.507 62.0009 62.4413 62 62.375V40.7539C62.8675 42.133 63.7814 43.4634 64.6934 44.7109C68.4938 49.91 72.293 53.707 72.293 53.707C72.4805 53.8945 72.7348 53.9998 73 53.9998C73.2652 53.9998 73.5195 53.8945 73.707 53.707C73.707 53.707 77.5062 49.91 81.3066 44.7109C81.875 43.9334 82.4408 43.1178 83 42.2852V73.2637L61.4961 79.9531L39 73.1074V60.5C39.001 60.433 38.9886 60.3665 38.9635 60.3044C38.9383 60.2424 38.901 60.186 38.8536 60.1386C38.8062 60.0912 38.7498 60.0539 38.6878 60.0287C38.6257 60.0036 38.5592 59.9911 38.4922 59.9922C38.4265 59.9932 38.3617 60.0072 38.3014 60.0332C38.2412 60.0593 38.1866 60.097 38.1409 60.1442C38.0952 60.1913 38.0592 60.247 38.0351 60.3081C38.0109 60.3691 37.999 60.4343 38 60.5V73.1074L17 79.6406V26.7363L38 20.2031V48.5C37.9991 48.5663 38.0113 48.632 38.036 48.6935C38.0607 48.755 38.0974 48.811 38.1439 48.8582C38.1904 48.9053 38.2459 48.9428 38.307 48.9684C38.3681 48.9939 38.4337 49.0071 38.5 49.0071C38.5663 49.0071 38.6319 48.9939 38.693 48.9684C38.7541 48.9428 38.8096 48.9053 38.8561 48.8582C38.9026 48.811 38.9393 48.755 38.964 48.6935C38.9887 48.632 39.0009 48.5663 39 48.5V20.1973ZM83.5918 21.9941C83.5096 21.9959 83.429 22.0179 83.3573 22.0582C83.2856 22.0985 83.225 22.1558 83.1807 22.2252C83.1365 22.2945 83.11 22.3737 83.1037 22.4557C83.0974 22.5377 83.1114 22.62 83.1445 22.6953C83.2776 23.0075 83.3959 23.3275 83.5 23.6523C83.52 23.7149 83.5521 23.773 83.5946 23.8231C83.637 23.8733 83.6889 23.9146 83.7473 23.9447C83.8057 23.9748 83.8695 23.9932 83.9349 23.9986C84.0004 24.0041 84.0663 23.9966 84.1289 23.9766C84.1915 23.9566 84.2495 23.9245 84.2997 23.882C84.3499 23.8396 84.3912 23.7877 84.4213 23.7293C84.4514 23.6709 84.4697 23.6071 84.4752 23.5416C84.4806 23.4762 84.4731 23.4102 84.4531 23.3477C84.3393 22.9925 84.2094 22.6445 84.0645 22.3047C84.0262 22.2113 83.9606 22.1316 83.8762 22.0762C83.7919 22.0207 83.6927 21.9921 83.5918 21.9941ZM38.4922 50.9922C38.4265 50.9932 38.3617 51.0072 38.3014 51.0332C38.2412 51.0593 38.1866 51.097 38.1409 51.1442C38.0952 51.1913 38.0592 51.247 38.0351 51.3081C38.0109 51.3691 37.999 51.4343 38 51.5V57.5C37.9991 57.5663 38.0113 57.632 38.036 57.6935C38.0607 57.755 38.0974 57.811 38.1439 57.8582C38.1904 57.9053 38.2459 57.9428 38.307 57.9684C38.3681 57.9939 38.4337 58.0071 38.5 58.0071C38.5663 58.0071 38.6319 57.9939 38.693 57.9684C38.7541 57.9428 38.8096 57.9053 38.8561 57.8582C38.9026 57.811 38.9393 57.755 38.964 57.6935C38.9887 57.632 39.0009 57.5663 39 57.5V51.5C39.001 51.433 38.9886 51.3665 38.9635 51.3044C38.9383 51.2424 38.901 51.186 38.8536 51.1386C38.8062 51.0912 38.7498 51.0539 38.6878 51.0287C38.6257 51.0036 38.5592 50.9911 38.4922 50.9922ZM61.4922 64.9922C61.4265 64.9932 61.3617 65.0072 61.3014 65.0332C61.2412 65.0593 61.1866 65.097 61.1409 65.1442C61.0952 65.1913 61.0592 65.247 61.0351 65.3081C61.0109 65.3691 60.999 65.4343 61 65.5V72.3125C60.9991 72.3788 61.0113 72.4445 61.036 72.506C61.0607 72.5675 61.0974 72.6235 61.1439 72.6707C61.1904 72.7178 61.2459 72.7553 61.307 72.7809C61.3681 72.8064 61.4337 72.8196 61.5 72.8196C61.5663 72.8196 61.6319 72.8064 61.693 72.7809C61.7541 72.7553 61.8096 72.7178 61.8561 72.6707C61.9026 72.6235 61.9393 72.5675 61.964 72.506C61.9887 72.4445 62.0009 72.3788 62 72.3125V65.5C62.001 65.433 61.9886 65.3665 61.9635 65.3044C61.9383 65.2424 61.901 65.186 61.8536 65.1386C61.8062 65.0912 61.7498 65.0539 61.6878 65.0287C61.6257 65.0036 61.5592 64.9911 61.4922 64.9922ZM61.4922 74.9922C61.4265 74.9932 61.3617 75.0072 61.3014 75.0332C61.2412 75.0593 61.1866 75.097 61.1409 75.1442C61.0952 75.1913 61.0592 75.247 61.0351 75.3081C61.0109 75.3691 60.999 75.4343 61 75.5V77.5C60.9991 77.5663 61.0113 77.632 61.036 77.6935C61.0607 77.755 61.0974 77.811 61.1439 77.8582C61.1904 77.9053 61.2459 77.9428 61.307 77.9684C61.3681 77.9939 61.4337 78.0071 61.5 78.0071C61.5663 78.0071 61.6319 77.9939 61.693 77.9684C61.7541 77.9428 61.8096 77.9053 61.8561 77.8582C61.9026 77.811 61.9393 77.755 61.964 77.6935C61.9887 77.632 62.0009 77.5663 62 77.5V75.5C62.001 75.433 61.9886 75.3665 61.9635 75.3044C61.9383 75.2424 61.901 75.186 61.8536 75.1386C61.8062 75.0912 61.7498 75.0539 61.6878 75.0287C61.6257 75.0036 61.5592 74.9911 61.4922 74.9922Z" fill="#F5F8FA"/>
</svg>
