<svg width="80" height="80" viewBox="0 0 80 80" fill="none" xmlns="http://www.w3.org/2000/svg">
<path d="M21.1504 5C20.982 5.00012 20.8164 5.04274 20.6689 5.12393C20.5213 5.20512 20.3967 5.32225 20.3065 5.46444C20.2163 5.60664 20.1635 5.7693 20.1529 5.93736C20.1424 6.10541 20.1744 6.27341 20.2461 6.42578L30.5977 28.3691C29.6549 28.8775 29 29.8632 29 31V36.1426C23.0101 39.8442 19 46.4509 19 54C19 65.5861 28.4139 75 40 75C51.5861 75 61 65.5861 61 54C61 46.4509 56.9899 39.8442 51 36.1426V31C51 29.6989 50.1469 28.591 48.9785 28.1797L59.377 6.43164C59.4499 6.27918 59.483 6.11073 59.4732 5.94201C59.4633 5.77329 59.4109 5.60981 59.3208 5.46684C59.2307 5.32386 59.1058 5.20606 58.9578 5.12442C58.8099 5.04278 58.6436 4.99998 58.4746 5H43.6973C43.5098 5.00016 43.3262 5.05298 43.1674 5.15243C43.0085 5.25189 42.8808 5.39398 42.7988 5.5625L39.8965 11.5176L36.9766 5.56055C36.8943 5.39239 36.7665 5.2507 36.6076 5.1516C36.4488 5.05251 36.2653 4.99998 36.0781 5H21.1504ZM22.7266 7H35.4551L38.7559 13.7324C38.7655 13.7536 38.776 13.7745 38.7871 13.7949L32.2539 27.1973L22.7266 7ZM44.3223 7H56.8887L46.3691 29H33.5996L44.3223 7ZM47.0801 8.33203L46.2793 8.73438L46.1211 9.61719L46.7344 10.2715L47.0801 10.332L47.8828 9.93164L48.0391 9.04883L47.4277 8.39453L47.0801 8.33203ZM27.8633 8.5L27.0625 8.90234L26.9043 9.7832L27.5156 10.4375L27.8633 10.5L28.6641 10.0977L28.8223 9.2168L28.209 8.5625L27.8633 8.5ZM45.4648 11.666L44.6641 12.0684L44.5059 12.9492L45.1172 13.6035L45.4648 13.666L46.2656 13.2656L46.4238 12.3828L45.8125 11.7285L45.4648 11.666ZM29.5762 12L28.7734 12.4023L28.6172 13.2832L29.2285 13.9375L29.5762 14L30.377 13.5977L30.5352 12.7168L29.9219 12.0625L29.5762 12ZM43.8477 15L43.0469 15.4004L42.8887 16.2832L43.502 16.9375L43.8477 17L44.6504 16.5977L44.8066 15.7168L44.1953 15.0625L43.8477 15ZM31.2871 15.5L30.4863 15.9004L30.3281 16.7832L30.9414 17.4375L31.2871 17.5L32.0879 17.0977L32.2461 16.2168L31.6348 15.5625L31.2871 15.5ZM42.2324 18.334L41.4316 18.7344L41.2734 19.6172L41.8848 20.2715L42.2324 20.334L43.0332 19.9316L43.1914 19.0488L42.5801 18.3945L42.2324 18.334ZM33 19C32.8675 18.9981 32.7359 19.0226 32.613 19.072C32.49 19.1214 32.3781 19.1948 32.2837 19.2878C32.1893 19.3809 32.1144 19.4918 32.0632 19.614C32.0121 19.7363 31.9858 19.8675 31.9858 20C31.9858 20.1325 32.0121 20.2637 32.0632 20.386C32.1144 20.5082 32.1893 20.6191 32.2837 20.7122C32.3781 20.8052 32.49 20.8786 32.613 20.928C32.7359 20.9774 32.8675 21.0019 33 21C33.1325 21.0019 33.2641 20.9774 33.387 20.928C33.51 20.8786 33.6219 20.8052 33.7163 20.7122C33.8107 20.6191 33.8856 20.5082 33.9368 20.386C33.9879 20.2637 34.0142 20.1325 34.0142 20C34.0142 19.8675 33.9879 19.7363 33.9368 19.614C33.8856 19.4918 33.8107 19.3809 33.7163 19.2878C33.6219 19.1948 33.51 19.1214 33.387 19.072C33.2641 19.0226 33.1325 18.9981 33 19ZM40.6152 21.666L39.8145 22.0684L39.6562 22.9492L40.2695 23.6035L40.6152 23.666L41.418 23.2656L41.5742 22.3828L40.9629 21.7285L40.6152 21.666ZM39 25C38.8675 24.9981 38.7359 25.0226 38.613 25.072C38.49 25.1214 38.3781 25.1948 38.2837 25.2878C38.1893 25.3809 38.1144 25.4918 38.0632 25.614C38.0121 25.7363 37.9858 25.8675 37.9858 26C37.9858 26.1325 38.0121 26.2637 38.0632 26.386C38.1144 26.5082 38.1893 26.6191 38.2837 26.7122C38.3781 26.8052 38.49 26.8786 38.613 26.928C38.7359 26.9774 38.8675 27.0019 39 27C39.1325 27.0019 39.2641 26.9774 39.387 26.928C39.51 26.8786 39.6219 26.8052 39.7163 26.7122C39.8107 26.6191 39.8856 26.5082 39.9368 26.386C39.9879 26.2637 40.0142 26.1325 40.0142 26C40.0142 25.8675 39.9879 25.7363 39.9368 25.614C39.8856 25.4918 39.8107 25.3809 39.7163 25.2878C39.6219 25.1948 39.51 25.1214 39.387 25.072C39.2641 25.0226 39.1325 24.9981 39 25ZM48.0996 30.0195C48.6124 30.0699 49 30.4707 49 31V35.0527C46.2683 33.7507 43.2243 33 40 33C36.7757 33 33.7317 33.7507 31 35.0527V31C31 30.816 31.0589 30.6556 31.1406 30.5098C31.2291 30.659 31.3548 30.7826 31.5054 30.8686C31.6561 30.9545 31.8265 30.9998 32 31H47C47.1887 31 47.3736 30.9467 47.5332 30.8461C47.6929 30.7456 47.8209 30.6019 47.9023 30.4316L48.0996 30.0195ZM40 35C50.5053 35 59 43.4947 59 54C59 64.5053 50.5053 73 40 73C29.4947 73 21 64.5053 21 54C21 43.4947 29.4947 35 40 35ZM40 38C39.7348 38 39.4804 38.1054 39.2929 38.2929C39.1054 38.4804 39 38.7348 39 39C39 39.2652 39.1054 39.5196 39.2929 39.7071C39.4804 39.8946 39.7348 40 40 40C40.2652 40 40.5196 39.8946 40.7071 39.7071C40.8946 39.5196 41 39.2652 41 39C41 38.7348 40.8946 38.4804 40.7071 38.2929C40.5196 38.1054 40.2652 38 40 38ZM36.1152 38.5117C35.85 38.5117 35.5957 38.6171 35.4081 38.8046C35.2206 38.9921 35.1152 39.2465 35.1152 39.5117C35.1152 39.7769 35.2206 40.0313 35.4081 40.2188C35.5957 40.4064 35.85 40.5117 36.1152 40.5117C36.3805 40.5117 36.6348 40.4064 36.8223 40.2188C37.0099 40.0313 37.1152 39.7769 37.1152 39.5117C37.1152 39.2465 37.0099 38.9921 36.8223 38.8046C36.6348 38.6171 36.3805 38.5117 36.1152 38.5117ZM43.8809 38.5117C43.6156 38.5117 43.3613 38.6171 43.1738 38.8046C42.9862 38.9921 42.8809 39.2465 42.8809 39.5117C42.8809 39.7769 42.9862 40.0313 43.1738 40.2188C43.3613 40.4064 43.6156 40.5117 43.8809 40.5117C44.1461 40.5117 44.4004 40.4064 44.588 40.2188C44.7755 40.0313 44.8809 39.7769 44.8809 39.5117C44.8809 39.2465 44.7755 38.9921 44.588 38.8046C44.4004 38.6171 44.1461 38.5117 43.8809 38.5117ZM32.498 40.0098C32.2328 40.0098 31.9785 40.1151 31.7909 40.3027C31.6034 40.4902 31.498 40.7445 31.498 41.0098C31.498 41.275 31.6034 41.5293 31.7909 41.7169C31.9785 41.9044 32.2328 42.0098 32.498 42.0098C32.7633 42.0098 33.0176 41.9044 33.2052 41.7169C33.3927 41.5293 33.498 41.275 33.498 41.0098C33.498 40.7445 33.3927 40.4902 33.2052 40.3027C33.0176 40.1151 32.7633 40.0098 32.498 40.0098ZM47.498 40.0117C47.2328 40.0117 46.9785 40.1171 46.7909 40.3046C46.6034 40.4921 46.498 40.7465 46.498 41.0117C46.498 41.2769 46.6034 41.5313 46.7909 41.7188C46.9785 41.9064 47.2328 42.0117 47.498 42.0117C47.7633 42.0117 48.0176 41.9064 48.2052 41.7188C48.3927 41.5313 48.498 41.2769 48.498 41.0117C48.498 40.7465 48.3927 40.4921 48.2052 40.3046C48.0176 40.1171 47.7633 40.0117 47.498 40.0117ZM29.3926 42.3926C29.1274 42.3926 28.873 42.4979 28.6855 42.6855C28.4979 42.873 28.3926 43.1274 28.3926 43.3926C28.3926 43.6578 28.4979 43.9121 28.6855 44.0997C28.873 44.2872 29.1274 44.3926 29.3926 44.3926C29.6578 44.3926 29.9121 44.2872 30.0997 44.0997C30.2872 43.9121 30.3926 43.6578 30.3926 43.3926C30.3926 43.1274 30.2872 42.873 30.0997 42.6855C29.9121 42.4979 29.6578 42.3926 29.3926 42.3926ZM50.6055 42.3926C50.3403 42.3926 50.0859 42.4979 49.8984 42.6855C49.7108 42.873 49.6055 43.1274 49.6055 43.3926C49.6055 43.6578 49.7108 43.9121 49.8984 44.0997C50.0859 44.2872 50.3403 44.3926 50.6055 44.3926C50.8707 44.3926 51.125 44.2872 51.3126 44.0997C51.5001 43.9121 51.6055 43.6578 51.6055 43.3926C51.6055 43.1274 51.5001 42.873 51.3126 42.6855C51.125 42.4979 50.8707 42.3926 50.6055 42.3926ZM52.9883 45.498C52.7231 45.498 52.4687 45.6034 52.2812 45.7909C52.0936 45.9785 51.9883 46.2328 51.9883 46.498C51.9883 46.7633 52.0936 47.0176 52.2812 47.2052C52.4687 47.3927 52.7231 47.498 52.9883 47.498C53.2535 47.498 53.5079 47.3927 53.6954 47.2052C53.8829 47.0176 53.9883 46.7633 53.9883 46.498C53.9883 46.2328 53.8829 45.9785 53.6954 45.7909C53.5079 45.6034 53.2535 45.498 52.9883 45.498ZM27.0098 45.5C26.7445 45.5 26.4902 45.6054 26.3027 45.7929C26.1151 45.9804 26.0098 46.2348 26.0098 46.5C26.0098 46.7652 26.1151 47.0196 26.3027 47.2071C26.4902 47.3946 26.7445 47.5 27.0098 47.5C27.275 47.5 27.5293 47.3946 27.7169 47.2071C27.9044 47.0196 28.0098 46.7652 28.0098 46.5C28.0098 46.2348 27.9044 45.9804 27.7169 45.7929C27.5293 45.6054 27.275 45.5 27.0098 45.5ZM39 46V62H41V46H39ZM25.5098 49.1172C25.2445 49.1172 24.9902 49.2225 24.8027 49.4101C24.6151 49.5976 24.5098 49.852 24.5098 50.1172C24.5098 50.3824 24.6151 50.6368 24.8027 50.8243C24.9902 51.0118 25.2445 51.1172 25.5098 51.1172C25.775 51.1172 26.0293 51.0118 26.2169 50.8243C26.4044 50.6368 26.5098 50.3824 26.5098 50.1172C26.5098 49.852 26.4044 49.5976 26.2169 49.4101C26.0293 49.2225 25.775 49.1172 25.5098 49.1172ZM54.4863 49.1172C54.2211 49.1172 53.9668 49.2225 53.7792 49.4101C53.5917 49.5976 53.4863 49.852 53.4863 50.1172C53.4863 50.3824 53.5917 50.6368 53.7792 50.8243C53.9668 51.0118 54.2211 51.1172 54.4863 51.1172C54.7515 51.1172 55.0059 51.0118 55.1934 50.8243C55.381 50.6368 55.4863 50.3824 55.4863 50.1172C55.4863 49.852 55.381 49.5976 55.1934 49.4101C55.0059 49.2225 54.7515 49.1172 54.4863 49.1172ZM25 53C24.7348 53 24.4804 53.1054 24.2929 53.2929C24.1054 53.4804 24 53.7348 24 54C24 54.2652 24.1054 54.5196 24.2929 54.7071C24.4804 54.8946 24.7348 55 25 55C25.2652 55 25.5196 54.8946 25.7071 54.7071C25.8946 54.5196 26 54.2652 26 54C26 53.7348 25.8946 53.4804 25.7071 53.2929C25.5196 53.1054 25.2652 53 25 53ZM55 53C54.7348 53 54.4804 53.1054 54.2929 53.2929C54.1054 53.4804 54 53.7348 54 54C54 54.2652 54.1054 54.5196 54.2929 54.7071C54.4804 54.8946 54.7348 55 55 55C55.2652 55 55.5196 54.8946 55.7071 54.7071C55.8946 54.5196 56 54.2652 56 54C56 53.7348 55.8946 53.4804 55.7071 53.2929C55.5196 53.1054 55.2652 53 55 53ZM25.5098 56.8809C25.2445 56.8809 24.9902 56.9862 24.8027 57.1738C24.6151 57.3613 24.5098 57.6156 24.5098 57.8809C24.5098 58.1461 24.6151 58.4004 24.8027 58.588C24.9902 58.7755 25.2445 58.8809 25.5098 58.8809C25.775 58.8809 26.0293 58.7755 26.2169 58.588C26.4044 58.4004 26.5098 58.1461 26.5098 57.8809C26.5098 57.6156 26.4044 57.3613 26.2169 57.1738C26.0293 56.9862 25.775 56.8809 25.5098 56.8809ZM54.4863 56.8828C54.2211 56.8828 53.9668 56.9882 53.7792 57.1757C53.5917 57.3632 53.4863 57.6176 53.4863 57.8828C53.4863 58.148 53.5917 58.4024 53.7792 58.5899C53.9668 58.7775 54.2211 58.8828 54.4863 58.8828C54.7515 58.8828 55.0059 58.7775 55.1934 58.5899C55.381 58.4024 55.4863 58.148 55.4863 57.8828C55.4863 57.6176 55.381 57.3632 55.1934 57.1757C55.0059 56.9882 54.7515 56.8828 54.4863 56.8828ZM27.0098 60.498C26.7445 60.498 26.4902 60.6034 26.3027 60.7909C26.1151 60.9785 26.0098 61.2328 26.0098 61.498C26.0098 61.7633 26.1151 62.0176 26.3027 62.2052C26.4902 62.3927 26.7445 62.498 27.0098 62.498C27.275 62.498 27.5293 62.3927 27.7169 62.2052C27.9044 62.0176 28.0098 61.7633 28.0098 61.498C28.0098 61.2328 27.9044 60.9785 27.7169 60.7909C27.5293 60.6034 27.275 60.498 27.0098 60.498ZM52.9883 60.502C52.7231 60.502 52.4687 60.6073 52.2812 60.7948C52.0936 60.9824 51.9883 61.2367 51.9883 61.502C51.9883 61.7672 52.0936 62.0215 52.2812 62.2091C52.4687 62.3966 52.7231 62.502 52.9883 62.502C53.2535 62.502 53.5079 62.3966 53.6954 62.2091C53.8829 62.0215 53.9883 61.7672 53.9883 61.502C53.9883 61.2367 53.8829 60.9824 53.6954 60.7948C53.5079 60.6073 53.2535 60.502 52.9883 60.502ZM50.6055 63.6055C50.3403 63.6055 50.0859 63.7108 49.8984 63.8984C49.7108 64.0859 49.6055 64.3403 49.6055 64.6055C49.6055 64.8707 49.7108 65.125 49.8984 65.3126C50.0859 65.5001 50.3403 65.6055 50.6055 65.6055C50.8707 65.6055 51.125 65.5001 51.3126 65.3126C51.5001 65.125 51.6055 64.8707 51.6055 64.6055C51.6055 64.3403 51.5001 64.0859 51.3126 63.8984C51.125 63.7108 50.8707 63.6055 50.6055 63.6055ZM29.3926 63.6074C29.1274 63.6074 28.873 63.7128 28.6855 63.9003C28.4979 64.0879 28.3926 64.3422 28.3926 64.6074C28.3926 64.8726 28.4979 65.127 28.6855 65.3145C28.873 65.5021 29.1274 65.6074 29.3926 65.6074C29.6578 65.6074 29.9121 65.5021 30.0997 65.3145C30.2872 65.127 30.3926 64.8726 30.3926 64.6074C30.3926 64.3422 30.2872 64.0879 30.0997 63.9003C29.9121 63.7128 29.6578 63.6074 29.3926 63.6074ZM47.498 65.9883C47.2328 65.9883 46.9785 66.0936 46.7909 66.2812C46.6034 66.4687 46.498 66.7231 46.498 66.9883C46.498 67.2535 46.6034 67.5079 46.7909 67.6954C46.9785 67.8829 47.2328 67.9883 47.498 67.9883C47.7633 67.9883 48.0176 67.8829 48.2052 67.6954C48.3927 67.5079 48.498 67.2535 48.498 66.9883C48.498 66.7231 48.3927 66.4687 48.2052 66.2812C48.0176 66.0936 47.7633 65.9883 47.498 65.9883ZM32.498 65.9902C32.2328 65.9902 31.9785 66.0956 31.7909 66.2831C31.6034 66.4707 31.498 66.725 31.498 66.9902C31.498 67.2555 31.6034 67.5098 31.7909 67.6973C31.9785 67.8849 32.2328 67.9902 32.498 67.9902C32.7633 67.9902 33.0176 67.8849 33.2052 67.6973C33.3927 67.5098 33.498 67.2555 33.498 66.9902C33.498 66.725 33.3927 66.4707 33.2052 66.2831C33.0176 66.0956 32.7633 65.9902 32.498 65.9902ZM36.1152 67.4883C35.85 67.4883 35.5957 67.5936 35.4081 67.7812C35.2206 67.9687 35.1152 68.2231 35.1152 68.4883C35.1152 68.7535 35.2206 69.0079 35.4081 69.1954C35.5957 69.3829 35.85 69.4883 36.1152 69.4883C36.3805 69.4883 36.6348 69.3829 36.8223 69.1954C37.0099 69.0079 37.1152 68.7535 37.1152 68.4883C37.1152 68.2231 37.0099 67.9687 36.8223 67.7812C36.6348 67.5936 36.3805 67.4883 36.1152 67.4883ZM43.8809 67.4883C43.6156 67.4883 43.3613 67.5936 43.1738 67.7812C42.9862 67.9687 42.8809 68.2231 42.8809 68.4883C42.8809 68.7535 42.9862 69.0079 43.1738 69.1954C43.3613 69.3829 43.6156 69.4883 43.8809 69.4883C44.1461 69.4883 44.4004 69.3829 44.588 69.1954C44.7755 69.0079 44.8809 68.7535 44.8809 68.4883C44.8809 68.2231 44.7755 67.9687 44.588 67.7812C44.4004 67.5936 44.1461 67.4883 43.8809 67.4883ZM40 68C39.7348 68 39.4804 68.1054 39.2929 68.2929C39.1054 68.4804 39 68.7348 39 69C39 69.2652 39.1054 69.5196 39.2929 69.7071C39.4804 69.8946 39.7348 70 40 70C40.2652 70 40.5196 69.8946 40.7071 69.7071C40.8946 69.5196 41 69.2652 41 69C41 68.7348 40.8946 68.4804 40.7071 68.2929C40.5196 68.1054 40.2652 68 40 68Z" fill="black"/>
</svg>
