<svg width="80" height="80" viewBox="0 0 80 80" fill="none" xmlns="http://www.w3.org/2000/svg">
<path d="M20 9C17.2505 9 15 11.2505 15 14V66C15 68.7495 17.2505 71 20 71H40H46.3398C46.0798 70.35 45.8499 69.68 45.6699 69H40H20C18.3315 69 17 67.6685 17 66V14C17 12.3315 18.3315 11 20 11H60C61.6685 11 63 12.3315 63 14V41V45.0195C63.33 45.0095 63.67 45 64 45C64.33 45 64.67 45.0095 65 45.0195V41V14C65 11.2505 62.7495 9 60 9H20ZM21 15V16V25H59V15H21ZM23 17H57V23H23V17ZM20 30C19.7348 30 19.4804 30.1054 19.2929 30.2929C19.1054 30.4804 19 30.7348 19 31C19 31.2652 19.1054 31.5196 19.2929 31.7071C19.4804 31.8946 19.7348 32 20 32C20.2652 32 20.5196 31.8946 20.7071 31.7071C20.8946 31.5196 21 31.2652 21 31C21 30.7348 20.8946 30.4804 20.7071 30.2929C20.5196 30.1054 20.2652 30 20 30ZM24 30C23.7348 30 23.4804 30.1054 23.2929 30.2929C23.1054 30.4804 23 30.7348 23 31C23 31.2652 23.1054 31.5196 23.2929 31.7071C23.4804 31.8946 23.7348 32 24 32C24.2652 32 24.5196 31.8946 24.7071 31.7071C24.8946 31.5196 25 31.2652 25 31C25 30.7348 24.8946 30.4804 24.7071 30.2929C24.5196 30.1054 24.2652 30 24 30ZM28 30C27.7348 30 27.4804 30.1054 27.2929 30.2929C27.1054 30.4804 27 30.7348 27 31C27 31.2652 27.1054 31.5196 27.2929 31.7071C27.4804 31.8946 27.7348 32 28 32C28.2652 32 28.5196 31.8946 28.7071 31.7071C28.8946 31.5196 29 31.2652 29 31C29 30.7348 28.8946 30.4804 28.7071 30.2929C28.5196 30.1054 28.2652 30 28 30ZM32 30C31.7348 30 31.4804 30.1054 31.2929 30.2929C31.1054 30.4804 31 30.7348 31 31C31 31.2652 31.1054 31.5196 31.2929 31.7071C31.4804 31.8946 31.7348 32 32 32C32.2652 32 32.5196 31.8946 32.7071 31.7071C32.8946 31.5196 33 31.2652 33 31C33 30.7348 32.8946 30.4804 32.7071 30.2929C32.5196 30.1054 32.2652 30 32 30ZM36 30C35.7348 30 35.4804 30.1054 35.2929 30.2929C35.1054 30.4804 35 30.7348 35 31C35 31.2652 35.1054 31.5196 35.2929 31.7071C35.4804 31.8946 35.7348 32 36 32C36.2652 32 36.5196 31.8946 36.7071 31.7071C36.8946 31.5196 37 31.2652 37 31C37 30.7348 36.8946 30.4804 36.7071 30.2929C36.5196 30.1054 36.2652 30 36 30ZM40 30C39.7348 30 39.4804 30.1054 39.2929 30.2929C39.1054 30.4804 39 30.7348 39 31C39 31.2652 39.1054 31.5196 39.2929 31.7071C39.4804 31.8946 39.7348 32 40 32C40.2652 32 40.5196 31.8946 40.7071 31.7071C40.8946 31.5196 41 31.2652 41 31C41 30.7348 40.8946 30.4804 40.7071 30.2929C40.5196 30.1054 40.2652 30 40 30ZM44 30C43.7348 30 43.4804 30.1054 43.2929 30.2929C43.1054 30.4804 43 30.7348 43 31C43 31.2652 43.1054 31.5196 43.2929 31.7071C43.4804 31.8946 43.7348 32 44 32C44.2652 32 44.5196 31.8946 44.7071 31.7071C44.8946 31.5196 45 31.2652 45 31C45 30.7348 44.8946 30.4804 44.7071 30.2929C44.5196 30.1054 44.2652 30 44 30ZM48 30C47.7348 30 47.4804 30.1054 47.2929 30.2929C47.1054 30.4804 47 30.7348 47 31C47 31.2652 47.1054 31.5196 47.2929 31.7071C47.4804 31.8946 47.7348 32 48 32C48.2652 32 48.5196 31.8946 48.7071 31.7071C48.8946 31.5196 49 31.2652 49 31C49 30.7348 48.8946 30.4804 48.7071 30.2929C48.5196 30.1054 48.2652 30 48 30ZM52 30C51.7348 30 51.4804 30.1054 51.2929 30.2929C51.1054 30.4804 51 30.7348 51 31C51 31.2652 51.1054 31.5196 51.2929 31.7071C51.4804 31.8946 51.7348 32 52 32C52.2652 32 52.5196 31.8946 52.7071 31.7071C52.8946 31.5196 53 31.2652 53 31C53 30.7348 52.8946 30.4804 52.7071 30.2929C52.5196 30.1054 52.2652 30 52 30ZM56 30C55.7348 30 55.4804 30.1054 55.2929 30.2929C55.1054 30.4804 55 30.7348 55 31C55 31.2652 55.1054 31.5196 55.2929 31.7071C55.4804 31.8946 55.7348 32 56 32C56.2652 32 56.5196 31.8946 56.7071 31.7071C56.8946 31.5196 57 31.2652 57 31C57 30.7348 56.8946 30.4804 56.7071 30.2929C56.5196 30.1054 56.2652 30 56 30ZM60 30C59.7348 30 59.4804 30.1054 59.2929 30.2929C59.1054 30.4804 59 30.7348 59 31C59 31.2652 59.1054 31.5196 59.2929 31.7071C59.4804 31.8946 59.7348 32 60 32C60.2652 32 60.5196 31.8946 60.7071 31.7071C60.8946 31.5196 61 31.2652 61 31C61 30.7348 60.8946 30.4804 60.7071 30.2929C60.5196 30.1054 60.2652 30 60 30ZM21 37V38V45H29V37H21ZM31 37V38V45H39V37H31ZM41 37V38V45H49V37H41ZM51 37V38V45H59V37H51ZM23 39H27V43H23V39ZM33 39H37V43H33V39ZM43 39H47V43H43V39ZM53 39H57V43H53V39ZM21 47V48V55H29V47H21ZM31 47V48V55H39V47H31ZM41 47V48V55H49V47H41ZM51 47V50.1602C52.34 48.8902 53.8593 47.82 55.5293 47H51ZM64 48C55.178 48 48 55.178 48 64C48 72.822 55.178 80 64 80C72.822 80 80 72.822 80 64C80 55.178 72.822 48 64 48ZM23 49H27V53H23V49ZM33 49H37V53H33V49ZM43 49H47V53H43V49ZM64 50C71.72 50 78 56.28 78 64C78 71.72 71.72 78 64 78C56.28 78 50 71.72 50 64C50 56.28 56.28 50 64 50ZM63.3906 55.8203V57.127C60.7226 57.354 59.1133 58.8197 59.1133 61.0527C59.1133 62.9447 60.2974 64.2325 62.4824 64.7715L63.3906 64.9883V69.0195C62.0756 68.8775 61.2139 68.1205 61.1289 67.0605H58.8203C58.8293 69.2925 60.5697 70.787 63.3887 70.957V72.1797H64.6953V70.9492C67.5433 70.7132 69.1797 69.2464 69.1797 66.9004C69.1807 64.9034 68.0358 63.683 65.6328 63.125L64.6953 62.9258V59.0957C65.8303 59.2467 66.6243 60.0221 66.6523 60.9961H68.9141C68.8671 58.8671 67.2213 57.353 64.6953 57.127V55.8203H63.3906ZM21 57V58V65H29V57H21ZM31 57V58V65H39V57H31ZM41 57V65H45.0195C45.0095 64.67 45 64.33 45 64C45 63.67 45.0095 63.33 45.0195 63H43V59H45.6699C45.8499 58.32 46.0798 57.65 46.3398 57H41ZM23 59H27V63H23V59ZM33 59H37V63H33V59ZM63.3906 59.084V62.6504C62.1226 62.3854 61.4512 61.7615 61.4512 60.8535C61.4512 59.8875 62.2656 59.151 63.3906 59.084ZM64.6953 65.2344C66.1903 65.5274 66.8711 66.1315 66.8711 67.1445C66.8711 68.2615 66.0773 68.9521 64.6953 69.0371V65.2344Z" fill="#F5F8FA"/>
</svg>
