<svg width="100" height="100" viewBox="0 0 100 100" fill="none" xmlns="http://www.w3.org/2000/svg">
<path d="M35 6.25C34.3115 6.25 33.75 6.81152 33.75 7.5C33.75 8.18848 34.3115 8.75 35 8.75C35.6885 8.75 36.25 8.18848 36.25 7.5C36.25 6.81152 35.6885 6.25 35 6.25ZM51.25 7.5C50.5615 7.5 50 8.06152 50 8.75C50 9.43848 50.5615 10 51.25 10C51.9385 10 52.5 9.43848 52.5 8.75C52.5 8.06152 51.9385 7.5 51.25 7.5ZM56.25 7.5C55.5615 7.5 55 8.06152 55 8.75C55 9.43848 55.5615 10 56.25 10C56.9385 10 57.5 9.43848 57.5 8.75C57.5 8.06152 56.9385 7.5 56.25 7.5ZM61.25 7.5C60.5615 7.5 60 8.06152 60 8.75C60 9.43848 60.5615 10 61.25 10C61.9385 10 62.5 9.43848 62.5 8.75C62.5 8.06152 61.9385 7.5 61.25 7.5ZM66.25 7.5C65.5615 7.5 65 8.06152 65 8.75C65 9.43848 65.5615 10 66.25 10C66.9385 10 67.5 9.43848 67.5 8.75C67.5 8.06152 66.9385 7.5 66.25 7.5ZM71.25 8.75C70.5615 8.75 70 9.31152 70 10C70 10.6885 70.5615 11.25 71.25 11.25C71.9385 11.25 72.5 10.6885 72.5 10C72.5 9.31152 71.9385 8.75 71.25 8.75ZM38.75 10C38.0615 10 37.5 10.5615 37.5 11.25C37.5 11.9385 38.0615 12.5 38.75 12.5C39.4385 12.5 40 11.9385 40 11.25C40 10.5615 39.4385 10 38.75 10ZM76.25 11.25C75.5615 11.25 75 11.8115 75 12.5C75 13.1885 75.5615 13.75 76.25 13.75C76.9385 13.75 77.5 13.1885 77.5 12.5C77.5 11.8115 76.9385 11.25 76.25 11.25ZM43.75 12.5C43.0615 12.5 42.5 13.0615 42.5 13.75C42.5 14.4385 43.0615 15 43.75 15C44.4385 15 45 14.4385 45 13.75C45 13.0615 44.4385 12.5 43.75 12.5ZM48.75 13.75C48.0615 13.75 47.5 14.3115 47.5 15C47.5 15.6885 48.0615 16.25 48.75 16.25C49.4385 16.25 50 15.6885 50 15C50 14.3115 49.4385 13.75 48.75 13.75ZM53.75 13.75C53.0615 13.75 52.5 14.3115 52.5 15C52.5 15.6885 53.0615 16.25 53.75 16.25C54.4385 16.25 55 15.6885 55 15C55 14.3115 54.4385 13.75 53.75 13.75ZM58.75 13.75C58.0615 13.75 57.5 14.3115 57.5 15C57.5 15.6885 58.0615 16.25 58.75 16.25C59.4385 16.25 60 15.6885 60 15C60 14.3115 59.4385 13.75 58.75 13.75ZM63.75 13.75C63.0615 13.75 62.5 14.3115 62.5 15C62.5 15.6885 63.0615 16.25 63.75 16.25C64.4385 16.25 65 15.6885 65 15C65 14.3115 64.4385 13.75 63.75 13.75ZM80 15C79.3115 15 78.75 15.5615 78.75 16.25C78.75 16.9385 79.3115 17.5 80 17.5C80.6885 17.5 81.25 16.9385 81.25 16.25C81.25 15.5615 80.6885 15 80 15ZM70 20V40.2881L61.25 35L51.25 41.04L41.25 35L31.25 41.04L21.25 35L10 41.7969V88.75H90V20H70ZM72.5 22.5H87.5V28.75C86.8115 28.75 86.25 29.3115 86.25 30C86.25 30.6885 86.8115 31.25 87.5 31.25V37.5C86.8115 37.5 86.25 38.0615 86.25 38.75C86.25 39.4385 86.8115 40 87.5 40V47.5C86.8115 47.5 86.25 48.0615 86.25 48.75C86.25 49.4385 86.8115 50 87.5 50V56.25C86.8115 56.25 86.25 56.8115 86.25 57.5C86.25 58.1885 86.8115 58.75 87.5 58.75V66.25C86.8115 66.25 86.25 66.8115 86.25 67.5C86.25 68.1885 86.8115 68.75 87.5 68.75V76.25C86.8115 76.25 86.25 76.8115 86.25 77.5C86.25 78.1885 86.8115 78.75 87.5 78.75V86.25H12.5V43.2031L21.25 37.9199L31.25 43.96L41.25 37.9199L51.25 43.96L61.25 37.9199L72.5 44.7119V22.5ZM77.5 28.75C76.8115 28.75 76.25 29.3115 76.25 30C76.25 30.6885 76.8115 31.25 77.5 31.25C78.1885 31.25 78.75 30.6885 78.75 30C78.75 29.3115 78.1885 28.75 77.5 28.75ZM82.5 28.75C81.8115 28.75 81.25 29.3115 81.25 30C81.25 30.6885 81.8115 31.25 82.5 31.25C83.1885 31.25 83.75 30.6885 83.75 30C83.75 29.3115 83.1885 28.75 82.5 28.75ZM77.5 37.5C76.8115 37.5 76.25 38.0615 76.25 38.75C76.25 39.4385 76.8115 40 77.5 40C78.1885 40 78.75 39.4385 78.75 38.75C78.75 38.0615 78.1885 37.5 77.5 37.5ZM82.5 37.5C81.8115 37.5 81.25 38.0615 81.25 38.75C81.25 39.4385 81.8115 40 82.5 40C83.1885 40 83.75 39.4385 83.75 38.75C83.75 38.0615 83.1885 37.5 82.5 37.5ZM31.25 46.25C30.5615 46.25 30 46.8115 30 47.5C30 48.1885 30.5615 48.75 31.25 48.75C31.9385 48.75 32.5 48.1885 32.5 47.5C32.5 46.8115 31.9385 46.25 31.25 46.25ZM51.25 46.25C50.5615 46.25 50 46.8115 50 47.5C50 48.1885 50.5615 48.75 51.25 48.75C51.9385 48.75 52.5 48.1885 52.5 47.5C52.5 46.8115 51.9385 46.25 51.25 46.25ZM71.25 46.25C70.5615 46.25 70 46.8115 70 47.5C70 48.1885 70.5615 48.75 71.25 48.75C71.9385 48.75 72.5 48.1885 72.5 47.5C72.5 46.8115 71.9385 46.25 71.25 46.25ZM77.5 47.5C76.8115 47.5 76.25 48.0615 76.25 48.75C76.25 49.4385 76.8115 50 77.5 50C78.1885 50 78.75 49.4385 78.75 48.75C78.75 48.0615 78.1885 47.5 77.5 47.5ZM82.5 47.5C81.8115 47.5 81.25 48.0615 81.25 48.75C81.25 49.4385 81.8115 50 82.5 50C83.1885 50 83.75 49.4385 83.75 48.75C83.75 48.0615 83.1885 47.5 82.5 47.5ZM31.25 51.25C30.5615 51.25 30 51.8115 30 52.5C30 53.1885 30.5615 53.75 31.25 53.75C31.9385 53.75 32.5 53.1885 32.5 52.5C32.5 51.8115 31.9385 51.25 31.25 51.25ZM51.25 51.25C50.5615 51.25 50 51.8115 50 52.5C50 53.1885 50.5615 53.75 51.25 53.75C51.9385 53.75 52.5 53.1885 52.5 52.5C52.5 51.8115 51.9385 51.25 51.25 51.25ZM71.25 51.25C70.5615 51.25 70 51.8115 70 52.5C70 53.1885 70.5615 53.75 71.25 53.75C71.9385 53.75 72.5 53.1885 72.5 52.5C72.5 51.8115 71.9385 51.25 71.25 51.25ZM17.5 52.5V62.5H25V52.5H17.5ZM37.5 52.5V62.5H45V52.5H37.5ZM57.5 52.5V62.5H65V52.5H57.5ZM20 55H22.5V60H20V55ZM40 55H42.5V60H40V55ZM60 55H62.5V60H60V55ZM31.25 56.25C30.5615 56.25 30 56.8115 30 57.5C30 58.1885 30.5615 58.75 31.25 58.75C31.9385 58.75 32.5 58.1885 32.5 57.5C32.5 56.8115 31.9385 56.25 31.25 56.25ZM51.25 56.25C50.5615 56.25 50 56.8115 50 57.5C50 58.1885 50.5615 58.75 51.25 58.75C51.9385 58.75 52.5 58.1885 52.5 57.5C52.5 56.8115 51.9385 56.25 51.25 56.25ZM71.25 56.25C70.5615 56.25 70 56.8115 70 57.5C70 58.1885 70.5615 58.75 71.25 58.75C71.9385 58.75 72.5 58.1885 72.5 57.5C72.5 56.8115 71.9385 56.25 71.25 56.25ZM77.5 56.25C76.8115 56.25 76.25 56.8115 76.25 57.5C76.25 58.1885 76.8115 58.75 77.5 58.75C78.1885 58.75 78.75 58.1885 78.75 57.5C78.75 56.8115 78.1885 56.25 77.5 56.25ZM82.5 56.25C81.8115 56.25 81.25 56.8115 81.25 57.5C81.25 58.1885 81.8115 58.75 82.5 58.75C83.1885 58.75 83.75 58.1885 83.75 57.5C83.75 56.8115 83.1885 56.25 82.5 56.25ZM31.25 61.25C30.5615 61.25 30 61.8115 30 62.5C30 63.1885 30.5615 63.75 31.25 63.75C31.9385 63.75 32.5 63.1885 32.5 62.5C32.5 61.8115 31.9385 61.25 31.25 61.25ZM51.25 61.25C50.5615 61.25 50 61.8115 50 62.5C50 63.1885 50.5615 63.75 51.25 63.75C51.9385 63.75 52.5 63.1885 52.5 62.5C52.5 61.8115 51.9385 61.25 51.25 61.25ZM71.25 61.25C70.5615 61.25 70 61.8115 70 62.5C70 63.1885 70.5615 63.75 71.25 63.75C71.9385 63.75 72.5 63.1885 72.5 62.5C72.5 61.8115 71.9385 61.25 71.25 61.25ZM31.25 66.25C30.5615 66.25 30 66.8115 30 67.5C30 68.1885 30.5615 68.75 31.25 68.75C31.9385 68.75 32.5 68.1885 32.5 67.5C32.5 66.8115 31.9385 66.25 31.25 66.25ZM51.25 66.25C50.5615 66.25 50 66.8115 50 67.5C50 68.1885 50.5615 68.75 51.25 68.75C51.9385 68.75 52.5 68.1885 52.5 67.5C52.5 66.8115 51.9385 66.25 51.25 66.25ZM71.25 66.25C70.5615 66.25 70 66.8115 70 67.5C70 68.1885 70.5615 68.75 71.25 68.75C71.9385 68.75 72.5 68.1885 72.5 67.5C72.5 66.8115 71.9385 66.25 71.25 66.25ZM77.5 66.25C76.8115 66.25 76.25 66.8115 76.25 67.5C76.25 68.1885 76.8115 68.75 77.5 68.75C78.1885 68.75 78.75 68.1885 78.75 67.5C78.75 66.8115 78.1885 66.25 77.5 66.25ZM82.5 66.25C81.8115 66.25 81.25 66.8115 81.25 67.5C81.25 68.1885 81.8115 68.75 82.5 68.75C83.1885 68.75 83.75 68.1885 83.75 67.5C83.75 66.8115 83.1885 66.25 82.5 66.25ZM17.5 67.5V77.5H25V67.5H17.5ZM37.5 67.5V77.5H45V67.5H37.5ZM57.5 67.5V77.5H65V67.5H57.5ZM20 70H22.5V75H20V70ZM40 70H42.5V75H40V70ZM60 70H62.5V75H60V70ZM31.25 71.25C30.5615 71.25 30 71.8115 30 72.5C30 73.1885 30.5615 73.75 31.25 73.75C31.9385 73.75 32.5 73.1885 32.5 72.5C32.5 71.8115 31.9385 71.25 31.25 71.25ZM51.25 71.25C50.5615 71.25 50 71.8115 50 72.5C50 73.1885 50.5615 73.75 51.25 73.75C51.9385 73.75 52.5 73.1885 52.5 72.5C52.5 71.8115 51.9385 71.25 51.25 71.25ZM71.25 71.25C70.5615 71.25 70 71.8115 70 72.5C70 73.1885 70.5615 73.75 71.25 73.75C71.9385 73.75 72.5 73.1885 72.5 72.5C72.5 71.8115 71.9385 71.25 71.25 71.25ZM31.25 76.25C30.5615 76.25 30 76.8115 30 77.5C30 78.1885 30.5615 78.75 31.25 78.75C31.9385 78.75 32.5 78.1885 32.5 77.5C32.5 76.8115 31.9385 76.25 31.25 76.25ZM51.25 76.25C50.5615 76.25 50 76.8115 50 77.5C50 78.1885 50.5615 78.75 51.25 78.75C51.9385 78.75 52.5 78.1885 52.5 77.5C52.5 76.8115 51.9385 76.25 51.25 76.25ZM71.25 76.25C70.5615 76.25 70 76.8115 70 77.5C70 78.1885 70.5615 78.75 71.25 78.75C71.9385 78.75 72.5 78.1885 72.5 77.5C72.5 76.8115 71.9385 76.25 71.25 76.25ZM77.5 76.25C76.8115 76.25 76.25 76.8115 76.25 77.5C76.25 78.1885 76.8115 78.75 77.5 78.75C78.1885 78.75 78.75 78.1885 78.75 77.5C78.75 76.8115 78.1885 76.25 77.5 76.25ZM82.5 76.25C81.8115 76.25 81.25 76.8115 81.25 77.5C81.25 78.1885 81.8115 78.75 82.5 78.75C83.1885 78.75 83.75 78.1885 83.75 77.5C83.75 76.8115 83.1885 76.25 82.5 76.25ZM31.25 81.25C30.5615 81.25 30 81.8115 30 82.5C30 83.1885 30.5615 83.75 31.25 83.75C31.9385 83.75 32.5 83.1885 32.5 82.5C32.5 81.8115 31.9385 81.25 31.25 81.25ZM51.25 81.25C50.5615 81.25 50 81.8115 50 82.5C50 83.1885 50.5615 83.75 51.25 83.75C51.9385 83.75 52.5 83.1885 52.5 82.5C52.5 81.8115 51.9385 81.25 51.25 81.25ZM71.25 81.25C70.5615 81.25 70 81.8115 70 82.5C70 83.1885 70.5615 83.75 71.25 83.75C71.9385 83.75 72.5 83.1885 72.5 82.5C72.5 81.8115 71.9385 81.25 71.25 81.25Z" fill="#F5F8FA"/>
</svg>
