<svg width="25" height="25" viewBox="0 0 25 25" fill="none" xmlns="http://www.w3.org/2000/svg">
<path d="M10.9375 1.5625V5.46875L12.5 7.03125V3.125H17.9688V7.03125H21.875V17.1875H15.625V18.75H23.4375V5.92041L23.2635 5.71289L19.5099 1.74866L19.3146 1.5625H10.9375ZM19.6869 3.83301L21.2891 5.52979H19.6869V3.83301ZM1.5625 6.25V23.4375H14.0625V10.6079L13.8885 10.4004L10.1562 6.25H1.5625ZM3.125 7.8125H8.59375V11.7188H12.5V21.875H3.125V7.8125ZM10.3119 8.52051L11.9141 10.2173H10.3119V8.52051ZM15.625 9.375V10.9375H20.3125V9.375H15.625ZM15.625 12.5V14.0625H20.3125V12.5H15.625ZM4.6875 14.0625V15.625H10.9375V14.0625H4.6875ZM4.6875 17.1875V18.75H10.9375V17.1875H4.6875Z" fill="#686868"/>
</svg>
