<svg width="11" height="14" viewBox="0 0 11 14" fill="none" xmlns="http://www.w3.org/2000/svg">
<path d="M5.5 0C2.4707 0 0 2.27981 0 5.07505C0 5.8601 0.348047 6.72048 0.829297 7.62843C1.31055 8.54036 1.93789 9.49193 2.56953 10.3602C3.82422 12.1008 5.07461 13.5163 5.07461 13.5163L5.5 14L5.92539 13.5163C5.92539 13.5163 7.17578 12.1008 8.43477 10.3602C9.06211 9.49193 9.68945 8.54036 10.1707 7.62843C10.652 6.72048 11 5.8601 11 5.07505C11 2.27981 8.5293 0 5.5 0ZM5.5 1.01501C7.93633 1.01501 9.9 2.82696 9.9 5.07505C9.9 5.55084 9.6293 6.33985 9.18242 7.18437C8.73555 8.03285 8.12539 8.9527 7.51953 9.80119C6.50977 11.1968 5.82227 11.966 5.5 12.3387C5.17773 11.966 4.49023 11.1968 3.48047 9.80119C2.87461 8.9527 2.26445 8.03285 1.81758 7.18437C1.3707 6.33985 1.1 5.55084 1.1 5.07505C1.1 2.82696 3.06367 1.01501 5.5 1.01501ZM5.5 4.06004C4.89414 4.06004 4.4 4.516 4.4 5.07505C4.4 5.6341 4.89414 6.09006 5.5 6.09006C6.10586 6.09006 6.6 5.6341 6.6 5.07505C6.6 4.516 6.10586 4.06004 5.5 4.06004Z" fill="white"/>
</svg>
