<svg width="80" height="80" viewBox="0 0 80 80" fill="none" xmlns="http://www.w3.org/2000/svg">
<path d="M24.0019 8.35932C23.629 8.34246 23.2599 8.36432 22.8984 8.41986C20.7296 8.75316 18.8525 10.3456 18.2793 12.5976L8.00583 52.9902C7.24147 55.9931 9.0735 59.0735 12.0761 59.8378L20 61.8535V64.5449C20 67.5455 22.4544 69.9999 25.455 69.9999H65.5449C68.5455 69.9999 71 67.5463 71 64.5449V24.455C71 21.5932 68.7673 19.2322 65.957 19.0195C65.8315 18.9115 65.6812 18.8363 65.5195 18.8007L25.1269 8.52729C24.7516 8.43174 24.3748 8.37617 24.0019 8.35932ZM23.9023 10.3554C24.144 10.3674 24.3884 10.4045 24.6328 10.4667L58.1914 18.9999H25.455C22.4544 18.9999 20 21.4544 20 24.455V59.789L12.5683 57.8984C10.613 57.4007 9.4457 55.4394 9.94333 53.4843L20.2187 13.0898C20.6542 11.3789 22.2104 10.2718 23.9023 10.3554ZM25.455 20.9999H65.5449C67.4655 20.9999 69 22.5357 69 24.455V64.5449C69 66.4654 67.4642 67.9999 65.5449 67.9999H25.455C23.5357 67.9999 22 66.4642 22 64.5449V61.0956V24.455C22 22.5357 23.5357 20.9999 25.455 20.9999ZM65 23.9999L64.1992 24.4023L64.041 25.2831L64.6523 25.9374L65 25.9999L65.8008 25.5976L65.959 24.7167L65.3476 24.0624L65 23.9999ZM31.7265 25.9824L30.6953 28.5644L28.1133 29.5976L30.6953 30.6288L31.7265 33.2109L32.7597 30.6288L35.3398 29.5976L32.7597 28.5644L31.7265 25.9824ZM65 27.9999L64.1992 28.4023L64.041 29.2831L64.6523 29.9374L65 29.9999L65.8008 29.5976L65.959 28.7167L65.3476 28.0624L65 27.9999ZM65 31.9999L64.1992 32.4023L64.041 33.2831L64.6523 33.9374L65 33.9999L65.8008 33.5976L65.959 32.7167L65.3476 32.0624L65 31.9999ZM38.289 35.6464L36.873 39.289L33.2304 40.705L36.873 42.121L38.289 45.7656L39.705 42.121L43.3476 40.705L39.705 39.289L38.289 35.6464ZM65 35.9999L64.1992 36.4023L64.041 37.2831L64.6523 37.9374L65 37.9999L65.8008 37.5976L65.959 36.7167L65.3476 36.0624L65 35.9999ZM65 39.9999L64.1992 40.4023L64.041 41.2831L64.6523 41.9374L65 41.9999L65.8008 41.5976L65.959 40.7167L65.3476 40.0624L65 39.9999ZM65 43.9999L64.1992 44.4023L64.041 45.2831L64.6523 45.9374L65 45.9999L65.8008 45.5976L65.959 44.7167L65.3476 44.0624L65 43.9999ZM65 47.9999L64.1992 48.4023L64.041 49.2831L64.6523 49.9374L65 49.9999L65.8008 49.5976L65.959 48.7167L65.3476 48.0624L65 47.9999ZM28.7265 48.9824L27.6953 51.5644L25.1133 52.5976L27.6953 53.6288L28.7265 56.2109L29.7597 53.6288L32.3398 52.5976L29.7597 51.5644L28.7265 48.9824ZM65 51.9999L64.1992 52.4023L64.041 53.2831L64.6523 53.9374L65 53.9999L65.8008 53.5976L65.959 52.7167L65.3476 52.0624L65 51.9999ZM65 55.9999L64.1992 56.4023L64.041 57.2831L64.6523 57.9374L65 57.9999L65.8008 57.5976L65.959 56.7167L65.3476 56.0624L65 55.9999ZM65 59.9999L64.1992 60.4023L64.041 61.2831L64.6523 61.9374L65 61.9999L65.8008 61.5976L65.959 60.7167L65.3476 60.0624L65 59.9999ZM65 63.9999L64.1992 64.4023L64.041 65.2831L64.6523 65.9374L65 65.9999L65.8008 65.5976L65.959 64.7167L65.3476 64.0624L65 63.9999Z" fill="black"/>
</svg>
