<svg width="25" height="25" viewBox="0 0 25 25" fill="none" xmlns="http://www.w3.org/2000/svg">
<path d="M7.03125 3.125C5.73906 3.125 4.6875 4.17656 4.6875 5.46875V19.5312C4.6875 20.8234 5.73906 21.875 7.03125 21.875H13.4155L13.797 21.4935C13.7689 21.4576 13.7503 21.4135 13.7238 21.3776C13.4581 21.0494 13.2291 20.6969 13.0463 20.3125H7.03125C6.6 20.3125 6.25 19.9609 6.25 19.5312V5.46875C6.25 5.03906 6.6 4.6875 7.03125 4.6875H17.9688C18.4 4.6875 18.75 5.03906 18.75 5.46875V12.5793C19.3031 12.659 19.8266 12.815 20.3125 13.0463V5.46875C20.3125 4.17656 19.2609 3.125 17.9688 3.125H7.03125ZM9.375 7.8125V9.375H15.625V7.8125H9.375ZM9.375 10.9375V12.5H15.625V10.9375H9.375ZM9.375 14.0625V15.625H12.5V14.0625H9.375ZM17.9688 14.0656C17.552 14.0656 17.1338 14.207 16.7999 14.4928L16.5985 14.6637L16.3391 14.6851C15.4618 14.7538 14.7593 15.4621 14.6881 16.3361L14.6667 16.5985L14.4928 16.7999C13.923 17.4683 13.9213 18.4699 14.4928 19.1376L14.6637 19.3359L14.6851 19.5984C14.7519 20.4517 15.4279 21.1286 16.2689 21.2311L14.0625 23.4375H15.625V25L17.9688 22.6562L20.3125 25V23.4375H21.875L19.5435 21.2555L19.5984 21.2494C20.4757 21.1806 21.1782 20.4754 21.2494 19.6014L21.2708 19.3359L21.4447 19.1376V19.1345C22.0142 18.4669 22.0138 17.4675 21.4447 16.7999L21.2738 16.6016L21.2494 16.3361C21.1806 15.4588 20.4754 14.7563 19.6014 14.6851L19.339 14.6637L19.1376 14.4928C18.8034 14.2079 18.3855 14.0655 17.9688 14.0656ZM17.9688 15.6219C18.0226 15.6225 18.0773 15.6428 18.1244 15.683L18.3868 15.9058C18.5948 16.0857 18.8564 16.1938 19.1315 16.214L19.4763 16.2415C19.5978 16.2525 19.6837 16.3394 19.693 16.4581V16.4612L19.7205 16.8152V16.8182C19.744 17.0855 19.8483 17.3385 20.0226 17.5446H20.0256L20.2545 17.8131C20.3348 17.9073 20.336 18.0296 20.2576 18.1213L20.0256 18.3899C19.8473 18.5973 19.7406 18.8547 19.7205 19.1284L19.693 19.4733C19.683 19.5962 19.5959 19.6836 19.4763 19.693L19.1193 19.7205H19.1162C18.849 19.744 18.599 19.8483 18.3929 20.0226L18.3899 20.0256L18.1213 20.2576C18.0296 20.3361 17.9073 20.3348 17.8131 20.2545L17.5507 20.0287L17.5476 20.0256C17.3403 19.8471 17.0797 19.7406 16.806 19.7205L16.4612 19.693C16.3383 19.683 16.2508 19.5959 16.2415 19.4763L16.214 19.1193V19.1162C16.1904 18.849 16.0862 18.599 15.9119 18.3929V18.3899L15.6799 18.1213C15.6022 18.0305 15.6021 17.9099 15.6799 17.8162V17.8131L15.9058 17.5507L15.9088 17.5476C16.0872 17.3402 16.1939 17.0797 16.214 16.806L16.2445 16.4642V16.4612C16.2545 16.3383 16.3416 16.2508 16.4612 16.2415L16.8182 16.214H16.8213C17.081 16.1911 17.3384 16.0894 17.5507 15.9058L17.5476 15.9119L17.8162 15.683V15.6799C17.862 15.6407 17.9149 15.6214 17.9688 15.6219Z" fill="#686868"/>
</svg>
