<svg width="13" height="13" viewBox="0 0 13 13" fill="none" xmlns="http://www.w3.org/2000/svg">
<path d="M2.37047 0L0.796254 1.57422C-0.0670273 2.4375 -0.254527 3.78125 0.36266 4.83594C1.05016 6.01562 1.61266 6.88672 3.96813 9.23828C6.31969 11.5938 6.96032 11.9141 8.12047 12.5938C9.17907 13.2109 10.5189 13.0234 11.3783 12.1602L12.9564 10.5859L9.90954 7.54297L8.67125 8.78125C8.52282 8.71484 8.30016 8.59766 8.04235 8.43359C7.5111 8.09375 6.83141 7.57422 6.23375 6.97266C5.63219 6.375 5.04625 5.62891 4.64 5.02734C4.44078 4.73047 4.28063 4.46094 4.19469 4.28516C4.19078 4.27734 4.19078 4.27734 4.18688 4.26953L5.41344 3.04297L2.37047 0ZM2.37047 1.41406L3.99938 3.04297L3.28453 3.76172C3.1361 3.91016 3.12047 4.07422 3.12438 4.16797C3.12438 4.25781 3.14 4.32031 3.15563 4.37891C3.19078 4.5 3.23766 4.60547 3.29625 4.73047C3.41735 4.97266 3.59313 5.26172 3.81188 5.58984C4.24938 6.23828 4.86657 7.02344 5.52282 7.68359C6.18297 8.33984 6.90953 8.89453 7.50719 9.27344C7.80407 9.46484 8.06579 9.60938 8.28844 9.70703C8.40172 9.75781 8.50329 9.79688 8.62438 9.82031C8.68297 9.83203 8.74938 9.83984 8.83922 9.83203C8.92907 9.82812 9.06969 9.79688 9.19469 9.67188L9.90954 8.95703L11.5423 10.5859L10.6713 11.457C10.1283 12 9.28844 12.1172 8.62438 11.7305C7.44469 11.0391 6.99547 10.8555 4.67125 8.53516C2.35094 6.21094 1.90563 5.49609 1.22594 4.33203C0.839223 3.66797 0.95641 2.82812 1.49938 2.28516L2.37047 1.41406Z" fill="white"/>
</svg>
