<svg width="25" height="25" viewBox="0 0 25 25" fill="none" xmlns="http://www.w3.org/2000/svg">
<path d="M7.03125 3.125C5.74341 3.125 4.6875 4.18091 4.6875 5.46875V19.5312C4.6875 20.8191 5.74341 21.875 7.03125 21.875H17.9688C19.2566 21.875 20.3125 20.8191 20.3125 19.5312V5.46875C20.3125 4.18091 19.2566 3.125 17.9688 3.125H7.03125ZM7.03125 4.6875H17.9688C18.4082 4.6875 18.75 5.0293 18.75 5.46875V19.5312C18.75 19.9707 18.4082 20.3125 17.9688 20.3125H7.03125C6.5918 20.3125 6.25 19.9707 6.25 19.5312V5.46875C6.25 5.0293 6.5918 4.6875 7.03125 4.6875ZM7.8125 6.25V7.8125H17.1875V6.25H7.8125ZM7.8125 9.375V10.9375H17.1875V9.375H7.8125ZM10.1562 12.5C8.98438 12.5 7.8125 13.4521 7.8125 14.8438C7.8125 15.625 8.31909 16.2231 8.77686 16.8274C8.44116 16.9434 8.12378 17.1875 7.8125 17.1875V18.75C8.61816 18.75 9.32007 18.3167 10.022 17.9443C10.6201 18.3105 11.2061 18.75 11.9141 18.75C12.6404 18.75 13.269 18.4509 13.6841 18.042C14.1052 17.627 14.3494 17.1509 14.5386 16.7236C14.7034 16.3452 14.8132 16.0339 14.917 15.8142C14.9658 15.8875 14.9841 15.918 15.0635 16.04C15.3564 16.51 16.0767 17.1875 17.1875 17.1875V15.625C16.5405 15.625 16.5771 15.5212 16.3818 15.21C16.2903 15.0574 16.1865 14.8315 15.9668 14.5752C15.741 14.3127 15.2954 14.0625 14.8438 14.0625C14.5142 14.0625 14.1907 14.2212 13.9954 14.4043C13.8 14.5874 13.6841 14.7827 13.5864 14.9719C13.385 15.3503 13.2568 15.741 13.0981 16.0889C12.9456 16.4429 12.7747 16.748 12.5977 16.9189C12.4146 17.0959 12.262 17.1875 11.9141 17.1875C11.7859 17.1875 11.6394 17.0349 11.499 16.9983C12.0544 16.3879 12.5 15.686 12.5 14.8438C12.5 13.4521 11.3281 12.5 10.1562 12.5ZM10.1562 14.0625C10.5469 14.0625 10.9375 14.2822 10.9375 14.8438C10.9375 15.2344 10.5774 15.7532 10.083 16.2048C9.69238 15.7654 9.375 15.2649 9.375 14.8438C9.375 14.2822 9.76562 14.0625 10.1562 14.0625Z" fill="#686868"/>
</svg>
