<svg width="150" height="97" viewBox="0 0 150 97" fill="none" xmlns="http://www.w3.org/2000/svg">
<path d="M9.50019 80.302C9.67193 80.302 9.77927 80.4018 9.82579 80.6051L14.1623 96.2377C14.1793 96.275 14.1828 96.3169 14.1724 96.3566C14.162 96.3962 14.1382 96.431 14.105 96.4552C14.035 96.5107 13.9476 96.5397 13.8582 96.5372H10.7811C10.6094 96.5372 10.502 96.4374 10.4555 96.2377L9.50019 92.7503H4.67709L3.72178 96.2377C3.67526 96.4374 3.56434 96.5372 3.3926 96.5372H0.319129C0.229706 96.5397 0.142261 96.5107 0.0722491 96.4552C0.0390927 96.431 0.0153025 96.3962 0.00487718 96.3566C-0.00554814 96.3169 -0.00197302 96.275 0.0150016 96.2377L4.3515 80.6051C4.39801 80.4018 4.50535 80.302 4.67709 80.302H9.50019ZM5.92222 87.8758L5.45709 89.6159H8.7202L8.23001 87.8758L7.15662 83.2046H6.99204L5.92222 87.8758Z" fill="white"/>
<path d="M28.9393 96.1914C28.9623 96.2296 28.9744 96.2734 28.9744 96.318C28.9744 96.3626 28.9623 96.4063 28.9393 96.4446C28.9148 96.4842 28.8797 96.5161 28.838 96.5369C28.7963 96.5577 28.7496 96.5665 28.7031 96.5622H25.3005C25.2199 96.5632 25.1405 96.5422 25.0711 96.5013C25.0017 96.4604 24.9449 96.4013 24.9069 96.3305L21.1286 89.9869H19.6974V96.277C19.7034 96.3182 19.6996 96.3602 19.6865 96.3997C19.6733 96.4392 19.6511 96.4751 19.6216 96.5045C19.592 96.534 19.556 96.5561 19.5164 96.5692C19.4767 96.5823 19.4346 96.5861 19.3932 96.5801H16.377C16.3357 96.5861 16.2935 96.5823 16.2539 96.5692C16.2142 96.5561 16.1782 96.534 16.1487 96.5045C16.1192 96.4751 16.0969 96.4392 16.0838 96.3997C16.0706 96.3602 16.0669 96.3182 16.0729 96.277V80.623C16.0669 80.5818 16.0706 80.5398 16.0838 80.5003C16.0969 80.4608 16.1192 80.4249 16.1487 80.3955C16.1782 80.366 16.2142 80.3439 16.2539 80.3308C16.2935 80.3176 16.3357 80.3139 16.377 80.3199H19.404C19.4453 80.3139 19.4875 80.3176 19.5271 80.3308C19.5667 80.3439 19.6028 80.366 19.6323 80.3955C19.6618 80.4249 19.6841 80.4608 19.6972 80.5003C19.7104 80.5398 19.7141 80.5818 19.7081 80.623V86.8489H21.082L24.7208 80.5517C24.7585 80.4806 24.8153 80.4213 24.8847 80.3803C24.9542 80.3394 25.0337 80.3185 25.1144 80.3199H28.4491C28.4936 80.3154 28.5385 80.3241 28.578 80.3451C28.6175 80.366 28.6498 80.3982 28.6709 80.4376C28.691 80.4768 28.7015 80.5202 28.7015 80.5642C28.7015 80.6082 28.691 80.6516 28.6709 80.6908L24.2986 88.2931L28.9393 96.1914Z" fill="white"/>
<path d="M37.0469 80.3021C37.8196 80.2948 38.5894 80.3968 39.3333 80.6052C39.9961 80.7879 40.6145 81.1034 41.1509 81.5323C41.673 81.9644 42.084 82.5145 42.3495 83.137C42.6537 83.8725 42.8012 84.663 42.7824 85.4583V85.6901C42.7987 86.5081 42.644 87.3205 42.328 88.0756C42.0459 88.7282 41.6189 89.3085 41.0793 89.773C40.5269 90.2347 39.885 90.5782 39.1937 90.7821C38.4304 91.0118 37.6368 91.126 36.8394 91.1208H34.5781V96.277C34.5841 96.3182 34.5804 96.3602 34.5673 96.3997C34.5541 96.4392 34.5319 96.4751 34.5023 96.5046C34.4728 96.534 34.4368 96.5562 34.3971 96.5693C34.3575 96.5824 34.3153 96.5861 34.274 96.5801H31.2435C31.2024 96.5855 31.1607 96.5813 31.1215 96.5679C31.0823 96.5545 31.0468 96.5323 31.0177 96.5029C30.9886 96.4736 30.9667 96.4379 30.9537 96.3987C30.9407 96.3595 30.9371 96.3179 30.9429 96.277V80.6231C30.9371 80.5822 30.9407 80.5405 30.9537 80.5014C30.9667 80.4622 30.9886 80.4265 31.0177 80.3971C31.0468 80.3678 31.0823 80.3455 31.1215 80.3322C31.1607 80.3188 31.2024 80.3146 31.2435 80.32L37.0469 80.3021ZM39.1007 85.6687C39.1248 85.3635 39.0819 85.0568 38.975 84.7698C38.8681 84.4829 38.6998 84.2226 38.4817 84.007C38.0714 83.6433 37.4071 83.4614 36.4888 83.4614H34.5996V88.1541H36.4423C37.3582 88.1541 38.0261 87.9603 38.4459 87.5728C38.6655 87.3505 38.8351 87.0842 38.9437 86.7916C39.0522 86.499 39.0972 86.1867 39.0756 85.8755L39.1007 85.6687Z" fill="white"/>
<path d="M51.6129 79.9995C52.4559 79.9987 53.2927 80.1447 54.0853 80.431C54.867 80.7105 55.5812 81.1502 56.182 81.7218C56.8051 82.3264 57.2928 83.0555 57.6131 83.8613C57.9879 84.8235 58.1702 85.8496 58.1498 86.8816V89.9482C58.1706 90.9802 57.9883 92.0063 57.6131 92.9684C57.2951 93.7806 56.8072 94.516 56.182 95.1257C55.5812 95.6973 54.867 96.137 54.0853 96.4166C53.2925 96.7017 52.4557 96.8465 51.6129 96.8445H51.2551C50.4122 96.8465 49.5755 96.7017 48.7827 96.4166C48.001 96.137 47.2867 95.6973 46.686 95.1257C46.0608 94.516 45.5729 93.7806 45.2548 92.9684C44.8797 92.0063 44.6974 90.9802 44.7181 89.9482V86.8816C44.6978 85.8496 44.8801 84.8235 45.2548 83.8613C45.5751 83.0555 46.0629 82.3264 46.686 81.7218C47.2867 81.1502 48.001 80.7105 48.7827 80.431C49.5753 80.1447 50.412 79.9987 51.2551 79.9995H51.6129ZM51.3589 83.1374C50.9574 83.1121 50.5554 83.1782 50.1834 83.3308C49.8115 83.4834 49.4793 83.7185 49.2121 84.0182C48.7064 84.6077 48.4535 85.46 48.4535 86.5749V90.2691C48.4535 91.3816 48.7064 92.2327 49.2121 92.8222C49.4791 93.1223 49.8112 93.358 50.1831 93.5112C50.5551 93.6644 50.9571 93.7312 51.3589 93.7065H51.5449C51.9466 93.7309 52.3486 93.664 52.7205 93.5108C53.0924 93.3576 53.4245 93.1221 53.6917 92.8222C54.195 92.235 54.4478 91.384 54.4502 90.2691V86.5749C54.4502 85.46 54.1974 84.6077 53.6917 84.0182C53.4243 83.7187 53.0921 83.4838 52.7202 83.3312C52.3482 83.1786 51.9463 83.1123 51.5449 83.1374H51.3589Z" fill="white"/>
<path d="M73.4528 80.3021C73.4938 80.2967 73.5356 80.3009 73.5748 80.3143C73.6139 80.3277 73.6495 80.3499 73.6786 80.3793C73.7077 80.4086 73.7296 80.4443 73.7425 80.4835C73.7555 80.5227 73.7592 80.5643 73.7533 80.6052V96.277C73.7592 96.3178 73.7555 96.3595 73.7425 96.3987C73.7296 96.4378 73.7077 96.4735 73.6786 96.5029C73.6495 96.5322 73.6139 96.5545 73.5748 96.5679C73.5356 96.5812 73.4938 96.5854 73.4528 96.5801H70.4223C70.3818 96.5842 70.3408 96.5792 70.3026 96.5653C70.2643 96.5513 70.2298 96.5289 70.2015 96.4997C70.1732 96.4705 70.152 96.4353 70.1394 96.3967C70.1268 96.3581 70.1232 96.3172 70.1289 96.277V89.8585H64.4041V96.277C64.4101 96.3182 64.4064 96.3602 64.3932 96.3997C64.3801 96.4392 64.3578 96.4751 64.3283 96.5045C64.2988 96.5339 64.2627 96.5561 64.2231 96.5692C64.1835 96.5823 64.1413 96.586 64.1 96.5801H61.0694C61.0284 96.5854 60.9866 96.5812 60.9475 96.5679C60.9083 96.5545 60.8728 96.5322 60.8437 96.5029C60.8145 96.4735 60.7927 96.4378 60.7797 96.3987C60.7667 96.3595 60.763 96.3178 60.7689 96.277V80.623C60.763 80.5822 60.7667 80.5405 60.7797 80.5013C60.7927 80.4621 60.8145 80.4265 60.8437 80.3971C60.8728 80.3677 60.9083 80.3455 60.9475 80.3321C60.9866 80.3187 61.0284 80.3146 61.0694 80.3199H64.1C64.1413 80.3139 64.1835 80.3177 64.2231 80.3308C64.2627 80.3439 64.2988 80.366 64.3283 80.3955C64.3578 80.4249 64.3801 80.4608 64.3932 80.5003C64.4064 80.5398 64.4101 80.5818 64.4041 80.623V86.7313H70.1289V80.6052C70.1229 80.564 70.1266 80.522 70.1397 80.4825C70.1529 80.443 70.1751 80.4071 70.2047 80.3776C70.2342 80.3482 70.2702 80.3261 70.3099 80.3129C70.3495 80.2998 70.3917 80.2961 70.433 80.3021H73.4528Z" fill="white"/>
<path d="M88.6949 79.9778C89.0682 79.9767 89.4411 80.0005 89.8112 80.0491C90.1869 80.0919 90.5268 80.1525 90.8488 80.2203C91.1708 80.288 91.4571 80.3701 91.7111 80.4521C91.9262 80.5195 92.1337 80.6092 92.3301 80.7195C92.406 80.7651 92.4727 80.8244 92.5269 80.8942C92.5876 80.9872 92.6165 81.0973 92.6092 81.208V83.672C92.6109 83.714 92.6008 83.7557 92.5799 83.7923C92.559 83.8288 92.5282 83.8588 92.4911 83.8788C92.4536 83.9023 92.4111 83.9168 92.367 83.9211C92.323 83.9254 92.2785 83.9195 92.2371 83.9038C91.7383 83.6778 91.2242 83.4871 90.6986 83.3333C90.1579 83.1928 89.6006 83.1268 89.042 83.1371H88.9275C88.4055 83.1151 87.8847 83.2028 87.399 83.3945C86.9133 83.5862 86.4734 83.8775 86.108 84.2497C85.3924 84.9961 85.0346 86.0421 85.0346 87.3876V89.4558C85.0346 90.7989 85.3924 91.8437 86.108 92.5901C86.4732 92.9627 86.913 93.2546 87.3987 93.4469C87.8844 93.6392 88.4053 93.7275 88.9275 93.7062H89.042C89.6246 93.7172 90.2057 93.6428 90.7665 93.4852C91.266 93.3293 91.7569 93.1472 92.2371 92.9396C92.2782 92.9233 92.3225 92.9168 92.3666 92.9205C92.4107 92.9242 92.4533 92.9381 92.4911 92.961C92.5285 92.9816 92.5594 93.0122 92.5803 93.0494C92.6012 93.0865 92.6112 93.1288 92.6092 93.1714V95.6674C92.6096 95.7659 92.581 95.8623 92.5269 95.9447C92.4729 96.0271 92.3957 96.0919 92.3051 96.131C92.1057 96.2431 91.8945 96.3328 91.6753 96.3984C91.4141 96.484 91.1172 96.5589 90.7916 96.6302C90.466 96.7015 90.1189 96.7586 89.754 96.8049C89.398 96.8499 89.0395 96.8725 88.6806 96.8727H88.355C87.4555 96.8765 86.5629 96.7157 85.7216 96.3984C84.8883 96.0861 84.1275 95.6081 83.4854 94.9935C82.8091 94.3396 82.2767 93.5527 81.9218 92.6828C81.5147 91.6625 81.3164 90.5714 81.3386 89.4736V87.384C81.3164 86.2862 81.5147 85.1951 81.9218 84.1748C82.2767 83.3049 82.8091 82.518 83.4854 81.8641C84.1275 81.2496 84.8883 80.7716 85.7216 80.4592C86.5627 80.1408 87.4553 79.9788 88.355 79.9814L88.6949 79.9778Z" fill="#E60004"/>
<path d="M107.526 96.1914C107.545 96.2298 107.554 96.2727 107.552 96.3157C107.55 96.3586 107.536 96.4002 107.512 96.4363C107.489 96.4724 107.456 96.5017 107.418 96.5213C107.379 96.5409 107.336 96.5501 107.293 96.548H103.891C103.809 96.5496 103.729 96.5289 103.659 96.488C103.589 96.4471 103.532 96.3876 103.493 96.3162L99.7187 89.9869H98.2875V96.277C98.2933 96.3178 98.2896 96.3595 98.2767 96.3987C98.2637 96.4379 98.2418 96.4735 98.2127 96.5029C98.1836 96.5322 98.1481 96.5545 98.1089 96.5679C98.0697 96.5813 98.028 96.5854 97.9869 96.5801H94.9564C94.9151 96.5861 94.8729 96.5823 94.8333 96.5692C94.7936 96.5561 94.7576 96.534 94.7281 96.5045C94.6985 96.4751 94.6763 96.4392 94.6631 96.3997C94.65 96.3602 94.6463 96.3182 94.6523 96.277V80.623C94.6463 80.5818 94.65 80.5398 94.6631 80.5003C94.6763 80.4608 94.6985 80.4249 94.7281 80.3955C94.7576 80.366 94.7936 80.3439 94.8333 80.3308C94.8729 80.3176 94.9151 80.3139 94.9564 80.3199H97.9869C98.028 80.3145 98.0697 80.3187 98.1089 80.3321C98.1481 80.3455 98.1836 80.3677 98.2127 80.3971C98.2418 80.4265 98.2637 80.4621 98.2767 80.5013C98.2896 80.5405 98.2933 80.5822 98.2875 80.623V86.8489H99.665L103.3 80.5517C103.338 80.4803 103.396 80.4208 103.466 80.3799C103.536 80.339 103.616 80.3183 103.697 80.3199H107.028C107.073 80.3154 107.118 80.3241 107.157 80.3451C107.197 80.366 107.229 80.3982 107.25 80.4376C107.271 80.4765 107.282 80.52 107.282 80.5642C107.282 80.6084 107.271 80.6518 107.25 80.6908L102.889 88.3109L107.526 96.1914Z" fill="#E60004"/>
<path d="M115.637 80.3021C116.408 80.2947 117.177 80.3968 117.92 80.6052C118.583 80.7872 119.201 81.1027 119.737 81.5323C120.259 81.9644 120.67 82.5145 120.936 83.137C121.242 83.872 121.389 84.6629 121.369 85.4583V85.6901C121.386 86.5105 121.231 87.3254 120.914 88.0828C120.632 88.7353 120.205 89.3157 119.666 89.7801C119.114 90.2425 118.472 90.5861 117.78 90.7892C117.017 91.0192 116.223 91.1334 115.426 91.128H113.165V96.277C113.171 96.3182 113.167 96.3602 113.154 96.3997C113.141 96.4392 113.118 96.4751 113.089 96.5046C113.059 96.534 113.023 96.5562 112.984 96.5693C112.944 96.5824 112.902 96.5861 112.86 96.5801H109.844C109.803 96.5861 109.761 96.5824 109.721 96.5693C109.681 96.5562 109.645 96.534 109.616 96.5046C109.586 96.4751 109.564 96.4392 109.551 96.3997C109.538 96.3602 109.534 96.3182 109.54 96.277V80.6231C109.534 80.5819 109.538 80.5399 109.551 80.5003C109.564 80.4608 109.586 80.4249 109.616 80.3955C109.645 80.3661 109.681 80.3439 109.721 80.3308C109.761 80.3177 109.803 80.314 109.844 80.32L115.637 80.3021ZM117.687 85.6687C117.711 85.3635 117.668 85.0568 117.561 84.7699C117.455 84.4829 117.286 84.2226 117.068 84.007C116.658 83.6433 115.994 83.4615 115.075 83.4615H113.186V88.1541H115.029C115.945 88.1541 116.613 87.9603 117.032 87.5728C117.252 87.3509 117.423 87.0846 117.531 86.7919C117.64 86.4992 117.684 86.1868 117.662 85.8755L117.687 85.6687Z" fill="#E60004"/>
<path d="M130.464 80.302C130.636 80.302 130.743 80.4018 130.79 80.6051L135.126 96.2377C135.143 96.2753 135.146 96.3176 135.135 96.3572C135.124 96.3969 135.099 96.4315 135.065 96.4552C134.997 96.5116 134.911 96.5408 134.822 96.5372H131.745C131.573 96.5372 131.466 96.4373 131.419 96.2377L130.464 92.7503H125.641L124.686 96.2377C124.636 96.4373 124.528 96.5372 124.357 96.5372H121.294C121.204 96.5417 121.116 96.5124 121.047 96.4552C121.014 96.431 120.99 96.3962 120.98 96.3565C120.969 96.3169 120.973 96.2749 120.99 96.2377L125.323 80.6051C125.369 80.4018 125.48 80.302 125.652 80.302H130.464ZM126.886 87.8758L126.421 89.6159H129.681L129.215 87.8758L128.142 83.2046H127.977L126.886 87.8758Z" fill="#E60004"/>
<path d="M149.692 80.3021C149.733 80.2961 149.776 80.2998 149.815 80.3129C149.855 80.3261 149.891 80.3482 149.92 80.3776C149.95 80.4071 149.972 80.443 149.985 80.4825C149.998 80.522 150.002 80.564 149.996 80.6052V96.277C150.002 96.3182 149.998 96.3602 149.985 96.3997C149.972 96.4392 149.95 96.4751 149.92 96.5045C149.891 96.5339 149.855 96.5561 149.815 96.5692C149.776 96.5823 149.733 96.586 149.692 96.5801H146.662C146.62 96.586 146.578 96.5823 146.538 96.5692C146.499 96.5561 146.463 96.5339 146.433 96.5045C146.404 96.4751 146.381 96.4392 146.368 96.3997C146.355 96.3602 146.351 96.3182 146.357 96.277V83.44H140.697V96.277C140.703 96.3182 140.699 96.3602 140.686 96.3997C140.673 96.4392 140.651 96.4751 140.621 96.5045C140.592 96.5339 140.556 96.5561 140.516 96.5692C140.476 96.5823 140.434 96.586 140.393 96.5801H137.362C137.321 96.586 137.279 96.5823 137.239 96.5692C137.2 96.5561 137.164 96.5339 137.134 96.5045C137.105 96.4751 137.082 96.4392 137.069 96.3997C137.056 96.3602 137.052 96.3182 137.058 96.277V80.623C137.052 80.5818 137.056 80.5398 137.069 80.5003C137.082 80.4608 137.105 80.4249 137.134 80.3955C137.164 80.366 137.2 80.3439 137.239 80.3308C137.279 80.3177 137.321 80.3139 137.362 80.3199L149.692 80.3021Z" fill="#E60004"/>
<path d="M85.0096 16.342L77.113 29.9635L85.8898 45.1004H68.3291L60.4755 58.6398H93.7434L101.604 72.1828H117.397L85.0096 16.342Z" fill="#E60004"/>
<path d="M58.9048 61.3501L52.6219 72.1831H98.4449L92.1548 61.3501H58.9048Z" fill="#E60004"/>
<path d="M73.9501 29.9636L83.4282 13.6179L75.528 0L33.6622 72.1829H49.4625L66.7405 42.3905H81.1597L73.9501 29.9636Z" fill="#E60004"/>
<path d="M126.968 65.2545C127.648 65.9306 128.072 66.8207 128.166 67.773C128.261 68.7254 128.022 69.6811 127.489 70.4773C126.956 71.2735 126.163 71.8609 125.244 72.1394C124.325 72.4179 123.338 72.3702 122.451 72.0046C121.563 71.639 120.83 70.9779 120.377 70.1342C119.924 69.2904 119.778 68.3161 119.965 67.3774C120.152 66.4386 120.66 65.5934 121.402 64.9859C122.144 64.3784 123.074 64.0461 124.035 64.0457C124.58 64.0369 125.122 64.1397 125.627 64.3476C126.132 64.5555 126.588 64.8641 126.968 65.2545ZM126.385 70.5676C127.001 69.9226 127.344 69.0667 127.344 68.1767C127.344 67.2867 127.001 66.4307 126.385 65.7858C126.077 65.4762 125.71 65.2304 125.306 65.0627C124.902 64.895 124.469 64.8086 124.031 64.8086C123.593 64.8086 123.16 64.895 122.756 65.0627C122.352 65.2304 121.985 65.4762 121.677 65.7858C121.059 66.4295 120.714 67.2859 120.714 68.1767C120.714 69.0674 121.059 69.9239 121.677 70.5676C121.985 70.8772 122.352 71.123 122.756 71.2907C123.16 71.4584 123.593 71.5447 124.031 71.5447C124.469 71.5447 124.902 71.4584 125.306 71.2907C125.71 71.123 126.077 70.8772 126.385 70.5676ZM125.834 70.4035H124.908L123.988 68.6206H123.416V70.4035H122.593V65.932H124.278C124.468 65.9267 124.658 65.9592 124.835 66.0278C125.013 66.0964 125.175 66.1996 125.312 66.3314C125.443 66.4564 125.547 66.6071 125.617 66.7739C125.687 66.9408 125.722 67.1203 125.72 67.3013C125.728 67.5753 125.641 67.8437 125.473 68.0608C125.309 68.2702 125.088 68.4276 124.836 68.5137L125.834 70.4035ZM124.7 67.7898C124.766 67.7281 124.818 67.6538 124.853 67.5713C124.889 67.4888 124.907 67.4 124.907 67.3102C124.907 67.2204 124.889 67.1315 124.853 67.0491C124.818 66.9666 124.766 66.8922 124.7 66.8306C124.558 66.6986 124.368 66.6281 124.174 66.6345H123.416V67.9823H124.174C124.271 67.9852 124.367 67.969 124.457 67.9348C124.547 67.9005 124.63 67.8488 124.7 67.7827V67.7898Z" fill="#E60004"/>
</svg>
