<svg width="84" height="84" viewBox="0 0 84 84" fill="none" xmlns="http://www.w3.org/2000/svg">
<g style="mix-blend-mode:multiply">
<mask id="path-1-outside-1_252_155" maskUnits="userSpaceOnUse" x="0" y="0" width="84" height="84" fill="black">
<rect fill="white" width="84" height="84"/>
<path d="M42 2C49.9113 2 57.6448 4.34596 64.2228 8.74122C70.8008 13.1365 75.9277 19.3836 78.9552 26.6927C81.9827 34.0017 82.7748 42.0444 81.2314 49.8036C79.688 57.5629 75.8784 64.6902 70.2843 70.2843C64.6902 75.8784 57.5629 79.688 49.8036 81.2314C42.0444 82.7748 34.0017 81.9827 26.6927 78.9552C19.3836 75.9277 13.1365 70.8008 8.74122 64.2228C4.34596 57.6448 2 49.9113 2 42H42V2Z"/>
</mask>
<path d="M42 2C49.9113 2 57.6448 4.34596 64.2228 8.74122C70.8008 13.1365 75.9277 19.3836 78.9552 26.6927C81.9827 34.0017 82.7748 42.0444 81.2314 49.8036C79.688 57.5629 75.8784 64.6902 70.2843 70.2843C64.6902 75.8784 57.5629 79.688 49.8036 81.2314C42.0444 82.7748 34.0017 81.9827 26.6927 78.9552C19.3836 75.9277 13.1365 70.8008 8.74122 64.2228C4.34596 57.6448 2 49.9113 2 42H42V2Z" stroke="#C31F32" stroke-width="4" stroke-dasharray="6 4" mask="url(#path-1-outside-1_252_155)"/>
</g>
</svg>
