<svg width="84" height="44" viewBox="0 0 84 44" fill="none" xmlns="http://www.w3.org/2000/svg">
<g style="mix-blend-mode:multiply">
<mask id="path-1-outside-1_252_141" maskUnits="userSpaceOnUse" x="0" y="0" width="84" height="44" fill="black">
<rect fill="white" width="84" height="44"/>
<path d="M82 2C82 7.25288 80.9654 12.4543 78.9552 17.3073C76.945 22.1604 73.9986 26.5699 70.2843 30.2843C66.5699 33.9986 62.1604 36.945 57.3073 38.9552C52.4543 40.9654 47.2529 42 42 42C36.7471 42 31.5457 40.9654 26.6927 38.9552C21.8396 36.945 17.4301 33.9986 13.7157 30.2843C10.0014 26.5699 7.05501 22.1604 5.04482 17.3073C3.03463 12.4543 2 7.25287 2 2L42 2H82Z"/>
</mask>
<path d="M82 2C82 7.25288 80.9654 12.4543 78.9552 17.3073C76.945 22.1604 73.9986 26.5699 70.2843 30.2843C66.5699 33.9986 62.1604 36.945 57.3073 38.9552C52.4543 40.9654 47.2529 42 42 42C36.7471 42 31.5457 40.9654 26.6927 38.9552C21.8396 36.945 17.4301 33.9986 13.7157 30.2843C10.0014 26.5699 7.05501 22.1604 5.04482 17.3073C3.03463 12.4543 2 7.25287 2 2L42 2H82Z" stroke="#C31F32" stroke-width="4" stroke-dasharray="6 4" mask="url(#path-1-outside-1_252_141)"/>
</g>
</svg>
