<svg width="368" height="288" viewBox="0 0 368 288" fill="none" xmlns="http://www.w3.org/2000/svg">
<path d="M254.349 194.017C254.349 184.034 261.077 176.655 271.06 176.655C281.477 176.655 287.336 183.817 287.336 194.017C287.336 204.217 281.694 211.596 271.06 211.596C261.077 211.596 254.349 203.783 254.349 194.017ZM240.46 163.851H246.536V216.587H254.349V204.217C256.736 213.983 263.03 217.889 271.494 217.889C284.515 217.889 295.149 207.255 295.149 194.017C295.149 180.779 284.515 170.145 271.494 170.145C263.03 170.145 256.736 174.051 254.349 183.817V163.634C254.349 159.728 251.528 156.906 247.621 156.906H240.677V163.851H240.46ZM218.106 210.294V170.145H210.294V195.536C210.294 203.349 206.821 210.294 195.536 210.294C188.809 210.294 184.902 205.953 184.902 197.489V170.145H177.089V197.489C177.089 209.208 183.6 216.804 195.536 216.804C204 216.804 208.34 213.115 210.294 207.906V210.077C210.294 213.983 213.115 216.804 217.021 216.804H223.966V210.294H218.106ZM136.94 216.804H156.906V210.294H150.83V162.115C150.83 158.208 147.357 155.387 143.451 155.387H136.94V161.898H143.017V210.294H136.94V216.804ZM72.2681 193.366C72.2681 206.604 82.2511 217.238 95.2723 217.238C109.596 217.238 117.843 208.991 118.06 198.574L109.813 198.357C108.511 205.953 105.472 209.86 95.2723 209.86C85.9404 209.86 80.5149 202.915 80.5149 193.366C80.5149 184.034 85.9404 176.872 95.2723 176.872C105.255 176.872 108.511 180.128 109.813 188.374L118.06 188.157C117.843 177.74 109.596 169.494 95.2723 169.494C82.2511 169.494 72.2681 180.345 72.2681 193.366Z" fill="white"/>
<path fill-rule="evenodd" clip-rule="evenodd" d="M23.2212 90.0638V70.9659H35.5914C44.9234 70.9659 51 71.617 51 80.5149C51 89.4127 44.9234 90.2808 35.5914 90.2808H23.2212V90.0638ZM15.6255 123.702H23.2212V96.7915H35.5914C49.9149 96.7915 58.8127 92.451 58.8127 80.2978C58.8127 68.3617 49.9149 64.0212 35.5914 64.0212H15.6255V123.702Z" fill="white"/>
<path fill-rule="evenodd" clip-rule="evenodd" d="M120.013 117.408V77.2595H112.2V102.651C112.2 110.464 108.728 117.408 97.4424 117.408C90.7148 117.408 86.8084 113.068 86.8084 104.604V77.2595H78.9956V104.387C78.9956 116.106 85.5062 123.702 97.4424 123.702C105.906 123.702 110.247 120.013 112.2 114.804V116.974C112.2 120.881 115.021 123.702 118.928 123.702H125.872V117.191H120.013V117.408Z" fill="white"/>
<path fill-rule="evenodd" clip-rule="evenodd" d="M158.425 101.132C158.425 91.1489 165.153 83.7702 175.136 83.7702C185.553 83.7702 191.413 90.9319 191.413 101.132C191.413 111.332 185.77 118.711 175.136 118.711C165.37 118.711 158.425 110.898 158.425 101.132ZM144.753 70.9659H150.83V123.702H158.425V111.332C160.813 121.098 167.106 125.004 175.57 125.004C188.591 125.004 199.225 114.37 199.225 101.132C199.225 87.8936 188.591 77.2595 175.57 77.2595C167.106 77.2595 160.813 81.1659 158.425 90.9319V70.7489C158.425 66.8425 155.604 64.0212 151.698 64.0212H144.753V70.9659Z" fill="white"/>
<path fill-rule="evenodd" clip-rule="evenodd" d="M217.239 123.702H237.205V117.192H231.128V69.2299C231.128 65.3235 227.656 62.5022 223.749 62.5022H217.239V69.0128H223.315V117.409H217.239V123.702Z" fill="white"/>
<path fill-rule="evenodd" clip-rule="evenodd" d="M278.221 117.408V83.9871C278.221 80.0808 275.4 77.2595 271.494 77.2595H258.255V83.7701H270.626V117.408H258.472V123.919H290.375V117.408H278.221ZM279.74 66.1914L276.919 63.3701H269.106L266.285 66.1914L273.23 72.919L279.74 66.1914Z" fill="white"/>
<path fill-rule="evenodd" clip-rule="evenodd" d="M306 100.481C306 113.719 315.983 124.353 329.004 124.353C343.328 124.353 351.574 116.106 351.792 105.689L343.545 105.472C342.243 113.068 339.204 116.974 329.004 116.974C319.672 116.974 314.247 110.03 314.247 100.481C314.247 91.1488 319.672 83.9871 329.004 83.9871C338.987 83.9871 342.243 87.2424 343.545 95.4893L351.792 95.2722C351.574 84.8552 343.328 76.6084 329.004 76.6084C315.983 76.6084 306 87.2424 306 100.481Z" fill="white"/>
<path d="M252.179 280.174C252.613 280.608 252.83 280.825 253.047 281.26C253.264 281.694 253.264 282.128 253.264 282.779C253.264 284.081 252.83 285.166 251.745 285.817C250.877 286.685 249.575 287.119 248.055 287.119C247.187 287.119 246.536 286.902 245.885 286.685C245.234 286.468 244.8 286.034 244.366 285.817L244.149 286.685H243.064V282.128H243.932C243.932 282.562 244.149 282.996 244.366 283.43C244.583 283.864 244.8 284.298 245.234 284.732C245.668 285.166 246.102 285.383 246.536 285.817C246.97 286.034 247.621 286.251 248.272 286.251C249.141 286.251 249.792 286.034 250.226 285.6C250.66 285.166 250.877 284.515 250.877 283.864C250.877 283.43 250.877 283.213 250.66 282.779C250.443 282.562 250.226 282.345 250.009 282.128C249.792 281.911 249.358 281.694 248.924 281.477C248.49 281.26 248.055 281.042 247.404 281.042C246.97 280.825 246.536 280.825 245.885 280.608C245.451 280.391 244.8 280.174 244.583 279.74C244.149 279.523 243.932 279.089 243.498 278.655C243.281 278.221 243.064 277.57 243.064 276.919C243.064 275.834 243.498 274.966 244.366 274.098C245.234 273.23 246.319 273.013 247.621 273.013C248.055 273.013 248.707 273.013 249.358 273.23C250.009 273.447 250.443 273.447 250.66 273.664L250.877 272.796H251.962L252.179 277.136H251.745C251.528 276.268 251.094 275.4 250.443 274.749C249.792 274.098 248.924 273.881 248.055 273.881C247.404 273.881 246.753 274.098 246.319 274.532C245.885 274.966 245.668 275.4 245.668 275.834C245.668 276.268 245.668 276.702 245.885 276.919C246.102 277.136 246.319 277.353 246.536 277.57C246.753 277.787 247.187 278.004 247.621 278.004C248.055 278.221 248.49 278.438 249.141 278.655C249.792 278.872 250.226 279.089 250.877 279.306C251.311 279.74 251.745 279.957 252.179 280.174ZM232.213 284.298V276.268C232.213 276.051 231.996 275.834 231.779 275.4C231.562 275.183 231.345 274.966 231.128 274.532C230.911 274.315 230.477 274.098 230.26 273.881C229.826 273.664 229.392 273.664 228.958 273.664C228.307 273.664 227.872 273.881 227.438 274.098C227.004 274.315 226.57 274.749 226.136 275.4C225.702 275.834 225.485 276.485 225.268 277.353C225.051 278.221 225.051 279.089 225.051 279.957C225.051 280.825 225.051 281.477 225.268 282.128C225.485 282.779 225.702 283.43 225.919 283.864C226.353 284.298 226.57 284.732 227.221 285.166C227.655 285.383 228.307 285.6 228.958 285.6C229.609 285.6 230.26 285.383 230.911 285.166C231.562 284.949 231.996 284.732 232.213 284.298ZM237.421 286.685L232.647 286.902L232.43 286.685V285.383H232.213C231.779 285.817 231.128 286.251 230.477 286.685C229.826 287.119 228.958 287.119 228.307 287.119C227.438 287.119 226.787 286.902 226.136 286.685C225.485 286.251 224.834 285.817 224.183 285.166C223.532 284.515 223.098 283.864 222.881 282.779C222.664 281.911 222.447 280.825 222.447 279.74C222.447 278.655 222.664 277.787 222.881 276.919C223.315 276.051 223.749 275.183 224.4 274.532C225.051 273.881 225.702 273.447 226.57 273.013C227.438 272.579 228.307 272.362 229.175 272.362C229.826 272.362 230.477 272.362 231.128 272.579C231.779 272.796 232.213 273.013 232.647 273.23V268.455C232.647 268.021 232.647 267.804 232.43 267.37C232.213 267.153 232.213 266.719 231.996 266.719C231.779 266.502 231.345 266.502 230.911 266.285C230.477 266.285 230.043 266.068 229.392 266.068V265.2L235.034 264.983L235.251 265.2V283.647C235.251 283.864 235.251 284.298 235.468 284.515C235.685 284.732 235.685 284.949 236.119 285.166C236.336 285.383 236.553 285.383 236.987 285.383C237.421 285.383 237.638 285.383 237.855 285.383V286.685H237.421ZM216.804 274.966C216.804 275.4 216.587 275.834 216.37 276.268C216.153 276.702 215.719 276.919 215.285 276.919C214.851 276.919 214.417 276.702 214.2 276.485C213.983 276.268 213.766 275.834 213.766 275.617C213.766 275.4 213.766 275.183 213.766 274.966C213.766 274.749 213.766 274.532 213.766 274.532C213.332 274.532 212.898 274.749 212.247 274.966C211.596 275.4 211.162 275.834 210.728 276.485V284.515C210.728 284.949 210.728 285.166 210.945 285.383C211.162 285.6 211.162 285.817 211.596 285.817C211.813 285.817 212.03 286.034 212.464 286.034C212.898 286.034 213.115 286.034 213.332 286.034V286.902H206.17V286.034C206.387 286.034 206.604 286.034 206.821 286.034C207.038 286.034 207.255 286.034 207.472 285.817C207.689 285.817 207.907 285.6 208.124 285.383C208.341 285.166 208.341 284.949 208.341 284.515V276.051C208.341 275.834 208.341 275.4 208.124 275.183C207.907 274.966 207.907 274.749 207.472 274.532C207.255 274.315 207.038 274.315 206.821 274.315C206.604 274.315 206.387 274.315 205.953 274.315V273.447L210.511 273.23L210.728 273.447V275.4C211.379 274.749 212.03 274.098 212.681 273.664C213.332 273.23 213.983 273.013 214.634 273.013C215.285 273.013 215.719 273.23 216.153 273.664C216.587 273.881 216.804 274.315 216.804 274.966ZM195.536 279.306C194.668 279.523 194.017 279.74 193.366 279.957C192.715 280.174 192.281 280.391 191.63 280.825C191.196 281.042 190.762 281.477 190.545 281.911C190.328 282.345 190.111 282.779 190.111 283.43C190.111 284.298 190.328 284.732 190.762 285.166C191.196 285.6 191.63 285.6 192.281 285.6C192.932 285.6 193.583 285.383 194.017 285.166C194.451 284.949 194.885 284.515 195.319 284.081L195.536 279.306ZM200.528 286.685C200.094 286.902 199.66 286.902 199.443 287.119C199.009 287.119 198.792 287.336 198.358 287.336C197.707 287.336 197.055 287.119 196.621 286.902C196.187 286.468 195.97 286.034 195.753 285.383C195.102 286.034 194.451 286.468 193.8 286.902C193.149 287.336 192.281 287.336 191.413 287.336C190.328 287.336 189.46 287.119 188.809 286.468C188.158 285.817 187.724 284.949 187.724 284.081C187.724 283.647 187.724 282.996 187.941 282.779C188.158 282.345 188.375 281.911 188.592 281.694C188.809 281.477 189.026 281.26 189.46 281.042C189.894 280.825 190.111 280.608 190.545 280.608C190.979 280.391 191.847 280.174 193.149 279.74C194.451 279.306 195.319 279.089 195.753 278.655V277.353C195.753 277.136 195.753 276.919 195.753 276.702C195.753 276.268 195.536 276.051 195.319 275.834C195.102 275.4 194.885 275.183 194.451 274.966C194.017 274.749 193.583 274.532 192.932 274.532C192.498 274.532 192.064 274.532 191.847 274.749C191.413 274.966 191.196 274.966 190.979 275.183C190.979 275.4 190.979 275.617 191.196 276.051C191.196 276.485 191.413 276.702 191.413 277.136C191.413 277.353 191.196 277.787 190.979 278.004C190.762 278.221 190.328 278.438 189.677 278.438C189.243 278.438 188.809 278.221 188.592 278.004C188.375 277.57 188.158 277.353 188.158 276.919C188.158 276.485 188.375 276.051 188.592 275.617C188.809 275.183 189.243 274.966 189.677 274.532C190.111 274.315 190.545 274.098 191.196 273.881C191.847 273.664 192.281 273.664 192.932 273.664C193.8 273.664 194.451 273.664 194.885 273.881C195.536 273.881 195.97 274.315 196.404 274.532C196.838 274.966 197.272 275.4 197.49 275.834C197.707 276.485 197.924 277.136 197.924 278.004C197.924 279.306 197.924 280.391 197.924 281.477C197.924 282.562 197.924 283.647 197.924 284.732C197.924 285.166 197.924 285.383 198.141 285.6C198.358 285.817 198.358 286.034 198.792 286.034C199.009 286.034 199.226 286.251 199.443 286.251C199.66 286.251 200.094 286.251 200.311 286.251V286.685H200.528ZM179.694 267.587C179.694 268.021 179.477 268.672 179.26 268.889C178.826 269.323 178.392 269.54 177.958 269.54C177.524 269.54 177.09 269.323 176.655 268.889C176.221 268.455 176.221 268.021 176.221 267.587C176.221 267.153 176.438 266.719 176.655 266.285C177.09 265.851 177.307 265.634 177.958 265.634C178.392 265.634 178.826 265.851 179.26 266.068C179.477 266.719 179.694 267.153 179.694 267.587ZM181.43 286.902H174.702V286.034C174.919 286.034 175.136 286.034 175.353 286.034C175.57 286.034 175.787 286.034 176.004 285.817C176.221 285.817 176.438 285.6 176.655 285.383C176.872 285.166 176.872 284.949 176.872 284.515V276.051C176.872 275.834 176.872 275.4 176.655 275.183C176.438 274.966 176.438 274.749 176.004 274.532C175.787 274.315 175.57 274.315 175.353 274.315C175.136 274.315 174.702 274.098 174.485 274.098V273.447L179.26 273.23L179.477 273.447V284.515C179.477 284.732 179.477 285.166 179.694 285.383C179.911 285.6 179.911 285.817 180.345 285.817C180.562 285.817 180.779 286.034 180.996 286.034C181.213 286.034 181.43 286.034 181.647 286.034V286.902H181.43ZM168.409 286.902H161.681V286.034C161.898 286.034 162.115 286.034 162.332 286.034C162.549 286.034 162.766 286.034 162.983 286.034C163.2 286.034 163.417 285.817 163.634 285.6C163.851 285.383 163.851 285.166 163.851 284.732V268.889C163.851 268.455 163.851 268.238 163.634 268.021C163.417 267.804 163.2 267.587 162.983 267.37C162.766 267.153 162.549 267.153 162.115 267.153C161.681 267.153 161.247 266.936 161.03 266.936V266.068L166.238 265.851L166.455 266.068V284.732C166.455 284.949 166.455 285.383 166.672 285.6C166.89 285.817 166.889 286.034 167.324 286.034C167.541 286.034 167.758 286.251 167.975 286.251C168.192 286.251 168.409 286.251 168.626 286.251V286.902H168.409ZM155.821 286.902H149.094V286.034C149.311 286.034 149.528 286.034 149.745 286.034C149.962 286.034 150.179 286.034 150.396 286.034C150.613 286.034 150.83 285.817 151.047 285.6C151.264 285.383 151.264 285.166 151.264 284.732V268.889C151.264 268.455 151.264 268.238 151.047 268.021C150.83 267.804 150.613 267.587 150.396 267.37C150.179 267.153 149.962 267.153 149.528 267.153C149.094 267.153 148.66 266.936 148.443 266.936V266.068L153.651 265.851L153.868 266.068V284.732C153.868 284.949 153.868 285.383 154.085 285.6C154.302 285.817 154.302 286.034 154.736 286.034C154.953 286.034 155.17 286.251 155.387 286.251C155.604 286.251 155.821 286.251 156.038 286.251V286.902H155.821ZM141.715 267.587C141.715 268.021 141.498 268.672 141.281 268.889C140.847 269.323 140.413 269.54 139.979 269.54C139.545 269.54 139.111 269.323 138.677 268.889C138.243 268.455 138.243 268.021 138.243 267.587C138.243 267.153 138.46 266.719 138.677 266.285C139.111 265.851 139.328 265.634 139.979 265.634C140.413 265.634 140.847 265.851 141.281 266.068C141.498 266.719 141.715 267.153 141.715 267.587ZM143.451 286.902H136.724V286.034C136.941 286.034 137.158 286.034 137.375 286.034C137.592 286.034 137.809 286.034 138.026 285.817C138.243 285.817 138.46 285.6 138.677 285.383C138.894 285.166 138.894 284.949 138.894 284.515V276.051C138.894 275.834 138.894 275.4 138.677 275.183C138.46 274.966 138.46 274.749 138.026 274.532C137.809 274.315 137.592 274.315 137.375 274.315C136.941 274.315 136.724 274.098 136.507 274.098V273.447L141.281 273.23L141.498 273.447V284.515C141.498 284.732 141.498 285.166 141.715 285.383C141.932 285.6 141.932 285.817 142.366 285.817C142.583 285.817 142.8 286.034 143.017 286.034C143.234 286.034 143.451 286.034 143.668 286.034V286.902H143.451ZM126.524 281.042C126.524 279.957 126.089 278.872 125.438 278.221C124.57 277.57 123.485 277.136 122.183 277.136C121.532 277.136 121.098 277.136 120.664 277.136C120.23 277.136 120.013 277.136 119.796 277.136V284.081C119.796 284.732 120.013 285.166 120.447 285.383C120.881 285.6 121.532 285.817 122.4 285.817C123.702 285.817 124.787 285.383 125.655 284.515C126.089 283.864 126.524 282.562 126.524 281.042ZM124.57 274.749C125.004 274.315 125.221 273.881 125.221 273.447C125.438 273.013 125.438 272.362 125.438 271.711C125.438 270.625 125.221 269.757 124.57 269.106C123.919 268.455 123.051 268.238 121.749 268.238C121.532 268.238 121.098 268.238 120.664 268.238C120.23 268.238 119.796 268.238 119.579 268.238V275.834H121.315C121.966 275.834 122.617 275.834 123.268 275.617C123.919 275.4 124.353 275.183 124.57 274.749ZM128.043 277.787C128.694 278.221 129.128 278.655 129.562 279.306C129.996 279.957 130.213 280.608 130.213 281.694C130.213 282.562 129.996 283.43 129.562 284.081C129.128 284.732 128.694 285.383 128.043 285.817C127.392 286.251 126.741 286.468 125.872 286.685C125.004 286.902 124.353 287.119 123.485 287.119H114.153V286.034C114.37 286.034 114.804 286.034 115.021 285.817C115.455 285.817 115.672 285.6 115.889 285.6C116.107 285.383 116.324 285.383 116.541 285.166C116.758 284.949 116.758 284.732 116.758 284.298V270.191C116.758 269.974 116.758 269.54 116.541 269.323C116.541 269.106 116.324 268.889 115.889 268.672C115.672 268.455 115.238 268.455 115.021 268.455C114.587 268.455 114.37 268.238 114.153 268.238V267.153H123.268C123.919 267.153 124.57 267.153 125.221 267.37C125.872 267.587 126.524 267.804 126.958 268.021C127.609 268.455 128.043 268.889 128.26 269.323C128.694 269.974 128.694 270.625 128.694 271.277C128.694 271.928 128.477 272.579 128.26 273.23C128.043 273.881 127.609 274.315 127.175 274.532C126.741 274.966 126.307 275.183 125.655 275.4C125.004 275.617 124.57 275.834 123.919 276.051V276.268C124.57 276.268 125.004 276.485 125.872 276.702C126.741 277.136 127.392 277.353 128.043 277.787Z" fill="white"/>
<path fill-rule="evenodd" clip-rule="evenodd" d="M112.2 0.434043L3.25532 0C1.51915 0 0 1.51915 0 3.25532V5.42553C0 7.1617 1.51915 8.68085 3.25532 8.68085L112.2 8.24681V0.434043ZM357.651 1.08511L120.013 0.434043V8.46383L357.651 7.59575V1.08511ZM364.813 7.59575C366.115 7.59575 367.2 6.51064 367.2 5.20851V3.68936C367.2 2.38723 366.115 1.30213 364.813 1.30213H361.34V7.81277L364.813 7.59575Z" fill="white"/>
</svg>
