<svg width="140" height="24" viewBox="0 0 140 24" fill="none" xmlns="http://www.w3.org/2000/svg">
<path d="M138.179 16.1744C138.613 16.6085 138.83 16.8255 139.047 17.2595C139.264 17.6936 139.264 18.1276 139.264 18.7787C139.264 20.0808 138.83 21.1659 137.745 21.817C136.877 22.685 135.575 23.1191 134.055 23.1191C133.187 23.1191 132.536 22.9021 131.885 22.6851C131.234 22.468 130.8 22.034 130.366 21.817L130.149 22.6851H129.064V18.1276H129.932C129.932 18.5616 130.149 18.9957 130.366 19.4297C130.583 19.8638 130.8 20.2978 131.234 20.7318C131.668 21.1659 132.102 21.3829 132.536 21.817C132.97 22.034 133.621 22.251 134.272 22.251C135.141 22.251 135.792 22.034 136.226 21.6C136.66 21.1659 136.877 20.5148 136.877 19.8638C136.877 19.4297 136.877 19.2127 136.66 18.7787C136.443 18.5616 136.226 18.3446 136.009 18.1276C135.792 17.9106 135.358 17.6935 134.924 17.4765C134.49 17.2595 134.055 17.0425 133.404 17.0425C132.97 16.8255 132.536 16.8255 131.885 16.6085C131.451 16.3914 130.8 16.1744 130.583 15.7403C130.149 15.5233 129.932 15.0893 129.498 14.6552C129.281 14.2212 129.064 13.5701 129.064 12.9191C129.064 11.834 129.498 10.9659 130.366 10.0978C131.234 9.22973 132.319 9.01271 133.621 9.01271C134.055 9.01271 134.707 9.0127 135.358 9.22973C136.009 9.44675 136.443 9.44674 136.66 9.66376L136.877 8.79567H137.962L138.179 13.1361H137.745C137.528 12.268 137.094 11.3999 136.443 10.7489C135.792 10.0978 134.924 9.88078 134.055 9.88078C133.404 9.88078 132.753 10.0978 132.319 10.5319C131.885 10.9659 131.668 11.3999 131.668 11.834C131.668 12.268 131.668 12.7021 131.885 12.9191C132.102 13.1361 132.319 13.3531 132.536 13.5702C132.753 13.7872 133.187 14.0042 133.621 14.0042C134.055 14.2212 134.49 14.4382 135.141 14.6552C135.792 14.8723 136.226 15.0893 136.877 15.3063C137.311 15.7404 137.745 15.9574 138.179 16.1744ZM118.213 20.2978V12.268C118.213 12.051 117.996 11.834 117.779 11.3999C117.562 11.1829 117.345 10.9659 117.128 10.5319C116.911 10.3148 116.477 10.0978 116.26 9.88078C115.826 9.66376 115.392 9.66376 114.958 9.66376C114.307 9.66376 113.872 9.88079 113.438 10.0978C113.004 10.3148 112.57 10.7489 112.136 11.3999C111.702 11.834 111.485 12.485 111.268 13.3531C111.051 14.2212 111.051 15.0893 111.051 15.9574C111.051 16.8255 111.051 17.4765 111.268 18.1276C111.485 18.7787 111.702 19.4297 111.919 19.8638C112.353 20.2978 112.57 20.7318 113.221 21.1659C113.655 21.3829 114.307 21.6 114.958 21.6C115.609 21.6 116.26 21.3829 116.911 21.1659C117.562 20.9489 117.996 20.7319 118.213 20.2978ZM123.421 22.6851L118.647 22.9021L118.43 22.6851V21.3829H118.213C117.779 21.817 117.128 22.251 116.477 22.6851C115.826 23.1191 114.958 23.1191 114.307 23.1191C113.438 23.1191 112.787 22.9021 112.136 22.6851C111.485 22.251 110.834 21.8169 110.183 21.1659C109.532 20.5148 109.098 19.8638 108.881 18.7787C108.664 17.9106 108.447 16.8255 108.447 15.7403C108.447 14.6552 108.664 13.7872 108.881 12.9191C109.315 12.051 109.749 11.1829 110.4 10.5319C111.051 9.88079 111.702 9.44675 112.57 9.01271C113.438 8.57867 114.307 8.36164 115.175 8.36164C115.826 8.36164 116.477 8.36163 117.128 8.57866C117.779 8.79568 118.213 9.0127 118.647 9.22973V4.45525C118.647 4.0212 118.647 3.80418 118.43 3.37014C118.213 3.15312 118.213 2.71909 117.996 2.71909C117.779 2.50207 117.345 2.50206 116.911 2.28503C116.477 2.28503 116.043 2.06802 115.392 2.06802V1.19993L121.034 0.98291L121.251 1.19993V19.6467C121.251 19.8638 121.251 20.2978 121.468 20.5148C121.685 20.7319 121.685 20.9489 122.119 21.1659C122.336 21.3829 122.553 21.3829 122.987 21.3829C123.421 21.3829 123.638 21.3829 123.855 21.3829V22.6851H123.421ZM102.804 10.9659C102.804 11.3999 102.587 11.834 102.37 12.268C102.153 12.7021 101.719 12.9191 101.285 12.9191C100.851 12.9191 100.417 12.7021 100.2 12.485C99.9831 12.268 99.7661 11.834 99.7661 11.617C99.7661 11.3999 99.7661 11.1829 99.7661 10.9659C99.7661 10.7489 99.7661 10.5319 99.7661 10.5319C99.3321 10.5319 98.898 10.7489 98.247 10.9659C97.5959 11.3999 97.1618 11.834 96.7278 12.485V20.5148C96.7278 20.9489 96.7278 21.1659 96.9448 21.3829C97.1618 21.5999 97.1618 21.817 97.5959 21.817C97.8129 21.817 98.0299 22.034 98.464 22.034C98.898 22.034 99.115 22.034 99.3321 22.034V22.9021H92.1704V22.034C92.3874 22.034 92.6044 22.034 92.8214 22.034C93.0384 22.034 93.2555 22.034 93.4725 21.817C93.6895 21.817 93.9065 21.5999 94.1236 21.3829C94.3406 21.1659 94.3406 20.9489 94.3406 20.5148V12.051C94.3406 11.834 94.3406 11.3999 94.1236 11.1829C93.9065 10.9659 93.9065 10.7489 93.4725 10.5319C93.2555 10.3148 93.0384 10.3148 92.8214 10.3148C92.6044 10.3148 92.3874 10.3148 91.9533 10.3148V9.44674L96.5108 9.22973L96.7278 9.44674V11.3999C97.3789 10.7489 98.0299 10.0978 98.681 9.66376C99.3321 9.22972 99.9831 9.01271 100.634 9.01271C101.285 9.01271 101.719 9.22972 102.153 9.66376C102.587 9.88078 102.804 10.3148 102.804 10.9659ZM81.5363 15.3063C80.6682 15.5233 80.0172 15.7404 79.3661 15.9574C78.715 16.1744 78.281 16.3914 77.6299 16.8255C77.1959 17.0425 76.7618 17.4765 76.5448 17.9106C76.3278 18.3446 76.1108 18.7787 76.1108 19.4297C76.1108 20.2978 76.3278 20.7318 76.7618 21.1659C77.1959 21.5999 77.6299 21.6 78.281 21.6C78.9321 21.6 79.5831 21.3829 80.0172 21.1659C80.4512 20.9489 80.8852 20.5148 81.3193 20.0808L81.5363 15.3063ZM86.5278 22.6851C86.0938 22.9021 85.6597 22.9021 85.4427 23.1191C85.0087 23.1191 84.7916 23.3361 84.3576 23.3361C83.7065 23.3361 83.0555 23.1191 82.6214 22.9021C82.1874 22.468 81.9703 22.034 81.7533 21.3829C81.1023 22.034 80.4512 22.468 79.8001 22.9021C79.1491 23.3361 78.281 23.3361 77.4129 23.3361C76.3278 23.3361 75.4597 23.1191 74.8086 22.468C74.1576 21.817 73.7235 20.9489 73.7235 20.0808C73.7235 19.6467 73.7235 18.9957 73.9406 18.7787C74.1576 18.3446 74.3746 17.9106 74.5916 17.6936C74.8087 17.4765 75.0257 17.2595 75.4597 17.0425C75.8938 16.8255 76.1108 16.6085 76.5448 16.6085C76.9789 16.3914 77.8469 16.1744 79.1491 15.7403C80.4512 15.3063 81.3193 15.0893 81.7533 14.6552V13.3531C81.7533 13.1361 81.7533 12.9191 81.7533 12.7021C81.7533 12.268 81.5363 12.051 81.3193 11.834C81.1023 11.3999 80.8852 11.1829 80.4512 10.9659C80.0172 10.7489 79.5831 10.5319 78.9321 10.5319C78.498 10.5319 78.064 10.5318 77.847 10.7489C77.4129 10.9659 77.1959 10.9659 76.9789 11.1829C76.9789 11.3999 76.9789 11.617 77.1959 12.051C77.1959 12.485 77.4129 12.7021 77.4129 13.1361C77.4129 13.3531 77.1959 13.7872 76.9789 14.0042C76.7618 14.2212 76.3278 14.4382 75.6767 14.4382C75.2427 14.4382 74.8087 14.2212 74.5916 14.0042C74.3746 13.5702 74.1576 13.3531 74.1576 12.9191C74.1576 12.485 74.3746 12.051 74.5916 11.617C74.8087 11.1829 75.2427 10.9659 75.6767 10.5319C76.1108 10.3148 76.5448 10.0978 77.1959 9.88078C77.8469 9.66376 78.281 9.66376 78.9321 9.66376C79.8001 9.66376 80.4512 9.66376 80.8853 9.88078C81.5363 9.88078 81.9704 10.3148 82.4044 10.5319C82.8384 10.9659 83.2725 11.3999 83.4895 11.834C83.7065 12.485 83.9235 13.1361 83.9235 14.0042C83.9235 15.3063 83.9235 16.3914 83.9235 17.4765C83.9235 18.5616 83.9235 19.6467 83.9235 20.7318C83.9235 21.1659 83.9236 21.3829 84.1406 21.6C84.3576 21.817 84.3576 22.034 84.7916 22.034C85.0087 22.034 85.2257 22.251 85.4427 22.251C85.6597 22.251 86.0938 22.251 86.3108 22.251V22.6851H86.5278ZM65.6938 3.58718C65.6938 4.02122 65.4767 4.67228 65.2597 4.8893C64.8257 5.32334 64.3916 5.54035 63.9576 5.54035C63.5235 5.54035 63.0895 5.32334 62.6555 4.8893C62.2214 4.45526 62.2214 4.02122 62.2214 3.58718C62.2214 3.15313 62.4384 2.71908 62.6555 2.28503C63.0895 1.85099 63.3065 1.63398 63.9576 1.63398C64.3916 1.63398 64.8257 1.851 65.2597 2.06802C65.4767 2.71908 65.6938 3.15313 65.6938 3.58718ZM67.4299 22.9021H60.7023V22.034C60.9193 22.034 61.1363 22.034 61.3533 22.034C61.5704 22.034 61.7874 22.034 62.0044 21.817C62.2214 21.817 62.4384 21.5999 62.6555 21.3829C62.8725 21.1659 62.8725 20.9489 62.8725 20.5148V12.051C62.8725 11.834 62.8725 11.3999 62.6555 11.1829C62.4384 10.9659 62.4384 10.7489 62.0044 10.5319C61.7874 10.3148 61.5704 10.3148 61.3533 10.3148C61.1363 10.3148 60.7023 10.0978 60.4852 10.0978V9.44674L65.2597 9.22973L65.4767 9.44674V20.5148C65.4767 20.7319 65.4767 21.1659 65.6938 21.3829C65.9108 21.5999 65.9108 21.817 66.3448 21.817C66.5618 21.817 66.7789 22.034 66.9959 22.034C67.2129 22.034 67.4299 22.034 67.6469 22.034V22.9021H67.4299ZM54.4086 22.9021H47.681V22.034C47.898 22.034 48.115 22.034 48.3321 22.034C48.5491 22.034 48.7661 22.034 48.9831 22.034C49.2001 22.034 49.4172 21.817 49.6342 21.6C49.8512 21.3829 49.8512 21.1659 49.8512 20.7318V4.8893C49.8512 4.45526 49.8512 4.23823 49.6342 4.02121C49.4172 3.80419 49.2001 3.58716 48.9831 3.37014C48.7661 3.15312 48.5491 3.15312 48.115 3.15312C47.681 3.15312 47.2469 2.93611 47.0299 2.93611V2.06802L52.2384 1.851L52.4554 2.06802V20.7318C52.4554 20.9489 52.4555 21.3829 52.6725 21.6C52.8895 21.817 52.8895 22.034 53.3235 22.034C53.5406 22.034 53.7576 22.251 53.9746 22.251C54.1916 22.251 54.4086 22.251 54.6257 22.251V22.9021H54.4086ZM41.8214 22.9021H35.0937V22.034C35.3108 22.034 35.5278 22.034 35.7448 22.034C35.9618 22.034 36.1789 22.034 36.3959 22.034C36.6129 22.034 36.8299 21.817 37.0469 21.6C37.264 21.3829 37.264 21.1659 37.264 20.7318V4.8893C37.264 4.45526 37.264 4.23823 37.0469 4.02121C36.8299 3.80419 36.6129 3.58716 36.3959 3.37014C36.1789 3.15312 35.9618 3.15312 35.5278 3.15312C35.0938 3.15312 34.6597 2.93611 34.4427 2.93611V2.06802L39.6512 1.851L39.8682 2.06802V20.7318C39.8682 20.9489 39.8682 21.3829 40.0852 21.6C40.3023 21.817 40.3023 22.034 40.7363 22.034C40.9533 22.034 41.1703 22.251 41.3874 22.251C41.6044 22.251 41.8214 22.251 42.0384 22.251V22.9021H41.8214ZM27.715 3.58718C27.715 4.02122 27.498 4.67228 27.281 4.8893C26.8469 5.32334 26.4129 5.54035 25.9789 5.54035C25.5448 5.54035 25.1108 5.32334 24.6767 4.8893C24.2427 4.45526 24.2427 4.02122 24.2427 3.58718C24.2427 3.15313 24.4597 2.71908 24.6767 2.28503C25.1108 1.85099 25.3278 1.63398 25.9789 1.63398C26.4129 1.63398 26.8469 1.851 27.281 2.06802C27.498 2.71908 27.715 3.15313 27.715 3.58718ZM29.4512 22.9021H22.7235V22.034C22.9406 22.034 23.1576 22.034 23.3746 22.034C23.5916 22.034 23.8086 22.034 24.0257 21.817C24.2427 21.817 24.4597 21.5999 24.6767 21.3829C24.8938 21.1659 24.8938 20.9489 24.8938 20.5148V12.051C24.8938 11.834 24.8938 11.3999 24.6767 11.1829C24.4597 10.9659 24.4597 10.7489 24.0257 10.5319C23.8086 10.3148 23.5916 10.3148 23.3746 10.3148C22.9406 10.3148 22.7235 10.0978 22.5065 10.0978V9.44674L27.281 9.22973L27.498 9.44674V20.5148C27.498 20.7319 27.498 21.1659 27.715 21.3829C27.9321 21.5999 27.932 21.817 28.3661 21.817C28.5831 21.817 28.8001 22.034 29.0172 22.034C29.2342 22.034 29.4512 22.034 29.6682 22.034V22.9021H29.4512ZM12.5235 17.0425C12.5235 15.9574 12.0895 14.8723 11.4384 14.2212C10.5703 13.5701 9.48524 13.1361 8.18311 13.1361C7.53205 13.1361 7.098 13.1361 6.66396 13.1361C6.22992 13.1361 6.0129 13.1361 5.79588 13.1361V20.0808C5.79588 20.7318 6.0129 21.1659 6.44694 21.3829C6.88098 21.5999 7.53205 21.817 8.40014 21.817C9.70226 21.817 10.7874 21.3829 11.6555 20.5148C12.0895 19.8638 12.5235 18.5616 12.5235 17.0425ZM10.5703 10.7489C11.0044 10.3148 11.2214 9.88079 11.2214 9.44674C11.4384 9.0127 11.4384 8.36163 11.4384 7.71057C11.4384 6.62546 11.2214 5.75738 10.5703 5.10632C9.91929 4.45525 9.05119 4.23823 7.74907 4.23823C7.53204 4.23823 7.098 4.23823 6.66396 4.23823C6.22992 4.23823 5.79587 4.23823 5.57885 4.23823V11.834H7.31503C7.96609 11.834 8.61715 11.834 9.26822 11.617C9.91928 11.3999 10.3533 11.1829 10.5703 10.7489ZM14.0427 13.7872C14.6938 14.2212 15.1278 14.6552 15.5618 15.3063C15.9959 15.9574 16.2129 16.6085 16.2129 17.6936C16.2129 18.5616 15.9959 19.4297 15.5618 20.0808C15.1278 20.7318 14.6938 21.3829 14.0427 21.817C13.3916 22.251 12.7406 22.468 11.8725 22.6851C11.0044 22.9021 10.3533 23.1191 9.48524 23.1191H0.15332V22.034C0.370342 22.034 0.804388 22.034 1.02141 21.817C1.45545 21.817 1.67248 21.6 1.8895 21.6C2.10652 21.3829 2.32354 21.3829 2.54056 21.1659C2.75758 20.9489 2.75758 20.7319 2.75758 20.2978V6.19142C2.75758 5.9744 2.75758 5.54036 2.54056 5.32334C2.54056 5.10631 2.32354 4.8893 1.8895 4.67228C1.67248 4.45526 1.23843 4.45525 1.02141 4.45525C0.587366 4.45525 0.370342 4.23823 0.15332 4.23823V3.15312H9.26822C9.91928 3.15312 10.5703 3.15312 11.2214 3.37014C11.8725 3.58716 12.5235 3.80419 12.9576 4.02121C13.6086 4.45525 14.0427 4.88929 14.2597 5.32334C14.6937 5.9744 14.6937 6.62547 14.6937 7.27653C14.6937 7.9276 14.4767 8.57866 14.2597 9.22973C14.0427 9.88079 13.6086 10.3148 13.1746 10.5319C12.7406 10.9659 12.3065 11.1829 11.6555 11.3999C11.0044 11.617 10.5703 11.834 9.91928 12.051V12.268C10.5703 12.268 11.0044 12.485 11.8725 12.7021C12.7406 13.1361 13.3916 13.3531 14.0427 13.7872Z" fill="white"/>
</svg>
