<svg width="6" height="11" viewBox="0 0 6 11" fill="none" xmlns="http://www.w3.org/2000/svg">
<path d="M1.56949 2.05928C1.56949 2.33233 1.56949 3.51557 1.56949 3.51557H0.500023V5.30179H1.56949V10.615H3.7653V5.31317H5.24434C5.24434 5.31317 5.38087 4.45988 5.44913 3.51557C5.25572 3.51557 3.77667 3.51557 3.77667 3.51557C3.77667 3.51557 3.77667 2.48024 3.77667 2.2982C3.77667 2.11617 4.0156 1.86587 4.25452 1.86587C4.49344 1.86587 4.99404 1.86587 5.44913 1.86587C5.44913 1.62694 5.44913 0.785029 5.44913 0C4.83476 0 4.12937 0 3.82218 0C1.52398 0 1.56949 1.7976 1.56949 2.05928Z" fill="#C4C4C4"/>
</svg>
