<svg width="6" height="12" viewBox="0 0 6 12" fill="none" xmlns="http://www.w3.org/2000/svg">
<path d="M1.56946 2.55928C1.56946 2.83233 1.56946 4.01557 1.56946 4.01557H0.5V5.80179H1.56946V11.115H3.76527V5.81317H5.24432C5.24432 5.81317 5.38084 4.95988 5.44911 4.01557C5.25569 4.01557 3.77665 4.01557 3.77665 4.01557C3.77665 4.01557 3.77665 2.98024 3.77665 2.7982C3.77665 2.61617 4.01557 2.36587 4.2545 2.36587C4.49342 2.36587 4.99402 2.36587 5.44911 2.36587C5.44911 2.12694 5.44911 1.28503 5.44911 0.5C4.83474 0.5 4.12935 0.5 3.82216 0.5C1.52395 0.5 1.56946 2.2976 1.56946 2.55928Z" fill="white"/>
</svg>
