<svg width="12" height="7" viewBox="0 0 12 7" fill="none" xmlns="http://www.w3.org/2000/svg">
<path d="M9.85686 4.2856C10.2323 4.64967 10.6305 5.00237 10.9718 5.40057C11.1197 5.58261 11.2563 5.76464 11.37 5.96943C11.5179 6.26524 11.3814 6.59518 11.1197 6.60656H9.47004C9.04908 6.64069 8.70776 6.47003 8.42333 6.17423C8.19579 5.94668 7.97962 5.69638 7.76345 5.45746C7.67243 5.35506 7.58142 5.26405 7.46764 5.19578C7.2401 5.04788 7.04668 5.09339 6.92154 5.33231C6.78501 5.57123 6.76225 5.83291 6.75088 6.10596C6.72812 6.49279 6.61435 6.59518 6.22752 6.61794C5.39698 6.65207 4.60058 6.52692 3.86106 6.10596C3.21255 5.73051 2.71196 5.20716 2.26824 4.61554C1.41495 3.46644 0.766446 2.19219 0.174829 0.883807C0.0383025 0.587998 0.140698 0.428717 0.459261 0.428717C0.993991 0.41734 1.5401 0.41734 2.07483 0.428717C2.291 0.428717 2.4389 0.553866 2.51854 0.758657C2.81435 1.47542 3.16704 2.15806 3.61076 2.78381C3.72453 2.95446 3.84968 3.12512 4.02034 3.2389C4.21375 3.37542 4.36166 3.32991 4.45267 3.11375C4.50956 2.97722 4.53231 2.82932 4.54369 2.69279C4.5892 2.19219 4.5892 1.69159 4.52094 1.20237C4.47543 0.895183 4.30477 0.690393 3.98621 0.633507C3.82693 0.599375 3.84968 0.542489 3.92932 0.451471C4.06585 0.292189 4.191 0.201172 4.42992 0.201172H6.29579C6.5916 0.258058 6.65986 0.394585 6.69399 0.690393V2.76105C6.69399 2.87482 6.75088 3.21614 6.95567 3.29578C7.11495 3.35267 7.22872 3.21614 7.33112 3.11375C7.77483 2.6359 8.09339 2.07842 8.37782 1.49818C8.50297 1.24788 8.61674 0.974825 8.71914 0.713148C8.79878 0.519735 8.92393 0.41734 9.1401 0.428717H10.9377C10.9946 0.428717 11.0401 0.428717 11.097 0.440094C11.4042 0.49698 11.4838 0.622129 11.3928 0.917938C11.2449 1.3844 10.9605 1.77123 10.676 2.15806C10.3802 2.56764 10.0617 2.97722 9.75447 3.3868C9.49279 3.76225 9.51555 3.95566 9.85686 4.2856Z" fill="#C4C4C4"/>
</svg>
