<svg width="11" height="11" viewBox="0 0 11 11" fill="none" xmlns="http://www.w3.org/2000/svg">
<path d="M10.4897 3.08703C10.4651 2.52912 10.3749 2.14557 10.2457 1.81321C10.1123 1.46043 9.90721 1.14458 9.63847 0.882008C9.37591 0.615355 9.05797 0.408153 8.70927 0.27691C8.37499 0.147669 7.99344 0.0574491 7.43554 0.032851C6.87346 0.00616957 6.69503 0 5.26946 0C3.84389 0 3.66545 0.00616957 3.10546 0.0307677C2.54755 0.0553659 2.164 0.145666 1.83172 0.274826C1.47886 0.408153 1.16301 0.613271 0.900441 0.882008C0.633787 1.14458 0.426666 1.46251 0.295342 1.81121C0.166102 2.14557 0.0758817 2.52704 0.0512836 3.08495C0.0246022 3.64702 0.0184326 3.82545 0.0184326 5.25103C0.0184326 6.6766 0.0246022 6.85503 0.0492003 7.41502C0.0737985 7.97293 0.164099 8.35648 0.293339 8.68884C0.426666 9.04163 0.633787 9.35748 0.900441 9.62004C1.16301 9.8867 1.48094 10.0939 1.82964 10.2251C2.164 10.3544 2.54547 10.4446 3.10346 10.4692C3.66337 10.4939 3.84188 10.5 5.26745 10.5C6.69302 10.5 6.87146 10.4939 7.43145 10.4692C7.98935 10.4446 8.37291 10.3544 8.70518 10.2251C9.41084 9.95232 9.96874 9.39441 10.2416 8.68884C10.3707 8.35448 10.461 7.97293 10.4856 7.41502C10.5102 6.85503 10.5164 6.6766 10.5164 5.25103C10.5164 3.82545 10.5143 3.64702 10.4897 3.08703ZM9.54417 7.374C9.52157 7.88679 9.43544 8.1637 9.36365 8.34831C9.18721 8.80574 8.82417 9.16878 8.36674 9.34522C8.18213 9.41701 7.90322 9.50314 7.39243 9.52566C6.83861 9.55033 6.67251 9.55642 5.27154 9.55642C3.87057 9.55642 3.70239 9.55033 3.15057 9.52566C2.63777 9.50314 2.36087 9.41701 2.17626 9.34522C1.94863 9.26109 1.74142 9.12776 1.57324 8.95341C1.39889 8.78314 1.26557 8.57803 1.18144 8.35039C1.10965 8.16579 1.02351 7.88679 1.001 7.37608C0.976318 6.82226 0.970229 6.65609 0.970229 5.25511C0.970229 3.85414 0.976318 3.68596 1.001 3.13422C1.02351 2.62143 1.10965 2.34452 1.18144 2.15991C1.26557 1.9322 1.39889 1.72508 1.57533 1.55682C1.74551 1.38246 1.95063 1.24914 2.17834 1.16509C2.36295 1.0933 2.64194 1.00716 3.15265 0.984567C3.70647 0.959969 3.87265 0.9538 5.27354 0.9538C6.6766 0.9538 6.8427 0.959969 7.39451 0.984567C7.90731 1.00716 8.18422 1.0933 8.36882 1.16509C8.59646 1.24914 8.80366 1.38246 8.97184 1.55682C9.14619 1.72708 9.27952 1.9322 9.36365 2.15991C9.43544 2.34452 9.52157 2.62343 9.54417 3.13422C9.56876 3.68804 9.57493 3.85414 9.57493 5.25511C9.57493 6.65609 9.56876 6.82018 9.54417 7.374Z" fill="#C4C4C4"/>
<path d="M5.26945 2.55372C3.78034 2.55372 2.57215 3.76184 2.57215 5.25103C2.57215 6.74022 3.78034 7.94833 5.26945 7.94833C6.75864 7.94833 7.96676 6.74022 7.96676 5.25103C7.96676 3.76184 6.75864 2.55372 5.26945 2.55372ZM5.26945 7.0007C4.3034 7.0007 3.51978 6.21717 3.51978 5.25103C3.51978 4.28489 4.3034 3.50135 5.26945 3.50135C6.23559 3.50135 7.01913 4.28489 7.01913 5.25103C7.01913 6.21717 6.23559 7.0007 5.26945 7.0007Z" fill="#C4C4C4"/>
<path d="M8.7032 2.44705C8.7032 2.79479 8.42125 3.07675 8.07343 3.07675C7.72569 3.07675 7.44373 2.79479 7.44373 2.44705C7.44373 2.09923 7.72569 1.81736 8.07343 1.81736C8.42125 1.81736 8.7032 2.09923 8.7032 2.44705Z" fill="#C4C4C4"/>
</svg>
