<svg width="405" height="146" viewBox="0 0 405 146" fill="none" xmlns="http://www.w3.org/2000/svg">
<path fill-rule="evenodd" clip-rule="evenodd" d="M8.90432 33.2729V10.213H23.7449C34.9323 10.213 42.2384 11.1263 42.2384 21.6288C42.2384 32.3597 34.9323 33.2729 23.7449 33.2729H8.90432ZM0 73.9132H8.90432V41.4923H23.7449C40.8685 41.4923 51.5994 36.241 51.5994 21.6288C51.5994 7.24492 40.8685 1.99365 23.7449 1.99365H0V73.9132Z" fill="white"/>
<path fill-rule="evenodd" clip-rule="evenodd" d="M125.345 66.1505V17.9758H115.984V48.3418C115.984 57.9311 111.646 65.9222 98.1758 65.9222C89.9564 65.9222 85.3901 60.6709 85.3901 50.3967V17.9758H76.0292V50.625C76.0292 64.5523 83.7919 73.9132 98.1758 73.9132C108.45 73.9132 113.701 69.3469 115.756 63.1824V65.9222C115.756 70.7168 119.181 74.1415 123.976 74.1415H132.423V66.3788H125.345V66.1505Z" fill="white"/>
<path fill-rule="evenodd" clip-rule="evenodd" d="M171.694 46.5152C171.694 34.4145 179.913 25.5102 191.785 25.5102C204.343 25.5102 211.42 34.1862 211.42 46.5152C211.42 58.616 204.571 67.7486 191.785 67.7486C179.913 67.7486 171.694 58.1594 171.694 46.5152ZM155.255 10.213H162.333V73.6848H171.694V58.8443C174.662 70.4884 182.196 75.2831 192.47 75.2831C207.996 75.2831 220.781 62.4974 220.781 46.5152C220.781 30.7614 207.996 17.9758 192.47 17.9758C182.196 17.9758 174.662 22.7704 171.694 34.4145V10.213C171.694 5.41839 168.269 1.99365 163.474 1.99365H155.255V10.213Z" fill="white"/>
<path fill-rule="evenodd" clip-rule="evenodd" d="M242.471 73.9133H266.445V66.1505H259.367V8.38661C259.367 3.59197 255.029 0.167236 250.462 0.167236H242.7V7.92998H249.778V66.1505H242.7V73.9133H242.471Z" fill="white"/>
<path fill-rule="evenodd" clip-rule="evenodd" d="M315.533 66.1506V26.1953C315.533 21.4006 312.108 17.9759 307.313 17.9759H291.559V25.7386H306.4V66.1506H291.788V73.9133H330.145V66.1506H315.533ZM317.587 4.73358L314.163 1.30884H304.802L301.149 4.73358L309.368 12.9529L317.587 4.73358Z" fill="white"/>
<path fill-rule="evenodd" clip-rule="evenodd" d="M349.095 45.8303C349.095 61.8124 360.967 74.5981 376.721 74.5981C393.845 74.5981 403.891 64.7805 404.119 52.2231L394.073 51.9948C392.475 61.1275 388.822 65.6938 376.721 65.6938C365.534 65.6938 358.913 57.2461 358.913 45.8303C358.913 34.6428 365.534 25.9668 376.721 25.9668C388.822 25.9668 392.703 29.8482 394.073 39.6658L404.119 39.4375C403.891 26.8801 394.073 17.0625 376.721 17.0625C360.967 17.0625 349.095 30.0765 349.095 45.8303Z" fill="white"/>
<path d="M356.858 131.677C356.858 132.134 356.629 132.59 356.401 133.047C356.173 133.504 355.716 133.732 355.259 133.732C354.575 133.732 354.118 133.504 353.89 133.275C353.661 133.047 353.433 132.59 353.433 132.362C353.433 132.134 353.433 131.906 353.433 131.677C353.433 131.449 353.433 131.221 353.433 131.221C352.976 131.221 352.291 131.449 351.835 131.906C351.15 132.362 350.693 132.819 350.237 133.504V142.636C350.237 143.093 350.237 143.321 350.465 143.55C350.693 143.778 350.921 144.006 351.15 144.006C351.378 144.006 351.835 144.235 352.063 144.235C352.52 144.235 352.748 144.235 353.205 144.235V145.376H344.985V144.235C345.214 144.235 345.442 144.235 345.67 144.235C345.898 144.235 346.127 144.235 346.355 144.006C346.583 144.006 346.812 143.778 347.04 143.55C347.268 143.321 347.268 143.093 347.268 142.636V133.047C347.268 132.819 347.268 132.362 347.04 132.134C346.812 131.906 346.583 131.677 346.355 131.449C346.127 131.221 345.898 131.221 345.67 131.221C345.442 131.221 345.214 131.221 344.757 130.992V129.851L350.008 129.394L350.237 129.622V131.677C350.921 130.764 351.606 130.079 352.291 129.851C352.976 129.394 353.89 129.166 354.575 129.166C355.259 129.166 355.716 129.394 356.173 129.851C356.629 130.307 356.858 130.992 356.858 131.677ZM333.113 136.7C332.2 136.928 331.515 137.157 330.83 137.385C330.145 137.613 329.46 137.842 329.003 138.298C328.547 138.755 328.09 138.983 327.862 139.668C327.633 140.125 327.405 140.81 327.405 141.495C327.405 142.408 327.633 143.093 328.09 143.321C328.547 143.778 329.232 144.006 329.916 144.006C330.601 144.006 331.286 143.778 331.971 143.55C332.428 143.093 333.113 142.865 333.341 142.18L333.113 136.7ZM338.592 144.92C338.136 145.148 337.679 145.148 337.223 145.376C336.766 145.376 336.538 145.604 335.853 145.604C334.939 145.604 334.483 145.376 333.798 144.92C333.341 144.463 332.885 144.006 332.885 143.321C332.2 144.006 331.515 144.691 330.601 145.148C329.916 145.604 328.775 145.833 327.862 145.833C326.72 145.833 325.807 145.376 325.122 144.691C324.437 144.006 323.98 143.093 323.98 141.951C323.98 141.266 323.98 140.81 324.209 140.353C324.437 139.897 324.665 139.44 324.893 138.983C325.122 138.755 325.578 138.298 326.035 138.07C326.492 137.842 326.948 137.613 327.177 137.385C327.633 137.157 328.547 136.928 330.145 136.472C331.515 136.015 332.656 135.559 333.113 135.33V133.732C333.113 133.504 333.113 133.275 333.113 133.047C333.113 132.59 332.885 132.362 332.656 131.906C332.428 131.449 332.2 131.221 331.743 130.992C331.286 130.764 330.83 130.536 330.145 130.536C329.688 130.536 329.231 130.536 328.775 130.764C328.318 130.992 328.09 130.992 327.862 131.221C327.862 131.449 327.862 131.677 328.09 132.134C328.09 132.59 328.318 132.819 328.318 133.275C328.318 133.732 328.09 133.96 327.862 134.189C327.633 134.417 327.177 134.645 326.492 134.645C326.035 134.645 325.578 134.417 325.35 134.189C325.122 133.732 324.893 133.504 324.893 133.047C324.893 132.59 325.122 132.134 325.35 131.677C325.578 131.221 326.035 130.764 326.72 130.536C327.177 130.307 327.862 130.079 328.547 129.851C329.231 129.622 329.916 129.622 330.601 129.622C331.515 129.622 332.2 129.622 332.885 129.851C333.569 130.079 334.026 130.307 334.711 130.536C335.168 130.992 335.624 131.449 335.853 132.134C336.081 132.819 336.309 133.732 336.309 134.645C336.309 136.244 336.309 137.385 336.309 138.527C336.309 139.668 336.309 141.038 336.309 142.408C336.309 142.865 336.309 143.093 336.538 143.321C336.766 143.55 336.994 143.778 337.223 144.006C337.451 144.006 337.679 144.235 337.907 144.235C338.136 144.235 338.592 144.235 339.049 144.235V144.92H338.592ZM312.336 138.527C312.336 137.157 311.879 136.244 310.966 135.33C310.053 134.417 308.911 133.96 307.085 133.96C306.4 133.96 305.943 133.96 305.487 133.96C305.03 133.96 304.573 133.96 304.345 133.96V141.723C304.345 142.408 304.573 142.865 305.03 143.321C305.487 143.55 306.4 143.778 307.313 143.778C308.911 143.778 310.053 143.321 310.966 142.408C311.879 141.723 312.336 140.353 312.336 138.527ZM310.281 131.449C310.738 130.992 310.966 130.536 311.195 130.079C311.423 129.622 311.423 128.937 311.423 128.252C311.423 127.111 311.195 125.969 310.51 125.284C309.825 124.599 308.683 124.143 307.313 124.143C307.085 124.143 306.628 124.143 305.943 124.143C305.487 124.143 305.03 124.143 304.573 124.143V132.819H306.628C307.541 132.819 308.226 132.819 308.911 132.59C309.368 132.134 309.825 131.906 310.281 131.449ZM313.934 134.874C314.619 135.33 315.076 135.787 315.533 136.7C315.989 137.385 316.217 138.298 316.217 139.212C316.217 140.353 315.989 141.038 315.533 141.951C315.076 142.636 314.391 143.321 313.706 143.778C313.021 144.235 312.108 144.691 311.423 144.92C310.51 145.148 309.596 145.376 308.683 145.376H298.181V144.006C298.409 144.006 298.865 144.006 299.322 143.778C299.779 143.778 300.235 143.55 300.464 143.55C300.692 143.321 300.92 143.093 301.149 142.865C301.377 142.636 301.377 142.408 301.377 141.951V125.969C301.377 125.513 301.377 125.284 301.149 125.056C300.92 124.828 300.692 124.599 300.464 124.371C300.235 124.143 299.779 124.143 299.322 123.914C298.865 123.914 298.637 123.686 298.409 123.686V122.545H308.683C309.368 122.545 310.281 122.545 310.966 122.773C311.651 123.001 312.336 123.23 313.021 123.686C313.706 124.143 314.163 124.599 314.619 125.284C315.076 125.969 315.304 126.654 315.304 127.568C315.304 128.252 315.076 128.937 314.848 129.622C314.619 130.307 314.163 130.764 313.706 131.221C313.249 131.677 312.564 131.906 312.108 132.362C311.423 132.59 310.738 132.819 310.053 133.047V133.275C310.738 133.275 311.423 133.504 312.108 133.732C312.564 133.96 313.249 134.417 313.934 134.874ZM273.979 141.723C273.066 140.582 271.924 139.212 270.783 137.613C269.641 136.244 268.499 134.874 267.815 133.96C266.901 134.645 266.445 135.33 265.988 136.015C265.531 136.7 265.531 137.613 265.531 138.755C265.531 140.125 265.988 141.266 266.673 142.18C267.586 143.093 268.499 143.55 269.869 143.55C270.554 143.55 271.468 143.321 272.153 143.093C272.837 142.636 273.522 142.18 273.979 141.723ZM272.609 127.111C272.609 125.969 272.381 125.284 271.924 124.599C271.468 123.914 270.783 123.686 269.869 123.686C269.413 123.686 268.956 123.686 268.728 123.914C268.499 124.143 268.043 124.371 267.815 124.599C267.586 124.828 267.358 125.284 267.358 125.513C267.358 125.741 267.13 126.198 267.13 126.426C267.13 127.111 267.358 127.796 267.586 128.709C268.043 129.394 268.499 130.307 269.413 131.449C270.554 130.764 271.239 130.079 271.696 129.394C272.381 128.937 272.609 128.024 272.609 127.111ZM283.797 132.134C283.112 132.134 282.655 132.362 281.97 132.59C281.285 132.819 280.829 133.047 280.6 133.504C280.372 133.732 280.144 134.189 279.915 134.645C279.687 135.102 279.459 135.787 279.002 136.472C278.774 137.157 278.317 137.842 278.089 138.527C277.86 139.212 277.404 139.897 276.947 140.353C277.404 140.81 277.86 141.495 278.545 141.951C279.23 142.636 279.687 142.865 280.144 143.321C280.6 143.55 281.057 143.778 281.97 144.006C282.655 144.235 283.34 144.235 283.797 144.235V145.376H277.404L275.121 142.636C274.664 143.093 274.436 143.321 273.979 143.778C273.522 144.235 273.066 144.463 272.609 144.92C272.153 145.148 271.468 145.376 271.011 145.604C270.554 145.833 269.869 145.833 269.184 145.833C268.499 145.833 267.586 145.833 266.901 145.604C266.216 145.376 265.531 144.92 264.846 144.463C264.161 144.006 263.705 143.321 263.477 142.636C263.02 141.951 263.02 141.038 263.02 139.897C263.02 138.527 263.477 137.385 264.161 136.472C264.846 135.33 266.216 134.417 268.043 133.047C267.13 131.906 266.445 130.992 265.988 130.079C265.531 129.166 265.303 128.252 265.303 127.339C265.303 126.654 265.531 125.969 265.76 125.284C265.988 124.599 266.445 124.143 266.901 123.686C267.358 123.23 268.043 123.001 268.728 122.773C269.413 122.545 270.098 122.545 270.783 122.545C271.696 122.545 272.381 122.773 273.066 123.001C273.751 123.23 274.207 123.686 274.664 124.143C275.121 124.599 275.349 125.056 275.577 125.513C275.806 125.969 275.806 126.654 275.806 127.111C275.806 128.252 275.349 129.394 274.664 130.307C273.979 131.221 272.837 132.134 271.468 132.819C272.381 134.189 273.294 135.33 274.436 136.472C275.349 137.613 276.262 138.755 277.175 139.668C277.86 138.527 278.317 137.613 278.774 136.472C279.23 135.559 279.459 134.645 279.459 133.96C279.459 133.732 279.23 133.275 278.774 133.275C278.317 133.047 277.632 132.819 276.719 132.819V131.677H285.167V132.134H283.797ZM247.723 144.463C247.038 144.691 246.353 144.92 245.896 145.148C245.211 145.376 244.526 145.376 243.613 145.376C242.243 145.376 241.33 145.148 240.873 144.463C240.417 143.778 240.188 142.865 240.188 141.723V131.221H237.449V129.622H240.417V124.828H243.385V129.622H247.723V131.221H243.385V139.897C243.385 140.582 243.385 141.038 243.385 141.495C243.385 141.951 243.613 142.408 243.613 142.636C243.841 142.865 244.07 143.093 244.298 143.321C244.526 143.55 244.983 143.55 245.668 143.55C245.896 143.55 246.353 143.55 246.809 143.55C247.266 143.55 247.723 143.55 247.951 143.321V144.463H247.723ZM231.284 145.148H223.75V144.006C223.978 144.006 224.206 144.006 224.435 144.006C224.663 144.006 224.891 144.006 225.119 143.778C225.348 143.778 225.576 143.55 225.804 143.321C226.033 143.093 226.033 142.865 226.033 142.408V134.417C226.033 133.275 225.804 132.362 225.348 131.906C224.891 131.221 224.206 130.992 223.521 130.992C223.065 130.992 222.38 130.992 221.923 131.221C221.466 131.449 221.01 131.677 220.781 131.906C220.325 132.134 220.097 132.362 219.868 132.59C219.64 132.819 219.412 133.047 219.412 133.275V142.18C219.412 142.636 219.412 142.865 219.64 143.093C219.868 143.321 220.096 143.55 220.325 143.55C220.553 143.55 220.781 143.778 221.01 143.778C221.238 143.778 221.466 143.778 221.695 143.778V144.92H214.16V143.778C214.389 143.778 214.617 143.778 214.845 143.778C215.074 143.778 215.302 143.778 215.53 143.55C215.758 143.55 215.987 143.321 216.215 143.093C216.443 142.865 216.443 142.636 216.443 142.18V132.59C216.443 132.134 216.443 131.906 216.215 131.677C215.987 131.449 215.758 131.221 215.53 130.992C215.302 130.764 215.074 130.764 214.845 130.764C214.617 130.764 214.389 130.764 213.932 130.536V129.394L219.183 128.937L219.412 129.166V131.449C219.64 131.221 219.868 130.992 220.325 130.536C220.781 130.079 221.01 129.851 221.466 129.622C221.923 129.394 222.38 129.166 222.836 128.937C223.293 128.709 223.978 128.709 224.663 128.709C226.033 128.709 227.174 129.166 227.859 130.079C228.544 130.992 229.001 132.134 229.001 133.732V141.723C229.001 142.18 229.001 142.408 229.229 142.636C229.457 142.865 229.686 143.093 229.914 143.093C230.142 143.093 230.371 143.321 230.599 143.321C230.827 143.321 231.056 143.321 231.284 143.321V145.148ZM202.06 136.7C201.146 136.928 200.461 137.157 199.776 137.385C199.091 137.613 198.406 137.842 197.95 138.298C197.493 138.755 197.037 138.983 196.808 139.668C196.58 140.125 196.352 140.81 196.352 141.495C196.352 142.408 196.58 143.093 197.037 143.321C197.493 143.778 198.178 144.006 198.863 144.006C199.548 144.006 200.233 143.778 200.918 143.55C201.375 143.093 202.06 142.865 202.288 142.18L202.06 136.7ZM207.539 144.92C207.083 145.148 206.626 145.148 206.169 145.376C205.713 145.376 205.484 145.604 204.799 145.604C203.886 145.604 203.429 145.376 202.745 144.92C202.288 144.463 201.831 144.006 201.831 143.321C201.146 144.006 200.461 144.691 199.548 145.148C198.863 145.604 197.722 145.833 196.808 145.833C195.667 145.833 194.753 145.376 193.84 144.691C193.155 144.006 192.699 143.093 192.699 141.951C192.699 141.266 192.699 140.81 192.927 140.353C193.155 139.897 193.384 139.44 193.612 138.983C193.84 138.755 194.297 138.298 194.753 138.07C195.21 137.842 195.667 137.613 195.895 137.385C196.352 137.157 197.265 136.928 198.863 136.472C200.233 136.015 201.375 135.559 201.831 135.33V133.732C201.831 133.504 201.831 133.275 201.831 133.047C201.831 132.59 201.603 132.362 201.375 131.906C201.146 131.449 200.918 131.221 200.461 130.992C200.005 130.764 199.548 130.536 198.863 130.536C198.406 130.536 197.95 130.536 197.493 130.764C197.037 130.992 196.808 130.992 196.58 131.221C196.58 131.449 196.58 131.677 196.808 132.134C196.808 132.59 197.037 132.819 197.037 133.275C197.037 133.732 196.808 133.96 196.58 134.189C196.352 134.417 195.895 134.645 195.21 134.645C194.753 134.645 194.297 134.417 194.068 134.189C193.84 133.732 193.612 133.504 193.612 133.047C193.612 132.59 193.84 132.134 194.068 131.677C194.297 131.221 194.753 130.764 195.438 130.536C195.895 130.307 196.58 130.079 197.265 129.851C197.95 129.622 198.635 129.622 199.32 129.622C200.233 129.622 200.918 129.622 201.603 129.851C202.288 130.079 202.744 130.307 203.429 130.536C203.886 130.992 204.343 131.449 204.571 132.134C204.799 132.819 205.028 133.732 205.028 134.645C205.028 136.244 205.028 137.385 205.028 138.527C205.028 139.668 205.028 141.038 205.028 142.408C205.028 142.865 205.028 143.093 205.256 143.321C205.484 143.55 205.713 143.778 205.941 144.006C206.169 144.006 206.398 144.235 206.626 144.235C207.083 144.235 207.311 144.235 207.767 144.235V144.92H207.539ZM186.534 131.677C186.534 132.134 186.306 132.59 186.077 133.047C185.849 133.504 185.393 133.732 184.936 133.732C184.251 133.732 183.794 133.504 183.566 133.275C183.338 133.047 183.109 132.59 183.109 132.362C183.109 132.134 183.109 131.906 183.109 131.677C183.109 131.449 183.109 131.221 183.109 131.221C182.653 131.221 181.968 131.449 181.511 131.906C180.826 132.362 180.37 132.819 179.913 133.504V142.636C179.913 143.093 179.913 143.321 180.141 143.55C180.37 143.778 180.598 144.006 180.826 144.006C181.054 144.006 181.511 144.235 181.739 144.235C182.196 144.235 182.424 144.235 182.881 144.235V145.376H174.662V144.235C174.89 144.235 175.118 144.235 175.347 144.235C175.575 144.235 175.803 144.235 176.032 144.006C176.26 144.006 176.488 143.778 176.716 143.55C176.945 143.321 176.945 143.093 176.945 142.636V133.047C176.945 132.819 176.945 132.362 176.716 132.134C176.488 131.906 176.26 131.677 176.032 131.449C175.803 131.221 175.575 131.221 175.347 131.221C175.118 131.221 174.89 131.221 174.433 130.992V129.851L179.685 129.394L179.913 129.622V131.677C180.598 130.764 181.283 130.079 181.968 129.851C182.653 129.394 183.566 129.166 184.251 129.166C184.936 129.166 185.392 129.394 185.849 129.851C186.306 130.307 186.534 130.992 186.534 131.677ZM167.812 144.92L162.789 145.376L162.561 145.148V143.093C162.333 143.321 162.104 143.55 161.648 144.006C161.419 144.235 160.963 144.463 160.506 144.92C160.049 145.148 159.593 145.376 159.136 145.604C158.68 145.833 157.995 145.833 157.31 145.833C155.94 145.833 154.798 145.376 154.113 144.463C153.428 143.55 152.972 142.18 152.972 140.582V133.275C152.972 132.819 152.972 132.59 152.743 132.362C152.515 132.134 152.287 131.906 152.058 131.677C151.83 131.449 151.602 131.449 151.373 131.449C151.145 131.449 150.688 131.449 150.46 131.221V130.079L155.711 129.622L155.94 129.851V140.582C155.94 141.723 156.168 142.636 156.625 143.093C157.081 143.55 157.766 144.006 158.451 144.006C159.136 144.006 159.593 144.006 160.049 143.778C160.506 143.55 160.963 143.321 161.191 143.093C161.419 142.865 161.648 142.636 161.876 142.408C162.104 142.18 162.333 141.951 162.333 141.723V133.047C162.333 132.59 162.333 132.362 162.104 132.134C161.876 131.906 161.648 131.677 161.419 131.449C161.191 131.221 160.963 131.221 160.506 131.221C160.049 131.221 159.821 131.221 159.364 131.221V130.079L165.072 129.622L165.301 129.851V142.18C165.301 142.636 165.301 142.865 165.529 143.093C165.757 143.321 165.986 143.55 166.214 143.778C166.442 144.006 166.671 144.006 166.899 144.006C167.127 144.006 167.356 144.006 167.812 144.006V144.92ZM139.044 136.7C138.131 136.928 137.446 137.157 136.761 137.385C136.076 137.613 135.391 137.842 134.935 138.298C134.478 138.755 134.021 138.983 133.793 139.668C133.565 140.125 133.336 140.81 133.336 141.495C133.336 142.408 133.565 143.093 134.021 143.321C134.478 143.778 135.163 144.006 135.848 144.006C136.533 144.006 137.218 143.778 137.903 143.55C138.359 143.093 139.044 142.865 139.273 142.18L139.044 136.7ZM144.524 144.92C144.067 145.148 143.611 145.148 143.154 145.376C142.697 145.376 142.469 145.604 141.784 145.604C140.871 145.604 140.414 145.376 139.729 144.92C139.273 144.463 138.816 144.006 138.816 143.321C138.131 144.006 137.446 144.691 136.533 145.148C135.848 145.604 134.706 145.833 133.793 145.833C132.652 145.833 131.738 145.376 130.825 144.691C130.14 144.006 129.683 143.093 129.683 141.951C129.683 141.266 129.683 140.81 129.912 140.353C130.14 139.897 130.368 139.44 130.597 138.983C130.825 138.755 131.282 138.298 131.738 138.07C132.195 137.842 132.652 137.613 132.88 137.385C133.336 137.157 134.25 136.928 135.848 136.472C137.218 136.015 138.359 135.559 138.816 135.33V133.732C138.816 133.504 138.816 133.275 138.816 133.047C138.816 132.59 138.588 132.362 138.359 131.906C138.131 131.449 137.903 131.221 137.446 130.992C136.99 130.764 136.533 130.536 135.848 130.536C135.391 130.536 134.935 130.536 134.478 130.764C134.021 130.992 133.793 130.992 133.565 131.221C133.565 131.449 133.565 131.677 133.793 132.134C133.793 132.59 134.021 132.819 134.021 133.275C134.021 133.732 133.793 133.96 133.565 134.189C133.336 134.417 132.88 134.645 132.195 134.645C131.738 134.645 131.282 134.417 131.053 134.189C130.825 133.732 130.597 133.504 130.597 133.047C130.597 132.59 130.825 132.134 131.053 131.677C131.282 131.221 131.738 130.764 132.423 130.536C132.88 130.307 133.565 130.079 134.25 129.851C134.935 129.622 135.62 129.622 136.305 129.622C137.218 129.622 137.903 129.622 138.588 129.851C139.273 130.079 139.729 130.307 140.414 130.536C140.871 130.992 141.328 131.449 141.556 132.134C141.784 132.819 142.012 133.732 142.012 134.645C142.012 136.244 142.012 137.385 142.012 138.527C142.012 139.668 142.012 141.038 142.012 142.408C142.012 142.865 142.012 143.093 142.241 143.321C142.469 143.55 142.697 143.778 142.926 144.006C143.154 144.006 143.382 144.235 143.611 144.235C144.067 144.235 144.296 144.235 144.752 144.235V144.92H144.524ZM123.291 144.463C122.606 144.691 121.921 144.92 121.464 145.148C120.779 145.376 120.094 145.376 119.181 145.376C117.811 145.376 116.898 145.148 116.441 144.463C115.984 143.778 115.756 142.865 115.756 141.723V131.221H113.016V129.622H115.984V124.828H118.953V129.622H123.291V131.221H118.953V139.897C118.953 140.582 118.953 141.038 118.953 141.495C118.953 141.951 119.181 142.408 119.181 142.636C119.409 142.865 119.638 143.093 119.866 143.321C120.094 143.55 120.551 143.55 121.236 143.55C121.464 143.55 121.921 143.55 122.377 143.55C122.834 143.55 123.291 143.55 123.519 143.321V144.463H123.291ZM105.025 137.613C105.482 138.07 105.71 138.527 105.939 138.983C106.167 139.44 106.395 140.125 106.395 140.81C106.395 142.18 105.939 143.321 104.797 144.235C103.655 145.148 102.286 145.604 100.687 145.604C99.774 145.604 98.8608 145.376 98.1758 145.148C97.4909 144.92 96.8059 144.463 96.5776 144.235L96.3493 145.148H95.2077L94.9794 139.668H95.8927C95.8927 140.125 96.121 140.582 96.3493 141.038C96.5776 141.495 97.0342 142.18 97.2626 142.408C97.7192 142.865 98.1758 143.321 98.6325 143.55C99.0891 143.778 99.774 144.006 100.459 144.006C101.372 144.006 102.286 143.778 102.742 143.321C103.199 142.865 103.655 142.18 103.655 141.266C103.655 140.81 103.655 140.353 103.427 140.125C103.199 139.897 102.97 139.44 102.742 139.212C102.286 138.983 102.057 138.755 101.372 138.527C100.916 138.298 100.231 138.07 99.774 138.07C99.3174 137.842 98.6325 137.613 98.1758 137.385C97.4909 137.157 97.0342 136.928 96.5776 136.472C96.121 136.015 95.6644 135.559 95.436 135.102C95.2077 134.645 94.9794 133.96 94.9794 133.275C94.9794 131.906 95.436 130.992 96.3493 130.079C97.2626 129.166 98.6325 128.709 100.231 128.709C100.916 128.709 101.372 128.709 102.057 128.937C102.742 129.166 103.199 129.394 103.655 129.394L104.112 128.481H105.254L105.482 133.504H104.34C104.112 132.362 103.655 131.449 102.97 130.764C102.286 130.079 101.372 129.622 100.231 129.622C99.3174 129.622 98.6325 129.851 98.1758 130.307C97.7192 130.764 97.4909 131.221 97.4909 131.906C97.4909 132.362 97.4909 132.819 97.7192 133.047C97.9475 133.275 98.1758 133.732 98.4041 133.732C98.6325 133.96 99.0891 134.189 99.5457 134.417C100.002 134.645 100.687 134.874 101.372 135.102C102.057 135.33 102.742 135.559 103.427 135.787C104.112 136.928 104.569 137.385 105.025 137.613ZM84.4769 135.787C84.4769 135.102 84.4769 134.645 84.2486 133.96C84.2486 133.275 84.0203 132.819 83.7919 132.362C83.5636 131.906 83.107 131.449 82.8787 131.221C82.422 130.992 81.9654 130.764 81.2805 130.764C80.1389 130.764 79.2256 131.221 78.5407 132.134C77.8557 133.047 77.3991 134.417 77.3991 136.015H84.4769V135.787ZM87.9016 141.495C87.2167 142.636 86.3034 143.778 85.3901 144.463C84.2486 145.148 83.107 145.604 81.7371 145.604C80.5955 145.604 79.4539 145.376 78.5407 144.92C77.6274 144.463 76.9425 143.778 76.2575 143.093C75.5726 142.408 75.1159 141.495 74.8876 140.353C74.6593 139.44 74.431 138.298 74.431 137.157C74.431 136.244 74.6593 135.102 74.8876 134.189C75.1159 133.275 75.5726 132.362 76.2575 131.677C76.9425 130.992 77.6274 130.307 78.5407 129.851C79.4539 129.394 80.3672 129.166 81.5088 129.166C82.6504 129.166 83.5636 129.394 84.4769 129.622C85.3901 130.079 85.8468 130.536 86.5317 130.992C86.9884 131.677 87.445 132.362 87.6733 133.047C87.9016 133.732 88.1299 134.645 88.1299 135.559V136.7H77.8557C77.8557 137.613 77.8557 138.527 78.084 139.44C78.3124 140.353 78.5407 141.038 78.9973 141.723C79.4539 142.408 79.9106 142.865 80.5955 143.093C81.2805 143.55 81.9654 143.55 82.8787 143.55C83.7919 143.55 84.7052 143.321 85.3901 142.865C86.0751 142.408 86.76 141.723 87.445 140.582L87.9016 141.495ZM60.5037 128.481C60.5037 127.111 60.0471 125.969 59.3621 125.284C58.6772 124.599 57.5356 124.143 56.1657 124.143H53.4259V133.732H55.4808C56.8507 133.732 58.2206 133.275 59.1338 132.362C59.8188 131.449 60.5037 130.079 60.5037 128.481ZM68.7231 145.148H62.7869C61.417 143.093 60.2754 141.266 59.1338 139.668C57.9922 138.07 56.8507 136.7 55.7091 134.874H53.4259V141.951C53.4259 142.408 53.4259 142.636 53.6542 142.865C53.8826 143.093 54.1109 143.321 54.3392 143.55C54.5675 143.55 54.7958 143.778 55.2525 143.778C55.7091 143.778 56.1657 143.778 56.394 143.778V144.92H47.0331V144.006C47.2614 144.006 47.718 144.006 48.1747 144.006C48.6313 144.006 49.0879 143.778 49.0879 143.778C49.3162 143.55 49.5446 143.55 49.7729 143.093C50.0012 142.865 50.0012 142.408 50.0012 142.18V126.198C50.0012 125.741 50.0012 125.513 49.7729 125.284C49.7729 125.056 49.3162 124.828 49.0879 124.599C48.8596 124.599 48.403 124.371 48.1747 124.371C47.718 124.371 47.4897 124.143 47.0331 124.143V123.001H57.3073C58.2206 123.001 59.1338 123.001 60.0471 123.23C60.9603 123.458 61.6453 123.686 62.3302 124.143C63.0152 124.599 63.4718 125.056 63.9285 125.741C64.3851 126.426 64.6134 127.339 64.6134 128.252C64.6134 129.166 64.3851 129.851 64.1568 130.536C63.9285 131.221 63.4718 131.677 63.0152 132.362C62.5586 132.819 61.8736 133.275 61.417 133.504C60.732 133.732 60.0471 134.189 59.1338 134.417C60.2754 135.787 61.1887 137.157 61.8736 138.07C62.5586 138.983 63.4718 140.353 64.6134 141.723C65.07 142.408 65.5267 142.865 65.755 143.093C66.2116 143.321 66.4399 143.55 66.8966 143.778C67.1249 144.006 67.5815 144.006 67.8098 144.006C68.2665 144.006 68.4948 144.006 68.7231 144.235V145.148Z" fill="white"/>
</svg>
