<svg width="436" height="133" viewBox="0 0 436 133" fill="none" xmlns="http://www.w3.org/2000/svg">
<path d="M41.9021 60.9306C39.7861 60.9306 37.7431 60.4929 35.919 59.6903C34.2409 58.9606 32.6357 58.6688 31.0305 58.8147C29.4253 58.9606 27.966 59.3984 26.7986 60.274C25.5582 61.0766 24.6827 62.171 24.099 63.4114L23.0775 65.6733C26.2879 61.5873 30.1549 60.6388 34.7516 62.6818C36.9405 63.6303 38.6917 65.0896 40.078 66.9136C41.4643 68.7377 42.2669 70.8537 42.5587 73.1155C42.8506 75.4504 42.4858 77.7122 41.4643 79.9741C39.8591 83.6953 37.5242 86.1031 34.5327 87.4164C31.5412 88.6568 28.039 88.4379 24.099 86.6868C21.3263 85.4464 19.2104 83.8412 17.97 81.7982C16.6567 79.8282 16 77.7123 16 75.5233C16 73.3344 16.4378 71.2185 17.3133 69.1755L20.5967 61.8062C21.6182 59.5443 23.0045 57.7932 24.8286 56.6258C26.6527 55.4584 28.6957 54.8017 30.8846 54.7287C33.1464 54.6558 35.3353 55.0936 37.5242 56.115C39.2024 56.8447 40.7346 57.2095 41.975 57.0636C43.2154 56.9176 44.4558 56.3339 45.6962 55.3124L47.7391 58.9606C45.988 60.274 44.091 60.9306 41.9021 60.9306ZM20.9615 78.3689C21.7641 80.4119 23.3693 81.9441 25.7771 82.9656C27.3823 83.6953 28.9145 83.9142 30.3738 83.7682C31.8331 83.6223 33.2194 82.9656 34.3868 82.0171C35.5542 80.9956 36.5028 79.6823 37.2324 78.0771C37.962 76.3989 38.3268 74.8667 38.2539 73.3344C38.1809 71.8022 37.7431 70.4159 36.8676 69.2485C35.992 68.0811 34.7516 67.0596 33.2194 66.3299C31.7601 65.6733 30.2279 65.4544 28.6957 65.6003C27.1634 65.8192 25.7771 66.4029 24.5367 67.3514C23.2964 68.3 22.3478 69.5403 21.6912 71.0726C20.3048 73.9181 20.086 76.3259 20.9615 78.3689Z" fill="#262523"/>
<path d="M52.1899 92.3049L55.0355 93.0345L65.5422 72.7507L70.5038 73.9911L54.014 105.219C52.9925 107.117 51.971 108.503 51.0225 109.305C50.074 110.108 48.8336 110.692 47.3743 110.984L45.4043 106.825C46.9365 106.533 48.1769 105.511 49.0525 103.906L53.2844 95.8801L51.3143 95.3694C50.001 95.0046 48.9795 94.4209 48.1769 93.4723C47.4473 92.5238 47.0825 91.2834 47.0825 89.7512L47.4473 68.0081L52.6277 69.3214L52.1899 92.3049Z" fill="#262523"/>
<path d="M95.5303 97.7043L97.7192 97.8503L97.2084 105.074L92.101 104.709L92.3199 101.425L74.5168 100.258L74.2979 103.541L69.1904 103.177L69.7012 95.9532L72.109 96.0992L80.3539 75.0127L96.9166 76.1071L95.5303 97.7043ZM77.3623 96.464L90.4958 97.3395L91.6632 79.7553L83.7831 79.1716L77.3623 96.464Z" fill="#262523"/>
<path d="M106.183 75.3044L107.642 85.2275L120.557 83.3304C122.162 83.1115 123.548 83.2575 124.861 83.8412C126.102 84.4249 127.123 85.2275 127.926 86.3219C128.656 87.3434 129.166 88.4379 129.312 89.6053C129.677 91.9401 129.239 93.9102 127.926 95.6613C126.686 97.4124 124.497 98.5069 121.505 98.9446C119.462 99.2365 117.492 99.1635 115.741 98.5798C113.99 97.9961 112.531 97.2665 111.363 96.245C110.196 95.2235 109.32 94.202 108.882 93.1075L109.977 100.623L104.651 101.425L100.856 76.18L106.183 75.3044ZM112.093 93.1805C113.187 94.129 114.355 94.7857 115.522 95.0776C116.69 95.3694 118.149 95.3694 119.827 95.1505C121.505 94.9316 122.673 94.3479 123.402 93.5453C124.132 92.7427 124.351 91.6483 124.132 90.3349C123.986 89.2405 123.475 88.4379 122.527 87.8542C121.651 87.2705 120.557 87.0516 119.316 87.1975L108.445 88.8027C109.758 90.6997 110.998 92.159 112.093 93.1805Z" fill="#262523"/>
<path d="M181.116 62.1708C182.211 62.7545 183.013 63.4842 183.524 64.2868C184.692 66.2568 185.056 68.2998 184.546 70.4157C184.035 72.4587 182.43 74.2828 179.803 75.888L166.816 83.6951L153.682 61.806L164.043 55.6041C167.326 53.6341 170.026 52.6856 172.142 52.8315C174.258 52.9045 175.936 53.926 177.176 55.9689C177.76 56.9175 178.125 57.939 178.271 58.8875C178.417 59.909 178.271 60.7845 177.76 61.5142C178.928 61.3682 180.022 61.5871 181.116 62.1708ZM163.532 67.789L170.974 63.3383C172.288 62.5357 173.09 61.7331 173.455 61.0034C173.747 60.2008 173.674 59.3982 173.236 58.5956C172.726 57.7201 172.142 57.1364 171.485 56.9175C170.829 56.6986 170.099 56.6986 169.223 56.9904C168.348 57.2823 167.326 57.793 166.013 58.5956L160.249 62.0979L163.532 67.789ZM179.803 70.3428C180.095 69.3213 179.876 68.1538 179.146 66.9135C177.906 64.7975 176.009 64.4327 173.455 65.819L165.356 70.7805L169.588 77.858L177.103 73.3343C178.636 72.3857 179.511 71.4372 179.803 70.3428Z" fill="#262523"/>
<path d="M214.534 27.8781L213.877 25.1055C213.512 23.7192 213.658 22.3329 214.169 21.0925C214.68 19.8521 215.555 18.8307 216.869 18.101L220.59 15.9121L222.56 19.3414L218.401 21.7492L219.495 26.2729L229.856 35.2474L231.315 34.3719L233.431 37.9471L230.513 39.6253C229.856 39.9901 229.127 40.136 228.397 40.063C227.667 39.9901 227.011 39.6982 226.427 39.1145L217.306 30.7967L210.886 34.5178L218.109 46.8486L213.731 49.4024L200.89 27.3674L205.267 24.8137L208.916 31.0885L214.534 27.8781Z" fill="#262523"/>
<path d="M244.011 30.7236L246.784 29.7751L244.595 7.01047L249.41 5.40527L252.548 40.5737C252.767 42.7626 252.621 44.4408 252.256 45.6811C251.891 46.9215 251.162 48.016 250.14 49.0375L246.2 46.6297C247.368 45.5352 247.805 44.003 247.659 42.1789L246.857 33.2044L244.96 33.861C243.646 34.2988 242.479 34.2988 241.312 33.934C240.144 33.5692 239.196 32.6936 238.393 31.4533L226.865 12.9935L231.972 11.3153L244.011 30.7236Z" fill="#262523"/>
<path d="M257.071 3.72734L261.887 3.07067L262.762 9.78332C263.346 4.67587 266.119 1.75733 271.153 1.10066C273.488 0.808802 275.677 1.10066 277.793 1.97622C279.909 2.85178 281.733 4.23809 283.119 6.13514C284.579 7.95923 285.381 10.0752 285.746 12.483C286.038 14.8178 285.746 17.0797 284.87 19.1956C283.995 21.3116 282.609 23.1356 280.784 24.5949C278.96 26.0542 276.917 26.9297 274.583 27.2216C269.621 27.8783 266.119 25.8353 264.222 21.0197L266.848 40.7199L262.033 41.3765L257.071 3.72734ZM266.921 21.6034C268.745 22.9168 271.08 23.4275 273.78 23.0627C275.531 22.8438 276.99 22.1871 278.158 21.2386C279.252 20.2901 280.055 19.0497 280.493 17.6634C280.93 16.2041 281.003 14.6719 280.784 12.9937C280.566 11.3155 280.055 9.85628 279.252 8.54294C278.45 7.22959 277.428 6.28107 276.042 5.69736C274.656 5.11365 273.123 4.89476 271.372 5.11365C269.621 5.33254 268.089 5.91625 266.775 6.86477C265.535 7.8133 264.587 8.98072 264.003 10.44C263.419 11.8993 263.273 13.5774 263.492 15.3285C263.93 18.2471 265.024 20.2901 266.921 21.6034Z" fill="#262523"/>
<path d="M290.489 6.28097C291.656 4.31095 293.188 2.77872 295.159 1.6113C297.129 0.51685 299.244 -0.066858 301.579 0.00610555C304.133 0.0790691 306.322 0.589814 308.146 1.53834C309.97 2.48687 311.356 3.80021 312.305 5.40541C313.253 7.0106 313.764 8.83469 313.837 10.7317L308.803 10.6588C308.511 8.54284 307.854 7.0106 306.687 6.06208C305.519 5.11355 303.768 4.67577 301.433 4.60281C299.901 4.60281 298.515 4.89466 297.347 5.6243C296.18 6.35393 295.304 7.37542 294.648 8.6158C293.991 9.92915 293.699 11.3155 293.626 12.8477C293.553 14.4529 293.845 15.9122 294.429 17.2255C295.013 18.5388 295.888 19.5603 296.983 20.3629C298.077 21.1655 299.463 21.5303 301.069 21.6033C303.33 21.6763 305.082 21.2385 306.249 20.29C307.489 19.3414 308.292 17.8822 308.657 15.8392L313.691 15.9851C313.545 17.9551 312.962 19.7063 311.94 21.2385C310.919 22.8437 309.459 24.0111 307.562 24.8867C305.665 25.7622 303.476 26.2 300.923 26.1271C298.588 26.0541 296.472 25.3974 294.575 24.23C292.678 23.0626 291.218 21.3844 290.124 19.3414C289.03 17.2985 288.592 15.1096 288.592 12.7018C288.665 10.4399 289.321 8.25098 290.489 6.28097Z" fill="#262523"/>
<path d="M323.322 21.5304C324.125 22.9167 325.876 23.7922 328.575 24.1571C330.764 24.4489 332.443 24.376 333.683 23.8652C334.923 23.3545 335.726 22.4059 336.091 21.0926L340.76 21.7493C340.323 23.5004 339.52 24.9597 338.28 26.1271C337.039 27.2215 335.507 28.0241 333.756 28.389C332.005 28.7538 330.108 28.8267 327.992 28.5349C323.322 27.8782 320.258 26.1271 318.944 23.4274C317.631 20.7278 317.193 17.8092 317.631 14.6718C318.288 10.1481 319.82 6.86471 322.301 4.82173C324.708 2.85172 327.846 2.12208 331.713 2.63283C339.739 3.80024 343.022 9.34547 341.563 19.2685L322.52 16.5689C322.228 18.5389 322.52 20.1441 323.322 21.5304ZM335.799 9.27251C334.996 7.8862 333.391 7.0836 331.056 6.71879C328.721 6.35397 326.97 6.79175 325.73 7.81324C324.49 8.90769 323.614 10.6588 323.03 13.1396L336.747 15.1096C336.966 12.6288 336.601 10.6588 335.799 9.27251Z" fill="#262523"/>
<path d="M436 66.4999C383.5 66.4998 271.795 49.9876 215.5 94.5C124.5 166.454 1 112.5 1 112.5" stroke="#BCC4D2"/>
</svg>
