<svg width="844" height="207" viewBox="0 0 844 207" fill="none" xmlns="http://www.w3.org/2000/svg">
<path d="M37.4355 123.417C41.649 125.522 45.0522 128.113 47.4831 131.19C49.914 134.266 50.2381 137.829 48.2934 141.715C46.0246 146.411 42.2972 148.192 37.2734 147.382C40.1905 149.164 42.1352 151.593 43.2696 154.345C44.2419 157.26 43.9178 160.499 42.1352 164.385C40.3525 167.947 38.2458 170.052 35.6528 171.024C33.0599 171.833 30.3049 171.833 27.3879 171.024C24.4708 170.214 20.9055 168.757 16.53 166.652L0 158.717L20.9055 115.321L37.4355 123.417ZM26.5776 163.899C28.5223 164.385 30.3049 164.223 31.7634 163.737C33.222 163.089 34.5184 161.794 35.4908 159.851C36.7873 157.098 36.6252 154.831 35.0046 152.726C33.384 150.621 30.467 148.678 26.2535 146.573L16.2058 141.715L9.07527 156.288L19.1229 161.146C22.202 162.442 24.6329 163.413 26.5776 163.899ZM36.7873 142.687C38.894 142.525 40.5146 141.553 41.4869 139.448C43.4316 135.562 41.1628 132.161 34.6805 129.085L24.6329 124.227L18.9608 135.886L29.0084 140.743C32.0876 142.201 34.6805 142.848 36.7873 142.687Z" fill="white"/>
<path d="M52.0207 161.632C54.9378 160.498 58.341 160.498 62.0683 161.308L78.9224 165.356C79.2465 164.385 79.4086 163.089 79.0845 161.794C78.7604 160.498 78.1121 159.203 76.8157 157.908C75.5192 156.612 73.5745 155.479 71.1436 154.669C68.0645 153.536 65.3095 153.212 63.0407 153.536C60.7719 153.859 59.1513 154.993 58.1789 156.774L51.8587 154.669C53.6413 151.269 56.3963 149.002 60.1236 148.03C63.851 147.059 68.2266 147.382 73.0883 149.164C79.7327 151.431 83.6221 154.345 85.0806 157.908C86.5392 161.47 86.5392 165.194 85.0806 169.081L77.788 190.779L71.1436 188.512L74.871 177.825C73.5745 179.444 71.7919 180.739 69.523 181.873C67.2542 183.006 64.8233 183.816 62.3925 184.14C59.9616 184.464 57.6928 184.302 55.7481 183.654C51.5346 182.197 48.6175 180.092 46.9969 177.339C45.3763 174.586 45.0522 171.348 46.3487 167.947C47.159 164.709 49.1037 162.604 52.0207 161.632ZM53.1551 174.748C53.9654 176.205 55.424 177.339 57.5307 177.987C59.3134 178.634 61.2581 178.796 63.5269 178.472C65.7957 178.149 68.2266 177.339 70.6574 175.882C73.0883 174.424 75.3571 172.643 77.3018 170.052L61.5822 166.328C59.3134 165.68 57.3687 165.842 55.9101 166.652C54.4516 167.461 53.4793 168.595 52.831 170.052C52.1828 171.833 52.3448 173.291 53.1551 174.748Z" fill="white"/>
<path d="M107.283 170.376L109.389 166.814C110.362 165.032 111.82 163.575 113.765 162.765C115.548 161.956 117.492 161.794 119.599 162.28L125.757 163.737L124.461 169.405L117.654 167.785L114.251 173.777L116.358 193.856L118.789 194.341L117.492 200.333L112.631 199.199C111.496 198.875 110.686 198.39 109.876 197.58C109.227 196.77 108.741 195.799 108.741 194.665L107.445 176.529L96.7489 174.1L92.0492 194.503L84.7565 192.884L93.1836 156.45L100.476 158.07L98.0453 168.433L107.283 170.376Z" fill="white"/>
<path d="M131.429 183.006C134.022 181.225 137.263 180.416 141.153 180.416L158.493 180.577C158.655 179.444 158.493 178.311 157.845 177.177C157.359 176.044 156.386 174.91 154.766 173.938C153.307 172.967 151.2 172.319 148.445 171.995C145.204 171.671 142.449 171.833 140.343 172.643C138.236 173.453 136.777 174.91 136.291 176.853L129.647 176.044C130.619 172.319 132.888 169.566 136.291 167.785C139.694 166.004 144.07 165.356 149.094 166.004C156.062 166.814 160.6 168.757 162.707 171.833C164.813 174.91 165.624 178.472 165.3 182.683L162.707 205.514L155.576 204.705L157.197 193.694C156.224 195.475 154.766 197.256 152.821 198.875C150.876 200.495 148.608 201.79 146.339 202.6C143.908 203.409 141.801 203.733 139.694 203.571C135.319 203.085 131.916 201.628 129.809 199.361C127.54 196.932 126.568 194.017 127.054 190.293C127.378 187.055 128.836 184.626 131.429 183.006ZM135.481 195.637C136.615 196.932 138.236 197.58 140.505 197.904C142.287 198.066 144.232 197.742 146.501 196.932C148.608 196.123 150.714 194.827 152.821 192.884C154.928 190.941 156.548 188.674 158.007 185.759L141.801 185.597C139.37 185.597 137.588 186.083 136.291 187.217C134.995 188.35 134.346 189.645 134.022 191.265C133.86 192.884 134.346 194.341 135.481 195.637Z" fill="white"/>
<path d="M200.628 168.109L208.407 167.947L209.055 205.352L201.277 205.514L200.952 189.807L178.102 190.293L178.426 206L170.648 206.162L169.999 168.757L177.94 168.595L178.264 184.302L201.114 183.816L200.628 168.109Z" fill="white"/>
<path d="M214.565 176.367C215.7 173.291 217.644 170.538 220.075 168.433C222.668 166.328 225.585 165.032 228.988 164.547C232.716 164.061 235.957 164.223 238.874 165.032C241.791 166.004 244.06 167.461 245.843 169.566C247.625 171.671 248.76 174.1 249.408 176.853L242.115 177.987C241.143 174.91 239.846 172.967 237.902 171.833C235.957 170.862 233.364 170.538 229.961 171.024C227.692 171.348 225.747 172.157 224.289 173.615C222.83 175.072 221.696 176.691 221.21 178.634C220.723 180.577 220.561 182.844 220.886 185.111C221.21 187.378 222.02 189.483 223.154 191.265C224.289 193.046 225.747 194.341 227.692 195.151C229.475 195.961 231.581 196.284 233.85 195.961C237.091 195.475 239.522 194.341 240.981 192.722C242.439 191.103 243.25 188.674 243.412 185.759L250.704 184.788C251.028 187.702 250.542 190.293 249.408 192.884C248.273 195.475 246.491 197.58 244.06 199.361C241.629 201.142 238.55 202.276 234.823 202.762C231.419 203.247 228.178 202.923 225.261 201.628C222.344 200.333 219.751 198.389 217.644 195.637C215.538 193.046 214.241 189.969 213.755 186.407C213.107 182.683 213.431 179.444 214.565 176.367Z" fill="white"/>
<path d="M287.167 150.945L297.539 186.893L290.409 188.998L281.171 157.26L278.092 158.07L275.985 193.046L260.104 197.58L249.732 161.632L256.862 159.527L266.1 191.265L269.179 190.455L271.286 155.479L287.167 150.945Z" fill="white"/>
<path d="M326.061 134.104L341.133 168.271L334.326 171.348L321.038 141.067L318.121 142.363L320.714 177.339L305.48 183.978L290.409 149.811L297.215 146.735L310.504 177.015L313.421 175.72L310.828 140.743L326.061 134.104Z" fill="white"/>
<path d="M405.146 107.548C406.767 108.196 408.063 109.168 408.873 110.301C410.98 113.054 411.628 115.968 411.304 119.045C410.818 122.122 408.873 125.036 405.146 127.627L387.32 140.743L365.118 110.625L379.379 100.1C383.916 96.861 387.644 95.0798 390.885 94.9179C393.964 94.756 396.557 96.0514 398.664 98.8042C399.636 100.1 400.284 101.557 400.77 102.852C401.257 104.148 401.095 105.605 400.446 106.739C401.743 106.577 403.525 106.739 405.146 107.548ZM380.351 118.235L390.561 110.625C392.343 109.329 393.478 108.034 393.802 106.901C394.126 105.767 393.964 104.634 393.154 103.5C392.343 102.367 391.371 101.557 390.399 101.395C389.426 101.233 388.292 101.233 387.157 101.881C386.023 102.367 384.402 103.338 382.62 104.634L374.679 110.463L380.351 118.235ZM404.336 119.693C404.66 118.074 404.174 116.454 402.877 114.835C400.77 111.92 397.853 111.758 394.45 114.025L383.268 122.284L390.399 131.999L400.77 124.389C402.877 122.769 404.174 121.15 404.336 119.693Z" fill="white"/>
<path d="M453.115 57.5127L451.981 53.4645C451.495 51.3595 451.495 49.4163 452.305 47.6351C453.115 45.692 454.412 44.2346 456.194 43.1012L461.704 39.8626L464.783 44.7204L458.787 48.4448L460.57 55.0838L475.965 67.876L478.072 66.5806L481.313 71.7623L477.1 74.3531C476.127 75.0008 475.155 75.1628 474.021 75.0008C472.886 74.8389 471.914 74.5151 471.104 73.7054L457.491 61.7228L448.091 67.3903L458.949 85.3642L452.629 89.2504L433.182 57.3508L439.502 53.4645L445.012 62.5324L453.115 57.5127Z" fill="white"/>
<path d="M491.685 65.2852C488.282 64.7994 485.041 63.504 482.286 61.399C479.531 59.2939 477.424 56.5411 475.965 53.1407C474.507 49.9021 474.021 46.5016 474.507 42.9392C474.993 39.3768 476.29 36.3002 478.234 33.5475C480.341 30.7947 482.934 28.6896 486.337 27.2323C489.578 25.775 492.982 25.4511 496.547 25.9369C499.95 26.4227 503.191 27.7181 505.946 29.8231C508.701 31.9282 510.808 34.681 512.267 37.9195C513.725 41.32 514.211 44.7205 513.725 48.1209C513.239 51.6833 511.942 54.7599 509.998 57.5127C507.891 60.2655 505.298 62.3705 501.895 63.8279C498.492 65.2852 495.088 65.771 491.685 65.2852ZM504.812 53.6265C506.108 51.8453 506.757 49.7402 506.919 47.6351C507.081 45.3682 506.595 43.1012 505.622 40.8342C504.65 38.5672 503.353 36.6241 501.733 35.1667C500.112 33.7094 498.167 32.7378 495.899 32.414C493.63 32.0901 491.361 32.414 488.93 33.5475C486.499 34.519 484.555 35.9764 483.258 37.7576C481.962 39.5388 481.313 41.6438 481.151 43.7489C480.989 45.8539 481.475 48.2829 482.448 50.5498C483.42 52.8168 484.717 54.7599 486.499 56.2173C488.12 57.6746 490.065 58.6462 492.333 58.9701C494.602 59.2939 496.871 58.9701 499.302 57.8366C501.733 56.865 503.515 55.4077 504.812 53.6265Z" fill="white"/>
<path d="M570.283 4.40057L578.548 40.8342L570.932 42.6154L563.639 10.3919L561.532 10.8777L557.481 45.692L543.382 48.9306L524.745 19.2979L523.124 19.6217L530.417 51.8453L522.8 53.6265L514.535 17.1928L530.093 13.6304L548.568 43.1012L550.674 42.6154L554.888 7.80105L570.283 4.40057Z" fill="white"/>
<path d="M618.415 1.00006L621.17 38.2433L613.391 38.7291L610.96 7.63908L589.244 9.25836L591.513 40.5103L583.734 41.158L580.979 3.91475L618.415 1.00006Z" fill="white"/>
<path d="M630.083 19.2979C632.514 17.3547 635.755 16.2212 639.644 15.8974L656.985 14.602C656.985 13.4685 656.661 12.335 656.174 11.2015C655.526 10.068 654.392 9.09645 652.933 8.12488C651.313 7.31524 649.206 6.82946 646.451 6.66753C643.21 6.50561 640.455 6.99139 638.348 8.12488C636.241 9.09645 634.945 10.7157 634.621 12.6588L627.976 12.4969C628.624 8.77259 630.569 5.8579 633.972 3.75284C637.214 1.64779 641.427 0.676223 646.613 0.83815C653.581 1.00008 658.281 2.61935 660.712 5.53404C663.143 8.44873 664.277 12.0111 664.115 16.0593L663.467 39.053L656.336 38.8911L656.661 27.5562C655.85 29.4993 654.554 31.2805 652.771 33.0617C650.988 34.8429 648.882 36.3002 646.613 37.2718C644.344 38.2434 642.237 38.8911 640.131 38.7291C635.755 38.5672 632.352 37.4337 629.921 35.3287C627.49 33.2236 626.356 30.147 626.356 26.5846C626.356 23.6699 627.652 21.241 630.083 19.2979ZM635.107 31.4424C636.403 32.5759 638.024 33.2236 640.293 33.2236C642.075 33.2236 644.02 32.7378 646.127 31.7663C648.234 30.7947 650.178 29.3374 652.123 27.2323C654.068 25.1273 655.526 22.6983 656.661 19.7836L640.455 20.9171C638.024 21.0791 636.241 21.7268 635.107 23.0222C633.972 24.3176 633.324 25.613 633.324 27.2323C633.324 28.8516 633.972 30.3089 635.107 31.4424Z" fill="white"/>
<path d="M702.037 5.85787L709.816 6.66751L705.602 43.9108L697.823 43.1012L699.606 27.3942L676.918 24.8034L675.135 40.5103L667.356 39.7007L671.57 2.4574L679.349 3.26703L677.566 18.8121L700.254 21.4029L702.037 5.85787Z" fill="white"/>
<path d="M755.516 15.2497L748.386 52.0072L741.093 50.5498L747.413 18.1644L744.334 17.5167L726.67 47.7971L710.464 44.7205L717.594 7.96295L724.887 9.4203L718.567 41.8058L721.646 42.4535L739.31 12.1731L755.516 15.2497Z" fill="white"/>
<path d="M800.244 26.9085L790.683 63.0182L783.39 61.0751L791.817 29.1754L788.738 28.3658L768.967 57.3508L752.923 53.1407L762.485 17.0309L769.777 18.8121L761.35 50.7118L764.429 51.5214L784.2 22.5364L800.244 26.9085Z" fill="white"/>
<path d="M844 41.32L832.008 76.7821L824.877 74.3531L835.411 43.1012L832.494 42.1296L810.94 69.6572L795.22 64.3136L807.213 28.8516L814.343 31.2805L803.81 62.5324L806.727 63.504L828.28 35.9764L844 41.32Z" fill="white"/>
</svg>
