<svg width="22" height="24" viewBox="0 0 22 24" fill="none" xmlns="http://www.w3.org/2000/svg">
<path d="M15.2855 6.49986L5.36757 16.2038C5.01034 16.5476 4.80966 17.0139 4.80966 17.5001C4.80966 17.9864 5.01034 18.4527 5.36757 18.7965C5.72479 19.1403 6.20929 19.3334 6.71449 19.3334C7.21968 19.3334 7.70418 19.1403 8.0614 18.7965L19.8842 7.25923C20.2379 6.91876 20.5186 6.51456 20.71 6.06971C20.9015 5.62486 21 5.14807 21 4.66657C21 4.18507 20.9015 3.70829 20.71 3.26344C20.5186 2.81859 20.2379 2.41439 19.8842 2.07391C19.5304 1.73344 19.1104 1.46336 18.6482 1.2791C18.186 1.09484 17.6906 1 17.1903 1C16.6901 1 16.1947 1.09484 15.7324 1.2791C15.2702 1.46336 14.8503 1.73344 14.4965 2.07391L2.67373 13.6112C1.60206 14.6426 1 16.0415 1 17.5001C1 18.9588 1.60206 20.3577 2.67373 21.3891C3.74541 22.4206 5.19891 23 6.71449 23C8.23006 23 9.68356 22.4206 10.7552 21.3891L20.5238 11.9997" stroke="white" stroke-width="1.16669" stroke-linecap="round" stroke-linejoin="round"/>
</svg>
