<svg width="7" height="17" viewBox="0 0 7 17" fill="none" xmlns="http://www.w3.org/2000/svg">
<path d="M5.64007 16.735C4.85765 17.0732 3.59897 16.6981 2.84164 16.1694C2.32494 15.8065 1.69886 15.2869 0.671613 12.5333C-0.643075 9.01175 0.41169 4.9756 0.460228 4.69233C0.513798 4.41448 0.869475 2.39466 2.10847 1.24236C3.34745 0.0900651 4.53745 0.159804 5.03296 0.173186C5.4398 0.184283 5.85795 0.439118 6.16589 0.770223C6.26552 0.877345 6.34968 0.978666 6.42587 1.06924C6.65157 1.33356 6.75521 1.4753 6.51078 2.0154C6.20315 2.69098 5.43714 4.35183 5.36614 4.53087C5.29615 4.71099 5.18082 4.93326 4.93303 5.00228C4.68488 5.08173 4.54183 5.08158 4.27631 5.0904C4.01078 5.09923 3.78583 5.08243 3.50951 5.1013C3.26376 5.11191 2.99421 5.11641 2.87744 5.49945C2.76607 5.87747 2.41126 7.1559 2.44282 8.52298C2.48346 10.2872 2.93791 11.3256 3.08199 11.7142C3.18987 12.0034 3.44183 12.2332 3.74562 12.2352C4.13405 12.2351 4.70181 12.1531 5.2682 12.0803C5.67313 12.0266 5.90662 12.2171 6.03363 12.5268C6.17005 12.8358 6.71051 14.6397 6.82072 15.0114C6.92986 15.3841 7.0254 15.608 6.97591 15.7691C6.92542 15.9291 6.42356 16.3958 5.64007 16.735Z" fill="white"/>
</svg>
