<svg width="30" height="18" viewBox="0 0 30 18" fill="none" xmlns="http://www.w3.org/2000/svg">
<path d="M28.0053 14.9075C27.8989 15.6476 27.5532 16.3612 26.9681 17.0485C26.4362 17.6828 25.6383 18 24.5745 18H17.633C17.1543 18 16.7287 17.8414 16.3564 17.5242C16.0372 17.1542 15.8777 16.7313 15.8777 16.2555C15.8777 16.0441 15.9043 15.859 15.9574 15.7004L21.2234 2.53745C21.4362 2.00881 21.7819 1.45374 22.2606 0.872245C22.7926 0.290748 23.5904 0 24.6543 0H28.2447C28.7234 0 29.1223 0.185023 29.4415 0.555068C29.8138 0.872248 30 1.26872 30 1.74449V1.90308L28.0053 14.9075ZM12.1277 14.9075C12.0213 15.6476 11.6755 16.3612 11.0904 17.0485C10.5585 17.6828 9.76064 18 8.69681 18H1.75532C1.2766 18 0.851064 17.8414 0.478724 17.5242C0.159574 17.1542 0 16.7313 0 16.2555C0 16.0441 0.0265957 15.859 0.0797871 15.7004L5.34575 2.53745C5.55851 2.00881 5.90426 1.45374 6.38298 0.872245C6.91489 0.290748 7.71277 0 8.7766 0H12.367C12.8457 0 13.2447 0.185023 13.5638 0.555068C13.9362 0.872248 14.1223 1.26872 14.1223 1.74449V1.90308L12.1277 14.9075Z" fill="#2F2C2B"/>
</svg>
