<svg width="75" height="108" viewBox="0 0 75 108" fill="none" xmlns="http://www.w3.org/2000/svg">
<path fill-rule="evenodd" clip-rule="evenodd" d="M38.7248 16.5003C38.7248 16.5003 38.9643 14.3954 40.4281 14.696C41.8918 14.9967 41.7055 17.2897 41.7055 17.2897L41.0669 17.0642C41.0669 17.0642 41.0225 15.5981 40.3216 15.4854C39.6208 15.3727 39.3635 16.7257 39.3635 16.7257L38.7248 16.5003ZM30.8567 74.2114C30.8768 74.1686 30.9057 74.1306 30.9415 74.0997C30.9131 74.136 30.885 74.1734 30.8567 74.2114ZM65.8834 105.102V105.646L65.6118 106.098L65.1591 104.469L65.1193 104.508L64.7065 103.201C64.7065 103.201 64.2832 104.026 62.1717 103.744C63.2468 103.988 64.1926 103.863 64.616 103.563C64.6978 104.093 64.8078 104.617 64.9455 105.135C64.8897 105.235 64.8069 105.318 64.7065 105.374C64.713 105.396 64.7181 105.417 64.724 105.439C64.472 105.61 63.9866 105.823 63.077 105.917C61.4405 106.086 59.9833 105.182 59.6369 103.292C59.5954 103.166 59.5463 103.042 59.49 102.922C59.3431 102.197 58.9568 100.285 58.9127 100.033C58.8579 99.7204 57.5491 96.8145 56.5589 95.3253C55.585 93.8605 53.8052 91.3484 51.5128 89.4464C51.9473 88.9247 52.3052 88.3436 52.5757 87.7209C52.0456 88.7466 51.1702 89.4771 50.6779 89.8311C50.0764 90.1914 49.8106 90.2412 49.5882 90.5273C49.4555 90.6984 49.1692 91.0433 48.8935 91.3719L48.864 91.342C48.864 91.342 48.4728 92.327 46.3292 92.881C47.0656 92.7317 47.7941 92.5452 48.5117 92.3224C48.8996 92.5542 49.5821 92.977 49.8598 93.2431C50.2577 93.6242 51.3932 94.401 51.4893 94.8726C52.2795 95.7064 52.1773 95.8494 52.5757 95.959C52.974 96.0685 53.3244 95.9092 53.9336 96.3211C54.2208 96.5253 54.5235 96.7069 54.8389 96.8643C55.0448 97.2965 55.3561 97.6701 55.7442 97.9506C55.8374 98.014 55.9422 98.0828 56.0528 98.157C56.2259 99.0442 56.1445 100.289 55.0199 100.666C53.8861 101.047 53.0984 100.558 52.3946 99.8517C52.2047 99.6548 51.9633 99.5152 51.698 99.4488C51.4326 99.3824 51.154 99.3918 50.8937 99.476C50.6575 99.4261 50.4308 99.339 50.2219 99.218C49.5637 98.8152 48.5019 97.9506 48.5019 97.9506C48.5019 97.9506 47.6509 97.8103 47.325 97.4074C46.1807 97.1286 45.4763 96.7357 44.9827 96.3863C44.723 97.0661 44.5002 98.3598 44.247 98.9464C43.9404 99.6571 42.8939 100.198 42.4365 99.4896C41.979 98.7817 43.2259 96.6669 43.7039 96.0495C43.8083 95.9148 43.9011 95.7716 43.9814 95.6213C43.418 95.213 42.665 94.7233 42.3459 94.6916C41.9295 94.6508 41.495 94.582 41.0785 93.4242C40.6621 92.2663 39.956 90.9002 41.0785 89.1693C42.2011 87.4384 42.7986 86.4535 42.7986 86.4535C42.7986 86.4535 42.3064 85.4387 42.4365 85.0955C42.5665 84.7524 43.2512 84.6429 43.2512 84.6429L43.7944 84.5524C43.7944 84.5524 43.0759 83.3339 42.9796 83.1944C42.8834 83.055 42.9796 82.7418 42.9796 82.7418C42.9054 82.735 42.8308 82.7323 42.7562 82.7337C42.8582 82.2095 43.1352 81.0933 43.7039 80.6596C42.5574 78.6363 39.8111 73.5079 39.8111 73.5079C39.8111 73.5079 39.621 73.7105 39.449 73.5984C39.277 73.4863 37.5389 71.3794 35.9184 71.4257C37.7833 71.6079 39.0326 73.4615 39.268 73.689C39.3404 73.7561 39.4263 73.8069 39.52 73.8382C39.6137 73.8694 39.7129 73.8803 39.8111 73.87L43.4323 80.5691C43.0307 81.2257 42.7876 81.9668 42.7221 82.7337C42.6134 82.7328 42.4634 82.7355 42.2554 82.7418C42.0793 82.7446 41.905 82.7049 41.7474 82.6261C41.5899 82.5473 41.4536 82.4317 41.3501 82.2892C41.3501 82.2892 41.1069 82.7907 40.8975 82.6513C40.6881 82.5119 39.8621 81.9759 39.8111 81.746C39.7602 81.516 39.7206 81.4744 39.7206 81.4744C39.7206 81.4744 37.531 79.509 35.5563 78.668C35.1658 78.5512 32.4727 79.1695 30.7583 80.6596C29.1016 82.0991 27.935 82.9944 26.8655 83.6471C26.1388 84.0904 25.3826 84.4836 24.6023 84.824C24.4382 84.8882 24.1328 84.986 23.7876 85.0955C23.4424 85.2051 23.3406 85.1444 23.0633 85.2766C22.7861 85.4088 22.7069 85.4387 22.1581 85.4577C21.6092 85.4767 20.7606 85.8234 20.7096 86.0008C20.6586 86.1783 20.8058 87.0908 20.8001 87.5398C20.7944 87.9888 20.5964 87.9155 20.5285 88.264C20.4607 88.6126 19.9401 88.685 19.8948 88.1735C19.8496 87.662 20.1099 87.3388 20.0759 87.2682C20.042 87.1976 19.6233 86.7386 18.9896 86.7251C18.3559 86.7115 18.2993 87.0446 18.2653 87.0872C18.2314 87.1297 18.1522 87.9155 18.1748 88.083C18.1974 88.2505 17.7448 88.5157 17.6316 88.1735C17.5602 87.9081 17.5297 87.6334 17.5411 87.3588C17.5411 87.3588 17.2922 87.1913 17.2695 87.5398C17.2519 87.7204 17.2519 87.9024 17.2695 88.083C17.2808 88.2957 17.2016 88.5945 16.9979 88.5356C16.7942 88.4768 16.6358 88.255 16.6358 87.9019C16.641 87.6581 16.6713 87.4154 16.7263 87.1777C16.7263 87.1777 16.5679 86.9197 16.4548 87.0872C16.3416 87.2547 16.1945 87.8929 15.8211 87.8114C15.4476 87.7299 15.6287 87.1125 15.7305 86.9061C15.8324 86.6997 16.2737 86.0914 16.2737 86.0914C16.2737 86.0914 16.0813 85.9357 15.9116 86.0008C15.7419 86.066 14.961 86.2978 14.9158 86.0914C14.8705 85.885 15.0289 85.5962 15.3684 85.5482C15.7079 85.5002 15.7305 85.4577 15.7305 85.4577C15.7305 85.4577 16.2398 85.2793 16.3642 85.1861C16.4887 85.0928 17.394 85.0186 17.7222 84.9145C18.0503 84.8104 18.9782 84.4754 19.3517 84.1903C19.6378 83.9843 19.9406 83.8026 20.257 83.6471C20.257 83.6471 21.4565 82.8577 22.0675 82.2892C22.2797 82.0955 22.5022 81.9136 22.7342 81.7442C22.8168 82.109 23.093 82.9826 23.9515 83.9006C24.0415 84.0032 24.1379 84.0999 24.2402 84.1903C24.137 84.0934 24.0415 83.9965 23.9515 83.9006C23.2349 83.0858 22.9784 82.004 22.9064 81.6193C23.3509 81.2997 23.7945 81.0181 24.0592 80.8407C24.5005 80.5438 25.6718 79.7408 26.8655 78.7586C28.0593 77.7763 28.6253 77.4214 28.9477 77.129C29.2701 76.8366 29.2364 76.6972 29.4909 76.4048C29.6652 76.2047 30.0735 75.4868 30.4261 74.8984C30.3851 74.9763 30.3442 75.055 30.3056 75.1374C30.9772 74.3474 31.1959 73.9334 31.573 73.5984C31.8741 73.3308 32.4222 72.9973 32.8146 72.886C33.2315 72.7676 32.7824 72.2563 33.112 72.331C33.4416 72.4057 33.2532 72.021 33.5647 71.7879C33.8216 71.6119 34.0943 71.4604 34.3794 71.3352L34.1078 71.1542C34.1078 71.1542 33.5066 71.4959 33.2931 71.6973C33.0795 71.8987 33.1626 72.0029 33.0215 72.0594C32.8804 72.116 32.6763 72.3391 32.7499 72.6931C32.5555 72.7421 31.8191 73.0842 31.1204 73.8832V73.0553L30.9403 72.6951C30.945 72.6942 30.9393 72.6931 30.9393 72.6931L30.9403 72.6951C30.8797 72.6977 30.8189 72.6971 30.7583 72.6931C30.5363 72.6857 30.3962 72.331 30.3962 72.331V72.4216C30.3962 72.4216 30.3616 72.3837 30.034 72.4216C29.9766 72.4282 29.9314 72.4324 29.8952 72.435L30.7583 73.3268L27.9843 70.8892C27.9534 70.8993 27.9223 70.9094 27.8911 70.9193L30.3962 73.5079L27.561 71.0164C27.4817 71.0395 27.4004 71.0553 27.3182 71.0636C27.1141 71.0712 30.743 74.1426 30.844 74.2281C30.7382 74.1486 26.6483 71.0613 26.5034 70.8826C26.3564 70.7015 26.4129 69.9773 26.4129 69.9773C26.4129 69.9773 25.9036 66.2203 28.1329 64.455C30.3623 62.6897 33.2025 63.7308 33.2025 63.7308C33.2025 63.7308 33.689 63.0971 33.9268 63.2782C34.1645 63.4592 34.4359 63.595 34.4699 63.9119C34.504 64.2287 34.4359 64.2061 34.5605 64.3645C34.685 64.5229 34.2889 64.6361 34.2889 64.6361C34.2889 64.6361 34.6259 65.3364 34.9316 65.697L34.8321 65.813L33.5647 66.5372L32.5688 66.0846L31.0299 66.8993L32.6594 66.2656L33.5647 66.7183L35.4658 65.813L35.4424 65.65C35.9895 65.2926 37.0477 65.3316 37.0953 65.1793C37.1519 64.9982 37.1858 64.9982 37.1858 64.9982C37.567 65.1524 37.9607 65.2735 38.3627 65.3603C38.7785 65.4418 39.111 66.0152 39.265 66.3302C38.3457 66.8849 38.0911 67.4425 38.0911 67.4425C38.2302 67.2803 38.3816 67.129 38.5437 66.9898C38.5437 66.9898 39.3274 67.4934 39.5395 68.1667C39.7517 68.8401 40.0969 70.2771 40.3543 71.2447C40.6117 72.2122 41.0248 72.4272 40.988 72.8742C40.9512 73.3212 41.5312 73.7795 41.5312 73.7795C41.5312 73.7795 41.138 73.0609 41.2596 72.7837C41.3812 72.5065 40.6854 71.7482 40.5354 71.1542C40.3854 70.5601 39.8027 68.376 39.7206 67.8951C39.6471 67.4643 39.053 66.8625 38.9297 66.7414C39.0645 66.6669 39.2126 66.5912 39.3525 66.5225L39.3585 66.5372C39.3585 66.5372 39.5296 66.4414 39.7852 66.318C39.8568 66.2854 39.9017 66.2656 39.9017 66.2656L39.9011 66.2631C40.3055 66.0658 40.7308 65.9148 41.1691 65.813C41.7634 65.6958 42.5367 65.7646 43.1788 65.9457C42.2059 57.6606 42.082 49.159 42.082 49.159L42.075 49.1569C42.075 49.1569 41.9301 39.5631 40.7804 30.8265C40.7589 29.7832 40.7298 28.2527 40.7164 26.9762C40.7086 26.2348 40.7063 25.629 40.7065 25.1502C41.001 26.714 41.2866 28.4314 41.5373 30.2812C42.7358 39.1229 42.8854 49.0139 42.8854 49.0139L42.8944 49.0157C42.8944 49.0157 43.0234 57.8703 44.0522 66.3128C44.146 66.3671 44.2338 66.4219 44.3161 66.4764C44.1112 63.7046 43.8031 60.9104 43.4797 58.3984C43.3756 55.7018 43.3152 53.0949 43.283 51.3928C43.8243 54.688 44.7664 60.9712 45.1791 67.0322C45.6615 67.1459 46.8668 67.5211 47.5063 68.5288C46.9381 67.6189 45.9507 67.1359 45.4215 66.9309C45.8147 66.8921 46.3827 66.8675 46.7821 66.9898C47.4498 67.1935 48.7397 69.2531 48.7737 69.7057C48.8078 70.1583 48.3549 70.9052 48.0495 71.0636C47.7576 71.1971 47.4591 71.3154 47.155 71.4181C46.8914 71.0922 46.0234 70.0077 45.2944 68.9566C45.2955 68.9791 45.2965 69.0003 45.2977 69.0227C46.1166 70.3541 46.6267 71.1433 46.8734 71.5179C46.8905 71.5525 47.5151 72.7696 47.8682 73.0553C48.2262 73.3449 49.366 73.9651 49.8598 74.5037C50.2627 74.9428 50.6105 75.2678 50.725 75.3728C50.8058 76.0182 50.9317 76.938 51.1272 78.2154C47.8604 77.6813 45.0618 79.4828 45.0618 79.4828L42.1649 74.7753C42.1649 74.7753 44.798 79.5416 45.0618 79.7544C48.1732 78.1421 50.1905 78.3204 51.1392 78.4508L51.2177 79.3922C51.2172 79.3913 51.1939 79.3886 50.6746 79.3922C50.1128 79.3959 48.6213 80.4822 48.4113 81.0218C48.2014 81.5613 50.3124 85.3671 50.3124 85.3671C50.3124 85.3671 48.5528 81.6102 48.6829 81.1123C48.813 80.6144 50.3133 79.7815 50.7651 79.6638C50.8911 79.6279 51.0243 79.6257 51.1514 79.6575C51.2785 79.6893 51.3951 79.7539 51.4893 79.8449L51.3988 78.487C51.1849 77.6278 50.7717 75.1818 50.6318 74.3408C50.5455 73.6421 50.4417 72.7927 50.403 72.4216C50.331 71.7381 51.2897 70.955 51.7609 72.2405C52.1042 73.1771 52.67 75.5258 52.9854 77.0539L54.4298 72.4797C54.2821 72.1479 54.2056 71.7889 54.2052 71.4257C54.2052 71.4257 54.341 71.2899 54.8389 71.4257C54.8308 71.6822 54.8761 71.9376 54.972 72.1757L55.4918 71.184C55.4796 71.1647 55.4726 71.1542 55.4726 71.1542L55.5197 71.1305L55.5292 71.1124L55.5423 71.1193L56.0157 70.8826C56.0157 70.8826 57.3284 72.9195 55.7442 73.1458C55.4958 73.1899 55.24 73.1628 55.0064 73.0675L54.8907 73.2837C55.1489 73.4112 55.3865 73.5765 55.5958 73.7741C55.9002 74.076 56.0927 74.5512 55.652 74.5455C55.5582 74.5409 55.4669 74.5134 55.3861 74.4654C55.1666 75.0523 54.5714 76.6109 54.1146 77.4912C53.9414 77.8191 53.8016 78.1636 53.6974 78.5196L54.8389 78.2154L54.9294 78.8491C54.9294 78.8491 56.1007 79.8856 56.1968 80.8407C56.806 81.1621 56.8305 81.2028 56.8305 81.2028C56.8305 81.2028 57.3375 81.2743 57.0116 81.927C57.4257 82.4675 57.3032 82.7246 57.1655 82.8396C57.0907 82.8604 56.872 82.9337 56.8305 83.1039C56.7803 83.3094 56.9259 85.0937 56.921 85.4577C56.9844 84.3958 56.9259 83.7358 57.0116 83.466C57.0326 83.3964 57.0739 83.3347 57.1302 83.2886C57.2314 83.4746 57.3429 83.6547 57.4642 83.8281C58.013 84.632 58.0979 85.0955 58.0979 85.0955L57.9168 85.1861C57.9168 85.1861 57.8207 85.4984 58.0074 85.6387C58.194 85.779 58.6355 86.0117 58.6411 86.9966C58.6467 87.9816 59.0575 88.8181 59.1842 89.3504C59.311 89.8827 59.6313 90.7192 59.8179 91.161C60.0046 91.6027 60.3856 91.7757 60.3611 91.8852C60.3372 92.042 60.3693 92.2023 60.4516 92.3378C60.5478 92.508 60.8681 92.6809 61.0853 93.0621C61.3026 93.4432 61.7134 93.6768 61.8096 93.8768C61.9057 94.0769 62.1661 94.2498 62.3527 94.3295C62.3695 94.3367 62.3899 94.3439 62.4118 94.3512L63.077 96.8643C63.0323 97.5287 62.741 98.1525 62.2602 98.6133C62.0326 98.8024 61.7912 98.9743 61.538 99.1275C61.8028 98.9927 62.0462 98.8194 62.2602 98.6133C63.0743 97.937 63.3486 97.3169 63.3486 97.3169L62.9554 94.4861C63.0278 94.5015 63.077 94.5105 63.077 94.5105C63.077 94.5105 62.9808 92.9525 63.3486 92.9715C63.7163 92.9905 63.8917 94.601 63.8917 94.601C63.9309 94.9067 63.9914 95.2092 64.0728 95.5063C64.2293 96.1292 64.1633 97.9506 64.1633 97.9506C64.1633 97.9506 65.4552 103.454 65.5212 103.835C65.5872 104.216 65.7284 104.325 65.7928 104.469C65.8764 104.669 65.9076 104.887 65.8834 105.102V105.102ZM29.5814 71.9689C29.481 71.7001 29.2885 71.4756 29.0382 71.3352C29.0382 71.3352 29.0792 71.3124 28.8572 71.1542C28.6352 70.9959 28.6718 70.6184 28.4951 70.7015C28.4553 70.7202 28.3833 70.7487 28.2948 70.7813L29.667 72.1993C29.6442 72.1396 29.6163 72.065 29.5814 71.9689ZM55.8347 72.2405C55.8709 72.0781 55.8201 71.8729 55.7467 71.6844L55.3031 72.514C55.3559 72.5324 55.4119 72.5399 55.4677 72.536C55.5235 72.5321 55.5779 72.5169 55.6276 72.4913C55.6773 72.4657 55.7213 72.4303 55.7569 72.3872C55.7925 72.3441 55.819 72.2942 55.8347 72.2405V72.2405ZM43.8849 85.005C43.8849 85.005 42.8931 85.1589 42.8891 85.2766C42.8851 85.3943 43.2512 86.2724 43.2512 86.2724L44.066 85.6387L43.8849 85.005ZM44.4281 95.959C44.3902 95.9291 44.3479 95.8956 44.3034 95.8621C44.22 95.9961 44.1372 96.1246 44.066 96.2306C43.7895 96.6398 42.1697 98.6884 42.708 99.3085C43.2464 99.9287 44.3424 98.5074 44.4281 97.4074C44.4556 96.9717 44.5209 96.5391 44.6233 96.1147C44.5542 96.0604 44.4894 96.0079 44.4281 95.959ZM47.0534 88.6262C45.9394 88.7819 45.346 88.169 45.1523 87.5398C44.9662 86.936 45.0667 86.1792 46.6689 85.3753C46.7364 85.3888 46.8061 85.386 46.8724 85.3671C46.9336 85.3535 46.991 85.3263 47.0404 85.2876C47.0898 85.2489 47.1299 85.1997 47.1579 85.1435C47.8338 84.8276 48.1142 84.6963 48.22 84.6474L48.2303 84.6429C48.2303 84.6429 48.343 84.5904 48.22 84.6474C48.1543 84.6746 47.7545 84.8439 47.1833 85.0765C47.3515 84.5144 46.6014 83.3827 46.4197 83.1039C46.4197 83.1039 47.1814 84.5859 47.0534 84.9145C46.9254 85.2431 46.5326 85.2947 46.2387 84.7334C45.8693 84.0282 45.8765 84.0092 45.8765 84.0092L45.605 83.1944C45.605 83.1944 45.8946 85.0123 46.5475 85.3345C45.7344 85.6677 44.4802 86.2607 44.8807 87.6303C45.287 89.02 46.5983 88.9385 47.1439 88.8072C47.4148 88.742 50.4229 87.471 52.0297 86.7884C52.6272 86.5368 53.0283 86.3629 53.0283 86.3629C53.0283 86.3629 52.625 86.5349 52.0297 86.7884C50.5459 87.4122 47.8477 88.5148 47.0534 88.6262ZM54.3862 76.1332C54.7273 75.3782 54.9968 74.6757 55.1415 74.2833C54.9318 74.0815 54.7612 73.8428 54.6383 73.5791L53.146 77.8849C53.177 78.0624 53.199 78.2063 53.2094 78.3059C53.2371 78.334 53.2617 78.3584 53.2841 78.3801C53.6319 77.6278 54.1522 76.651 54.3862 76.1332ZM63.8917 98.6748C63.4322 99.8798 61.9906 100.214 61.9906 100.214C63.7107 99.9784 63.8012 99.5801 63.8012 99.5801L64.2538 101.481C64.2538 101.481 63.6089 102.395 61.9001 102.024C63.5046 102.415 64.5254 101.662 64.5254 101.662C64.5254 101.662 63.9891 99.6969 63.8917 98.6748ZM38.5437 66.9898C38.5767 66.9621 38.6112 66.9363 38.647 66.9123L38.5437 66.9898ZM40.5024 24.0951L40.4448 28.2436L40.5082 28.9057C40.4901 28.7867 40.4727 28.6656 40.4545 28.5478C40.4814 29.1647 40.5146 29.7957 40.5541 30.441C40.7358 33.3657 41.0483 36.3684 41.387 39.085L41.8435 47.8251C41.3456 44.8901 40.1712 37.4882 39.739 30.5277C39.5777 27.9317 39.5303 25.5623 39.5434 23.5034C38.9489 20.6364 38.3582 18.4338 37.974 17.1111C37.7072 16.1929 38.5246 16.0701 38.8007 17.0237C39.0216 17.787 39.3077 18.8327 39.6229 20.1198C39.7479 17.0961 39.9721 15.3093 39.9721 15.3093L40.7875 15.2225C40.7875 15.2225 40.3928 18.3737 40.3591 23.3851C40.4064 23.6171 40.4544 23.8545 40.5024 24.0951ZM55.201 100.757C56.2408 100.408 56.2846 99.0297 56.0972 98.1878C56.7031 98.597 57.4798 99.1655 57.7358 99.8517C57.9863 100.523 57.6155 101.818 56.3779 102.024C55.562 102.16 53.2037 101.612 52.4851 101.029C52.1778 100.781 51.9808 100.422 51.9371 100.03C52.5446 100.37 53.6969 101.26 55.201 100.757ZM59.3528 103.329C59.4434 103.69 59.5688 104.041 59.7274 104.378C60.1731 105.272 61.0018 106.189 62.9864 106.189C63.2735 106.189 64.3089 106.1 64.767 105.611C64.8941 106.222 64.8733 106.855 64.7065 107.456C64.6216 107.747 63.2218 107.949 62.4433 107.999C61.6647 108.049 58.8165 105.656 58.3695 104.921C58.02 104.346 58.9363 103.62 59.3528 103.329Z" fill="white"/>
<path fill-rule="evenodd" clip-rule="evenodd" d="M62.2003 54.7172C60.2959 56.1015 57.9679 58.1489 57.8012 59.1725C57.7766 59.3237 57.7158 59.4088 57.6309 59.4464C57.4944 59.7329 57.2994 59.9876 57.0584 60.1941C56.7149 60.4834 56.2971 60.6704 55.8525 60.7338C55.0662 60.8572 54.422 60.6499 53.9199 60.112C53.4178 59.574 53.0708 58.6935 52.8788 57.4704L52.6706 56.1454C52.0663 56.3498 51.8339 56.8984 51.9735 57.7914C52.0334 58.1614 52.1475 58.5206 52.3123 58.8572C52.4629 59.1815 52.6683 59.4773 52.9195 59.7317L50.9144 61.1205C50.529 60.6548 50.2181 60.1324 49.9925 59.5717C49.7351 58.9656 49.5527 58.3304 49.4493 57.6801C49.23 56.2822 49.3755 55.1653 49.886 54.3293C50.3964 53.4933 51.302 52.9732 52.6027 52.7692L56.8837 52.0976L57.3635 55.1554L56.3151 55.3199C56.7012 55.4295 57.0437 55.6564 57.2952 55.9692C57.3685 56.0982 57.7371 56.7749 57.8246 57.4843C57.9406 57.0114 57.9363 56.3972 57.9053 55.9147C58.2041 55.7527 58.5417 55.5848 58.9256 55.4116C62.2794 53.899 64.9327 52.4012 65.78 49.2114C65.9624 47.8004 65.6777 46.8736 65.6777 46.8736C65.6777 46.8736 65.8534 46.5059 66.1893 46.5687C66.5251 46.6315 66.7584 47.8847 66.2915 49.7196C66.0589 50.6003 65.647 51.4235 65.0815 52.1377C67.033 50.8841 71.7424 46.9747 73.4063 37.692C73.7357 37.0622 74.0292 37.2254 74.0292 37.2254C74.0292 37.2254 72.292 50.6009 62.2003 54.7172ZM55.7285 56.7101C55.6965 56.4864 55.5961 56.2781 55.4411 56.1137C55.2709 55.9412 55.049 55.8293 54.8092 55.795L54.2559 55.8818L54.3838 56.6972C54.4889 57.3671 54.7647 57.667 55.2112 57.5969C55.2989 57.5849 55.3827 57.5531 55.4564 57.5041C55.5301 57.4551 55.5917 57.39 55.6367 57.3138C55.7401 57.1306 55.7727 56.9158 55.7285 56.7101V56.7101ZM57.625 42.0751L55.1966 41.3371C55.2991 41.1461 55.3725 40.941 55.4145 40.7284C55.4589 40.5239 55.4662 40.313 55.4362 40.1059C55.3799 39.7469 55.2305 39.4918 54.988 39.3407L47.4469 43.9553L46.9169 40.5772L50.9251 38.2624L46.396 37.2576L45.9071 34.1415L46.6526 34.3142C46.3012 33.8698 46.0146 33.3776 45.8017 32.8525C45.5442 32.2463 45.3618 31.6109 45.2585 30.9604C45.0393 29.5626 45.1849 28.4457 45.6953 27.6099C46.1414 26.8792 46.8895 26.3899 47.9396 26.1419C47.8812 27.6704 47.9009 29.0262 47.9252 29.8509C47.7481 30.1382 47.7006 30.5452 47.7826 31.0719C47.8424 31.442 47.9566 31.8011 48.1214 32.1377C48.272 32.462 48.4774 32.7578 48.7286 33.0122L46.7997 34.3482L54.5459 36.1429C55.65 36.3975 56.4595 36.8026 56.9745 37.3583C57.4895 37.9141 57.8178 38.6433 57.9593 39.5461C58.0295 40.0024 58.0344 40.4663 57.974 40.9239C57.9351 41.327 57.8165 41.7183 57.625 42.0751V42.0751ZM49.6275 19.8835C49.9383 21.6365 50.1361 23.4076 50.2196 25.186C49.7595 25.7985 48.9538 26.0709 48.9538 26.0709L51.0197 25.6405L52.693 25.378L53.1728 28.4357L52.1245 28.6002C52.9798 28.8537 53.4958 29.5436 53.6725 30.6699C53.7715 31.3011 53.7465 31.8545 53.5973 32.3303C53.4741 32.7693 53.2251 33.1627 52.881 33.462C52.5369 33.7612 52.1128 33.9531 51.6609 34.0141C50.8745 34.1375 50.2303 33.9302 49.7282 33.3924C49.226 32.8545 48.879 31.974 48.6871 30.7507L48.5652 29.9741C48.5082 28.9579 48.5107 27.9392 48.5727 26.9233L48.5642 26.9167C48.5642 26.9167 49.3421 17.8884 44.8585 7.7688C43.5921 7.29801 42.2425 7.09218 40.8933 7.16407C40.5846 7.2365 40.8933 6.82468 40.8933 6.82468C40.8933 6.82468 42.4981 6.61918 44.6521 7.31046C43.5511 4.89718 42.2166 2.59739 40.6677 0.443959C40.4539 -0.286516 41.119 0.104567 41.119 0.104567C41.119 0.104567 43.3846 2.93485 45.6602 7.68805C47.1182 8.31478 48.7335 9.37116 50.2362 11.1385C51.2086 8.51377 52.6666 5.80633 54.7692 4.56201C55.1346 4.59551 54.9948 5.01466 54.9948 5.01466C54.9948 5.01466 50.4311 7.03824 49.6275 19.8835ZM50.192 29.9775C50.297 30.6474 50.5729 30.9472 51.0195 30.877C51.1072 30.865 51.191 30.8333 51.2647 30.7843C51.3384 30.7353 51.4 30.6702 51.445 30.594C51.5484 30.4107 51.581 30.1959 51.5367 29.9902C51.5047 29.7665 51.4043 29.5582 51.2492 29.3938C51.0791 29.2214 50.8572 29.1095 50.6174 29.0752L50.0641 29.162L50.192 29.9775ZM45.925 8.2506C47.1165 10.8116 48.0828 13.4716 48.8128 16.2003C49.0973 14.803 49.4634 13.4235 49.9091 12.069C49.3474 11.1366 48.0779 9.39099 45.925 8.25042V8.2506ZM44.0541 18.245C44.5689 18.8008 44.8971 19.5301 45.0389 20.4328C45.109 20.889 45.114 21.3529 45.0536 21.8105C45.0148 22.2136 44.8962 22.605 44.7046 22.9619L42.2763 22.2239C42.3788 22.033 42.4522 21.8279 42.4941 21.6153C42.5385 21.4108 42.5459 21.1999 42.5159 20.9928C42.4595 20.6337 42.3101 20.3786 42.0676 20.2275L34.5265 24.8421L33.9965 21.464L38.0048 19.1492L33.4757 18.1444L32.9868 15.0283L41.626 17.0299C42.7298 17.2842 43.5392 17.6892 44.0541 18.245ZM39.5026 32.5115C38.8445 32.5793 38.1799 32.4789 37.5712 32.2197C36.8823 31.9238 36.2883 31.444 35.8543 30.8327C35.4064 30.1824 35.107 29.4416 34.977 28.6628C34.8471 27.8839 34.8899 27.0861 35.1025 26.3256C35.3098 25.6241 35.7135 24.9965 36.2659 24.5169C36.8256 24.0263 37.5374 23.7132 38.4012 23.5776C38.4495 23.5701 38.7044 23.5448 39.1658 23.5016C39.153 24.0836 39.1472 25.5113 39.2677 28.3338C39.3277 29.7521 39.4152 31.2168 39.5026 32.5115ZM38.0677 26.7783C37.7739 26.8778 37.5231 27.0751 37.3573 27.3373C37.2003 27.6053 37.1464 27.9214 37.2058 28.2264C37.2423 28.5337 37.3874 28.8178 37.615 29.0275C37.8541 29.2294 38.1568 29.3404 38.4698 29.3409L38.0677 26.7783ZM45.2557 41.2115L37.2908 42.4608L36.7997 39.3301L37.5859 39.2067C37.2309 38.9497 36.935 38.6197 36.7179 38.2389C36.4934 37.84 36.344 37.4033 36.2772 36.9504C36.1233 35.97 36.2957 35.1348 36.7942 34.4449C37.2927 33.7549 38.1389 33.3163 39.333 33.129L39.5429 33.0961C39.6647 34.8409 39.7772 36.1772 39.8045 36.4963C39.3277 36.7001 39.1267 37.0417 39.2013 37.5211C39.2219 37.6905 39.2798 37.8533 39.3708 37.9977C39.4618 38.1421 39.5837 38.2645 39.7278 38.3561C40.0209 38.5439 40.444 38.5944 40.9972 38.5075L44.7395 37.9204L45.2557 41.2115ZM40.8967 24.3418L41.3485 23.7275C42.3247 24.3702 42.9338 25.4632 43.1758 27.0066C43.3267 27.9675 43.282 28.8398 43.0417 29.6236C42.8625 30.2343 42.5453 30.7956 42.1146 31.2642C41.7771 27.9336 41.2484 25.6175 40.8967 24.3418ZM44.3916 35.7076L42.5591 35.9952C42.491 35.2838 42.3918 34.2304 42.2473 32.6723L43.8751 32.4169L44.3916 35.7076ZM39.2525 43.2532C39.2671 43.2401 39.2806 43.226 39.2955 43.2131C39.8796 42.726 40.5848 42.4066 41.3361 42.2887C42.0874 42.1708 42.8567 42.259 43.5618 42.5438C44.2584 42.8456 44.8571 43.3355 45.2909 43.9585C45.7582 44.651 46.0676 45.4378 46.197 46.2631C46.3265 47.0885 46.273 47.9322 46.0402 48.7345C45.8171 49.4616 45.398 50.1131 44.8288 50.6175C44.4223 50.9748 43.9445 51.2415 43.4271 51.3999L43.2694 47.773C43.3037 47.7402 43.3362 47.7055 43.3666 47.6691C43.4787 47.531 43.5604 47.3709 43.6066 47.1993C43.6528 47.0276 43.6624 46.8481 43.6348 46.6725C43.6072 46.4968 43.5431 46.3289 43.4464 46.1797C43.3498 46.0305 43.2229 45.9032 43.074 45.8061C42.7593 45.6069 42.3544 45.5461 41.8592 45.6237C41.3641 45.7012 40.9997 45.8827 40.766 46.1681C40.6561 46.3071 40.5761 46.4673 40.5311 46.6387C40.4861 46.8101 40.477 46.9889 40.5045 47.164C40.5319 47.339 40.5953 47.5065 40.6907 47.6559C40.786 47.8053 40.9112 47.9333 41.0584 48.0319C41.2113 48.1285 41.3822 48.193 41.5607 48.2215L41.7068 51.584C41.3121 51.5458 40.9258 51.4458 40.5622 51.2877C39.8669 50.9825 39.2704 50.4897 38.8395 49.8646C38.3651 49.1789 38.0576 48.3918 37.9418 47.5661C37.927 47.4717 37.9146 47.3783 37.9042 47.2854C37.9072 47.2479 37.9093 47.2084 37.9093 47.1644C37.9093 46.0049 38.3619 44.6296 38.3619 44.6296L37.2796 46.4123C34.1111 45.8447 26.1145 43.9447 21.285 38.6619C10.3048 26.6503 1.07052 26.27 1.07052 26.27C1.07052 26.27 0.725424 25.481 1.31857 25.7744C1.91171 26.0678 11.6276 27.0871 21.9048 37.1744C23.9675 39.199 25.9242 40.6416 27.7305 41.6599C27.2043 40.2295 26.4254 37.7237 26.3862 35.3358C26.3711 34.6906 26.2758 34.0497 26.1024 33.428C25.1035 32.2441 22.0377 29.4414 15.2079 29.1201C14.7882 28.9178 15.1729 28.5788 15.3319 28.6244C15.491 28.67 15.456 28.6244 15.456 28.6244C15.456 28.6244 21.1639 29.0415 25.3829 31.542C24.3725 29.4737 22.9278 27.9586 22.6694 27.7447C22.2687 27.4131 22.8211 27.1375 22.8211 27.1375C22.8211 27.1375 27.0903 31.1128 27.2208 35.2599C27.3087 38.0588 28.8664 41.0537 29.8705 42.707C35.3454 44.9782 39.0047 43.3679 39.2525 43.2532ZM42.4007 62.4717L38.2489 63.1229L37.7101 59.6866L41.3213 59.12L40.8234 55.9457L37.2122 56.5123L36.6727 53.0755L41.7296 52.2825C41.8172 53.8586 42.2085 60.7784 42.4007 62.4717ZM47.4046 54.9133L44.2765 55.404C44.2664 55.3429 44.2564 55.2815 44.2463 55.2212C43.9965 53.7225 43.697 52.4734 43.5764 51.9929L46.8655 51.4769L47.4046 54.9133ZM48.4417 61.524L45.2331 62.0274C45.1905 61.6981 45.0046 60.27 44.7623 58.5803L47.9037 58.0876L48.4417 61.524ZM51.2243 48.3981C51.5175 48.586 51.9406 48.6365 52.4938 48.5496L56.2361 47.9625L56.7521 51.2533L48.7872 52.5026L48.2961 49.372L49.0823 49.2486C48.7274 48.9915 48.4315 48.6615 48.2144 48.2808C47.9898 47.8819 47.8404 47.4451 47.7736 46.9922C47.6197 46.0119 47.7921 45.1767 48.2906 44.4867C48.7891 43.7967 49.6353 43.3581 50.8294 43.1709L55.3724 42.4582L55.8884 45.749L51.9141 46.3727C51.0017 46.5158 50.5965 46.9126 50.6985 47.563C50.7189 47.7324 50.7767 47.8952 50.8676 48.0396C50.9585 48.184 51.0804 48.3064 51.2243 48.398V48.3981ZM49.7383 61.7974L52.0196 63.6924C51.3728 64.4503 51.1186 65.2709 51.2571 66.1543C51.3759 66.9115 51.6984 67.4775 52.2248 67.8525C52.7511 68.2275 53.4074 68.3533 54.1936 68.2299C54.9605 68.1096 55.5423 67.7921 55.939 67.2773C56.3356 66.7625 56.476 66.1362 56.3603 65.3985C56.2944 64.9687 56.1436 64.5563 55.9167 64.1854L53.3394 64.5898L52.8711 61.6047L57.1812 60.9285C57.7169 61.5007 58.1529 62.1586 58.4711 62.8749C58.8092 63.603 59.0456 64.3741 59.1738 65.1666C59.3444 66.2539 59.2718 67.2648 58.9559 68.1993C58.6585 69.107 58.1132 69.9134 57.3816 70.5275C56.6174 71.1411 55.7058 71.5439 54.7376 71.6957C53.7694 71.8476 52.7783 71.7433 51.8629 71.3933C50.9735 71.0288 50.2056 70.4199 49.648 69.637C49.0587 68.8294 48.6773 67.8722 48.5037 66.7655C48.3468 65.7659 48.3737 64.8441 48.5846 64.0002C48.7819 63.1821 49.1782 62.4254 49.7383 61.7974Z" fill="#FD5D1F"/>
</svg>
