<svg width="117" height="167" viewBox="0 0 117 167" fill="none" xmlns="http://www.w3.org/2000/svg">
<path fill-rule="evenodd" clip-rule="evenodd" d="M60.4616 20.4245C60.4616 20.4245 60.8452 17.0536 63.1894 17.5351C65.5335 18.0166 65.2352 21.6887 65.2352 21.6887L64.2123 21.3276C64.2123 21.3276 64.1413 18.9798 63.0189 18.7993C61.8965 18.6188 61.4844 20.7855 61.4844 20.7855L60.4616 20.4245ZM47.8612 112.847C47.8934 112.778 47.9397 112.717 47.997 112.668C47.9515 112.726 47.9065 112.786 47.8612 112.847ZM103.955 162.317V163.187L103.52 163.912L102.795 161.302L102.731 161.366L102.07 159.273C102.07 159.273 101.392 160.593 98.0109 160.143C99.7326 160.533 101.247 160.332 101.925 159.853C102.056 160.7 102.232 161.54 102.453 162.369C102.364 162.53 102.231 162.663 102.07 162.752C102.081 162.787 102.089 162.822 102.098 162.857C101.695 163.131 100.917 163.471 99.4607 163.622C96.8399 163.893 94.5063 162.445 93.9515 159.418C93.885 159.216 93.8064 159.018 93.7162 158.826C93.481 157.665 92.8624 154.603 92.7917 154.198C92.704 153.698 90.608 149.045 89.0222 146.66C87.4626 144.314 84.6123 140.291 80.941 137.245C81.6369 136.409 82.2101 135.479 82.6432 134.481C81.7944 136.124 80.3924 137.294 79.6041 137.861C78.6408 138.438 78.215 138.518 77.859 138.976C77.6464 139.25 77.188 139.802 76.7464 140.328L76.6991 140.281C76.6991 140.281 76.0727 141.858 72.6398 142.745C73.8192 142.506 74.9857 142.208 76.135 141.851C76.7561 142.222 77.8492 142.899 78.2939 143.325C78.9311 143.935 80.7495 145.179 80.9035 145.935C82.169 147.27 82.0053 147.499 82.6432 147.674C83.2811 147.85 83.8423 147.595 84.8179 148.254C85.2779 148.581 85.7626 148.872 86.2677 149.124C86.5974 149.817 87.096 150.415 87.7174 150.864C87.8668 150.965 88.0347 151.076 88.2117 151.195C88.4889 152.615 88.3585 154.609 86.5576 155.213C84.7418 155.822 83.4803 155.039 82.3533 153.909C82.0492 153.593 81.6626 153.37 81.2377 153.263C80.8127 153.157 80.3665 153.172 79.9497 153.307C79.5714 153.227 79.2083 153.088 78.8738 152.894C77.8197 152.249 76.1192 150.864 76.1192 150.864C76.1192 150.864 74.7564 150.639 74.2345 149.994C72.402 149.548 71.2739 148.918 70.4834 148.359C70.0676 149.448 69.7108 151.519 69.3053 152.459C68.8142 153.597 67.1383 154.462 66.4057 153.329C65.6731 152.195 67.6699 148.808 68.4354 147.819C68.6026 147.604 68.7513 147.374 68.8799 147.134C67.9776 146.48 66.7718 145.696 66.2607 145.645C65.5938 145.58 64.8979 145.469 64.231 143.615C63.5641 141.761 62.4333 139.573 64.231 136.801C66.0288 134.029 66.9856 132.452 66.9856 132.452C66.9856 132.452 66.1974 130.827 66.4057 130.277C66.614 129.728 67.7105 129.552 67.7105 129.552L68.5804 129.407C68.5804 129.407 67.4297 127.456 67.2756 127.233C67.1215 127.009 67.2756 126.508 67.2756 126.508C67.1566 126.497 67.0372 126.492 66.9178 126.495C67.0812 125.655 67.5248 123.868 68.4354 123.173C66.5994 119.933 62.2013 111.72 62.2013 111.72C62.2013 111.72 61.8969 112.044 61.6214 111.865C61.346 111.685 58.5624 108.311 55.9673 108.385C58.9538 108.677 60.9545 111.646 61.3315 112.01C61.4475 112.117 61.5851 112.199 61.7351 112.249C61.8851 112.299 62.0441 112.316 62.2013 112.3L68.0005 123.028C67.3574 124.08 66.968 125.267 66.8631 126.495C66.6891 126.493 66.4489 126.498 66.1158 126.508C65.8337 126.512 65.5546 126.449 65.3023 126.322C65.0499 126.196 64.8317 126.011 64.666 125.783C64.666 125.783 64.2764 126.586 63.9411 126.363C63.6057 126.139 62.283 125.281 62.2013 124.913C62.1197 124.545 62.0564 124.478 62.0564 124.478C62.0564 124.478 58.5498 121.331 55.3874 119.984C54.7621 119.797 50.4492 120.787 47.7036 123.173C45.0505 125.478 43.1821 126.912 41.4695 127.957C40.3056 128.667 39.0947 129.297 37.8451 129.842C37.5822 129.945 37.0931 130.102 36.5403 130.277C35.9875 130.453 35.8245 130.355 35.3804 130.567C34.9364 130.779 34.8097 130.827 33.9307 130.857C33.0517 130.887 31.6926 131.443 31.611 131.727C31.5294 132.011 31.7651 133.472 31.756 134.192C31.7469 134.911 31.4298 134.793 31.3211 135.351C31.2123 135.91 30.3787 136.025 30.3062 135.206C30.2337 134.387 30.6505 133.87 30.5962 133.757C30.5418 133.644 29.8713 132.908 28.8564 132.887C27.8416 132.865 27.751 133.398 27.6966 133.467C27.6423 133.535 27.5154 134.793 27.5516 135.061C27.5879 135.33 26.863 135.754 26.6818 135.206C26.5674 134.781 26.5186 134.341 26.5368 133.902C26.5368 133.902 26.1381 133.633 26.1019 134.192C26.0737 134.481 26.0737 134.772 26.1019 135.061C26.12 135.402 25.9931 135.881 25.6669 135.786C25.3407 135.692 25.087 135.337 25.087 134.771C25.0953 134.381 25.1438 133.992 25.232 133.612C25.232 133.612 24.9783 133.198 24.7971 133.467C24.6158 133.735 24.3803 134.757 23.7822 134.626C23.1842 134.496 23.4741 133.507 23.6372 133.177C23.8003 132.846 24.5071 131.872 24.5071 131.872C24.5071 131.872 24.199 131.623 23.9272 131.727C23.6554 131.831 22.4049 132.202 22.3324 131.872C22.26 131.541 22.5137 131.079 23.0573 131.002C23.601 130.925 23.6372 130.857 23.6372 130.857C23.6372 130.857 24.4527 130.571 24.6521 130.422C24.8514 130.273 26.3012 130.154 26.8268 129.987C27.3523 129.82 28.8383 129.284 29.4364 128.827C29.8945 128.497 30.3795 128.207 30.8861 127.957C30.8861 127.957 32.8071 126.693 33.7857 125.783C34.1254 125.473 34.4818 125.181 34.8533 124.91C34.9857 125.494 35.4279 126.893 36.8028 128.363C36.9469 128.528 37.1013 128.683 37.2652 128.827C37.0999 128.672 36.9469 128.517 36.8028 128.363C35.6552 127.059 35.2445 125.326 35.1291 124.71C35.8409 124.198 36.5514 123.747 36.9752 123.463C37.682 122.988 39.5578 121.702 41.4695 120.129C43.3812 118.556 44.2877 117.987 44.804 117.519C45.3203 117.051 45.2663 116.828 45.6739 116.359C45.9531 116.039 46.607 114.889 47.1716 113.947C47.106 114.071 47.0404 114.198 46.9787 114.33C48.0541 113.064 48.4044 112.401 49.0084 111.865C49.4906 111.436 50.3683 110.902 50.9967 110.724C51.6644 110.534 50.9451 109.716 51.473 109.835C52.0009 109.955 51.699 109.339 52.1979 108.965C52.6093 108.684 53.0461 108.441 53.5027 108.24L53.0677 107.951C53.0677 107.951 52.1049 108.498 51.7629 108.82C51.4209 109.143 51.554 109.31 51.328 109.4C51.102 109.491 50.7752 109.848 50.8931 110.415C50.5818 110.494 49.4024 111.041 48.2835 112.321V110.995L47.9951 110.418C48.0027 110.417 47.9935 110.415 47.9935 110.415L47.9951 110.418C47.8979 110.422 47.8006 110.421 47.7036 110.415C47.3481 110.403 47.1237 109.835 47.1237 109.835V109.98C47.1237 109.98 47.0683 109.92 46.5437 109.98C46.4517 109.991 46.3793 109.998 46.3213 110.002L47.7036 111.43L43.2612 107.526C43.2117 107.542 43.1619 107.559 43.1118 107.574L47.1237 111.72L42.5832 107.73C42.4562 107.767 42.3261 107.792 42.1944 107.806C41.8676 107.818 47.6791 112.736 47.8409 112.873C47.6714 112.746 41.1216 107.802 40.8896 107.516C40.6542 107.226 40.7446 106.066 40.7446 106.066C40.7446 106.066 39.929 100.049 43.4992 97.2222C47.0694 94.3951 51.618 96.0624 51.618 96.0624C51.618 96.0624 52.3971 95.0475 52.7778 95.3375C53.1585 95.6274 53.5931 95.8449 53.6477 96.3523C53.7022 96.8597 53.5931 96.8235 53.7926 97.0772C53.9921 97.3309 53.3577 97.5121 53.3577 97.5121C53.3577 97.5121 53.8975 98.6337 54.387 99.2111L54.2276 99.3968L52.1979 100.557L50.6031 99.8318L48.1385 101.137L50.7481 100.122L52.1979 100.847L55.2424 99.3968L55.205 99.1359C56.0811 98.5635 57.7759 98.626 57.852 98.382C57.9428 98.092 57.997 98.092 57.997 98.092C58.6075 98.339 59.238 98.533 59.8817 98.672C60.5476 98.8024 61.0801 99.7207 61.3267 100.225C59.8546 101.114 59.4468 102.006 59.4468 102.006C59.6696 101.747 59.9119 101.504 60.1717 101.282C60.1717 101.282 61.4267 102.088 61.7664 103.166C62.1061 104.245 62.659 106.546 63.0712 108.096C63.4834 109.645 64.1451 109.989 64.0861 110.705C64.0271 111.421 64.9559 112.155 64.9559 112.155C64.9559 112.155 64.3263 111.004 64.521 110.56C64.7157 110.116 63.6014 108.902 63.3612 107.951C63.1209 106.999 62.1879 103.501 62.0564 102.731C61.9386 102.041 60.9872 101.078 60.7897 100.884C61.0056 100.764 61.2428 100.643 61.4669 100.533L61.4765 100.557C61.4765 100.557 61.7505 100.403 62.1597 100.206C62.2746 100.153 62.3463 100.122 62.3463 100.122L62.3455 100.118C62.993 99.8018 63.6742 99.56 64.376 99.3968C65.3278 99.2092 66.5662 99.3194 67.5945 99.6094C66.0365 86.3412 65.8381 72.7261 65.8381 72.7261L65.8268 72.7228C65.8268 72.7228 65.5948 57.3588 63.7536 43.3674C63.7191 41.6967 63.6726 39.2455 63.6511 37.2014C63.6387 36.014 63.6349 35.0438 63.6352 34.277C64.1069 36.7815 64.5642 39.5317 64.9658 42.4942C66.8851 56.6538 67.1246 72.4939 67.1246 72.4939L67.1392 72.4966C67.1392 72.4966 67.3457 86.6769 68.9933 100.197C69.1435 100.284 69.2841 100.372 69.4159 100.459C69.0878 96.0205 68.5943 91.5456 68.0764 87.5227C67.9097 83.2043 67.813 79.0293 67.7614 76.3035C68.6282 81.5807 70.137 91.643 70.798 101.349C71.5704 101.531 73.5008 102.132 74.5249 103.746C73.6149 102.289 72.0336 101.515 71.1862 101.187C71.8158 101.125 72.7254 101.086 73.3651 101.282C74.4344 101.608 76.5001 104.906 76.5546 105.631C76.6091 106.356 75.8839 107.552 75.3948 107.806C74.9273 108.019 74.4492 108.209 73.9622 108.373C73.5401 107.851 72.15 106.115 70.9825 104.431C70.9844 104.467 70.986 104.501 70.9879 104.537C72.2993 106.669 73.1162 107.933 73.5114 108.533C73.5386 108.588 74.539 110.538 75.1044 110.995C75.6778 111.459 77.503 112.452 78.2939 113.315C78.939 114.018 79.496 114.538 79.6794 114.706C79.8089 115.74 80.0104 117.213 80.3236 119.259C75.0919 118.403 70.6101 121.288 70.6101 121.288L65.9708 113.75C65.9708 113.75 70.1876 121.383 70.6101 121.723C75.5928 119.141 78.8235 119.427 80.3429 119.636L80.4686 121.144C80.4677 121.142 80.4304 121.138 79.5987 121.144C78.6991 121.149 76.3104 122.889 75.9742 123.753C75.638 124.617 79.0188 130.712 79.0188 130.712C79.0188 130.712 76.2008 124.695 76.4092 123.898C76.6175 123.101 79.0202 121.767 79.7437 121.578C79.9454 121.521 80.1588 121.517 80.3624 121.568C80.5659 121.619 80.7525 121.723 80.9035 121.868L80.7585 119.694C80.4159 118.318 79.7543 114.401 79.5303 113.054C79.392 111.935 79.2258 110.575 79.1638 109.98C79.0485 108.886 80.5838 107.632 81.3384 109.69C81.8882 111.19 82.7943 114.952 83.2994 117.399L85.6125 110.073C85.376 109.542 85.2535 108.967 85.2528 108.385C85.2528 108.385 85.4703 108.168 86.2677 108.385C86.2547 108.796 86.3274 109.205 86.4809 109.586L87.3132 107.998C87.2938 107.968 87.2825 107.951 87.2825 107.951L87.358 107.913L87.3733 107.884L87.3942 107.895L88.1524 107.516C88.1524 107.516 90.2546 110.778 87.7174 111.14C87.3197 111.211 86.9101 111.167 86.536 111.015L86.3507 111.361C86.7641 111.565 87.1447 111.83 87.4798 112.146C87.9674 112.63 88.2756 113.391 87.5699 113.382C87.4196 113.374 87.2734 113.33 87.1441 113.253C86.7925 114.193 85.8393 116.689 85.1078 118.099C84.8303 118.624 84.6065 119.176 84.4396 119.746L86.2677 119.259L86.4126 120.274C86.4126 120.274 88.2884 121.934 88.4423 123.463C89.4179 123.978 89.4572 124.043 89.4572 124.043C89.4572 124.043 90.2691 124.158 89.7471 125.203C90.4104 126.068 90.2141 126.48 89.9936 126.664C89.8739 126.698 89.5236 126.815 89.4572 127.088C89.3769 127.417 89.61 130.274 89.6022 130.857C89.7036 129.156 89.61 128.1 89.7471 127.668C89.7809 127.556 89.8471 127.457 89.9372 127.383C90.0992 127.681 90.2777 127.97 90.472 128.247C91.3509 129.535 91.4869 130.277 91.4869 130.277L91.1969 130.422C91.1969 130.422 91.043 130.922 91.3419 131.147C91.6408 131.372 92.3478 131.744 92.3567 133.322C92.3657 134.899 93.0236 136.239 93.2266 137.091C93.4296 137.944 93.9425 139.283 94.2415 139.991C94.5404 140.698 95.1506 140.975 95.1113 141.15C95.0731 141.402 95.1244 141.658 95.2563 141.875C95.4103 142.148 95.9232 142.425 96.2711 143.035C96.6191 143.646 97.277 144.02 97.431 144.34C97.5849 144.66 98.0019 144.937 98.3008 145.065C98.3277 145.076 98.3604 145.088 98.3954 145.1L99.4607 149.124C99.3891 150.188 98.9226 151.187 98.1527 151.925C97.7881 152.228 97.4015 152.503 96.996 152.749C97.4202 152.533 97.81 152.255 98.1527 151.925C99.4565 150.842 99.8956 149.849 99.8956 149.849L99.2659 145.316C99.3819 145.34 99.4607 145.355 99.4607 145.355C99.4607 145.355 99.3067 142.86 99.8956 142.89C100.484 142.921 100.765 145.5 100.765 145.5C100.828 145.989 100.925 146.474 101.055 146.95C101.306 147.947 101.2 150.864 101.2 150.864C101.2 150.864 103.269 159.677 103.375 160.288C103.481 160.898 103.707 161.072 103.81 161.302C103.944 161.623 103.994 161.972 103.955 162.317V162.317ZM45.8189 109.255C45.658 108.825 45.3498 108.465 44.949 108.24C44.949 108.24 45.0145 108.204 44.659 107.951C44.3035 107.697 44.3621 107.093 44.0791 107.226C44.0155 107.256 43.9001 107.301 43.7584 107.353L45.956 109.624C45.9195 109.529 45.8747 109.409 45.8189 109.255ZM87.8624 109.69C87.9204 109.43 87.8391 109.102 87.7215 108.8L87.0111 110.128C87.0957 110.158 87.1853 110.17 87.2747 110.164C87.364 110.157 87.4511 110.133 87.5308 110.092C87.6104 110.051 87.6809 109.994 87.7379 109.925C87.7949 109.856 87.8373 109.776 87.8624 109.69V109.69ZM68.7254 130.132C68.7254 130.132 67.137 130.379 67.1306 130.567C67.1242 130.756 67.7105 132.162 67.7105 132.162L69.0153 131.147L68.7254 130.132ZM69.5952 147.674C69.5346 147.627 69.4668 147.573 69.3956 147.519C69.2619 147.734 69.1294 147.94 69.0153 148.109C68.5725 148.765 65.9785 152.046 66.8406 153.039C67.7028 154.032 69.4579 151.756 69.5952 149.994C69.6392 149.296 69.7438 148.604 69.9078 147.924C69.7972 147.837 69.6934 147.753 69.5952 147.674ZM73.7996 135.931C72.0155 136.181 71.0651 135.199 70.755 134.192C70.457 133.225 70.6179 132.013 73.1837 130.725C73.2918 130.747 73.4036 130.742 73.5096 130.712C73.6077 130.69 73.6996 130.647 73.7787 130.585C73.8579 130.523 73.9221 130.444 73.9669 130.354C75.0493 129.848 75.4984 129.638 75.6678 129.559L75.6843 129.552C75.6843 129.552 75.8648 129.468 75.6678 129.559C75.5627 129.603 74.9223 129.874 74.0076 130.247C74.277 129.346 73.0757 127.534 72.7847 127.088C72.7847 127.088 74.0046 129.461 73.7996 129.987C73.5946 130.513 72.9655 130.596 72.4948 129.697C71.9033 128.568 71.9149 128.537 71.9149 128.537L71.4799 127.233C71.4799 127.233 71.9439 130.144 72.9894 130.66C71.6872 131.193 69.6787 132.143 70.3201 134.337C70.9708 136.562 73.0708 136.431 73.9446 136.221C74.3783 136.117 79.1957 134.081 81.7689 132.988C82.7257 132.585 83.3681 132.307 83.3681 132.307C83.3681 132.307 82.7222 132.582 81.7689 132.988C79.3927 133.987 75.0716 135.753 73.7996 135.931ZM85.5428 115.924C86.0891 114.715 86.5205 113.59 86.7523 112.962C86.4165 112.639 86.1432 112.256 85.9464 111.834L83.5566 118.73C83.6063 119.014 83.6415 119.244 83.6581 119.404C83.7026 119.449 83.7419 119.488 83.7778 119.523C84.3348 118.318 85.168 116.754 85.5428 115.924ZM100.765 152.024C100.03 153.953 97.7209 154.488 97.7209 154.488C100.475 154.111 100.62 153.474 100.62 153.474L101.345 156.518C101.345 156.518 100.313 157.981 97.5759 157.388C100.146 158.013 101.78 156.808 101.78 156.808C101.78 156.808 100.921 153.661 100.765 152.024ZM60.1717 101.282C60.2245 101.237 60.2797 101.196 60.3371 101.157L60.1717 101.282ZM63.3084 32.5874L63.2162 39.231L63.3177 40.2913C63.2887 40.1008 63.2608 39.9068 63.2317 39.7182C63.2747 40.706 63.3279 41.7167 63.3912 42.7501C63.6822 47.4339 64.1826 52.2425 64.725 56.593L65.4561 70.59C64.6587 65.8897 62.7779 54.0359 62.0858 42.889C61.8276 38.7316 61.7516 34.9369 61.7726 31.6397C60.8206 27.0484 59.8746 23.521 59.2593 21.4028C58.8321 19.9323 60.1411 19.7356 60.5833 21.2628C60.937 22.4852 61.3951 24.1599 61.8999 26.221C62.1002 21.3788 62.4591 18.5172 62.4591 18.5172L63.7649 18.3783C63.7649 18.3783 63.1328 23.4248 63.0789 31.4504C63.1546 31.8218 63.2316 32.2021 63.3084 32.5874ZM86.8476 155.358C88.5128 154.8 88.583 152.592 88.2829 151.244C89.2532 151.899 90.497 152.81 90.907 153.909C91.3081 154.984 90.7143 157.057 88.7323 157.388C87.4258 157.605 83.6491 156.728 82.4982 155.793C82.0061 155.397 81.6906 154.822 81.6205 154.194C82.5935 154.739 84.4389 156.164 86.8476 155.358ZM93.4966 159.477C93.6416 160.055 93.8425 160.618 94.0965 161.157C94.8102 162.588 96.1373 164.057 99.3157 164.057C99.7754 164.057 101.434 163.915 102.167 163.132C102.371 164.111 102.337 165.124 102.07 166.087C101.934 166.552 99.6926 166.877 98.4458 166.957C97.199 167.036 92.6377 163.204 91.9218 162.027C91.362 161.107 92.8295 159.942 93.4966 159.477Z" fill="white"/>
<path fill-rule="evenodd" clip-rule="evenodd" d="M98.0567 81.6274C95.007 83.8444 91.2787 87.1232 91.0118 88.7623C90.9724 89.0046 90.8749 89.1409 90.7391 89.201C90.5205 89.6598 90.2081 90.0677 89.8221 90.3984C89.2721 90.8617 88.603 91.1612 87.891 91.2628C86.6317 91.4604 85.6001 91.1285 84.796 90.2669C83.992 89.4053 83.4362 87.9952 83.1288 86.0366L82.7953 83.9145C81.8275 84.2419 81.4554 85.1206 81.679 86.5505C81.7748 87.1431 81.9576 87.7183 82.2215 88.2575C82.4627 88.7767 82.7917 89.2505 83.1939 89.658L79.9828 91.882C79.3656 91.1363 78.8676 90.2996 78.5065 89.4017C78.0942 88.4311 77.802 87.4138 77.6366 86.3724C77.2853 84.1337 77.5183 82.345 78.3358 81.0061C79.1533 79.6673 80.6036 78.8345 82.6866 78.5077L89.5425 77.4323L90.3108 82.3292L88.6319 82.5926C89.2502 82.7681 89.7987 83.1314 90.2014 83.6324C90.3188 83.839 90.9092 84.9227 91.0492 86.0588C91.2349 85.3014 91.2281 84.3179 91.1785 83.5451C91.657 83.2858 92.1976 83.0168 92.8124 82.7395C98.1834 80.3171 102.433 77.9184 103.789 72.8101C104.082 70.5505 103.626 69.0662 103.626 69.0662C103.626 69.0662 103.907 68.4773 104.445 68.5779C104.983 68.6785 105.356 70.6855 104.609 73.624C104.236 75.0344 103.576 76.3527 102.671 77.4964C105.796 75.4889 113.338 69.2281 116.003 54.3623C116.53 53.3537 117 53.6149 117 53.6149C117 53.6149 114.218 75.0354 98.0567 81.6274ZM87.6924 84.8189C87.6412 84.4607 87.4804 84.1271 87.2321 83.8638C86.9596 83.5876 86.6042 83.4084 86.2201 83.3535L85.334 83.4925L85.5389 84.7983C85.7073 85.8712 86.149 86.3514 86.864 86.2391C87.0044 86.2198 87.1386 86.169 87.2566 86.0905C87.3746 86.012 87.4734 85.9078 87.5454 85.7858C87.7109 85.4923 87.7632 85.1483 87.6924 84.8189V84.8189ZM90.7295 61.3815L86.8407 60.1996C87.0047 59.8939 87.1223 59.5654 87.1896 59.225C87.2606 58.8974 87.2724 58.5597 87.2243 58.228C87.1341 57.6531 86.8948 57.2446 86.5065 57.0026L74.4298 64.3927L73.581 58.9827L80 55.2758L72.7468 53.6665L71.9639 48.6762L73.1578 48.9528C72.5949 48.241 72.136 47.4528 71.795 46.6119C71.3827 45.6411 71.0906 44.6235 70.9251 43.5819C70.5741 41.3433 70.8073 39.5547 71.6246 38.2161C72.3391 37.046 73.5371 36.2624 75.2188 35.8653C75.1253 38.3131 75.1567 40.4843 75.1957 41.805C74.9122 42.2651 74.836 42.9169 74.9674 43.7605C75.0632 44.353 75.246 44.9282 75.5099 45.4673C75.751 45.9866 76.08 46.4604 76.4823 46.8678L73.3932 49.0072L85.7985 51.8814C87.5667 52.2891 88.8631 52.9379 89.6879 53.8279C90.5126 54.7179 91.0383 55.8857 91.2649 57.3316C91.3773 58.0622 91.3852 58.8051 91.2884 59.538C91.2262 60.1835 91.0362 60.8101 90.7295 61.3815V61.3815ZM77.9219 25.8427C78.4197 28.65 78.7364 31.4864 78.8702 34.3343C78.1333 35.3152 76.843 35.7515 76.843 35.7515L80.1515 35.0622L82.8311 34.6418L83.5995 39.5387L81.9207 39.8021C83.2905 40.2081 84.1169 41.3129 84.3998 43.1166C84.5584 44.1274 84.5183 45.0138 84.2793 45.7757C84.0821 46.4788 83.6834 47.1088 83.1323 47.588C82.5812 48.0672 81.902 48.3746 81.1783 48.4722C79.919 48.6698 78.8873 48.3379 78.0831 47.4765C77.279 46.6152 76.7232 45.205 76.4159 43.2461L76.2207 42.0023C76.1295 40.3749 76.1334 38.7435 76.2326 37.1166L76.2191 37.106C76.2191 37.106 77.4648 22.6476 70.2845 6.44143C68.2564 5.68747 66.0951 5.35785 63.9344 5.47298C63.4401 5.58896 63.9344 4.92945 63.9344 4.92945C63.9344 4.92945 66.5045 4.60036 69.9541 5.70741C68.1907 1.84263 66.0536 -1.84038 63.5732 -5.28902C63.2307 -6.45884 64.2959 -5.83254 64.2959 -5.83254C64.2959 -5.83254 67.9241 -1.29995 71.5684 6.31211C73.9034 7.31579 76.4903 9.00754 78.8967 11.8378C80.4539 7.63445 82.789 3.2986 86.1561 1.30588C86.7413 1.35952 86.5173 2.03077 86.5173 2.03077C86.5173 2.03077 79.2089 5.27146 77.9219 25.8427ZM78.826 42.0077C78.9942 43.0805 79.4359 43.5607 80.1511 43.4483C80.2915 43.4291 80.4258 43.3784 80.5438 43.2998C80.6618 43.2213 80.7605 43.1171 80.8325 42.995C80.9981 42.7015 81.0504 42.3575 80.9795 42.0281C80.9282 41.6699 80.7674 41.3363 80.519 41.073C80.2466 40.7969 79.8912 40.6176 79.5072 40.5627L78.6211 40.7017L78.826 42.0077ZM71.9925 7.213C73.9007 11.3144 75.4481 15.5742 76.6172 19.9441C77.0728 17.7064 77.6591 15.4972 78.3729 13.328C77.4733 11.8349 75.4403 9.03929 71.9925 7.21271V7.213ZM68.9963 23.2186C69.8207 24.1087 70.3464 25.2766 70.5734 26.7222C70.6858 27.4529 70.6937 28.1958 70.597 28.9287C70.5349 29.5742 70.3449 30.201 70.0382 30.7725L66.1493 29.5906C66.3134 29.2849 66.4309 28.9565 66.4981 28.6161C66.5692 28.2885 66.581 27.9508 66.5329 27.6191C66.4427 27.0441 66.2034 26.6356 65.815 26.3936L53.7383 33.7837L52.8895 28.3737L59.3086 24.6667L52.0554 23.0575L51.2725 18.0672L65.1077 21.2727C66.8755 21.68 68.1717 22.3286 68.9963 23.2186ZM61.7073 46.0659C60.6533 46.1745 59.589 46.0137 58.6142 45.5985C57.511 45.1248 56.5597 44.3562 55.8647 43.3773C55.1474 42.3359 54.6678 41.1496 54.4598 39.9023C54.2517 38.655 54.3203 37.3773 54.6606 36.1594C54.9927 35.0359 55.6393 34.0308 56.5239 33.2628C57.4202 32.4772 58.56 31.9758 59.9435 31.7586C60.0208 31.7466 60.429 31.706 61.168 31.6368C61.1474 32.5689 61.1381 34.8554 61.3311 39.3755C61.4272 41.6468 61.5672 43.9924 61.7073 46.0659ZM59.4094 36.8843C58.9388 37.0437 58.5372 37.3597 58.2716 37.7796C58.0202 38.2088 57.934 38.7151 58.0291 39.2034C58.0875 39.6955 58.3199 40.1506 58.6844 40.4864C59.0673 40.8098 59.5521 40.9875 60.0532 40.9883L59.4094 36.8843ZM70.9206 59.9986L58.1652 61.9993L57.3787 56.9856L58.6378 56.788C58.0693 56.3764 57.5954 55.8479 57.2478 55.2381C56.8882 54.5992 56.6489 53.8998 56.5419 53.1746C56.2955 51.6045 56.5715 50.267 57.3698 49.1621C58.1682 48.0571 59.5234 47.3547 61.4356 47.0548L61.7718 47.002C61.9668 49.7963 62.147 51.9363 62.1908 52.4474C61.4272 52.7738 61.1052 53.3208 61.2248 54.0885C61.2577 54.3599 61.3504 54.6206 61.4962 54.8518C61.642 55.083 61.8372 55.279 62.0679 55.4257C62.5373 55.7266 63.215 55.8074 64.1009 55.6682L70.094 54.728L70.9206 59.9986ZM63.94 32.9824L64.6634 31.9986C66.2267 33.0279 67.2022 34.7784 67.5898 37.2499C67.8314 38.7888 67.7598 40.1858 67.3751 41.441C67.0881 42.419 66.5801 43.318 65.8903 44.0684C65.3499 38.7345 64.503 35.0254 63.94 32.9824ZM69.5368 51.1844L66.6022 51.6448C66.4932 50.5056 66.3343 48.8186 66.1027 46.3234L68.7097 45.9144L69.5368 51.1844ZM61.3067 63.2683C61.3302 63.2472 61.3518 63.2248 61.3756 63.204C62.311 62.424 63.4404 61.9124 64.6436 61.7237C65.8468 61.5349 67.0787 61.6761 68.208 62.1322C69.3235 62.6155 70.2824 63.4 70.977 64.3978C71.7254 65.5068 72.2208 66.7668 72.4282 68.0885C72.6355 69.4103 72.5498 70.7614 72.177 72.0464C71.8198 73.2108 71.1485 74.2542 70.2369 75.0619C69.586 75.6341 68.8209 76.0612 67.9922 76.315L67.7397 70.5066C67.7946 70.454 67.8466 70.3985 67.8954 70.3401C68.0748 70.119 68.2057 69.8627 68.2797 69.5877C68.3537 69.3128 68.3691 69.0254 68.3249 68.7441C68.2807 68.4628 68.1779 68.194 68.0232 67.9549C67.8684 67.7159 67.6652 67.5121 67.4267 67.3566C66.9227 67.0377 66.2743 66.9403 65.4814 67.0645C64.6884 67.1887 64.1048 67.4793 63.7306 67.9364C63.5545 68.159 63.4264 68.4155 63.3544 68.69C63.2823 68.9645 63.2678 69.2509 63.3118 69.5312C63.3557 69.8116 63.4573 70.0798 63.6099 70.319C63.7626 70.5582 63.9631 70.7632 64.1989 70.9212C64.4437 71.0758 64.7173 71.1791 65.0032 71.2248L65.2372 76.6097C64.6051 76.5485 63.9865 76.3884 63.4041 76.1352C62.2907 75.6465 61.3354 74.8573 60.6453 73.8561C59.8856 72.7581 59.3932 71.4975 59.2077 70.1751C59.184 70.0241 59.1642 69.8745 59.1476 69.7257C59.1523 69.6657 59.1557 69.6023 59.1557 69.5319C59.1557 67.675 59.8806 65.4725 59.8806 65.4725L58.1472 68.3274C53.073 67.4184 40.2668 64.3757 32.5325 55.9154C14.9482 36.6793 0.15985 36.0704 0.15985 36.0704C0.15985 36.0704 -0.392805 34.8068 0.557089 35.2767C1.50698 35.7465 17.0666 37.3788 33.525 53.5333C36.8285 56.7756 39.9621 59.0859 42.8547 60.7166C42.0121 58.426 40.7647 54.413 40.7019 50.5889C40.6777 49.5556 40.5251 48.5293 40.2474 47.5337C38.6477 45.6376 33.7379 41.1493 22.8003 40.6346C22.1282 40.3107 22.7442 39.7678 22.9989 39.8408C23.2537 39.9139 23.1976 39.8408 23.1976 39.8408C23.1976 39.8408 32.3386 40.5088 39.0951 44.5132C37.477 41.2009 35.1634 38.7745 34.7495 38.4321C34.1079 37.901 34.9925 37.4596 34.9925 37.4596C34.9925 37.4596 41.8295 43.8259 42.0384 50.4673C42.1792 54.9497 44.6738 59.7459 46.2819 62.3936C55.0498 66.0308 60.9099 63.4519 61.3067 63.2683ZM66.3485 94.0459L59.6995 95.0889L58.8367 89.5856L64.6199 88.6784L63.8225 83.5949L58.0394 84.5021L57.1753 78.9983L65.2737 77.7283C65.4139 80.2524 66.0407 91.3342 66.3485 94.0459ZM74.362 81.9414L69.3526 82.7273C69.3363 82.6295 69.3202 82.5312 69.3041 82.4345C68.9041 80.0344 68.4244 78.0341 68.2313 77.2646L73.4986 76.4382L74.362 81.9414ZM76.0228 92.5283L70.8844 93.3343C70.8163 92.8071 70.5185 90.52 70.1305 87.814L75.1612 87.0249L76.0228 92.5283ZM80.4792 71.5076C80.9486 71.8085 81.6263 71.8894 82.5122 71.7502L88.5053 70.81L89.3317 76.0801L76.5762 78.0808L75.7897 73.0673L77.0488 72.8697C76.4804 72.458 76.0065 71.9295 75.6589 71.3197C75.2992 70.6809 75.0599 69.9814 74.9529 69.2561C74.7065 67.6862 74.9825 66.3487 75.7809 65.2437C76.5792 64.1387 77.9345 63.4363 79.8466 63.1365L87.1221 61.9951L87.9484 67.2652L81.5838 68.264C80.1227 68.4932 79.4737 69.1286 79.637 70.1702C79.6697 70.4415 79.7623 70.7022 79.9079 70.9334C80.0535 71.1647 80.2486 71.3607 80.4792 71.5075V71.5076ZM78.0994 92.9661L81.7528 96.0008C80.7169 97.2145 80.3098 98.5287 80.5316 99.9434C80.7219 101.156 81.2384 102.063 82.0813 102.663C82.9242 103.264 83.9752 103.465 85.2343 103.267C86.4625 103.075 87.3943 102.566 88.0295 101.742C88.6647 100.917 88.8896 99.9145 88.7042 98.733C88.5987 98.0447 88.3572 97.3843 87.9938 96.7903L83.8663 97.4379L83.1165 92.6574L90.0189 91.5746C90.8768 92.4909 91.575 93.5445 92.0846 94.6916C92.626 95.8577 93.0047 97.0926 93.21 98.3617C93.4831 100.103 93.3668 101.722 92.861 103.218C92.3847 104.672 91.5115 105.964 90.3398 106.947C89.116 107.93 87.6561 108.575 86.1056 108.818C84.555 109.061 82.9678 108.894 81.5018 108.333C80.0775 107.75 78.8477 106.775 77.9547 105.521C77.011 104.227 76.4001 102.695 76.1222 100.922C75.8709 99.3214 75.9141 97.8452 76.2518 96.4937C76.5677 95.1836 77.2023 93.9718 78.0994 92.9661Z" fill="#FD5D1F"/>
</svg>
