<svg width="135" height="200" viewBox="0 0 135 200" fill="none" xmlns="http://www.w3.org/2000/svg">
<path fill-rule="evenodd" clip-rule="evenodd" d="M69.763 30.4898C69.763 30.4898 70.2056 26.6003 72.9104 27.1559C75.6152 27.7114 75.2709 31.9485 75.2709 31.9485L74.0908 31.5318C74.0908 31.5318 74.0088 28.8228 72.7137 28.6146C71.4186 28.4063 70.9432 30.9063 70.9432 30.9063L69.763 30.4898ZM55.224 137.13C55.2612 137.051 55.3146 136.981 55.3808 136.924C55.3283 136.991 55.2764 137.06 55.224 137.13ZM119.948 194.212V195.216L119.446 196.052L118.609 193.041L118.536 193.114L117.773 190.699C117.773 190.699 116.991 192.223 113.089 191.703C115.076 192.153 116.823 191.922 117.606 191.368C117.757 192.346 117.96 193.316 118.214 194.272C118.112 194.458 117.958 194.611 117.773 194.714C117.785 194.754 117.794 194.794 117.805 194.834C117.34 195.15 116.443 195.543 114.762 195.717C111.738 196.03 109.045 194.359 108.405 190.866C108.328 190.633 108.238 190.406 108.134 190.184C107.862 188.844 107.148 185.311 107.067 184.844C106.966 184.267 104.547 178.897 102.718 176.145C100.918 173.439 97.6291 168.797 93.3931 165.282C94.196 164.318 94.8573 163.244 95.3571 162.094C94.3777 163.989 92.7601 165.339 91.8504 165.993C90.739 166.659 90.2477 166.751 89.8368 167.279C89.5916 167.596 89.0626 168.233 88.5531 168.84L88.4986 168.785C88.4986 168.785 87.7757 170.605 83.8147 171.629C85.1755 171.353 86.5216 171.008 87.8477 170.597C88.5643 171.025 89.8256 171.806 90.3387 172.298C91.0739 173.002 93.1721 174.437 93.3497 175.309C94.8099 176.85 94.6211 177.114 95.3571 177.316C96.0932 177.519 96.7407 177.224 97.8663 177.985C98.3971 178.363 98.9564 178.698 99.5392 178.989C99.9196 179.788 100.495 180.478 101.212 180.997C101.384 181.114 101.578 181.241 101.782 181.378C102.102 183.017 101.952 185.317 99.8737 186.015C97.7785 186.718 96.323 185.814 95.0226 184.509C94.6716 184.146 94.2257 183.888 93.7353 183.765C93.245 183.642 92.7301 183.66 92.2492 183.815C91.8128 183.723 91.3937 183.562 91.0078 183.339C89.7915 182.594 87.8294 180.997 87.8294 180.997C87.8294 180.997 86.257 180.737 85.6548 179.993C83.5403 179.478 82.2387 178.752 81.3265 178.106C80.8468 179.362 80.4351 181.753 79.9672 182.837C79.4006 184.15 77.4668 185.148 76.6216 183.84C75.7763 182.532 78.0803 178.625 78.9635 177.484C79.1564 177.235 79.328 176.97 79.4764 176.692C78.4352 175.938 77.0439 175.033 76.4543 174.974C75.6848 174.899 74.8818 174.772 74.1123 172.632C73.3428 170.493 72.038 167.969 74.1123 164.77C76.1866 161.572 77.2907 159.752 77.2907 159.752C77.2907 159.752 76.3812 157.877 76.6216 157.243C76.8619 156.609 78.1271 156.406 78.1271 156.406L79.1308 156.239C79.1308 156.239 77.8031 153.987 77.6253 153.73C77.4474 153.472 77.6253 152.893 77.6253 152.893C77.488 152.881 77.3502 152.876 77.2124 152.878C77.4009 151.91 77.9128 149.847 78.9635 149.046C76.845 145.307 71.7704 135.83 71.7704 135.83C71.7704 135.83 71.4191 136.205 71.1013 135.998C70.7834 135.791 67.5716 131.897 64.5773 131.983C68.0233 132.32 70.3318 135.745 70.7667 136.165C70.9005 136.289 71.0593 136.383 71.2324 136.441C71.4055 136.498 71.5889 136.519 71.7704 136.5L78.4617 148.878C77.7197 150.092 77.2704 151.461 77.1493 152.878C76.9486 152.876 76.6714 152.882 76.287 152.893C75.9615 152.898 75.6396 152.825 75.3484 152.679C75.0572 152.534 74.8054 152.32 74.6142 152.057C74.6142 152.057 74.1647 152.984 73.7778 152.726C73.3908 152.468 71.8646 151.478 71.7704 151.053C71.6762 150.628 71.6031 150.551 71.6031 150.551C71.6031 150.551 67.5571 146.92 63.9081 145.366C63.1867 145.15 58.2102 146.292 55.0422 149.046C51.981 151.706 49.8252 153.36 47.8491 154.566C46.5061 155.385 45.1089 156.112 43.6671 156.741C43.3638 156.859 42.7994 157.04 42.1615 157.243C41.5237 157.445 41.3356 157.333 40.8233 157.577C40.3109 157.821 40.1647 157.877 39.1504 157.912C38.1362 157.947 36.5681 158.587 36.4739 158.915C36.3798 159.243 36.6518 160.929 36.6412 161.759C36.6307 162.589 36.2648 162.453 36.1394 163.097C36.0139 163.741 35.052 163.875 34.9684 162.93C34.8848 161.985 35.3657 161.388 35.303 161.257C35.2402 161.127 34.4666 160.279 33.2956 160.254C32.1246 160.229 32.0201 160.844 31.9573 160.923C31.8946 161.001 31.7482 162.453 31.79 162.763C31.8319 163.072 30.9955 163.562 30.7864 162.93C30.6544 162.44 30.598 161.932 30.6191 161.425C30.6191 161.425 30.1591 161.115 30.1172 161.759C30.0847 162.093 30.0847 162.429 30.1172 162.763C30.1381 163.156 29.9918 163.708 29.6154 163.599C29.239 163.491 28.9463 163.081 28.9463 162.428C28.9558 161.978 29.0118 161.529 29.1135 161.09C29.1135 161.09 28.8208 160.613 28.6117 160.923C28.4026 161.232 28.1308 162.412 27.4407 162.261C26.7507 162.11 27.0852 160.97 27.2734 160.588C27.4616 160.207 28.2771 159.083 28.2771 159.083C28.2771 159.083 27.9217 158.795 27.608 158.915C27.2944 159.036 25.8515 159.464 25.7679 159.083C25.6843 158.701 25.977 158.168 26.6043 158.079C27.2316 157.99 27.2734 157.912 27.2734 157.912C27.2734 157.912 28.2144 157.582 28.4444 157.41C28.6744 157.238 30.3472 157.1 30.9536 156.908C31.56 156.716 33.2747 156.097 33.9647 155.57C34.4934 155.189 35.0529 154.853 35.6375 154.566C35.6375 154.566 37.854 153.107 38.9832 152.057C39.3752 151.699 39.7864 151.363 40.215 151.05C40.3678 151.724 40.878 153.338 42.4645 155.034C42.6307 155.224 42.8089 155.403 42.9979 155.57C42.8072 155.391 42.6307 155.212 42.4645 155.034C41.1403 153.529 40.6664 151.53 40.5332 150.819C41.3545 150.228 42.1744 149.708 42.6634 149.38C43.4789 148.832 45.6433 147.348 47.8491 145.533C50.0549 143.718 51.1009 143.062 51.6966 142.522C52.2923 141.981 52.23 141.724 52.7003 141.183C53.0225 140.814 53.7769 139.487 54.4285 138.4C54.3527 138.544 54.2771 138.689 54.2058 138.842C55.4467 137.382 55.8509 136.617 56.5477 135.998C57.1041 135.503 58.1169 134.887 58.842 134.681C59.6123 134.462 58.7825 133.518 59.3915 133.656C60.0006 133.794 59.6523 133.083 60.2279 132.652C60.7026 132.327 61.2067 132.047 61.7335 131.816L61.2316 131.481C61.2316 131.481 60.1207 132.113 59.7261 132.485C59.3315 132.857 59.485 133.049 59.2243 133.154C58.9635 133.259 58.5864 133.671 58.7224 134.325C58.3633 134.415 57.0024 135.048 55.7113 136.524V134.994L55.3786 134.329C55.3873 134.327 55.3768 134.325 55.3768 134.325L55.3786 134.329C55.2665 134.333 55.1542 134.332 55.0422 134.325C54.632 134.311 54.3731 133.656 54.3731 133.656V133.823C54.3731 133.823 54.3092 133.753 53.704 133.823C53.5977 133.835 53.5143 133.843 53.4473 133.848L55.0422 135.496L49.9164 130.992C49.8593 131.01 49.8018 131.029 49.7441 131.047L54.3731 135.83L49.1342 131.227C48.9876 131.269 48.8374 131.299 48.6855 131.314C48.3085 131.328 55.0139 137.003 55.2006 137.161C55.0051 137.014 47.4476 131.31 47.18 130.979C46.9083 130.645 47.0127 129.306 47.0127 129.306C47.0127 129.306 46.0716 122.364 50.191 119.102C54.3105 115.84 59.5588 117.764 59.5588 117.764C59.5588 117.764 60.4578 116.593 60.8971 116.928C61.3364 117.262 61.8379 117.513 61.9008 118.099C61.9637 118.684 61.8379 118.642 62.068 118.935C62.2982 119.228 61.5662 119.437 61.5662 119.437C61.5662 119.437 62.189 120.731 62.7539 121.397L62.5699 121.612L60.2279 122.95L58.3878 122.113L55.5441 123.619L58.5551 122.448L60.2279 123.284L63.7409 121.612L63.6977 121.31C64.7086 120.65 66.6641 120.722 66.7519 120.441C66.8567 120.106 66.9192 120.106 66.9192 120.106C67.6236 120.391 68.3512 120.615 69.0939 120.775C69.8622 120.926 70.4766 121.985 70.7612 122.567C69.0626 123.592 68.592 124.623 68.592 124.623C68.8491 124.323 69.1288 124.043 69.4284 123.786C69.4284 123.786 70.8766 124.717 71.2685 125.961C71.6605 127.205 72.2985 129.861 72.7741 131.648C73.2497 133.436 74.0131 133.833 73.9451 134.66C73.877 135.486 74.9487 136.332 74.9487 136.332C74.9487 136.332 74.2222 135.004 74.4469 134.492C74.6716 133.98 73.3858 132.579 73.1086 131.481C72.8315 130.383 71.7548 126.348 71.6031 125.459C71.4673 124.663 70.3694 123.551 70.1416 123.327C70.3906 123.189 70.6643 123.049 70.9229 122.923L70.934 122.95C70.934 122.95 71.2501 122.773 71.7224 122.545C71.8549 122.485 71.9377 122.448 71.9377 122.448L71.9367 122.443C72.6839 122.079 73.4698 121.8 74.2796 121.612C75.3778 121.395 76.8067 121.522 77.9933 121.857C76.1955 106.547 75.9667 90.8377 75.9667 90.8377L75.9536 90.8339C75.9536 90.8339 75.686 73.1062 73.5615 56.9623C73.5217 55.0346 73.468 52.2063 73.4432 49.8476C73.4288 48.4776 73.4245 47.3582 73.4248 46.4734C73.9691 49.3632 74.4967 52.5365 74.9601 55.9548C77.1748 72.2927 77.4511 90.5697 77.4511 90.5697L77.4678 90.5729C77.4678 90.5729 77.7062 106.935 79.6072 122.535C79.7805 122.635 79.9428 122.737 80.0948 122.837C79.7163 117.716 79.1468 112.552 78.5493 107.911C78.3569 102.928 78.2454 98.1106 78.1858 94.9654C79.186 101.054 80.9269 112.665 81.6895 123.864C82.5808 124.075 84.8082 124.768 85.9898 126.63C84.9398 124.949 83.1153 124.056 82.1375 123.677C82.864 123.606 83.9135 123.56 84.6516 123.786C85.8855 124.163 88.2689 127.968 88.3318 128.805C88.3947 129.641 87.5579 131.021 86.9935 131.314C86.4542 131.561 85.9025 131.779 85.3406 131.969C84.8535 131.367 83.2496 129.363 81.9025 127.42C81.9046 127.462 81.9065 127.501 81.9087 127.543C83.4219 130.003 84.3644 131.461 84.8204 132.153C84.8518 132.217 86.0061 134.466 86.6585 134.994C87.3201 135.529 89.4261 136.675 90.3387 137.671C91.0831 138.482 91.7258 139.082 91.9374 139.276C92.0868 140.469 92.3193 142.169 92.6806 144.529C86.6441 143.542 81.4727 146.871 81.4727 146.871L76.1197 138.172C76.1197 138.172 80.9853 146.98 81.4727 147.373C87.222 144.394 90.9497 144.723 92.7029 144.964L92.8479 146.704C92.8469 146.702 92.8039 146.697 91.8442 146.704C90.8062 146.71 88.0501 148.718 87.6622 149.715C87.2742 150.712 91.1751 157.744 91.1751 157.744C91.1751 157.744 87.9236 150.802 88.164 149.882C88.4044 148.962 91.1767 147.423 92.0115 147.206C92.2443 147.139 92.4905 147.135 92.7254 147.194C92.9602 147.253 93.1756 147.372 93.3497 147.54L93.1825 145.031C92.7872 143.443 92.0237 138.924 91.7652 137.369C91.6057 136.079 91.414 134.509 91.3424 133.823C91.2094 132.56 92.9809 131.113 93.8516 133.489C94.4859 135.219 95.5314 139.559 96.1142 142.383L98.7832 133.93C98.5103 133.317 98.3689 132.654 98.3682 131.983C98.3682 131.983 98.6191 131.732 99.5392 131.983C99.5242 132.457 99.608 132.929 99.7852 133.369L100.746 131.536C100.723 131.501 100.71 131.481 100.71 131.481L100.797 131.437L100.815 131.404L100.839 131.417L101.714 130.979C101.714 130.979 104.139 134.743 101.212 135.161C100.753 135.243 100.28 135.193 99.8488 135.017L99.635 135.416C100.112 135.652 100.551 135.957 100.938 136.322C101.5 136.88 101.856 137.758 101.042 137.748C100.868 137.739 100.7 137.689 100.55 137.6C100.145 138.684 99.0448 141.564 98.2009 143.191C97.8807 143.797 97.6224 144.433 97.4299 145.091L99.5392 144.529L99.7064 145.7C99.7064 145.7 101.871 147.615 102.048 149.38C103.174 149.974 103.219 150.049 103.219 150.049C103.219 150.049 104.156 150.182 103.554 151.388C104.319 152.386 104.093 152.861 103.838 153.074C103.7 153.112 103.296 153.248 103.219 153.562C103.127 153.942 103.396 157.239 103.387 157.912C103.504 155.949 103.396 154.73 103.554 154.231C103.593 154.103 103.669 153.989 103.773 153.904C103.96 154.247 104.166 154.58 104.39 154.901C105.404 156.386 105.561 157.243 105.561 157.243L105.227 157.41C105.227 157.41 105.049 157.987 105.394 158.246C105.739 158.506 106.555 158.935 106.565 160.755C106.575 162.575 107.334 164.121 107.569 165.105C107.803 166.088 108.395 167.634 108.74 168.45C109.085 169.267 109.789 169.586 109.743 169.789C109.699 170.078 109.758 170.375 109.911 170.625C110.088 170.94 110.68 171.259 111.082 171.963C111.483 172.668 112.242 173.099 112.42 173.469C112.598 173.839 113.079 174.158 113.424 174.305C113.454 174.319 113.492 174.332 113.533 174.345L114.762 178.989C114.679 180.217 114.141 181.37 113.253 182.221C112.832 182.57 112.386 182.888 111.918 183.171C112.407 182.922 112.857 182.602 113.253 182.221C114.757 180.971 115.264 179.826 115.264 179.826L114.537 174.595C114.671 174.623 114.762 174.64 114.762 174.64C114.762 174.64 114.584 171.761 115.264 171.796C115.943 171.831 116.267 174.807 116.267 174.807C116.34 175.372 116.452 175.931 116.602 176.48C116.891 177.631 116.769 180.997 116.769 180.997C116.769 180.997 119.156 191.166 119.278 191.87C119.4 192.574 119.661 192.775 119.78 193.041C119.935 193.411 119.992 193.814 119.948 194.212V194.212ZM52.8675 132.987C52.6819 132.49 52.3263 132.075 51.8639 131.816C51.8639 131.816 51.9395 131.774 51.5293 131.481C51.1191 131.189 51.1867 130.491 50.8602 130.645C50.7867 130.679 50.6536 130.732 50.4901 130.792L53.0258 133.412C52.9836 133.302 52.932 133.164 52.8675 132.987ZM101.379 133.489C101.446 133.188 101.352 132.809 101.217 132.461L100.397 133.994C100.495 134.028 100.598 134.042 100.701 134.035C100.804 134.027 100.905 133.999 100.997 133.952C101.088 133.905 101.17 133.839 101.236 133.76C101.301 133.68 101.35 133.588 101.379 133.489V133.489ZM79.2981 157.075C79.2981 157.075 77.4653 157.36 77.458 157.577C77.4506 157.795 78.1271 159.417 78.1271 159.417L79.6326 158.246L79.2981 157.075ZM80.3018 177.316C80.2318 177.261 80.1535 177.199 80.0714 177.137C79.9172 177.385 79.7643 177.622 79.6326 177.818C79.1218 178.574 76.1286 182.36 77.1234 183.506C78.1182 184.652 80.1433 182.025 80.3018 179.993C80.3525 179.188 80.4732 178.388 80.6624 177.604C80.5348 177.504 80.415 177.407 80.3018 177.316ZM85.1529 163.767C83.0944 164.054 81.9978 162.922 81.64 161.759C81.2961 160.643 81.4818 159.245 84.4423 157.759C84.5671 157.784 84.696 157.779 84.8184 157.744C84.9315 157.719 85.0376 157.669 85.1289 157.597C85.2202 157.526 85.2943 157.435 85.346 157.331C86.5949 156.747 87.1131 156.505 87.3085 156.415L87.3276 156.406C87.3276 156.406 87.5359 156.309 87.3085 156.415C87.1872 156.465 86.4484 156.778 85.393 157.207C85.7038 156.169 84.3177 154.078 83.982 153.562C83.982 153.562 85.3895 156.301 85.1529 156.908C84.9164 157.515 84.1906 157.611 83.6474 156.573C82.9649 155.27 82.9783 155.235 82.9783 155.235L82.4764 153.73C82.4764 153.73 83.0117 157.089 84.2182 157.684C82.7156 158.3 80.3981 159.395 81.1382 161.926C81.8889 164.494 84.312 164.344 85.3202 164.101C85.8207 163.981 91.3792 161.632 94.3482 160.371C95.4523 159.906 96.1935 159.584 96.1935 159.584C96.1935 159.584 95.4483 159.902 94.3482 160.371C91.6065 161.523 86.6207 163.561 85.1529 163.767ZM98.7028 140.682C99.3331 139.287 99.8309 137.988 100.098 137.263C99.7109 136.891 99.3956 136.449 99.1685 135.962L96.411 143.919C96.4684 144.246 96.509 144.512 96.5281 144.696C96.5794 144.748 96.6248 144.793 96.6663 144.834C97.309 143.443 98.2703 141.639 98.7028 140.682ZM116.267 182.335C115.418 184.561 112.754 185.179 112.754 185.179C115.933 184.744 116.1 184.008 116.1 184.008L116.936 187.521C116.936 187.521 115.745 189.208 112.587 188.524C115.552 189.245 117.438 187.855 117.438 187.855C117.438 187.855 116.447 184.223 116.267 182.335ZM69.4284 123.786C69.4894 123.735 69.5531 123.687 69.6193 123.643L69.4284 123.786ZM73.0477 44.5239L72.9414 52.1896L73.0585 53.4129C73.025 53.1931 72.9929 52.9693 72.9593 52.7517C73.0089 53.8915 73.0702 55.0576 73.1433 56.25C73.479 61.6544 74.0565 67.2028 74.6823 72.2226L75.5259 88.373C74.6058 82.9495 72.4357 69.2721 71.6371 56.4103C71.3391 51.6133 71.2515 47.2349 71.2757 43.4304C70.1772 38.1327 69.0857 34.0626 68.3757 31.6186C67.8828 29.9219 69.3931 29.6949 69.9034 31.457C70.3115 32.8675 70.8401 34.7998 71.4226 37.1781C71.6536 31.5908 72.0678 28.289 72.0678 28.289L73.5745 28.1288C73.5745 28.1288 72.8452 33.9517 72.7829 43.2119C72.8703 43.6405 72.9591 44.0793 73.0477 44.5239ZM100.208 186.182C102.13 185.538 102.211 182.991 101.864 181.435C102.984 182.191 104.419 183.241 104.892 184.509C105.355 185.751 104.67 188.143 102.383 188.524C100.875 188.775 96.5177 187.763 95.1898 186.684C94.622 186.227 94.258 185.564 94.1771 184.839C95.2997 185.468 97.4291 187.112 100.208 186.182ZM107.88 190.935C108.047 191.602 108.279 192.251 108.572 192.874C109.396 194.525 110.927 196.219 114.595 196.219C115.125 196.219 117.038 196.055 117.885 195.152C118.12 196.281 118.081 197.45 117.773 198.561C117.616 199.098 115.029 199.473 113.591 199.565C112.152 199.657 106.889 195.236 106.063 193.877C105.417 192.815 107.111 191.472 107.88 190.935Z" fill="white"/>
<path fill-rule="evenodd" clip-rule="evenodd" d="M113.142 101.108C109.623 103.666 105.321 107.45 105.013 109.341C104.968 109.62 104.855 109.778 104.699 109.847C104.446 110.376 104.086 110.847 103.641 111.229C103.006 111.763 102.234 112.109 101.412 112.226C99.9595 112.454 98.7691 112.071 97.8414 111.077C96.9136 110.083 96.2724 108.456 95.9176 106.196L95.5329 103.747C94.4161 104.125 93.9867 105.139 94.2448 106.789C94.3554 107.473 94.5663 108.136 94.8708 108.758C95.1491 109.358 95.5287 109.904 95.9927 110.374L92.2876 112.94C91.5755 112.08 91.0009 111.115 90.5842 110.079C90.1085 108.959 89.7714 107.785 89.5805 106.583C89.1751 104 89.444 101.936 90.3873 100.391C91.3305 98.8467 93.0039 97.8858 95.4074 97.5087L103.318 96.2678L104.205 101.918L102.267 102.222C102.981 102.424 103.614 102.844 104.078 103.422C104.214 103.66 104.895 104.911 105.057 106.221C105.271 105.348 105.263 104.213 105.206 103.321C105.758 103.022 106.382 102.712 107.091 102.391C113.288 99.5964 118.191 96.8287 119.757 90.9345C120.094 88.3273 119.568 86.6147 119.568 86.6147C119.568 86.6147 119.892 85.9352 120.513 86.0513C121.134 86.1673 121.565 88.483 120.702 91.8737C120.272 93.501 119.511 95.0221 118.466 96.3418C122.072 94.0254 130.774 86.8015 133.849 69.6486C134.458 68.4848 135 68.7863 135 68.7863C135 68.7863 131.79 93.5022 113.142 101.108ZM101.183 104.791C101.124 104.377 100.939 103.993 100.652 103.689C100.338 103.37 99.9277 103.163 99.4846 103.1L98.4621 103.26L98.6985 104.767C98.8928 106.005 99.4024 106.559 100.227 106.43C100.389 106.407 100.544 106.349 100.681 106.258C100.817 106.167 100.931 106.047 101.014 105.906C101.205 105.568 101.265 105.171 101.183 104.791V104.791ZM104.688 77.7477L100.201 76.384C100.39 76.0312 100.526 75.6522 100.603 75.2594C100.685 74.8814 100.699 74.4918 100.643 74.109C100.539 73.4457 100.263 72.9744 99.815 72.6951L85.8804 81.2222L84.9009 74.9799L92.3075 70.7027L83.9384 68.8458L83.0351 63.0878L84.4126 63.407C83.7632 62.5857 83.2337 61.6762 82.8402 60.7059C82.3645 59.5857 82.0274 58.4116 81.8365 57.2097C81.4315 54.6268 81.7005 52.563 82.6436 51.0184C83.468 49.6684 84.8504 48.7642 86.7907 48.306C86.6828 51.1304 86.7191 53.6356 86.7641 55.1595C86.4369 55.6903 86.3491 56.4424 86.5007 57.4158C86.6112 58.0995 86.8221 58.7632 87.1266 59.3852C87.4049 59.9844 87.7844 60.5311 88.2486 61.0012L84.6843 63.4697L98.9981 66.7861C101.038 67.2565 102.534 68.0051 103.486 69.032C104.437 70.0589 105.044 71.4065 105.305 73.0747C105.435 73.9178 105.444 74.775 105.333 75.6206C105.261 76.3654 105.042 77.0885 104.688 77.7477V77.7477ZM89.9097 36.7414C90.484 39.9806 90.8495 43.2534 91.0039 46.5395C90.1536 47.6713 88.6648 48.1747 88.6648 48.1747L92.4823 47.3794L95.5742 46.8943L96.4608 52.5446L94.5237 52.8485C96.1042 53.3169 97.0578 54.5917 97.3842 56.6729C97.5672 57.8392 97.5209 58.8619 97.2452 59.741C97.0176 60.5523 96.5575 61.2792 95.9217 61.8321C95.2858 62.3851 94.5021 62.7397 93.667 62.8525C92.214 63.0804 91.0236 62.6974 90.0957 61.7036C89.1679 60.7097 88.5266 59.0826 88.172 56.8223L87.9468 55.3872C87.8415 53.5094 87.8461 51.627 87.9605 49.7498L87.945 49.7376C87.945 49.7376 89.3823 33.0549 81.0973 14.3555C78.7572 13.4855 76.2634 13.1052 73.7704 13.238C73.1999 13.3718 73.7704 12.6109 73.7704 12.6109C73.7704 12.6109 76.7358 12.2312 80.7161 13.5085C78.6815 9.04917 76.2155 4.79955 73.3535 0.820363C72.9584 -0.529434 74.1874 0.193222 74.1874 0.193222C74.1874 0.193222 78.3738 5.42312 82.5787 14.2062C85.273 15.3643 88.2578 17.3164 91.0345 20.582C92.8313 15.732 95.5255 10.7291 99.4106 8.42984C100.086 8.49174 99.8275 9.26625 99.8275 9.26625C99.8275 9.26625 91.3947 13.0055 89.9097 36.7414ZM90.9529 55.3934C91.1469 56.6312 91.6566 57.1853 92.4818 57.0556C92.6439 57.0335 92.7988 56.9749 92.935 56.8843C93.0711 56.7937 93.185 56.6735 93.268 56.5326C93.4592 56.194 93.5195 55.797 93.4377 55.4169C93.3785 55.0036 93.1929 54.6186 92.9064 54.3149C92.5921 53.9963 92.182 53.7894 91.7389 53.7261L90.7165 53.8865L90.9529 55.3934ZM83.068 15.2457C85.2698 19.9781 87.0553 24.8932 88.4043 29.9354C88.93 27.3534 89.6064 24.8044 90.4301 22.3015C89.3921 20.5787 87.0463 17.353 83.068 15.2454V15.2457ZM79.611 33.7136C80.5622 34.7408 81.1687 36.0883 81.4307 37.7563C81.5603 38.5994 81.5695 39.4566 81.458 40.3022C81.3862 41.0471 81.167 41.7703 80.8131 42.4297L76.3259 41.066C76.5152 40.7133 76.6509 40.3343 76.7284 39.9415C76.8105 39.5636 76.8241 39.1739 76.7685 38.7911C76.6645 38.1277 76.3884 37.6564 75.9402 37.3771L62.0056 45.9041L61.0262 39.6618L68.4329 35.3846L60.0638 33.5278L59.1605 27.7698L75.1242 31.4684C77.1639 31.9383 78.6595 32.6868 79.611 33.7136ZM71.2006 60.0759C69.9844 60.2012 68.7564 60.0156 67.6316 59.5366C66.3587 58.99 65.2611 58.1032 64.4591 56.9737C63.6315 55.772 63.0781 54.4032 62.8381 52.9641C62.598 51.5249 62.6771 50.0506 63.0698 48.6454C63.453 47.349 64.199 46.1893 65.2197 45.3031C66.2539 44.3967 67.5691 43.8181 69.1654 43.5675C69.2546 43.5537 69.7256 43.5069 70.5783 43.427C70.5545 44.5025 70.5438 47.1407 70.7665 52.3562C70.8774 54.977 71.039 57.6835 71.2006 60.0759ZM68.5492 49.4818C68.0062 49.6657 67.5428 50.0303 67.2363 50.5148C66.9462 51.0101 66.8467 51.5942 66.9565 52.1576C67.0239 52.7255 67.2921 53.2505 67.7126 53.6381C68.1544 54.0112 68.7138 54.2163 69.2921 54.2172L68.5492 49.4818ZM81.8313 76.152L67.1135 78.4605L66.206 72.6756L67.6589 72.4476C67.0029 71.9726 66.456 71.3628 66.055 70.6592C65.6401 69.9221 65.364 69.115 65.2405 68.2782C64.9562 66.4666 65.2747 64.9233 66.1958 63.6484C67.117 62.3735 68.6808 61.563 70.8871 61.2169L71.275 61.156C71.5 64.3802 71.7079 66.8495 71.7585 67.4392C70.8774 67.8158 70.5059 68.447 70.6439 69.3328C70.6818 69.6459 70.7888 69.9466 70.957 70.2134C71.1252 70.4802 71.3505 70.7064 71.6166 70.8756C72.1583 71.2228 72.9402 71.3161 73.9624 71.1555L80.8775 70.0707L81.8313 76.152ZM73.7767 44.9796L74.6114 43.8444C76.4153 45.0321 77.5408 47.0519 77.988 49.9037C78.2668 51.6793 78.1842 53.2912 77.7403 54.7395C77.4092 55.868 76.823 56.9052 76.0272 57.7711C75.4035 51.6166 74.4264 47.3369 73.7767 44.9796ZM80.2346 65.9818L76.8485 66.5131C76.7227 65.1986 76.5394 63.2521 76.2722 60.373L79.2803 59.9011L80.2346 65.9818ZM70.7384 79.9247C70.7655 79.9005 70.7904 79.8745 70.8178 79.8506C71.8971 78.9506 73.2003 78.3603 74.5886 78.1425C75.9769 77.9247 77.3983 78.0876 78.7013 78.6139C79.9885 79.1716 81.0949 80.0768 81.8964 81.228C82.7599 82.5077 83.3315 83.9615 83.5708 85.4866C83.8101 87.0117 83.7111 88.5707 83.281 90.0533C82.8688 91.3968 82.0942 92.6007 81.0424 93.5328C80.2914 94.1929 79.4085 94.6858 78.4524 94.9786L78.161 88.2766C78.2244 88.216 78.2844 88.1519 78.3407 88.0846C78.5476 87.8294 78.6987 87.5337 78.7841 87.2164C78.8695 86.8992 78.8872 86.5675 78.8362 86.243C78.7853 85.9184 78.6667 85.6082 78.4881 85.3324C78.3096 85.0566 78.0751 84.8214 77.7998 84.6421C77.2184 84.2741 76.4702 84.1617 75.5552 84.305C74.6403 84.4483 73.967 84.7837 73.5352 85.311C73.332 85.5678 73.1842 85.8639 73.101 86.1806C73.0179 86.4973 73.0011 86.8278 73.0519 87.1512C73.1026 87.4747 73.2198 87.7842 73.3959 88.0602C73.5721 88.3362 73.8035 88.5728 74.0755 88.755C74.3579 88.9335 74.6737 89.0526 75.0036 89.1053L75.2735 95.3187C74.5442 95.2481 73.8304 95.0634 73.1584 94.7712C71.8737 94.2073 70.7715 93.2967 69.9752 92.1415C69.0986 90.8745 68.5305 89.42 68.3165 87.8942C68.289 87.7199 68.2663 87.5473 68.247 87.3756C68.2526 87.3064 68.2564 87.2333 68.2564 87.152C68.2564 85.0094 69.0928 82.4681 69.0928 82.4681L67.0928 85.7622C61.2379 84.7133 46.4616 81.2026 37.5375 71.4407C17.2479 49.2453 0.184442 48.5427 0.184442 48.5427C0.184442 48.5427 -0.453236 47.0846 0.642794 47.6268C1.73882 48.169 19.6922 50.0524 38.6827 68.6921C42.4943 72.4332 46.11 75.099 49.4476 76.9806C48.4753 74.3375 47.0361 69.7072 46.9636 65.2948C46.9357 64.1025 46.7596 62.9183 46.4392 61.7695C44.5934 59.5818 38.9282 54.4029 26.308 53.809C25.5325 53.4353 26.2433 52.8089 26.5372 52.8932C26.8311 52.9775 26.7664 52.8932 26.7664 52.8932C26.7664 52.8932 37.3136 53.6638 45.1096 58.2843C43.2426 54.4624 40.5731 51.6628 40.0955 51.2677C39.3551 50.6549 40.3759 50.1456 40.3759 50.1456C40.3759 50.1456 48.2647 57.4912 48.5058 65.1544C48.6682 70.3264 51.5466 75.8605 53.4021 78.9155C63.5188 83.1123 70.2805 80.1367 70.7384 79.9247ZM76.5558 115.437L68.8839 116.641L67.8884 110.291L74.5613 109.244L73.6412 103.378L66.9683 104.425L65.9713 98.0748L75.3157 96.6094C75.4775 99.5218 76.2006 112.308 76.5558 115.437ZM85.8021 101.471L80.022 102.377C80.0033 102.265 79.9847 102.151 79.9661 102.04C79.5046 99.2702 78.9511 96.9622 78.7282 96.0743L84.8059 95.1208L85.8021 101.471ZM87.7185 113.686L81.7895 114.616C81.7109 114.008 81.3673 111.369 80.9196 108.247L86.7243 107.336L87.7185 113.686ZM92.8604 89.4317C93.402 89.7788 94.184 89.8721 95.2062 89.7115L102.121 88.6267L103.075 94.7076L88.357 97.0161L87.4495 91.2313L88.9023 91.0033C88.2464 90.5282 87.6997 89.9185 87.2986 89.2149C86.8835 88.4778 86.6074 87.6707 86.4839 86.8338C86.1997 85.0224 86.5181 83.4791 87.4393 82.2041C88.3604 80.9291 89.9242 80.1186 92.1305 79.7727L100.525 78.4557L101.479 84.5365L94.1349 85.6891C92.449 85.9535 91.7003 86.6866 91.8886 87.8885C91.9264 88.2016 92.0332 88.5023 92.2012 88.7691C92.3693 89.036 92.5944 89.2622 92.8604 89.4315V89.4317ZM90.1145 114.191L94.33 117.693C93.1347 119.093 92.665 120.61 92.9209 122.242C93.1404 123.641 93.7364 124.687 94.709 125.38C95.6816 126.073 96.8943 126.306 98.3471 126.078C99.7643 125.855 100.839 125.269 101.572 124.317C102.305 123.366 102.565 122.209 102.351 120.846C102.229 120.051 101.95 119.289 101.531 118.604L96.7686 119.351L95.9034 113.835L103.868 112.586C104.858 113.643 105.663 114.859 106.251 116.182C106.876 117.528 107.313 118.953 107.55 120.417C107.865 122.426 107.731 124.294 107.147 126.021C106.598 127.698 105.59 129.188 104.238 130.323C102.826 131.457 101.141 132.201 99.3524 132.482C97.5633 132.762 95.7319 132.57 94.0404 131.923C92.397 131.249 90.9779 130.124 89.9475 128.678C88.8586 127.185 88.1538 125.417 87.8331 123.372C87.5431 121.524 87.593 119.821 87.9826 118.262C88.3471 116.75 89.0794 115.352 90.1145 114.191Z" fill="#FD5D1F"/>
</svg>
