<svg width="352" height="138" viewBox="0 0 352 138" fill="none" xmlns="http://www.w3.org/2000/svg">
<path d="M223.984 84.4392L230.041 81.2629L238.017 37.5609L231.959 40.7371L223.984 84.4392ZM249.836 71.4476C254.682 68.9065 255.961 63.3808 253.592 58.8641C251.154 54.2146 246.018 52.1654 241.127 54.7299C236.192 57.318 234.98 62.7524 237.371 67.3134C239.786 71.9187 244.99 73.9886 249.836 71.4476ZM247.327 66.5531C245.846 67.3295 243.89 66.4357 242.869 64.4873C241.777 62.4061 242.021 60.4714 243.637 59.6244C245.162 58.8245 247.05 59.6976 248.095 61.6902C249.163 63.7272 248.853 65.7531 247.327 66.5531ZM220.873 67.2701C225.719 64.7291 227.021 59.2476 224.629 54.6866C222.214 50.0814 217.055 47.9879 212.164 50.5525C207.229 53.1406 206.017 58.575 208.408 63.1359C210.846 67.7855 216.027 69.8111 220.873 67.2701ZM218.364 62.3756C216.883 63.152 214.95 62.3025 213.906 60.3098C212.837 58.2729 213.103 56.2704 214.674 55.447C216.199 54.647 218.11 55.5644 219.132 57.5128C220.2 59.5497 219.889 61.5757 218.364 62.3756Z" fill="#FD5D1F"/>
<mask id="mask0_41_2641" style="mask-type:alpha" maskUnits="userSpaceOnUse" x="247" y="0" width="105" height="138">
<rect x="247" width="105" height="138" fill="#C4C4C4"/>
</mask>
<g mask="url(#mask0_41_2641)">
<g filter="url(#filter0_f_41_2641)">
<path d="M309.133 134.739L322.539 127.709L340.189 30.9895L326.784 38.0191L309.133 134.739ZM366.348 105.986C377.073 100.363 379.903 88.1334 374.661 78.1371C369.265 67.8469 357.898 63.3118 347.074 68.9875C336.151 74.7154 333.468 86.7426 338.761 96.8368C344.106 107.029 355.624 111.61 366.348 105.986ZM360.795 95.1541C357.518 96.8725 353.189 94.8943 350.928 90.5822C348.512 85.9761 349.053 81.6944 352.627 79.8199C356.004 78.0494 360.182 79.9817 362.495 84.3918C364.859 88.8999 364.171 93.3837 360.795 95.1541ZM302.248 96.741C312.973 91.1173 315.854 78.9859 310.561 68.8917C305.216 58.6995 293.798 54.0663 282.974 59.7421C272.05 65.4699 269.368 77.4972 274.661 87.5914C280.057 97.8816 291.524 102.365 302.248 96.741ZM296.695 85.9087C293.418 87.627 289.14 85.7468 286.827 81.3367C284.464 76.8286 285.052 72.3969 288.527 70.5744C291.904 68.804 296.133 70.8343 298.395 75.1464C300.758 79.6545 300.071 84.1383 296.695 85.9087Z" fill="#FD5D1F"/>
</g>
</g>
<path d="M224.979 135.915H229.543L247.798 112.561H243.234L224.979 135.915ZM244.282 136.249C247.933 136.249 250.401 133.379 250.401 129.976C250.401 126.473 248.001 123.671 244.316 123.671C240.597 123.671 238.197 126.507 238.197 129.943C238.197 133.413 240.631 136.249 244.282 136.249ZM244.316 132.579C243.201 132.579 242.322 131.444 242.322 129.976C242.322 128.408 243.065 127.341 244.282 127.341C245.432 127.341 246.277 128.442 246.277 129.943C246.277 131.478 245.466 132.579 244.316 132.579ZM228.461 124.805C232.112 124.805 234.58 121.969 234.58 118.533C234.58 115.063 232.18 112.227 228.495 112.227C224.776 112.227 222.376 115.063 222.376 118.499C222.376 122.003 224.81 124.805 228.461 124.805ZM228.495 121.135C227.379 121.135 226.5 120.034 226.5 118.533C226.5 116.998 227.278 115.897 228.461 115.897C229.61 115.897 230.456 117.031 230.456 118.499C230.456 120.034 229.644 121.135 228.495 121.135Z" fill="#FD5D1F"/>
<path d="M1.38061 69.7402L3.53714 71.7255L22.6991 68.2226L20.5425 66.2372L1.38061 69.7402ZM10.3514 78.3009C12.0766 79.8892 14.5372 79.5567 16.0724 77.8891C17.6527 76.1725 17.7829 73.755 16.0417 72.152C14.2845 70.5343 11.871 70.8799 10.3207 72.5638C8.75539 74.2641 8.62619 76.7126 10.3514 78.3009ZM12.023 76.5172C11.4959 76.0319 11.5923 75.0937 12.2545 74.3743C12.9619 73.6059 13.795 73.4063 14.3701 73.9357C14.9132 74.4357 14.8159 75.3429 14.1386 76.0786C13.4462 76.8307 12.5661 77.0172 12.023 76.5172ZM8.038 65.8107C9.76322 67.399 12.2087 67.0828 13.759 65.3989C15.3243 63.6986 15.4695 61.2648 13.7283 59.6618C11.9711 58.0441 9.55756 58.3897 8.00729 60.0736C6.42692 61.7903 6.31277 64.2224 8.038 65.8107ZM9.7096 64.027C9.18245 63.5417 9.2638 62.6198 9.94111 61.8841C10.6335 61.1321 11.4976 60.9308 12.0567 61.4455C12.5998 61.9455 12.4874 62.869 11.8251 63.5884C11.1328 64.3404 10.2527 64.527 9.7096 64.027Z" fill="#FD5D1F"/>
<path d="M169.923 74.4742L168.173 76.8262L173.658 95.5177L175.407 93.1657L169.923 74.4742ZM162.345 84.2896C160.946 86.1712 161.533 88.5836 163.352 89.9363C165.224 91.3289 167.642 91.2059 169.055 89.3069C170.48 87.3905 169.884 85.0262 168.048 83.6602C166.193 82.2809 163.745 82.408 162.345 84.2896ZM164.294 85.7659C164.721 85.191 165.665 85.1889 166.449 85.7724C167.287 86.3958 167.573 87.2034 167.106 87.8306C166.666 88.423 165.753 88.4209 164.951 87.8241C164.131 87.214 163.853 86.3582 164.294 85.7659ZM174.526 80.685C173.126 82.5666 173.696 84.9657 175.533 86.3317C177.387 87.711 179.823 87.6013 181.235 85.7023C182.661 83.7858 182.065 81.4215 180.228 80.0555C178.356 78.663 175.925 78.8034 174.526 80.685ZM176.474 82.1612C176.902 81.5863 177.827 81.571 178.63 82.1678C179.45 82.7778 179.74 83.6162 179.287 84.226C178.846 84.8183 177.916 84.803 177.131 84.2194C176.311 83.6094 176.034 82.7536 176.474 82.1612Z" fill="#FD5D1F"/>
<path d="M122.868 136.102L126.847 133.867L131.33 104.565L127.35 106.8L122.868 136.102ZM139.863 126.941C143.046 125.154 143.793 121.443 142.127 118.476C140.411 115.422 136.946 114.153 133.733 115.957C130.491 117.778 129.787 121.426 131.469 124.422C133.168 127.448 136.679 128.729 139.863 126.941ZM138.095 123.725C137.122 124.271 135.801 123.712 135.082 122.432C134.314 121.065 134.44 119.77 135.501 119.174C136.503 118.611 137.779 119.157 138.514 120.466C139.266 121.805 139.097 123.162 138.095 123.725ZM120.464 124.71C123.648 122.922 124.411 119.241 122.729 116.245C121.03 113.219 117.548 111.922 114.335 113.726C111.093 115.547 110.389 119.195 112.071 122.191C113.786 125.245 117.281 126.497 120.464 124.71ZM118.697 121.493C117.724 122.039 116.419 121.51 115.684 120.201C114.932 118.862 115.071 117.522 116.103 116.942C117.105 116.38 118.397 116.955 119.116 118.235C119.867 119.573 119.699 120.93 118.697 121.493Z" fill="#FD5D1F"/>
<defs>
<filter id="filter0_f_41_2641" x="268.036" y="26.9895" width="113.184" height="111.75" filterUnits="userSpaceOnUse" color-interpolation-filters="sRGB">
<feFlood flood-opacity="0" result="BackgroundImageFix"/>
<feBlend mode="normal" in="SourceGraphic" in2="BackgroundImageFix" result="shape"/>
<feGaussianBlur stdDeviation="2" result="effect1_foregroundBlur_41_2641"/>
</filter>
</defs>
</svg>
