<svg width="58" height="59" viewBox="0 0 58 59" fill="none" xmlns="http://www.w3.org/2000/svg">
<path d="M37.3271 4.27933C41.3533 5.36214 45.0243 7.48386 47.9724 10.432C50.9205 13.3801 53.0422 17.0511 54.125 21.0773M34.8676 13.4581C37.2833 14.1078 39.4859 15.3808 41.2548 17.1497C43.0237 18.9186 44.2967 21.1212 44.9464 23.5369M17.4539 29.4586C19.9175 34.4952 24.0001 38.5592 29.0479 40.9999C29.4172 41.1749 29.8257 41.2507 30.2332 41.2199C30.6407 41.189 31.0332 41.0526 31.372 40.824L38.8045 35.8679C39.1332 35.6487 39.5114 35.515 39.9048 35.4788C40.2983 35.4427 40.6945 35.5053 41.0576 35.6609L54.9624 41.6201C55.4347 41.8207 55.8291 42.1694 56.086 42.6137C56.343 43.0579 56.4485 43.5737 56.3869 44.0831C55.9474 47.5222 54.2695 50.6831 51.6672 52.974C49.065 55.265 45.717 56.5289 42.25 56.529C31.5419 56.529 21.2723 52.2753 13.7006 44.7035C6.12878 37.1317 1.875 26.8622 1.875 16.154C1.87518 12.6871 3.13907 9.33901 5.43002 6.7368C7.72097 4.13458 10.8819 2.45664 14.3209 2.01715C14.8304 1.95549 15.3461 2.06108 15.7903 2.31801C16.2346 2.57493 16.5833 2.96928 16.784 3.44162L22.7483 17.3585C22.9026 17.7185 22.9655 18.111 22.9313 18.5011C22.8972 18.8913 22.7671 19.2669 22.5526 19.5946L17.6137 27.1411C17.3889 27.4806 17.256 27.8726 17.228 28.2788C17.2 28.685 17.2778 29.0915 17.4539 29.4586Z" stroke="#636363" stroke-width="3" stroke-linecap="round" stroke-linejoin="round"/>
</svg>
