<svg width="50" height="59" viewBox="0 0 50 59" fill="none" xmlns="http://www.w3.org/2000/svg">
<path d="M11.2 11.1667V9.66667C10.3716 9.66667 9.7 10.3382 9.7 11.1667H11.2ZM38.8 11.1667H40.3C40.3 10.3382 39.6284 9.66667 38.8 9.66667V11.1667ZM38.8 24.9167V26.4167C39.6284 26.4167 40.3 25.7451 40.3 24.9167H38.8ZM11.2 24.9167H9.7C9.7 25.7451 10.3716 26.4167 11.2 26.4167V24.9167ZM11.2 12.6667H38.8V9.66667H11.2V12.6667ZM37.3 11.1667V24.9167H40.3V11.1667H37.3ZM38.8 23.4167H11.2V26.4167H38.8V23.4167ZM12.7 24.9167V11.1667H9.7V24.9167H12.7ZM46.5 4.29167V54.7083H49.5V4.29167H46.5ZM46.5 54.7083C46.5 55.1404 46.147 55.5 45.7 55.5V58.5C47.7935 58.5 49.5 56.8075 49.5 54.7083H46.5ZM45.7 55.5H4.3V58.5H45.7V55.5ZM4.3 55.5C3.85304 55.5 3.5 55.1404 3.5 54.7083H0.5C0.5 56.8075 2.20646 58.5 4.3 58.5V55.5ZM3.5 54.7083V4.29167H0.5V54.7083H3.5ZM3.5 4.29167C3.5 3.85957 3.85303 3.5 4.3 3.5V0.5C2.20646 0.5 0.5 2.19246 0.5 4.29167H3.5ZM4.3 3.5H45.7V0.5H4.3V3.5ZM45.7 3.5C46.147 3.5 46.5 3.85957 46.5 4.29167H49.5C49.5 2.19246 47.7935 0.5 45.7 0.5V3.5ZM15.45 35.2292C15.45 36.2941 14.5821 37.1667 13.5 37.1667V40.1667C16.2287 40.1667 18.45 37.9612 18.45 35.2292H15.45ZM13.5 37.1667C12.4179 37.1667 11.55 36.2941 11.55 35.2292H8.55C8.55 37.9612 10.7713 40.1667 13.5 40.1667V37.1667ZM11.55 35.2292C11.55 34.1642 12.4179 33.2917 13.5 33.2917V30.2917C10.7713 30.2917 8.55 32.4971 8.55 35.2292H11.55ZM13.5 33.2917C14.5821 33.2917 15.45 34.1642 15.45 35.2292H18.45C18.45 32.4971 16.2287 30.2917 13.5 30.2917V33.2917ZM26.95 35.2292C26.95 36.2941 26.0821 37.1667 25 37.1667V40.1667C27.7287 40.1667 29.95 37.9612 29.95 35.2292H26.95ZM25 37.1667C23.9179 37.1667 23.05 36.2941 23.05 35.2292H20.05C20.05 37.9612 22.2713 40.1667 25 40.1667V37.1667ZM23.05 35.2292C23.05 34.1642 23.9179 33.2917 25 33.2917V30.2917C22.2713 30.2917 20.05 32.4971 20.05 35.2292H23.05ZM25 33.2917C26.0821 33.2917 26.95 34.1642 26.95 35.2292H29.95C29.95 32.4971 27.7287 30.2917 25 30.2917V33.2917ZM38.45 35.2292C38.45 36.2941 37.5821 37.1667 36.5 37.1667V40.1667C39.2287 40.1667 41.45 37.9612 41.45 35.2292H38.45ZM36.5 37.1667C35.4179 37.1667 34.55 36.2941 34.55 35.2292H31.55C31.55 37.9612 33.7713 40.1667 36.5 40.1667V37.1667ZM34.55 35.2292C34.55 34.1642 35.4179 33.2917 36.5 33.2917V30.2917C33.7713 30.2917 31.55 32.4971 31.55 35.2292H34.55ZM36.5 33.2917C37.5821 33.2917 38.45 34.1642 38.45 35.2292H41.45C41.45 32.4971 39.2287 30.2917 36.5 30.2917V33.2917ZM15.45 46.6875C15.45 47.7524 14.5821 48.625 13.5 48.625V51.625C16.2287 51.625 18.45 49.4195 18.45 46.6875H15.45ZM13.5 48.625C12.4179 48.625 11.55 47.7524 11.55 46.6875H8.55C8.55 49.4195 10.7713 51.625 13.5 51.625V48.625ZM11.55 46.6875C11.55 45.6226 12.4179 44.75 13.5 44.75V41.75C10.7713 41.75 8.55 43.9555 8.55 46.6875H11.55ZM13.5 44.75C14.5821 44.75 15.45 45.6226 15.45 46.6875H18.45C18.45 43.9555 16.2287 41.75 13.5 41.75V44.75ZM26.95 46.6875C26.95 47.7524 26.0821 48.625 25 48.625V51.625C27.7287 51.625 29.95 49.4195 29.95 46.6875H26.95ZM25 48.625C23.9179 48.625 23.05 47.7524 23.05 46.6875H20.05C20.05 49.4195 22.2713 51.625 25 51.625V48.625ZM23.05 46.6875C23.05 45.6226 23.9179 44.75 25 44.75V41.75C22.2713 41.75 20.05 43.9555 20.05 46.6875H23.05ZM25 44.75C26.0821 44.75 26.95 45.6226 26.95 46.6875H29.95C29.95 43.9555 27.7287 41.75 25 41.75V44.75ZM38.45 46.6875C38.45 47.7524 37.5821 48.625 36.5 48.625V51.625C39.2287 51.625 41.45 49.4195 41.45 46.6875H38.45ZM36.5 48.625C35.4179 48.625 34.55 47.7524 34.55 46.6875H31.55C31.55 49.4195 33.7713 51.625 36.5 51.625V48.625ZM34.55 46.6875C34.55 45.6226 35.4179 44.75 36.5 44.75V41.75C33.7713 41.75 31.55 43.9555 31.55 46.6875H34.55ZM36.5 44.75C37.5821 44.75 38.45 45.6226 38.45 46.6875H41.45C41.45 43.9555 39.2287 41.75 36.5 41.75V44.75Z" fill="#636363"/>
</svg>
