<svg width="48" height="42" viewBox="0 0 48 42" fill="none" xmlns="http://www.w3.org/2000/svg">
<path d="M2 5.82609L0.5 5.82609L2 5.82609ZM2 36.4348H0.5H2ZM5.82609 2L5.82609 0.5L5.82609 2ZM38.3478 3.5C39.1763 3.5 39.8478 2.82843 39.8478 2C39.8478 1.17157 39.1763 0.5 38.3478 0.5V3.5ZM0.5 5.82609V36.4348H3.5V5.82609H0.5ZM0.5 36.4348C0.5 37.8474 1.06114 39.2021 2.05997 40.2009L4.1813 38.0796C3.74507 37.6433 3.5 37.0517 3.5 36.4348H0.5ZM2.05997 40.2009C3.05881 41.1997 4.41352 41.7609 5.82609 41.7609V38.7609C5.20917 38.7609 4.61752 38.5158 4.1813 38.0796L2.05997 40.2009ZM5.82609 41.7609H44.087V38.7609H5.82609V41.7609ZM44.087 41.7609C44.9921 41.7609 45.8603 41.4013 46.5003 40.7612L44.379 38.6399C44.3016 38.7174 44.1965 38.7609 44.087 38.7609V41.7609ZM46.5003 40.7612C47.1404 40.1211 47.5 39.253 47.5 38.3478H44.5C44.5 38.4574 44.4565 38.5624 44.379 38.6399L46.5003 40.7612ZM47.5 38.3478V11.5652H44.5V38.3478H47.5ZM47.5 11.5652C47.5 10.66 47.1404 9.79191 46.5003 9.15183L44.379 11.2732C44.4565 11.3506 44.5 11.4557 44.5 11.5652H47.5ZM46.5003 9.15183C45.8603 8.51176 44.9921 8.15217 44.087 8.15217V11.1522C44.1965 11.1522 44.3016 11.1957 44.379 11.2732L46.5003 9.15183ZM44.087 8.15217H5.82609V11.1522H44.087V8.15217ZM5.82609 8.15217C5.20917 8.15217 4.61752 7.90711 4.1813 7.47088L2.05997 9.5922C3.05881 10.591 4.41352 11.1522 5.82609 11.1522V8.15217ZM4.1813 7.47088C3.74507 7.03465 3.5 6.443 3.5 5.82609L0.5 5.82609C0.5 7.23865 1.06114 8.59336 2.05997 9.5922L4.1813 7.47088ZM3.5 5.82609C3.5 5.20917 3.74507 4.61752 4.1813 4.18129L2.05997 2.05997C1.06114 3.05881 0.5 4.41352 0.5 5.82609H3.5ZM4.1813 4.18129C4.61752 3.74507 5.20917 3.5 5.82609 3.5L5.82609 0.5C4.41352 0.5 3.05881 1.06114 2.05997 2.05997L4.1813 4.18129ZM5.82609 3.5H38.3478V0.5H5.82609V3.5ZM36.8479 24.9566C36.8479 25.713 36.2347 26.3262 35.4783 26.3262V29.3262C37.8916 29.3262 39.8479 27.3699 39.8479 24.9566H36.8479ZM35.4783 26.3262C34.7219 26.3262 34.1088 25.713 34.1088 24.9566H31.1088C31.1088 27.3699 33.0651 29.3262 35.4783 29.3262V26.3262ZM34.1088 24.9566C34.1088 24.2002 34.7219 23.5871 35.4783 23.5871V20.5871C33.0651 20.5871 31.1088 22.5434 31.1088 24.9566H34.1088ZM35.4783 23.5871C36.2347 23.5871 36.8479 24.2002 36.8479 24.9566H39.8479C39.8479 22.5434 37.8916 20.5871 35.4783 20.5871V23.5871Z" fill="#636363"/>
</svg>
