<svg width="62" height="61" viewBox="0 0 62 61" fill="none" xmlns="http://www.w3.org/2000/svg">
<path d="M35.9112 39.642L38.3821 41.0539L20.7796 58.6564C20.0648 59.3712 18.9059 59.3712 18.191 58.6564L14.7612 55.2265C13.6532 54.1185 13.6532 52.3221 14.7612 51.2142C15.8691 50.1062 15.8691 48.3098 14.7612 47.2018L10.3883 42.829C8.97906 41.4197 8.97906 39.135 10.3883 37.7257L15.8613 32.2527M35.9112 39.642L57.02 18.5331C60.2367 15.3164 60.2367 10.1011 57.02 6.88445C53.8033 3.66776 48.588 3.66776 45.3713 6.88445L21.0856 31.1702M35.9112 39.642L21.0856 31.1702M21.0856 31.1702L18.4499 29.6641L15.8613 32.2527M15.8613 32.2527L13.1433 29.5347C11.4277 27.8191 8.64623 27.8191 6.93066 29.5347L2.01232 34.453M49.6425 14.262L35.1464 28.7581M44.4653 7.79046L43.0416 6.36673M38.641 13.6148L37.2172 12.1911M32.6872 19.5686L31.2635 18.1448M26.7334 25.5223L25.3097 24.0986M42.9121 35.4884L41.4884 34.0647M48.6071 29.7935L47.1833 28.3698M54.5608 23.8398L53.1371 22.416M60.4158 16.9009L58.6721 15.8942M59.9771 7.51178L58.2334 8.5185M51.5839 2.22498L51.5839 4.55472M19.8736 42.9954C20.8029 43.9246 22.3095 43.9246 23.2388 42.9954C24.1681 42.0661 24.1681 40.5595 23.2388 39.6302C22.3095 38.7009 20.8029 38.7009 19.8736 39.6302C18.9444 40.5595 18.9444 42.0661 19.8736 42.9954Z" stroke="#636363" stroke-width="3" stroke-linecap="round"/>
</svg>
