<svg width="16" height="18" viewBox="0 0 16 18" fill="none" xmlns="http://www.w3.org/2000/svg">
<path d="M15.6421 4.32744L15.6373 4.30667C15.2513 2.60824 13.5111 0.785733 11.913 0.406573L11.895 0.402533C9.31018 -0.134178 6.68929 -0.134178 4.10498 0.402533L4.08643 0.406573C2.48887 0.785733 0.748675 2.60824 0.362142 4.30667L0.3579 4.32744C-0.1193 6.69936 -0.1193 9.10474 0.3579 11.4767L0.362142 11.4974C0.732185 13.1234 2.34279 14.8621 3.88123 15.3403V17.2363C3.88123 17.9224 4.64952 18.2595 5.08643 17.7643L6.85127 15.7676C7.23404 15.7909 7.61702 15.8039 8 15.8039C9.30117 15.8039 10.6029 15.67 11.895 15.4016L11.913 15.3976C13.5111 15.0184 15.2513 13.1959 15.6373 11.4975L15.6421 11.4767C16.1193 9.10474 16.1193 6.69936 15.6421 4.32744ZM14.2455 11.1327C13.9878 12.2408 12.6665 13.6183 11.6166 13.8728C10.2423 14.1573 8.857 14.2789 7.47312 14.2371C7.4456 14.2363 7.41914 14.2479 7.39995 14.2694C7.20355 14.4888 6.11135 15.7092 6.11135 15.7092L4.74072 17.2402C4.64051 17.3539 4.46448 17.2766 4.46448 17.1196V13.9789C4.46448 13.927 4.43043 13.8829 4.38362 13.8729C4.38335 13.8729 4.38309 13.8728 4.38282 13.8728C3.33298 13.6182 2.0122 12.2407 1.75398 11.1326C1.3245 8.98869 1.3245 6.8153 1.75398 4.67134C2.0122 3.5633 3.33298 2.18574 4.38282 1.93123C6.78314 1.43434 9.21686 1.43434 11.6166 1.93123C12.667 2.18574 13.9878 3.5633 14.2455 4.67134C14.6755 6.81536 14.6755 8.98875 14.2455 11.1327Z" fill="white"/>
<path d="M10.2837 12.5825C10.1223 12.5291 9.96851 12.4933 9.82566 12.4288C8.3455 11.7604 6.98325 10.898 5.90419 9.57618C5.29056 8.8245 4.81029 7.97586 4.4043 7.07777C4.21177 6.65186 4.04952 6.20928 3.88415 5.76958C3.73335 5.3686 3.95546 4.95436 4.18934 4.65224C4.4088 4.36871 4.6912 4.15171 4.99703 3.9918C5.23574 3.86697 5.47121 3.93893 5.64555 4.15916C6.02243 4.63527 6.36861 5.13574 6.64894 5.68763C6.82132 6.02708 6.77402 6.44202 6.46161 6.67304C6.38569 6.72919 6.31649 6.7951 6.24576 6.85852C6.18372 6.9141 6.12535 6.97025 6.08282 7.04551C6.00509 7.1832 6.00138 7.3456 6.05143 7.4953C6.43669 8.64767 7.08606 9.54375 8.1517 10.0264C8.32222 10.1036 8.49348 10.1935 8.68993 10.1686C9.01893 10.1267 9.12545 9.73396 9.35599 9.52874C9.58134 9.3282 9.8693 9.32554 10.112 9.49273C10.3548 9.65998 10.5902 9.83952 10.8241 10.021C11.0538 10.1991 11.2824 10.3733 11.4942 10.5763C11.6979 10.7715 11.768 11.0277 11.6533 11.2926C11.4434 11.7779 11.1379 12.1815 10.6971 12.4392C10.5727 12.5119 10.4241 12.5354 10.2837 12.5825C10.1223 12.5291 10.4241 12.5354 10.2837 12.5825Z" fill="white"/>
<path d="M8.00403 3.43697C9.94014 3.496 11.5303 4.89451 11.8711 6.97787C11.9292 7.33285 11.9498 7.69579 11.9757 8.05608C11.9865 8.20763 11.9077 8.35162 11.7574 8.35358C11.6022 8.3556 11.5324 8.21427 11.5223 8.06278C11.5024 7.76291 11.4885 7.46172 11.4506 7.16433C11.2502 5.59454 10.1001 4.29582 8.66453 4.01713C8.44852 3.97518 8.22741 3.96415 8.00859 3.93917C7.87026 3.92335 7.68908 3.91423 7.65843 3.72708C7.63272 3.57016 7.7544 3.44522 7.89168 3.4372C7.92901 3.43495 7.96654 3.43679 8.00403 3.43697C9.94014 3.496 7.96654 3.43679 8.00403 3.43697Z" fill="white"/>
<path d="M10.9463 7.58845C10.9432 7.61477 10.9415 7.67663 10.9273 7.73492C10.8759 7.94649 10.5812 7.97298 10.5134 7.75945C10.4933 7.69608 10.4902 7.624 10.4901 7.55579C10.4894 7.10945 10.4003 6.66358 10.1935 6.27524C9.98097 5.87611 9.65621 5.54058 9.27529 5.33756C9.04496 5.2148 8.79587 5.13851 8.54343 5.09303C8.43309 5.07318 8.32158 5.06112 8.21071 5.04433C8.07635 5.02401 8.00461 4.93081 8.01098 4.78671C8.01692 4.65166 8.10758 4.55453 8.24279 4.56285C8.68712 4.59032 9.11628 4.69483 9.5113 4.9225C10.3146 5.38551 10.7734 6.11636 10.9074 7.09225C10.9134 7.13646 10.9232 7.18026 10.9262 7.22464C10.9338 7.33423 10.9386 7.44394 10.9463 7.58845C10.9432 7.61477 10.9386 7.44394 10.9463 7.58845Z" fill="white"/>
<path d="M9.7421 7.53743C9.58012 7.54061 9.49343 7.44302 9.47672 7.28137C9.46511 7.16866 9.45594 7.05445 9.43123 6.9448C9.38256 6.72885 9.2771 6.52871 9.11018 6.39638C9.03139 6.33387 8.9421 6.28834 8.84857 6.25897C8.72975 6.22163 8.60636 6.2319 8.48781 6.20027C8.35907 6.16594 8.28786 6.05248 8.30811 5.92101C8.32651 5.80138 8.43346 5.708 8.55355 5.71747C9.30419 5.77645 9.84067 6.19883 9.91723 7.16064C9.92264 7.22851 9.929 7.30024 9.91517 7.36517C9.89147 7.47632 9.81586 7.53201 9.7421 7.53743C9.58012 7.54061 9.81586 7.53201 9.7421 7.53743Z" fill="white"/>
</svg>
