<svg width="15" height="10" viewBox="0 0 15 10" fill="none" xmlns="http://www.w3.org/2000/svg">
<path d="M14.6429 0.696934C14.7978 0.309747 14.6429 0.0774361 14.1783 0.0774361H12.5521C12.1649 0.0774361 11.9326 0.30975 11.8551 0.542061C11.8551 0.542061 11.0033 2.55543 9.84177 3.87186C9.45458 4.25905 9.29971 4.33649 9.06739 4.33649C8.91252 4.33649 8.83509 4.18161 8.83509 3.87186V0.619497C8.83509 0.232311 8.68021 0 8.37046 0H5.81503C5.58272 0 5.42785 0.154875 5.42785 0.387186C5.42785 0.774373 6.04734 0.851809 6.04734 2.01337V4.49136C6.04734 5.03342 5.89247 5.11086 5.7376 5.11086C5.19553 5.11086 3.80166 3.09749 3.02729 0.774373C2.87242 0.309749 2.71754 0.154875 2.33035 0.154875H0.704174C0.23955 0.154875 0.162109 0.387186 0.162109 0.619497C0.162109 1.00668 0.704173 3.17493 2.71754 6.04011C4.11141 7.97604 5.96991 9.06016 7.67353 9.06016C8.68021 9.06016 8.83509 8.82785 8.83509 8.44066V6.81448C8.83509 6.34985 8.98996 6.27242 9.22227 6.27242C9.45458 6.27242 9.84177 6.42729 10.8485 7.35654C12.01 8.5181 12.1649 8.98272 12.7844 8.98272H14.4106C14.8752 8.98272 15.1075 8.75041 14.9526 8.28579C14.7977 7.82116 14.3331 7.12423 13.5588 6.34986C13.1716 5.88523 12.6295 5.42061 12.3972 5.1883C12.1649 4.87855 12.2423 4.72367 12.3972 4.49136C12.3972 4.49136 14.488 1.62618 14.6429 0.696934Z" fill="#2F2C2B"/>
</svg>
