<svg width="16" height="16" viewBox="0 0 16 16" fill="none" xmlns="http://www.w3.org/2000/svg">
<path d="M8.00188 0.5H7.99813C3.86281 0.5 0.5 3.86375 0.5 8C0.5 9.64063 1.02875 11.1613 1.92781 12.3959L0.993125 15.1822L3.87594 14.2606C5.06188 15.0463 6.47656 15.5 8.00188 15.5C12.1372 15.5 15.5 12.1353 15.5 8C15.5 3.86469 12.1372 0.5 8.00188 0.5ZM12.3659 11.0909C12.185 11.6019 11.4669 12.0256 10.8941 12.1494C10.5022 12.2328 9.99031 12.2994 8.26719 11.585C6.06312 10.6719 4.64375 8.43219 4.53313 8.28688C4.42719 8.14156 3.6425 7.10094 3.6425 6.02469C3.6425 4.94844 4.18906 4.42438 4.40938 4.19938C4.59031 4.01469 4.88937 3.93031 5.17625 3.93031C5.26906 3.93031 5.3525 3.935 5.4275 3.93875C5.64781 3.94813 5.75844 3.96125 5.90375 4.30906C6.08469 4.745 6.52531 5.82125 6.57781 5.93188C6.63125 6.0425 6.68469 6.1925 6.60969 6.33781C6.53938 6.48781 6.4775 6.55438 6.36688 6.68188C6.25625 6.80938 6.15125 6.90688 6.04063 7.04375C5.93938 7.16281 5.825 7.29031 5.9525 7.51063C6.08 7.72625 6.52063 8.44531 7.16938 9.02281C8.00656 9.76813 8.68531 10.0063 8.92813 10.1075C9.10906 10.1825 9.32469 10.1647 9.45688 10.0241C9.62469 9.84313 9.83188 9.54313 10.0428 9.24781C10.1928 9.03594 10.3822 9.00969 10.5809 9.08469C10.7834 9.155 11.855 9.68469 12.0753 9.79437C12.2956 9.905 12.4409 9.9575 12.4944 10.0503C12.5469 10.1431 12.5469 10.5791 12.3659 11.0909Z" fill="white"/>
</svg>
