<?xml version="1.0" standalone="no"?>
<!DOCTYPE svg PUBLIC "-//W3C//DTD SVG 1.1//EN" "http://www.w3.org/Graphics/SVG/1.1/DTD/svg11.dtd" >
<svg xmlns="http://www.w3.org/2000/svg" xmlns:xlink="http://www.w3.org/1999/xlink" version="1.1">
<metadata>
Created by FontForge 20170731 at Fri Jan 11 02:48:14 2019
 By Aleksey,,,
Copyright (c) 2015 Monotype Imaging Inc.  All rights reserved.
</metadata>
<defs>
<font id="NeueHaasUnica-ExtraBold" horiz-adv-x="608" >
  <font-face 
    font-family="Neue Haas Unica ExtBd"
    font-weight="800"
    font-stretch="normal"
    units-per-em="1000"
    panose-1="2 11 9 4 3 2 6 2 2 3"
    ascent="750"
    descent="-250"
    x-height="508"
    cap-height="712"
    bbox="-1000 -291 1216 1133"
    underline-thickness="50"
    underline-position="-300"
    unicode-range="U+0020-FEFF"
  />
<missing-glyph horiz-adv-x="648" 
d="M151 777h346q63 0 100 -37t37 -100v-568q0 -63 -37 -100t-100 -37h-346q-63 0 -100 37t-37 100v568q0 63 37 100t100 37zM497 708h-346q-31 0 -49.5 -18t-18.5 -50v-568q0 -32 18.5 -50t49.5 -18h346q31 0 49.5 18t18.5 50v568q0 32 -18.5 50t-49.5 18zM387 184v-119
h-136v119h136zM325 647q86 0 135 -40.5t49 -111.5q0 -41 -14.5 -69.5t-55.5 -66.5q-40 -37 -52.5 -63t-12.5 -71h-111q-1 13 -1 38q0 49 12 77t51 68q29 29 38 46t9 39t-12.5 35t-34.5 13q-57 0 -57 -78h-135q1 89 51 136.5t141 47.5z" />
    <glyph glyph-name="f_f" unicode="ff" horiz-adv-x="690" 
d="M657 600q-38 0 -56 -17t-18 -57v-18h94v-121h-94v-387h-164v387h-165v-387h-164v387h-81v121h81v37q0 176 183 176q43 0 79 -9v-114q-10 2 -24 2q-38 0 -56 -17t-18 -57v-18h165v37q0 176 183 176q43 0 79 -9v-114q-10 2 -24 2z" />
    <glyph glyph-name="f_f_i" unicode="ffi" horiz-adv-x="978" 
d="M254 508h165v37q0 176 183 176q43 0 79 -9v-114q-10 2 -24 2q-38 0 -56 -17t-18 -57v-18h94v-121h-94v-387h-164v387h-165v-387h-164v387h-81v121h81v37q0 176 183 176q43 0 79 -9v-114q-10 2 -24 2q-38 0 -56 -17t-18 -57v-18zM751 0v508h166v-508h-166zM751 712h166
v-131h-166v131z" />
    <glyph glyph-name="f_f_l" unicode="ffl" horiz-adv-x="978" 
d="M254 508h165v37q0 176 183 176q43 0 79 -9v-114q-10 2 -24 2q-38 0 -56 -17t-18 -57v-18h94v-121h-94v-387h-164v387h-165v-387h-164v387h-81v121h81v37q0 176 183 176q43 0 79 -9v-114q-10 2 -24 2q-38 0 -56 -17t-18 -57v-18zM751 712h166v-712h-166v712z" />
    <glyph glyph-name="f_i" unicode="fi" horiz-adv-x="649" 
d="M9 508h81v37q0 176 183 176q43 0 79 -9v-114q-10 2 -24 2q-38 0 -56 -17t-18 -57v-18h94v-121h-94v-387h-164v387h-81v121zM422 0v508h166v-508h-166zM422 712h166v-131h-166v131z" />
    <glyph glyph-name="f_l" unicode="fl" horiz-adv-x="649" 
d="M9 508h81v37q0 176 183 176q43 0 79 -9v-114q-10 2 -24 2q-38 0 -56 -17t-18 -57v-18h94v-121h-94v-387h-164v387h-81v121zM422 712h166v-712h-166v712z" />
    <glyph glyph-name=".notdef" horiz-adv-x="648" 
d="M151 777h346q63 0 100 -37t37 -100v-568q0 -63 -37 -100t-100 -37h-346q-63 0 -100 37t-37 100v568q0 63 37 100t100 37zM497 708h-346q-31 0 -49.5 -18t-18.5 -50v-568q0 -32 18.5 -50t49.5 -18h346q31 0 49.5 18t18.5 50v568q0 32 -18.5 50t-49.5 18zM387 184v-119
h-136v119h136zM325 647q86 0 135 -40.5t49 -111.5q0 -41 -14.5 -69.5t-55.5 -66.5q-40 -37 -52.5 -63t-12.5 -71h-111q-1 13 -1 38q0 49 12 77t51 68q29 29 38 46t9 39t-12.5 35t-34.5 13q-57 0 -57 -78h-135q1 89 51 136.5t141 47.5z" />
    <glyph glyph-name=".null" horiz-adv-x="0" 
 />
    <glyph glyph-name="nonmarkingreturn" horiz-adv-x="333" 
 />
    <glyph glyph-name="space" unicode=" " horiz-adv-x="230" 
 />
    <glyph glyph-name="space" unicode="&#xa0;" horiz-adv-x="230" 
 />
    <glyph glyph-name="exclam" unicode="!" horiz-adv-x="346" 
d="M261 147v-147h-176v147h176zM270 712l-30 -502h-134l-31 502h195z" />
    <glyph glyph-name="quotedbl" unicode="&#x22;" horiz-adv-x="463" 
d="M210 712l-19 -280h-121l-18 280h158zM411 712l-18 -280h-121l-18 280h157z" />
    <glyph glyph-name="numbersign" unicode="#" horiz-adv-x="695" 
d="M642 397h-97l-19 -119h97l-18 -115h-97l-26 -163h-135l26 163h-106l-26 -163h-135l26 163h-97l18 115h97l19 119h-97l18 115h97l26 162h135l-26 -162h106l26 162h135l-26 -162h97zM391 278l19 119h-106l-19 -119h106z" />
    <glyph glyph-name="dollar" unicode="$" horiz-adv-x="628" 
d="M590 195q0 -86 -58 -140.5t-161 -66.5v-87h-118v86q-104 14 -160 73t-56 159h167q0 -109 113 -109q107 0 107 76q0 35 -30 51.5t-110 38.5q-43 12 -68.5 20.5t-62 26t-56 37t-34.5 52t-15 72.5q0 82 54.5 135.5t150.5 66.5v78h118v-78q97 -12 149 -67.5t52 -151.5h-163
q0 101 -101 101q-45 0 -70.5 -18.5t-25.5 -51.5q0 -36 28.5 -51.5t105.5 -34.5q46 -11 72.5 -19.5t63.5 -26t57.5 -38t35.5 -55t15 -78.5z" />
    <glyph glyph-name="percent" unicode="%" horiz-adv-x="933" 
d="M714 389q83 0 128.5 -53t45.5 -151t-45.5 -151t-128.5 -53t-128 53t-45 151t45 151t128 53zM714 300q-53 0 -53 -115q0 -114 53 -114t53 114q0 115 -53 115zM218 693q83 0 128.5 -53t45.5 -151t-45.5 -151t-128.5 -53t-128 53t-45 151t45 151t128 53zM218 603
q-53 0 -53 -114q0 -115 53 -115t53 115q0 114 -53 114zM702 704l-371 -734h-100l371 734h100z" />
    <glyph glyph-name="ampersand" unicode="&#x26;" horiz-adv-x="772" 
d="M781 0h-212l-51 51q-81 -67 -209 -67q-129 0 -199 56.5t-70 153.5q0 134 143 203q-41 41 -57 75.5t-16 79.5q0 79 59 127.5t154 48.5q97 0 154.5 -45.5t57.5 -121.5q0 -113 -126 -188l110 -110q24 47 24 129h160q-1 -141 -75 -239zM323 112q58 0 102 33l-152 153
q-62 -39 -62 -96q0 -40 30 -65t82 -25zM323 607q-27 0 -43 -16t-16 -44q0 -23 11 -43t42 -51q65 47 65 97q0 25 -16.5 41t-42.5 16z" />
    <glyph glyph-name="quotesingle" unicode="'" horiz-adv-x="262" 
d="M210 712l-19 -280h-121l-18 280h158z" />
    <glyph glyph-name="parenleft" unicode="(" horiz-adv-x="349" 
d="M185 741h134q-104 -219 -104 -444q0 -223 104 -444h-134q-75 107 -109.5 213.5t-34.5 230.5q0 242 144 444z" />
    <glyph glyph-name="parenright" unicode=")" horiz-adv-x="349" 
d="M30 741h134q144 -202 144 -444q0 -124 -34.5 -230.5t-109.5 -213.5h-134q104 221 104 444q0 225 -104 444z" />
    <glyph glyph-name="asterisk" unicode="*" horiz-adv-x="448" 
d="M285 712l-23 -139l126 64l37 -115l-139 -22l99 -99l-97 -71l-64 125l-63 -125l-98 71l99 99l-139 22l37 115l126 -64l-23 139h122z" />
    <glyph glyph-name="plus" unicode="+" horiz-adv-x="566" 
d="M348 541v-160h159v-129h-159v-159h-130v159h-159v129h159v160h130z" />
    <glyph glyph-name="comma" unicode="," horiz-adv-x="274" 
d="M226 184v-184l-91 -178h-98l69 178h-57v184h177z" />
    <glyph glyph-name="hyphen" unicode="-" horiz-adv-x="337" 
d="M307 353v-122h-277v122h277z" />
    <glyph glyph-name="period" unicode="." horiz-adv-x="274" 
d="M225 184v-184h-176v184h176z" />
    <glyph glyph-name="slash" unicode="/" horiz-adv-x="503" 
d="M452 745l-297 -834h-125l298 834h124z" />
    <glyph glyph-name="zero" unicode="0" horiz-adv-x="623" 
d="M311 690q136 0 209 -92t73 -261q0 -170 -73 -261.5t-209 -91.5t-209 91.5t-73 261.5q0 169 73 261t209 92zM311 556q-52 0 -79.5 -56.5t-27.5 -162.5t27.5 -163.5t79.5 -57.5t80 57.5t28 163.5q0 105 -28 162t-80 57z" />
    <glyph glyph-name="one" unicode="1" horiz-adv-x="623" 
d="M429 674v-674h-171v435h-163v122q86 0 128.5 27.5t51.5 89.5h154z" />
    <glyph glyph-name="two" unicode="2" horiz-adv-x="623" 
d="M310 690q115 0 183.5 -55t68.5 -145q0 -82 -43.5 -131.5t-131.5 -95.5q-87 -45 -115 -70.5t-30 -55.5h337v-137h-538q-1 9 -1 31q0 107 41 175t153 130q84 47 118 77t34 75q0 32 -20 50.5t-56 18.5q-90 0 -90 -100h-171q1 112 70 172.5t191 60.5z" />
    <glyph glyph-name="three" unicode="3" horiz-adv-x="623" 
d="M310 690q117 0 185.5 -51.5t68.5 -139.5q0 -56 -28 -91.5t-89 -57.5v-2q66 -22 96.5 -60.5t30.5 -101.5q0 -93 -71.5 -147.5t-190.5 -54.5q-134 0 -205.5 61.5t-71.5 178.5h173q0 -107 104 -107q41 0 65.5 20.5t24.5 54.5q0 82 -121 82h-20v128h22q52 0 82 22t30 58
q0 35 -24 55t-64 20q-94 0 -94 -101h-169q0 110 70 172t196 62z" />
    <glyph glyph-name="four" unicode="4" horiz-adv-x="623" 
d="M604 269v-129h-104v-140h-168v140h-320v136l265 398h223v-405h104zM226 363l-64 -94h176v75q0 112 7 210h-2q-51 -92 -117 -191z" />
    <glyph glyph-name="five" unicode="5" horiz-adv-x="623" 
d="M539 674v-137h-310l-14 -136h2q53 50 134 50q100 0 163 -62t63 -161q0 -111 -75 -177.5t-198 -66.5q-118 0 -188 55.5t-70 151.5h172q1 -36 26 -56.5t62 -20.5q47 0 72 27t25 79q0 51 -25.5 77.5t-69.5 26.5q-35 0 -57.5 -17.5t-29.5 -47.5l-167 11l38 404h447z" />
    <glyph glyph-name="six" unicode="6" horiz-adv-x="623" 
d="M333 690q106 0 170 -54.5t71 -150.5h-172q-9 76 -78 76q-51 0 -82.5 -45.5t-34.5 -140.5h2q59 65 153 65q98 0 159 -60.5t61 -157.5q0 -106 -73 -172t-190 -66q-132 0 -203.5 85.5t-71.5 250.5q0 176 76.5 273t212.5 97zM320 319q-40 0 -65 -29t-25 -76q0 -44 24.5 -71.5
t64.5 -27.5q41 0 66 28t25 73q0 47 -24.5 75t-65.5 28z" />
    <glyph glyph-name="seven" unicode="7" horiz-adv-x="623" 
d="M43 674h525v-139q-75 -105 -131 -245t-83 -290h-184q34 161 97 302t135 230h-359v142z" />
    <glyph glyph-name="eight" unicode="8" horiz-adv-x="623" 
d="M311 690q114 0 184.5 -51.5t70.5 -136.5q0 -55 -33 -95.5t-90 -55.5v-2q63 -15 100.5 -59.5t37.5 -106.5q0 -93 -72.5 -146t-197.5 -53q-124 0 -196.5 53t-72.5 146q0 62 37.5 106.5t100.5 59.5v2q-57 15 -90 55.5t-33 95.5q0 85 70 136.5t184 51.5zM311 282
q-45 0 -71.5 -23t-26.5 -61t26.5 -60.5t71.5 -22.5q46 0 72.5 22.5t26.5 60.5t-26.5 61t-72.5 23zM311 561q-42 0 -67 -20.5t-25 -54.5q0 -36 24.5 -57t67.5 -21t68 21t25 57q0 34 -25 54.5t-68 20.5z" />
    <glyph glyph-name="nine" unicode="9" horiz-adv-x="623" 
d="M280 -16q-106 0 -170.5 54.5t-70.5 151.5h172q9 -76 78 -76q51 0 82 45t34 140h-2q-57 -65 -152 -65q-98 0 -159.5 61t-61.5 157q0 106 73.5 172t190.5 66q132 0 203.5 -85.5t71.5 -250.5q0 -176 -76.5 -273t-212.5 -97zM293 355q40 0 64.5 29t24.5 76q0 45 -24 72
t-65 27t-65.5 -27.5t-24.5 -72.5q0 -47 24.5 -75.5t65.5 -28.5z" />
    <glyph glyph-name="colon" unicode=":" horiz-adv-x="274" 
d="M225 184v-184h-176v184h176zM225 508v-184h-176v184h176z" />
    <glyph glyph-name="semicolon" unicode=";" horiz-adv-x="274" 
d="M226 184v-184l-91 -178h-98l69 178h-57v184h177zM225 508v-184h-176v184h176z" />
    <glyph glyph-name="less" unicode="&#x3c;" horiz-adv-x="566" 
d="M507 569v-138l-295 -113v-2l295 -113v-138l-448 176v152z" />
    <glyph glyph-name="equal" unicode="=" horiz-adv-x="566" 
d="M507 277v-124h-448v124h448zM507 480v-124h-448v124h448z" />
    <glyph glyph-name="greater" unicode="&#x3e;" horiz-adv-x="566" 
d="M59 569l448 -176v-152l-448 -176v138l295 113v2l-295 113v138z" />
    <glyph glyph-name="question" unicode="?" horiz-adv-x="570" 
d="M364 147v-147h-176v147h176zM287 727q116 0 182 -50t66 -139q0 -51 -20.5 -87t-78.5 -84q-54 -46 -71.5 -78.5t-17.5 -90.5h-140q-2 15 -2 44q0 64 17.5 100.5t73.5 86.5q41 37 53 57.5t12 48.5q0 29 -19.5 45.5t-54.5 16.5q-86 0 -87 -98h-172q1 111 68.5 169.5
t190.5 58.5z" />
    <glyph glyph-name="at" unicode="@" horiz-adv-x="870" 
d="M447 708q178 0 284.5 -103.5t106.5 -275.5q0 -127 -60 -194.5t-149 -67.5q-107 0 -128 81h-2q-43 -81 -129 -81q-71 0 -111.5 51t-41.5 147q1 113 55.5 183t140.5 70q74 0 102 -64h2q1 4 5 24l6 30h123q-41 -194 -41 -285q0 -55 41 -55q40 0 67 41t27 120
q0 130 -81 208.5t-217 78.5q-152 0 -237.5 -95t-85.5 -243q0 -144 83.5 -225.5t224.5 -81.5q130 0 217 52l42 -82q-108 -62 -259 -62q-184 0 -292.5 106.5t-108.5 292.5q0 182 113.5 306t302.5 124zM435 404q-36 0 -60 -35.5t-24 -98.5q0 -42 15.5 -65t43.5 -23
q35 0 58.5 37t23.5 103q0 82 -57 82z" />
    <glyph glyph-name="A" unicode="A" horiz-adv-x="715" 
d="M532 0l-45 151h-258l-46 -151h-182l243 712h227l243 -712h-182zM272 293h173l-15 48q-43 142 -72 259h-2q-30 -124 -70 -259z" />
    <glyph glyph-name="B" unicode="B" horiz-adv-x="664" 
d="M76 0v712h278q129 0 194 -49t65 -134q0 -120 -121 -163v-2q139 -31 139 -166q0 -91 -69 -144.5t-191 -53.5h-295zM337 297h-91v-162h94q60 0 86.5 19t26.5 60q0 43 -27 63t-89 20zM342 578h-96v-154h90q57 0 83.5 19t26.5 59t-25 58t-79 18z" />
    <glyph glyph-name="B" unicode="&#xe000;" horiz-adv-x="664" 
d="M76 0v712h278q129 0 194 -49t65 -134q0 -120 -121 -163v-2q139 -31 139 -166q0 -91 -69 -144.5t-191 -53.5h-295zM337 297h-91v-162h94q60 0 86.5 19t26.5 60q0 43 -27 63t-89 20zM342 578h-96v-154h90q57 0 83.5 19t26.5 59t-25 58t-79 18z" />
    <glyph glyph-name="C" unicode="C" horiz-adv-x="715" 
d="M367 728q138 0 221.5 -73.5t88.5 -198.5h-179q-6 58 -40.5 90t-90.5 32q-71 0 -111.5 -59.5t-40.5 -162.5t40.5 -162.5t109.5 -59.5q56 0 91.5 33t42.5 93h181q-10 -132 -94 -204t-221 -72q-154 0 -242.5 99.5t-88.5 272.5t89 272.5t244 99.5z" />
    <glyph glyph-name="D" unicode="D" horiz-adv-x="742" 
d="M76 0v712h252q183 0 281.5 -92.5t98.5 -263.5t-98.5 -263.5t-281.5 -92.5h-252zM324 565h-76v-418h76q204 0 204 209t-204 209z" />
    <glyph glyph-name="E" unicode="E" horiz-adv-x="634" 
d="M579 712v-145h-330v-135h308v-143h-308v-144h338v-145h-511v712h503z" />
    <glyph glyph-name="E" unicode="&#xe001;" horiz-adv-x="634" 
d="M579 712v-145h-330v-135h308v-143h-308v-144h338v-145h-511v712h503z" />
    <glyph glyph-name="F" unicode="F" horiz-adv-x="591" 
d="M566 712v-148h-317v-164h294v-147h-294v-253h-173v712h490z" />
    <glyph glyph-name="G" unicode="G" horiz-adv-x="751" 
d="M379 728q133 0 215 -65.5t92 -177.5h-186q-16 98 -121 98q-76 0 -120 -61.5t-44 -168.5q0 -109 43.5 -172t119.5 -63q67 0 104 38.5t39 109.5h-153v134h315v-400h-148v72h-2q-64 -86 -198 -86q-139 0 -220 98t-81 269q0 174 92.5 274.5t252.5 100.5z" />
    <glyph glyph-name="H" unicode="H" horiz-adv-x="761" 
d="M685 712v-712h-173v295h-263v-295h-173v712h173v-270h263v270h173z" />
    <glyph glyph-name="I" unicode="I" horiz-adv-x="325" 
d="M249 712v-712h-173v712h173z" />
    <glyph glyph-name="J" unicode="J" horiz-adv-x="410" 
d="M166 712h173v-471q0 -128 -59.5 -188.5t-186.5 -60.5q-47 0 -78 9v144q23 -5 45 -5q58 0 82 29.5t24 109.5v433z" />
    <glyph glyph-name="K" unicode="K" horiz-adv-x="690" 
d="M667 712l-259 -337l278 -375h-218l-217 328h-2v-328h-173v712h173v-307h2l209 307h207z" />
    <glyph glyph-name="L" unicode="L" horiz-adv-x="580" 
d="M249 712v-565h322v-147h-495v712h173z" />
    <glyph glyph-name="M" unicode="M" horiz-adv-x="1013" 
d="M937 712v-712h-163v348q0 132 6 263h-2q-24 -103 -68 -259l-101 -352h-205l-101 352q-44 156 -68 259h-2q6 -131 6 -263v-348h-163v712h277l91 -316q37 -134 62 -262h2q23 123 61 262l92 316h276z" />
    <glyph glyph-name="N" unicode="N" horiz-adv-x="801" 
d="M726 712v-712h-250l-124 281q-66 149 -116 285h-2q8 -160 8 -300v-266h-166v712h249l125 -281q66 -153 116 -285h2q-8 133 -8 300v266h166z" />
    <glyph glyph-name="O" unicode="O" horiz-adv-x="757" 
d="M379 728q159 0 251.5 -100t92.5 -272t-92.5 -272t-251.5 -100q-160 0 -252.5 100t-92.5 272t92.5 272t252.5 100zM379 578q-78 0 -121 -58.5t-43 -163.5t43 -163.5t121 -58.5q77 0 120 58.5t43 163.5t-43 163.5t-120 58.5z" />
    <glyph glyph-name="P" unicode="P" horiz-adv-x="654" 
d="M76 0v712h285q133 0 202 -63t69 -174q0 -110 -69 -173t-202 -63h-112v-239h-173zM337 573h-88v-195h88q118 0 118 97q0 98 -118 98z" />
    <glyph glyph-name="Q" unicode="Q" horiz-adv-x="757" 
d="M723 356q0 -165 -86 -265l78 -88l-89 -82l-87 97q-71 -34 -161 -34q-158 0 -251 100t-93 272t93 272t251 100q160 0 252.5 -100t92.5 -272zM383 123q30 0 54 9l-91 101l91 82l88 -99q25 56 25 135q0 107 -44 167t-123 60t-123.5 -60t-44.5 -167t44.5 -167.5t123.5 -60.5z
" />
    <glyph glyph-name="R" unicode="R" horiz-adv-x="685" 
d="M76 0v712h289q262 0 262 -203q0 -65 -35 -110.5t-96 -63.5v-2q38 -13 61 -43.5t48 -99.5l69 -190h-186l-54 161q-19 56 -44.5 77.5t-75.5 21.5h-65v-260h-173zM337 578h-88v-187h95q112 0 112 96q0 91 -119 91z" />
    <glyph glyph-name="S" unicode="S" horiz-adv-x="645" 
d="M315 728q135 0 207 -59.5t72 -173.5h-180q0 48 -27.5 73.5t-78.5 25.5q-43 0 -68.5 -18.5t-25.5 -48.5q0 -34 29.5 -50.5t112.5 -37.5q50 -12 80.5 -21.5t68 -28t58.5 -40.5t35.5 -57t14.5 -80q0 -104 -79 -166t-212 -62q-140 0 -219 65t-79 183h184q0 -110 118 -110
q49 0 77 20t28 55q0 37 -27.5 53t-108.5 37q-52 13 -80.5 22t-68 27.5t-60 39.5t-35.5 55.5t-15 79.5q0 98 75.5 157.5t203.5 59.5z" />
    <glyph glyph-name="S" unicode="&#xe002;" horiz-adv-x="645" 
d="M315 728q135 0 207 -59.5t72 -173.5h-180q0 48 -27.5 73.5t-78.5 25.5q-43 0 -68.5 -18.5t-25.5 -48.5q0 -34 29.5 -50.5t112.5 -37.5q50 -12 80.5 -21.5t68 -28t58.5 -40.5t35.5 -57t14.5 -80q0 -104 -79 -166t-212 -62q-140 0 -219 65t-79 183h184q0 -110 118 -110
q49 0 77 20t28 55q0 37 -27.5 53t-108.5 37q-52 13 -80.5 22t-68 27.5t-60 39.5t-35.5 55.5t-15 79.5q0 98 75.5 157.5t203.5 59.5z" />
    <glyph glyph-name="T" unicode="T" horiz-adv-x="627" 
d="M618 712v-147h-218v-565h-173v565h-218v147h609z" />
    <glyph glyph-name="U" unicode="U" horiz-adv-x="725" 
d="M482 712h173v-436q0 -141 -76 -216.5t-217 -75.5q-140 0 -216 75.5t-76 216.5v436h173v-432q0 -70 30.5 -107t88.5 -37q59 0 89.5 37t30.5 107v432z" />
    <glyph glyph-name="V" unicode="V" horiz-adv-x="663" 
d="M658 712l-214 -712h-226l-214 712h181l77 -275q41 -138 68 -280h2q24 125 68 280l78 275h180z" />
    <glyph glyph-name="W" unicode="W" horiz-adv-x="991" 
d="M983 712l-144 -712h-230l-60 285q-33 147 -53 286h-2q-19 -130 -52 -286l-60 -285h-230l-144 712h168l48 -257q29 -158 46 -298h2q25 152 57 298l56 257h221l56 -257q34 -153 56 -298h2q19 148 47 298l47 257h169z" />
    <glyph glyph-name="X" unicode="X" horiz-adv-x="669" 
d="M655 712l-209 -347l222 -365h-204l-128 246h-2l-129 -246h-203l221 365l-209 347h199l121 -238h2l120 238h199z" />
    <glyph glyph-name="Y" unicode="Y" horiz-adv-x="663" 
d="M662 712l-244 -443v-269h-173v269l-244 443h192l62 -129q43 -89 76 -179h2q30 86 75 179l62 129h192z" />
    <glyph glyph-name="Z" unicode="Z" horiz-adv-x="593" 
d="M556 712v-150l-329 -416v-2h345v-144h-552v150l329 416v2h-314v144h521z" />
    <glyph glyph-name="bracketleft" unicode="[" horiz-adv-x="358" 
d="M338 741v-105h-117v-683h117v-104h-273v892h273z" />
    <glyph glyph-name="backslash" unicode="\" horiz-adv-x="503" 
d="M51 745h125l297 -834h-124z" />
    <glyph glyph-name="bracketright" unicode="]" horiz-adv-x="358" 
d="M20 741h273v-892h-273v104h117v683h-117v105z" />
    <glyph glyph-name="asciicircum" unicode="^" horiz-adv-x="520" 
d="M347 712l166 -341h-152l-100 211h-2l-100 -211h-152l166 341h174z" />
    <glyph glyph-name="underscore" unicode="_" horiz-adv-x="500" 
d="M500 -50v-91h-500v91h500z" />
    <glyph glyph-name="grave" unicode="`" horiz-adv-x="369" 
d="M50 712h191l78 -148h-128z" />
    <glyph glyph-name="a" unicode="a" horiz-adv-x="561" 
d="M275 524q231 0 231 -206v-175q0 -91 15 -143h-150q-7 28 -7 66h-2q-58 -79 -165 -79q-81 0 -128 44t-47 112q0 67 46.5 107t155.5 57q63 10 122 14v18q0 80 -71 80q-70 0 -72 -71h-160q4 77 62 126.5t170 49.5zM346 212v18q-48 -2 -90 -10q-37 -7 -53.5 -22.5
t-16.5 -42.5t17 -42.5t48 -15.5q53 0 74 30t21 85z" />
    <glyph glyph-name="b" unicode="b" horiz-adv-x="610" 
d="M227 712v-259h2q48 69 139 69q97 0 154.5 -73t57.5 -195t-59 -195t-157 -73q-94 0 -141 77h-2v-63h-160v712h166zM311 396q-42 0 -67.5 -38t-25.5 -104t25.5 -104t67.5 -38q43 0 69 38.5t26 103.5t-26 103.5t-69 38.5z" />
    <glyph glyph-name="b" unicode="&#xe003;" horiz-adv-x="610" 
d="M227 712v-259h2q48 69 139 69q97 0 154.5 -73t57.5 -195t-59 -195t-157 -73q-94 0 -141 77h-2v-63h-160v712h166zM311 396q-42 0 -67.5 -38t-25.5 -104t25.5 -104t67.5 -38q43 0 69 38.5t26 103.5t-26 103.5t-69 38.5z" />
    <glyph glyph-name="c" unicode="c" horiz-adv-x="575" 
d="M295 524q107 0 176.5 -58t77.5 -152h-172q-4 40 -25.5 62.5t-55.5 22.5q-43 0 -67.5 -38t-24.5 -106q0 -69 24.5 -107t68.5 -38q34 0 55.5 25t23.5 69h173q-8 -101 -76.5 -160.5t-176.5 -59.5q-121 0 -193.5 73.5t-72.5 197.5q0 123 72 196t193 73z" />
    <glyph glyph-name="d" unicode="d" horiz-adv-x="610" 
d="M549 712v-712h-160v63h-2q-47 -77 -141 -77q-98 0 -157 73t-59 195t57.5 195t154.5 73q91 0 139 -69h2v259h166zM299 396q-43 0 -69 -38.5t-26 -103.5t26 -103.5t69 -38.5q42 0 67.5 38t25.5 104t-25.5 104t-67.5 38z" />
    <glyph glyph-name="e" unicode="e" horiz-adv-x="584" 
d="M292 95q35 0 58 17t27 44h169q-16 -74 -84.5 -123t-167.5 -49q-125 0 -194.5 76t-69.5 198q0 116 70 191t192 75q89 0 152 -43.5t90 -119.5q20 -54 20 -141h-361q5 -125 99 -125zM292 415q-82 0 -96 -101h191q-5 51 -31 76t-64 25z" />
    <glyph glyph-name="f" unicode="f" horiz-adv-x="361" 
d="M328 600q-38 0 -56 -17t-18 -57v-18h94v-121h-94v-387h-164v387h-81v121h81v37q0 176 183 176q43 0 79 -9v-114q-10 2 -24 2z" />
    <glyph glyph-name="g" unicode="g" horiz-adv-x="602" 
d="M240 522q90 0 144 -82h2v68h155v-475q0 -115 -66.5 -171.5t-188.5 -56.5q-106 0 -166 43t-68 120h161q5 -56 76 -56q44 0 67.5 28t23.5 93v47h-2q-53 -74 -141 -74q-95 0 -151 70t-56 188t57 188t153 70zM292 392q-41 0 -65.5 -34.5t-24.5 -93.5q0 -58 24.5 -92.5
t65.5 -34.5q43 0 68 34.5t25 92.5q0 59 -25 93.5t-68 34.5z" />
    <glyph glyph-name="h" unicode="h" 
d="M227 712v-255h2q52 64 137 64q87 0 136.5 -53.5t49.5 -155.5v-312h-166v294q0 98 -74 98q-40 0 -62.5 -32.5t-22.5 -96.5v-263h-166v712h166z" />
    <glyph glyph-name="i" unicode="i" horiz-adv-x="288" 
d="M227 508v-508h-166v508h166zM227 712v-131h-166v131h166z" />
    <glyph glyph-name="j" unicode="j" horiz-adv-x="289" 
d="M62 508h166v-507q0 -98 -50.5 -144.5t-136.5 -46.5q-47 0 -80 9v116q12 -3 26 -3q39 0 57 21t18 76v479zM228 712v-131h-166v131h166z" />
    <glyph glyph-name="k" unicode="k" horiz-adv-x="566" 
d="M376 271l200 -271h-204l-143 230h-2v-230h-166v712h166v-404h2l136 200h192z" />
    <glyph glyph-name="l" unicode="l" horiz-adv-x="288" 
d="M227 712v-712h-166v712h166z" />
    <glyph glyph-name="m" unicode="m" horiz-adv-x="908" 
d="M674 521q83 0 130.5 -53.5t47.5 -155.5v-312h-166v294q0 98 -67 98q-79 0 -79 -134v-258h-166v301q0 91 -67 91q-80 0 -80 -134v-258h-166v508h155v-58h2q53 71 143 71q107 0 150 -88q60 88 163 88z" />
    <glyph glyph-name="n" unicode="n" 
d="M366 521q87 0 136.5 -53.5t49.5 -155.5v-312h-166v294q0 98 -74 98q-40 0 -62.5 -32.5t-22.5 -96.5v-263h-166v508h155v-61h2q56 74 148 74z" />
    <glyph glyph-name="o" unicode="o" horiz-adv-x="604" 
d="M302 524q125 0 198.5 -73t73.5 -197t-73.5 -197t-198.5 -73t-198.5 73t-73.5 197t73.5 197t198.5 73zM302 398q-46 0 -71.5 -38.5t-25.5 -105.5t25.5 -105.5t71.5 -38.5t71.5 38.5t25.5 105.5t-25.5 105.5t-71.5 38.5z" />
    <glyph glyph-name="p" unicode="p" horiz-adv-x="610" 
d="M364 522q98 0 157 -73t59 -195t-57.5 -195t-154.5 -73q-91 0 -139 69h-2v-240h-166v693h160v-63h2q47 77 141 77zM311 396q-42 0 -67.5 -38t-25.5 -104t25.5 -104t67.5 -38q43 0 69 38.5t26 103.5t-26 103.5t-69 38.5z" />
    <glyph glyph-name="q" unicode="q" horiz-adv-x="610" 
d="M246 522q94 0 141 -77h2v63h160v-693h-166v240h-2q-48 -69 -139 -69q-97 0 -154.5 73t-57.5 195t59 195t157 73zM299 396q-43 0 -69 -38.5t-26 -103.5t26 -103.5t69 -38.5q42 0 67.5 38t25.5 104t-25.5 104t-67.5 38z" />
    <glyph glyph-name="r" unicode="r" horiz-adv-x="415" 
d="M360 516q26 0 48 -6v-142q-28 5 -51 5q-63 0 -96.5 -38.5t-33.5 -111.5v-223h-166v508h154v-70h2q51 78 143 78z" />
    <glyph glyph-name="s" unicode="s" horiz-adv-x="542" 
d="M267 524q107 0 166 -43t59 -127h-158q0 65 -68 65q-59 0 -59 -40q0 -22 20.5 -33t83.5 -27q38 -10 58.5 -16.5t51.5 -20.5t47.5 -30.5t29 -43.5t12.5 -61q0 -74 -63 -118.5t-173 -44.5q-243 0 -243 181h167q0 -72 78 -72q31 0 47.5 11.5t16.5 30.5q0 26 -23.5 38.5
t-93.5 30.5q-35 9 -53 14t-47 18.5t-43 28.5t-25.5 41t-11.5 59q0 71 59 115t165 44z" />
    <glyph glyph-name="s" unicode="&#xe004;" horiz-adv-x="542" 
d="M267 524q107 0 166 -43t59 -127h-158q0 65 -68 65q-59 0 -59 -40q0 -22 20.5 -33t83.5 -27q38 -10 58.5 -16.5t51.5 -20.5t47.5 -30.5t29 -43.5t12.5 -61q0 -74 -63 -118.5t-173 -44.5q-243 0 -243 181h167q0 -72 78 -72q31 0 47.5 11.5t16.5 30.5q0 26 -23.5 38.5
t-93.5 30.5q-35 9 -53 14t-47 18.5t-43 28.5t-25.5 41t-11.5 59q0 71 59 115t165 44z" />
    <glyph glyph-name="t" unicode="t" horiz-adv-x="378" 
d="M316 123q20 0 37 5v-125q-40 -11 -84 -11q-96 0 -139.5 40t-43.5 129v226h-79v121h79v137h166v-137h96v-121h-96v-188q0 -41 15 -58.5t49 -17.5z" />
    <glyph glyph-name="u" unicode="u" 
d="M242 -13q-87 0 -136.5 53.5t-49.5 155.5v312h166v-294q0 -98 74 -98q40 0 62.5 32.5t22.5 96.5v263h166v-508h-155v61h-2q-56 -74 -148 -74z" />
    <glyph glyph-name="v" unicode="v" horiz-adv-x="533" 
d="M541 508l-164 -508h-221l-164 508h176l50 -186q28 -112 47 -215h2q16 89 48 215l49 186h177z" />
    <glyph glyph-name="w" unicode="w" horiz-adv-x="848" 
d="M844 508l-113 -508h-227l-41 191q-23 109 -38 213h-2q-15 -104 -38 -213l-41 -191h-227l-113 508h162l33 -187q20 -111 32 -216h2q18 119 41 217l42 186h216l42 -186q23 -98 41 -217h2q12 105 32 216l33 187h162z" />
    <glyph glyph-name="x" unicode="x" horiz-adv-x="535" 
d="M530 508l-159 -247l170 -261h-190l-83 163h-2l-83 -163h-189l170 261l-159 247h188l73 -145h2l73 145h189z" />
    <glyph glyph-name="y" unicode="y" horiz-adv-x="530" 
d="M369 508h169l-169 -499q-38 -113 -92 -157t-152 -44q-43 0 -86 9v126q24 -8 51 -8q35 0 56 17.5t21 48.5q0 23 -28 98l-149 409h179l49 -170q32 -118 51 -212h2q21 106 51 213z" />
    <glyph glyph-name="y" unicode="&#xe006;" horiz-adv-x="530" 
d="M369 508h169l-169 -499q-38 -113 -92 -157t-152 -44q-43 0 -86 9v126q24 -8 51 -8q35 0 56 17.5t21 48.5q0 23 -28 98l-149 409h179l49 -170q32 -118 51 -212h2q21 106 51 213z" />
    <glyph glyph-name="z" unicode="z" horiz-adv-x="502" 
d="M465 508v-131l-232 -248v-2h240v-127h-444v131l231 248v2h-222v127h427z" />
    <glyph glyph-name="braceleft" unicode="{" horiz-adv-x="361" 
d="M308 741h25v-95q-42 -2 -59 -20t-17 -64v-132q0 -58 -24.5 -89.5t-76.5 -44.5v-3q52 -14 76.5 -45.5t24.5 -89.5v-132q0 -46 17 -64t59 -20v-95h-25q-114 0 -157.5 42.5t-43.5 142.5v123q0 41 -14.5 60t-52.5 29v100q38 10 52.5 29t14.5 60v123q0 100 43.5 142.5
t157.5 42.5z" />
    <glyph glyph-name="bar" unicode="|" horiz-adv-x="297" 
d="M219 732v-937h-142v937h142z" />
    <glyph glyph-name="braceright" unicode="}" horiz-adv-x="361" 
d="M28 646v95h25q113 0 156.5 -42.5t43.5 -142.5v-123q0 -41 14.5 -60t53.5 -29v-100q-39 -10 -53.5 -29t-14.5 -60v-123q0 -100 -43.5 -142.5t-156.5 -42.5h-25v95q42 2 59 20t17 64v132q0 58 24.5 89.5t76.5 45.5v3q-52 13 -76.5 44.5t-24.5 89.5v132q0 46 -17 64t-59 20z
" />
    <glyph glyph-name="asciitilde" unicode="~" horiz-adv-x="600" 
d="M198 425q41 0 80 -21.5t71 -43t56 -21.5q29 0 46.5 21t17.5 57h106q0 -93 -48.5 -150t-124.5 -57q-41 0 -80 21.5t-71 43t-56 21.5q-29 0 -46.5 -21.5t-17.5 -56.5h-106q0 92 48.5 149.5t124.5 57.5z" />
    <glyph glyph-name="exclamdown" unicode="&#xa1;" horiz-adv-x="346" 
d="M75 -204l31 502h134l30 -502h-195zM84 361v147h177v-147h-177z" />
    <glyph glyph-name="cent" unicode="&#xa2;" horiz-adv-x="628" 
d="M322 187q34 0 55.5 25t23.5 69h173q-7 -85 -58 -142t-134 -72v-95h-119v94q-96 17 -152 87.5t-56 178.5q0 107 55.5 177t152.5 87v95h119v-96q83 -16 134 -70.5t58 -133.5h-172q-4 40 -25.5 62.5t-55.5 22.5q-44 0 -68 -38t-24 -106q0 -69 24.5 -107t68.5 -38z" />
    <glyph glyph-name="sterling" unicode="&#xa3;" horiz-adv-x="628" 
d="M223 137v-2h367v-135h-567v137q45 0 67 27t22 94v15h-89v128h89v41q0 122 64 185t185 63q108 0 171.5 -60t63.5 -162h-163q0 41 -19 63.5t-54 22.5q-79 0 -79 -111v-42h125v-128h-125v-13q0 -48 -13.5 -76.5t-44.5 -46.5z" />
    <glyph glyph-name="currency" unicode="&#xa4;" horiz-adv-x="628" 
d="M532 291q0 -60 -27 -111l75 -80l-91 -85l-76 82q-45 -20 -99 -20t-99 20l-76 -82l-92 85l76 81q-27 47 -27 110q0 60 27 111l-76 80l92 85l76 -82q45 20 99 20t99 -20l76 82l91 -85l-75 -80q27 -51 27 -111zM314 187q45 0 72 28.5t27 75.5t-27 75.5t-72 28.5t-72.5 -28.5
t-27.5 -75.5t27.5 -75.5t72.5 -28.5z" />
    <glyph glyph-name="yen" unicode="&#xa5;" horiz-adv-x="628" 
d="M611 674l-172 -332h118v-73h-156v-38h156v-74h-156v-157h-174v157h-156v74h156v38h-156v73h118l-172 332h189l39 -87q39 -92 68 -179h2q29 87 68 179l39 87h189z" />
    <glyph glyph-name="brokenbar" unicode="&#xa6;" horiz-adv-x="297" 
d="M219 732v-350h-142v350h142zM219 145v-350h-142v350h142z" />
    <glyph glyph-name="section" unicode="&#xa7;" horiz-adv-x="656" 
d="M326 728q218 0 230 -188h-161q-5 65 -69 65q-26 0 -41.5 -12.5t-15.5 -33.5q0 -26 19.5 -39t94.5 -41q42 -15 65 -25t55 -28.5t48.5 -38t28.5 -50t12 -68.5q0 -92 -83 -145v-2q49 -37 49 -109q0 -81 -62.5 -129t-166.5 -48q-111 0 -173 48t-66 142h164q5 -66 72 -66
q29 0 46.5 13t17.5 35q0 28 -24 44t-111 52q-50 21 -76.5 35t-57 37.5t-44 55.5t-13.5 74q0 93 84 142v2q-46 36 -46 102q0 81 62 128.5t162 47.5zM244 388q-31 -21 -31 -60q0 -31 21 -52t84 -47q40 -16 97 -42q31 20 31 61q0 30 -21 51.5t-80 45.5q-65 27 -101 43z" />
    <glyph glyph-name="dieresis" unicode="&#xa8;" horiz-adv-x="469" 
d="M193 712v-131h-143v131h143zM419 712v-131h-142v131h142z" />
    <glyph glyph-name="copyright" unicode="&#xa9;" horiz-adv-x="798" 
d="M399 727q163 0 262 -102t99 -269t-99 -269t-262 -102t-262 102t-99 269t99 269t262 102zM399 664q-135 0 -217 -84.5t-82 -223.5t82 -223.5t217 -84.5t217.5 84.5t82.5 223.5t-82.5 223.5t-217.5 84.5zM401 582q86 0 137.5 -45.5t55.5 -123.5h-114q-2 36 -23 56.5
t-56 20.5q-41 0 -65 -36t-24 -99q0 -61 23.5 -97t64.5 -36q35 0 56.5 21.5t25.5 58.5h115q-7 -82 -59.5 -127t-137.5 -45q-94 0 -148 60.5t-54 164.5q0 106 54 166.5t149 60.5z" />
    <glyph glyph-name="ordfeminine" unicode="&#xaa;" horiz-adv-x="419" 
d="M206 697q173 0 173 -148v-115q0 -65 12 -104h-122q-6 20 -6 45h-2q-42 -55 -118 -55q-59 0 -93.5 31.5t-34.5 80.5q0 48 35 76t114 40q50 7 84 9v13q0 48 -44 48q-42 0 -44 -45h-130q4 54 47 89t129 35zM248 477v12q-99 0 -99 -48q0 -37 40 -37q59 0 59 73z" />
    <glyph glyph-name="guillemetleft" unicode="&#xab;" horiz-adv-x="570" 
d="M299 454l-106 -200l106 -200h-142l-114 200l114 200h142zM528 454l-106 -200l106 -200h-143l-114 200l114 200h143z" />
    <glyph glyph-name="logicalnot" unicode="&#xac;" horiz-adv-x="566" 
d="M507 468v-342h-129v213h-319v129h448z" />
    <glyph glyph-name="softhyphen" unicode="&#xad;" horiz-adv-x="337" 
d="M307 353v-122h-277v122h277z" />
    <glyph glyph-name="registered" unicode="&#xae;" horiz-adv-x="592" 
d="M296 728q113 0 182 -71t69 -187t-69 -187t-182 -71t-182 71t-69 187t69 187t182 71zM296 690q-96 0 -154.5 -60.5t-58.5 -159.5t58.5 -159.5t154.5 -60.5t154.5 60.5t58.5 159.5t-58.5 159.5t-154.5 60.5zM171 318v313h138q54 0 81.5 -23.5t27.5 -65.5q0 -29 -15.5 -49.5
t-43.5 -27.5v-2q16 -4 26.5 -17t21.5 -42l32 -86h-81l-26 73q-7 23 -19.5 32.5t-35.5 9.5h-29v-115h-77zM290 572h-42v-82h40q55 0 55 43q0 39 -53 39z" />
    <glyph glyph-name="macron" unicode="&#xaf;" horiz-adv-x="459" 
d="M409 692v-103h-359v103h359z" />
    <glyph glyph-name="degree" unicode="&#xb0;" horiz-adv-x="348" 
d="M174 722q58 0 99.5 -41t41.5 -100t-41 -100t-100 -41t-100.5 41t-41.5 100q0 58 41.5 99.5t100.5 41.5zM174 644q-26 0 -44.5 -18.5t-18.5 -44.5t18.5 -44.5t44.5 -18.5t44.5 18.5t18.5 44.5t-18.5 44.5t-44.5 18.5z" />
    <glyph glyph-name="plusminus" unicode="&#xb1;" horiz-adv-x="566" 
d="M507 127v-127h-448v127h448zM347 576v-143h160v-127h-160v-143h-128v143h-160v127h160v143h128z" />
    <glyph glyph-name="twosuperior" unicode="&#xb2;" horiz-adv-x="471" 
d="M236 813q88 0 140 -41t52 -104q0 -57 -33 -91.5t-97 -62.5q-60 -26 -80 -41t-22 -33h245v-110h-407q-2 16 -2 28q0 77 31 126t110 88q61 29 86.5 49t25.5 47q0 20 -13 31t-35 11q-57 0 -59 -65h-140q1 81 53 124.5t145 43.5z" />
    <glyph glyph-name="threesuperior" unicode="&#xb3;" horiz-adv-x="464" 
d="M233 813q90 0 141.5 -36t51.5 -98q0 -38 -20 -62.5t-64 -40.5v-2q47 -15 68.5 -41t21.5 -69q0 -67 -53.5 -106t-144.5 -39q-101 0 -155.5 44t-54.5 126h142q0 -68 68 -68q27 0 43 12t16 34q0 51 -79 51h-13v99h16q33 0 52 13t19 36q0 21 -14.5 33t-41.5 12q-63 0 -63 -65
h-137q0 79 53 123t148 44z" />
    <glyph glyph-name="acute" unicode="&#xb4;" horiz-adv-x="369" 
d="M319 712l-141 -148h-128l78 148h191z" />
    <glyph glyph-name="micro" unicode="&#xb5;" horiz-adv-x="626" 
d="M384 508h166v-330q0 -34 10 -47.5t33 -13.5q12 0 24 3v-115q-42 -14 -98 -14q-96 0 -120 75h-2q-14 -34 -43.5 -53t-66.5 -19q-38 0 -60 16v-195h-166v693h166v-291q0 -101 73 -101q39 0 61.5 31t22.5 94v267z" />
    <glyph glyph-name="paragraph" unicode="&#xb6;" horiz-adv-x="684" 
d="M656 712v-110h-80v-722h-119v722h-76v-722h-118v403h-18q-94 0 -149.5 58t-55.5 156t55.5 156.5t149.5 58.5h411z" />
    <glyph glyph-name="periodcentered" unicode="&#xb7;" horiz-adv-x="274" 
d="M225 397v-183h-176v183h176z" />
    <glyph glyph-name="cedilla" unicode="&#xb8;" horiz-adv-x="348" 
d="M148 0h67l-37 -60q15 5 33 5q39 0 63 -21t24 -57q0 -43 -33.5 -71t-94.5 -28q-65 0 -120 32l26 53q44 -22 81 -22q44 0 44 31q0 15 -11.5 24t-32.5 9q-17 0 -31 -6l-29 27z" />
    <glyph glyph-name="onesuperior" unicode="&#xb9;" horiz-adv-x="335" 
d="M276 802v-472h-140v288h-125v101q67 0 100 19.5t40 63.5h125z" />
    <glyph glyph-name="ordmasculine" unicode="&#xba;" horiz-adv-x="444" 
d="M222 697q92 0 146.5 -51.5t54.5 -137.5q0 -87 -54.5 -138t-146.5 -51t-146.5 51t-54.5 138q0 86 54.5 137.5t146.5 51.5zM222 596q-28 0 -43.5 -23t-15.5 -65t15.5 -65t43.5 -23t43.5 23t15.5 65t-15.5 65t-43.5 23z" />
    <glyph glyph-name="guillemetright" unicode="&#xbb;" horiz-adv-x="570" 
d="M43 454h142l114 -200l-114 -200h-142l106 200zM271 454h143l114 -200l-114 -200h-143l106 200z" />
    <glyph glyph-name="onequarter" unicode="&#xbc;" horiz-adv-x="824" 
d="M814 168v-92h-70v-76h-121v76h-197v94l159 234h159v-236h70zM568 219l-36 -51h97v37q0 68 4 120h-1q-36 -66 -64 -106zM242 270h-130v244h-103v89q96 0 115 71h118v-404zM494 674h100l-363 -674h-100z" />
    <glyph glyph-name="onehalf" unicode="&#xbd;" horiz-adv-x="849" 
d="M242 674v-404h-130v244h-103v89q96 0 115 71h118zM594 674l-363 -674h-100l363 674h100zM644 414q77 0 122 -35.5t45 -90.5q0 -48 -29 -78.5t-84 -52.5q-53 -22 -70 -34t-19 -27h214v-96h-357q-1 8 -1 25q0 67 26.5 108.5t94.5 75.5q38 18 55 27.5t30.5 23.5t13.5 31
q0 15 -11 24t-30 9q-49 0 -49 -55h-124q0 69 45.5 107t127.5 38z" />
    <glyph glyph-name="threequarters" unicode="&#xbe;" horiz-adv-x="942" 
d="M932 168v-92h-70v-76h-121v76h-197v94l159 234h159v-236h70zM686 219l-36 -51h97v37q0 68 4 120h-1q-36 -66 -64 -106zM379 383q0 -59 -45.5 -91t-128.5 -32q-88 0 -136 38t-48 109h125q0 -56 59 -56q23 0 37.5 10.5t14.5 27.5q0 40 -66 40h-14v87h13q63 0 63 41
q0 17 -13.5 27t-37.5 10q-54 0 -54 -53h-121q0 67 47 105t129 38q77 0 124 -32t47 -85q0 -63 -74 -87v-1q79 -24 79 -96zM612 674h100l-363 -674h-100z" />
    <glyph glyph-name="questiondown" unicode="&#xbf;" horiz-adv-x="542" 
d="M283 -219q-116 0 -182 50t-66 139q0 51 20.5 87t78.5 84q54 46 71.5 78.5t17.5 90.5h140q2 -15 2 -44q0 -64 -17.5 -100t-73.5 -87q-41 -37 -53 -57.5t-12 -48.5q0 -29 19.5 -45.5t54.5 -16.5q86 0 87 98h172q-2 -112 -69 -170t-190 -58zM205 361v147h177v-147h-177z" />
    <glyph glyph-name="Agrave" unicode="&#xc0;" horiz-adv-x="715" 
d="M532 0l-45 151h-258l-46 -151h-182l243 712h227l243 -712h-182zM272 293h173l-15 48q-43 142 -72 259h-2q-30 -124 -70 -259zM453 760h-128l-141 151h191z" />
    <glyph glyph-name="Aacute" unicode="&#xc1;" horiz-adv-x="715" 
d="M532 0l-45 151h-258l-46 -151h-182l243 712h227l243 -712h-182zM272 293h173l-15 48q-43 142 -72 259h-2q-30 -124 -70 -259zM531 911l-141 -151h-128l78 151h191z" />
    <glyph glyph-name="Acircumflex" unicode="&#xc2;" horiz-adv-x="715" 
d="M532 0l-45 151h-258l-46 -151h-182l243 712h227l243 -712h-182zM272 293h173l-15 48q-43 142 -72 259h-2q-30 -124 -70 -259zM357 839l-60 -79h-138l120 151h156l120 -151h-138z" />
    <glyph glyph-name="Atilde" unicode="&#xc3;" horiz-adv-x="715" 
d="M532 0l-45 151h-258l-46 -151h-182l243 712h227l243 -712h-182zM272 293h173l-15 48q-43 142 -72 259h-2q-30 -124 -70 -259zM293 811q-37 0 -42 -43h-89q3 67 35 105t89 38q35 0 76.5 -21.5t57.5 -21.5q37 0 43 43h89q-4 -67 -36 -105t-89 -38q-34 0 -75.5 21.5
t-58.5 21.5z" />
    <glyph glyph-name="Adieresis" unicode="&#xc4;" horiz-adv-x="715" 
d="M532 0l-45 151h-258l-46 -151h-182l243 712h227l243 -712h-182zM272 293h173l-15 48q-43 142 -72 259h-2q-30 -124 -70 -259zM316 900v-131h-143v131h143zM542 900v-131h-142v131h142z" />
    <glyph glyph-name="Aring" unicode="&#xc5;" horiz-adv-x="715" 
d="M532 0l-45 151h-258l-46 -151h-182l243 712h227l243 -712h-182zM272 293h173l-15 48q-43 142 -72 259h-2q-30 -124 -70 -259zM357 752q-47 0 -80.5 33t-33.5 80t33.5 80.5t80.5 33.5t80.5 -33.5t33.5 -80.5t-33.5 -80t-80.5 -33zM357 921q-23 0 -39.5 -16.5t-16.5 -39.5
t16.5 -39.5t39.5 -16.5t39.5 16.5t16.5 39.5t-16.5 39.5t-39.5 16.5z" />
    <glyph glyph-name="AE" unicode="&#xc6;" horiz-adv-x="977" 
d="M664 145h266v-145h-410l-23 160h-245l-67 -160h-191l318 712h611v-145h-319l19 -135h276v-143h-256zM312 303h165l-39 269h-14z" />
    <glyph glyph-name="Ccedilla" unicode="&#xc7;" horiz-adv-x="715" 
d="M499 260h181q-10 -123 -84 -194.5t-197 -80.5l-28 -45q15 5 33 5q39 0 63 -21t24 -57q0 -43 -33.5 -71t-94.5 -28q-65 0 -120 32l26 53q44 -22 81 -22q44 0 44 31q0 15 -11.5 24t-32.5 9q-18 0 -31 -6l-29 27l42 69q-139 11 -218.5 109.5t-79.5 261.5q0 173 89 272.5
t244 99.5q138 0 221.5 -73.5t88.5 -198.5h-179q-6 58 -40.5 90t-90.5 32q-71 0 -111.5 -59.5t-40.5 -162.5t40.5 -162.5t109.5 -59.5q56 0 91.5 33t42.5 93z" />
    <glyph glyph-name="Egrave" unicode="&#xc8;" horiz-adv-x="634" 
d="M579 712v-145h-330v-135h308v-143h-308v-144h338v-145h-511v712h503zM155 911h191l78 -151h-128z" />
    <glyph glyph-name="Eacute" unicode="&#xc9;" horiz-adv-x="634" 
d="M579 712v-145h-330v-135h308v-143h-308v-144h338v-145h-511v712h503zM502 911l-141 -151h-128l78 151h191z" />
    <glyph glyph-name="Ecircumflex" unicode="&#xca;" horiz-adv-x="634" 
d="M579 712v-145h-330v-135h308v-143h-308v-144h338v-145h-511v712h503zM130 760l120 151h156l120 -151h-138l-60 79l-60 -79h-138z" />
    <glyph glyph-name="Edieresis" unicode="&#xcb;" horiz-adv-x="634" 
d="M579 712v-145h-330v-135h308v-143h-308v-144h338v-145h-511v712h503zM287 900v-131h-143v131h143zM513 900v-131h-142v131h142z" />
    <glyph glyph-name="Igrave" unicode="&#xcc;" horiz-adv-x="325" 
d="M249 712v-712h-173v712h173zM-11 911h191l78 -151h-128z" />
    <glyph glyph-name="Iacute" unicode="&#xcd;" horiz-adv-x="325" 
d="M249 712v-712h-173v712h173zM336 911l-141 -151h-128l78 151h191z" />
    <glyph glyph-name="Icircumflex" unicode="&#xce;" horiz-adv-x="325" 
d="M249 712v-712h-173v712h173zM-36 760l120 151h156l120 -151h-138l-60 79l-60 -79h-138z" />
    <glyph glyph-name="Idieresis" unicode="&#xcf;" horiz-adv-x="325" 
d="M249 712v-712h-173v712h173zM121 900v-131h-143v131h143zM347 900v-131h-142v131h142z" />
    <glyph glyph-name="Eth" unicode="&#xd0;" horiz-adv-x="744" 
d="M77 417v295h253q182 0 281 -92.5t99 -263.5t-99 -263.5t-281 -92.5h-253v303h-62v114h62zM250 303v-156h76q204 0 204 209t-204 209h-76v-148h153v-114h-153z" />
    <glyph glyph-name="Ntilde" unicode="&#xd1;" horiz-adv-x="801" 
d="M726 712v-712h-250l-124 281q-66 149 -116 285h-2q8 -160 8 -300v-266h-166v712h249l125 -281q66 -153 116 -285h2q-8 133 -8 300v266h166zM507 911h89q-4 -67 -36 -105t-89 -38q-34 0 -75.5 21.5t-58.5 21.5q-37 0 -42 -43h-89q3 67 35 105t89 38q35 0 76.5 -21.5
t57.5 -21.5q37 0 43 43z" />
    <glyph glyph-name="Ograve" unicode="&#xd2;" horiz-adv-x="757" 
d="M379 728q159 0 251.5 -100t92.5 -272t-92.5 -272t-251.5 -100q-160 0 -252.5 100t-92.5 272t92.5 272t252.5 100zM379 578q-78 0 -121 -58.5t-43 -163.5t43 -163.5t121 -58.5q77 0 120 58.5t43 163.5t-43 163.5t-120 58.5zM205 911h191l78 -151h-128z" />
    <glyph glyph-name="Oacute" unicode="&#xd3;" horiz-adv-x="757" 
d="M379 728q159 0 251.5 -100t92.5 -272t-92.5 -272t-251.5 -100q-160 0 -252.5 100t-92.5 272t92.5 272t252.5 100zM379 578q-78 0 -121 -58.5t-43 -163.5t43 -163.5t121 -58.5q77 0 120 58.5t43 163.5t-43 163.5t-120 58.5zM552 911l-141 -151h-128l78 151h191z" />
    <glyph glyph-name="Ocircumflex" unicode="&#xd4;" horiz-adv-x="757" 
d="M379 728q159 0 251.5 -100t92.5 -272t-92.5 -272t-251.5 -100q-160 0 -252.5 100t-92.5 272t92.5 272t252.5 100zM379 578q-78 0 -121 -58.5t-43 -163.5t43 -163.5t121 -58.5q77 0 120 58.5t43 163.5t-43 163.5t-120 58.5zM180 760l120 151h156l120 -151h-138l-60 79
l-60 -79h-138z" />
    <glyph glyph-name="Otilde" unicode="&#xd5;" horiz-adv-x="757" 
d="M379 728q159 0 251.5 -100t92.5 -272t-92.5 -272t-251.5 -100q-160 0 -252.5 100t-92.5 272t92.5 272t252.5 100zM379 578q-78 0 -121 -58.5t-43 -163.5t43 -163.5t121 -58.5q77 0 120 58.5t43 163.5t-43 163.5t-120 58.5zM485 911h89q-4 -67 -36 -105t-89 -38
q-34 0 -75.5 21.5t-58.5 21.5q-37 0 -42 -43h-89q3 67 35 105t89 38q35 0 76.5 -21.5t57.5 -21.5q37 0 43 43z" />
    <glyph glyph-name="Odieresis" unicode="&#xd6;" horiz-adv-x="757" 
d="M379 728q159 0 251.5 -100t92.5 -272t-92.5 -272t-251.5 -100q-160 0 -252.5 100t-92.5 272t92.5 272t252.5 100zM379 578q-78 0 -121 -58.5t-43 -163.5t43 -163.5t121 -58.5q77 0 120 58.5t43 163.5t-43 163.5t-120 58.5zM337 900v-131h-143v131h143zM563 900v-131h-142
v131h142z" />
    <glyph glyph-name="multiply" unicode="&#xd7;" horiz-adv-x="566" 
d="M459 579l91 -91l-176 -176l176 -175l-91 -92l-176 176l-175 -176l-91 92l175 175l-175 176l91 91l175 -175z" />
    <glyph glyph-name="Oslash" unicode="&#xd8;" horiz-adv-x="757" 
d="M624 760l70 -52l-61 -83q90 -99 90 -269q0 -172 -92.5 -272t-251.5 -100q-108 0 -187 47l-58 -79l-71 52l61 83q-90 99 -90 269q0 172 92.5 272t252.5 100q109 0 186 -47zM207 356q0 -73 22 -128l245 330q-40 29 -95 29q-82 0 -127 -61t-45 -170zM379 125q82 0 127 61
t45 170q0 78 -22 129l-245 -331q40 -29 95 -29z" />
    <glyph glyph-name="Ugrave" unicode="&#xd9;" horiz-adv-x="725" 
d="M482 712h173v-436q0 -141 -76 -216.5t-217 -75.5q-140 0 -216 75.5t-76 216.5v436h173v-432q0 -70 30.5 -107t88.5 -37q59 0 89.5 37t30.5 107v432zM189 911h191l78 -151h-128z" />
    <glyph glyph-name="Uacute" unicode="&#xda;" horiz-adv-x="725" 
d="M482 712h173v-436q0 -141 -76 -216.5t-217 -75.5q-140 0 -216 75.5t-76 216.5v436h173v-432q0 -70 30.5 -107t88.5 -37q59 0 89.5 37t30.5 107v432zM535 911l-141 -151h-128l78 151h191z" />
    <glyph glyph-name="Ucircumflex" unicode="&#xdb;" horiz-adv-x="725" 
d="M482 712h173v-436q0 -141 -76 -216.5t-217 -75.5q-140 0 -216 75.5t-76 216.5v436h173v-432q0 -70 30.5 -107t88.5 -37q59 0 89.5 37t30.5 107v432zM164 760l120 151h156l120 -151h-138l-60 79l-60 -79h-138z" />
    <glyph glyph-name="Udieresis" unicode="&#xdc;" horiz-adv-x="725" 
d="M482 712h173v-436q0 -141 -76 -216.5t-217 -75.5q-140 0 -216 75.5t-76 216.5v436h173v-432q0 -70 30.5 -107t88.5 -37q59 0 89.5 37t30.5 107v432zM320 900v-131h-143v131h143zM546 900v-131h-142v131h142z" />
    <glyph glyph-name="Yacute" unicode="&#xdd;" horiz-adv-x="663" 
d="M662 712l-244 -443v-269h-173v269l-244 443h192l62 -129q43 -89 76 -179h2q30 86 75 179l62 129h192zM505 911l-141 -151h-128l78 151h191z" />
    <glyph glyph-name="Thorn" unicode="&#xde;" horiz-adv-x="654" 
d="M249 712v-108h111q133 0 202.5 -63.5t69.5 -175.5q0 -111 -69 -175t-202 -64h-112v-126h-173v712h173zM333 462h-84v-194h84q122 0 122 97t-122 97z" />
    <glyph glyph-name="germandbls" unicode="&#xdf;" horiz-adv-x="587" 
d="M298 728q106 0 168.5 -48t62.5 -129q0 -117 -123 -156v-2q153 -35 153 -188q0 -101 -63.5 -155t-176.5 -54q-19 0 -43 4v128q8 -1 19 -1q93 0 93 97q0 48 -26 73.5t-75 25.5h-11v132q95 0 95 78q0 69 -69 69q-40 0 -57.5 -25t-17.5 -79v-498h-166v509q0 103 63 161
t174 58z" />
    <glyph glyph-name="agrave" unicode="&#xe0;" horiz-adv-x="561" 
d="M275 524q231 0 231 -206v-175q0 -91 15 -143h-150q-7 28 -7 66h-2q-58 -79 -165 -79q-81 0 -128 44t-47 112q0 67 46.5 107t155.5 57q63 10 122 14v18q0 80 -71 80q-70 0 -72 -71h-160q4 77 62 126.5t170 49.5zM346 212v18q-48 -2 -90 -10q-37 -7 -53.5 -22.5
t-16.5 -42.5t17 -42.5t48 -15.5q53 0 74 30t21 85zM96 712h191l78 -148h-128z" />
    <glyph glyph-name="aacute" unicode="&#xe1;" horiz-adv-x="561" 
d="M275 524q231 0 231 -206v-175q0 -91 15 -143h-150q-7 28 -7 66h-2q-58 -79 -165 -79q-81 0 -128 44t-47 112q0 67 46.5 107t155.5 57q63 10 122 14v18q0 80 -71 80q-70 0 -72 -71h-160q4 77 62 126.5t170 49.5zM346 212v18q-48 -2 -90 -10q-37 -7 -53.5 -22.5
t-16.5 -42.5t17 -42.5t48 -15.5q53 0 74 30t21 85zM443 712l-141 -148h-128l78 148h191z" />
    <glyph glyph-name="acircumflex" unicode="&#xe2;" horiz-adv-x="561" 
d="M275 524q231 0 231 -206v-175q0 -91 15 -143h-150q-7 28 -7 66h-2q-58 -79 -165 -79q-81 0 -128 44t-47 112q0 67 46.5 107t155.5 57q63 10 122 14v18q0 80 -71 80q-70 0 -72 -71h-160q4 77 62 126.5t170 49.5zM346 212v18q-48 -2 -90 -10q-37 -7 -53.5 -22.5
t-16.5 -42.5t17 -42.5t48 -15.5q53 0 74 30t21 85zM465 564h-138l-58 76l-58 -76h-138l118 148h156z" />
    <glyph glyph-name="atilde" unicode="&#xe3;" horiz-adv-x="561" 
d="M275 524q231 0 231 -206v-175q0 -91 15 -143h-150q-7 28 -7 66h-2q-58 -79 -165 -79q-81 0 -128 44t-47 112q0 67 46.5 107t155.5 57q63 10 122 14v18q0 80 -71 80q-70 0 -72 -71h-160q4 77 62 126.5t170 49.5zM346 212v18q-48 -2 -90 -10q-37 -7 -53.5 -22.5
t-16.5 -42.5t17 -42.5t48 -15.5q53 0 74 30t21 85zM375 712h89q-4 -67 -36 -105t-89 -38q-34 0 -75.5 21.5t-58.5 21.5q-37 0 -42 -43h-89q3 67 35 105t89 38q35 0 76.5 -21.5t57.5 -21.5q37 0 43 43z" />
    <glyph glyph-name="adieresis" unicode="&#xe4;" horiz-adv-x="561" 
d="M275 524q231 0 231 -206v-175q0 -91 15 -143h-150q-7 28 -7 66h-2q-58 -79 -165 -79q-81 0 -128 44t-47 112q0 67 46.5 107t155.5 57q63 10 122 14v18q0 80 -71 80q-70 0 -72 -71h-160q4 77 62 126.5t170 49.5zM346 212v18q-48 -2 -90 -10q-37 -7 -53.5 -22.5
t-16.5 -42.5t17 -42.5t48 -15.5q53 0 74 30t21 85zM228 712v-131h-143v131h143zM454 712v-131h-142v131h142z" />
    <glyph glyph-name="aring" unicode="&#xe5;" horiz-adv-x="561" 
d="M275 524q231 0 231 -206v-175q0 -91 15 -143h-150q-7 28 -7 66h-2q-58 -79 -165 -79q-81 0 -128 44t-47 112q0 67 46.5 107t155.5 57q63 10 122 14v18q0 80 -71 80q-70 0 -72 -71h-160q4 77 62 126.5t170 49.5zM346 212v18q-48 -2 -90 -10q-37 -7 -53.5 -22.5
t-16.5 -42.5t17 -42.5t48 -15.5q53 0 74 30t21 85zM269 780q47 0 80.5 -33.5t33.5 -80.5t-33.5 -80t-80.5 -33t-80.5 33t-33.5 80t33.5 80.5t80.5 33.5zM269 722q-23 0 -39.5 -16.5t-16.5 -39.5t16.5 -39.5t39.5 -16.5t39.5 16.5t16.5 39.5t-16.5 39.5t-39.5 16.5z" />
    <glyph glyph-name="ae" unicode="&#xe6;" horiz-adv-x="895" 
d="M607 95q34 0 55.5 17t26.5 44h169q-15 -74 -83 -123t-166 -49q-123 0 -190 85q-59 -85 -191 -85q-96 0 -151 44.5t-55 114.5q0 87 67 128t213 41h55v27q0 80 -77 80q-74 0 -76 -71h-160q4 77 63.5 126.5t173.5 49.5q113 0 168 -54q64 54 158 54q88 0 150.5 -43.5
t89.5 -119.5q18 -53 18 -141h-353q5 -125 95 -125zM357 212v12h-47q-67 0 -95.5 -17.5t-28.5 -52.5q0 -28 18 -45t51 -17q102 0 102 120zM607 415q-81 0 -94 -104h186q-4 52 -29.5 78t-62.5 26z" />
    <glyph glyph-name="ccedilla" unicode="&#xe7;" horiz-adv-x="575" 
d="M297 110q34 0 55.5 25t23.5 69h173q-8 -93 -67 -151.5t-155 -67.5l-28 -45q15 5 33 5q39 0 63 -21t24 -57q0 -43 -33.5 -71t-94.5 -28q-65 0 -120 32l26 53q44 -22 81 -22q44 0 44 31q0 15 -11.5 24t-32.5 9q-18 0 -31 -6l-29 27l42 70q-106 11 -168 83t-62 186
q0 123 72 196t193 73q107 0 176.5 -58t77.5 -152h-172q-4 40 -25.5 62.5t-55.5 22.5q-43 0 -67.5 -38t-24.5 -106q0 -69 24.5 -107t68.5 -38z" />
    <glyph glyph-name="egrave" unicode="&#xe8;" horiz-adv-x="584" 
d="M292 95q35 0 58 17t27 44h169q-16 -74 -84.5 -123t-167.5 -49q-125 0 -194.5 76t-69.5 198q0 116 70 191t192 75q89 0 152 -43.5t90 -119.5q20 -54 20 -141h-361q5 -125 99 -125zM292 415q-82 0 -96 -101h191q-5 51 -31 76t-64 25zM387 564h-128l-141 148h191z" />
    <glyph glyph-name="eacute" unicode="&#xe9;" horiz-adv-x="584" 
d="M292 95q35 0 58 17t27 44h169q-16 -74 -84.5 -123t-167.5 -49q-125 0 -194.5 76t-69.5 198q0 116 70 191t192 75q89 0 152 -43.5t90 -119.5q20 -54 20 -141h-361q5 -125 99 -125zM292 415q-82 0 -96 -101h191q-5 51 -31 76t-64 25zM465 712l-141 -148h-128l78 148h191z
" />
    <glyph glyph-name="ecircumflex" unicode="&#xea;" horiz-adv-x="584" 
d="M292 95q35 0 58 17t27 44h169q-16 -74 -84.5 -123t-167.5 -49q-125 0 -194.5 76t-69.5 198q0 116 70 191t192 75q89 0 152 -43.5t90 -119.5q20 -54 20 -141h-361q5 -125 99 -125zM292 415q-82 0 -96 -101h191q-5 51 -31 76t-64 25zM291 640l-58 -76h-138l118 148h156
l118 -148h-138z" />
    <glyph glyph-name="edieresis" unicode="&#xeb;" horiz-adv-x="584" 
d="M292 95q35 0 58 17t27 44h169q-16 -74 -84.5 -123t-167.5 -49q-125 0 -194.5 76t-69.5 198q0 116 70 191t192 75q89 0 152 -43.5t90 -119.5q20 -54 20 -141h-361q5 -125 99 -125zM292 415q-82 0 -96 -101h191q-5 51 -31 76t-64 25zM250 712v-131h-143v131h143zM476 712
v-131h-142v131h142z" />
    <glyph glyph-name="igrave" unicode="&#xec;" horiz-adv-x="288" 
d="M227 508v-508h-166v508h166zM-29 712h191l78 -148h-128z" />
    <glyph glyph-name="iacute" unicode="&#xed;" horiz-adv-x="288" 
d="M227 508v-508h-166v508h166zM317 712l-141 -148h-128l78 148h191z" />
    <glyph glyph-name="icircumflex" unicode="&#xee;" horiz-adv-x="288" 
d="M227 508v-508h-166v508h166zM217 712l108 -146h-130l-51 71l-50 -71h-131l108 146h146z" />
    <glyph glyph-name="idieresis" unicode="&#xef;" horiz-adv-x="288" 
d="M227 508v-508h-166v508h166zM120 712v-131h-133v131h133zM300 712v-131h-132v131h132z" />
    <glyph glyph-name="eth" unicode="&#xf0;" horiz-adv-x="597" 
d="M567 262q0 -129 -72.5 -203.5t-197.5 -74.5q-122 0 -194.5 69.5t-72.5 186.5q0 120 61.5 191.5t165.5 71.5q33 0 66 -12v2q-27 32 -74 74l-129 -48l-26 68l91 34q-26 20 -62 45l138 62q37 -24 71 -51l126 47l26 -68l-90 -34q173 -163 173 -360zM300 107q44 0 69.5 39
t25.5 106q0 68 -25.5 106.5t-69.5 38.5t-69.5 -38.5t-25.5 -106.5q0 -67 25.5 -106t69.5 -39z" />
    <glyph glyph-name="ntilde" unicode="&#xf1;" 
d="M366 521q87 0 136.5 -53.5t49.5 -155.5v-312h-166v294q0 98 -74 98q-40 0 -62.5 -32.5t-22.5 -96.5v-263h-166v508h155v-61h2q56 74 148 74zM413 712h89q-4 -67 -36 -105t-89 -38q-34 0 -75.5 21.5t-58.5 21.5q-37 0 -42 -43h-89q3 67 35 105t89 38q35 0 76.5 -21.5
t57.5 -21.5q37 0 43 43z" />
    <glyph glyph-name="ograve" unicode="&#xf2;" horiz-adv-x="604" 
d="M302 524q125 0 198.5 -73t73.5 -197t-73.5 -197t-198.5 -73t-198.5 73t-73.5 197t73.5 197t198.5 73zM302 398q-46 0 -71.5 -38.5t-25.5 -105.5t25.5 -105.5t71.5 -38.5t71.5 38.5t25.5 105.5t-25.5 105.5t-71.5 38.5zM129 712h191l78 -148h-128z" />
    <glyph glyph-name="oacute" unicode="&#xf3;" horiz-adv-x="604" 
d="M302 524q125 0 198.5 -73t73.5 -197t-73.5 -197t-198.5 -73t-198.5 73t-73.5 197t73.5 197t198.5 73zM302 398q-46 0 -71.5 -38.5t-25.5 -105.5t25.5 -105.5t71.5 -38.5t71.5 38.5t25.5 105.5t-25.5 105.5t-71.5 38.5zM475 712l-141 -148h-128l78 148h191z" />
    <glyph glyph-name="ocircumflex" unicode="&#xf4;" horiz-adv-x="604" 
d="M302 524q125 0 198.5 -73t73.5 -197t-73.5 -197t-198.5 -73t-198.5 73t-73.5 197t73.5 197t198.5 73zM302 398q-46 0 -71.5 -38.5t-25.5 -105.5t25.5 -105.5t71.5 -38.5t71.5 38.5t25.5 105.5t-25.5 105.5t-71.5 38.5zM498 564h-138l-58 76l-58 -76h-138l118 148h156z
" />
    <glyph glyph-name="otilde" unicode="&#xf5;" horiz-adv-x="604" 
d="M302 524q125 0 198.5 -73t73.5 -197t-73.5 -197t-198.5 -73t-198.5 73t-73.5 197t73.5 197t198.5 73zM302 398q-46 0 -71.5 -38.5t-25.5 -105.5t25.5 -105.5t71.5 -38.5t71.5 38.5t25.5 105.5t-25.5 105.5t-71.5 38.5zM408 712h89q-4 -67 -36 -105t-89 -38
q-34 0 -75.5 21.5t-58.5 21.5q-37 0 -42 -43h-89q3 67 35 105t89 38q35 0 76.5 -21.5t57.5 -21.5q37 0 43 43z" />
    <glyph glyph-name="odieresis" unicode="&#xf6;" horiz-adv-x="604" 
d="M302 524q125 0 198.5 -73t73.5 -197t-73.5 -197t-198.5 -73t-198.5 73t-73.5 197t73.5 197t198.5 73zM302 398q-46 0 -71.5 -38.5t-25.5 -105.5t25.5 -105.5t71.5 -38.5t71.5 38.5t25.5 105.5t-25.5 105.5t-71.5 38.5zM260 712v-131h-143v131h143zM486 712v-131h-142v131
h142z" />
    <glyph glyph-name="divide" unicode="&#xf7;" horiz-adv-x="566" 
d="M353 558v-117h-140v117h140zM507 381v-129h-448v129h448zM353 193v-118h-140v118h140z" />
    <glyph glyph-name="oslash" unicode="&#xf8;" horiz-adv-x="604" 
d="M487 566l61 -46l-50 -67q76 -73 76 -199q0 -124 -73.5 -197t-198.5 -73q-73 0 -133 27l-51 -69l-61 44l50 68q-77 74 -77 200q0 124 73.5 197t198.5 73q75 0 134 -28zM302 406q-51 0 -79.5 -41t-28.5 -111q0 -41 11 -76l155 209q-25 19 -58 19zM302 102q50 0 79 41
t29 111q0 39 -11 74l-154 -208q24 -18 57 -18z" />
    <glyph glyph-name="ugrave" unicode="&#xf9;" 
d="M242 -13q-87 0 -136.5 53.5t-49.5 155.5v312h166v-294q0 -98 74 -98q40 0 62.5 32.5t22.5 96.5v263h166v-508h-155v61h-2q-56 -74 -148 -74zM131 712h191l78 -148h-128z" />
    <glyph glyph-name="uacute" unicode="&#xfa;" 
d="M242 -13q-87 0 -136.5 53.5t-49.5 155.5v312h166v-294q0 -98 74 -98q40 0 62.5 32.5t22.5 96.5v263h166v-508h-155v61h-2q-56 -74 -148 -74zM478 712l-141 -148h-128l78 148h191z" />
    <glyph glyph-name="ucircumflex" unicode="&#xfb;" 
d="M242 -13q-87 0 -136.5 53.5t-49.5 155.5v312h166v-294q0 -98 74 -98q40 0 62.5 32.5t22.5 96.5v263h166v-508h-155v61h-2q-56 -74 -148 -74zM500 564h-138l-58 76l-58 -76h-138l118 148h156z" />
    <glyph glyph-name="udieresis" unicode="&#xfc;" 
d="M242 -13q-87 0 -136.5 53.5t-49.5 155.5v312h166v-294q0 -98 74 -98q40 0 62.5 32.5t22.5 96.5v263h166v-508h-155v61h-2q-56 -74 -148 -74zM263 712v-131h-143v131h143zM489 712v-131h-142v131h142z" />
    <glyph glyph-name="yacute" unicode="&#xfd;" horiz-adv-x="530" 
d="M369 508h169l-169 -499q-38 -113 -92 -157t-152 -44q-43 0 -86 9v126q24 -8 51 -8q35 0 56 17.5t21 48.5q0 23 -28 98l-149 409h179l49 -170q32 -118 51 -212h2q21 106 51 213zM440 712l-141 -148h-128l78 148h191z" />
    <glyph glyph-name="thorn" unicode="&#xfe;" horiz-adv-x="610" 
d="M227 712v-259h2q48 69 137 69q98 0 156 -73t58 -195t-57.5 -195t-154.5 -73q-91 0 -139 69h-2v-240h-166v897h166zM311 396q-42 0 -67.5 -38t-25.5 -104t25.5 -104t67.5 -38q43 0 69 38.5t26 103.5t-26 103.5t-69 38.5z" />
    <glyph glyph-name="ydieresis" unicode="&#xff;" horiz-adv-x="530" 
d="M369 508h169l-169 -499q-38 -113 -92 -157t-152 -44q-43 0 -86 9v126q24 -8 51 -8q35 0 56 17.5t21 48.5q0 23 -28 98l-149 409h179l49 -170q32 -118 51 -212h2q21 106 51 213zM225 712v-131h-143v131h143zM451 712v-131h-142v131h142z" />
    <glyph glyph-name="Amacron" unicode="&#x100;" horiz-adv-x="715" 
d="M532 0l-45 151h-258l-46 -151h-182l243 712h227l243 -712h-182zM272 293h173l-15 48q-43 142 -72 259h-2q-30 -124 -70 -259zM537 879v-103h-359v103h359z" />
    <glyph glyph-name="amacron" unicode="&#x101;" horiz-adv-x="561" 
d="M275 524q231 0 231 -206v-175q0 -91 15 -143h-150q-7 28 -7 66h-2q-58 -79 -165 -79q-81 0 -128 44t-47 112q0 67 46.5 107t155.5 57q63 10 122 14v18q0 80 -71 80q-70 0 -72 -71h-160q4 77 62 126.5t170 49.5zM346 212v18q-48 -2 -90 -10q-37 -7 -53.5 -22.5
t-16.5 -42.5t17 -42.5t48 -15.5q53 0 74 30t21 85zM449 692v-103h-359v103h359z" />
    <glyph glyph-name="Abreve" unicode="&#x102;" horiz-adv-x="715" 
d="M532 0l-45 151h-258l-46 -151h-182l243 712h227l243 -712h-182zM272 293h173l-15 48q-43 142 -72 259h-2q-30 -124 -70 -259zM357 757q-81 0 -127.5 40.5t-50.5 113.5h106q3 -58 72 -58q67 0 72 58h106q-4 -73 -50.5 -113.5t-127.5 -40.5z" />
    <glyph glyph-name="abreve" unicode="&#x103;" horiz-adv-x="561" 
d="M275 524q231 0 231 -206v-175q0 -91 15 -143h-150q-7 28 -7 66h-2q-58 -79 -165 -79q-81 0 -128 44t-47 112q0 67 46.5 107t155.5 57q63 10 122 14v18q0 80 -71 80q-70 0 -72 -71h-160q4 77 62 126.5t170 49.5zM346 212v18q-48 -2 -90 -10q-37 -7 -53.5 -22.5
t-16.5 -42.5t17 -42.5t48 -15.5q53 0 74 30t21 85zM341 712h106q-4 -73 -50.5 -113.5t-127.5 -40.5t-127.5 40.5t-50.5 113.5h106q3 -58 72 -58q67 0 72 58z" />
    <glyph glyph-name="Aogonek" unicode="&#x104;" horiz-adv-x="715" 
d="M682 -109q18 0 35 7v-82q-42 -15 -93 -15q-61 0 -92 24t-31 67q0 32 20.5 57.5t63.5 50.5h-53l-45 151h-258l-46 -151h-182l243 712h227l243 -712q-65 -43 -65 -79q0 -30 33 -30zM272 293h173l-15 48q-43 142 -72 259h-2q-30 -124 -70 -259z" />
    <glyph glyph-name="aogonek" unicode="&#x105;" horiz-adv-x="561" 
d="M489 -109q18 0 35 7v-82q-42 -15 -93 -15q-61 0 -92 24t-31 67q0 32 20.5 57.5t63.5 50.5h-21q-7 28 -7 66h-2q-58 -79 -165 -79q-81 0 -128 44t-47 112q0 67 46.5 107t155.5 57q63 10 122 14v18q0 80 -71 80q-70 0 -72 -71h-160q4 77 62 126.5t170 49.5q231 0 231 -206
v-175q0 -91 15 -143q-65 -43 -65 -79q0 -30 33 -30zM346 212v18q-48 -2 -90 -10q-37 -7 -53.5 -22.5t-16.5 -42.5t17 -42.5t48 -15.5q53 0 74 30t21 85z" />
    <glyph glyph-name="Cacute" unicode="&#x106;" horiz-adv-x="715" 
d="M367 728q138 0 221.5 -73.5t88.5 -198.5h-179q-6 58 -40.5 90t-90.5 32q-71 0 -111.5 -59.5t-40.5 -162.5t40.5 -162.5t109.5 -59.5q56 0 91.5 33t42.5 93h181q-10 -132 -94 -204t-221 -72q-154 0 -242.5 99.5t-88.5 272.5t89 272.5t244 99.5zM540 911l-141 -151h-128
l78 151h191z" />
    <glyph glyph-name="cacute" unicode="&#x107;" horiz-adv-x="575" 
d="M295 524q107 0 176.5 -58t77.5 -152h-172q-4 40 -25.5 62.5t-55.5 22.5q-43 0 -67.5 -38t-24.5 -106q0 -69 24.5 -107t68.5 -38q34 0 55.5 25t23.5 69h173q-8 -101 -76.5 -160.5t-176.5 -59.5q-121 0 -193.5 73.5t-72.5 197.5q0 123 72 196t193 73zM469 712l-141 -148
h-128l78 148h191z" />
    <glyph glyph-name="Ccircumflex" unicode="&#x108;" horiz-adv-x="715" 
d="M367 728q138 0 221.5 -73.5t88.5 -198.5h-179q-6 58 -40.5 90t-90.5 32q-71 0 -111.5 -59.5t-40.5 -162.5t40.5 -162.5t109.5 -59.5q56 0 91.5 33t42.5 93h181q-10 -132 -94 -204t-221 -72q-154 0 -242.5 99.5t-88.5 272.5t89 272.5t244 99.5zM169 760l120 151h156
l120 -151h-138l-60 79l-60 -79h-138z" />
    <glyph glyph-name="ccircumflex" unicode="&#x109;" horiz-adv-x="575" 
d="M295 524q107 0 176.5 -58t77.5 -152h-172q-4 40 -25.5 62.5t-55.5 22.5q-43 0 -67.5 -38t-24.5 -106q0 -69 24.5 -107t68.5 -38q34 0 55.5 25t23.5 69h173q-8 -101 -76.5 -160.5t-176.5 -59.5q-121 0 -193.5 73.5t-72.5 197.5q0 123 72 196t193 73zM491 564h-138l-58 76
l-58 -76h-138l118 148h156z" />
    <glyph glyph-name="Cdotaccent" unicode="&#x10a;" horiz-adv-x="715" 
d="M367 728q138 0 221.5 -73.5t88.5 -198.5h-179q-6 58 -40.5 90t-90.5 32q-71 0 -111.5 -59.5t-40.5 -162.5t40.5 -162.5t109.5 -59.5q56 0 91.5 33t42.5 93h181q-10 -132 -94 -204t-221 -72q-154 0 -242.5 99.5t-88.5 272.5t89 272.5t244 99.5zM450 900v-131h-166v131h166
z" />
    <glyph glyph-name="cdotaccent" unicode="&#x10b;" horiz-adv-x="575" 
d="M295 524q107 0 176.5 -58t77.5 -152h-172q-4 40 -25.5 62.5t-55.5 22.5q-43 0 -67.5 -38t-24.5 -106q0 -69 24.5 -107t68.5 -38q34 0 55.5 25t23.5 69h173q-8 -101 -76.5 -160.5t-176.5 -59.5q-121 0 -193.5 73.5t-72.5 197.5q0 123 72 196t193 73zM378 712v-131h-166
v131h166z" />
    <glyph glyph-name="Ccaron" unicode="&#x10c;" horiz-adv-x="715" 
d="M367 728q138 0 221.5 -73.5t88.5 -198.5h-179q-6 58 -40.5 90t-90.5 32q-71 0 -111.5 -59.5t-40.5 -162.5t40.5 -162.5t109.5 -59.5q56 0 91.5 33t42.5 93h181q-10 -132 -94 -204t-221 -72q-154 0 -242.5 99.5t-88.5 272.5t89 272.5t244 99.5zM565 911l-120 -151h-156
l-120 151h138l60 -79l60 79h138z" />
    <glyph glyph-name="ccaron" unicode="&#x10d;" horiz-adv-x="575" 
d="M295 524q107 0 176.5 -58t77.5 -152h-172q-4 40 -25.5 62.5t-55.5 22.5q-43 0 -67.5 -38t-24.5 -106q0 -69 24.5 -107t68.5 -38q34 0 55.5 25t23.5 69h173q-8 -101 -76.5 -160.5t-176.5 -59.5q-121 0 -193.5 73.5t-72.5 197.5q0 123 72 196t193 73zM491 712l-118 -148
h-156l-118 148h138l58 -76l58 76h138z" />
    <glyph glyph-name="Dcaron" unicode="&#x10e;" horiz-adv-x="742" 
d="M76 0v712h252q183 0 281.5 -92.5t98.5 -263.5t-98.5 -263.5t-281.5 -92.5h-252zM324 565h-76v-418h76q204 0 204 209t-204 209zM538 911l-120 -151h-156l-120 151h138l60 -79l60 79h138z" />
    <glyph glyph-name="dcaron" unicode="&#x10f;" horiz-adv-x="610" 
d="M549 712v-712h-160v63h-2q-47 -77 -141 -77q-98 0 -157 73t-59 195t57.5 195t154.5 73q91 0 139 -69h2v259h166zM299 396q-43 0 -69 -38.5t-26 -103.5t26 -103.5t69 -38.5q42 0 67.5 38t25.5 104t-25.5 104t-67.5 38zM731 712l-60 -178h-94l24 178h130z" />
    <glyph glyph-name="Dcroat" unicode="&#x110;" horiz-adv-x="744" 
d="M77 417v295h253q182 0 281 -92.5t99 -263.5t-99 -263.5t-281 -92.5h-253v303h-62v114h62zM250 303v-156h76q204 0 204 209t-204 209h-76v-148h153v-114h-153z" />
    <glyph glyph-name="dcroat" unicode="&#x111;" horiz-adv-x="604" 
d="M615 650v-78h-66v-572h-160v63h-2q-47 -77 -141 -77q-98 0 -157 73t-59 195t57.5 195t154.5 73q91 0 139 -69h2v119h-128v78h128v62h166v-62h66zM299 112q42 0 67.5 38t25.5 104t-25.5 104t-67.5 38q-43 0 -69 -38.5t-26 -103.5t26 -103.5t69 -38.5z" />
    <glyph glyph-name="Emacron" unicode="&#x112;" horiz-adv-x="634" 
d="M579 712v-145h-330v-135h308v-143h-308v-144h338v-145h-511v712h503zM508 879v-103h-359v103h359z" />
    <glyph glyph-name="emacron" unicode="&#x113;" horiz-adv-x="584" 
d="M292 95q35 0 58 17t27 44h169q-16 -74 -84.5 -123t-167.5 -49q-125 0 -194.5 76t-69.5 198q0 116 70 191t192 75q89 0 152 -43.5t90 -119.5q20 -54 20 -141h-361q5 -125 99 -125zM292 415q-82 0 -96 -101h191q-5 51 -31 76t-64 25zM471 692v-103h-359v103h359z" />
    <glyph glyph-name="Ebreve" unicode="&#x114;" horiz-adv-x="634" 
d="M579 712v-145h-330v-135h308v-143h-308v-144h338v-145h-511v712h503zM400 911h106q-4 -73 -50.5 -113.5t-127.5 -40.5t-127.5 40.5t-50.5 113.5h106q3 -58 72 -58q67 0 72 58z" />
    <glyph glyph-name="ebreve" unicode="&#x115;" horiz-adv-x="584" 
d="M292 95q35 0 58 17t27 44h169q-16 -74 -84.5 -123t-167.5 -49q-125 0 -194.5 76t-69.5 198q0 116 70 191t192 75q89 0 152 -43.5t90 -119.5q20 -54 20 -141h-361q5 -125 99 -125zM292 415q-82 0 -96 -101h191q-5 51 -31 76t-64 25zM291 558q-81 0 -127.5 40.5
t-50.5 113.5h106q3 -58 72 -58q67 0 72 58h106q-4 -73 -50.5 -113.5t-127.5 -40.5z" />
    <glyph glyph-name="Edotaccent" unicode="&#x116;" horiz-adv-x="634" 
d="M579 712v-145h-330v-135h308v-143h-308v-144h338v-145h-511v712h503zM411 900v-131h-166v131h166z" />
    <glyph glyph-name="edotaccent" unicode="&#x117;" horiz-adv-x="584" 
d="M292 95q35 0 58 17t27 44h169q-16 -74 -84.5 -123t-167.5 -49q-125 0 -194.5 76t-69.5 198q0 116 70 191t192 75q89 0 152 -43.5t90 -119.5q20 -54 20 -141h-361q5 -125 99 -125zM292 415q-82 0 -96 -101h191q-5 51 -31 76t-64 25zM374 712v-131h-166v131h166z" />
    <glyph glyph-name="Eogonek" unicode="&#x118;" horiz-adv-x="634" 
d="M555 -109q17 0 35 7v-82q-42 -15 -93 -15q-61 0 -92 24t-31 67q0 32 20.5 57.5t63.5 50.5h-382v712h503v-145h-330v-135h308v-143h-308v-144h338v-145q-65 -43 -65 -79q0 -30 33 -30z" />
    <glyph glyph-name="eogonek" unicode="&#x119;" horiz-adv-x="584" 
d="M466 27q-58 -57 -58 -101q0 -35 34 -35q18 0 34 7v-82q-40 -15 -92 -15q-62 0 -93 24t-31 67q0 52 59 92v2q-16 -2 -25 -2q-125 0 -194.5 76t-69.5 198q0 116 70 191t192 75q89 0 152 -43.5t90 -119.5q20 -54 20 -141h-361q5 -125 99 -125q35 0 58 17t27 44h169
q-14 -66 -80 -129zM292 415q-82 0 -96 -101h191q-5 51 -31 76t-64 25z" />
    <glyph glyph-name="Ecaron" unicode="&#x11a;" horiz-adv-x="634" 
d="M579 712v-145h-330v-135h308v-143h-308v-144h338v-145h-511v712h503zM526 911l-120 -151h-156l-120 151h138l60 -79l60 79h138z" />
    <glyph glyph-name="ecaron" unicode="&#x11b;" horiz-adv-x="584" 
d="M292 95q35 0 58 17t27 44h169q-16 -74 -84.5 -123t-167.5 -49q-125 0 -194.5 76t-69.5 198q0 116 70 191t192 75q89 0 152 -43.5t90 -119.5q20 -54 20 -141h-361q5 -125 99 -125zM292 415q-82 0 -96 -101h191q-5 51 -31 76t-64 25zM369 564h-156l-118 148h138l58 -76
l58 76h138z" />
    <glyph glyph-name="Gcircumflex" unicode="&#x11c;" horiz-adv-x="751" 
d="M379 728q133 0 215 -65.5t92 -177.5h-186q-16 98 -121 98q-76 0 -120 -61.5t-44 -168.5q0 -109 43.5 -172t119.5 -63q67 0 104 38.5t39 109.5h-153v134h315v-400h-148v72h-2q-64 -86 -198 -86q-139 0 -220 98t-81 269q0 174 92.5 274.5t252.5 100.5zM174 760l120 151h156
l120 -151h-138l-60 79l-60 -79h-138z" />
    <glyph glyph-name="gcircumflex" unicode="&#x11d;" horiz-adv-x="602" 
d="M240 522q90 0 144 -82h2v68h155v-475q0 -115 -66.5 -171.5t-188.5 -56.5q-106 0 -166 43t-68 120h161q5 -56 76 -56q44 0 67.5 28t23.5 93v47h-2q-53 -74 -141 -74q-95 0 -151 70t-56 188t57 188t153 70zM292 392q-41 0 -65.5 -34.5t-24.5 -93.5q0 -58 24.5 -92.5
t65.5 -34.5q43 0 68 34.5t25 92.5q0 59 -25 93.5t-68 34.5zM479 564h-138l-58 76l-58 -76h-138l118 148h156z" />
    <glyph glyph-name="Gbreve" unicode="&#x11e;" horiz-adv-x="751" 
d="M379 728q133 0 215 -65.5t92 -177.5h-186q-16 98 -121 98q-76 0 -120 -61.5t-44 -168.5q0 -109 43.5 -172t119.5 -63q67 0 104 38.5t39 109.5h-153v134h315v-400h-148v72h-2q-64 -86 -198 -86q-139 0 -220 98t-81 269q0 174 92.5 274.5t252.5 100.5zM444 911h106
q-4 -73 -50.5 -113.5t-127.5 -40.5t-127.5 40.5t-50.5 113.5h106q3 -58 72 -58q67 0 72 58z" />
    <glyph glyph-name="gbreve" unicode="&#x11f;" horiz-adv-x="602" 
d="M240 522q90 0 144 -82h2v68h155v-475q0 -115 -66.5 -171.5t-188.5 -56.5q-106 0 -166 43t-68 120h161q5 -56 76 -56q44 0 67.5 28t23.5 93v47h-2q-53 -74 -141 -74q-95 0 -151 70t-56 188t57 188t153 70zM292 392q-41 0 -65.5 -34.5t-24.5 -93.5q0 -58 24.5 -92.5
t65.5 -34.5q43 0 68 34.5t25 92.5q0 59 -25 93.5t-68 34.5zM355 712h106q-4 -73 -50.5 -113.5t-127.5 -40.5t-127.5 40.5t-50.5 113.5h106q3 -58 72 -58q67 0 72 58z" />
    <glyph glyph-name="Gdotaccent" unicode="&#x120;" horiz-adv-x="751" 
d="M379 728q133 0 215 -65.5t92 -177.5h-186q-16 98 -121 98q-76 0 -120 -61.5t-44 -168.5q0 -109 43.5 -172t119.5 -63q67 0 104 38.5t39 109.5h-153v134h315v-400h-148v72h-2q-64 -86 -198 -86q-139 0 -220 98t-81 269q0 174 92.5 274.5t252.5 100.5zM455 900v-131h-166
v131h166z" />
    <glyph glyph-name="gdotaccent" unicode="&#x121;" horiz-adv-x="602" 
d="M240 522q90 0 144 -82h2v68h155v-475q0 -115 -66.5 -171.5t-188.5 -56.5q-106 0 -166 43t-68 120h161q5 -56 76 -56q44 0 67.5 28t23.5 93v47h-2q-53 -74 -141 -74q-95 0 -151 70t-56 188t57 188t153 70zM292 392q-41 0 -65.5 -34.5t-24.5 -93.5q0 -58 24.5 -92.5
t65.5 -34.5q43 0 68 34.5t25 92.5q0 59 -25 93.5t-68 34.5zM366 712v-131h-166v131h166z" />
    <glyph glyph-name="Gcommaaccent" unicode="&#x122;" horiz-adv-x="751" 
d="M379 728q133 0 215 -65.5t92 -177.5h-186q-16 98 -121 98q-76 0 -120 -61.5t-44 -168.5q0 -109 43.5 -172t119.5 -63q67 0 104 38.5t39 109.5h-153v134h315v-400h-148v72h-2q-64 -86 -198 -86q-139 0 -220 98t-81 269q0 174 92.5 274.5t252.5 100.5zM440 -54v-112
l-71 -109h-63l46 109h-46v112h134z" />
    <glyph glyph-name="gcommaaccent" unicode="&#x123;" horiz-adv-x="602" 
d="M240 522q90 0 144 -82h2v68h155v-475q0 -115 -66.5 -171.5t-188.5 -56.5q-106 0 -166 43t-68 120h161q5 -56 76 -56q44 0 67.5 28t23.5 93v47h-2q-53 -74 -141 -74q-95 0 -151 70t-56 188t57 188t153 70zM292 392q-41 0 -65.5 -34.5t-24.5 -93.5q0 -58 24.5 -92.5
t65.5 -34.5q43 0 68 34.5t25 92.5q0 59 -25 93.5t-68 34.5zM350 793l-46 -109h46v-112h-134v112l71 109h63z" />
    <glyph glyph-name="Hcircumflex" unicode="&#x124;" horiz-adv-x="761" 
d="M685 712v-712h-173v295h-263v-295h-173v712h173v-270h263v270h173zM182 760l120 151h156l120 -151h-138l-60 79l-60 -79h-138z" />
    <glyph glyph-name="hcircumflex" unicode="&#x125;" 
d="M227 712v-255h2q52 64 137 64q87 0 136.5 -53.5t49.5 -155.5v-312h-166v294q0 98 -74 98q-40 0 -62.5 -32.5t-22.5 -96.5v-263h-166v712h166zM105 760l120 151h156l120 -151h-138l-60 79l-60 -79h-138z" />
    <glyph glyph-name="Hbar" unicode="&#x126;" horiz-adv-x="761" 
d="M738 644v-80h-53v-564h-173v295h-263v-295h-173v564h-53v80h53v68h173v-68h263v68h173v-68h53zM512 442v122h-263v-122h263z" />
    <glyph glyph-name="hbar" unicode="&#x127;" 
d="M366 521q87 0 136.5 -53.5t49.5 -155.5v-312h-166v294q0 98 -74 98q-40 0 -62.5 -32.5t-22.5 -96.5v-263h-166v572h-71v73h71v67h166v-67h122v-73h-122v-115h2q52 64 137 64z" />
    <glyph glyph-name="Itilde" unicode="&#x128;" horiz-adv-x="325" 
d="M249 712v-712h-173v712h173zM268 911h89q-4 -67 -36 -105t-89 -38q-34 0 -75.5 21.5t-58.5 21.5q-37 0 -42 -43h-89q3 67 35 105t89 38q35 0 76.5 -21.5t57.5 -21.5q37 0 43 43z" />
    <glyph glyph-name="itilde" unicode="&#x129;" horiz-adv-x="288" 
d="M227 508v-508h-166v508h166zM239 712h78q-4 -68 -33 -106t-82 -38q-31 0 -66 22.5t-51 22.5q-33 0 -36 -45h-77q3 68 32 106t81 38q31 0 66.5 -22.5t50.5 -22.5q32 0 37 45z" />
    <glyph glyph-name="Imacron" unicode="&#x12a;" horiz-adv-x="325" 
d="M249 712v-712h-173v712h173zM342 879v-103h-359v103h359z" />
    <glyph glyph-name="imacron" unicode="&#x12b;" horiz-adv-x="288" 
d="M227 508v-508h-166v508h166zM294 695v-103h-300v103h300z" />
    <glyph glyph-name="Ibreve" unicode="&#x12c;" horiz-adv-x="325" 
d="M249 712v-712h-173v712h173zM234 911h106q-4 -73 -50.5 -113.5t-127.5 -40.5t-127.5 40.5t-50.5 113.5h106q3 -58 72 -58q67 0 72 58z" />
    <glyph glyph-name="ibreve" unicode="&#x12d;" horiz-adv-x="288" 
d="M227 508v-508h-166v508h166zM206 712h100q-3 -73 -45 -113.5t-117 -40.5t-117 40t-45 114h100q5 -60 62 -60t62 60z" />
    <glyph glyph-name="Iogonek" unicode="&#x12e;" horiz-adv-x="325" 
d="M217 -109q18 0 35 7v-82q-42 -15 -93 -15q-61 0 -92 24t-31 67q0 32 20.5 57.5t63.5 50.5h-44v712h173v-712q-65 -43 -65 -79q0 -30 33 -30z" />
    <glyph glyph-name="iogonek" unicode="&#x12f;" horiz-adv-x="288" 
d="M195 -109q17 0 35 7v-82q-42 -15 -93 -15q-61 0 -92 24t-31 67q0 32 20.5 57.5t63.5 50.5h-37v508h166v-508q-65 -43 -65 -79q0 -30 33 -30zM227 712v-131h-166v131h166z" />
    <glyph glyph-name="Idotaccent" unicode="&#x130;" horiz-adv-x="325" 
d="M249 712v-712h-173v712h173zM245 900v-131h-166v131h166z" />
    <glyph glyph-name="dotlessi" unicode="&#x131;" horiz-adv-x="288" 
d="M227 508v-508h-166v508h166z" />
    <glyph glyph-name="IJ" unicode="&#x132;" horiz-adv-x="735" 
d="M249 712v-712h-173v712h173zM491 712h173v-471q0 -128 -59.5 -188.5t-186.5 -60.5q-46 0 -78 9v144q23 -5 45 -5q58 0 82 29.5t24 109.5v433z" />
    <glyph glyph-name="ij" unicode="&#x133;" horiz-adv-x="577" 
d="M227 508v-508h-166v508h166zM350 508h166v-507q0 -98 -50.5 -144.5t-136.5 -46.5q-47 0 -80 9v116q12 -3 26 -3q39 0 57 21t18 76v479zM227 712v-131h-166v131h166zM516 712v-131h-166v131h166z" />
    <glyph glyph-name="Jcircumflex" unicode="&#x134;" horiz-adv-x="410" 
d="M166 712h173v-471q0 -128 -59.5 -188.5t-186.5 -60.5q-47 0 -78 9v144q23 -5 45 -5q58 0 82 29.5t24 109.5v433zM56 760l120 151h156l120 -151h-138l-60 79l-60 -79h-138z" />
    <glyph glyph-name="jcircumflex" unicode="&#x135;" horiz-adv-x="289" 
d="M62 508h166v-507q0 -98 -50.5 -144.5t-136.5 -46.5q-47 0 -80 9v116q12 -3 26 -3q39 0 57 21t18 76v479zM218 712l108 -146h-130l-51 71l-50 -71h-131l108 146h146z" />
    <glyph glyph-name="Kcommaaccent" unicode="&#x136;" horiz-adv-x="690" 
d="M667 712l-259 -337l278 -375h-218l-217 328h-2v-328h-173v712h173v-307h2l209 307h207zM412 -54v-112l-71 -109h-63l46 109h-46v112h134z" />
    <glyph glyph-name="kcommaaccent" unicode="&#x137;" horiz-adv-x="566" 
d="M376 271l200 -271h-204l-143 230h-2v-230h-166v712h166v-404h2l136 200h192zM230 -166v112h134v-112l-71 -109h-63l46 109h-46z" />
    <glyph glyph-name="kgreenlandic" unicode="&#x138;" horiz-adv-x="577" 
d="M376 271l200 -271h-204l-143 230h-2v-230h-166v508h166v-200h2l136 200h192z" />
    <glyph glyph-name="Lacute" unicode="&#x139;" horiz-adv-x="580" 
d="M249 712v-565h322v-147h-495v712h173zM365 911l-141 -151h-128l78 151h191z" />
    <glyph glyph-name="lacute" unicode="&#x13a;" horiz-adv-x="288" 
d="M227 712v-712h-166v712h166zM330 916l-141 -148h-128l78 148h191z" />
    <glyph glyph-name="Lcommaaccent" unicode="&#x13b;" horiz-adv-x="580" 
d="M249 712v-565h322v-147h-495v712h173zM391 -54v-112l-71 -109h-63l46 109h-46v112h134z" />
    <glyph glyph-name="lcommaaccent" unicode="&#x13c;" horiz-adv-x="288" 
d="M227 712v-712h-166v712h166zM211 -54v-112l-71 -109h-63l46 109h-46v112h134z" />
    <glyph glyph-name="Lcaron" unicode="&#x13d;" horiz-adv-x="580" 
d="M249 712v-565h322v-147h-495v712h173zM439 712l-60 -229h-94l24 229h130z" />
    <glyph glyph-name="lcaron" unicode="&#x13e;" horiz-adv-x="288" 
d="M227 712v-712h-166v712h166zM409 712l-60 -178h-94l24 178h130z" />
    <glyph glyph-name="Ldot" unicode="&#x13f;" horiz-adv-x="663" 
d="M249 712v-565h322v-147h-495v712h173zM579 529v-184h-176v184h176z" />
    <glyph glyph-name="ldot" unicode="&#x140;" horiz-adv-x="513" 
d="M227 712v-712h-166v712h166zM489 448v-184h-176v184h176z" />
    <glyph glyph-name="Lslash" unicode="&#x141;" horiz-adv-x="587" 
d="M256 147h322v-147h-495v278l-71 -42v134l71 42v300h173v-212l144 86v-134l-144 -86v-219z" />
    <glyph glyph-name="lslash" unicode="&#x142;" horiz-adv-x="352" 
d="M342 524v-127l-83 -49v-348h-166v269l-83 -49v127l83 49v316h166v-237z" />
    <glyph glyph-name="Nacute" unicode="&#x143;" horiz-adv-x="801" 
d="M726 712v-712h-250l-124 281q-66 149 -116 285h-2q8 -160 8 -300v-266h-166v712h249l125 -281q66 -153 116 -285h2q-8 133 -8 300v266h166zM574 911l-141 -151h-128l78 151h191z" />
    <glyph glyph-name="nacute" unicode="&#x144;" 
d="M366 521q87 0 136.5 -53.5t49.5 -155.5v-312h-166v294q0 98 -74 98q-40 0 -62.5 -32.5t-22.5 -96.5v-263h-166v508h155v-61h2q56 74 148 74zM480 712l-141 -148h-128l78 148h191z" />
    <glyph glyph-name="Ncommaaccent" unicode="&#x145;" horiz-adv-x="801" 
d="M726 712v-712h-250l-124 281q-66 149 -116 285h-2q8 -160 8 -300v-266h-166v712h249l125 -281q66 -153 116 -285h2q-8 133 -8 300v266h166zM468 -54v-112l-71 -109h-63l46 109h-46v112h134z" />
    <glyph glyph-name="ncommaaccent" unicode="&#x146;" 
d="M366 521q87 0 136.5 -53.5t49.5 -155.5v-312h-166v294q0 98 -74 98q-40 0 -62.5 -32.5t-22.5 -96.5v-263h-166v508h155v-61h2q56 74 148 74zM374 -54v-112l-71 -109h-63l46 109h-46v112h134z" />
    <glyph glyph-name="Ncaron" unicode="&#x147;" horiz-adv-x="801" 
d="M726 712v-712h-250l-124 281q-66 149 -116 285h-2q8 -160 8 -300v-266h-166v712h249l125 -281q66 -153 116 -285h2q-8 133 -8 300v266h166zM598 911l-120 -151h-156l-120 151h138l60 -79l60 79h138z" />
    <glyph glyph-name="ncaron" unicode="&#x148;" 
d="M366 521q87 0 136.5 -53.5t49.5 -155.5v-312h-166v294q0 98 -74 98q-40 0 -62.5 -32.5t-22.5 -96.5v-263h-166v508h155v-61h2q56 74 148 74zM503 712l-118 -148h-156l-118 148h138l58 -76l58 76h138z" />
    <glyph glyph-name="napostrophe" unicode="&#x149;" horiz-adv-x="778" 
d="M535 521q87 0 137 -53.5t50 -155.5v-312h-166v294q0 98 -75 98q-39 0 -61.5 -32.5t-22.5 -96.5v-263h-166v508h154v-61h2q55 74 148 74zM207 712v-156l-77 -152h-83l59 152h-49v156h150z" />
    <glyph glyph-name="Eng" unicode="&#x14a;" horiz-adv-x="760" 
d="M518 712h166v-716q0 -97 -50.5 -143.5t-137.5 -46.5q-46 0 -79 9v114q12 -3 28 -3q68 0 68 59q0 17 -7 34t-36 68l-122 218q-66 121 -114 228h-2q10 -120 10 -252v-281h-166v712h214l122 -218q67 -122 113 -228h2q-9 127 -9 253v193z" />
    <glyph glyph-name="eng" unicode="&#x14b;" 
d="M370 522q81 0 128 -47q29 -29 41.5 -69t12.5 -108v-295q0 -98 -50.5 -145t-136.5 -47q-45 0 -80 9v117q12 -3 26 -3q39 0 57 21t18 75v252q0 32 -4 53.5t-21.5 39.5t-48.5 18q-39 0 -62 -32.5t-23 -96.5v-264h-166v508h162v-56h2q55 70 145 70z" />
    <glyph glyph-name="Omacron" unicode="&#x14c;" horiz-adv-x="757" 
d="M379 728q159 0 251.5 -100t92.5 -272t-92.5 -272t-251.5 -100q-160 0 -252.5 100t-92.5 272t92.5 272t252.5 100zM379 578q-78 0 -121 -58.5t-43 -163.5t43 -163.5t121 -58.5q77 0 120 58.5t43 163.5t-43 163.5t-120 58.5zM558 879v-103h-359v103h359z" />
    <glyph glyph-name="omacron" unicode="&#x14d;" horiz-adv-x="604" 
d="M302 524q125 0 198.5 -73t73.5 -197t-73.5 -197t-198.5 -73t-198.5 73t-73.5 197t73.5 197t198.5 73zM302 398q-46 0 -71.5 -38.5t-25.5 -105.5t25.5 -105.5t71.5 -38.5t71.5 38.5t25.5 105.5t-25.5 105.5t-71.5 38.5zM481 692v-103h-359v103h359z" />
    <glyph glyph-name="Obreve" unicode="&#x14e;" horiz-adv-x="757" 
d="M379 728q159 0 251.5 -100t92.5 -272t-92.5 -272t-251.5 -100q-160 0 -252.5 100t-92.5 272t92.5 272t252.5 100zM379 578q-78 0 -121 -58.5t-43 -163.5t43 -163.5t121 -58.5q77 0 120 58.5t43 163.5t-43 163.5t-120 58.5zM451 911h106q-4 -73 -50.5 -113.5t-127.5 -40.5
t-127.5 40.5t-50.5 113.5h106q3 -58 72 -58q67 0 72 58z" />
    <glyph glyph-name="obreve" unicode="&#x14f;" horiz-adv-x="604" 
d="M302 524q125 0 198.5 -73t73.5 -197t-73.5 -197t-198.5 -73t-198.5 73t-73.5 197t73.5 197t198.5 73zM302 398q-46 0 -71.5 -38.5t-25.5 -105.5t25.5 -105.5t71.5 -38.5t71.5 38.5t25.5 105.5t-25.5 105.5t-71.5 38.5zM374 712h106q-4 -73 -50.5 -113.5t-127.5 -40.5
t-127.5 40.5t-50.5 113.5h106q3 -58 72 -58q67 0 72 58z" />
    <glyph glyph-name="Ohungarumlaut" unicode="&#x150;" horiz-adv-x="757" 
d="M379 728q159 0 251.5 -100t92.5 -272t-92.5 -272t-251.5 -100q-160 0 -252.5 100t-92.5 272t92.5 272t252.5 100zM379 578q-78 0 -121 -58.5t-43 -163.5t43 -163.5t121 -58.5q77 0 120 58.5t43 163.5t-43 163.5t-120 58.5zM442 911l-141 -151h-123l98 151h166zM648 911
l-141 -151h-124l99 151h166z" />
    <glyph glyph-name="ohungarumlaut" unicode="&#x151;" horiz-adv-x="604" 
d="M302 524q125 0 198.5 -73t73.5 -197t-73.5 -197t-198.5 -73t-198.5 73t-73.5 197t73.5 197t198.5 73zM302 398q-46 0 -71.5 -38.5t-25.5 -105.5t25.5 -105.5t71.5 -38.5t71.5 38.5t25.5 105.5t-25.5 105.5t-71.5 38.5zM376 712l-141 -148h-123l98 148h166zM582 712
l-141 -148h-124l99 148h166z" />
    <glyph glyph-name="OE" unicode="&#x152;" horiz-adv-x="1021" 
d="M967 712v-145h-331v-135h307v-143h-307v-144h338v-145h-555q-184 0 -284.5 93t-100.5 263t100.5 263t284.5 93h548zM466 145v422h-47q-205 0 -205 -211t205 -211h47z" />
    <glyph glyph-name="oe" unicode="&#x153;" horiz-adv-x="938" 
d="M650 95q34 0 55.5 17t25.5 44h170q-16 -74 -84 -123t-166 -49q-111 0 -176 70q-67 -70 -176 -70q-123 0 -196 73t-73 197t73 197t196 73q109 0 176 -70q65 70 174 70q89 0 151.5 -43.5t88.5 -119.5q19 -56 19 -141h-354q5 -125 96 -125zM302 110q46 0 71.5 38.5
t25.5 105.5t-25.5 105.5t-71.5 38.5t-71.5 -38.5t-25.5 -105.5t25.5 -105.5t71.5 -38.5zM649 415q-78 0 -92 -101h184q-4 51 -29 76t-63 25z" />
    <glyph glyph-name="Racute" unicode="&#x154;" horiz-adv-x="685" 
d="M76 0v712h289q262 0 262 -203q0 -65 -35 -110.5t-96 -63.5v-2q38 -13 61 -43.5t48 -99.5l69 -190h-186l-54 161q-19 56 -44.5 77.5t-75.5 21.5h-65v-260h-173zM337 578h-88v-187h95q112 0 112 96q0 91 -119 91zM507 911l-141 -151h-128l78 151h191z" />
    <glyph glyph-name="racute" unicode="&#x155;" horiz-adv-x="415" 
d="M360 516q26 0 48 -6v-142q-28 5 -51 5q-63 0 -96.5 -38.5t-33.5 -111.5v-223h-166v508h154v-70h2q51 78 143 78zM393 712l-141 -148h-128l78 148h191z" />
    <glyph glyph-name="Rcommaaccent" unicode="&#x156;" horiz-adv-x="685" 
d="M76 0v712h289q262 0 262 -203q0 -65 -35 -110.5t-96 -63.5v-2q38 -13 61 -43.5t48 -99.5l69 -190h-186l-54 161q-19 56 -44.5 77.5t-75.5 21.5h-65v-260h-173zM337 578h-88v-187h95q112 0 112 96q0 91 -119 91zM421 -54v-112l-71 -109h-63l46 109h-46v112h134z" />
    <glyph glyph-name="rcommaaccent" unicode="&#x157;" horiz-adv-x="415" 
d="M360 516q26 0 48 -6v-142q-28 5 -51 5q-63 0 -96.5 -38.5t-33.5 -111.5v-223h-166v508h154v-70h2q51 78 143 78zM211 -54v-112l-71 -109h-63l46 109h-46v112h134z" />
    <glyph glyph-name="Rcaron" unicode="&#x158;" horiz-adv-x="685" 
d="M76 0v712h289q262 0 262 -203q0 -65 -35 -110.5t-96 -63.5v-2q38 -13 61 -43.5t48 -99.5l69 -190h-186l-54 161q-19 56 -44.5 77.5t-75.5 21.5h-65v-260h-173zM337 578h-88v-187h95q112 0 112 96q0 91 -119 91zM531 911l-120 -151h-156l-120 151h138l60 -79l60 79h138z
" />
    <glyph glyph-name="rcaron" unicode="&#x159;" horiz-adv-x="415" 
d="M360 516q26 0 48 -6v-142q-28 5 -51 5q-63 0 -96.5 -38.5t-33.5 -111.5v-223h-166v508h154v-70h2q51 78 143 78zM415 712l-118 -148h-156l-118 148h138l58 -76l58 76h138z" />
    <glyph glyph-name="Sacute" unicode="&#x15a;" horiz-adv-x="645" 
d="M315 728q135 0 207 -59.5t72 -173.5h-180q0 48 -27.5 73.5t-78.5 25.5q-43 0 -68.5 -18.5t-25.5 -48.5q0 -34 29.5 -50.5t112.5 -37.5q50 -12 80.5 -21.5t68 -28t58.5 -40.5t35.5 -57t14.5 -80q0 -104 -79 -166t-212 -62q-140 0 -219 65t-79 183h184q0 -110 118 -110
q49 0 77 20t28 55q0 37 -27.5 53t-108.5 37q-52 13 -80.5 22t-68 27.5t-60 39.5t-35.5 55.5t-15 79.5q0 98 75.5 157.5t203.5 59.5zM488 911l-141 -151h-128l78 151h191z" />
    <glyph glyph-name="sacute" unicode="&#x15b;" horiz-adv-x="542" 
d="M267 524q107 0 166 -43t59 -127h-158q0 65 -68 65q-59 0 -59 -40q0 -22 20.5 -33t83.5 -27q38 -10 58.5 -16.5t51.5 -20.5t47.5 -30.5t29 -43.5t12.5 -61q0 -74 -63 -118.5t-173 -44.5q-243 0 -243 181h167q0 -72 78 -72q31 0 47.5 11.5t16.5 30.5q0 26 -23.5 38.5
t-93.5 30.5q-35 9 -53 14t-47 18.5t-43 28.5t-25.5 41t-11.5 59q0 71 59 115t165 44zM441 712l-141 -148h-128l78 148h191z" />
    <glyph glyph-name="Scircumflex" unicode="&#x15c;" horiz-adv-x="645" 
d="M315 728q135 0 207 -59.5t72 -173.5h-180q0 48 -27.5 73.5t-78.5 25.5q-43 0 -68.5 -18.5t-25.5 -48.5q0 -34 29.5 -50.5t112.5 -37.5q50 -12 80.5 -21.5t68 -28t58.5 -40.5t35.5 -57t14.5 -80q0 -104 -79 -166t-212 -62q-140 0 -219 65t-79 183h184q0 -110 118 -110
q49 0 77 20t28 55q0 37 -27.5 53t-108.5 37q-52 13 -80.5 22t-68 27.5t-60 39.5t-35.5 55.5t-15 79.5q0 98 75.5 157.5t203.5 59.5zM116 760l120 151h156l120 -151h-138l-60 79l-60 -79h-138z" />
    <glyph glyph-name="scircumflex" unicode="&#x15d;" horiz-adv-x="542" 
d="M267 524q107 0 166 -43t59 -127h-158q0 65 -68 65q-59 0 -59 -40q0 -22 20.5 -33t83.5 -27q38 -10 58.5 -16.5t51.5 -20.5t47.5 -30.5t29 -43.5t12.5 -61q0 -74 -63 -118.5t-173 -44.5q-243 0 -243 181h167q0 -72 78 -72q31 0 47.5 11.5t16.5 30.5q0 26 -23.5 38.5
t-93.5 30.5q-35 9 -53 14t-47 18.5t-43 28.5t-25.5 41t-11.5 59q0 71 59 115t165 44zM463 564h-138l-58 76l-58 -76h-138l118 148h156z" />
    <glyph glyph-name="Scedilla" unicode="&#x15e;" horiz-adv-x="645" 
d="M613 212q0 -99 -71.5 -160t-192.5 -67l-28 -45q15 5 33 5q39 0 63 -21t24 -57q0 -43 -33.5 -71t-94.5 -28q-65 0 -120 32l26 53q44 -22 81 -22q44 0 44 31q0 15 -11.5 24t-32.5 9q-18 0 -31 -6l-29 27l42 69q-122 10 -190 74t-68 173h184q0 -110 118 -110q49 0 77 20
t28 55q0 37 -27.5 53t-108.5 37q-52 13 -80.5 22t-68 27.5t-60 39.5t-35.5 55.5t-15 79.5q0 98 75.5 157.5t203.5 59.5q135 0 207 -59.5t72 -173.5h-180q0 48 -27.5 73.5t-78.5 25.5q-43 0 -68.5 -18.5t-25.5 -48.5q0 -34 29.5 -50.5t112.5 -37.5q50 -12 80.5 -21.5t68 -28
t58.5 -40.5t35.5 -57t14.5 -80z" />
    <glyph glyph-name="scedilla" unicode="&#x15f;" horiz-adv-x="542" 
d="M510 147q0 -69 -54.5 -112.5t-150.5 -49.5l-28 -45q15 5 33 5q39 0 63 -21t24 -57q0 -43 -33.5 -71t-94.5 -28q-65 0 -120 32l26 53q44 -22 81 -22q44 0 44 31q0 15 -11.5 24t-32.5 9q-18 0 -31 -6l-29 27l42 69q-207 14 -207 180h167q0 -72 78 -72q31 0 47.5 11.5
t16.5 30.5q0 26 -23.5 38.5t-93.5 30.5q-35 9 -53 14t-47 18.5t-43 28.5t-25.5 41t-11.5 59q0 71 59 115t165 44q107 0 166 -43t59 -127h-158q0 65 -68 65q-59 0 -59 -40q0 -22 20.5 -33t83.5 -27q38 -10 58.5 -16.5t51.5 -20.5t47.5 -30.5t29 -43.5t12.5 -61z" />
    <glyph glyph-name="Scaron" unicode="&#x160;" horiz-adv-x="645" 
d="M315 728q135 0 207 -59.5t72 -173.5h-180q0 48 -27.5 73.5t-78.5 25.5q-43 0 -68.5 -18.5t-25.5 -48.5q0 -34 29.5 -50.5t112.5 -37.5q50 -12 80.5 -21.5t68 -28t58.5 -40.5t35.5 -57t14.5 -80q0 -104 -79 -166t-212 -62q-140 0 -219 65t-79 183h184q0 -110 118 -110
q49 0 77 20t28 55q0 37 -27.5 53t-108.5 37q-52 13 -80.5 22t-68 27.5t-60 39.5t-35.5 55.5t-15 79.5q0 98 75.5 157.5t203.5 59.5zM512 911l-120 -151h-156l-120 151h138l60 -79l60 79h138z" />
    <glyph glyph-name="scaron" unicode="&#x161;" horiz-adv-x="542" 
d="M267 524q107 0 166 -43t59 -127h-158q0 65 -68 65q-59 0 -59 -40q0 -22 20.5 -33t83.5 -27q38 -10 58.5 -16.5t51.5 -20.5t47.5 -30.5t29 -43.5t12.5 -61q0 -74 -63 -118.5t-173 -44.5q-243 0 -243 181h167q0 -72 78 -72q31 0 47.5 11.5t16.5 30.5q0 26 -23.5 38.5
t-93.5 30.5q-35 9 -53 14t-47 18.5t-43 28.5t-25.5 41t-11.5 59q0 71 59 115t165 44zM463 712l-118 -148h-156l-118 148h138l58 -76l58 76h138z" />
    <glyph glyph-name="Tcedilla" unicode="&#x162;" horiz-adv-x="627" 
d="M618 712v-147h-218v-565h-173v565h-218v147h609zM381 -54v-112l-71 -109h-63l46 109h-46v112h134z" />
    <glyph glyph-name="tcedilla" unicode="&#x163;" horiz-adv-x="378" 
d="M316 123q20 0 37 5v-125q-40 -11 -84 -11q-96 0 -139.5 40t-43.5 129v226h-79v121h79v137h166v-137h96v-121h-96v-188q0 -41 15 -58.5t49 -17.5zM144 -166v112h134v-112l-71 -109h-63l46 109h-46z" />
    <glyph glyph-name="Tcaron" unicode="&#x164;" horiz-adv-x="627" 
d="M618 712v-147h-218v-565h-173v565h-218v147h609zM511 911l-120 -151h-156l-120 151h138l60 -79l60 79h138z" />
    <glyph glyph-name="tcaron" unicode="&#x165;" horiz-adv-x="378" 
d="M348 387h-96v-188q0 -41 15 -58.5t49 -17.5q20 0 37 5v-125q-40 -11 -84 -11q-96 0 -139.5 40t-43.5 129v226h-79v121h79v137h166v-137h96v-121zM304 712h130l-60 -178h-94z" />
    <glyph glyph-name="Tbar" unicode="&#x166;" horiz-adv-x="627" 
d="M618 565h-218v-173h132v-114h-132v-278h-173v278h-132v114h132v173h-218v147h609v-147z" />
    <glyph glyph-name="tbar" unicode="&#x167;" horiz-adv-x="378" 
d="M316 120q20 0 37 5v-122q-40 -11 -84 -11q-96 0 -139 39.5t-43 129.5v59h-76v89h76v82h-80v117h80v137h165v-137h96v-117h-96v-82h91v-89h-91v-24q0 -41 14.5 -58.5t49.5 -17.5z" />
    <glyph glyph-name="Utilde" unicode="&#x168;" horiz-adv-x="725" 
d="M482 712h173v-436q0 -141 -76 -216.5t-217 -75.5q-140 0 -216 75.5t-76 216.5v436h173v-432q0 -70 30.5 -107t88.5 -37q59 0 89.5 37t30.5 107v432zM468 911h89q-4 -67 -36 -105t-89 -38q-34 0 -75.5 21.5t-58.5 21.5q-37 0 -42 -43h-89q3 67 35 105t89 38
q35 0 76.5 -21.5t57.5 -21.5q37 0 43 43z" />
    <glyph glyph-name="utilde" unicode="&#x169;" 
d="M242 -13q-87 0 -136.5 53.5t-49.5 155.5v312h166v-294q0 -98 74 -98q40 0 62.5 32.5t22.5 96.5v263h166v-508h-155v61h-2q-56 -74 -148 -74zM410 712h89q-4 -67 -36 -105t-89 -38q-34 0 -75.5 21.5t-58.5 21.5q-37 0 -42 -43h-89q3 67 35 105t89 38q35 0 76.5 -21.5
t57.5 -21.5q37 0 43 43z" />
    <glyph glyph-name="Umacron" unicode="&#x16a;" horiz-adv-x="725" 
d="M482 712h173v-436q0 -141 -76 -216.5t-217 -75.5q-140 0 -216 75.5t-76 216.5v436h173v-432q0 -70 30.5 -107t88.5 -37q59 0 89.5 37t30.5 107v432zM541 879v-103h-359v103h359z" />
    <glyph glyph-name="umacron" unicode="&#x16b;" 
d="M242 -13q-87 0 -136.5 53.5t-49.5 155.5v312h166v-294q0 -98 74 -98q40 0 62.5 32.5t22.5 96.5v263h166v-508h-155v61h-2q-56 -74 -148 -74zM484 692v-103h-359v103h359z" />
    <glyph glyph-name="Ubreve" unicode="&#x16c;" horiz-adv-x="725" 
d="M482 712h173v-436q0 -141 -76 -216.5t-217 -75.5q-140 0 -216 75.5t-76 216.5v436h173v-432q0 -70 30.5 -107t88.5 -37q59 0 89.5 37t30.5 107v432zM434 911h106q-4 -73 -50.5 -113.5t-127.5 -40.5t-127.5 40.5t-50.5 113.5h106q3 -58 72 -58q67 0 72 58z" />
    <glyph glyph-name="ubreve" unicode="&#x16d;" 
d="M242 -13q-87 0 -136.5 53.5t-49.5 155.5v312h166v-294q0 -98 74 -98q40 0 62.5 32.5t22.5 96.5v263h166v-508h-155v61h-2q-56 -74 -148 -74zM376 712h106q-4 -73 -50.5 -113.5t-127.5 -40.5t-127.5 40.5t-50.5 113.5h106q3 -58 72 -58q67 0 72 58z" />
    <glyph glyph-name="Uring" unicode="&#x16e;" horiz-adv-x="725" 
d="M482 712h173v-436q0 -141 -76 -216.5t-217 -75.5q-140 0 -216 75.5t-76 216.5v436h173v-432q0 -70 30.5 -107t88.5 -37q59 0 89.5 37t30.5 107v432zM362 979q47 0 80.5 -33.5t33.5 -80.5t-33.5 -80t-80.5 -33t-80.5 33t-33.5 80t33.5 80.5t80.5 33.5zM362 921
q-23 0 -39.5 -16.5t-16.5 -39.5t16.5 -39.5t39.5 -16.5t39.5 16.5t16.5 39.5t-16.5 39.5t-39.5 16.5z" />
    <glyph glyph-name="uring" unicode="&#x16f;" 
d="M242 -13q-87 0 -136.5 53.5t-49.5 155.5v312h166v-294q0 -98 74 -98q40 0 62.5 32.5t22.5 96.5v263h166v-508h-155v61h-2q-56 -74 -148 -74zM304 780q47 0 80.5 -33.5t33.5 -80.5t-33.5 -80t-80.5 -33t-80.5 33t-33.5 80t33.5 80.5t80.5 33.5zM304 722q-23 0 -39.5 -16.5
t-16.5 -39.5t16.5 -39.5t39.5 -16.5t39.5 16.5t16.5 39.5t-16.5 39.5t-39.5 16.5z" />
    <glyph glyph-name="Uhungarumlaut" unicode="&#x170;" horiz-adv-x="725" 
d="M482 712h173v-436q0 -141 -76 -216.5t-217 -75.5q-140 0 -216 75.5t-76 216.5v436h173v-432q0 -70 30.5 -107t88.5 -37q59 0 89.5 37t30.5 107v432zM426 911l-141 -151h-123l98 151h166zM632 911l-141 -151h-124l99 151h166z" />
    <glyph glyph-name="uhungarumlaut" unicode="&#x171;" 
d="M242 -13q-87 0 -136.5 53.5t-49.5 155.5v312h166v-294q0 -98 74 -98q40 0 62.5 32.5t22.5 96.5v263h166v-508h-155v61h-2q-56 -74 -148 -74zM378 712l-141 -148h-123l98 148h166zM584 712l-141 -148h-124l99 148h166z" />
    <glyph glyph-name="Uogonek" unicode="&#x172;" horiz-adv-x="725" 
d="M482 712h173v-436q0 -163 -115 -255q-64 -52 -64 -96q0 -35 33 -35q21 0 34 6v-80q-38 -15 -89 -15q-122 0 -122 93q0 49 58 90v2q-18 -2 -28 -2q-140 0 -216 75.5t-76 216.5v436h173v-432q0 -70 30.5 -107t88.5 -37q59 0 89.5 37t30.5 107v432z" />
    <glyph glyph-name="uogonek" unicode="&#x173;" 
d="M516 -109q18 0 35 7v-82q-42 -15 -93 -15q-61 0 -92 24t-31 67q0 32 20.5 57.5t63.5 50.5h-27v61h-2q-56 -74 -148 -74q-87 0 -136.5 53.5t-49.5 155.5v312h166v-294q0 -98 74 -98q40 0 62.5 32.5t22.5 96.5v263h166v-508h1q-65 -43 -65 -79q0 -30 33 -30z" />
    <glyph glyph-name="Wcircumflex" unicode="&#x174;" horiz-adv-x="991" 
d="M983 712l-144 -712h-230l-60 285q-33 147 -53 286h-2q-19 -130 -52 -286l-60 -285h-230l-144 712h168l48 -257q29 -158 46 -298h2q25 152 57 298l56 257h221l56 -257q34 -153 56 -298h2q19 148 47 298l47 257h169zM296 760l120 151h156l120 -151h-138l-60 79l-60 -79
h-138z" />
    <glyph glyph-name="wcircumflex" unicode="&#x175;" horiz-adv-x="848" 
d="M844 508l-113 -508h-227l-41 191q-23 109 -38 213h-2q-15 -104 -38 -213l-41 -191h-227l-113 508h162l33 -187q20 -111 32 -216h2q18 119 41 217l42 186h216l42 -186q23 -98 41 -217h2q12 105 32 216l33 187h162zM620 564h-138l-58 76l-58 -76h-138l118 148h156z" />
    <glyph glyph-name="Ycircumflex" unicode="&#x176;" horiz-adv-x="663" 
d="M662 712l-244 -443v-269h-173v269l-244 443h192l62 -129q43 -89 76 -179h2q30 86 75 179l62 129h192zM133 760l120 151h156l120 -151h-138l-60 79l-60 -79h-138z" />
    <glyph glyph-name="ycircumflex" unicode="&#x177;" horiz-adv-x="530" 
d="M369 508h169l-169 -499q-38 -113 -92 -157t-152 -44q-43 0 -86 9v126q24 -8 51 -8q35 0 56 17.5t21 48.5q0 23 -28 98l-149 409h179l49 -170q32 -118 51 -212h2q21 106 51 213zM463 564h-138l-58 76l-58 -76h-138l118 148h156z" />
    <glyph glyph-name="Ydieresis" unicode="&#x178;" horiz-adv-x="663" 
d="M662 712l-244 -443v-269h-173v269l-244 443h192l62 -129q43 -89 76 -179h2q30 86 75 179l62 129h192zM290 900v-131h-143v131h143zM516 900v-131h-142v131h142z" />
    <glyph glyph-name="Zacute" unicode="&#x179;" horiz-adv-x="593" 
d="M556 712v-150l-329 -416v-2h345v-144h-552v150l329 416v2h-314v144h521zM469 911l-141 -151h-128l78 151h191z" />
    <glyph glyph-name="zacute" unicode="&#x17a;" horiz-adv-x="502" 
d="M465 508v-131l-232 -248v-2h240v-127h-444v131l231 248v2h-222v127h427zM423 712l-141 -148h-128l78 148h191z" />
    <glyph glyph-name="Zdotaccent" unicode="&#x17b;" horiz-adv-x="593" 
d="M556 712v-150l-329 -416v-2h345v-144h-552v150l329 416v2h-314v144h521zM379 900v-131h-166v131h166z" />
    <glyph glyph-name="zdotaccent" unicode="&#x17c;" horiz-adv-x="502" 
d="M465 508v-131l-232 -248v-2h240v-127h-444v131l231 248v2h-222v127h427zM332 712v-131h-166v131h166z" />
    <glyph glyph-name="Zcaron" unicode="&#x17d;" horiz-adv-x="593" 
d="M556 712v-150l-329 -416v-2h345v-144h-552v150l329 416v2h-314v144h521zM494 911l-120 -151h-156l-120 151h138l60 -79l60 79h138z" />
    <glyph glyph-name="zcaron" unicode="&#x17e;" horiz-adv-x="502" 
d="M465 508v-131l-232 -248v-2h240v-127h-444v131l231 248v2h-222v127h427zM445 712l-118 -148h-156l-118 148h138l58 -76l58 76h138z" />
    <glyph glyph-name="longs" unicode="&#x17f;" horiz-adv-x="361" 
d="M273 721q43 0 79 -9v-114q-10 2 -24 2q-38 0 -56 -17t-18 -57v-526h-164v387h-81v121h81v37q0 176 183 176z" />
    <glyph glyph-name="Schwa" unicode="&#x18f;" horiz-adv-x="775" 
d="M379 728q169 0 265.5 -101t96.5 -270q0 -163 -96 -268t-260 -105q-161 0 -256 100.5t-95 270.5q0 34 3 55h524q-6 91 -56.5 134.5t-126.5 43.5q-58 0 -94.5 -26.5t-45.5 -69.5h-185q22 102 107.5 169t218.5 67zM385 125q68 0 113.5 39.5t58.5 116.5h-340
q10 -77 56 -116.5t112 -39.5z" />
    <glyph glyph-name="florin" unicode="&#x192;" horiz-adv-x="628" 
d="M520 724q45 0 83 -10v-120q-23 6 -53 6q-40 0 -62.5 -19.5t-33.5 -64.5l-12 -48h111v-118h-139l-85 -334q-28 -110 -82 -159t-148 -49q-43 0 -74 9v121q22 -6 50 -6q40 0 61 20.5t35 77.5l82 320h-101v118h129l16 62q26 100 79.5 147t143.5 47z" />
    <glyph glyph-name="Aringacute" unicode="&#x1fa;" horiz-adv-x="715" 
d="M532 0l-45 151h-258l-46 -151h-182l243 712h227l243 -712h-182zM272 293h173l-15 48q-43 142 -72 259h-2q-30 -124 -70 -259zM357 733q-47 0 -80.5 33.5t-33.5 80.5t33.5 80.5t80.5 33.5q48 0 81 -33.5t33 -80.5t-33 -80.5t-81 -33.5zM357 903q-23 0 -39.5 -16.5
t-16.5 -39.5t16.5 -39.5t39.5 -16.5t39.5 16.5t16.5 39.5t-16.5 39.5t-39.5 16.5zM531 1133l-141 -151h-128l78 151h191z" />
    <glyph glyph-name="aringacute" unicode="&#x1fb;" horiz-adv-x="561" 
d="M275 524q231 0 231 -206v-175q0 -91 15 -143h-150q-7 28 -7 66h-2q-58 -79 -165 -79q-81 0 -128 44t-47 112q0 67 46.5 107t155.5 57q63 10 122 14v18q0 80 -71 80q-70 0 -72 -71h-160q4 77 62 126.5t170 49.5zM346 212v18q-48 -2 -90 -10q-37 -7 -53.5 -22.5
t-16.5 -42.5t17 -42.5t48 -15.5q53 0 74 30t21 85zM269 773q48 0 81 -33.5t33 -80.5t-33 -80.5t-81 -33.5q-47 0 -80.5 33.5t-33.5 80.5t33.5 80.5t80.5 33.5zM269 715q-23 0 -39.5 -16.5t-16.5 -39.5t16.5 -39.5t39.5 -16.5t39.5 16.5t16.5 39.5t-16.5 39.5t-39.5 16.5z
M443 942l-141 -148h-128l78 148h191z" />
    <glyph glyph-name="AEacute" unicode="&#x1fc;" horiz-adv-x="977" 
d="M664 145h266v-145h-410l-23 160h-245l-67 -160h-191l318 712h611v-145h-319l19 -135h276v-143h-256zM312 303h165l-39 269h-14zM690 911l-141 -151h-128l78 151h191z" />
    <glyph glyph-name="aeacute" unicode="&#x1fd;" horiz-adv-x="895" 
d="M607 95q34 0 55.5 17t26.5 44h169q-15 -74 -83 -123t-166 -49q-123 0 -190 85q-59 -85 -191 -85q-96 0 -151 44.5t-55 114.5q0 87 67 128t213 41h55v27q0 80 -77 80q-74 0 -76 -71h-160q4 77 63.5 126.5t173.5 49.5q113 0 168 -54q64 54 158 54q88 0 150.5 -43.5
t89.5 -119.5q18 -53 18 -141h-353q5 -125 95 -125zM357 212v12h-47q-67 0 -95.5 -17.5t-28.5 -52.5q0 -28 18 -45t51 -17q102 0 102 120zM607 415q-81 0 -94 -104h186q-4 52 -29.5 78t-62.5 26zM618 712l-141 -148h-128l78 148h191z" />
    <glyph glyph-name="Oslashacute" unicode="&#x1fe;" horiz-adv-x="757" 
d="M624 760l70 -52l-61 -83q90 -99 90 -269q0 -172 -92.5 -272t-251.5 -100q-108 0 -187 47l-58 -79l-71 52l61 83q-90 99 -90 269q0 172 92.5 272t252.5 100q109 0 186 -47zM207 356q0 -73 22 -128l245 330q-40 29 -95 29q-82 0 -127 -61t-45 -170zM379 125q82 0 127 61
t45 170q0 78 -22 129l-245 -331q40 -29 95 -29zM552 911l-141 -151h-128l78 151h191z" />
    <glyph glyph-name="oslashacute" unicode="&#x1ff;" horiz-adv-x="604" 
d="M487 566l61 -46l-50 -67q76 -73 76 -199q0 -124 -73.5 -197t-198.5 -73q-73 0 -133 27l-51 -69l-61 44l50 68q-77 74 -77 200q0 124 73.5 197t198.5 73q75 0 134 -28zM302 406q-51 0 -79.5 -41t-28.5 -111q0 -41 11 -76l155 209q-25 19 -58 19zM302 102q50 0 79 41
t29 111q0 39 -11 74l-154 -208q24 -18 57 -18zM475 712l-141 -148h-128l78 148h191z" />
    <glyph glyph-name="Scommaaccent" unicode="&#x218;" horiz-adv-x="645" 
d="M315 728q135 0 207 -59.5t72 -173.5h-180q0 48 -27.5 73.5t-78.5 25.5q-43 0 -68.5 -18.5t-25.5 -48.5q0 -34 29.5 -50.5t112.5 -37.5q50 -12 80.5 -21.5t68 -28t58.5 -40.5t35.5 -57t14.5 -80q0 -104 -79 -166t-212 -62q-140 0 -219 65t-79 183h184q0 -110 118 -110
q49 0 77 20t28 55q0 37 -27.5 53t-108.5 37q-52 13 -80.5 22t-68 27.5t-60 39.5t-35.5 55.5t-15 79.5q0 98 75.5 157.5t203.5 59.5zM384 -54v-112l-71 -109h-63l46 109h-46v112h134z" />
    <glyph glyph-name="scommaaccent" unicode="&#x219;" horiz-adv-x="542" 
d="M267 524q107 0 166 -43t59 -127h-158q0 65 -68 65q-59 0 -59 -40q0 -22 20.5 -33t83.5 -27q38 -10 58.5 -16.5t51.5 -20.5t47.5 -30.5t29 -43.5t12.5 -61q0 -74 -63 -118.5t-173 -44.5q-243 0 -243 181h167q0 -72 78 -72q31 0 47.5 11.5t16.5 30.5q0 26 -23.5 38.5
t-93.5 30.5q-35 9 -53 14t-47 18.5t-43 28.5t-25.5 41t-11.5 59q0 71 59 115t165 44zM340 -54v-112l-71 -109h-63l46 109h-46v112h134z" />
    <glyph glyph-name="Tcommaaccent" unicode="&#x21a;" horiz-adv-x="627" 
d="M618 712v-147h-218v-565h-173v565h-218v147h609zM381 -54v-112l-71 -109h-63l46 109h-46v112h134z" />
    <glyph glyph-name="tcommaaccent" unicode="&#x21b;" horiz-adv-x="378" 
d="M316 123q20 0 37 5v-125q-40 -11 -84 -11q-96 0 -139.5 40t-43.5 129v226h-79v121h79v137h166v-137h96v-121h-96v-188q0 -41 15 -58.5t49 -17.5zM144 -166v112h134v-112l-71 -109h-63l46 109h-46z" />
    <glyph glyph-name="dotlessj" unicode="&#x237;" horiz-adv-x="289" 
d="M62 508h166v-507q0 -98 -50.5 -144.5t-136.5 -46.5q-47 0 -80 9v116q12 -3 26 -3q39 0 57 21t18 76v479z" />
    <glyph glyph-name="schwa" unicode="&#x259;" horiz-adv-x="584" 
d="M287 524q126 0 196.5 -74.5t70.5 -194.5q0 -118 -70.5 -194.5t-192.5 -76.5q-120 0 -190.5 72.5t-70.5 196.5q0 20 2 38h358q-5 122 -101 122q-31 0 -51.5 -16t-25.5 -41h-169q16 72 82 120t162 48zM291 93q83 0 97 104h-192q5 -52 31 -78t64 -26z" />
    <glyph glyph-name="apostrophemod" unicode="&#x2bc;" horiz-adv-x="266" 
d="M207 712v-156l-77 -152h-83l59 152h-49v156h150z" />
    <glyph glyph-name="circumflex" unicode="&#x2c6;" horiz-adv-x="492" 
d="M442 564h-138l-58 76l-58 -76h-138l118 148h156z" />
    <glyph glyph-name="caron" unicode="&#x2c7;" horiz-adv-x="492" 
d="M442 712l-118 -148h-156l-118 148h138l58 -76l58 76h138z" />
    <glyph glyph-name="firsttonechinese" unicode="&#x2c9;" horiz-adv-x="459" 
d="M409 692v-103h-359v103h359z" />
    <glyph glyph-name="breve" unicode="&#x2d8;" horiz-adv-x="456" 
d="M300 712h106q-4 -73 -50.5 -113.5t-127.5 -40.5t-127.5 40.5t-50.5 113.5h106q3 -58 72 -58q67 0 72 58z" />
    <glyph glyph-name="dotaccent" unicode="&#x2d9;" horiz-adv-x="266" 
d="M216 712v-131h-166v131h166z" />
    <glyph glyph-name="ring" unicode="&#x2da;" horiz-adv-x="328" 
d="M164 780q47 0 80.5 -33.5t33.5 -80.5t-33.5 -80t-80.5 -33t-80.5 33t-33.5 80t33.5 80.5t80.5 33.5zM164 722q-23 0 -39.5 -16.5t-16.5 -39.5t16.5 -39.5t39.5 -16.5t39.5 16.5t16.5 39.5t-16.5 39.5t-39.5 16.5z" />
    <glyph glyph-name="ogonek" unicode="&#x2db;" horiz-adv-x="316" 
d="M134 0h129q-65 -43 -65 -79q0 -30 33 -30q17 0 35 7v-82q-42 -15 -93 -15q-61 0 -92 24t-31 67q0 32 20.5 57.5t63.5 50.5z" />
    <glyph glyph-name="tilde" unicode="&#x2dc;" horiz-adv-x="490" 
d="M351 712h89q-4 -67 -36 -105t-89 -38q-34 0 -75.5 21.5t-58.5 21.5q-37 0 -42 -43h-89q3 67 35 105t89 38q35 0 76.5 -21.5t57.5 -21.5q37 0 43 43z" />
    <glyph glyph-name="hungarumlaut" unicode="&#x2dd;" horiz-adv-x="569" 
d="M314 712l-141 -148h-123l98 148h166zM520 712l-141 -148h-124l99 148h166z" />
    <glyph glyph-name="commaturnedabovecomb" unicode="&#x312;" horiz-adv-x="0" 
d="M184 793l-46 -109h46v-112h-134v112l71 109h63z" />
    <glyph glyph-name="commaaccent" unicode="&#x326;" horiz-adv-x="0" 
d="M184 -54v-112l-71 -109h-63l46 109h-46v112h134z" />
    <glyph glyph-name="dbllowlinecomb" unicode="&#x333;" horiz-adv-x="0" 
d="M-500 -50v-84h-500v84h500zM-500 -207v-84h-500v84h500z" />
    <glyph glyph-name="numeralgreek" unicode="&#x374;" horiz-adv-x="234" 
d="M204 712l-70 -204h-104l27 204h147z" />
    <glyph glyph-name="lowernumeralgreek" unicode="&#x375;" horiz-adv-x="234" 
d="M204 112l-70 -204h-104l27 204h147z" />
    <glyph glyph-name="questiongreek" unicode="&#x37e;" horiz-adv-x="274" 
d="M226 184v-184l-91 -178h-98l69 178h-57v184h177zM225 508v-184h-176v184h176z" />
    <glyph glyph-name="tonos" unicode="&#x384;" horiz-adv-x="294" 
d="M244 732l-71 -166h-123l32 166h162z" />
    <glyph glyph-name="dieresistonos" unicode="&#x385;" horiz-adv-x="576" 
d="M179 702v-125h-129v125h129zM376 727l-56 -161h-110l31 161h135zM526 702v-125h-129v125h129z" />
    <glyph glyph-name="Alphatonos" unicode="&#x386;" horiz-adv-x="715" 
d="M532 0l-45 151h-258l-46 -151h-182l243 712h227l243 -712h-182zM272 293h173l-15 48q-43 142 -72 259h-2q-30 -124 -70 -259zM177 712l-71 -206h-123l32 206h162z" />
    <glyph glyph-name="anoteleia" unicode="&#x387;" horiz-adv-x="274" 
d="M225 508v-184h-176v184h176z" />
    <glyph glyph-name="Epsilontonos" unicode="&#x388;" horiz-adv-x="634" 
d="M579 712v-145h-330v-135h308v-143h-308v-144h338v-145h-511v712h503zM41 712l-71 -206h-123l32 206h162z" />
    <glyph glyph-name="Etatonos" unicode="&#x389;" horiz-adv-x="761" 
d="M685 712v-712h-173v295h-263v-295h-173v712h173v-270h263v270h173zM41 712l-71 -206h-123l32 206h162z" />
    <glyph glyph-name="Iotatonos" unicode="&#x38a;" horiz-adv-x="325" 
d="M249 712v-712h-173v712h173zM41 712l-71 -206h-123l32 206h162z" />
    <glyph glyph-name="Omicrontonos" unicode="&#x38c;" horiz-adv-x="757" 
d="M379 728q159 0 251.5 -100t92.5 -272t-92.5 -272t-251.5 -100q-160 0 -252.5 100t-92.5 272t92.5 272t252.5 100zM379 578q-78 0 -121 -58.5t-43 -163.5t43 -163.5t121 -58.5q77 0 120 58.5t43 163.5t-43 163.5t-120 58.5zM86 712l-71 -206h-123l32 206h162z" />
    <glyph glyph-name="Upsilontonos" unicode="&#x38e;" horiz-adv-x="663" 
d="M662 712l-244 -443v-269h-173v269l-244 443h192l62 -129q43 -89 76 -179h2q30 86 75 179l62 129h192zM-16 712l-71 -206h-123l32 206h162z" />
    <glyph glyph-name="Omegatonos" unicode="&#x38f;" horiz-adv-x="747" 
d="M373 728q153 0 244 -79t91 -232q0 -82 -34.5 -145.5t-97.5 -123.5v-2h143v-146h-299v152q51 52 79 107.5t28 129.5q0 92 -42 140.5t-112 48.5q-69 0 -111 -48.5t-42 -140.5q0 -74 28 -129.5t79 -107.5v-152h-299v146h143v2q-63 59 -97.5 123t-34.5 146q0 152 91 231.5
t243 79.5zM75 712l-71 -206h-123l32 206h162z" />
    <glyph glyph-name="iotadieresistonos" unicode="&#x390;" horiz-adv-x="334" 
d="M56 508h166v-296q0 -49 15 -70.5t49 -21.5q22 0 37 5v-123q-38 -10 -84 -10q-96 0 -139.5 45t-43.5 146v325zM30 702v-125h-129v125h129zM227 727l-56 -161h-110l31 161h135zM377 702v-125h-129v125h129z" />
    <glyph glyph-name="Alpha" unicode="&#x391;" horiz-adv-x="715" 
d="M532 0l-45 151h-258l-46 -151h-182l243 712h227l243 -712h-182zM272 293h173l-15 48q-43 142 -72 259h-2q-30 -124 -70 -259z" />
    <glyph glyph-name="Beta" unicode="&#x392;" horiz-adv-x="664" 
d="M76 0v712h278q129 0 194 -49t65 -134q0 -120 -121 -163v-2q139 -31 139 -166q0 -91 -69 -144.5t-191 -53.5h-295zM337 297h-91v-162h94q60 0 86.5 19t26.5 60q0 43 -27 63t-89 20zM342 578h-96v-154h90q57 0 83.5 19t26.5 59t-25 58t-79 18z" />
    <glyph glyph-name="Gamma" unicode="&#x393;" horiz-adv-x="519" 
d="M249 0h-173v712h434v-147h-261v-565z" />
    <glyph glyph-name="Delta" unicode="&#x394;" horiz-adv-x="714" 
d="M470 712l243 -712h-712l245 712h224zM224 141h265l-61 200q-44 149 -71 259h-2q-27 -110 -71 -259z" />
    <glyph glyph-name="Epsilon" unicode="&#x395;" horiz-adv-x="634" 
d="M579 712v-145h-330v-135h308v-143h-308v-144h338v-145h-511v712h503z" />
    <glyph glyph-name="Zeta" unicode="&#x396;" horiz-adv-x="593" 
d="M556 712v-150l-329 -416v-2h345v-144h-552v150l329 416v2h-314v144h521z" />
    <glyph glyph-name="Eta" unicode="&#x397;" horiz-adv-x="761" 
d="M685 712v-712h-173v295h-263v-295h-173v712h173v-270h263v270h173z" />
    <glyph glyph-name="Theta" unicode="&#x398;" horiz-adv-x="757" 
d="M379 728q159 0 251.5 -100t92.5 -271q0 -172 -92.5 -272.5t-251.5 -100.5t-252 100.5t-93 272.5q0 171 93 271t252 100zM379 586q-82 0 -127.5 -61t-45.5 -168q0 -108 45.5 -168.5t127.5 -60.5t127 60.5t45 168.5t-45.5 168.5t-126.5 60.5zM504 417v-121h-250v121h250z
" />
    <glyph glyph-name="Iota" unicode="&#x399;" horiz-adv-x="325" 
d="M249 712v-712h-173v712h173z" />
    <glyph glyph-name="Kappa" unicode="&#x39a;" horiz-adv-x="690" 
d="M667 712l-259 -337l278 -375h-218l-217 328h-2v-328h-173v712h173v-307h2l209 307h207z" />
    <glyph glyph-name="Lambda" unicode="&#x39b;" horiz-adv-x="701" 
d="M465 712l235 -712h-187l-96 335q-31 110 -66 257h-2q-30 -136 -65 -257l-96 -335h-187l234 712h230z" />
    <glyph glyph-name="Mu" unicode="&#x39c;" horiz-adv-x="1013" 
d="M937 712v-712h-163v348q0 132 6 263h-2q-24 -103 -68 -259l-101 -352h-205l-101 352q-44 156 -68 259h-2q6 -131 6 -263v-348h-163v712h277l91 -316q37 -134 62 -262h2q23 123 61 262l92 316h276z" />
    <glyph glyph-name="Nu" unicode="&#x39d;" horiz-adv-x="801" 
d="M726 712v-712h-250l-124 281q-66 149 -116 285h-2q8 -160 8 -300v-266h-166v712h249l125 -281q66 -153 116 -285h2q-8 133 -8 300v266h166z" />
    <glyph glyph-name="Xi" unicode="&#x39e;" horiz-adv-x="676" 
d="M629 161v-161h-582v161h582zM598 439v-161h-520v161h520zM615 712v-161h-554v161h554z" />
    <glyph glyph-name="Omicron" unicode="&#x39f;" horiz-adv-x="757" 
d="M379 728q159 0 251.5 -100t92.5 -272t-92.5 -272t-251.5 -100q-160 0 -252.5 100t-92.5 272t92.5 272t252.5 100zM379 578q-78 0 -121 -58.5t-43 -163.5t43 -163.5t121 -58.5q77 0 120 58.5t43 163.5t-43 163.5t-120 58.5z" />
    <glyph glyph-name="Pi" unicode="&#x3a0;" horiz-adv-x="750" 
d="M674 712v-712h-172v565h-253v-565h-173v712h598z" />
    <glyph glyph-name="Rho" unicode="&#x3a1;" horiz-adv-x="654" 
d="M76 0v712h285q133 0 202 -63t69 -174q0 -110 -69 -173t-202 -63h-112v-239h-173zM337 573h-88v-195h88q118 0 118 97q0 98 -118 98z" />
    <glyph glyph-name="Sigma" unicode="&#x3a3;" horiz-adv-x="593" 
d="M558 712v-146h-322v-2l158 -202l-171 -214v-2h349v-146h-548v150l166 212l-155 203v147h523z" />
    <glyph glyph-name="Tau" unicode="&#x3a4;" horiz-adv-x="627" 
d="M618 712v-147h-218v-565h-173v565h-218v147h609z" />
    <glyph glyph-name="Upsilon" unicode="&#x3a5;" horiz-adv-x="663" 
d="M662 712l-244 -443v-269h-173v269l-244 443h192l62 -129q43 -89 76 -179h2q30 86 75 179l62 129h192z" />
    <glyph glyph-name="Phi" unicode="&#x3a6;" horiz-adv-x="860" 
d="M347 744h166v-67q149 -11 231 -90.5t82 -227.5q0 -147 -82 -227t-231 -91v-73h-166v73q-149 11 -231 92t-82 229q0 146 82 225t231 90v67zM351 176v366q-142 -13 -142 -180q0 -173 142 -186zM509 542v-366q68 6 105 52t37 131t-37 131t-105 52z" />
    <glyph glyph-name="Chi" unicode="&#x3a7;" horiz-adv-x="669" 
d="M655 712l-209 -347l222 -365h-204l-128 246h-2l-129 -246h-203l221 365l-209 347h199l121 -238h2l120 238h199z" />
    <glyph glyph-name="Psi" unicode="&#x3a8;" horiz-adv-x="860" 
d="M654 712h170v-235q0 -153 -76.5 -230.5t-232.5 -88.5v-158h-170v158q-156 11 -232.5 88.5t-76.5 230.5v235h170v-227q0 -92 32 -134t107 -49v410h170v-410q75 7 107 49t32 134v227z" />
    <glyph glyph-name="Omega" unicode="&#x3a9;" horiz-adv-x="747" 
d="M373 728q153 0 244 -79t91 -232q0 -82 -34.5 -145.5t-97.5 -123.5v-2h143v-146h-299v152q51 52 79 107.5t28 129.5q0 92 -42 140.5t-112 48.5q-69 0 -111 -48.5t-42 -140.5q0 -74 28 -129.5t79 -107.5v-152h-299v146h143v2q-63 59 -97.5 123t-34.5 146q0 152 91 231.5
t243 79.5z" />
    <glyph glyph-name="Iotadieresis" unicode="&#x3aa;" horiz-adv-x="325" 
d="M249 712v-712h-173v712h173zM121 916v-131h-143v131h143zM347 916v-131h-142v131h142z" />
    <glyph glyph-name="Upsilondieresis" unicode="&#x3ab;" horiz-adv-x="663" 
d="M662 712l-244 -443v-269h-173v269l-244 443h192l62 -129q43 -89 76 -179h2q30 86 75 179l62 129h192zM290 900v-131h-143v131h143zM516 900v-131h-142v131h142z" />
    <glyph glyph-name="alphatonos" unicode="&#x3ac;" horiz-adv-x="633" 
d="M246 522q44 0 81.5 -20.5t60.5 -58.5h2q2 33 8 65h164q-10 -72 -10 -180v-150q0 -34 10 -47.5t32 -13.5q13 0 25 3v-115q-44 -14 -98 -14q-100 0 -126 74h-2q-50 -79 -148 -79t-156.5 73t-58.5 195t59 195t157 73zM299 396q-43 0 -69 -38.5t-26 -103.5t26 -103.5
t69 -38.5q42 0 67.5 38t25.5 104t-25.5 104t-67.5 38zM429 732l-71 -166h-123l32 166h162z" />
    <glyph glyph-name="epsilontonos" unicode="&#x3ad;" horiz-adv-x="534" 
d="M263 524q109 0 172 -49t63 -135h-155q0 32 -20 50t-57 18q-31 0 -48.5 -13t-17.5 -36q0 -24 19.5 -37.5t54.5 -13.5h50v-105h-50q-83 0 -83 -53q0 -23 20 -36.5t53 -13.5q84 0 84 71h160q0 -92 -63.5 -139.5t-181.5 -47.5q-109 0 -170 40.5t-61 114.5q0 93 100 124v2
q-47 16 -67.5 42.5t-20.5 67.5q0 70 59.5 109.5t159.5 39.5zM392 732l-71 -166h-123l32 166h162z" />
    <glyph glyph-name="etatonos" unicode="&#x3ae;" horiz-adv-x="629" 
d="M391 522q85 0 133.5 -54t48.5 -156v-497h-166v476q0 102 -74 102q-39 0 -62 -33t-23 -95v-265h-166v325q0 38 -10 53t-33 15q-15 0 -25 -3v112q50 15 93 15q52 0 81 -20.5t41 -66.5h2q56 92 160 92zM408 732l-71 -166h-123l32 166h162z" />
    <glyph glyph-name="iotatonos" unicode="&#x3af;" horiz-adv-x="334" 
d="M56 508h166v-296q0 -49 15 -70.5t49 -21.5q22 0 37 5v-123q-38 -10 -84 -10q-96 0 -139.5 45t-43.5 146v325zM271 732l-71 -166h-123l32 166h162z" />
    <glyph glyph-name="upsilondieresistonos" unicode="&#x3b0;" horiz-adv-x="613" 
d="M104 517q73 0 107.5 -37.5t34.5 -128.5v-154q0 -87 69 -87q90 0 90 158q0 130 -34 240h161q37 -110 37 -253q0 -131 -62.5 -201t-188.5 -70q-119 0 -179 49t-60 153v128q0 44 -10 60.5t-33 16.5q-14 0 -25 -3v114q48 15 93 15zM187 702v-125h-129v125h129zM384 727
l-56 -161h-110l31 161h135zM534 702v-125h-129v125h129z" />
    <glyph glyph-name="alpha" unicode="&#x3b1;" horiz-adv-x="633" 
d="M246 522q44 0 81.5 -20.5t60.5 -58.5h2q2 33 8 65h164q-10 -72 -10 -180v-150q0 -34 10 -47.5t32 -13.5q13 0 25 3v-115q-44 -14 -98 -14q-100 0 -126 74h-2q-50 -79 -148 -79t-156.5 73t-58.5 195t59 195t157 73zM299 396q-43 0 -69 -38.5t-26 -103.5t26 -103.5
t69 -38.5q42 0 67.5 38t25.5 104t-25.5 104t-67.5 38z" />
    <glyph glyph-name="beta" unicode="&#x3b2;" horiz-adv-x="614" 
d="M310 728q111 0 176 -49t65 -134q0 -125 -124 -161v-2q159 -38 159 -186q0 -95 -61.5 -150.5t-168.5 -55.5q-89 0 -127 46h-2v-221h-166l1 668q0 116 65 180.5t183 64.5zM314 607q-45 0 -66 -29t-21 -90v-290q0 -40 22.5 -62.5t66.5 -22.5q47 0 73.5 26t26.5 74
q0 100 -127 100h-13v129h13q52 0 79 22.5t27 63.5q0 37 -21.5 58t-59.5 21z" />
    <glyph glyph-name="gamma" unicode="&#x3b3;" horiz-adv-x="573" 
d="M393 508h172q-15 -143 -62 -257t-140 -245v-12q0 -89 -11 -179h-166q11 90 11 179q0 64 -21 153t-58 164q-22 48 -42.5 65t-45.5 17q-9 0 -23 -2v114q38 13 84 13q55 0 90 -26t65 -96q44 -101 61 -212h2q70 154 84 324z" />
    <glyph glyph-name="delta" unicode="&#x3b4;" horiz-adv-x="599" 
d="M303 722q115 0 208 -24v-130q-94 37 -186 37q-51 0 -51 -25q0 -15 23.5 -30.5t79.5 -43.5q97 -48 144.5 -112.5t47.5 -162.5q0 -113 -73.5 -179.5t-196.5 -66.5q-122 0 -195.5 66.5t-73.5 178.5q0 83 47 141t133 78v2q-58 38 -85 71t-27 74q0 126 205 126zM299 361
q-44 0 -69 -34t-25 -93t25 -93t69 -34t69.5 34t25.5 93t-25.5 93t-69.5 34z" />
    <glyph glyph-name="epsilon" unicode="&#x3b5;" horiz-adv-x="534" 
d="M263 524q109 0 172 -49t63 -135h-155q0 32 -20 50t-57 18q-31 0 -48.5 -13t-17.5 -36q0 -24 19.5 -37.5t54.5 -13.5h50v-105h-50q-83 0 -83 -53q0 -23 20 -36.5t53 -13.5q84 0 84 71h160q0 -92 -63.5 -139.5t-181.5 -47.5q-109 0 -170 40.5t-61 114.5q0 93 100 124v2
q-47 16 -67.5 42.5t-20.5 67.5q0 70 59.5 109.5t159.5 39.5z" />
    <glyph glyph-name="zeta" unicode="&#x3b6;" horiz-adv-x="494" 
d="M56 712h422v-119q-274 -151 -274 -352q0 -55 31.5 -83.5t112.5 -41.5q76 -13 105 -49t29 -101q0 -56 -29 -111h-131q15 35 15 68t-20 51.5t-76 24.5q-116 14 -163.5 62.5t-47.5 142.5q0 113 69.5 212t192.5 175v2h-236v119z" />
    <glyph glyph-name="eta" unicode="&#x3b7;" horiz-adv-x="629" 
d="M391 522q85 0 133.5 -54t48.5 -156v-497h-166v476q0 102 -74 102q-39 0 -62 -33t-23 -95v-265h-166v325q0 38 -10 53t-33 15q-15 0 -25 -3v112q50 15 93 15q52 0 81 -20.5t41 -66.5h2q56 92 160 92z" />
    <glyph glyph-name="theta" unicode="&#x3b8;" horiz-adv-x="638" 
d="M319 727q138 0 212 -96t74 -275t-74 -275t-212 -96t-212 96t-74 275t74 275t212 96zM319 105q50 0 79.5 50t35.5 145h-231q14 -195 116 -195zM319 607q-102 0 -116 -195h231q-6 95 -35.5 145t-79.5 50z" />
    <glyph glyph-name="iota" unicode="&#x3b9;" horiz-adv-x="334" 
d="M56 508h166v-296q0 -49 15 -70.5t49 -21.5q22 0 37 5v-123q-38 -10 -84 -10q-96 0 -139.5 45t-43.5 146v325z" />
    <glyph glyph-name="kappa" unicode="&#x3ba;" horiz-adv-x="584" 
d="M596 0h-198l-133 166l-41 -46v-120h-166v508h166v-204h2l82 96q56 65 101.5 90.5t104.5 25.5q28 0 54 -8v-136q-15 6 -36 6q-40 0 -79 -23t-87 -75z" />
    <glyph glyph-name="lambda" unicode="&#x3bb;" horiz-adv-x="615" 
d="M164 722q86 0 136 -43t96 -165l111 -297q23 -61 42.5 -82t44.5 -21q6 0 14 2v-116q-27 -9 -67 -9q-69 0 -107 31t-69 122q-37 104 -65 191h-1q-30 -83 -73 -193l-56 -142h-178l225 502q-18 51 -39.5 71.5t-56.5 20.5q-27 0 -48 -8v122q34 14 91 14z" />
    <glyph glyph-name="mu" unicode="&#x3bc;" horiz-adv-x="626" 
d="M384 508h166v-330q0 -34 10 -47.5t33 -13.5q12 0 24 3v-115q-42 -14 -98 -14q-96 0 -120 75h-2q-14 -34 -43.5 -53t-66.5 -19q-38 0 -60 16v-195h-166v693h166v-291q0 -101 73 -101q39 0 61.5 31t22.5 94v267z" />
    <glyph glyph-name="nu" unicode="&#x3bd;" horiz-adv-x="561" 
d="M85 517q63 0 100.5 -38t53.5 -123l47 -237h2q52 127 71.5 205t19.5 145q0 21 -3 39h164q5 -21 5 -49q0 -83 -30 -174t-121 -285h-225l-83 309q-13 48 -26 66t-36 18q-9 0 -19 -2v111q35 15 80 15z" />
    <glyph glyph-name="xi" unicode="&#x3be;" horiz-adv-x="499" 
d="M485 712v-119h-105q-152 0 -152 -97q0 -37 29 -56t81 -19h108v-118h-97q-74 0 -109.5 -25.5t-35.5 -69.5q0 -42 32 -62.5t117 -31.5q76 -10 105 -46.5t29 -101.5q0 -59 -29 -111h-131q16 37 16 68q0 34 -25 53.5t-94 26.5q-101 10 -147.5 53.5t-46.5 120.5q0 147 154 181
v2q-50 12 -77.5 43.5t-27.5 78.5q0 85 74 109v2h-100v119h432z" />
    <glyph glyph-name="omicron" unicode="&#x3bf;" horiz-adv-x="604" 
d="M302 524q125 0 198.5 -73t73.5 -197t-73.5 -197t-198.5 -73t-198.5 73t-73.5 197t73.5 197t198.5 73zM302 398q-46 0 -71.5 -38.5t-25.5 -105.5t25.5 -105.5t71.5 -38.5t71.5 38.5t25.5 105.5t-25.5 105.5t-71.5 38.5z" />
    <glyph glyph-name="pi" unicode="&#x3c0;" horiz-adv-x="682" 
d="M665 508v-121h-92v-205q0 -38 12 -52.5t39 -14.5q18 0 27 3v-116q-35 -11 -90 -11q-80 0 -117 38.5t-37 129.5v228h-145v-387h-166v387h-88v121h657z" />
    <glyph glyph-name="rho" unicode="&#x3c1;" horiz-adv-x="611" 
d="M316 524q122 0 193.5 -75t71.5 -202q0 -119 -65 -189.5t-176 -70.5q-79 0 -116 44h-2v-216h-166v439q0 123 71 196.5t189 73.5zM307 397q-43 0 -68.5 -39t-25.5 -104t25.5 -103t68.5 -38q47 0 73.5 37.5t26.5 103.5t-26.5 104.5t-73.5 38.5z" />
    <glyph glyph-name="sigmafinal" unicode="&#x3c2;" horiz-adv-x="570" 
d="M290 524q120 0 186 -60.5t73 -164.5h-172q-3 46 -25.5 73t-61.5 27q-41 0 -64.5 -32.5t-23.5 -90.5q0 -64 36.5 -100t116.5 -47q85 -12 117 -52t32 -110q0 -59 -29 -112h-131q15 33 15 68q0 37 -25 57t-96 28q-211 22 -211 251q0 125 70 195t193 70z" />
    <glyph glyph-name="sigma" unicode="&#x3c3;" horiz-adv-x="634" 
d="M625 508v-119h-117v-2q60 -54 60 -149q0 -117 -72 -185.5t-194 -68.5q-125 0 -198.5 71t-73.5 192q0 120 73.5 190.5t198.5 70.5h323zM301 392q-46 0 -71 -37t-25 -105q0 -67 25 -103.5t71 -36.5q48 0 73 36.5t25 103.5q0 68 -25 105t-73 37z" />
    <glyph glyph-name="tau" unicode="&#x3c4;" horiz-adv-x="482" 
d="M475 508v-119h-156v-207q0 -38 12 -52.5t39 -14.5q18 0 27 3v-116q-35 -11 -90 -11q-80 0 -117 38.5t-37 129.5v230h-145v119h467z" />
    <glyph glyph-name="upsilon" unicode="&#x3c5;" horiz-adv-x="613" 
d="M104 517q73 0 107.5 -37.5t34.5 -128.5v-154q0 -87 69 -87q90 0 90 158q0 130 -34 240h161q37 -110 37 -253q0 -131 -62.5 -201t-188.5 -70q-119 0 -179 49t-60 153v128q0 44 -10 60.5t-33 16.5q-14 0 -25 -3v114q48 15 93 15z" />
    <glyph glyph-name="phi" unicode="&#x3c6;" horiz-adv-x="812" 
d="M782 254q0 -122 -80 -193t-217 -77v-169h-158v169q-137 6 -217 77t-80 193t80 193t217 77v138h158v-138q137 -6 217 -77t80 -193zM199 254q0 -70 33 -109t95 -43v304q-62 -4 -95 -43t-33 -109zM485 406v-304q62 4 95 43t33 109t-33 109t-95 43z" />
    <glyph glyph-name="chi" unicode="&#x3c7;" horiz-adv-x="617" 
d="M96 522q67 0 104.5 -28t67.5 -99l45 -105h2l121 218h182l-209 -349l70 -148q23 -49 44 -65t52 -16q11 0 29 2v-111q-40 -15 -87 -15q-64 0 -102 28t-69 99l-40 91h-2l-128 -209h-183l221 335l-76 163q-23 50 -44 67.5t-54 17.5q-20 0 -33 -4v112q41 16 89 16z" />
    <glyph glyph-name="psi" unicode="&#x3c8;" horiz-adv-x="846" 
d="M802 263q0 -257 -293 -272v-176h-166v176q-287 14 -287 245v272h166v-255q0 -123 121 -137v546h166v-546q127 17 127 160q0 130 -39 232h164q41 -109 41 -245z" />
    <glyph glyph-name="omega" unicode="&#x3c9;" horiz-adv-x="853" 
d="M571 508h173q65 -127 65 -284q0 -239 -211 -239q-140 0 -171 106h-2q-31 -106 -171 -106q-210 0 -210 239q0 157 65 284h173q-66 -120 -66 -265q0 -134 71 -134q56 0 56 80v201h166v-201q0 -80 57 -80q71 0 71 134q0 145 -66 265z" />
    <glyph glyph-name="iotadieresis" unicode="&#x3ca;" horiz-adv-x="334" 
d="M56 508h166v-296q0 -49 15 -70.5t49 -21.5q22 0 37 5v-123q-38 -10 -84 -10q-96 0 -139.5 45t-43.5 146v325zM97 712v-131h-143v131h143zM323 712v-131h-142v131h142z" />
    <glyph glyph-name="upsilondieresis" unicode="&#x3cb;" horiz-adv-x="613" 
d="M104 517q73 0 107.5 -37.5t34.5 -128.5v-154q0 -87 69 -87q90 0 90 158q0 130 -34 240h161q37 -110 37 -253q0 -131 -62.5 -201t-188.5 -70q-119 0 -179 49t-60 153v128q0 44 -10 60.5t-33 16.5q-14 0 -25 -3v114q48 15 93 15zM255 712v-131h-143v131h143zM481 712v-131
h-142v131h142z" />
    <glyph glyph-name="omicrontonos" unicode="&#x3cc;" horiz-adv-x="604" 
d="M302 524q125 0 198.5 -73t73.5 -197t-73.5 -197t-198.5 -73t-198.5 73t-73.5 197t73.5 197t198.5 73zM302 398q-46 0 -71.5 -38.5t-25.5 -105.5t25.5 -105.5t71.5 -38.5t71.5 38.5t25.5 105.5t-25.5 105.5t-71.5 38.5zM434 732l-71 -166h-123l32 166h162z" />
    <glyph glyph-name="upsilontonos" unicode="&#x3cd;" horiz-adv-x="613" 
d="M104 517q73 0 107.5 -37.5t34.5 -128.5v-154q0 -87 69 -87q90 0 90 158q0 130 -34 240h161q37 -110 37 -253q0 -131 -62.5 -201t-188.5 -70q-119 0 -179 49t-60 153v128q0 44 -10 60.5t-33 16.5q-14 0 -25 -3v114q48 15 93 15zM428 732l-71 -166h-123l32 166h162z" />
    <glyph glyph-name="omegatonos" unicode="&#x3ce;" horiz-adv-x="853" 
d="M571 508h173q65 -127 65 -284q0 -239 -211 -239q-140 0 -171 106h-2q-31 -106 -171 -106q-210 0 -210 239q0 157 65 284h173q-66 -120 -66 -265q0 -134 71 -134q56 0 56 80v201h166v-201q0 -80 57 -80q71 0 71 134q0 145 -66 265zM558 732l-71 -166h-123l32 166h162z" />
    <glyph glyph-name="Iegravecy" unicode="&#x400;" horiz-adv-x="634" 
d="M579 712v-145h-330v-135h308v-143h-308v-144h338v-145h-511v712h503zM155 911h191l78 -151h-128z" />
    <glyph glyph-name="Iocy" unicode="&#x401;" horiz-adv-x="634" 
d="M579 712v-145h-330v-135h308v-143h-308v-144h338v-145h-511v712h503zM287 900v-131h-143v131h143zM513 900v-131h-142v131h142z" />
    <glyph glyph-name="Djecy" unicode="&#x402;" horiz-adv-x="819" 
d="M618 712v-147h-218v-135q63 32 148 32q119 0 184 -62.5t65 -177.5q0 -109 -64 -172t-179 -63q-53 0 -95 13v135q29 -8 61 -8q103 0 103 95q0 99 -111 99q-65 0 -112 -27v-294h-173v565h-218v147h609z" />
    <glyph glyph-name="Gjecy" unicode="&#x403;" horiz-adv-x="519" 
d="M249 0h-173v712h434v-147h-261v-565zM466 911l-141 -151h-128l78 151h191z" />
    <glyph glyph-name="Ecy" unicode="&#x404;" horiz-adv-x="727" 
d="M513 257h179q-11 -130 -96 -201.5t-223 -71.5q-158 0 -248.5 99.5t-90.5 272.5t91 272.5t249 99.5q140 0 224.5 -73t90.5 -196h-176q-8 58 -44 90t-95 32q-61 0 -101.5 -40.5t-54.5 -114.5h227v-140h-227q13 -73 53.5 -114t101.5 -41q59 0 96 33t44 93z" />
    <glyph glyph-name="Dzecy" unicode="&#x405;" horiz-adv-x="645" 
d="M315 728q135 0 207 -59.5t72 -173.5h-180q0 48 -27.5 73.5t-78.5 25.5q-43 0 -68.5 -18.5t-25.5 -48.5q0 -34 29.5 -50.5t112.5 -37.5q50 -12 80.5 -21.5t68 -28t58.5 -40.5t35.5 -57t14.5 -80q0 -104 -79 -166t-212 -62q-140 0 -219 65t-79 183h184q0 -110 118 -110
q49 0 77 20t28 55q0 37 -27.5 53t-108.5 37q-52 13 -80.5 22t-68 27.5t-60 39.5t-35.5 55.5t-15 79.5q0 98 75.5 157.5t203.5 59.5z" />
    <glyph glyph-name="Icy" unicode="&#x406;" horiz-adv-x="325" 
d="M249 712v-712h-173v712h173z" />
    <glyph glyph-name="Yicy" unicode="&#x407;" horiz-adv-x="325" 
d="M249 712v-712h-173v712h173zM121 900v-131h-143v131h143zM347 900v-131h-142v131h142z" />
    <glyph glyph-name="Jecy" unicode="&#x408;" horiz-adv-x="410" 
d="M166 712h173v-471q0 -128 -59.5 -188.5t-186.5 -60.5q-47 0 -78 9v144q23 -5 45 -5q58 0 82 29.5t24 109.5v433z" />
    <glyph glyph-name="Ljecy" unicode="&#x409;" horiz-adv-x="1074" 
d="M669 712v-239h112q133 0 202 -63t69 -173q0 -111 -69 -174t-202 -63h-285v565h-175q-9 -240 -38.5 -364.5t-78 -166t-137.5 -41.5q-35 0 -56 7v140q8 -2 18 -2q47 0 70.5 41.5t37 162.5t20.5 370h512zM757 334h-88v-195h88q118 0 118 98q0 97 -118 97z" />
    <glyph glyph-name="Njecy" unicode="&#x40a;" horiz-adv-x="1090" 
d="M685 712v-239h112q133 0 202 -63t69 -173q0 -111 -69 -174t-202 -63h-285v295h-263v-295h-173v712h173v-270h263v270h173zM685 334v-195h88q118 0 118 98q0 97 -118 97h-88z" />
    <glyph glyph-name="Tshecy" unicode="&#x40b;" horiz-adv-x="819" 
d="M559 440q111 0 170 -58t59 -166v-216h-173v182q0 54 -27 82.5t-78 28.5q-62 0 -110 -16v-277h-173v565h-218v147h609v-147h-218v-146q71 21 159 21z" />
    <glyph glyph-name="Kjecy" unicode="&#x40c;" horiz-adv-x="690" 
d="M667 712l-259 -337l278 -375h-218l-217 328h-2v-328h-173v712h173v-307h2l209 307h207zM518 911l-141 -151h-128l78 151h191z" />
    <glyph glyph-name="Iigravecy" unicode="&#x40d;" horiz-adv-x="801" 
d="M76 712h166v-266q0 -140 -8 -300h2q50 136 116 285l124 281h250v-712h-166v266q0 167 8 300h-2q-50 -132 -116 -285l-125 -281h-249v712zM213 911h191l78 -151h-128z" />
    <glyph glyph-name="Ushortcy" unicode="&#x40e;" horiz-adv-x="699" 
d="M510 712h188l-275 -570q-40 -83 -93.5 -117.5t-125.5 -34.5q-51 0 -89 10v142q19 -6 49 -6q36 0 57.5 16.5t21.5 47.5q0 18 -7 34.5t-44 91.5l-191 386h188l83 -191q58 -137 78 -190h2q36 98 76 190zM422 911h106q-4 -73 -50.5 -113.5t-127.5 -40.5t-127.5 40.5
t-50.5 113.5h106q3 -58 72 -58q67 0 72 58z" />
    <glyph glyph-name="Dzhecy" unicode="&#x40f;" horiz-adv-x="751" 
d="M675 712v-712h-220v-160h-166v160h-213v712h174v-565h251v565h174z" />
    <glyph glyph-name="Acy" unicode="&#x410;" horiz-adv-x="715" 
d="M532 0l-45 151h-258l-46 -151h-182l243 712h227l243 -712h-182zM272 293h173l-15 48q-43 142 -72 259h-2q-30 -124 -70 -259z" />
    <glyph glyph-name="Becy" unicode="&#x411;" horiz-adv-x="676" 
d="M594 712v-140h-348v-129h135q122 0 190.5 -59.5t68.5 -162.5t-68.5 -162t-190.5 -59h-305v712h518zM346 310h-100v-176h100q115 0 115 87q0 89 -115 89z" />
    <glyph glyph-name="Vecy" unicode="&#x412;" horiz-adv-x="664" 
d="M76 0v712h278q129 0 194 -49t65 -134q0 -120 -121 -163v-2q139 -31 139 -166q0 -91 -69 -144.5t-191 -53.5h-295zM337 297h-91v-162h94q60 0 86.5 19t26.5 60q0 43 -27 63t-89 20zM342 578h-96v-154h90q57 0 83.5 19t26.5 59t-25 58t-79 18z" />
    <glyph glyph-name="Gecy" unicode="&#x413;" horiz-adv-x="519" 
d="M249 0h-173v712h434v-147h-261v-565z" />
    <glyph glyph-name="Decy" unicode="&#x414;" horiz-adv-x="807" 
d="M708 147h88v-307h-166v160h-449v-160h-166v307h87q30 63 46.5 187t21.5 378h538v-565zM535 147v418h-201q-8 -276 -52 -418h253z" />
    <glyph glyph-name="Iecy" unicode="&#x415;" horiz-adv-x="634" 
d="M579 712v-145h-330v-135h308v-143h-308v-144h338v-145h-511v712h503z" />
    <glyph glyph-name="Zhecy" unicode="&#x416;" horiz-adv-x="953" 
d="M932 712l-211 -340l228 -372h-204l-181 348h-2v-348h-170v348h-2l-182 -348h-204l228 372l-211 340h199l170 -324h2v324h170v-324h2l169 324h199z" />
    <glyph glyph-name="Zecy" unicode="&#x417;" horiz-adv-x="652" 
d="M326 727q131 0 206.5 -53t75.5 -149q0 -59 -29.5 -96t-95.5 -60v-2q71 -23 104 -64.5t33 -108.5q0 -98 -78 -154t-213 -56q-148 0 -228 64t-80 186h186q0 -110 122 -110q48 0 77 21.5t29 57.5q0 86 -131 86h-44v136h44q58 0 91 22.5t33 60.5q0 36 -28 57.5t-77 21.5
q-109 0 -109 -105h-183q0 116 78 180.5t217 64.5z" />
    <glyph glyph-name="Iicy" unicode="&#x418;" horiz-adv-x="801" 
d="M76 712h166v-266q0 -140 -8 -300h2q50 136 116 285l124 281h250v-712h-166v266q0 167 8 300h-2q-50 -132 -116 -285l-125 -281h-249v712z" />
    <glyph glyph-name="Iishortcy" unicode="&#x419;" horiz-adv-x="801" 
d="M76 712h166v-266q0 -140 -8 -300h2q50 136 116 285l124 281h250v-712h-166v266q0 167 8 300h-2q-50 -132 -116 -285l-125 -281h-249v712zM459 911h106q-4 -73 -50.5 -113.5t-127.5 -40.5t-127.5 40.5t-50.5 113.5h106q3 -58 72 -58q67 0 72 58z" />
    <glyph glyph-name="Kacy" unicode="&#x41a;" horiz-adv-x="690" 
d="M667 712l-259 -337l278 -375h-218l-217 328h-2v-328h-173v712h173v-307h2l209 307h207z" />
    <glyph glyph-name="Elcy" unicode="&#x41b;" horiz-adv-x="745" 
d="M669 712v-712h-173v565h-175q-9 -240 -38.5 -364.5t-78 -166t-137.5 -41.5q-35 0 -56 7v140q8 -2 18 -2q47 0 70.5 41.5t37 162.5t20.5 370h512z" />
    <glyph glyph-name="Emcy" unicode="&#x41c;" horiz-adv-x="1013" 
d="M937 712v-712h-163v348q0 132 6 263h-2q-24 -103 -68 -259l-101 -352h-205l-101 352q-44 156 -68 259h-2q6 -131 6 -263v-348h-163v712h277l91 -316q37 -134 62 -262h2q23 123 61 262l92 316h276z" />
    <glyph glyph-name="Ency" unicode="&#x41d;" horiz-adv-x="761" 
d="M685 712v-712h-173v295h-263v-295h-173v712h173v-270h263v270h173z" />
    <glyph glyph-name="Ocy" unicode="&#x41e;" horiz-adv-x="757" 
d="M379 728q159 0 251.5 -100t92.5 -272t-92.5 -272t-251.5 -100q-160 0 -252.5 100t-92.5 272t92.5 272t252.5 100zM379 578q-78 0 -121 -58.5t-43 -163.5t43 -163.5t121 -58.5q77 0 120 58.5t43 163.5t-43 163.5t-120 58.5z" />
    <glyph glyph-name="Pecy" unicode="&#x41f;" horiz-adv-x="750" 
d="M674 712v-712h-172v565h-253v-565h-173v712h598z" />
    <glyph glyph-name="Ercy" unicode="&#x420;" horiz-adv-x="654" 
d="M76 0v712h285q133 0 202 -63t69 -174q0 -110 -69 -173t-202 -63h-112v-239h-173zM337 573h-88v-195h88q118 0 118 97q0 98 -118 98z" />
    <glyph glyph-name="Escy" unicode="&#x421;" horiz-adv-x="715" 
d="M367 728q138 0 221.5 -73.5t88.5 -198.5h-179q-6 58 -40.5 90t-90.5 32q-71 0 -111.5 -59.5t-40.5 -162.5t40.5 -162.5t109.5 -59.5q56 0 91.5 33t42.5 93h181q-10 -132 -94 -204t-221 -72q-154 0 -242.5 99.5t-88.5 272.5t89 272.5t244 99.5z" />
    <glyph glyph-name="Tecy" unicode="&#x422;" horiz-adv-x="627" 
d="M618 712v-147h-218v-565h-173v565h-218v147h609z" />
    <glyph glyph-name="Ucy" unicode="&#x423;" horiz-adv-x="699" 
d="M510 712h188l-275 -570q-40 -83 -93.5 -117.5t-125.5 -34.5q-51 0 -89 10v142q19 -6 49 -6q36 0 57.5 16.5t21.5 47.5q0 18 -7 34.5t-44 91.5l-191 386h188l83 -191q58 -137 78 -190h2q36 98 76 190z" />
    <glyph glyph-name="Efcy" unicode="&#x424;" horiz-adv-x="880" 
d="M846 356q0 -139 -83.5 -217.5t-239.5 -89.5v-75h-167v75q-156 11 -239 90t-83 217t83 217t239 90v75h167v-75q156 -11 239.5 -89.5t83.5 -217.5zM212 356q0 -73 37.5 -116t109.5 -53v338q-72 -10 -109.5 -53t-37.5 -116zM520 525v-338q148 20 148 169t-148 169z" />
    <glyph glyph-name="Hacy" unicode="&#x425;" horiz-adv-x="669" 
d="M655 712l-209 -347l222 -365h-204l-128 246h-2l-129 -246h-203l221 365l-209 347h199l121 -238h2l120 238h199z" />
    <glyph glyph-name="Tsecy" unicode="&#x426;" horiz-adv-x="779" 
d="M675 712v-565h88v-307h-166v160h-521v712h174v-565h251v565h174z" />
    <glyph glyph-name="Checy" unicode="&#x427;" horiz-adv-x="697" 
d="M621 712v-712h-173v258q-77 -20 -169 -20q-120 0 -184 58t-64 165v251h173v-217q0 -53 31.5 -81.5t90.5 -28.5q64 0 122 15v312h173z" />
    <glyph glyph-name="Shacy" unicode="&#x428;" horiz-adv-x="1044" 
d="M968 712v-712h-892v712h174v-565h185v565h174v-565h186v565h173z" />
    <glyph glyph-name="Shchacy" unicode="&#x429;" horiz-adv-x="1067" 
d="M968 712v-565h88v-307h-166v160h-814v712h174v-565h185v565h174v-565h186v565h173z" />
    <glyph glyph-name="Hardsigncy" unicode="&#x42a;" horiz-adv-x="775" 
d="M370 712v-239h112q133 0 202 -63t69 -173q0 -111 -69 -174t-202 -63h-285v565h-188v147h361zM458 334h-88v-195h88q118 0 118 98q0 97 -118 97z" />
    <glyph glyph-name="Yerucy" unicode="&#x42b;" horiz-adv-x="979" 
d="M361 0h-285v712h173v-239h112q133 0 202 -63t69 -173q0 -111 -69 -174t-202 -63zM249 334v-195h88q118 0 118 98q0 97 -118 97h-88zM903 712v-712h-173v712h173z" />
    <glyph glyph-name="Softsigncy" unicode="&#x42c;" horiz-adv-x="654" 
d="M361 0h-285v712h173v-239h112q133 0 202 -63t69 -173q0 -111 -69 -174t-202 -63zM249 334v-195h88q118 0 118 98q0 97 -118 97h-88z" />
    <glyph glyph-name="Ereversedcy" unicode="&#x42d;" horiz-adv-x="727" 
d="M353 728q158 0 249 -99.5t91 -272.5t-90.5 -272.5t-247.5 -99.5q-139 0 -224 71.5t-96 201.5h179q8 -60 45 -93t96 -33q61 0 101 40.5t53 114.5h-227v140h227q-14 74 -54.5 114.5t-101.5 40.5q-59 0 -95 -32t-43 -90h-177q6 123 91 196t224 73z" />
    <glyph glyph-name="Iucy" unicode="&#x42e;" horiz-adv-x="1054" 
d="M689 728q153 0 242 -100.5t89 -272.5t-89 -271.5t-242 -99.5q-135 0 -221 79.5t-104 219.5h-115v-283h-173v712h173v-282h115q19 139 105 218.5t220 79.5zM690 134q71 0 111 58.5t40 162.5q0 105 -40 164t-111 59t-111.5 -58.5t-40.5 -163.5t40.5 -163.5t111.5 -58.5z
" />
    <glyph glyph-name="Iacy" unicode="&#x42f;" horiz-adv-x="679" 
d="M306 712h298v-712h-174v252h-126l-119 -252h-186l147 285q-109 55 -109 200q0 110 67.5 168.5t201.5 58.5zM430 383v195h-103q-119 0 -119 -96q0 -99 112 -99h110z" />
    <glyph glyph-name="acy" unicode="&#x430;" horiz-adv-x="561" 
d="M275 524q231 0 231 -206v-175q0 -91 15 -143h-150q-7 28 -7 66h-2q-58 -79 -165 -79q-81 0 -128 44t-47 112q0 67 46.5 107t155.5 57q63 10 122 14v18q0 80 -71 80q-70 0 -72 -71h-160q4 77 62 126.5t170 49.5zM346 212v18q-48 -2 -90 -10q-37 -7 -53.5 -22.5
t-16.5 -42.5t17 -42.5t48 -15.5q53 0 74 30t21 85z" />
    <glyph glyph-name="becy" unicode="&#x431;" horiz-adv-x="607" 
d="M543 728v-134q-52 -15 -163 -19q-119 -4 -165 -43t-57 -129h2q42 88 173 88q109 0 173.5 -64.5t64.5 -173.5q0 -124 -73 -196.5t-196 -72.5q-130 0 -199.5 77t-69.5 225q0 117 18.5 196t59.5 126t97 69t139 27q141 10 196 24zM299 376q-94 0 -94 -131q0 -66 25 -102.5
t71 -36.5t71 35t25 100q0 64 -26 99.5t-72 35.5z" />
    <glyph glyph-name="vecy" unicode="&#x432;" horiz-adv-x="568" 
d="M61 0v508h254q208 0 208 -137q0 -84 -96 -109v-2q109 -20 109 -118q0 -68 -55 -105t-157 -37h-263zM286 407h-66v-104h66q76 0 76 52t-76 52zM285 211h-65v-110h65q85 0 85 55t-85 55z" />
    <glyph glyph-name="gecy" unicode="&#x433;" horiz-adv-x="452" 
d="M443 508v-121h-216v-387h-166v508h382z" />
    <glyph glyph-name="decy" unicode="&#x434;" horiz-adv-x="668" 
d="M592 121h68v-281h-164v160h-324v-160h-164v281h61q27 44 42.5 127.5t24.5 259.5h456v-387zM428 121v266h-136q-9 -170 -38 -266h174z" />
    <glyph glyph-name="iecy" unicode="&#x435;" horiz-adv-x="584" 
d="M292 95q35 0 58 17t27 44h169q-16 -74 -84.5 -123t-167.5 -49q-125 0 -194.5 76t-69.5 198q0 116 70 191t192 75q89 0 152 -43.5t90 -119.5q20 -54 20 -141h-361q5 -125 99 -125zM292 415q-82 0 -96 -101h191q-5 51 -31 76t-64 25z" />
    <glyph glyph-name="zhecy" unicode="&#x436;" horiz-adv-x="795" 
d="M629 272l177 -272h-196l-130 252h-2v-252h-161v252h-2l-131 -252h-195l177 272l-159 236h184l124 -221h2v221h161v-221h2l124 221h184z" />
    <glyph glyph-name="zecy" unicode="&#x437;" horiz-adv-x="532" 
d="M269 524q100 0 159.5 -39.5t59.5 -109.5q0 -41 -20.5 -67.5t-67.5 -42.5v-2q53 -16 76.5 -46t23.5 -78q0 -75 -61 -115t-170 -40q-118 0 -181 47.5t-63 139.5h159q0 -71 85 -71q33 0 52.5 13.5t19.5 36.5q0 53 -83 53h-49v105h49q35 0 54.5 13.5t19.5 37.5q0 23 -17.5 36
t-48.5 13q-37 0 -57 -18t-20 -50h-154q0 86 63 135t171 49z" />
    <glyph glyph-name="iicy" unicode="&#x438;" horiz-adv-x="687" 
d="M626 508v-508h-161v180q0 100 9 201h-2q-29 -93 -75 -187l-96 -194h-240v508h161v-181q0 -104 -10 -200h2q32 96 76 187l96 194h240z" />
    <glyph glyph-name="iishortcy" unicode="&#x439;" horiz-adv-x="687" 
d="M626 508v-508h-161v180q0 100 9 201h-2q-29 -93 -75 -187l-96 -194h-240v508h161v-181q0 -104 -10 -200h2q32 96 76 187l96 194h240zM416 712h106q-4 -73 -50.5 -113.5t-127.5 -40.5t-127.5 40.5t-50.5 113.5h106q3 -58 72 -58q67 0 72 58z" />
    <glyph glyph-name="kacy" unicode="&#x43a;" horiz-adv-x="577" 
d="M376 271l200 -271h-204l-143 230h-2v-230h-166v508h166v-200h2l136 200h192z" />
    <glyph glyph-name="elcy" unicode="&#x43b;" horiz-adv-x="594" 
d="M533 508v-508h-166v387h-104q-4 -124 -17 -202t-39.5 -120t-59.5 -57t-85 -15q-32 0 -56 7v117q10 -2 20 -2q32 0 49.5 27.5t28 113t12.5 252.5h417z" />
    <glyph glyph-name="emcy" unicode="&#x43c;" horiz-adv-x="848" 
d="M787 508v-508h-150v226q0 80 5 180h-1q-24 -96 -49 -178l-70 -228h-196l-71 228q-35 125 -48 178h-2q5 -100 5 -180v-226h-149v508h253l65 -211q25 -80 44 -186h2q15 91 43 186l65 211h254z" />
    <glyph glyph-name="ency" unicode="&#x43d;" horiz-adv-x="622" 
d="M561 508v-508h-166v198h-168v-198h-166v508h166v-190h168v190h166z" />
    <glyph glyph-name="ocy" unicode="&#x43e;" horiz-adv-x="604" 
d="M302 524q125 0 198.5 -73t73.5 -197t-73.5 -197t-198.5 -73t-198.5 73t-73.5 197t73.5 197t198.5 73zM302 398q-46 0 -71.5 -38.5t-25.5 -105.5t25.5 -105.5t71.5 -38.5t71.5 38.5t25.5 105.5t-25.5 105.5t-71.5 38.5z" />
    <glyph glyph-name="pecy" unicode="&#x43f;" horiz-adv-x="615" 
d="M554 508v-508h-166v387h-161v-387h-166v508h493z" />
    <glyph glyph-name="ercy" unicode="&#x440;" horiz-adv-x="610" 
d="M364 522q98 0 157 -73t59 -195t-57.5 -195t-154.5 -73q-91 0 -139 69h-2v-240h-166v693h160v-63h2q47 77 141 77zM311 396q-42 0 -67.5 -38t-25.5 -104t25.5 -104t67.5 -38q43 0 69 38.5t26 103.5t-26 103.5t-69 38.5z" />
    <glyph glyph-name="escy" unicode="&#x441;" horiz-adv-x="575" 
d="M295 524q107 0 176.5 -58t77.5 -152h-172q-4 40 -25.5 62.5t-55.5 22.5q-43 0 -67.5 -38t-24.5 -106q0 -69 24.5 -107t68.5 -38q34 0 55.5 25t23.5 69h173q-8 -101 -76.5 -160.5t-176.5 -59.5q-121 0 -193.5 73.5t-72.5 197.5q0 123 72 196t193 73z" />
    <glyph glyph-name="tecy" unicode="&#x442;" horiz-adv-x="487" 
d="M483 508v-121h-157v-387h-166v387h-156v121h479z" />
    <glyph glyph-name="ucy" unicode="&#x443;" horiz-adv-x="530" 
d="M369 508h169l-169 -499q-38 -113 -92 -157t-152 -44q-43 0 -86 9v126q24 -8 51 -8q35 0 56 17.5t21 48.5q0 23 -28 98l-149 409h179l49 -170q32 -118 51 -212h2q21 106 51 213z" />
    <glyph glyph-name="efcy" unicode="&#x444;" horiz-adv-x="841" 
d="M339 712h163v-228q44 38 102 38q94 0 150.5 -73t56.5 -195t-56.5 -195t-151.5 -73q-56 0 -101 37v-208h-163v208q-45 -37 -101 -37q-96 0 -152 72.5t-56 195.5t56 195.5t151 72.5q58 0 102 -38v228zM292 398q-42 0 -66.5 -39t-24.5 -105t24.5 -105t66.5 -39q26 0 47 21
v246q-21 21 -47 21zM549 398q-26 0 -47 -21v-246q21 -21 47 -21q42 0 66.5 39t24.5 105t-24.5 105t-66.5 39z" />
    <glyph glyph-name="hacy" unicode="&#x445;" horiz-adv-x="535" 
d="M530 508l-159 -247l170 -261h-190l-83 163h-2l-83 -163h-189l170 261l-159 247h188l73 -145h2l73 145h189z" />
    <glyph glyph-name="tsecy" unicode="&#x446;" horiz-adv-x="628" 
d="M552 508v-387h68v-281h-166v160h-393v508h166v-387h159v387h166z" />
    <glyph glyph-name="checy" unicode="&#x447;" horiz-adv-x="573" 
d="M512 508v-508h-166v177q-65 -17 -138 -17q-88 0 -135 41t-47 117v190h166v-157q0 -71 77 -71q41 0 77 12v216h166z" />
    <glyph glyph-name="shacy" unicode="&#x448;" horiz-adv-x="878" 
d="M817 508v-508h-756v508h166v-387h129v387h166v-387h129v387h166z" />
    <glyph glyph-name="shchacy" unicode="&#x449;" horiz-adv-x="893" 
d="M817 508v-387h68v-281h-166v160h-658v508h166v-387h129v387h166v-387h129v387h166z" />
    <glyph glyph-name="hardsigncy" unicode="&#x44a;" horiz-adv-x="649" 
d="M300 508v-155h102q106 0 163 -44.5t57 -131.5q0 -88 -57 -132.5t-163 -44.5h-268v387h-130v121h296zM381 240h-81v-127h81q74 0 74 64q0 63 -74 63z" />
    <glyph glyph-name="yerucy" unicode="&#x44b;" horiz-adv-x="838" 
d="M227 508v-155h102q106 0 163 -44.5t57 -131.5q0 -88 -57 -132.5t-163 -44.5h-268v508h166zM308 240h-81v-127h81q74 0 74 64q0 63 -74 63zM777 508v-508h-166v508h166z" />
    <glyph glyph-name="softsigncy" unicode="&#x44c;" horiz-adv-x="576" 
d="M227 508v-155h102q106 0 163 -44.5t57 -131.5q0 -88 -57 -132.5t-163 -44.5h-268v508h166zM308 240h-81v-127h81q74 0 74 64q0 63 -74 63z" />
    <glyph glyph-name="ereversedcy" unicode="&#x44d;" horiz-adv-x="575" 
d="M280 524q121 0 193 -73t72 -196q0 -124 -72 -197.5t-193 -73.5q-109 0 -177.5 57t-76.5 154h162q2 -44 27 -69t64 -25q40 0 66 28t34 79h-157v102h155q-9 47 -34.5 73t-63.5 26t-62.5 -23t-28.5 -63h-162q9 90 78 145.5t176 55.5z" />
    <glyph glyph-name="iucy" unicode="&#x44e;" horiz-adv-x="867" 
d="M567 524q124 0 197 -73t73 -197t-73 -197t-197 -73q-107 0 -177 56.5t-87 154.5h-76v-195h-166v508h166v-193h76q17 97 87 153t177 56zM567 110q45 0 70.5 38.5t25.5 105.5t-25.5 105.5t-70.5 38.5t-70.5 -38.5t-25.5 -105.5t25.5 -105.5t70.5 -38.5z" />
    <glyph glyph-name="iacy" unicode="&#x44f;" horiz-adv-x="582" 
d="M260 508h261v-508h-162v157h-97l-82 -157h-176l110 188q-80 44 -80 150q0 170 226 170zM359 268v125h-72q-92 0 -92 -62q0 -63 88 -63h76z" />
    <glyph glyph-name="iegravecy" unicode="&#x450;" horiz-adv-x="584" 
d="M292 95q35 0 58 17t27 44h169q-16 -74 -84.5 -123t-167.5 -49q-125 0 -194.5 76t-69.5 198q0 116 70 191t192 75q89 0 152 -43.5t90 -119.5q20 -54 20 -141h-361q5 -125 99 -125zM292 415q-82 0 -96 -101h191q-5 51 -31 76t-64 25zM387 564h-128l-141 148h191z" />
    <glyph glyph-name="iocy" unicode="&#x451;" horiz-adv-x="584" 
d="M292 95q35 0 58 17t27 44h169q-16 -74 -84.5 -123t-167.5 -49q-125 0 -194.5 76t-69.5 198q0 116 70 191t192 75q89 0 152 -43.5t90 -119.5q20 -54 20 -141h-361q5 -125 99 -125zM292 415q-82 0 -96 -101h191q-5 51 -31 76t-64 25zM250 712v-131h-143v131h143zM476 712
v-131h-142v131h142z" />
    <glyph glyph-name="djecy" unicode="&#x452;" horiz-adv-x="610" 
d="M366 466q88 0 138 -53.5t50 -155.5v-256q0 -98 -50.5 -144.5t-136.5 -46.5q-47 0 -80 9v116q12 -3 26 -3q39 0 57 21t18 76v210q0 98 -75 98q-40 0 -63 -32.5t-23 -96.5v-208h-166v537h-71v98h71v77h166v-77h215v-98h-215v-135h2q52 64 137 64z" />
    <glyph glyph-name="gjecy" unicode="&#x453;" horiz-adv-x="452" 
d="M443 508v-121h-216v-387h-166v508h382zM426 712l-141 -148h-128l78 148h191z" />
    <glyph glyph-name="ecy" unicode="&#x454;" horiz-adv-x="575" 
d="M297 101q39 0 63.5 25t26.5 69h162q-8 -97 -76 -154t-177 -57q-121 0 -193.5 73.5t-72.5 197.5q0 123 72 196t193 73q107 0 176.5 -55.5t77.5 -145.5h-161q-4 40 -29 63t-63 23t-63.5 -26t-34.5 -73h155v-102h-157q8 -51 34.5 -79t66.5 -28z" />
    <glyph glyph-name="dzecy" unicode="&#x455;" horiz-adv-x="542" 
d="M267 524q107 0 166 -43t59 -127h-158q0 65 -68 65q-59 0 -59 -40q0 -22 20.5 -33t83.5 -27q38 -10 58.5 -16.5t51.5 -20.5t47.5 -30.5t29 -43.5t12.5 -61q0 -74 -63 -118.5t-173 -44.5q-243 0 -243 181h167q0 -72 78 -72q31 0 47.5 11.5t16.5 30.5q0 26 -23.5 38.5
t-93.5 30.5q-35 9 -53 14t-47 18.5t-43 28.5t-25.5 41t-11.5 59q0 71 59 115t165 44z" />
    <glyph glyph-name="icy" unicode="&#x456;" horiz-adv-x="288" 
d="M227 508v-508h-166v508h166zM227 712v-131h-166v131h166z" />
    <glyph glyph-name="yicy" unicode="&#x457;" horiz-adv-x="288" 
d="M227 508v-508h-166v508h166zM120 712v-131h-133v131h133zM300 712v-131h-132v131h132z" />
    <glyph glyph-name="jecy" unicode="&#x458;" horiz-adv-x="289" 
d="M62 508h166v-507q0 -98 -50.5 -144.5t-136.5 -46.5q-47 0 -80 9v116q12 -3 26 -3q39 0 57 21t18 76v479zM228 712v-131h-166v131h166z" />
    <glyph glyph-name="ljecy" unicode="&#x459;" horiz-adv-x="883" 
d="M533 508v-155h103q106 0 162.5 -44.5t56.5 -131.5q0 -88 -56.5 -132.5t-162.5 -44.5h-269v387h-104q-4 -124 -17 -202t-39.5 -120t-59.5 -57t-85 -15q-32 0 -56 7v117q10 -2 20 -2q32 0 49.5 27.5t28 113t12.5 252.5h417zM614 240h-81v-127h81q74 0 74 64q0 63 -74 63z
" />
    <glyph glyph-name="njecy" unicode="&#x45a;" horiz-adv-x="908" 
d="M559 508v-155h102q106 0 163 -44.5t57 -131.5q0 -88 -57 -132.5t-163 -44.5h-268v198h-166v-198h-166v508h166v-190h166v190h166zM640 240h-81v-127h81q74 0 74 64q0 63 -74 63z" />
    <glyph glyph-name="tshecy" unicode="&#x45b;" horiz-adv-x="610" 
d="M366 466q88 0 138 -53.5t50 -155.5v-257h-166v239q0 98 -75 98q-40 0 -63 -32.5t-23 -96.5v-208h-166v537h-71v98h71v77h166v-77h215v-98h-215v-135h2q52 64 137 64z" />
    <glyph glyph-name="kjecy" unicode="&#x45c;" horiz-adv-x="577" 
d="M376 271l200 -271h-204l-143 230h-2v-230h-166v508h166v-200h2l136 200h192zM469 712l-141 -148h-128l78 148h191z" />
    <glyph glyph-name="iigravecy" unicode="&#x45d;" horiz-adv-x="687" 
d="M626 508v-508h-161v180q0 100 9 201h-2q-29 -93 -75 -187l-96 -194h-240v508h161v-181q0 -104 -10 -200h2q32 96 76 187l96 194h240zM171 712h191l78 -148h-128z" />
    <glyph glyph-name="ushortcy" unicode="&#x45e;" horiz-adv-x="530" 
d="M369 508h169l-169 -499q-38 -113 -92 -157t-152 -44q-43 0 -86 9v126q24 -8 51 -8q35 0 56 17.5t21 48.5q0 23 -28 98l-149 409h179l49 -170q32 -118 51 -212h2q21 106 51 213zM339 712h106q-4 -73 -50.5 -113.5t-127.5 -40.5t-127.5 40.5t-50.5 113.5h106q3 -58 72 -58
q67 0 72 58z" />
    <glyph glyph-name="dzhecy" unicode="&#x45f;" horiz-adv-x="615" 
d="M554 508v-508h-165v-160h-166v160h-162v508h166v-387h161v387h166z" />
    <glyph glyph-name="Gheupturncy" unicode="&#x490;" horiz-adv-x="519" 
d="M510 846v-281h-261v-565h-173v712h268v134h166z" />
    <glyph glyph-name="gheupturncy" unicode="&#x491;" horiz-adv-x="452" 
d="M443 668v-281h-216v-387h-166v508h229v160h153z" />
    <glyph glyph-name="Ghestrokecy" unicode="&#x492;" horiz-adv-x="521" 
d="M512 565h-261v-192h134v-114h-134v-259h-174v259h-62v114h62v339h435v-147z" />
    <glyph glyph-name="ghestrokecy" unicode="&#x493;" horiz-adv-x="458" 
d="M450 387h-216v-114h122v-100h-122v-173h-166v173h-56v100h56v235h382v-121z" />
    <glyph glyph-name="Zhedescendercy" unicode="&#x496;" horiz-adv-x="953" 
d="M859 147h90v-307h-166v160h-38l-181 348h-2v-348h-170v348h-2l-182 -348h-204l228 372l-211 340h199l170 -324h2v324h170v-324h2l169 324h199l-211 -340z" />
    <glyph glyph-name="zhedescendercy" unicode="&#x497;" horiz-adv-x="795" 
d="M727 121h79v-281h-166v160h-30l-130 252h-2v-252h-161v252h-2l-131 -252h-195l177 272l-159 236h184l124 -221h2v221h161v-221h2l124 221h184l-159 -236z" />
    <glyph glyph-name="Kadescendercy" unicode="&#x49a;" horiz-adv-x="690" 
d="M577 147h109v-307h-166v160h-52l-217 328h-2v-328h-173v712h173v-307h2l209 307h207l-259 -337z" />
    <glyph glyph-name="kadescendercy" unicode="&#x49b;" horiz-adv-x="577" 
d="M487 121h89v-281h-166v160h-38l-143 230h-2v-230h-166v508h166v-200h2l136 200h192l-181 -237z" />
    <glyph glyph-name="Kaverticalstrokecy" unicode="&#x49c;" horiz-adv-x="760" 
d="M552 0l-153 295h-2v-151h-107v151h-44v-295h-170v712h170v-270h44v150h107v-150h2l140 270h200l-209 -338l226 -374h-204z" />
    <glyph glyph-name="kaverticalstrokecy" unicode="&#x49d;" horiz-adv-x="643" 
d="M458 0l-109 209h-5v-110h-87v110h-35v-209h-161v508h161v-178h35v114h87v-114h7l100 178h184l-159 -236l177 -272h-195z" />
    <glyph glyph-name="Endescendercy" unicode="&#x4a2;" horiz-adv-x="789" 
d="M773 147v-307h-166v160h-95v295h-263v-295h-173v712h173v-270h263v270h173v-565h88z" />
    <glyph glyph-name="endescendercy" unicode="&#x4a3;" horiz-adv-x="637" 
d="M629 121v-281h-166v160h-68v198h-168v-198h-166v508h166v-190h168v190h166v-387h68z" />
    <glyph glyph-name="Ustraitcy" unicode="&#x4ae;" horiz-adv-x="663" 
d="M662 712l-244 -443v-269h-173v269l-244 443h192l62 -129q43 -89 76 -179h2q30 86 75 179l62 129h192z" />
    <glyph glyph-name="ustraitcy" unicode="&#x4af;" horiz-adv-x="533" 
d="M364 508h177l-192 -523v-170h-166v170l-191 523h176l50 -163q26 -87 47 -193h2q19 96 48 193z" />
    <glyph glyph-name="Hadescendercy" unicode="&#x4b2;" horiz-adv-x="669" 
d="M579 147h89v-307h-166v160h-38l-128 246h-2l-129 -246h-203l221 365l-209 347h199l121 -238h2l120 238h199l-209 -347z" />
    <glyph glyph-name="hadescendercy" unicode="&#x4b3;" horiz-adv-x="535" 
d="M462 121h79v-281h-166v160h-24l-83 163h-2l-83 -163h-189l170 261l-159 247h188l73 -145h2l73 145h189l-159 -247z" />
    <glyph glyph-name="Cheverticalstrokecy" unicode="&#x4b8;" horiz-adv-x="697" 
d="M448 712h173v-712h-173v258q-22 -6 -65 -13v-129h-114v122q-115 2 -176.5 60t-61.5 163v251h173v-217q0 -78 65 -101v175h114v-181q38 5 65 12v312z" />
    <glyph glyph-name="cheverticalstrokecy" unicode="&#x4b9;" horiz-adv-x="583" 
d="M359 508h163v-508h-163v179q-15 -5 -42 -10v-90h-87v81h-15q-91 0 -140 43t-49 122v183h163v-150q0 -58 41 -72v135h87v-137q20 3 42 10v214z" />
    <glyph glyph-name="Shhacy" unicode="&#x4ba;" horiz-adv-x="697" 
d="M76 0v712h173v-258q77 20 169 20q120 0 184 -58t64 -165v-251h-174v217q0 53 -31 81.5t-90 28.5q-65 0 -122 -15v-312h-173z" />
    <glyph glyph-name="shhacy" unicode="&#x4bb;" 
d="M227 712v-255h2q52 64 137 64q87 0 136.5 -53.5t49.5 -155.5v-312h-166v294q0 98 -74 98q-40 0 -62.5 -32.5t-22.5 -96.5v-263h-166v712h166z" />
    <glyph glyph-name="Palochkacy" unicode="&#x4c0;" horiz-adv-x="325" 
d="M249 712v-712h-173v712h173z" />
    <glyph glyph-name="palochkacy" unicode="&#x4cf;" horiz-adv-x="288" 
d="M227 712v-712h-166v712h166z" />
    <glyph glyph-name="Schwacy" unicode="&#x4d8;" horiz-adv-x="775" 
d="M379 728q169 0 265.5 -101t96.5 -270q0 -163 -96 -268t-260 -105q-161 0 -256 100.5t-95 270.5q0 34 3 55h524q-6 91 -56.5 134.5t-126.5 43.5q-58 0 -94.5 -26.5t-45.5 -69.5h-185q22 102 107.5 169t218.5 67zM385 125q68 0 113.5 39.5t58.5 116.5h-340
q10 -77 56 -116.5t112 -39.5z" />
    <glyph glyph-name="schwacy" unicode="&#x4d9;" horiz-adv-x="584" 
d="M287 524q126 0 196.5 -74.5t70.5 -194.5q0 -118 -70.5 -194.5t-192.5 -76.5q-120 0 -190.5 72.5t-70.5 196.5q0 20 2 38h358q-5 122 -101 122q-31 0 -51.5 -16t-25.5 -41h-169q16 72 82 120t162 48zM291 93q83 0 97 104h-192q5 -52 31 -78t64 -26z" />
    <glyph glyph-name="Obarredcy" unicode="&#x4e8;" horiz-adv-x="757" 
d="M379 728q159 0 251.5 -100t92.5 -272t-92.5 -272t-251.5 -100q-160 0 -252.5 100t-92.5 272t92.5 272t252.5 100zM379 125q69 0 113 43.5t57 122.5h-340q13 -79 57 -122.5t113 -43.5zM379 587q-69 0 -113 -43.5t-57 -122.5h340q-13 79 -57 122.5t-113 43.5z" />
    <glyph glyph-name="obarredcy" unicode="&#x4e9;" horiz-adv-x="604" 
d="M302 524q125 0 198.5 -73t73.5 -197t-73.5 -197t-198.5 -73t-198.5 73t-73.5 197t73.5 197t198.5 73zM302 99q43 0 71 29t36 81h-215q8 -52 36 -81t72 -29zM302 409q-43 0 -71 -29t-36 -81h215q-8 52 -36 81t-72 29z" />
    <glyph glyph-name="Wgrave" unicode="&#x1e80;" horiz-adv-x="991" 
d="M983 712l-144 -712h-230l-60 285q-33 147 -53 286h-2q-19 -130 -52 -286l-60 -285h-230l-144 712h168l48 -257q29 -158 46 -298h2q25 152 57 298l56 257h221l56 -257q34 -153 56 -298h2q19 148 47 298l47 257h169zM321 911h191l78 -151h-128z" />
    <glyph glyph-name="wgrave" unicode="&#x1e81;" horiz-adv-x="848" 
d="M844 508l-113 -508h-227l-41 191q-23 109 -38 213h-2q-15 -104 -38 -213l-41 -191h-227l-113 508h162l33 -187q20 -111 32 -216h2q18 119 41 217l42 186h216l42 -186q23 -98 41 -217h2q12 105 32 216l33 187h162zM251 712h191l78 -148h-128z" />
    <glyph glyph-name="Wacute" unicode="&#x1e82;" horiz-adv-x="991" 
d="M983 712l-144 -712h-230l-60 285q-33 147 -53 286h-2q-19 -130 -52 -286l-60 -285h-230l-144 712h168l48 -257q29 -158 46 -298h2q25 152 57 298l56 257h221l56 -257q34 -153 56 -298h2q19 148 47 298l47 257h169zM667 911l-141 -151h-128l78 151h191z" />
    <glyph glyph-name="wacute" unicode="&#x1e83;" horiz-adv-x="848" 
d="M844 508l-113 -508h-227l-41 191q-23 109 -38 213h-2q-15 -104 -38 -213l-41 -191h-227l-113 508h162l33 -187q20 -111 32 -216h2q18 119 41 217l42 186h216l42 -186q23 -98 41 -217h2q12 105 32 216l33 187h162zM597 712l-141 -148h-128l78 148h191z" />
    <glyph glyph-name="Wdieresis" unicode="&#x1e84;" horiz-adv-x="991" 
d="M983 712l-144 -712h-230l-60 285q-33 147 -53 286h-2q-19 -130 -52 -286l-60 -285h-230l-144 712h168l48 -257q29 -158 46 -298h2q25 152 57 298l56 257h221l56 -257q34 -153 56 -298h2q19 148 47 298l47 257h169zM452 900v-131h-143v131h143zM678 900v-131h-142v131h142
z" />
    <glyph glyph-name="wdieresis" unicode="&#x1e85;" horiz-adv-x="848" 
d="M844 508l-113 -508h-227l-41 191q-23 109 -38 213h-2q-15 -104 -38 -213l-41 -191h-227l-113 508h162l33 -187q20 -111 32 -216h2q18 119 41 217l42 186h216l42 -186q23 -98 41 -217h2q12 105 32 216l33 187h162zM382 712v-131h-143v131h143zM608 712v-131h-142v131h142z
" />
    <glyph glyph-name="Germandbls" unicode="&#x1e9e;" horiz-adv-x="814" 
d="M731 586l-145 -161q196 -55 196 -229q0 -100 -68.5 -155.5t-185.5 -55.5t-178 53.5t-61 159.5h156q0 -77 78 -77q38 0 59 19.5t21 57.5q0 110 -194 122v116l108 120q-42 32 -107 32q-171 0 -171 -182v-406h-173v402q0 160 91.5 242.5t264.5 82.5q97 0 177 -38t132 -103z
" />
    <glyph glyph-name="Ygrave" unicode="&#x1ef2;" horiz-adv-x="663" 
d="M662 712l-244 -443v-269h-173v269l-244 443h192l62 -129q43 -89 76 -179h2q30 86 75 179l62 129h192zM158 911h191l78 -151h-128z" />
    <glyph glyph-name="ygrave" unicode="&#x1ef3;" horiz-adv-x="530" 
d="M369 508h169l-169 -499q-38 -113 -92 -157t-152 -44q-43 0 -86 9v126q24 -8 51 -8q35 0 56 17.5t21 48.5q0 23 -28 98l-149 409h179l49 -170q32 -118 51 -212h2q21 106 51 213zM94 712h191l78 -148h-128z" />
    <glyph glyph-name="hyphentwo" unicode="&#x2010;" horiz-adv-x="337" 
d="M307 353v-122h-277v122h277z" />
    <glyph glyph-name="endash" unicode="&#x2013;" horiz-adv-x="500" 
d="M480 353v-122h-460v122h460z" />
    <glyph glyph-name="emdash" unicode="&#x2014;" horiz-adv-x="1000" 
d="M980 353v-122h-960v122h960z" />
    <glyph glyph-name="horizontalbar" unicode="&#x2015;" horiz-adv-x="1000" 
d="M980 353v-122h-960v122h960z" />
    <glyph glyph-name="underscoredbl" unicode="&#x2017;" horiz-adv-x="500" 
d="M500 -50v-84h-500v84h500zM500 -207v-84h-500v84h500z" />
    <glyph glyph-name="quoteleft" unicode="&#x2018;" horiz-adv-x="266" 
d="M59 404v157l77 151h83l-59 -151h49v-157h-150z" />
    <glyph glyph-name="quoteright" unicode="&#x2019;" horiz-adv-x="266" 
d="M207 712v-156l-77 -152h-83l59 152h-49v156h150z" />
    <glyph glyph-name="quotesinglbase" unicode="&#x201a;" horiz-adv-x="266" 
d="M207 156v-156l-77 -151h-83l59 151h-49v156h150z" />
    <glyph glyph-name="quotereversed" unicode="&#x201b;" horiz-adv-x="266" 
d="M59 712h150v-156h-49l59 -152h-83l-77 152v156z" />
    <glyph glyph-name="quotedblleft" unicode="&#x201c;" horiz-adv-x="466" 
d="M59 404v157l77 151h83l-59 -151h49v-157h-150zM259 404v157l77 151h83l-59 -151h49v-157h-150z" />
    <glyph glyph-name="quotedblright" unicode="&#x201d;" horiz-adv-x="466" 
d="M207 712v-156l-77 -152h-83l59 152h-49v156h150zM407 712v-156l-77 -152h-83l59 152h-49v156h150z" />
    <glyph glyph-name="quotedblbase" unicode="&#x201e;" horiz-adv-x="466" 
d="M207 156v-156l-77 -152h-83l59 152h-49v156h150zM407 156v-156l-77 -152h-83l59 152h-49v156h150z" />
    <glyph glyph-name="dagger" unicode="&#x2020;" horiz-adv-x="606" 
d="M386 712v-165h163v-139h-163v-528h-166v528h-163v138h163v166h166z" />
    <glyph glyph-name="daggerdbl" unicode="&#x2021;" horiz-adv-x="606" 
d="M386 712v-165h163v-136h-163v-230h163v-136h-163v-165h-166v165h-163v136h163v230h-163v136h163v165h166z" />
    <glyph glyph-name="bullet" unicode="&#x2022;" horiz-adv-x="389" 
d="M195 201q-64 0 -109.5 45.5t-45.5 109.5t45 109.5t110 45.5q64 0 109 -45.5t45 -109.5t-45 -109.5t-109 -45.5z" />
    <glyph glyph-name="ellipsis" unicode="&#x2026;" horiz-adv-x="943" 
d="M225 184v-184h-176v184h176zM560 184v-184h-177v184h177zM895 184v-184h-177v184h177z" />
    <glyph glyph-name="perthousand" unicode="&#x2030;" horiz-adv-x="1117" 
d="M583 335q73 0 113 -46t40 -131t-39.5 -131t-113.5 -46t-113.5 46t-39.5 131t40 131t113 46zM583 251q-45 0 -45 -93t45 -93q46 0 46 93t-46 93zM934 335q73 0 113 -46t40 -131t-39.5 -131t-113.5 -46t-113.5 46t-39.5 131t40 131t113 46zM934 251q-45 0 -45 -93t45 -93
t45 93t-45 93zM183 693q73 0 113 -46t40 -131t-39.5 -131t-113.5 -46t-113.5 46t-39.5 131t40 131t113 46zM183 609q-45 0 -45 -93t45 -93t45 93t-45 93zM634 704l-402 -734h-102l402 734h102z" />
    <glyph glyph-name="minute" unicode="&#x2032;" horiz-adv-x="237" 
d="M207 674l-73 -242h-104l31 242h146z" />
    <glyph glyph-name="second" unicode="&#x2033;" horiz-adv-x="430" 
d="M207 674l-73 -242h-104l31 242h146zM403 674l-73 -242h-104l31 242h146z" />
    <glyph glyph-name="guilsinglleft" unicode="&#x2039;" horiz-adv-x="342" 
d="M299 454l-106 -200l106 -200h-142l-114 200l114 200h142z" />
    <glyph glyph-name="guilsinglright" unicode="&#x203a;" horiz-adv-x="342" 
d="M43 454h142l114 -200l-114 -200h-142l106 200z" />
    <glyph glyph-name="exclamdouble" unicode="&#x203c;" horiz-adv-x="612" 
d="M261 147v-147h-176v147h176zM528 147v-147h-177v147h177zM270 712l-30 -502h-134l-31 502h195zM537 712l-30 -502h-134l-31 502h195z" />
    <glyph glyph-name="interrobang" unicode="&#x203d;" horiz-adv-x="570" 
d="M188 0v147h176v-147h-176zM188 712h189l-4 -63q78 -17 120 -65.5t42 -120.5q0 -58 -22.5 -95t-83.5 -76q-50 -32 -66 -49.5t-16 -44.5h-140q-2 18 -2 25q0 49 17 76.5t73 68.5q41 30 53.5 48.5t12.5 46.5q0 30 -19.5 47.5t-54.5 17.5q-85 0 -88 -90h-171q3 170 163 209z
" />
    <glyph glyph-name="overline" unicode="&#x203e;" horiz-adv-x="500" 
d="M500 879v-103h-500v103h500z" />
    <glyph glyph-name="fraction" unicode="&#x2044;" horiz-adv-x="149" 
d="M306 674l-363 -674h-100l363 674h100z" />
    <glyph glyph-name="zerosuperior" unicode="&#x2070;" horiz-adv-x="481" 
d="M241 813q101 0 156 -64.5t55 -182.5q0 -119 -55 -183t-156 -64q-102 0 -157 64t-55 183q0 118 55 182.5t157 64.5zM241 710q-71 0 -71 -144q0 -145 71 -145q69 0 69 145q0 144 -69 144z" />
    <glyph glyph-name="foursuperior" unicode="&#x2074;" horiz-adv-x="466" 
d="M455 522v-101h-81v-91h-136v91h-227v106l184 275h179v-280h81zM173 588l-44 -66h115v48q0 61 5 136h-2q-30 -54 -74 -118z" />
    <glyph glyph-name="fivesuperior" unicode="&#x2075;" horiz-adv-x="466" 
d="M403 802v-111h-224l-8 -78h2q40 32 98 32q72 0 117.5 -42.5t45.5 -110.5q0 -79 -55.5 -126t-147.5 -47t-145.5 39.5t-53.5 110.5h140q1 -23 17 -36.5t42 -13.5q30 0 46.5 17t16.5 49q0 31 -16.5 48t-44.5 17q-47 0 -58 -42l-136 8l27 286h337z" />
    <glyph glyph-name="sixsuperior" unicode="&#x2076;" horiz-adv-x="460" 
d="M244 813q80 0 129.5 -39t54.5 -109h-140q-6 49 -51 49q-70 0 -74 -118h2q41 41 110 41q71 0 115 -41.5t44 -108.5q0 -74 -55 -121t-142 -47q-99 0 -153.5 61t-54.5 177q0 120 57 188t158 68zM237 544q-26 0 -42 -17t-16 -46q0 -27 16 -43.5t42 -16.5t42.5 16.5t16.5 44.5
t-16 45t-43 17z" />
    <glyph glyph-name="sevensuperior" unicode="&#x2077;" horiz-adv-x="414" 
d="M11 802h392v-108q-111 -147 -153 -364h-150q23 103 68 198t98 159h-255v115z" />
    <glyph glyph-name="eightsuperior" unicode="&#x2078;" horiz-adv-x="461" 
d="M230 813q86 0 138.5 -36.5t52.5 -96.5q0 -39 -23.5 -66.5t-65.5 -37.5v-2q46 -9 73.5 -40t27.5 -75q0 -66 -54 -103t-149 -37t-148.5 37t-53.5 103q0 44 27.5 75t73.5 40v2q-41 10 -65.5 38t-24.5 66q0 60 52.5 96.5t138.5 36.5zM230 714q-28 0 -44 -12.5t-16 -34.5
q0 -23 16 -36t44 -13t44.5 13t16.5 36q0 22 -16.5 34.5t-44.5 12.5zM230 522q-29 0 -46 -14t-17 -38q0 -23 17 -37t46 -14q30 0 47 14t17 37q0 24 -17 38t-47 14z" />
    <glyph glyph-name="ninesuperior" unicode="&#x2079;" horiz-adv-x="460" 
d="M216 319q-81 0 -130 39t-54 109h140q5 -49 51 -49q70 0 74 118h-2q-41 -41 -110 -41q-71 0 -115 41.5t-44 108.5q0 74 54.5 121t142.5 47q99 0 153.5 -61t54.5 -177q0 -120 -57 -188t-158 -68zM222 588q26 0 42.5 17.5t16.5 45.5q0 27 -16.5 43.5t-42.5 16.5t-42 -16.5
t-16 -44.5t16 -45t42 -17z" />
    <glyph glyph-name="plussuperior" unicode="&#x207a;" horiz-adv-x="412" 
d="M260 712v-108h110v-105h-110v-107h-108v107h-110v105h110v108h108z" />
    <glyph glyph-name="minussuperior" unicode="&#x207b;" horiz-adv-x="412" 
d="M370 604v-105h-328v105h328z" />
    <glyph glyph-name="equalsuperior" unicode="&#x207c;" horiz-adv-x="412" 
d="M370 677v-99h-328v99h328zM370 525v-99h-328v99h328z" />
    <glyph glyph-name="parenleftsuperior" unicode="&#x207d;" horiz-adv-x="263" 
d="M134 849h108q-71 -157 -71 -311q0 -152 71 -311h-108q-106 146 -106 311q0 167 106 311z" />
    <glyph glyph-name="parenrightsuperior" unicode="&#x207e;" horiz-adv-x="263" 
d="M129 227h-108q72 160 72 311q0 150 -72 311h108q106 -144 106 -311q0 -169 -106 -311z" />
    <glyph glyph-name="zeroinferior" unicode="&#x2080;" horiz-adv-x="481" 
d="M241 311q101 0 156 -64.5t55 -182.5q0 -119 -55 -183t-156 -64q-102 0 -157 64t-55 183q0 118 55 182.5t157 64.5zM241 208q-71 0 -71 -144q0 -145 71 -145q69 0 69 145q0 144 -69 144z" />
    <glyph glyph-name="oneinferior" unicode="&#x2081;" horiz-adv-x="335" 
d="M275 300v-472h-140v288h-125v101q67 0 100 19.5t40 63.5h125z" />
    <glyph glyph-name="twoinferior" unicode="&#x2082;" horiz-adv-x="471" 
d="M236 311q88 0 140 -41t52 -104q0 -57 -33 -91.5t-97 -62.5q-60 -26 -80 -41t-22 -33h245v-110h-407q-2 16 -2 28q0 77 31 126t110 88q61 29 86.5 49t25.5 47q0 20 -13 31t-35 11q-57 0 -59 -65h-140q1 81 53 124.5t145 43.5z" />
    <glyph glyph-name="threeinferior" unicode="&#x2083;" horiz-adv-x="464" 
d="M233 311q90 0 141.5 -36t51.5 -98q0 -38 -20 -62.5t-64 -40.5v-2q47 -15 68.5 -41t21.5 -69q0 -67 -53.5 -106t-144.5 -39q-101 0 -155.5 44t-54.5 126h142q0 -68 68 -68q27 0 43 12t16 34q0 51 -79 51h-13v99h16q33 0 52 13t19 36q0 21 -14.5 33t-41.5 12q-63 0 -63 -65
h-137q0 79 53 123t148 44z" />
    <glyph glyph-name="fourinferior" unicode="&#x2084;" horiz-adv-x="466" 
d="M454 20v-101h-81v-91h-136v91h-227v106l184 275h179v-280h81zM172 86l-44 -66h115v48q0 61 5 136h-2q-30 -54 -74 -118z" />
    <glyph glyph-name="fiveinferior" unicode="&#x2085;" horiz-adv-x="466" 
d="M403 300v-111h-224l-8 -78h2q40 32 98 32q72 0 117.5 -42.5t45.5 -110.5q0 -79 -55.5 -126t-147.5 -47t-145.5 39.5t-53.5 110.5h140q1 -23 17 -36.5t42 -13.5q30 0 46.5 17t16.5 49q0 31 -16.5 48t-44.5 17q-47 0 -58 -42l-136 8l27 286h337z" />
    <glyph glyph-name="sixinferior" unicode="&#x2086;" horiz-adv-x="460" 
d="M244 311q80 0 129.5 -39t54.5 -109h-140q-6 49 -51 49q-70 0 -74 -118h2q41 41 110 41q71 0 115 -41.5t44 -108.5q0 -74 -55 -121t-142 -47q-99 0 -153.5 61t-54.5 177q0 120 57 188t158 68zM237 42q-26 0 -42 -17t-16 -46q0 -27 16 -43.5t42 -16.5t42.5 16.5t16.5 44.5
t-16 45t-43 17z" />
    <glyph glyph-name="seveninferior" unicode="&#x2087;" horiz-adv-x="414" 
d="M10 300h392v-108q-111 -147 -153 -364h-150q23 103 68 198t98 159h-255v115z" />
    <glyph glyph-name="eightinferior" unicode="&#x2088;" horiz-adv-x="461" 
d="M230 311q86 0 138.5 -36.5t52.5 -96.5q0 -39 -23.5 -66.5t-65.5 -37.5v-2q46 -9 73.5 -40t27.5 -75q0 -66 -54 -103t-149 -37t-148.5 37t-53.5 103q0 44 27.5 75t73.5 40v2q-41 10 -65.5 38t-24.5 66q0 60 52.5 96.5t138.5 36.5zM230 212q-28 0 -44 -12.5t-16 -34.5
q0 -23 16 -36t44 -13t44.5 13t16.5 36q0 22 -16.5 34.5t-44.5 12.5zM230 20q-29 0 -46 -14t-17 -38q0 -23 17 -37t46 -14q30 0 47 14t17 37q0 24 -17 38t-47 14z" />
    <glyph glyph-name="nineinferior" unicode="&#x2089;" horiz-adv-x="460" 
d="M216 -183q-81 0 -130 39t-54 109h140q5 -49 51 -49q70 0 74 118h-2q-41 -41 -110 -41q-71 0 -115 41.5t-44 108.5q0 74 54.5 121t142.5 47q99 0 153.5 -61t54.5 -177q0 -120 -57 -188t-158 -68zM222 86q26 0 42.5 17.5t16.5 45.5q0 27 -16.5 43.5t-42.5 16.5t-42 -16.5
t-16 -44.5t16 -45t42 -17z" />
    <glyph glyph-name="plusinferior" unicode="&#x208a;" horiz-adv-x="412" 
d="M260 210v-108h110v-105h-110v-107h-108v107h-110v105h110v108h108z" />
    <glyph glyph-name="minusinferior" unicode="&#x208b;" horiz-adv-x="412" 
d="M370 102v-105h-328v105h328z" />
    <glyph glyph-name="equalinferior" unicode="&#x208c;" horiz-adv-x="412" 
d="M370 175v-99h-328v99h328zM370 23v-99h-328v99h328z" />
    <glyph glyph-name="parenleftinferior" unicode="&#x208d;" horiz-adv-x="263" 
d="M134 347h108q-71 -157 -71 -311q0 -152 71 -311h-108q-106 146 -106 311q0 167 106 311z" />
    <glyph glyph-name="parenrightinferior" unicode="&#x208e;" horiz-adv-x="263" 
d="M129 -275h-108q72 160 72 311q0 150 -72 311h108q106 -144 106 -311q0 -169 -106 -311z" />
    <glyph glyph-name="ninferior" unicode="&#x2099;" horiz-adv-x="449" 
d="M277 194q62 0 97.5 -38t35.5 -109v-219h-135v202q0 59 -45 59q-51 0 -51 -83v-178h-136v356h126v-41h1q41 51 107 51z" />
    <glyph glyph-name="franc" unicode="&#x20a3;" horiz-adv-x="628" 
d="M587 529h-315v-106h292v-144h-292v-78h164v-119h-164v-82h-173v82h-76v119h76v473h488v-145z" />
    <glyph glyph-name="lira" unicode="&#x20a4;" horiz-adv-x="628" 
d="M223 137v-2h367v-135h-567v137q41 0 62.5 21.5t25.5 72.5h-88v73h89v38h-89v73h89v27q0 122 64 185t185 63q108 0 171.5 -60t63.5 -162h-163q0 41 -19 63.5t-54 22.5q-79 0 -79 -111v-28h125v-73h-125v-38h125v-73h-126q-7 -65 -57 -94z" />
    <glyph glyph-name="peseta" unicode="&#x20a7;" horiz-adv-x="937" 
d="M875 123q20 0 37 5v-125q-40 -11 -84 -11q-96 0 -139.5 40t-43.5 129v226h-43q-15 -88 -83 -137t-185 -49h-85v-201h-173v674h258q110 0 177 -43.5t87 -122.5h47v137h166v-137h96v-121h-96v-188q0 -41 15 -58.5t49 -17.5zM249 535v-195h61q118 0 118 97q0 98 -118 98h-61
z" />
    <glyph glyph-name="euro" unicode="&#x20ac;" horiz-adv-x="628" 
d="M446 214h169q-11 -108 -82 -169t-186 -61q-117 0 -190.5 66.5t-94.5 190.5h-61l14 73h40v38h-54l14 73h46q20 127 94 196t194 69q116 0 185 -61t77 -167h-166q-7 43 -32.5 66.5t-66.5 23.5q-95 0 -119 -127h210l-14 -73h-203v-38h196l-14 -73h-173q24 -119 117 -119
q41 0 67 24.5t33 67.5z" />
    <glyph glyph-name="rupeeIndian" unicode="&#x20b9;" horiz-adv-x="628" 
d="M572 581h-142v-2q38 -17 53 -57h114l-25 -93h-85q-23 -104 -158 -129v-2q34 -13 60 -41t51 -80l87 -177h-199l-75 167q-24 51 -54 73.5t-73 22.5h-15v106h50q100 0 132 60h-262l26 93h241q-25 59 -129 59h-138l26 93h540z" />
    <glyph glyph-name="liraTurkish" unicode="&#x20ba;" horiz-adv-x="628" 
d="M429 325h181q0 -164 -91 -249.5t-259 -85.5q-79 0 -162 10v236l-85 -47v95l85 47v59l-85 -47v95l85 47v189h174v-108l161 88v-95l-161 -88v-59l161 88v-95l-161 -87v-178q76 0 116.5 46.5t40.5 138.5z" />
    <glyph glyph-name="uni20BC" unicode="&#x20bc;" horiz-adv-x="759" 
d="M190 0h-154v301q0 153 66 231t200 89v91h155v-91q134 -11 200 -89t66 -231v-301h-155v293q0 93 -25.5 135t-85.5 48v-476h-155v476q-60 -6 -86 -48.5t-26 -134.5v-293z" />
    <glyph glyph-name="ruble" unicode="&#x20bd;" horiz-adv-x="628" 
d="M86 377v297h267q123 0 186.5 -55.5t63.5 -153.5t-63.5 -154t-186.5 -56h-94v-51h175v-112h-175v-92h-173v92h-74v112h74v51h-74v122h74zM328 552h-69v-175h69q97 0 97 88q0 87 -97 87z" />
    <glyph glyph-name="careof" unicode="&#x2105;" horiz-adv-x="964" 
d="M745 362q92 0 146.5 -51.5t54.5 -137.5q0 -87 -54.5 -138t-146.5 -51t-146 51t-54 138q0 86 54.5 137.5t145.5 51.5zM745 261q-28 0 -43.5 -23.5t-15.5 -64.5t15.5 -64.5t43.5 -23.5t44 23.5t16 64.5t-16 64.5t-44 23.5zM217 690q81 0 133 -41t59 -110h-140q-5 50 -50 50
q-26 0 -41 -23t-15 -64q0 -43 15 -66t42 -23q21 0 34 15.5t14 41.5h141q-5 -73 -57 -115.5t-134 -42.5q-90 0 -143.5 51.5t-53.5 138.5q0 86 53 137t143 51zM707 674l-363 -674h-100l363 674h100z" />
    <glyph glyph-name="literSign" unicode="&#x2113;" horiz-adv-x="452" 
d="M237 206v-26q0 -39 15 -56.5t49 -17.5q23 0 46 7v-112q-41 -11 -88 -11q-95 0 -139.5 45t-44.5 141v10q-26 2 -47 6v84q23 -5 47 -6v188q0 130 40.5 181t128.5 51q75 0 120.5 -47.5t45.5 -150.5q0 -223 -173 -286zM274 591q-20 0 -28.5 -19.5t-8.5 -73.5v-193
q81 55 81 189q0 97 -44 97z" />
    <glyph glyph-name="numero" unicode="&#x2116;" horiz-adv-x="1216" 
d="M1174 199v-115h-358v115h358zM726 712v-712h-250l-124 281q-66 149 -116 285h-2q8 -160 8 -300v-266h-166v712h249l125 -281q66 -153 116 -285h2q-8 133 -8 300v266h166zM997 626q92 0 146 -51t54 -138t-54 -138t-146 -51t-146.5 51t-54.5 138t54.5 138t146.5 51z
M997 525q-29 0 -44.5 -23t-15.5 -65q0 -41 16 -64.5t44 -23.5t43.5 23.5t15.5 64.5q0 42 -15.5 65t-43.5 23z" />
    <glyph glyph-name="published" unicode="&#x2117;" horiz-adv-x="798" 
d="M399 727q163 0 262 -102t99 -269t-99 -269t-262 -102t-262 102t-99 269t99 269t262 102zM399 664q-135 0 -217 -84.5t-82 -223.5t82 -223.5t217 -84.5t217.5 84.5t82.5 223.5t-82.5 223.5t-217.5 84.5zM250 133v438h183q86 0 129 -39.5t43 -109.5t-43.5 -110t-128.5 -40
h-73v-139h-110zM417 481h-57v-118h58q74 0 74 59t-75 59z" />
    <glyph glyph-name="trademark" unicode="&#x2122;" horiz-adv-x="857" 
d="M323 712v-94h-103v-262h-112v262h-103v94h318zM819 712v-356h-99v161q0 85 2 128h-2q-18 -84 -28 -126l-38 -163h-131l-38 163l-27 126h-2q2 -86 2 -128v-161h-99v356h169l34 -143q15 -62 26 -131h2q9 63 25 131l34 143h170z" />
    <glyph glyph-name="Ohm" unicode="&#x2126;" horiz-adv-x="747" 
d="M373 728q153 0 244 -79t91 -232q0 -82 -34.5 -145.5t-97.5 -123.5v-2h143v-146h-299v152q51 52 79 107.5t28 129.5q0 92 -42 140.5t-112 48.5q-69 0 -111 -48.5t-42 -140.5q0 -74 28 -129.5t79 -107.5v-152h-299v146h143v2q-63 59 -97.5 123t-34.5 146q0 152 91 231.5
t243 79.5z" />
    <glyph glyph-name="estimated" unicode="&#x212e;" horiz-adv-x="863" 
d="M432 690q176 0 279.5 -105t103.5 -257h-612q-14 0 -14 -13v-167q0 -29 16 -44q93 -91 227 -91q72 0 135.5 30.5t103.5 79.5h69q-40 -56 -118 -95.5t-190 -39.5q-173 0 -279 98t-106 251t104.5 253t280.5 100zM432 664q-133 0 -227 -94q-16 -14 -16 -41v-167q0 -12 14 -12
h456q13 0 13 12v167q0 27 -15 41q-95 94 -225 94z" />
    <glyph glyph-name="oneeighth" unicode="&#x215b;" horiz-adv-x="839" 
d="M638 414q76 0 121.5 -32t45.5 -85q0 -32 -20.5 -55t-57.5 -31v-2q40 -8 64 -34t24 -63q0 -58 -47 -90t-130 -32t-130 32t-47 90q0 37 24 63t65 34v2q-37 8 -58 31t-21 55q0 53 46 85t121 32zM638 328q-23 0 -37 -10.5t-14 -28.5t14 -29t37 -11t37 11t14 29t-14 28.5
t-37 10.5zM638 163q-24 0 -38.5 -11.5t-14.5 -30.5q0 -20 14 -31.5t39 -11.5t39.5 11.5t14.5 31.5q0 19 -15 30.5t-39 11.5zM242 674v-404h-130v244h-103v89q96 0 115 71h118zM594 674l-363 -674h-100l363 674h100z" />
    <glyph glyph-name="threeeighths" unicode="&#x215c;" horiz-adv-x="957" 
d="M756 414q76 0 121.5 -32t45.5 -85q0 -32 -20.5 -55t-57.5 -31v-2q40 -8 64 -34t24 -63q0 -58 -47 -90t-130 -32t-130 32t-47 90q0 37 24 63t65 34v2q-37 8 -58 31t-21 55q0 53 46 85t121 32zM756 328q-23 0 -37 -10.5t-14 -28.5t14 -29t37 -11t37 11t14 29t-14 28.5
t-37 10.5zM756 163q-24 0 -38.5 -11.5t-14.5 -30.5q0 -20 14 -31.5t39 -11.5t39.5 11.5t14.5 31.5q0 19 -15 30.5t-39 11.5zM203 684q77 0 124 -32t47 -85q0 -63 -74 -87v-1q79 -24 79 -96q0 -59 -45.5 -91t-128.5 -32q-88 0 -136 38t-48 109h125q0 -56 59 -56
q23 0 37.5 10.5t14.5 27.5q0 40 -66 40h-14v87h13q63 0 63 41q0 17 -13.5 27t-37.5 10q-54 0 -54 -53h-121q0 67 47 105t129 38zM712 674l-363 -674h-100l363 674h100z" />
    <glyph glyph-name="fiveeighths" unicode="&#x215d;" horiz-adv-x="958" 
d="M757 414q76 0 121.5 -32t45.5 -85q0 -32 -20.5 -55t-57.5 -31v-2q40 -8 64 -34t24 -63q0 -58 -47 -90t-130 -32t-130 32t-47 90q0 37 24 63t65 34v2q-37 8 -58 31t-21 55q0 53 46 85t121 32zM757 328q-23 0 -37 -10.5t-14 -28.5t14 -29t37 -11t37 11t14 29t-14 28.5
t-37 10.5zM757 163q-24 0 -38.5 -11.5t-14.5 -30.5q0 -20 14 -31.5t39 -11.5t39.5 11.5t14.5 31.5q0 19 -15 30.5t-39 11.5zM354 674v-97h-195l-7 -64h2q33 27 85 27q62 0 102 -37.5t40 -97.5q0 -66 -48.5 -105.5t-128.5 -39.5t-128 34.5t-48 94.5h126q2 -42 50 -42
q26 0 40 15t14 42q0 25 -14 39.5t-38 14.5q-42 0 -50 -36l-121 7l23 245h296zM713 674l-363 -674h-100l363 674h100z" />
    <glyph glyph-name="seveneighths" unicode="&#x215e;" horiz-adv-x="859" 
d="M658 414q76 0 121.5 -32t45.5 -85q0 -32 -20.5 -55t-57.5 -31v-2q40 -8 64 -34t24 -63q0 -58 -47 -90t-130 -32t-130 32t-47 90q0 37 24 63t65 34v2q-37 8 -58 31t-21 55q0 53 46 85t121 32zM658 328q-23 0 -37 -10.5t-14 -28.5t14 -29t37 -11t37 11t14 29t-14 28.5
t-37 10.5zM658 163q-24 0 -38.5 -11.5t-14.5 -30.5q0 -20 14 -31.5t39 -11.5t39.5 11.5t14.5 31.5q0 19 -15 30.5t-39 11.5zM9 674h339v-94q-94 -123 -132 -310h-133q20 88 58.5 169.5t84.5 136.5h-217v98zM614 674l-363 -674h-100l363 674h100z" />
    <glyph glyph-name="Sevenroman" unicode="&#x2166;" horiz-adv-x="1292" 
d="M658 712l-214 -712h-226l-214 712h181l77 -275q41 -138 68 -280h2q24 125 68 280l78 275h180zM892 712v-712h-173v712h173zM1216 712v-712h-173v712h173z" />
    <glyph glyph-name="partialdiff" unicode="&#x2202;" horiz-adv-x="632" 
d="M292 728q139 0 209 -89.5t70 -259.5q0 -199 -77 -297t-204 -98q-124 0 -190.5 66t-66.5 177t66.5 181.5t181.5 70.5q78 0 124 -44h2q1 7 1 21q0 64 -30.5 104t-78.5 40q-66 0 -75 -69h-169q9 92 69.5 144.5t167.5 52.5zM304 366q-46 0 -72.5 -38t-26.5 -101q0 -55 23 -85
t67 -30q47 0 73.5 36.5t26.5 98.5q0 56 -24 87.5t-67 31.5z" />
    <glyph glyph-name="increment" unicode="&#x2206;" horiz-adv-x="714" 
d="M470 712l243 -712h-712l245 712h224zM224 141h265l-61 200q-44 149 -71 259h-2q-27 -110 -71 -259z" />
    <glyph glyph-name="product" unicode="&#x220f;" horiz-adv-x="702" 
d="M627 712v-832h-173v685h-205v-685h-173v832h551z" />
    <glyph glyph-name="summation" unicode="&#x2211;" horiz-adv-x="527" 
d="M492 712v-148h-269l161 -268l-161 -267h269v-149h-457v149l165 267l-165 268v148h457z" />
    <glyph glyph-name="minus" unicode="&#x2212;" horiz-adv-x="566" 
d="M507 381v-129h-448v129h448z" />
    <glyph glyph-name="divisionslash" unicode="&#x2215;" horiz-adv-x="503" 
d="M452 745l-297 -834h-125l298 834h124z" />
    <glyph glyph-name="bulletoperator" unicode="&#x2219;" horiz-adv-x="371" 
d="M274 397v-183h-177v183h177z" />
    <glyph glyph-name="radical" unicode="&#x221a;" horiz-adv-x="674" 
d="M654 712l-238 -832h-220l-88 373h-83v133h195l89 -372h2l199 698h144z" />
    <glyph glyph-name="infinity" unicode="&#x221e;" horiz-adv-x="706" 
d="M522 491q77 0 123 -50t46 -133t-46 -133t-123 -50q-97 0 -169 88q-71 -88 -169 -88q-77 0 -123 50t-46 133t46 133t123 50q98 0 169 -88q72 88 169 88zM199 247q41 0 86 61q-45 61 -86 61q-27 0 -42.5 -16.5t-15.5 -44.5t15.5 -44.5t42.5 -16.5zM507 247q28 0 43 16.5
t15 44.5t-15 44.5t-43 16.5q-41 0 -86 -61q45 -61 86 -61z" />
    <glyph glyph-name="integral" unicode="&#x222b;" horiz-adv-x="372" 
d="M286 721q43 0 79 -9v-114q-10 2 -23 2q-38 0 -56 -17.5t-18 -57.5v-543q0 -176 -183 -176q-42 0 -78 9v114q10 -2 23 -2q38 0 56 17.5t18 57.5v543q0 88 46.5 132t135.5 44z" />
    <glyph glyph-name="approxequal" unicode="&#x2248;" horiz-adv-x="566" 
d="M197 302q40 0 93.5 -35t73.5 -35q22 0 34.5 15t12.5 42h98q0 -78 -38.5 -126.5t-101.5 -48.5q-40 0 -93.5 35t-73.5 35q-22 0 -34.5 -15.5t-12.5 -41.5h-98q0 79 38 127t102 48zM197 520q40 0 93.5 -35t73.5 -35q22 0 34.5 15.5t12.5 41.5h98q0 -78 -38.5 -126.5
t-101.5 -48.5q-40 0 -93.5 35t-73.5 35q-22 0 -34.5 -15t-12.5 -42h-98q0 79 38 127t102 48z" />
    <glyph glyph-name="notequal" unicode="&#x2260;" horiz-adv-x="566" 
d="M507 356h-146l-43 -79h189v-124h-256l-62 -113h-113l61 113h-78v124h146l42 79h-188v124h256l61 113h114l-62 -113h79v-124z" />
    <glyph glyph-name="lessequal" unicode="&#x2264;" horiz-adv-x="566" 
d="M59 117h448v-117h-448v117zM507 574v-124l-295 -94v-2l295 -93v-124l-448 144v148z" />
    <glyph glyph-name="greaterequal" unicode="&#x2265;" horiz-adv-x="566" 
d="M507 117v-117h-448v117h448zM59 574l448 -145v-148l-448 -144v124l295 93v2l-295 94v124z" />
    <glyph glyph-name="lozenge" unicode="&#x25ca;" horiz-adv-x="668" 
d="M444 712l184 -356l-184 -356h-221l-183 356l183 356h221zM334 594l-124 -238l124 -238l123 238z" />
    <glyph glyph-name="apple" unicode="&#xf8ff;" horiz-adv-x="648" 
d="M151 777h346q63 0 100 -37t37 -100v-568q0 -63 -37 -100t-100 -37h-346q-63 0 -100 37t-37 100v568q0 63 37 100t100 37zM497 708h-346q-31 0 -49.5 -18t-18.5 -50v-568q0 -32 18.5 -50t49.5 -18h346q31 0 49.5 18t18.5 50v568q0 32 -18.5 50t-49.5 18zM387 184v-119
h-136v119h136zM325 647q86 0 135 -40.5t49 -111.5q0 -41 -14.5 -69.5t-55.5 -66.5q-40 -37 -52.5 -63t-12.5 -71h-111q-1 13 -1 38q0 49 12 77t51 68q29 29 38 46t9 39t-12.5 35t-34.5 13q-57 0 -57 -78h-135q1 89 51 136.5t141 47.5z" />
    <glyph glyph-name="ff" unicode="&#xfb00;" horiz-adv-x="690" 
d="M657 600q-38 0 -56 -17t-18 -57v-18h94v-121h-94v-387h-164v387h-165v-387h-164v387h-81v121h81v37q0 176 183 176q43 0 79 -9v-114q-10 2 -24 2q-38 0 -56 -17t-18 -57v-18h165v37q0 176 183 176q43 0 79 -9v-114q-10 2 -24 2z" />
    <glyph glyph-name="fi" unicode="&#xfb01;" horiz-adv-x="649" 
d="M9 508h81v37q0 176 183 176q43 0 79 -9v-114q-10 2 -24 2q-38 0 -56 -17t-18 -57v-18h94v-121h-94v-387h-164v387h-81v121zM422 0v508h166v-508h-166zM422 712h166v-131h-166v131z" />
    <glyph glyph-name="fl" unicode="&#xfb02;" horiz-adv-x="649" 
d="M9 508h81v37q0 176 183 176q43 0 79 -9v-114q-10 2 -24 2q-38 0 -56 -17t-18 -57v-18h94v-121h-94v-387h-164v387h-81v121zM422 712h166v-712h-166v712z" />
    <glyph glyph-name="ffi" unicode="&#xfb03;" horiz-adv-x="978" 
d="M254 508h165v37q0 176 183 176q43 0 79 -9v-114q-10 2 -24 2q-38 0 -56 -17t-18 -57v-18h94v-121h-94v-387h-164v387h-165v-387h-164v387h-81v121h81v37q0 176 183 176q43 0 79 -9v-114q-10 2 -24 2q-38 0 -56 -17t-18 -57v-18zM751 0v508h166v-508h-166zM751 712h166
v-131h-166v131z" />
    <glyph glyph-name="ffl" unicode="&#xfb04;" horiz-adv-x="978" 
d="M254 508h165v37q0 176 183 176q43 0 79 -9v-114q-10 2 -24 2q-38 0 -56 -17t-18 -57v-18h94v-121h-94v-387h-164v387h-165v-387h-164v387h-81v121h81v37q0 176 183 176q43 0 79 -9v-114q-10 2 -24 2q-38 0 -56 -17t-18 -57v-18zM751 712h166v-712h-166v712z" />
    <glyph glyph-name="uniFEFF" unicode="&#xfeff;" horiz-adv-x="0" 
 />
    <glyph glyph-name="J.acute.loclNLD" horiz-adv-x="410" 
d="M166 712h173v-471q0 -128 -59.5 -188.5t-186.5 -60.5q-47 0 -78 9v144q23 -5 45 -5q58 0 82 29.5t24 109.5v433zM427 916l-141 -148h-128l78 148h191z" />
    <glyph glyph-name="Ccedilla.ss01" horiz-adv-x="715" 
d="M367 728q138 0 221.5 -73.5t88.5 -198.5h-179q-6 58 -40.5 90t-90.5 32q-71 0 -111.5 -59.5t-40.5 -162.5t40.5 -162.5t109.5 -59.5q56 0 91.5 33t42.5 93h181q-10 -132 -94 -204t-221 -72q-154 0 -242.5 99.5t-88.5 272.5t89 272.5t244 99.5zM452 -49l-98 -168h-176
l141 168h133z" />
    <glyph glyph-name="Scedilla.ss01" horiz-adv-x="645" 
d="M315 728q135 0 207 -59.5t72 -173.5h-180q0 48 -27.5 73.5t-78.5 25.5q-43 0 -68.5 -18.5t-25.5 -48.5q0 -34 29.5 -50.5t112.5 -37.5q50 -12 80.5 -21.5t68 -28t58.5 -40.5t35.5 -57t14.5 -80q0 -104 -79 -166t-212 -62q-140 0 -219 65t-79 183h184q0 -110 118 -110
q49 0 77 20t28 55q0 37 -27.5 53t-108.5 37q-52 13 -80.5 22t-68 27.5t-60 39.5t-35.5 55.5t-15 79.5q0 98 75.5 157.5t203.5 59.5zM402 -49l-98 -168h-176l141 168h133z" />
    <glyph glyph-name="Tcedilla.ss01" horiz-adv-x="627" 
d="M618 712v-147h-218v-565h-173v565h-218v147h609zM399 -49l-98 -168h-176l141 168h133z" />
    <glyph glyph-name="idotaccent" horiz-adv-x="288" 
d="M227 508v-508h-166v508h166zM227 712v-131h-166v131h166z" />
    <glyph glyph-name="j.acute.loclNLD" horiz-adv-x="289" 
d="M62 508h166v-507q0 -98 -50.5 -144.5t-136.5 -46.5q-47 0 -80 9v116q12 -3 26 -3q39 0 57 21t18 76v479zM318 712l-141 -148h-128l78 148h191z" />
    <glyph glyph-name="ccedilla.ss01" horiz-adv-x="575" 
d="M295 524q107 0 176.5 -58t77.5 -152h-172q-4 40 -25.5 62.5t-55.5 22.5q-43 0 -67.5 -38t-24.5 -106q0 -69 24.5 -107t68.5 -38q34 0 55.5 25t23.5 69h173q-8 -101 -76.5 -160.5t-176.5 -59.5q-121 0 -193.5 73.5t-72.5 197.5q0 123 72 196t193 73zM380 -49l-98 -168
h-176l141 168h133z" />
    <glyph glyph-name="scedilla.ss01" horiz-adv-x="542" 
d="M267 524q107 0 166 -43t59 -127h-158q0 65 -68 65q-59 0 -59 -40q0 -22 20.5 -33t83.5 -27q38 -10 58.5 -16.5t51.5 -20.5t47.5 -30.5t29 -43.5t12.5 -61q0 -74 -63 -118.5t-173 -44.5q-243 0 -243 181h167q0 -72 78 -72q31 0 47.5 11.5t16.5 30.5q0 26 -23.5 38.5
t-93.5 30.5q-35 9 -53 14t-47 18.5t-43 28.5t-25.5 41t-11.5 59q0 71 59 115t165 44zM358 -49l-98 -168h-176l141 168h133z" />
    <glyph glyph-name="tcedilla.ss01" horiz-adv-x="378" 
d="M316 123q20 0 37 5v-125q-40 -11 -84 -11q-96 0 -139.5 40t-43.5 129v226h-79v121h79v137h166v-137h96v-121h-96v-188q0 -41 15 -58.5t49 -17.5zM22 -217l141 168h133l-98 -168h-176z" />
    <glyph glyph-name="a.sups" horiz-adv-x="419" 
d="M206 697q173 0 173 -148v-115q0 -65 12 -104h-122q-6 20 -6 45h-2q-42 -55 -118 -55q-59 0 -93.5 31.5t-34.5 80.5q0 48 35 76t114 40q50 7 84 9v13q0 48 -44 48q-42 0 -44 -45h-130q4 54 47 89t129 35zM248 477v12q-99 0 -99 -48q0 -37 40 -37q59 0 59 73z" />
    <glyph glyph-name="b.sups" horiz-adv-x="452" 
d="M179 828v-176h2q33 44 95 44q71 0 113 -51t42 -137t-43 -137.5t-115 -51.5q-65 0 -98 52h-2v-41h-130v498h136zM230 594q-27 0 -42.5 -23.5t-15.5 -62.5q0 -40 15.5 -63t42.5 -23t43.5 23t16.5 63t-16.5 63t-43.5 23z" />
    <glyph glyph-name="c.sups" horiz-adv-x="427" 
d="M217 697q81 0 133 -41t59 -110h-140q-5 50 -50 50q-26 0 -41 -23t-15 -64q0 -43 15 -66t42 -23q21 0 34 15.5t14 41.5h141q-5 -73 -57 -115.5t-134 -42.5q-90 0 -143.5 51.5t-53.5 138.5q0 86 53 137t143 51z" />
    <glyph glyph-name="d.sups" horiz-adv-x="453" 
d="M274 828h136v-498h-131v41h-1q-33 -52 -99 -52q-72 0 -115 51.5t-43 137.5t42 137t113 51q63 0 96 -44h2v176zM223 594q-28 0 -44 -23t-16 -63t16 -63t44 -23q27 0 42.5 23t15.5 63q0 39 -15.5 62.5t-42.5 23.5z" />
    <glyph glyph-name="e.sups" horiz-adv-x="431" 
d="M215 406q21 0 35.5 9.5t16.5 24.5h138q-12 -53 -63.5 -87t-124.5 -34q-93 0 -144.5 53.5t-51.5 137.5q0 81 52 134t142 53q135 0 180 -110q15 -35 15 -107h-256q4 -74 61 -74zM215 613q-51 0 -60 -62h119q-4 62 -59 62z" />
    <glyph glyph-name="egrave.sups" horiz-adv-x="431" 
d="M215 406q21 0 35.5 9.5t16.5 24.5h138q-12 -53 -63.5 -87t-124.5 -34q-93 0 -144.5 53.5t-51.5 137.5q0 81 52 134t142 53q135 0 180 -110q15 -35 15 -107h-256q4 -74 61 -74zM215 613q-51 0 -60 -62h119q-4 62 -59 62zM293 724h-119l-118 104h164z" />
    <glyph glyph-name="f.sups" horiz-adv-x="274" 
d="M250 739q-52 0 -52 -49v-4h66v-97h-66v-259h-136v259h-56v97h56v19q0 131 143 131q29 0 63 -8v-91q-8 2 -18 2z" />
    <glyph glyph-name="g.sups" horiz-adv-x="445" 
d="M172 696q64 0 103 -57h1v47h127v-331q0 -163 -193 -163q-78 0 -122.5 30.5t-50.5 86.5h128q3 -35 47 -35q29 0 44 17t15 59v39h-2q-36 -49 -100 -49q-68 0 -108 48.5t-40 129.5q0 82 40.5 130t110.5 48zM217 595q-26 0 -41.5 -20.5t-15.5 -56.5t15.5 -56.5t41.5 -20.5
q27 0 42.5 21t15.5 56t-15.5 56t-42.5 21z" />
    <glyph glyph-name="h.sups" horiz-adv-x="449" 
d="M179 828v-174h2q35 42 96 42q62 0 97.5 -38t35.5 -109v-219h-135v202q0 59 -45 59q-51 0 -51 -83v-178h-136v498h136z" />
    <glyph glyph-name="i.sups" horiz-adv-x="221" 
d="M179 686v-356h-136v356h136zM179 828v-99h-136v99h136z" />
    <glyph glyph-name="j.sups" horiz-adv-x="224" 
d="M45 686h136v-346q0 -72 -39 -107.5t-104 -35.5q-41 0 -65 7v93q12 -2 18 -2q28 0 41 15t13 54v322zM181 828v-99h-136v99h136z" />
    <glyph glyph-name="k.sups" horiz-adv-x="425" 
d="M297 518l135 -188h-165l-86 155h-2v-155h-136v499h136v-279h2l80 136h159z" />
    <glyph glyph-name="l.sups" horiz-adv-x="221" 
d="M179 828v-498h-136v498h136z" />
    <glyph glyph-name="m.sups" horiz-adv-x="667" 
d="M500 696q60 0 94 -38t34 -109v-219h-136v202q0 59 -40 59q-49 0 -49 -83v-178h-135v206q0 55 -40 55q-49 0 -49 -83v-178h-136v356h126v-41h2q38 51 104 51q76 0 108 -62q42 62 117 62z" />
    <glyph glyph-name="n.sups" horiz-adv-x="449" 
d="M277 696q62 0 97.5 -38t35.5 -109v-219h-135v202q0 59 -45 59q-51 0 -51 -83v-178h-136v356h126v-41h1q41 51 107 51z" />
    <glyph glyph-name="o.sups" horiz-adv-x="444" 
d="M222 697q92 0 146.5 -51.5t54.5 -137.5q0 -87 -54.5 -138t-146.5 -51t-146.5 51t-54.5 138q0 86 54.5 137.5t146.5 51.5zM222 596q-28 0 -43.5 -23t-15.5 -65t15.5 -65t43.5 -23t43.5 23t15.5 65t-15.5 65t-43.5 23z" />
    <glyph glyph-name="p.sups" horiz-adv-x="452" 
d="M273 696q72 0 115 -51t43 -137t-42 -137.5t-113 -51.5q-63 0 -95 44h-2v-162h-136v485h130v-41h2q32 51 98 51zM230 594q-27 0 -42.5 -23.5t-15.5 -62.5q0 -40 15.5 -63t42.5 -23t43.5 23t16.5 63t-16.5 63t-43.5 23z" />
    <glyph glyph-name="q.sups" horiz-adv-x="453" 
d="M179 696q67 0 99 -51h1v41h131v-485h-136v162h-2q-33 -44 -96 -44q-71 0 -113 51.5t-42 137.5t43 137t115 51zM223 594q-28 0 -44 -23t-16 -63t16 -63t44 -23q27 0 42.5 23t15.5 63q0 39 -15.5 62.5t-42.5 23.5z" />
    <glyph glyph-name="r.sups" horiz-adv-x="317" 
d="M276 691q21 0 36 -4v-115q-24 4 -41 4q-45 0 -68.5 -26.5t-23.5 -76.5v-143h-136v356h126v-48h2q37 53 105 53z" />
    <glyph glyph-name="s.sups" horiz-adv-x="405" 
d="M201 697q80 0 124.5 -29.5t44.5 -88.5h-129q0 39 -41 39q-36 0 -36 -23q0 -13 13.5 -20t58.5 -19q27 -7 43.5 -12t38.5 -15t34.5 -21.5t21.5 -30.5t9 -42q0 -53 -46 -84.5t-130 -31.5q-185 0 -185 127h136q0 -44 49 -44q40 0 40 24q0 16 -16 23.5t-68 20.5q-32 8 -49 14
t-39.5 18.5t-33 32.5t-10.5 49q0 51 43 82t127 31z" />
    <glyph glyph-name="t.sups" horiz-adv-x="286" 
d="M241 430q17 0 27 3v-101q-41 -9 -67 -9q-73 0 -106.5 29t-33.5 93v144h-56v97h56v99h135v-99h68v-97h-68v-107q0 -28 10.5 -40t34.5 -12z" />
    <glyph glyph-name="u.sups" horiz-adv-x="449" 
d="M173 320q-63 0 -98.5 38t-35.5 109v219h136v-202q0 -59 44 -59q52 0 52 83v178h135v-356h-126v41h-1q-41 -51 -106 -51z" />
    <glyph glyph-name="v.sups" horiz-adv-x="400" 
d="M406 686l-114 -356h-184l-114 356h146l30 -120q19 -82 29 -148h2q10 66 29 148l30 120h146z" />
    <glyph glyph-name="w.sups" horiz-adv-x="635" 
d="M632 686l-82 -356h-180l-26 127q-17 79 -26 147h-1q-12 -82 -25 -147l-27 -127h-180l-82 356h131l21 -124q14 -88 19 -148h2q12 83 28 150l28 122h171l29 -122q19 -83 28 -150h2q5 60 19 148l20 124h131z" />
    <glyph glyph-name="x.sups" horiz-adv-x="402" 
d="M398 686l-111 -173l119 -183h-153l-51 108h-2l-51 -108h-153l119 183l-111 173h152l44 -98h2l44 98h152z" />
    <glyph glyph-name="y.sups" horiz-adv-x="401" 
d="M268 686h138l-111 -334q-30 -89 -69.5 -123t-111.5 -34q-35 0 -68 7v98q17 -5 34 -5q47 0 47 35q0 14 -23 73l-111 283h148l32 -119q22 -80 34 -147h2q13 77 31 148z" />
    <glyph glyph-name="z.sups" horiz-adv-x="371" 
d="M345 686v-105l-155 -147v-2h161v-102h-330v105l155 147v2h-150v102h319z" />
    <glyph glyph-name="a.smcp" horiz-adv-x="613" 
d="M435 0l-29 97h-198l-29 -97h-178l193 548h225l194 -548h-178zM245 221h125l-11 35q-30 94 -51 183h-2q-22 -88 -51 -183z" />
    <glyph glyph-name="aacute.smcp" horiz-adv-x="613" 
d="M435 0l-29 97h-198l-29 -97h-178l193 548h225l194 -548h-178zM245 221h125l-11 35q-30 94 -51 183h-2q-22 -88 -51 -183zM480 752l-141 -148h-128l78 148h191z" />
    <glyph glyph-name="abreve.smcp" horiz-adv-x="613" 
d="M435 0l-29 97h-198l-29 -97h-178l193 548h225l194 -548h-178zM245 221h125l-11 35q-30 94 -51 183h-2q-22 -88 -51 -183zM307 598q-81 0 -127.5 40.5t-50.5 113.5h106q3 -58 72 -58q67 0 72 58h106q-4 -73 -50.5 -113.5t-127.5 -40.5z" />
    <glyph glyph-name="acircumflex.smcp" horiz-adv-x="613" 
d="M435 0l-29 97h-198l-29 -97h-178l193 548h225l194 -548h-178zM245 221h125l-11 35q-30 94 -51 183h-2q-22 -88 -51 -183zM306 680l-58 -76h-138l118 148h156l118 -148h-138z" />
    <glyph glyph-name="adieresis.smcp" horiz-adv-x="613" 
d="M435 0l-29 97h-198l-29 -97h-178l193 548h225l194 -548h-178zM245 221h125l-11 35q-30 94 -51 183h-2q-22 -88 -51 -183zM265 752v-131h-143v131h143zM491 752v-131h-142v131h142z" />
    <glyph glyph-name="agrave.smcp" horiz-adv-x="613" 
d="M435 0l-29 97h-198l-29 -97h-178l193 548h225l194 -548h-178zM245 221h125l-11 35q-30 94 -51 183h-2q-22 -88 -51 -183zM402 604h-128l-141 148h191z" />
    <glyph glyph-name="amacron.smcp" horiz-adv-x="613" 
d="M435 0l-29 97h-198l-29 -97h-178l193 548h225l194 -548h-178zM245 221h125l-11 35q-30 94 -51 183h-2q-22 -88 -51 -183zM486 732v-103h-359v103h359z" />
    <glyph glyph-name="aogonek.smcp" horiz-adv-x="613" 
d="M581 -109q17 0 35 7v-82q-42 -15 -93 -15q-61 0 -92 24t-31 67q0 32 20.5 57.5t63.5 50.5h-49l-29 97h-198l-29 -97h-178l193 548h225l194 -548q-65 -43 -65 -79q0 -30 33 -30zM245 221h125l-11 35q-30 94 -51 183h-2q-22 -88 -51 -183z" />
    <glyph glyph-name="aring.smcp" horiz-adv-x="613" 
d="M435 0l-29 97h-198l-29 -97h-178l193 548h225l194 -548h-178zM245 221h125l-11 35q-30 94 -51 183h-2q-22 -88 -51 -183zM307 593q-47 0 -80.5 33t-33.5 80t33.5 80.5t80.5 33.5t80.5 -33.5t33.5 -80.5t-33.5 -80t-80.5 -33zM307 762q-23 0 -39.5 -16.5t-16.5 -39.5
t16.5 -39.5t39.5 -16.5t39.5 16.5t16.5 39.5t-16.5 39.5t-39.5 16.5z" />
    <glyph glyph-name="atilde.smcp" horiz-adv-x="613" 
d="M435 0l-29 97h-198l-29 -97h-178l193 548h225l194 -548h-178zM245 221h125l-11 35q-30 94 -51 183h-2q-22 -88 -51 -183zM243 652q-37 0 -42 -43h-89q3 67 35 105t89 38q35 0 76.5 -21.5t57.5 -21.5q37 0 43 43h89q-4 -67 -36 -105t-89 -38q-34 0 -75.5 21.5t-58.5 21.5z
" />
    <glyph glyph-name="ae.smcp" horiz-adv-x="812" 
d="M558 130h211v-130h-344l-17 106h-196l-45 -106h-172l250 548h520v-130h-252l12 -79h220v-126h-200zM267 233h122l-30 187h-12z" />
    <glyph glyph-name="b.smcp" horiz-adv-x="589" 
d="M68 0v548h256q107 0 160.5 -38t53.5 -103q0 -97 -99 -123v-2q114 -22 114 -128q0 -71 -58 -112.5t-160 -41.5h-267zM294 222h-60v-105h61q47 0 65.5 11.5t18.5 39.5q0 29 -19.5 41.5t-65.5 12.5zM299 432h-65v-101h59q81 0 81 51q0 50 -75 50z" />
    <glyph glyph-name="c.smcp" horiz-adv-x="612" 
d="M306 564q117 0 188 -58t75 -162h-175q-9 82 -88 82q-46 0 -73 -40t-27 -112t27 -112t74 -40q36 0 59.5 22.5t28.5 62.5h177q-9 -108 -79.5 -165.5t-185.5 -57.5q-129 0 -202.5 77t-73.5 213q0 135 73.5 212.5t201.5 77.5z" />
    <glyph glyph-name="cacute.smcp" horiz-adv-x="612" 
d="M306 564q117 0 188 -58t75 -162h-175q-9 82 -88 82q-46 0 -73 -40t-27 -112t27 -112t74 -40q36 0 59.5 22.5t28.5 62.5h177q-9 -108 -79.5 -165.5t-185.5 -57.5q-129 0 -202.5 77t-73.5 213q0 135 73.5 212.5t201.5 77.5zM479 752l-141 -148h-128l78 148h191z" />
    <glyph glyph-name="ccaron.smcp" horiz-adv-x="612" 
d="M306 564q117 0 188 -58t75 -162h-175q-9 82 -88 82q-46 0 -73 -40t-27 -112t27 -112t74 -40q36 0 59.5 22.5t28.5 62.5h177q-9 -108 -79.5 -165.5t-185.5 -57.5q-129 0 -202.5 77t-73.5 213q0 135 73.5 212.5t201.5 77.5zM501 752l-118 -148h-156l-118 148h138l58 -76
l58 76h138z" />
    <glyph glyph-name="ccedilla.smcp" horiz-adv-x="612" 
d="M395 207h177q-8 -100 -70 -157t-163 -65l-28 -45q15 5 33 5q39 0 63 -21t24 -57q0 -43 -33.5 -71t-94.5 -28q-65 0 -120 32l26 53q44 -22 81 -22q44 0 44 31q0 15 -11.5 24t-32.5 9q-18 0 -31 -6l-29 27l42 70q-113 10 -177 86t-64 202q0 135 73.5 212.5t201.5 77.5
q117 0 188 -58t75 -162h-175q-9 82 -88 82q-46 0 -73 -40t-27 -112t27 -112t74 -40q36 0 59.5 22.5t28.5 62.5z" />
    <glyph glyph-name="ccircumflex.smcp" horiz-adv-x="612" 
d="M306 564q117 0 188 -58t75 -162h-175q-9 82 -88 82q-46 0 -73 -40t-27 -112t27 -112t74 -40q36 0 59.5 22.5t28.5 62.5h177q-9 -108 -79.5 -165.5t-185.5 -57.5q-129 0 -202.5 77t-73.5 213q0 135 73.5 212.5t201.5 77.5zM501 604h-138l-58 76l-58 -76h-138l118 148h156z
" />
    <glyph glyph-name="cdotaccent.smcp" horiz-adv-x="612" 
d="M306 564q117 0 188 -58t75 -162h-175q-9 82 -88 82q-46 0 -73 -40t-27 -112t27 -112t74 -40q36 0 59.5 22.5t28.5 62.5h177q-9 -108 -79.5 -165.5t-185.5 -57.5q-129 0 -202.5 77t-73.5 213q0 135 73.5 212.5t201.5 77.5zM388 752v-131h-166v131h166z" />
    <glyph glyph-name="d.smcp" horiz-adv-x="636" 
d="M68 0v548h223q151 0 232.5 -71t81.5 -203q0 -131 -81.5 -202.5t-232.5 -71.5h-223zM287 413h-50v-278h50q70 0 106.5 35.5t36.5 103.5t-36.5 103.5t-106.5 35.5z" />
    <glyph glyph-name="eth.smcp" horiz-adv-x="640" 
d="M73 325v223h223q151 0 232.5 -71t81.5 -203q0 -131 -81.5 -202.5t-232.5 -71.5h-223v229h-59v96h59zM239 229v-98h53q72 0 109 37t37 106t-37 106t-109 37h-53v-92h102v-96h-102z" />
    <glyph glyph-name="dcaron.smcp" horiz-adv-x="636" 
d="M68 0v548h223q151 0 232.5 -71t81.5 -203q0 -131 -81.5 -202.5t-232.5 -71.5h-223zM287 413h-50v-278h50q70 0 106.5 35.5t36.5 103.5t-36.5 103.5t-106.5 35.5zM496 752l-118 -148h-156l-118 148h138l58 -76l58 76h138z" />
    <glyph glyph-name="dcroat.smcp" horiz-adv-x="640" 
d="M73 325v223h223q151 0 232.5 -71t81.5 -203q0 -131 -81.5 -202.5t-232.5 -71.5h-223v229h-59v96h59zM239 229v-98h53q72 0 109 37t37 106t-37 106t-109 37h-53v-92h102v-96h-102z" />
    <glyph glyph-name="e.smcp" horiz-adv-x="535" 
d="M489 548v-130h-261v-79h241v-126h-241v-83h264v-130h-424v548h421z" />
    <glyph glyph-name="eacute.smcp" horiz-adv-x="535" 
d="M489 548v-130h-261v-79h241v-126h-241v-83h264v-130h-424v548h421zM452 752l-141 -148h-128l78 148h191z" />
    <glyph glyph-name="ebreve.smcp" horiz-adv-x="535" 
d="M489 548v-130h-261v-79h241v-126h-241v-83h264v-130h-424v548h421zM351 752h106q-4 -73 -50.5 -113.5t-127.5 -40.5t-127.5 40.5t-50.5 113.5h106q3 -58 72 -58q67 0 72 58z" />
    <glyph glyph-name="ecaron.smcp" horiz-adv-x="535" 
d="M489 548v-130h-261v-79h241v-126h-241v-83h264v-130h-424v548h421zM474 752l-118 -148h-156l-118 148h138l58 -76l58 76h138z" />
    <glyph glyph-name="ecircumflex.smcp" horiz-adv-x="535" 
d="M489 548v-130h-261v-79h241v-126h-241v-83h264v-130h-424v548h421zM474 604h-138l-58 76l-58 -76h-138l118 148h156z" />
    <glyph glyph-name="edieresis.smcp" horiz-adv-x="535" 
d="M489 548v-130h-261v-79h241v-126h-241v-83h264v-130h-424v548h421zM237 752v-131h-143v131h143zM463 752v-131h-142v131h142z" />
    <glyph glyph-name="edotaccent.smcp" horiz-adv-x="535" 
d="M489 548v-130h-261v-79h241v-126h-241v-83h264v-130h-424v548h421zM362 752v-131h-166v131h166z" />
    <glyph glyph-name="egrave.smcp" horiz-adv-x="535" 
d="M489 548v-130h-261v-79h241v-126h-241v-83h264v-130h-424v548h421zM105 752h191l78 -148h-128z" />
    <glyph glyph-name="emacron.smcp" horiz-adv-x="535" 
d="M489 548v-130h-261v-79h241v-126h-241v-83h264v-130h-424v548h421zM458 732v-103h-359v103h359z" />
    <glyph glyph-name="eogonek.smcp" horiz-adv-x="535" 
d="M461 -109q17 0 35 7v-82q-42 -15 -93 -15q-61 0 -92 24t-31 67q0 32 20.5 57.5t63.5 50.5h-296v548h421v-130h-261v-79h241v-126h-241v-83h264v-130h1q-65 -43 -65 -79q0 -30 33 -30z" />
    <glyph glyph-name="f.smcp" horiz-adv-x="496" 
d="M477 548v-133h-249v-101h231v-133h-231v-181h-160v548h409z" />
    <glyph glyph-name="fi.smcp" horiz-adv-x="801" 
d="M477 548v-133h-249v-101h231v-133h-231v-181h-160v548h409zM734 548v-548h-170v548h170z" />
    <glyph glyph-name="fl.smcp" horiz-adv-x="995" 
d="M477 548v-133h-249v-101h231v-133h-231v-181h-160v548h409zM734 548v-407h252v-141h-422v548h170z" />
    <glyph glyph-name="g.smcp" horiz-adv-x="639" 
d="M322 564q110 0 179 -52t79 -141h-177q-12 62 -82 62q-53 0 -84 -42t-31 -119q0 -78 30.5 -121t84.5 -43q46 0 72 23.5t28 64.5h-110v118h267v-314h-143v46h-2q-52 -59 -153 -59q-116 0 -182.5 76t-66.5 209q0 136 78.5 214t212.5 78z" />
    <glyph glyph-name="gbreve.smcp" horiz-adv-x="639" 
d="M322 564q110 0 179 -52t79 -141h-177q-12 62 -82 62q-53 0 -84 -42t-31 -119q0 -78 30.5 -121t84.5 -43q46 0 72 23.5t28 64.5h-110v118h267v-314h-143v46h-2q-52 -59 -153 -59q-116 0 -182.5 76t-66.5 209q0 136 78.5 214t212.5 78zM388 752h106q-4 -73 -50.5 -113.5
t-127.5 -40.5t-127.5 40.5t-50.5 113.5h106q3 -58 72 -58q67 0 72 58z" />
    <glyph glyph-name="gcircumflex.smcp" horiz-adv-x="639" 
d="M322 564q110 0 179 -52t79 -141h-177q-12 62 -82 62q-53 0 -84 -42t-31 -119q0 -78 30.5 -121t84.5 -43q46 0 72 23.5t28 64.5h-110v118h267v-314h-143v46h-2q-52 -59 -153 -59q-116 0 -182.5 76t-66.5 209q0 136 78.5 214t212.5 78zM511 604h-138l-58 76l-58 -76h-138
l118 148h156z" />
    <glyph glyph-name="gcommaaccent.smcp" horiz-adv-x="639" 
d="M322 564q110 0 179 -52t79 -141h-177q-12 62 -82 62q-53 0 -84 -42t-31 -119q0 -78 30.5 -121t84.5 -43q46 0 72 23.5t28 64.5h-110v118h267v-314h-143v46h-2q-52 -59 -153 -59q-116 0 -182.5 76t-66.5 209q0 136 78.5 214t212.5 78zM382 -54v-112l-71 -109h-63l46 109
h-46v112h134z" />
    <glyph glyph-name="gdotaccent.smcp" horiz-adv-x="639" 
d="M322 564q110 0 179 -52t79 -141h-177q-12 62 -82 62q-53 0 -84 -42t-31 -119q0 -78 30.5 -121t84.5 -43q46 0 72 23.5t28 64.5h-110v118h267v-314h-143v46h-2q-52 -59 -153 -59q-116 0 -182.5 76t-66.5 209q0 136 78.5 214t212.5 78zM399 752v-131h-166v131h166z" />
    <glyph glyph-name="h.smcp" horiz-adv-x="663" 
d="M595 548v-548h-170v212h-187v-212h-170v548h170v-196h187v196h170z" />
    <glyph glyph-name="hbar.smcp" horiz-adv-x="663" 
d="M636 499v-68h-41v-431h-170v212h-187v-212h-170v431h-41v68h41v49h170v-49h187v49h170v-49h41zM425 352v79h-187v-79h187z" />
    <glyph glyph-name="hcircumflex.smcp" horiz-adv-x="663" 
d="M595 548v-548h-170v212h-187v-212h-170v548h170v-196h187v196h170zM527 604h-138l-58 76l-58 -76h-138l118 148h156z" />
    <glyph glyph-name="i.smcp" horiz-adv-x="306" 
d="M238 548v-548h-170v548h170z" />
    <glyph glyph-name="iacute.smcp" horiz-adv-x="306" 
d="M238 548v-548h-170v548h170zM326 752l-141 -148h-128l78 148h191z" />
    <glyph glyph-name="ibreve.smcp" horiz-adv-x="306" 
d="M238 548v-548h-170v548h170zM215 752h100q-3 -73 -45 -113.5t-117 -40.5t-117 40t-45 114h100q5 -60 62 -60t62 60z" />
    <glyph glyph-name="icircumflex.smcp" horiz-adv-x="306" 
d="M238 548v-548h-170v548h170zM226 752l108 -146h-130l-51 71l-50 -71h-131l108 146h146z" />
    <glyph glyph-name="idieresis.smcp" horiz-adv-x="306" 
d="M238 548v-548h-170v548h170zM129 752v-131h-133v131h133zM309 752v-131h-132v131h132z" />
    <glyph glyph-name="idotaccent.smcp" horiz-adv-x="306" 
d="M238 548v-548h-170v548h170zM236 752v-131h-166v131h166z" />
    <glyph glyph-name="igrave.smcp" horiz-adv-x="306" 
d="M238 548v-548h-170v548h170zM-20 752h191l78 -148h-128z" />
    <glyph glyph-name="ij.smcp" horiz-adv-x="669" 
d="M238 548v-548h-170v548h170zM437 548h169v-351q0 -106 -51.5 -155t-161.5 -49q-41 0 -73 8l-1 136q18 -3 36 -3q46 0 64 22.5t18 84.5v307z" />
    <glyph glyph-name="imacron.smcp" horiz-adv-x="306" 
d="M238 548v-548h-170v548h170zM303 735v-103h-300v103h300z" />
    <glyph glyph-name="iogonek.smcp" horiz-adv-x="306" 
d="M206 -109q18 0 35 7v-82q-42 -15 -93 -15q-61 0 -92 24t-31 67q0 32 20.5 57.5t63.5 50.5h-41v548h170v-548q-65 -43 -65 -79q0 -30 33 -30z" />
    <glyph glyph-name="itilde.smcp" horiz-adv-x="306" 
d="M238 548v-548h-170v548h170zM248 752h78q-4 -68 -33 -106t-82 -38q-31 0 -66 22.5t-51 22.5q-33 0 -36 -45h-77q3 68 32 106t81 38q31 0 66.5 -22.5t50.5 -22.5q33 0 37 45z" />
    <glyph glyph-name="j.smcp" horiz-adv-x="364" 
d="M131 548h169v-351q0 -106 -51.5 -155t-161.5 -49q-41 0 -73 8l-1 136q18 -3 36 -3q46 0 64 22.5t18 84.5v307z" />
    <glyph glyph-name="jcircumflex.smcp" horiz-adv-x="364" 
d="M131 548h169v-351q0 -106 -51.5 -155t-161.5 -49q-41 0 -73 8l-1 136q18 -3 36 -3q46 0 64 22.5t18 84.5v307zM285 752l108 -146h-130l-51 71l-50 -71h-131l108 146h146z" />
    <glyph glyph-name="k.smcp" 
d="M591 548l-197 -258l210 -290h-210l-154 245h-2v-245h-170v548h170v-230h2l149 230h202z" />
    <glyph glyph-name="kcommaaccent.smcp" 
d="M591 548l-197 -258l210 -290h-210l-154 245h-2v-245h-170v548h170v-230h2l149 230h202zM374 -54v-112l-71 -109h-63l46 109h-46v112h134z" />
    <glyph glyph-name="l.smcp" horiz-adv-x="499" 
d="M238 548v-407h252v-141h-422v548h170z" />
    <glyph glyph-name="lacute.smcp" horiz-adv-x="499" 
d="M238 548v-407h252v-141h-422v548h170zM357 752l-141 -148h-128l78 148h191z" />
    <glyph glyph-name="lcaron.smcp" horiz-adv-x="499" 
d="M238 548v-407h252v-141h-422v548h170zM427 548l-60 -178h-94l24 178h130z" />
    <glyph glyph-name="lcommaaccent.smcp" horiz-adv-x="499" 
d="M238 548v-407h252v-141h-422v548h170zM334 -54v-112l-71 -109h-63l46 109h-46v112h134z" />
    <glyph glyph-name="ldot.smcp" horiz-adv-x="562" 
d="M238 548v-407h252v-141h-422v548h170zM516 447v-170h-163v170h163z" />
    <glyph glyph-name="j.acute.loclNLD.smcp" horiz-adv-x="364" 
d="M131 548h169v-351q0 -106 -51.5 -155t-161.5 -49q-41 0 -73 8l-1 136q18 -3 36 -3q46 0 64 22.5t18 84.5v307zM386 752l-141 -148h-128l78 148h191z" />
    <glyph glyph-name="lslash.smcp" horiz-adv-x="501" 
d="M240 141h252v-141h-421v213l-61 -34v112l61 34v223h169v-137l103 57v-112l-103 -57v-158z" />
    <glyph glyph-name="m.smcp" horiz-adv-x="900" 
d="M832 548v-548h-160v261q0 89 5 199h-2q-23 -108 -48 -196l-73 -264h-207l-73 264q-21 75 -49 196h-2q6 -99 6 -199v-261h-161v548h274l63 -232q31 -115 44 -200h2q16 97 44 200l64 232h273z" />
    <glyph glyph-name="n.smcp" horiz-adv-x="717" 
d="M649 548v-548h-252l-89 208q-44 100 -82 209h-2q7 -102 7 -220v-197h-163v548h253l89 -208q45 -106 81 -209h2q-6 88 -6 220v197h162z" />
    <glyph glyph-name="nacute.smcp" horiz-adv-x="717" 
d="M649 548v-548h-252l-89 208q-44 100 -82 209h-2q7 -102 7 -220v-197h-163v548h253l89 -208q45 -106 81 -209h2q-6 88 -6 220v197h162zM532 752l-141 -148h-128l78 148h191z" />
    <glyph glyph-name="ncaron.smcp" horiz-adv-x="717" 
d="M649 548v-548h-252l-89 208q-44 100 -82 209h-2q7 -102 7 -220v-197h-163v548h253l89 -208q45 -106 81 -209h2q-6 88 -6 220v197h162zM555 752l-118 -148h-156l-118 148h138l58 -76l58 76h138z" />
    <glyph glyph-name="ncommaaccent.smcp" horiz-adv-x="717" 
d="M649 548v-548h-252l-89 208q-44 100 -82 209h-2q7 -102 7 -220v-197h-163v548h253l89 -208q45 -106 81 -209h2q-6 88 -6 220v197h162zM426 -54v-112l-71 -109h-63l46 109h-46v112h134z" />
    <glyph glyph-name="eng.smcp" horiz-adv-x="665" 
d="M435 548h162v-555q0 -81 -46.5 -120.5t-124.5 -39.5q-45 0 -75 9v108q9 -3 24 -3q51 0 51 45q0 19 -37 82l-84 145q-48 82 -80 158h-2q8 -98 8 -183v-194h-163v548h207l84 -145q46 -81 82 -159h2q-8 83 -8 183v121z" />
    <glyph glyph-name="ntilde.smcp" horiz-adv-x="717" 
d="M649 548v-548h-252l-89 208q-44 100 -82 209h-2q7 -102 7 -220v-197h-163v548h253l89 -208q45 -106 81 -209h2q-6 88 -6 220v197h162zM465 752h89q-4 -67 -36 -105t-89 -38q-34 0 -75.5 21.5t-58.5 21.5q-37 0 -42 -43h-89q3 67 35 105t89 38q35 0 76.5 -21.5t57.5 -21.5
q37 0 43 43z" />
    <glyph glyph-name="o.smcp" horiz-adv-x="632" 
d="M316 564q131 0 208 -78t77 -212t-77 -212t-208 -78t-208 78t-77 212t77 212t208 78zM316 426q-53 0 -81.5 -39t-28.5 -113t28.5 -113t81.5 -39t81.5 39t28.5 113t-28.5 113t-81.5 39z" />
    <glyph glyph-name="oacute.smcp" horiz-adv-x="632" 
d="M316 564q131 0 208 -78t77 -212t-77 -212t-208 -78t-208 78t-77 212t77 212t208 78zM316 426q-53 0 -81.5 -39t-28.5 -113t28.5 -113t81.5 -39t81.5 39t28.5 113t-28.5 113t-81.5 39zM489 752l-141 -148h-128l78 148h191z" />
    <glyph glyph-name="obreve.smcp" horiz-adv-x="632" 
d="M316 564q131 0 208 -78t77 -212t-77 -212t-208 -78t-208 78t-77 212t77 212t208 78zM316 426q-53 0 -81.5 -39t-28.5 -113t28.5 -113t81.5 -39t81.5 39t28.5 113t-28.5 113t-81.5 39zM388 752h106q-4 -73 -50.5 -113.5t-127.5 -40.5t-127.5 40.5t-50.5 113.5h106
q3 -58 72 -58q67 0 72 58z" />
    <glyph glyph-name="ocircumflex.smcp" horiz-adv-x="632" 
d="M316 564q131 0 208 -78t77 -212t-77 -212t-208 -78t-208 78t-77 212t77 212t208 78zM316 426q-53 0 -81.5 -39t-28.5 -113t28.5 -113t81.5 -39t81.5 39t28.5 113t-28.5 113t-81.5 39zM512 604h-138l-58 76l-58 -76h-138l118 148h156z" />
    <glyph glyph-name="odieresis.smcp" horiz-adv-x="632" 
d="M316 564q131 0 208 -78t77 -212t-77 -212t-208 -78t-208 78t-77 212t77 212t208 78zM316 426q-53 0 -81.5 -39t-28.5 -113t28.5 -113t81.5 -39t81.5 39t28.5 113t-28.5 113t-81.5 39zM274 752v-131h-143v131h143zM500 752v-131h-142v131h142z" />
    <glyph glyph-name="ograve.smcp" horiz-adv-x="632" 
d="M316 564q131 0 208 -78t77 -212t-77 -212t-208 -78t-208 78t-77 212t77 212t208 78zM316 426q-53 0 -81.5 -39t-28.5 -113t28.5 -113t81.5 -39t81.5 39t28.5 113t-28.5 113t-81.5 39zM143 752h191l78 -148h-128z" />
    <glyph glyph-name="ohungarumlaut.smcp" horiz-adv-x="632" 
d="M316 564q131 0 208 -78t77 -212t-77 -212t-208 -78t-208 78t-77 212t77 212t208 78zM316 426q-53 0 -81.5 -39t-28.5 -113t28.5 -113t81.5 -39t81.5 39t28.5 113t-28.5 113t-81.5 39zM390 752l-141 -148h-123l98 148h166zM596 752l-141 -148h-124l99 148h166z" />
    <glyph glyph-name="omacron.smcp" horiz-adv-x="632" 
d="M316 564q131 0 208 -78t77 -212t-77 -212t-208 -78t-208 78t-77 212t77 212t208 78zM316 426q-53 0 -81.5 -39t-28.5 -113t28.5 -113t81.5 -39t81.5 39t28.5 113t-28.5 113t-81.5 39zM495 732v-103h-359v103h359z" />
    <glyph glyph-name="oslash.smcp" horiz-adv-x="634" 
d="M512 592l64 -49l-47 -60q74 -79 74 -209q0 -134 -77 -212t-209 -78q-86 0 -147 33l-49 -63l-64 49l48 62q-74 77 -74 209q0 134 77 212t209 78q82 0 148 -33zM317 433q-59 0 -90.5 -41.5t-31.5 -117.5q0 -48 12 -81l174 223q-28 17 -64 17zM317 115q59 0 90.5 41
t31.5 118q0 48 -12 81l-174 -223q28 -17 64 -17z" />
    <glyph glyph-name="otilde.smcp" horiz-adv-x="632" 
d="M316 564q131 0 208 -78t77 -212t-77 -212t-208 -78t-208 78t-77 212t77 212t208 78zM316 426q-53 0 -81.5 -39t-28.5 -113t28.5 -113t81.5 -39t81.5 39t28.5 113t-28.5 113t-81.5 39zM422 752h89q-4 -67 -36 -105t-89 -38q-34 0 -75.5 21.5t-58.5 21.5q-37 0 -42 -43h-89
q3 67 35 105t89 38q35 0 76.5 -21.5t57.5 -21.5q37 0 43 43z" />
    <glyph glyph-name="oe.smcp" horiz-adv-x="845" 
d="M798 548v-130h-260v-79h240v-126h-240v-83h264v-130h-457q-148 0 -231 72.5t-83 201.5t83 201.5t231 72.5h453zM381 130v288h-33q-69 0 -105.5 -38t-36.5 -106t36.5 -106t105.5 -38h33z" />
    <glyph glyph-name="p.smcp" horiz-adv-x="578" 
d="M68 0v548h261q112 0 170 -51.5t58 -142.5t-58 -142t-170 -51h-91v-161h-170zM297 422h-59v-136h60q85 0 85 68t-86 68z" />
    <glyph glyph-name="thorn.smcp" horiz-adv-x="578" 
d="M238 548v-74h91q112 0 170 -52t58 -143q0 -90 -58 -141.5t-170 -51.5h-91v-86h-170v548h170zM297 348h-59v-136h60q85 0 85 68t-86 68z" />
    <glyph glyph-name="q.smcp" horiz-adv-x="632" 
d="M601 274q0 -123 -66 -200l61 -65l-81 -76l-71 75q-56 -24 -128 -24q-131 0 -208 78t-77 212t77 212t208 78t208 -78t77 -212zM205 271q0 -75 29.5 -115.5t84.5 -40.5q14 0 28 3l-65 68l76 71l64 -69q13 33 13 83q0 75 -29.5 115t-85.5 40t-85.5 -40t-29.5 -115z" />
    <glyph glyph-name="r.smcp" horiz-adv-x="598" 
d="M68 0v548h268q214 0 214 -158q0 -49 -27.5 -84t-77.5 -50v-2q31 -11 49.5 -35t39.5 -78l54 -141h-181l-40 116q-14 40 -33.5 56t-56.5 16h-39v-188h-170zM300 429h-62v-126h66q79 0 79 64q0 62 -83 62z" />
    <glyph glyph-name="racute.smcp" horiz-adv-x="598" 
d="M68 0v548h268q214 0 214 -158q0 -49 -27.5 -84t-77.5 -50v-2q31 -11 49.5 -35t39.5 -78l54 -141h-181l-40 116q-14 40 -33.5 56t-56.5 16h-39v-188h-170zM300 429h-62v-126h66q79 0 79 64q0 62 -83 62zM470 752l-141 -148h-128l78 148h191z" />
    <glyph glyph-name="rcaron.smcp" horiz-adv-x="598" 
d="M68 0v548h268q214 0 214 -158q0 -49 -27.5 -84t-77.5 -50v-2q31 -11 49.5 -35t39.5 -78l54 -141h-181l-40 116q-14 40 -33.5 56t-56.5 16h-39v-188h-170zM300 429h-62v-126h66q79 0 79 64q0 62 -83 62zM492 752l-118 -148h-156l-118 148h138l58 -76l58 76h138z" />
    <glyph glyph-name="rcommaaccent.smcp" horiz-adv-x="598" 
d="M68 0v548h268q214 0 214 -158q0 -49 -27.5 -84t-77.5 -50v-2q31 -11 49.5 -35t39.5 -78l54 -141h-181l-40 116q-14 40 -33.5 56t-56.5 16h-39v-188h-170zM300 429h-62v-126h66q79 0 79 64q0 62 -83 62zM379 -54v-112l-71 -109h-63l46 109h-46v112h134z" />
    <glyph glyph-name="s.smcp" horiz-adv-x="543" 
d="M268 564q112 0 172.5 -46.5t60.5 -135.5h-164q0 66 -77 66q-31 0 -49 -12t-18 -33q0 -23 21.5 -33.5t86.5 -25.5q51 -12 83 -22.5t65 -30.5t49 -51t16 -74q0 -85 -65.5 -133.5t-178.5 -48.5q-117 0 -182.5 51t-65.5 143h167q0 -75 86 -75q35 0 55 14t20 37
q0 24 -20.5 34.5t-83.5 26.5q-53 13 -82.5 22.5t-64.5 29t-51 49.5t-16 72q0 80 63 128t173 48z" />
    <glyph glyph-name="sacute.smcp" horiz-adv-x="543" 
d="M268 564q112 0 172.5 -46.5t60.5 -135.5h-164q0 66 -77 66q-31 0 -49 -12t-18 -33q0 -23 21.5 -33.5t86.5 -25.5q51 -12 83 -22.5t65 -30.5t49 -51t16 -74q0 -85 -65.5 -133.5t-178.5 -48.5q-117 0 -182.5 51t-65.5 143h167q0 -75 86 -75q35 0 55 14t20 37
q0 24 -20.5 34.5t-83.5 26.5q-53 13 -82.5 22.5t-64.5 29t-51 49.5t-16 72q0 80 63 128t173 48zM441 752l-141 -148h-128l78 148h191z" />
    <glyph glyph-name="scaron.smcp" horiz-adv-x="543" 
d="M268 564q112 0 172.5 -46.5t60.5 -135.5h-164q0 66 -77 66q-31 0 -49 -12t-18 -33q0 -23 21.5 -33.5t86.5 -25.5q51 -12 83 -22.5t65 -30.5t49 -51t16 -74q0 -85 -65.5 -133.5t-178.5 -48.5q-117 0 -182.5 51t-65.5 143h167q0 -75 86 -75q35 0 55 14t20 37
q0 24 -20.5 34.5t-83.5 26.5q-53 13 -82.5 22.5t-64.5 29t-51 49.5t-16 72q0 80 63 128t173 48zM463 752l-118 -148h-156l-118 148h138l58 -76l58 76h138z" />
    <glyph glyph-name="scedilla.smcp" horiz-adv-x="543" 
d="M514 166q0 -79 -56.5 -126.5t-155.5 -54.5l-28 -45q15 5 33 5q39 0 63 -21t24 -57q0 -43 -33.5 -71t-94.5 -28q-65 0 -120 32l26 53q44 -22 81 -22q44 0 44 31q0 15 -11.5 24t-32.5 9q-17 0 -31 -6l-29 27l42 69q-102 8 -157.5 58t-55.5 135h167q0 -75 86 -75q35 0 55 14
t20 37q0 24 -20.5 34.5t-83.5 26.5q-53 13 -82.5 22.5t-64.5 29t-51 49.5t-16 72q0 80 63 128t173 48q112 0 172.5 -46.5t60.5 -135.5h-164q0 66 -77 66q-31 0 -49 -12t-18 -33q0 -23 21.5 -33.5t86.5 -25.5q51 -12 83 -22.5t65 -30.5t49 -51t16 -74z" />
    <glyph glyph-name="scircumflex.smcp" horiz-adv-x="543" 
d="M268 564q112 0 172.5 -46.5t60.5 -135.5h-164q0 66 -77 66q-31 0 -49 -12t-18 -33q0 -23 21.5 -33.5t86.5 -25.5q51 -12 83 -22.5t65 -30.5t49 -51t16 -74q0 -85 -65.5 -133.5t-178.5 -48.5q-117 0 -182.5 51t-65.5 143h167q0 -75 86 -75q35 0 55 14t20 37
q0 24 -20.5 34.5t-83.5 26.5q-53 13 -82.5 22.5t-64.5 29t-51 49.5t-16 72q0 80 63 128t173 48zM463 604h-138l-58 76l-58 -76h-138l118 148h156z" />
    <glyph glyph-name="scommaaccent.smcp" horiz-adv-x="543" 
d="M268 564q112 0 172.5 -46.5t60.5 -135.5h-164q0 66 -77 66q-31 0 -49 -12t-18 -33q0 -23 21.5 -33.5t86.5 -25.5q51 -12 83 -22.5t65 -30.5t49 -51t16 -74q0 -85 -65.5 -133.5t-178.5 -48.5q-117 0 -182.5 51t-65.5 143h167q0 -75 86 -75q35 0 55 14t20 37
q0 24 -20.5 34.5t-83.5 26.5q-53 13 -82.5 22.5t-64.5 29t-51 49.5t-16 72q0 80 63 128t173 48zM337 -54v-112l-71 -109h-63l46 109h-46v112h134z" />
    <glyph glyph-name="germandbls.smcp" horiz-adv-x="704" 
d="M630 447l-110 -119q148 -47 148 -176q0 -80 -57 -124t-155 -44q-197 0 -197 176h144q0 -51 50 -51q49 0 49 46q0 71 -149 80v101l76 80q-29 19 -71 19q-129 0 -129 -137v-298h-165v302q0 129 76 195.5t221 66.5q84 0 154 -31.5t115 -85.5z" />
    <glyph glyph-name="t.smcp" horiz-adv-x="524" 
d="M515 548v-140h-168v-408h-170v408h-168v140h506z" />
    <glyph glyph-name="tbar.smcp" horiz-adv-x="524" 
d="M515 408h-168v-110h93v-98h-93v-200h-170v200h-93v98h93v110h-168v140h506v-140z" />
    <glyph glyph-name="tcaron.smcp" horiz-adv-x="524" 
d="M515 548v-140h-168v-408h-170v408h-168v140h506zM458 752l-118 -148h-156l-118 148h138l58 -76l58 76h138z" />
    <glyph glyph-name="tcedilla.smcp" horiz-adv-x="524" 
d="M515 548v-140h-168v-408h-170v408h-168v140h506zM329 -54v-112l-71 -109h-63l46 109h-46v112h134z" />
    <glyph glyph-name="tcommaaccent.smcp" horiz-adv-x="524" 
d="M515 548v-140h-168v-408h-170v408h-168v140h506zM329 -54v-112l-71 -109h-63l46 109h-46v112h134z" />
    <glyph glyph-name="u.smcp" horiz-adv-x="628" 
d="M396 548h170v-330q0 -112 -65.5 -173t-186.5 -61t-186.5 61t-65.5 173v330h170v-327q0 -91 82 -91t82 91v327z" />
    <glyph glyph-name="uacute.smcp" horiz-adv-x="628" 
d="M396 548h170v-330q0 -112 -65.5 -173t-186.5 -61t-186.5 61t-65.5 173v330h170v-327q0 -91 82 -91t82 91v327zM487 752l-141 -148h-128l78 148h191z" />
    <glyph glyph-name="ubreve.smcp" horiz-adv-x="628" 
d="M396 548h170v-330q0 -112 -65.5 -173t-186.5 -61t-186.5 61t-65.5 173v330h170v-327q0 -91 82 -91t82 91v327zM386 752h106q-4 -73 -50.5 -113.5t-127.5 -40.5t-127.5 40.5t-50.5 113.5h106q3 -58 72 -58q67 0 72 58z" />
    <glyph glyph-name="ucircumflex.smcp" horiz-adv-x="628" 
d="M396 548h170v-330q0 -112 -65.5 -173t-186.5 -61t-186.5 61t-65.5 173v330h170v-327q0 -91 82 -91t82 91v327zM510 604h-138l-58 76l-58 -76h-138l118 148h156z" />
    <glyph glyph-name="udieresis.smcp" horiz-adv-x="628" 
d="M396 548h170v-330q0 -112 -65.5 -173t-186.5 -61t-186.5 61t-65.5 173v330h170v-327q0 -91 82 -91t82 91v327zM272 752v-131h-143v131h143zM498 752v-131h-142v131h142z" />
    <glyph glyph-name="ugrave.smcp" horiz-adv-x="628" 
d="M396 548h170v-330q0 -112 -65.5 -173t-186.5 -61t-186.5 61t-65.5 173v330h170v-327q0 -91 82 -91t82 91v327zM141 752h191l78 -148h-128z" />
    <glyph glyph-name="uhungarumlaut.smcp" horiz-adv-x="628" 
d="M396 548h170v-330q0 -112 -65.5 -173t-186.5 -61t-186.5 61t-65.5 173v330h170v-327q0 -91 82 -91t82 91v327zM388 752l-141 -148h-123l98 148h166zM594 752l-141 -148h-124l99 148h166z" />
    </font>
</defs>
</svg>
