<?xml version="1.0" standalone="no"?>
<!DOCTYPE svg PUBLIC "-//W3C//DTD SVG 1.1//EN" "http://www.w3.org/Graphics/SVG/1.1/DTD/svg11.dtd" >
<svg xmlns="http://www.w3.org/2000/svg" xmlns:xlink="http://www.w3.org/1999/xlink" version="1.1">
<metadata>
Created by FontForge 20170731 at Fri Jan 11 02:48:07 2019
 By Aleksey,,,
Copyright (c) 2015 Monotype Imaging Inc.  All rights reserved.
</metadata>
<defs>
<font id="NeueHaasUnica-BoldItalic" horiz-adv-x="600" >
  <font-face 
    font-family="Neue Haas Unica"
    font-weight="700"
    font-style="italic"
    font-stretch="normal"
    units-per-em="1000"
    panose-1="2 11 8 4 3 2 6 9 2 3"
    ascent="750"
    descent="-250"
    x-height="508"
    cap-height="712"
    bbox="-630 -275 1272 1116"
    underline-thickness="50"
    underline-position="-300"
    slope="-14"
    unicode-range="U+0020-FEFF"
  />
<missing-glyph horiz-adv-x="642" 
d="M151 777h340q62 0 98.5 -36.5t36.5 -98.5v-572q0 -62 -36.5 -98.5t-98.5 -36.5h-340q-62 0 -98.5 36.5t-36.5 98.5v572q0 62 36.5 98.5t98.5 36.5zM491 713h-340q-33 0 -52 -19t-19 -52v-572q0 -33 19 -52t52 -19h340q33 0 52 19t19 52v572q0 33 -19 52t-52 19zM379 177
v-112h-128v112h128zM323 647q84 0 132 -40.5t48 -110.5q0 -41 -15 -69.5t-57 -67.5q-40 -37 -52.5 -64t-12.5 -76h-102q-1 11 -1 31q0 55 13 85t54 72q30 30 38.5 46.5t8.5 40.5t-14 38t-40 14q-63 0 -64 -80h-125q1 88 50.5 134.5t138.5 46.5z" />
    <glyph glyph-name="f_f" unicode="ff" horiz-adv-x="652" 
d="M683 720q39 0 73 -10l-24 -97q-9 3 -23 3q-39 0 -62 -20t-35 -67l-5 -21h95l-26 -104h-95l-101 -404h-138l101 404h-173l-101 -404h-138l101 404h-85l26 104h85l14 58q38 154 200 154q39 0 73 -10l-24 -97q-9 3 -23 3q-39 0 -62 -20t-35 -67l-5 -21h173l14 58
q39 154 200 154z" />
    <glyph glyph-name="f_f_i" unicode="ffi" horiz-adv-x="928" 
d="M676 404h-95l-101 -404h-138l101 404h-173l-101 -404h-138l101 404h-85l26 104h85l14 58q38 154 200 154q39 0 73 -10l-24 -97q-9 3 -23 3q-39 0 -62 -20t-35 -67l-5 -21h173l14 58q39 154 200 154q39 0 73 -10l-24 -97q-9 3 -23 3q-39 0 -62 -20t-35 -67l-5 -21h95z
M657 0l126 508h140l-126 -508h-140zM834 712h140l-30 -120h-140z" />
    <glyph glyph-name="f_f_l" unicode="ffl" horiz-adv-x="928" 
d="M676 404h-95l-101 -404h-138l101 404h-173l-101 -404h-138l101 404h-85l26 104h85l14 58q38 154 200 154q39 0 73 -10l-24 -97q-9 3 -23 3q-39 0 -62 -20t-35 -67l-5 -21h173l14 58q39 154 200 154q39 0 73 -10l-24 -97q-9 3 -23 3q-39 0 -62 -20t-35 -67l-5 -21h95z
M834 712h140l-177 -712h-140z" />
    <glyph glyph-name="f_i" unicode="fi" horiz-adv-x="617" 
d="M365 404h-95l-101 -404h-138l101 404h-85l26 104h85l14 58q38 154 200 154q39 0 73 -10l-24 -97q-9 3 -23 3q-39 0 -62 -20t-35 -67l-5 -21h95zM346 0l126 508h140l-126 -508h-140zM523 712h140l-30 -120h-140z" />
    <glyph glyph-name="f_l" unicode="fl" horiz-adv-x="617" 
d="M365 404h-95l-101 -404h-138l101 404h-85l26 104h85l14 58q38 154 200 154q39 0 73 -10l-24 -97q-9 3 -23 3q-39 0 -62 -20t-35 -67l-5 -21h95zM523 712h140l-177 -712h-140z" />
    <glyph glyph-name=".notdef" horiz-adv-x="642" 
d="M151 777h340q62 0 98.5 -36.5t36.5 -98.5v-572q0 -62 -36.5 -98.5t-98.5 -36.5h-340q-62 0 -98.5 36.5t-36.5 98.5v572q0 62 36.5 98.5t98.5 36.5zM491 713h-340q-33 0 -52 -19t-19 -52v-572q0 -33 19 -52t52 -19h340q33 0 52 19t19 52v572q0 33 -19 52t-52 19zM379 177
v-112h-128v112h128zM323 647q84 0 132 -40.5t48 -110.5q0 -41 -15 -69.5t-57 -67.5q-40 -37 -52.5 -64t-12.5 -76h-102q-1 11 -1 31q0 55 13 85t54 72q30 30 38.5 46.5t8.5 40.5t-14 38t-40 14q-63 0 -64 -80h-125q1 88 50.5 134.5t138.5 46.5z" />
    <glyph glyph-name=".null" horiz-adv-x="0" 
 />
    <glyph glyph-name="nonmarkingreturn" horiz-adv-x="333" 
 />
    <glyph glyph-name="space" unicode=" " horiz-adv-x="230" 
 />
    <glyph glyph-name="space" unicode="&#xa0;" horiz-adv-x="230" 
 />
    <glyph glyph-name="exclam" unicode="!" horiz-adv-x="324" 
d="M209 132l-33 -132h-154l33 132h154zM361 712l-159 -514h-108l97 514h170z" />
    <glyph glyph-name="quotedbl" unicode="&#x22;" horiz-adv-x="436" 
d="M306 712l-83 -273h-102l53 273h132zM490 712l-83 -273h-102l53 273h132z" />
    <glyph glyph-name="numbersign" unicode="#" horiz-adv-x="672" 
d="M658 402h-99l-53 -129h100l-41 -100h-99l-71 -173h-120l71 173h-111l-71 -173h-120l71 173h-100l41 100h99l53 129h-100l41 100h100l70 172h120l-70 -172h111l70 172h120l-70 -172h99zM386 273l53 129h-111l-53 -129h111z" />
    <glyph glyph-name="dollar" unicode="$" 
d="M598 466h-129q4 15 4 34q0 58 -52 78l-46 -185q41 -14 67.5 -26.5t53 -34t39 -52.5t12.5 -73q0 -83 -73 -150.5t-201 -70.5l-21 -85h-81l22 90q-82 13 -126.5 57.5t-44.5 117.5q0 28 6 56h132q-5 -23 -5 -40q0 -66 65 -86l50 202q-79 28 -120.5 66t-41.5 111
q0 78 69.5 144t189.5 69l19 76h81l-20 -81q158 -24 158 -164q0 -28 -7 -53zM413 189q0 31 -16.5 49t-52.5 33l-45 -182q56 5 85 34.5t29 65.5zM239 495q0 -46 61 -74l42 165q-46 -6 -74.5 -31.5t-28.5 -59.5z" />
    <glyph glyph-name="percent" unicode="%" horiz-adv-x="909" 
d="M711 380q69 0 104.5 -36.5t35.5 -105.5q0 -59 -21 -115.5t-68 -97.5t-110 -41q-69 0 -105 36.5t-36 106.5q0 59 21 115t68 97t111 41zM707 300q-29 0 -50.5 -32.5t-30 -70t-8.5 -69.5q0 -64 38 -64q29 0 50.5 33t30 70.5t8.5 69.5q0 63 -38 63zM299 690q69 0 104.5 -36.5
t35.5 -105.5q0 -59 -21 -115.5t-68 -97.5t-110 -41q-69 0 -105 36.5t-36 106.5q0 59 21 115t68 97t111 41zM295 610q-29 0 -50.5 -32.5t-30 -70t-8.5 -69.5q0 -64 38 -64q29 0 50.5 33t30 70.5t8.5 69.5q0 63 -38 63zM796 704l-560 -734h-82l560 734h82z" />
    <glyph glyph-name="ampersand" unicode="&#x26;" horiz-adv-x="753" 
d="M588 402h139q-42 -158 -140 -259l107 -143h-170l-45 60q-42 -36 -102.5 -56t-121.5 -20q-111 0 -169 48.5t-58 135.5q0 73 50.5 137t156.5 100q-43 67 -43 130q0 74 60.5 133.5t166.5 59.5q83 0 129.5 -41.5t46.5 -113.5q0 -122 -174 -208l92 -123q47 54 75 160zM290 104
q62 0 124 42l-126 167q-110 -51 -110 -126q0 -37 29 -60t83 -23zM403 614q-35 0 -55 -23.5t-20 -53.5q0 -34 33 -93q53 30 76.5 61t23.5 56t-15.5 39t-42.5 14z" />
    <glyph glyph-name="quotesingle" unicode="'" horiz-adv-x="252" 
d="M306 712l-83 -273h-102l53 273h132z" />
    <glyph glyph-name="parenleft" unicode="(" horiz-adv-x="328" 
d="M300 741h119q-239 -317 -239 -638q0 -119 18 -250h-111q-49 147 -49 301q0 147 65 299t197 288z" />
    <glyph glyph-name="parenright" unicode=")" horiz-adv-x="328" 
d="M49 -147h-119q239 317 239 638q0 119 -18 250h111q49 -147 49 -301q0 -147 -65 -299t-197 -288z" />
    <glyph glyph-name="asterisk" unicode="*" horiz-adv-x="426" 
d="M375 697l-48 -127l133 26l6 -100l-135 6l65 -118l-92 -37l-36 130l-92 -98l-64 76l113 74l-122 57l52 86l106 -85l17 134z" />
    <glyph glyph-name="plus" unicode="+" horiz-adv-x="566" 
d="M337 536v-165h165v-109h-165v-165h-108v165h-165v109h165v165h108z" />
    <glyph glyph-name="comma" unicode="," horiz-adv-x="258" 
d="M184 167l-41 -167l-117 -172h-84l98 172h-51l41 167h154z" />
    <glyph glyph-name="hyphen" unicode="-" horiz-adv-x="320" 
d="M313 347l-27 -110h-260l27 110h260z" />
    <glyph glyph-name="period" unicode="." horiz-adv-x="258" 
d="M184 167l-41 -167h-154l41 167h154z" />
    <glyph glyph-name="slash" unicode="/" horiz-adv-x="494" 
d="M565 745l-503 -834h-118l503 834h118z" />
    <glyph glyph-name="zero" unicode="0" 
d="M382 690q107 0 161.5 -64t54.5 -187q0 -73 -21 -150t-60.5 -146.5t-107 -114t-149.5 -44.5q-107 0 -161.5 64t-54.5 186q0 73 21 150.5t61 147t107 114t149 44.5zM372 569q-43 0 -79.5 -37.5t-57.5 -92.5t-32.5 -110t-11.5 -96q0 -130 78 -130q43 0 79.5 37.5t58 92.5
t33 110t11.5 96q0 130 -79 130z" />
    <glyph glyph-name="one" unicode="1" 
d="M508 674l-168 -674h-144l114 457h-163l25 102q85 0 133.5 27t71.5 88h131z" />
    <glyph glyph-name="two" unicode="2" 
d="M384 690q98 0 154 -47t56 -128q0 -78 -54 -140t-171 -121q-98 -49 -133 -76.5t-45 -59.5h325l-28 -118h-505q22 122 84.5 194.5t199.5 140.5q99 50 137.5 86t38.5 82q0 32 -18.5 50t-53.5 18q-91 0 -119 -108h-145q27 110 99.5 168.5t177.5 58.5z" />
    <glyph glyph-name="three" unicode="3" 
d="M384 690q102 0 158.5 -45.5t56.5 -126.5q0 -131 -158 -180v-2q90 -37 90 -134q0 -84 -71 -151t-197 -67q-113 0 -172.5 47.5t-59.5 137.5q0 21 5 51h144q-5 -25 -5 -40q0 -77 94 -77q53 0 86 31t33 67q0 78 -112 78h-20l28 116h19q74 0 112.5 33t38.5 73q0 33 -22 51.5
t-61 18.5q-95 0 -123 -111h-145q26 109 99.5 169.5t181.5 60.5z" />
    <glyph glyph-name="four" unicode="4" 
d="M589 674l-102 -410h94l-28 -113h-94l-38 -151h-144l38 151h-327l33 131l367 392h201zM244 358l-91 -94h193l20 82q37 139 62 215h-2q-101 -118 -182 -203z" />
    <glyph glyph-name="five" unicode="5" 
d="M622 674l-29 -117h-309l-52 -145h2q51 37 120 37q89 0 140 -52t51 -141q0 -46 -19.5 -92.5t-56 -87.5t-95.5 -66.5t-130 -25.5q-101 0 -158.5 42.5t-57.5 118.5q0 21 4 40h145q-2 -7 -2 -19q0 -31 24 -47.5t63 -16.5q66 0 99 45t33 99q0 43 -23 65.5t-65 22.5
q-35 0 -63 -19t-43 -51l-140 9l138 401h424z" />
    <glyph glyph-name="six" unicode="6" 
d="M398 690q100 0 154.5 -46.5t54.5 -130.5q0 -15 -1 -23h-145q0 3 0.5 7t0.5 5q0 70 -73 70q-52 0 -97.5 -44t-73.5 -135h2q64 47 143 47q86 0 136 -53.5t50 -144.5q0 -42 -19 -86.5t-53 -83.5t-88.5 -63.5t-119.5 -24.5q-104 0 -158.5 60t-54.5 178q0 58 13.5 120.5
t41.5 125t67.5 112t96.5 80t123 30.5zM319 331q-57 0 -90.5 -43.5t-33.5 -93.5q0 -43 20.5 -67.5t59.5 -24.5q56 0 89.5 42t33.5 90q0 46 -20 71.5t-59 25.5z" />
    <glyph glyph-name="seven" unicode="7" 
d="M146 674h501l-29 -124q-99 -107 -189 -250.5t-154 -299.5h-167q76 173 173.5 319t186.5 233h-352z" />
    <glyph glyph-name="eight" unicode="8" 
d="M383 690q101 0 160.5 -47t59.5 -127q0 -60 -42.5 -110.5t-118.5 -66.5v-2q44 -19 69 -57t25 -89q0 -79 -73.5 -143t-202.5 -64q-108 0 -169 51t-61 141q0 62 46.5 115.5t130.5 69.5v2q-84 40 -84 133q0 72 71 133t189 61zM299 289q-59 0 -91.5 -34t-32.5 -73
q0 -37 25.5 -58t71.5 -21q59 0 92.5 33t33.5 72q0 38 -26 59.5t-73 21.5zM371 573q-54 0 -84.5 -29t-30.5 -64q0 -37 23.5 -56.5t67.5 -19.5q55 0 84.5 30t29.5 63q0 36 -23.5 56t-66.5 20z" />
    <glyph glyph-name="nine" unicode="9" 
d="M223 -16q-100 0 -154.5 46.5t-54.5 130.5q0 15 1 23h145q0 -3 -0.5 -7t-0.5 -5q0 -70 73 -70q52 0 97.5 44t73.5 135h-2q-64 -47 -143 -47q-86 0 -136 53.5t-50 144.5q0 42 19 86.5t53 83.5t88.5 63.5t119.5 24.5q104 0 158.5 -60t54.5 -178q0 -58 -13.5 -120.5
t-41.5 -125t-67.5 -112t-96.5 -80t-123 -30.5zM302 343q57 0 90.5 43.5t33.5 93.5q0 43 -20.5 67.5t-59.5 24.5q-56 0 -89.5 -42t-33.5 -90q0 -46 20 -71.5t59 -25.5z" />
    <glyph glyph-name="colon" unicode=":" horiz-adv-x="258" 
d="M184 167l-41 -167h-154l41 167h154zM269 508l-41 -167h-154l41 167h154z" />
    <glyph glyph-name="semicolon" unicode=";" horiz-adv-x="258" 
d="M269 508l-41 -167h-154l41 167h154zM184 167l-41 -167l-117 -172h-84l98 172h-51l41 167h154z" />
    <glyph glyph-name="less" unicode="&#x3c;" horiz-adv-x="566" 
d="M502 559v-118l-309 -123v-2l309 -123v-118l-438 181v122z" />
    <glyph glyph-name="equal" unicode="=" horiz-adv-x="566" 
d="M502 466v-109h-438v109h438zM502 276v-109h-438v109h438z" />
    <glyph glyph-name="greater" unicode="&#x3e;" horiz-adv-x="566" 
d="M64 559l438 -181v-122l-438 -181v118l309 123v2l-309 123v118z" />
    <glyph glyph-name="question" unicode="?" horiz-adv-x="547" 
d="M309 132l-33 -132h-154l33 132h154zM358 727q105 0 162.5 -47t57.5 -132q0 -53 -30 -97t-112 -99q-64 -43 -89 -74.5t-41 -91.5h-119q19 91 46.5 133t100.5 95q62 45 81 72.5t19 56.5q0 63 -79 63q-90 0 -116 -101h-146q26 109 94.5 165.5t170.5 56.5z" />
    <glyph glyph-name="at" unicode="@" horiz-adv-x="872" 
d="M503 704q167 0 260.5 -84t93.5 -230q0 -125 -73 -223t-189 -98q-103 0 -103 83h-2q-59 -83 -142 -83q-60 0 -92 40t-32 116q0 60 28.5 126.5t86 116.5t126.5 50q86 0 101 -80h2q16 40 31 70h111q-116 -258 -116 -315q0 -32 33 -32q66 0 105.5 72.5t39.5 153.5
q0 108 -72.5 170t-200.5 62q-91 0 -164.5 -38.5t-117.5 -99t-67 -127t-23 -129.5q0 -122 64.5 -189.5t180.5 -67.5q130 0 231 53l30 -76q-114 -62 -253 -62q-160 0 -249 88.5t-89 248.5q0 62 19 128.5t58 130t92.5 114t129.5 81t162 30.5zM470 415q-52 0 -89 -60.5
t-37 -115.5q0 -66 51 -66q50 0 87.5 63.5t37.5 114.5q0 64 -50 64z" />
    <glyph glyph-name="A" unicode="A" horiz-adv-x="698" 
d="M488 0l-12 174h-273l-99 -174h-164l424 712h198l70 -712h-144zM274 300h193l-3 47q-10 160 -13 278h-2q-70 -140 -148 -278z" />
    <glyph glyph-name="B" unicode="B" horiz-adv-x="650" 
d="M19 0l177 712h236q118 0 176.5 -42t58.5 -116q0 -64 -39 -117t-129 -78v-2q101 -24 101 -134q0 -40 -17 -78.5t-50.5 -71.5t-89.5 -53t-126 -20h-298zM346 303h-105l-45 -182h119q139 0 139 106q0 41 -25.5 58.5t-82.5 17.5zM414 592h-101l-43 -173h114q135 0 135 100
q0 73 -105 73z" />
    <glyph glyph-name="B" unicode="&#xe000;" horiz-adv-x="650" 
d="M19 0l177 712h236q118 0 176.5 -42t58.5 -116q0 -64 -39 -117t-129 -78v-2q101 -24 101 -134q0 -40 -17 -78.5t-50.5 -71.5t-89.5 -53t-126 -20h-298zM346 303h-105l-45 -182h119q139 0 139 106q0 41 -25.5 58.5t-82.5 17.5zM414 592h-101l-43 -173h114q135 0 135 100
q0 73 -105 73z" />
    <glyph glyph-name="C" unicode="C" horiz-adv-x="702" 
d="M453 728q118 0 187 -63.5t69 -169.5q0 -24 -4 -44h-148q2 18 2 28q0 56 -31.5 87.5t-87.5 31.5q-72 0 -126.5 -52t-79 -122.5t-24.5 -141.5q0 -77 33 -122.5t97 -45.5q55 0 101 32.5t68 89.5h151q-37 -119 -125.5 -185.5t-207.5 -66.5q-128 0 -198.5 77.5t-70.5 210.5
q0 62 15 125t47.5 122.5t78 106t111.5 74.5t143 28z" />
    <glyph glyph-name="D" unicode="D" horiz-adv-x="734" 
d="M19 0l177 712h187q168 0 254 -78.5t86 -227.5q0 -73 -26 -142.5t-77 -129.5t-137.5 -97t-196.5 -37h-267zM376 586h-65l-115 -460h99q73 0 129 25t86.5 66.5t45.5 86.5t15 93q0 189 -195 189z" />
    <glyph glyph-name="E" unicode="E" horiz-adv-x="633" 
d="M688 712l-31 -126h-345l-40 -161h322l-32 -125h-322l-43 -174h354l-31 -126h-501l177 712h492z" />
    <glyph glyph-name="E" unicode="&#xe001;" horiz-adv-x="633" 
d="M688 712l-31 -126h-345l-40 -161h322l-32 -125h-322l-43 -174h354l-31 -126h-501l177 712h492z" />
    <glyph glyph-name="F" unicode="F" horiz-adv-x="584" 
d="M671 712l-31 -126h-328l-49 -194h303l-31 -126h-303l-66 -266h-147l177 712h475z" />
    <glyph glyph-name="G" unicode="G" horiz-adv-x="744" 
d="M474 728q122 0 189 -58.5t67 -161.5q0 -16 -3 -34h-158q1 5 1 14q0 53 -30.5 81.5t-86.5 28.5q-58 0 -106.5 -30.5t-77.5 -78.5t-45 -104t-16 -112q0 -80 34 -125.5t102 -45.5q66 0 117.5 41t70.5 112h-169l30 120h306l-93 -375h-124l15 61h-2q-77 -75 -195 -75
q-114 0 -178 76t-64 205q0 82 26.5 162t76.5 147.5t131.5 109.5t181.5 42z" />
    <glyph glyph-name="H" unicode="H" horiz-adv-x="750" 
d="M782 712l-177 -712h-147l76 307h-292l-76 -307h-147l177 712h147l-69 -279h292l69 279h147z" />
    <glyph glyph-name="I" unicode="I" horiz-adv-x="311" 
d="M343 712l-177 -712h-147l177 712h147z" />
    <glyph glyph-name="J" unicode="J" horiz-adv-x="392" 
d="M282 712h147l-125 -501q-28 -112 -95 -165t-184 -53q-41 0 -73 10l31 123q22 -5 40 -5q60 0 93.5 30t54.5 115z" />
    <glyph glyph-name="K" unicode="K" horiz-adv-x="663" 
d="M750 712l-357 -345l203 -367h-171l-171 348h-2l-86 -348h-147l177 712h147l-75 -301h2l292 301h188z" />
    <glyph glyph-name="L" unicode="L" horiz-adv-x="575" 
d="M343 712l-146 -586h336l-31 -126h-483l177 712h147z" />
    <glyph glyph-name="M" unicode="M" horiz-adv-x="984" 
d="M1016 712l-177 -712h-141l88 354q35 142 73 267h-2q-72 -139 -142 -262l-202 -359h-168l-24 359q-9 150 -10 262h-2q-32 -148 -61 -267l-88 -354h-141l177 712h227l22 -327q9 -158 8 -262h2q64 142 132 262l184 327h245z" />
    <glyph glyph-name="N" unicode="N" horiz-adv-x="776" 
d="M808 712l-177 -712h-197l-72 289q-38 155 -66 294h-2q-33 -177 -66 -309l-68 -274h-141l177 712h197l72 -289q27 -112 66 -294h2q27 155 66 309l68 274h141z" />
    <glyph glyph-name="O" unicode="O" horiz-adv-x="748" 
d="M448 728q137 0 213.5 -82t76.5 -222q0 -77 -25 -153.5t-71.5 -141t-122.5 -105t-169 -40.5q-137 0 -213 81.5t-76 222.5q0 61 15 122.5t47 119t76.5 101.5t109 70.5t139.5 26.5zM442 598q-55 0 -101 -29.5t-74 -76t-43 -99.5t-15 -104q0 -82 38.5 -128.5t108.5 -46.5
q73 0 128.5 51t80.5 120t25 139q0 81 -38.5 127.5t-109.5 46.5z" />
    <glyph glyph-name="P" unicode="P" horiz-adv-x="636" 
d="M19 0l177 712h219q126 0 189 -54.5t63 -153.5q0 -43 -16.5 -86t-49.5 -81t-90 -61.5t-130 -23.5h-152l-63 -252h-147zM405 590h-92l-54 -216h122q70 0 103 35t33 82q0 99 -112 99z" />
    <glyph glyph-name="Q" unicode="Q" horiz-adv-x="748" 
d="M740 432q0 -99 -39.5 -196.5t-113.5 -162.5l56 -88l-91 -58l-56 88q-70 -31 -152 -31q-135 0 -210 79.5t-75 216.5q0 79 25.5 156.5t72.5 143.5t124.5 107t172.5 41q135 0 210.5 -79.5t75.5 -216.5zM358 106q35 0 71 13l-77 121l91 58l72 -113q39 46 60 110.5t21 125.5
q0 83 -39.5 130t-110.5 47q-56 0 -103 -30t-75 -77t-43.5 -101t-15.5 -106q0 -83 39 -130.5t110 -47.5z" />
    <glyph glyph-name="R" unicode="R" horiz-adv-x="666" 
d="M19 0l177 712h252q222 0 222 -170q0 -71 -46.5 -131.5t-131.5 -81.5v-2q31 -13 46.5 -42.5t24.5 -94.5l26 -190h-152l-19 169q-7 58 -29.5 80.5t-74.5 22.5h-81l-67 -272h-147zM420 593h-106l-51 -204h114q71 0 104.5 36t33.5 81q0 87 -95 87z" />
    <glyph glyph-name="S" unicode="S" horiz-adv-x="630" 
d="M395 728q244 0 244 -181q0 -23 -8 -53h-149q3 15 3 29q0 88 -108 88q-50 0 -84 -24.5t-34 -61.5q0 -34 29 -54.5t100 -43.5q46 -15 74 -28.5t58.5 -36.5t45 -58.5t14.5 -84.5q0 -89 -81 -162t-220 -73q-125 0 -194 50t-69 144q0 28 7 56h152q-4 -17 -4 -36q0 -95 125 -95
q62 0 95 29.5t33 64.5q0 21 -6.5 36t-25 27t-35.5 19t-53 20q-40 14 -61.5 22.5t-52 26.5t-46 37t-27.5 49.5t-12 69.5q0 84 78.5 154t211.5 70z" />
    <glyph glyph-name="S" unicode="&#xe002;" horiz-adv-x="630" 
d="M395 728q244 0 244 -181q0 -23 -8 -53h-149q3 15 3 29q0 88 -108 88q-50 0 -84 -24.5t-34 -61.5q0 -34 29 -54.5t100 -43.5q46 -15 74 -28.5t58.5 -36.5t45 -58.5t14.5 -84.5q0 -89 -81 -162t-220 -73q-125 0 -194 50t-69 144q0 28 7 56h152q-4 -17 -4 -36q0 -95 125 -95
q62 0 95 29.5t33 64.5q0 21 -6.5 36t-25 27t-35.5 19t-53 20q-40 14 -61.5 22.5t-52 26.5t-46 37t-27.5 49.5t-12 69.5q0 84 78.5 154t211.5 70z" />
    <glyph glyph-name="T" unicode="T" horiz-adv-x="615" 
d="M719 712l-31 -126h-224l-146 -586h-147l146 586h-224l31 126h595z" />
    <glyph glyph-name="U" unicode="U" horiz-adv-x="718" 
d="M609 712h147l-120 -482q-30 -119 -111.5 -182.5t-202.5 -63.5q-118 0 -181.5 60t-63.5 172q0 45 13 97l100 399h147l-105 -423q-9 -36 -9 -64q0 -111 111 -111q62 0 104 39t60 112z" />
    <glyph glyph-name="V" unicode="V" horiz-adv-x="638" 
d="M746 712l-398 -712h-184l-44 712h140l16 -277q10 -156 7 -291h2q70 153 147 291l154 277h160z" />
    <glyph glyph-name="W" unicode="W" horiz-adv-x="956" 
d="M1061 712l-326 -712h-191l4 282q1 145 14 305h-2q-56 -136 -138 -305l-136 -282h-191l28 712h137l-13 -259q-7 -143 -25 -308h2q54 126 142 308l126 259h186l-2 -259q-2 -157 -12 -308h2q48 125 129 308l115 259h151z" />
    <glyph glyph-name="X" unicode="X" horiz-adv-x="630" 
d="M730 712l-305 -357l139 -355h-156l-83 245h-2l-197 -245h-186l319 369l-131 343h153l77 -239h2l187 239h183z" />
    <glyph glyph-name="Y" unicode="Y" horiz-adv-x="638" 
d="M749 712l-351 -435l-69 -277h-147l69 277l-135 435h149l35 -134q22 -86 39 -181h2q57 90 127 181l101 134h180z" />
    <glyph glyph-name="Z" unicode="Z" horiz-adv-x="582" 
d="M659 712l-34 -137l-456 -449v-2h361l-31 -124h-542l34 137l456 449v2h-328l31 124h509z" />
    <glyph glyph-name="bracketleft" unicode="[" horiz-adv-x="329" 
d="M435 741l-20 -81h-112l-181 -728h112l-20 -81h-244l221 890h244z" />
    <glyph glyph-name="backslash" unicode="\" horiz-adv-x="488" 
d="M152 745h104l95 -834h-104z" />
    <glyph glyph-name="bracketright" unicode="]" horiz-adv-x="329" 
d="M-85 -149l20 81h112l181 728h-112l20 81h244l-221 -890h-244z" />
    <glyph glyph-name="asciicircum" unicode="^" horiz-adv-x="496" 
d="M322 712l166 -341h-129l-110 231h-2l-110 -231h-129l166 341h148z" />
    <glyph glyph-name="underscore" unicode="_" horiz-adv-x="500" 
d="M424 -50l-19 -76h-500l19 76h500z" />
    <glyph glyph-name="grave" unicode="`" horiz-adv-x="352" 
d="M165 712h167l47 -146h-104z" />
    <glyph glyph-name="a" unicode="a" horiz-adv-x="547" 
d="M311 524q195 0 195 -158q0 -31 -9 -67l-40 -160q-22 -90 -21 -139h-122q0 31 8 59h-2q-72 -71 -171 -71q-73 0 -112.5 36.5t-39.5 98.5q0 35 14.5 63.5t35.5 48t55 34t64 23t71 14.5t67.5 8t61.5 4l3 12q5 20 5 33q0 63 -72 63q-37 0 -62 -20.5t-33 -56.5h-136
q17 76 80 125.5t160 49.5zM337 201l8 32q-59 -4 -105 -11q-98 -16 -98 -80q0 -25 16.5 -39.5t47.5 -14.5q103 0 131 113z" />
    <glyph glyph-name="b" unicode="b" horiz-adv-x="598" 
d="M323 712l-62 -246h2q58 55 130 55q84 0 130 -52.5t46 -145.5q0 -55 -18.5 -113t-51.5 -108t-87 -82.5t-118 -32.5q-47 0 -83 22.5t-50 63.5h-2l-18 -73h-136l178 712h140zM339 414q-44 0 -77.5 -34.5t-49 -80.5t-15.5 -93q0 -53 21.5 -82.5t60.5 -29.5q44 0 77.5 34.5
t49 80.5t15.5 93q0 53 -21.5 82.5t-60.5 29.5z" />
    <glyph glyph-name="b" unicode="&#xe003;" horiz-adv-x="598" 
d="M323 712l-62 -246h2q58 55 130 55q84 0 130 -52.5t46 -145.5q0 -55 -18.5 -113t-51.5 -108t-87 -82.5t-118 -32.5q-47 0 -83 22.5t-50 63.5h-2l-18 -73h-136l178 712h140zM339 414q-44 0 -77.5 -34.5t-49 -80.5t-15.5 -93q0 -53 21.5 -82.5t60.5 -29.5q44 0 77.5 34.5
t49 80.5t15.5 93q0 53 -21.5 82.5t-60.5 29.5z" />
    <glyph glyph-name="c" unicode="c" horiz-adv-x="562" 
d="M330 524q100 0 157 -51.5t57 -136.5q0 -18 -2 -27h-146q2 10 2 19q0 41 -20 64.5t-56 23.5q-65 0 -105.5 -70t-40.5 -138q0 -55 21.5 -85.5t62.5 -30.5q37 0 67.5 26t43.5 71h147q-29 -93 -101.5 -149t-164.5 -56q-103 0 -161 59t-58 164q0 53 19 107t54 102t94 78
t130 30z" />
    <glyph glyph-name="d" unicode="d" horiz-adv-x="596" 
d="M642 712l-177 -712h-136l12 46h-2q-61 -59 -135 -59q-84 0 -130 52.5t-46 145.5q0 55 18.5 113t51.5 108t87 82.5t118 32.5q46 0 80.5 -20.5t50.5 -57.5h2l66 269h140zM318 414q-44 0 -77.5 -34.5t-49 -80.5t-15.5 -93q0 -53 21.5 -82.5t60.5 -29.5q44 0 77.5 34.5
t49 80.5t15.5 93q0 53 -21.5 82.5t-60.5 29.5z" />
    <glyph glyph-name="e" unicode="e" horiz-adv-x="573" 
d="M531 225h-364q-4 -21 -4 -43q0 -51 25.5 -75t66.5 -24q38 0 67.5 20t40.5 51h143q-31 -73 -101 -121.5t-158 -48.5q-106 0 -161 57t-55 158q0 74 32 146.5t102 125.5t163 53q105 0 160 -55.5t55 -151.5q0 -40 -12 -92zM320 425q-42 0 -76.5 -28t-54.5 -84h222q2 16 2 22
q0 45 -25.5 67.5t-67.5 22.5z" />
    <glyph glyph-name="f" unicode="f" horiz-adv-x="341" 
d="M372 720q39 0 73 -10l-24 -97q-9 3 -23 3q-39 0 -62 -20t-35 -67l-5 -21h95l-26 -104h-95l-101 -404h-138l101 404h-85l26 104h85l14 58q38 154 200 154z" />
    <glyph glyph-name="g" unicode="g" horiz-adv-x="591" 
d="M292 522q54 0 89.5 -24.5t51.5 -65.5h2l19 76h132l-126 -508q-24 -96 -95.5 -145t-174.5 -49t-155 35t-52 100q0 12 3 27h136q-1 -4 -1 -12q0 -50 77 -50q101 0 131 115l9 37h-2q-61 -52 -135 -52q-80 0 -124 53.5t-44 148.5q0 41 10.5 84t32.5 84t52 73.5t73 52.5t91 20
zM309 407q-39 0 -69.5 -31t-44.5 -70.5t-14 -76.5q0 -50 21.5 -79t59.5 -29q61 0 97 57t36 120q0 51 -23 80t-63 29z" />
    <glyph glyph-name="h" unicode="h" 
d="M322 712l-63 -251h2q64 59 142 59q73 0 114 -38.5t41 -111.5q0 -34 -10 -73l-74 -297h-140l73 294q7 28 7 52q0 64 -67 64q-45 0 -81 -35.5t-53 -102.5l-68 -272h-140l177 712h140z" />
    <glyph glyph-name="i" unicode="i" horiz-adv-x="276" 
d="M271 508l-126 -508h-140l126 508h140zM322 712l-30 -120h-140l30 120h140z" />
    <glyph glyph-name="j" unicode="j" horiz-adv-x="278" 
d="M133 508h140l-133 -535q-21 -84 -75.5 -123.5t-130.5 -39.5q-44 0 -75 9l25 100q11 -3 23 -3q41 0 65.5 22.5t38.5 79.5zM324 712l-30 -120h-140l30 120h140z" />
    <glyph glyph-name="k" unicode="k" horiz-adv-x="543" 
d="M595 508l-253 -245l148 -263h-153l-129 244h-2l-61 -244h-140l177 712h140l-100 -403h2l193 199h178z" />
    <glyph glyph-name="l" unicode="l" horiz-adv-x="276" 
d="M322 712l-177 -712h-140l177 712h140z" />
    <glyph glyph-name="m" unicode="m" horiz-adv-x="897" 
d="M709 520q70 0 108.5 -37t38.5 -109q0 -31 -11 -77l-74 -297h-140l74 298q7 27 7 49q0 63 -59 63q-45 0 -78.5 -38.5t-51.5 -110.5l-65 -261h-140l76 307q6 23 6 41q0 62 -60 62q-46 0 -79.5 -38.5t-50.5 -110.5l-65 -261h-140l126 508h132l-12 -51h2q64 63 143 63
q111 0 134 -90q80 90 179 90z" />
    <glyph glyph-name="n" unicode="n" 
d="M403 520q74 0 114.5 -38.5t40.5 -111.5q0 -34 -10 -73l-74 -297h-140l73 294q7 28 7 52q0 64 -67 64q-45 0 -81 -35.5t-53 -102.5l-68 -272h-140l127 508h131l-14 -56h2q68 68 152 68z" />
    <glyph glyph-name="o" unicode="o" horiz-adv-x="590" 
d="M332 524q109 0 167 -59t58 -165q0 -53 -19.5 -107.5t-55.5 -101.5t-95 -77t-131 -30q-108 0 -165.5 59t-57.5 165q0 53 19.5 107.5t55.5 101.5t94.5 77t129.5 30zM321 416q-47 0 -81.5 -36.5t-48.5 -81.5t-14 -89q0 -56 23 -86.5t68 -30.5q47 0 81.5 36.5t48.5 81.5
t14 89q0 56 -23 86.5t-68 30.5z" />
    <glyph glyph-name="p" unicode="p" horiz-adv-x="598" 
d="M393 521q84 0 130 -52.5t46 -145.5q0 -55 -18.5 -113t-51.5 -108t-87 -82.5t-118 -32.5q-46 0 -80.5 20.5t-50.5 57.5h-2l-62 -250h-140l173 693h136l-12 -46h2q61 59 135 59zM339 414q-44 0 -77.5 -34.5t-49 -80.5t-15.5 -93q0 -53 21.5 -82.5t60.5 -29.5
q44 0 77.5 34.5t49 80.5t15.5 93q0 53 -21.5 82.5t-60.5 29.5z" />
    <glyph glyph-name="q" unicode="q" horiz-adv-x="597" 
d="M303 521q47 0 83 -22.5t50 -63.5h2l18 73h136l-172 -693h-140l56 227h-2q-58 -55 -130 -55q-84 0 -130 52.5t-46 145.5q0 55 18.5 113t51.5 108t87 82.5t118 32.5zM318 414q-44 0 -77.5 -34.5t-49 -80.5t-15.5 -93q0 -53 21.5 -82.5t60.5 -29.5q44 0 77.5 34.5t49 80.5
t15.5 93q0 53 -21.5 82.5t-60.5 29.5z" />
    <glyph glyph-name="r" unicode="r" horiz-adv-x="392" 
d="M403 516q26 0 45 -6l-30 -121q-27 5 -43 5q-65 0 -108.5 -39.5t-61.5 -114.5l-60 -240h-140l126 508h129l-16 -65h2q70 73 157 73z" />
    <glyph glyph-name="s" unicode="s" horiz-adv-x="524" 
d="M305 524q93 0 142.5 -35.5t49.5 -104.5q0 -16 -3 -32h-133q2 14 2 21q0 53 -70 53q-38 0 -56 -15t-18 -35q0 -21 19 -34t73 -32q29 -10 43.5 -15.5t38 -19t35.5 -27.5t21.5 -37.5t9.5 -53.5q0 -70 -63 -121.5t-178 -51.5q-100 0 -154.5 36.5t-54.5 108.5q0 20 5 36h141
q-3 -12 -3 -22q0 -58 78 -58q38 0 59 15t21 40q0 26 -21.5 40t-76.5 33q-35 12 -51 19t-40 23.5t-34 41.5t-10 61q0 66 60 116t168 50z" />
    <glyph glyph-name="s" unicode="&#xe004;" horiz-adv-x="524" 
d="M305 524q93 0 142.5 -35.5t49.5 -104.5q0 -16 -3 -32h-133q2 14 2 21q0 53 -70 53q-38 0 -56 -15t-18 -35q0 -21 19 -34t73 -32q29 -10 43.5 -15.5t38 -19t35.5 -27.5t21.5 -37.5t9.5 -53.5q0 -70 -63 -121.5t-178 -51.5q-100 0 -154.5 36.5t-54.5 108.5q0 20 5 36h141
q-3 -12 -3 -22q0 -58 78 -58q38 0 59 15t21 40q0 26 -21.5 40t-76.5 33q-35 12 -51 19t-40 23.5t-34 41.5t-10 61q0 66 60 116t168 50z" />
    <glyph glyph-name="t" unicode="t" horiz-adv-x="357" 
d="M364 404h-97l-53 -213q-5 -23 -5 -36q0 -27 12.5 -38.5t41.5 -11.5q15 0 33 4l-28 -109q-24 -7 -55 -7q-77 0 -113 30t-36 97q0 30 11 74l52 210h-82l26 104h82l33 132h140l-33 -132h97z" />
    <glyph glyph-name="u" unicode="u" 
d="M197 -12q-74 0 -114.5 38.5t-40.5 111.5q0 34 10 73l74 297h140l-73 -294q-7 -28 -7 -52q0 -64 67 -64q45 0 81 35.5t53 102.5l68 272h140l-127 -508h-131l14 56h-2q-68 -68 -152 -68z" />
    <glyph glyph-name="v" unicode="v" horiz-adv-x="510" 
d="M580 508l-298 -508h-182l-44 508h137l9 -200q5 -126 4 -220h2q52 117 108 220l109 200h155z" />
    <glyph glyph-name="w" unicode="w" horiz-adv-x="810" 
d="M868 508l-238 -508h-200l5 200q3 109 9 217h-2q-44 -115 -93 -217l-95 -200h-200l14 508h133l-11 -196q-8 -151 -15 -221h2q45 113 95 219l94 198h192l-4 -198q-1 -109 -9 -219h2q41 114 89 221l87 196h145z" />
    <glyph glyph-name="x" unicode="x" horiz-adv-x="508" 
d="M566 508l-229 -253l114 -255h-148l-60 166h-2l-132 -166h-178l244 267l-107 241h146l57 -143h2l117 143h176z" />
    <glyph glyph-name="y" unicode="y" horiz-adv-x="504" 
d="M418 508h156l-309 -511q-65 -106 -129 -147t-160 -41q-39 0 -71 8l28 112q21 -8 52 -8q53 0 85 31.5t32 78.5q0 17 -5 64l-41 413h138l12 -170q8 -117 7 -213h2q57 122 108 213z" />
    <glyph glyph-name="y" unicode="&#xe006;" horiz-adv-x="504" 
d="M418 508h156l-309 -511q-65 -106 -129 -147t-160 -41q-39 0 -71 8l28 112q21 -8 52 -8q53 0 85 31.5t32 78.5q0 17 -5 64l-41 413h138l12 -170q8 -117 7 -213h2q57 122 108 213z" />
    <glyph glyph-name="z" unicode="z" horiz-adv-x="484" 
d="M510 508l-30 -120l-311 -276v-2h251l-27 -110h-428l30 120l311 276v2h-232l28 110h408z" />
    <glyph glyph-name="braceleft" unicode="{" horiz-adv-x="338" 
d="M400 741h34l-20 -80q-43 -2 -66 -20t-34 -62l-40 -160q-13 -52 -42.5 -80t-81.5 -40l-1 -3q66 -23 66 -93q0 -22 -7 -49l-32 -128q-6 -24 -6 -40q0 -30 14.5 -43t47.5 -14l-20 -81h-14q-82 0 -118.5 29.5t-36.5 93.5q0 29 11 75l29 117q6 24 6 40q0 46 -47 60l22 87
q39 10 58 28t29 56l37 150q21 85 68.5 121t143.5 36z" />
    <glyph glyph-name="bar" unicode="|" horiz-adv-x="294" 
d="M210 732v-937h-126v937h126z" />
    <glyph glyph-name="braceright" unicode="}" horiz-adv-x="338" 
d="M-42 -152h-34l20 80q43 2 66 20t34 62l40 160q13 52 42.5 80t81.5 40l1 3q-66 23 -66 93q0 22 7 49l32 128q6 24 6 40q0 30 -14.5 43t-47.5 14l20 81h14q82 0 118.5 -29.5t36.5 -93.5q0 -29 -11 -75l-29 -117q-6 -24 -6 -40q0 -46 47 -60l-22 -87q-39 -10 -58 -28
t-29 -56l-37 -150q-21 -85 -68.5 -121t-143.5 -36z" />
    <glyph glyph-name="asciitilde" unicode="~" horiz-adv-x="594" 
d="M216 419q36 0 68 -15t50.5 -33t42.5 -33t47 -15q32 0 58 24t36 63h90q-22 -92 -76 -143.5t-123 -51.5q-36 0 -68 15t-50.5 32.5t-43 32.5t-47.5 15q-32 0 -57.5 -23.5t-35.5 -63.5h-90q22 92 76.5 144t122.5 52z" />
    <glyph glyph-name="exclamdown" unicode="&#xa1;" horiz-adv-x="324" 
d="M-37 -204l159 514h108l-97 -514h-170zM115 376l33 132h154l-33 -132h-154z" />
    <glyph glyph-name="cent" unicode="&#xa2;" 
d="M578 387h-146q2 10 2 19q0 53 -32 76l-77 -308q61 20 82 93h147q-28 -90 -98 -146t-159 -59l-22 -88h-81l24 96q-72 19 -110.5 74.5t-38.5 140.5q0 51 18 104t51.5 100t89 78.5t123.5 34.5l22 88h81l-24 -94q71 -16 110.5 -64t39.5 -118q0 -18 -2 -27zM212 286
q0 -71 35 -100l75 302q-50 -19 -80 -82t-30 -120z" />
    <glyph glyph-name="sterling" unicode="&#xa3;" 
d="M626 473h-140q3 15 3 28q0 69 -68 69q-81 0 -108 -107l-17 -69h122l-29 -117h-122l-7 -26q-13 -54 -34.5 -84t-60.5 -49v-2h366l-29 -116h-541l29 118q46 0 76 30t47 101l7 28h-90l29 117h90l24 95q50 201 262 201q94 0 145.5 -44t51.5 -123q0 -23 -6 -50z" />
    <glyph glyph-name="currency" unicode="&#xa4;" 
d="M521 291q0 -65 -30 -116l72 -76l-87 -81l-71 77q-49 -22 -105 -22t-105 22l-71 -77l-87 81l72 76q-30 51 -30 116t30 116l-72 76l87 81l71 -77q49 22 105 22t105 -22l71 77l87 -81l-72 -76q30 -51 30 -116zM300 179q49 0 78.5 31t29.5 81t-29.5 81t-78.5 31t-78.5 -31
t-29.5 -81t29.5 -81t78.5 -31z" />
    <glyph glyph-name="yen" unicode="&#xa5;" 
d="M692 674l-257 -327h122l-17 -70h-160l-10 -40h160l-18 -70h-159l-42 -167h-148l42 167h-161l18 70h160l10 40h-160l17 70h123l-94 327h149l22 -96q25 -112 36 -181h2q59 100 118 181l70 96h177z" />
    <glyph glyph-name="brokenbar" unicode="&#xa6;" horiz-adv-x="294" 
d="M210 732v-350h-126v350h126zM210 145v-350h-126v350h126z" />
    <glyph glyph-name="section" unicode="&#xa7;" horiz-adv-x="646" 
d="M423 728q195 0 195 -154q0 -20 -2 -32h-140q1 5 1 14q0 59 -72 59q-31 0 -51.5 -17t-20.5 -44q0 -22 18.5 -36.5t78.5 -43.5q41 -20 63 -33t47 -34t36 -47.5t11 -60.5q0 -122 -132 -191v-2q26 -28 26 -74q0 -71 -64 -129.5t-178 -58.5q-99 0 -153.5 36t-54.5 109
q0 20 4 39h141q-1 -5 -1 -15q0 -56 71 -56q38 0 63.5 17t25.5 46q0 25 -23 43t-96 57q-69 36 -103.5 71.5t-34.5 94.5q0 54 32.5 104t99.5 84v2q-23 27 -23 67q0 69 63.5 127t172.5 58zM370 358l-90 49q-28 -13 -44.5 -36t-16.5 -51t19 -49.5t66 -48.5q7 -4 80 -46
q29 12 45.5 37.5t16.5 49.5q0 54 -76 95z" />
    <glyph glyph-name="dieresis" unicode="&#xa8;" horiz-adv-x="441" 
d="M288 712l-30 -120h-123l30 120h123zM505 712l-30 -120h-123l30 120h123z" />
    <glyph glyph-name="copyright" unicode="&#xa9;" horiz-adv-x="802" 
d="M401 726q162 0 261 -102t99 -268t-99 -268t-261 -102t-261 102t-99 268t99 268t261 102zM401 671q-138 0 -222 -86.5t-84 -228.5t84 -228.5t222 -86.5t222.5 86.5t84.5 228.5t-84.5 228.5t-222.5 86.5zM403 587q85 0 136 -46t55 -123h-97q-3 41 -27.5 65.5t-66.5 24.5
q-50 0 -78.5 -41t-28.5 -112q0 -70 28.5 -110.5t76.5 -40.5q41 0 67 25t31 68h98q-7 -81 -59.5 -126.5t-136.5 -45.5q-94 0 -148 61.5t-54 168.5q0 108 54.5 170t149.5 62z" />
    <glyph glyph-name="ordfeminine" unicode="&#xaa;" horiz-adv-x="413" 
d="M294 697q150 0 150 -114q0 -21 -6 -47l-26 -105q-17 -67 -14 -101h-107q0 22 5 40h-2q-52 -49 -122 -49q-53 0 -81.5 26t-28.5 71q0 125 265 137l2 7q3 10 3 21q0 39 -45 39q-47 0 -58 -49h-116q12 53 59.5 88.5t121.5 35.5zM306 470l5 21q-37 -2 -67 -8q-60 -10 -60 -50
q0 -34 41 -34q63 0 81 71z" />
    <glyph glyph-name="guillemetleft" unicode="&#xab;" horiz-adv-x="532" 
d="M330 454l-159 -204l59 -196h-116l-69 204l157 196h128zM538 454l-159 -204l59 -196h-116l-69 204l157 196h128z" />
    <glyph glyph-name="logicalnot" unicode="&#xac;" horiz-adv-x="566" 
d="M502 462v-330h-108v221h-330v109h438z" />
    <glyph glyph-name="softhyphen" unicode="&#xad;" horiz-adv-x="320" 
d="M313 347l-27 -110h-260l27 110h260z" />
    <glyph glyph-name="registered" unicode="&#xae;" horiz-adv-x="592" 
d="M349 728q113 0 182 -71t69 -187t-69 -187t-182 -71t-182 71t-69 187t69 187t182 71zM349 692q-97 0 -156 -61t-59 -161t59 -161t156 -61t156 61t59 161t-59 161t-156 61zM229 316v316h128q54 0 82 -24t28 -66q0 -28 -15.5 -49t-42.5 -28v-2q29 -8 46 -56l33 -91h-72
l-27 77q-7 24 -20 33.5t-36 9.5h-36v-120h-68zM343 577h-46v-87h43q60 0 60 46q0 41 -57 41z" />
    <glyph glyph-name="macron" unicode="&#xaf;" horiz-adv-x="427" 
d="M485 689l-22 -91h-326l22 91h326z" />
    <glyph glyph-name="degree" unicode="&#xb0;" horiz-adv-x="339" 
d="M252 722q56 0 95.5 -39.5t39.5 -95.5t-39.5 -95.5t-95.5 -39.5t-96 39.5t-40 95.5t40 95.5t96 39.5zM252 652q-27 0 -46 -19t-19 -46t19 -46t46 -19t46 19t19 46t-19 46t-46 19z" />
    <glyph glyph-name="plusminus" unicode="&#xb1;" horiz-adv-x="566" 
d="M502 109v-109h-438v109h438zM337 566v-155h165v-109h-165v-155h-108v155h-165v109h165v155h108z" />
    <glyph glyph-name="twosuperior" unicode="&#xb2;" horiz-adv-x="457" 
d="M350 813q78 0 121 -34.5t43 -92.5q0 -107 -161 -176q-67 -29 -91.5 -45.5t-31.5 -35.5h235l-23 -99h-386q15 92 61 144.5t141 95.5q71 32 100 55t29 52q0 41 -46 41q-57 0 -74 -69h-126q19 79 73.5 121.5t135.5 42.5z" />
    <glyph glyph-name="threesuperior" unicode="&#xb3;" horiz-adv-x="452" 
d="M347 813q80 0 124 -33t44 -90q0 -89 -111 -123v-1q64 -27 64 -93q0 -59 -53.5 -106.5t-148.5 -47.5q-88 0 -134.5 33.5t-46.5 98.5q0 20 4 36h124q-3 -12 -3 -24q0 -49 61 -49q34 0 54.5 18.5t20.5 40.5q0 48 -73 48h-13l22 92h15q45 0 69.5 18.5t24.5 43.5q0 43 -54 43
q-62 0 -79 -70h-123q18 78 74 121.5t138 43.5z" />
    <glyph glyph-name="acute" unicode="&#xb4;" horiz-adv-x="350" 
d="M414 712l-170 -146h-116l107 146h179z" />
    <glyph glyph-name="micro" unicode="&#xb5;" horiz-adv-x="613" 
d="M458 508h140l-84 -340q-6 -22 -6 -36q0 -31 33 -31q11 0 25 3l-26 -105q-25 -7 -61 -7q-90 0 -96 81h-2q-21 -36 -61 -57.5t-85 -21.5q-58 0 -84 34l-53 -213h-140l173 693h140l-73 -292q-6 -27 -6 -46q0 -72 72 -72q42 0 76 35.5t51 102.5z" />
    <glyph glyph-name="paragraph" unicode="&#xb6;" horiz-adv-x="656" 
d="M746 712l-24 -96h-80l-183 -736h-103l183 736h-82l-183 -736h-103l102 410q-168 25 -168 196q0 85 59.5 155.5t160.5 70.5h421z" />
    <glyph glyph-name="periodcentered" unicode="&#xb7;" horiz-adv-x="258" 
d="M239 389l-41 -167h-154l41 167h154z" />
    <glyph glyph-name="cedilla" unicode="&#xb8;" horiz-adv-x="333" 
d="M85 0h59l-53 -60q9 3 23 3q31 0 51 -19t20 -51q0 -42 -41 -70.5t-100 -28.5q-60 0 -106 30l25 45q39 -22 79 -22q26 0 41.5 11t15.5 29q0 33 -38 33q-17 0 -34 -6l-20 18z" />
    <glyph glyph-name="onesuperior" unicode="&#xb9;" horiz-adv-x="317" 
d="M391 802l-118 -472h-124l75 301h-119l22 89q63 0 99 19.5t54 62.5h111z" />
    <glyph glyph-name="ordmasculine" unicode="&#xba;" horiz-adv-x="442" 
d="M305 697q84 0 130 -43.5t46 -120.5q0 -50 -23.5 -97.5t-75 -82t-119.5 -34.5q-83 0 -129 43.5t-46 120.5q0 50 23 97.5t74.5 82t119.5 34.5zM300 606q-42 0 -65 -41t-23 -85q0 -71 56 -71q42 0 65 41t23 85q0 71 -56 71z" />
    <glyph glyph-name="guillemetright" unicode="&#xbb;" horiz-adv-x="532" 
d="M-6 54l159 204l-59 196h116l69 -204l-157 -196h-128zM202 54l159 204l-59 196h116l69 -204l-157 -196h-128z" />
    <glyph glyph-name="onequarter" unicode="&#xbc;" horiz-adv-x="806" 
d="M773 164l-20 -84h-67l-20 -80h-111l20 80h-201l23 95l218 229h152l-60 -240h66zM549 220l-55 -56h106l10 42q14 61 34 114h-2q-40 -45 -93 -100zM116 270l64 252h-103l19 81q55 0 86.5 16.5t46.5 54.5h102l-101 -404h-114zM598 674h91l-537 -674h-91z" />
    <glyph glyph-name="onehalf" unicode="&#xbd;" horiz-adv-x="834" 
d="M689 674l-537 -674h-91l537 674h91zM655 414q69 0 108 -30t39 -80q0 -93 -141 -149q-59 -23 -79 -36t-26 -29h206l-21 -90h-344q13 81 53 127t122 81q63 28 88.5 46t25.5 42q0 33 -38 33q-49 0 -63 -58h-116q16 69 65 106t121 37zM331 674l-101 -404h-114l64 252h-103
l19 81q55 0 86.5 16.5t46.5 54.5h102z" />
    <glyph glyph-name="threequarters" unicode="&#xbe;" horiz-adv-x="926" 
d="M893 164l-20 -84h-67l-20 -80h-111l20 80h-201l23 95l218 229h152l-60 -240h66zM669 220l-55 -56h106l10 42q14 61 34 114h-2q-40 -45 -93 -100zM403 393q0 -51 -47.5 -92t-131.5 -41q-162 0 -162 115q0 15 3 31h114q-2 -14 -2 -20q0 -40 52 -40q29 0 46 15t17 32
q0 39 -62 39h-12l20 82h14q37 0 57.5 15t20.5 35q0 35 -46 35q-53 0 -67 -57h-112q15 67 64.5 104.5t123.5 37.5q72 0 111 -28t39 -78q0 -75 -96 -105v-2q56 -21 56 -78zM718 674h91l-537 -674h-91z" />
    <glyph glyph-name="questiondown" unicode="&#xbf;" horiz-adv-x="517" 
d="M189 -219q-105 0 -162.5 47t-57.5 132q0 53 30 97t112 99q64 43 89 74.5t41 91.5h119q-19 -91 -46.5 -133t-100.5 -95q-62 -45 -81 -72.5t-19 -56.5q0 -63 79 -63q90 0 116 101h146q-26 -109 -94.5 -165.5t-170.5 -56.5zM238 376l33 132h154l-33 -132h-154z" />
    <glyph glyph-name="Agrave" unicode="&#xc0;" horiz-adv-x="698" 
d="M488 0l-12 174h-273l-99 -174h-164l424 712h198l70 -712h-144zM274 300h193l-3 47q-10 160 -13 278h-2q-70 -140 -148 -278zM560 760h-104l-109 146h167z" />
    <glyph glyph-name="Aacute" unicode="&#xc1;" horiz-adv-x="698" 
d="M364 712h198l70 -712h-144l-12 174h-273l-99 -174h-164zM274 300h193l-3 47q-10 160 -13 278h-2q-70 -140 -148 -278zM677 906l-171 -146h-116l108 146h179z" />
    <glyph glyph-name="Acircumflex" unicode="&#xc2;" horiz-adv-x="698" 
d="M364 712h198l70 -712h-144l-12 174h-273l-99 -174h-164zM274 300h193l-3 47q-10 160 -13 278h-2q-70 -140 -148 -278zM507 836l-79 -76h-142l151 146h149l77 -146h-114z" />
    <glyph glyph-name="Atilde" unicode="&#xc3;" horiz-adv-x="698" 
d="M364 712h198l70 -712h-144l-12 174h-273l-99 -174h-164zM274 300h193l-3 47q-10 160 -13 278h-2q-70 -140 -148 -278zM622 906h78q-18 -63 -55.5 -99t-87.5 -36q-37 0 -74 23t-56 23q-41 0 -57 -46h-80q17 63 55 99t88 36q37 0 74.5 -23t55.5 -23q41 0 59 46z" />
    <glyph glyph-name="Adieresis" unicode="&#xc4;" horiz-adv-x="698" 
d="M364 712h198l70 -712h-144l-12 174h-273l-99 -174h-164zM274 300h193l-3 47q-10 160 -13 278h-2q-70 -140 -148 -278zM460 889l-30 -120h-123l30 120h123zM554 889h123l-30 -120h-123z" />
    <glyph glyph-name="Aring" unicode="&#xc5;" horiz-adv-x="698" 
d="M488 0l-12 174h-273l-99 -174h-164l424 712h198l70 -712h-144zM274 300h193l-3 47q-10 160 -13 278h-2q-70 -140 -148 -278zM489 750q-45 0 -76.5 31.5t-31.5 76.5t31.5 76.5t76.5 31.5t76.5 -31.5t31.5 -76.5t-31.5 -76.5t-76.5 -31.5zM489 912q-23 0 -38.5 -16
t-15.5 -38t15.5 -38t38.5 -16t38.5 16t15.5 38t-15.5 38t-38.5 16z" />
    <glyph glyph-name="AE" unicode="&#xc6;" horiz-adv-x="965" 
d="M989 586h-332l-17 -161h286l-32 -125h-268l-18 -174h275l-31 -126h-393l19 179h-254l-122 -179h-171l509 712h580zM490 303l31 292h-14l-199 -292h182z" />
    <glyph glyph-name="Ccedilla" unicode="&#xc7;" horiz-adv-x="702" 
d="M705 451h-148q2 18 2 28q0 56 -31.5 87.5t-87.5 31.5q-72 0 -126.5 -52t-79 -122.5t-24.5 -141.5q0 -77 33 -122.5t97 -45.5q55 0 101 32.5t68 89.5h151q-35 -113 -117 -179t-193 -72l-39 -45q9 3 23 3q31 0 51 -19t20 -51q0 -42 -41 -70.5t-100 -28.5q-60 0 -106 30
l25 45q39 -22 79 -22q26 0 41.5 11t15.5 29q0 33 -38 33q-17 0 -34 -6l-20 18l65 74q-112 10 -173 86t-61 200q0 62 15 125t47.5 122.5t78 106t111.5 74.5t143 28q118 0 187 -63.5t69 -169.5q0 -24 -4 -44z" />
    <glyph glyph-name="Egrave" unicode="&#xc8;" horiz-adv-x="633" 
d="M688 712l-31 -126h-345l-40 -161h322l-32 -125h-322l-43 -174h354l-31 -126h-501l177 712h492zM483 906l46 -146h-104l-109 146h167z" />
    <glyph glyph-name="Eacute" unicode="&#xc9;" horiz-adv-x="633" 
d="M688 712l-31 -126h-345l-40 -161h322l-32 -125h-322l-43 -174h354l-31 -126h-501l177 712h492zM646 906l-171 -146h-116l108 146h179z" />
    <glyph glyph-name="Ecircumflex" unicode="&#xca;" horiz-adv-x="633" 
d="M688 712l-31 -126h-345l-40 -161h322l-32 -125h-322l-43 -174h354l-31 -126h-501l177 712h492zM255 760l151 146h149l77 -146h-114l-42 76l-79 -76h-142z" />
    <glyph glyph-name="Edieresis" unicode="&#xcb;" horiz-adv-x="633" 
d="M688 712l-31 -126h-345l-40 -161h322l-32 -125h-322l-43 -174h354l-31 -126h-501l177 712h492zM429 889l-30 -120h-123l30 120h123zM646 889l-30 -120h-123l30 120h123z" />
    <glyph glyph-name="Igrave" unicode="&#xcc;" horiz-adv-x="311" 
d="M343 712l-177 -712h-147l177 712h147zM321 906l46 -146h-104l-109 146h167z" />
    <glyph glyph-name="Iacute" unicode="&#xcd;" horiz-adv-x="311" 
d="M343 712l-177 -712h-147l177 712h147zM484 906l-171 -146h-116l108 146h179z" />
    <glyph glyph-name="Icircumflex" unicode="&#xce;" horiz-adv-x="311" 
d="M343 712l-177 -712h-147l177 712h147zM93 760l151 146h149l77 -146h-114l-42 76l-79 -76h-142z" />
    <glyph glyph-name="Idieresis" unicode="&#xcf;" horiz-adv-x="311" 
d="M343 712l-177 -712h-147l177 712h147zM267 889l-30 -120h-123l30 120h123zM484 889l-30 -120h-123l30 120h123z" />
    <glyph glyph-name="Eth" unicode="&#xd0;" horiz-adv-x="735" 
d="M122 413l74 299h187q168 0 254 -78.5t86 -227.5q0 -73 -26 -142.5t-77 -129.5t-137.5 -97t-196.5 -37h-267l76 307h-64l27 106h64zM241 307l-45 -181h99q73 0 129 25t86.5 66.5t45.5 86.5t15 93q0 189 -195 189h-65l-43 -173h166l-27 -106h-166z" />
    <glyph glyph-name="Ntilde" unicode="&#xd1;" horiz-adv-x="776" 
d="M808 712l-177 -712h-197l-72 289q-38 155 -66 294h-2q-33 -177 -66 -309l-68 -274h-141l177 712h197l72 -289q27 -112 66 -294h2q27 155 66 309l68 274h141zM661 906h78q-18 -63 -55.5 -99t-87.5 -36q-37 0 -74 23t-56 23q-41 0 -57 -46h-80q17 63 55 99t88 36
q37 0 74.5 -23t55.5 -23q41 0 59 46z" />
    <glyph glyph-name="Ograve" unicode="&#xd2;" horiz-adv-x="748" 
d="M448 728q137 0 213.5 -82t76.5 -222q0 -77 -25 -153.5t-71.5 -141t-122.5 -105t-169 -40.5q-137 0 -213 81.5t-76 222.5q0 61 15 122.5t47 119t76.5 101.5t109 70.5t139.5 26.5zM442 598q-55 0 -101 -29.5t-74 -76t-43 -99.5t-15 -104q0 -82 38.5 -128.5t108.5 -46.5
q73 0 128.5 51t80.5 120t25 139q0 81 -38.5 127.5t-109.5 46.5zM515 906l46 -146h-104l-109 146h167z" />
    <glyph glyph-name="Oacute" unicode="&#xd3;" horiz-adv-x="748" 
d="M448 728q137 0 213.5 -82t76.5 -222q0 -77 -25 -153.5t-71.5 -141t-122.5 -105t-169 -40.5q-137 0 -213 81.5t-76 222.5q0 61 15 122.5t47 119t76.5 101.5t109 70.5t139.5 26.5zM442 598q-55 0 -101 -29.5t-74 -76t-43 -99.5t-15 -104q0 -82 38.5 -128.5t108.5 -46.5
q73 0 128.5 51t80.5 120t25 139q0 81 -38.5 127.5t-109.5 46.5zM678 906l-171 -146h-116l108 146h179z" />
    <glyph glyph-name="Ocircumflex" unicode="&#xd4;" horiz-adv-x="748" 
d="M448 728q137 0 213.5 -82t76.5 -222q0 -77 -25 -153.5t-71.5 -141t-122.5 -105t-169 -40.5q-137 0 -213 81.5t-76 222.5q0 61 15 122.5t47 119t76.5 101.5t109 70.5t139.5 26.5zM442 598q-55 0 -101 -29.5t-74 -76t-43 -99.5t-15 -104q0 -82 38.5 -128.5t108.5 -46.5
q73 0 128.5 51t80.5 120t25 139q0 81 -38.5 127.5t-109.5 46.5zM287 760l151 146h149l77 -146h-114l-42 76l-79 -76h-142z" />
    <glyph glyph-name="Otilde" unicode="&#xd5;" horiz-adv-x="748" 
d="M448 728q137 0 213.5 -82t76.5 -222q0 -77 -25 -153.5t-71.5 -141t-122.5 -105t-169 -40.5q-137 0 -213 81.5t-76 222.5q0 61 15 122.5t47 119t76.5 101.5t109 70.5t139.5 26.5zM442 598q-55 0 -101 -29.5t-74 -76t-43 -99.5t-15 -104q0 -82 38.5 -128.5t108.5 -46.5
q73 0 128.5 51t80.5 120t25 139q0 81 -38.5 127.5t-109.5 46.5zM623 906h78q-18 -63 -55.5 -99t-87.5 -36q-37 0 -74 23t-56 23q-41 0 -57 -46h-80q17 63 55 99t88 36q37 0 74.5 -23t55.5 -23q41 0 59 46z" />
    <glyph glyph-name="Odieresis" unicode="&#xd6;" horiz-adv-x="748" 
d="M448 728q137 0 213.5 -82t76.5 -222q0 -77 -25 -153.5t-71.5 -141t-122.5 -105t-169 -40.5q-137 0 -213 81.5t-76 222.5q0 61 15 122.5t47 119t76.5 101.5t109 70.5t139.5 26.5zM442 598q-55 0 -101 -29.5t-74 -76t-43 -99.5t-15 -104q0 -82 38.5 -128.5t108.5 -46.5
q73 0 128.5 51t80.5 120t25 139q0 81 -38.5 127.5t-109.5 46.5zM461 889l-30 -120h-123l30 120h123zM678 889l-30 -120h-123l30 120h123z" />
    <glyph glyph-name="multiply" unicode="&#xd7;" horiz-adv-x="566" 
d="M468 568l77 -76l-185 -185l185 -185l-77 -77l-185 185l-184 -185l-78 77l185 185l-185 185l78 76l184 -184z" />
    <glyph glyph-name="Oslash" unicode="&#xd8;" horiz-adv-x="748" 
d="M717 727l53 -53l-74 -74q42 -72 42 -176q0 -77 -25 -153.5t-71.5 -141t-122.5 -105t-169 -40.5q-125 0 -200 69l-67 -68l-53 53l73 73q-42 72 -42 177q0 61 15 122.5t47 119t76.5 101.5t109 70.5t139.5 26.5q124 0 201 -69zM203 289q0 -35 8 -69l340 341q-40 45 -109 45
q-74 0 -131 -52.5t-82.5 -123t-25.5 -141.5zM596 424q0 35 -8 67l-340 -341q41 -44 108 -44q74 0 131 52.5t83 123.5t26 142z" />
    <glyph glyph-name="Ugrave" unicode="&#xd9;" horiz-adv-x="718" 
d="M609 712h147l-120 -482q-30 -119 -111.5 -182.5t-202.5 -63.5q-118 0 -181.5 60t-63.5 172q0 45 13 97l100 399h147l-105 -423q-9 -36 -9 -64q0 -111 111 -111q62 0 104 39t60 112zM514 906l46 -146h-104l-109 146h167z" />
    <glyph glyph-name="Uacute" unicode="&#xda;" horiz-adv-x="718" 
d="M609 712h147l-120 -482q-30 -119 -111.5 -182.5t-202.5 -63.5q-118 0 -181.5 60t-63.5 172q0 45 13 97l100 399h147l-105 -423q-9 -36 -9 -64q0 -111 111 -111q62 0 104 39t60 112zM677 906l-171 -146h-116l108 146h179z" />
    <glyph glyph-name="Ucircumflex" unicode="&#xdb;" horiz-adv-x="718" 
d="M609 712h147l-120 -482q-30 -119 -111.5 -182.5t-202.5 -63.5q-118 0 -181.5 60t-63.5 172q0 45 13 97l100 399h147l-105 -423q-9 -36 -9 -64q0 -111 111 -111q62 0 104 39t60 112zM286 760l151 146h149l77 -146h-114l-42 76l-79 -76h-142z" />
    <glyph glyph-name="Udieresis" unicode="&#xdc;" horiz-adv-x="718" 
d="M609 712h147l-120 -482q-30 -119 -111.5 -182.5t-202.5 -63.5q-118 0 -181.5 60t-63.5 172q0 45 13 97l100 399h147l-105 -423q-9 -36 -9 -64q0 -111 111 -111q62 0 104 39t60 112zM460 889l-30 -120h-123l30 120h123zM677 889l-30 -120h-123l30 120h123z" />
    <glyph glyph-name="Yacute" unicode="&#xdd;" horiz-adv-x="638" 
d="M749 712l-351 -435l-69 -277h-147l69 277l-135 435h149l35 -134q22 -86 39 -181h2q57 90 127 181l101 134h180zM621 906l-171 -146h-116l108 146h179z" />
    <glyph glyph-name="Thorn" unicode="&#xde;" horiz-adv-x="635" 
d="M343 712l-30 -117h82q122 0 183 -52.5t61 -147.5q0 -45 -17 -89t-50 -83.5t-90.5 -63.5t-130.5 -24h-152l-33 -135h-147l177 712h147zM375 473h-92l-54 -216h122q70 0 103 35t33 82q0 99 -112 99z" />
    <glyph glyph-name="germandbls" unicode="&#xdf;" horiz-adv-x="575" 
d="M392 728q90 0 141 -40.5t51 -110.5q0 -61 -40.5 -112.5t-122.5 -71.5v-2q111 -35 111 -152q0 -44 -18 -86.5t-51 -78t-85.5 -57.5t-116.5 -22q-31 0 -57 8l27 110q8 -2 21 -2q70 0 104 41t34 93q0 88 -100 88h-4l28 115q72 0 102 31.5t30 71.5q0 66 -67 66
q-42 0 -68.5 -28t-41.5 -89l-124 -500h-140l129 518q25 100 92.5 155t165.5 55z" />
    <glyph glyph-name="agrave" unicode="&#xe0;" horiz-adv-x="547" 
d="M311 524q195 0 195 -158q0 -31 -9 -67l-40 -160q-22 -90 -21 -139h-122q0 31 8 59h-2q-72 -71 -171 -71q-73 0 -112.5 36.5t-39.5 98.5q0 35 14.5 63.5t35.5 48t55 34t64 23t71 14.5t67.5 8t61.5 4l3 12q5 20 5 33q0 63 -72 63q-37 0 -62 -20.5t-33 -56.5h-136
q17 76 80 125.5t160 49.5zM337 201l8 32q-59 -4 -105 -11q-98 -16 -98 -80q0 -25 16.5 -39.5t47.5 -14.5q103 0 131 113zM200 712h167l47 -146h-104z" />
    <glyph glyph-name="aacute" unicode="&#xe1;" horiz-adv-x="547" 
d="M311 524q195 0 195 -158q0 -31 -9 -67l-40 -160q-22 -90 -21 -139h-122q0 31 8 59h-2q-72 -71 -171 -71q-73 0 -112.5 36.5t-39.5 98.5q0 35 14.5 63.5t35.5 48t55 34t64 23t71 14.5t67.5 8t61.5 4l3 12q5 20 5 33q0 63 -72 63q-37 0 -62 -20.5t-33 -56.5h-136
q17 76 80 125.5t160 49.5zM337 201l8 32q-59 -4 -105 -11q-98 -16 -98 -80q0 -25 16.5 -39.5t47.5 -14.5q103 0 131 113zM530 712l-170 -146h-116l107 146h179z" />
    <glyph glyph-name="acircumflex" unicode="&#xe2;" horiz-adv-x="547" 
d="M311 524q195 0 195 -158q0 -31 -9 -67l-40 -160q-22 -90 -21 -139h-122q0 31 8 59h-2q-72 -71 -171 -71q-73 0 -112.5 36.5t-39.5 98.5q0 35 14.5 63.5t35.5 48t55 34t64 23t71 14.5t67.5 8t61.5 4l3 12q5 20 5 33q0 63 -72 63q-37 0 -62 -20.5t-33 -56.5h-136
q17 76 80 125.5t160 49.5zM337 201l8 32q-59 -4 -105 -11q-98 -16 -98 -80q0 -25 16.5 -39.5t47.5 -14.5q103 0 131 113zM439 712l78 -146h-118l-42 76l-79 -76h-138l150 146h149z" />
    <glyph glyph-name="atilde" unicode="&#xe3;" horiz-adv-x="547" 
d="M311 524q195 0 195 -158q0 -31 -9 -67l-40 -160q-22 -90 -21 -139h-122q0 31 8 59h-2q-72 -71 -171 -71q-73 0 -112.5 36.5t-39.5 98.5q0 35 14.5 63.5t35.5 48t55 34t64 23t71 14.5t67.5 8t61.5 4l3 12q5 20 5 33q0 63 -72 63q-37 0 -62 -20.5t-33 -56.5h-136
q17 76 80 125.5t160 49.5zM337 201l8 32q-59 -4 -105 -11q-98 -16 -98 -80q0 -25 16.5 -39.5t47.5 -14.5q103 0 131 113zM475 712h78q-18 -63 -55.5 -99t-87.5 -36q-37 0 -73.5 23t-55.5 23q-41 0 -57 -46h-80q17 63 55 99t88 36q37 0 74 -23t55 -23q41 0 59 46z" />
    <glyph glyph-name="adieresis" unicode="&#xe4;" horiz-adv-x="547" 
d="M311 524q195 0 195 -158q0 -31 -9 -67l-40 -160q-22 -90 -21 -139h-122q0 31 8 59h-2q-72 -71 -171 -71q-73 0 -112.5 36.5t-39.5 98.5q0 35 14.5 63.5t35.5 48t55 34t64 23t71 14.5t67.5 8t61.5 4l3 12q5 20 5 33q0 63 -72 63q-37 0 -62 -20.5t-33 -56.5h-136
q17 76 80 125.5t160 49.5zM337 201l8 32q-59 -4 -105 -11q-98 -16 -98 -80q0 -25 16.5 -39.5t47.5 -14.5q103 0 131 113zM318 712l-30 -120h-123l30 120h123zM535 712l-30 -120h-123l30 120h123z" />
    <glyph glyph-name="aring" unicode="&#xe5;" horiz-adv-x="547" 
d="M311 524q195 0 195 -158q0 -31 -9 -67l-40 -160q-22 -90 -21 -139h-122q0 31 8 59h-2q-72 -71 -171 -71q-73 0 -112.5 36.5t-39.5 98.5q0 35 14.5 63.5t35.5 48t55 34t64 23t71 14.5t67.5 8t61.5 4l3 12q5 20 5 33q0 63 -72 63q-37 0 -62 -20.5t-33 -56.5h-136
q17 76 80 125.5t160 49.5zM337 201l8 32q-59 -4 -105 -11q-98 -16 -98 -80q0 -25 16.5 -39.5t47.5 -14.5q103 0 131 113zM343 772q45 0 76.5 -31.5t31.5 -76.5t-31.5 -76.5t-76.5 -31.5t-76.5 31.5t-31.5 76.5t31.5 76.5t76.5 31.5zM343 718q-23 0 -38.5 -16t-15.5 -38
t15.5 -38t38.5 -16t38.5 16t15.5 38t-15.5 38t-38.5 16z" />
    <glyph glyph-name="ae" unicode="&#xe6;" horiz-adv-x="879" 
d="M837 225h-354q-4 -21 -4 -43q0 -51 24 -75t63 -24q36 0 64 20t39 51h143q-30 -73 -98.5 -121.5t-155.5 -48.5q-125 0 -174 92q-77 -92 -199 -92q-90 0 -138.5 39t-48.5 104q0 33 14 63t44.5 57.5t89 44t138.5 16.5h88l4 16q5 22 5 34q0 68 -77 68q-39 0 -64.5 -20.5
t-33.5 -56.5h-136q16 76 79.5 125.5t158.5 49.5q119 0 164 -62q72 62 167 62q102 0 156 -55.5t54 -151.5q0 -40 -12 -92zM348 209l4 16h-73q-139 0 -139 -83q0 -58 72 -58q104 0 136 125zM631 425q-41 0 -74 -28t-52 -84h212q2 16 2 22q0 45 -24 67.5t-64 22.5z" />
    <glyph glyph-name="ccedilla" unicode="&#xe7;" horiz-adv-x="562" 
d="M542 309h-146q2 10 2 19q0 41 -20 64.5t-56 23.5q-65 0 -105.5 -70t-40.5 -138q0 -55 21.5 -85.5t62.5 -30.5q37 0 67.5 26t43.5 71h147q-26 -85 -91 -140.5t-149 -63.5l-40 -45q9 3 23 3q31 0 51 -19t20 -51q0 -42 -41 -70.5t-100 -28.5q-60 0 -106 30l25 45
q39 -22 79 -22q26 0 41.5 11t15.5 29q0 33 -38 33q-17 0 -34 -6l-20 18l65 74q-88 9 -137 67t-49 154q0 53 19 107t54 102t94 78t130 30q100 0 157 -51.5t57 -136.5q0 -18 -2 -27z" />
    <glyph glyph-name="egrave" unicode="&#xe8;" horiz-adv-x="573" 
d="M531 225h-364q-4 -21 -4 -43q0 -51 25.5 -75t66.5 -24q38 0 67.5 20t40.5 51h143q-31 -73 -101 -121.5t-158 -48.5q-106 0 -161 57t-55 158q0 74 32 146.5t102 125.5t163 53q105 0 160 -55.5t55 -151.5q0 -40 -12 -92zM320 425q-42 0 -76.5 -28t-54.5 -84h222q2 16 2 22
q0 45 -25.5 67.5t-67.5 22.5zM429 566h-104l-110 146h167z" />
    <glyph glyph-name="eacute" unicode="&#xe9;" horiz-adv-x="573" 
d="M328 524q105 0 160 -55.5t55 -151.5q0 -40 -12 -92h-364q-4 -21 -4 -43q0 -51 25.5 -75t66.5 -24q38 0 67.5 20t40.5 51h143q-31 -73 -101 -121.5t-158 -48.5q-106 0 -161 57t-55 158q0 74 32 146.5t102 125.5t163 53zM320 425q-42 0 -76.5 -28t-54.5 -84h222q2 16 2 22
q0 45 -25.5 67.5t-67.5 22.5zM545 712l-170 -146h-116l107 146h179z" />
    <glyph glyph-name="ecircumflex" unicode="&#xea;" horiz-adv-x="573" 
d="M531 225h-364q-4 -21 -4 -43q0 -51 25.5 -75t66.5 -24q38 0 67.5 20t40.5 51h143q-31 -73 -101 -121.5t-158 -48.5q-106 0 -161 57t-55 158q0 74 32 146.5t102 125.5t163 53q105 0 160 -55.5t55 -151.5q0 -40 -12 -92zM320 425q-42 0 -76.5 -28t-54.5 -84h222q2 16 2 22
q0 45 -25.5 67.5t-67.5 22.5zM372 642l-79 -76h-138l150 146h149l78 -146h-118z" />
    <glyph glyph-name="edieresis" unicode="&#xeb;" horiz-adv-x="573" 
d="M328 524q105 0 160 -55.5t55 -151.5q0 -40 -12 -92h-364q-4 -21 -4 -43q0 -51 25.5 -75t66.5 -24q38 0 67.5 20t40.5 51h143q-31 -73 -101 -121.5t-158 -48.5q-106 0 -161 57t-55 158q0 74 32 146.5t102 125.5t163 53zM320 425q-42 0 -76.5 -28t-54.5 -84h222q2 16 2 22
q0 45 -25.5 67.5t-67.5 22.5zM333 712l-30 -120h-123l30 120h123zM550 712l-30 -120h-123l30 120h123z" />
    <glyph glyph-name="igrave" unicode="&#xec;" horiz-adv-x="276" 
d="M271 508l-126 -508h-140l126 508h140zM87 712h167l47 -146h-104z" />
    <glyph glyph-name="iacute" unicode="&#xed;" horiz-adv-x="276" 
d="M271 508l-126 -508h-140l126 508h140zM417 712l-170 -146h-116l107 146h179z" />
    <glyph glyph-name="icircumflex" unicode="&#xee;" horiz-adv-x="276" 
d="M271 508l-126 -508h-140l126 508h140zM322 712l67 -145h-110l-34 77l-72 -77h-131l139 145h141z" />
    <glyph glyph-name="idieresis" unicode="&#xef;" horiz-adv-x="276" 
d="M271 508l-126 -508h-140l126 508h140zM227 712l-30 -120h-123l30 120h123zM400 712l-30 -120h-123l30 120h123z" />
    <glyph glyph-name="eth" unicode="&#xf0;" horiz-adv-x="590" 
d="M541 724l22 -60l-111 -40q110 -142 110 -298q0 -60 -20 -119t-57 -109.5t-98 -82t-136 -31.5q-103 0 -161 59t-59 163q0 49 19.5 101t53.5 97.5t89.5 74.5t120.5 29q39 0 70 -12l1 2q-25 42 -57 80l-144 -52l-22 60l120 44q-43 40 -44 41l114 57q30 -25 56 -53zM260 92
q48 0 85 37t53.5 83.5t16.5 89.5q0 54 -23 84t-65 30q-46 0 -82 -38.5t-52 -86.5t-17 -93q2 -106 84 -106z" />
    <glyph glyph-name="ntilde" unicode="&#xf1;" 
d="M403 520q74 0 114.5 -38.5t40.5 -111.5q0 -34 -10 -73l-74 -297h-140l73 294q7 28 7 52q0 64 -67 64q-45 0 -81 -35.5t-53 -102.5l-68 -272h-140l127 508h131l-14 -56h2q68 68 152 68zM527 712h78q-18 -63 -55.5 -99t-87.5 -36q-37 0 -73.5 23t-55.5 23q-41 0 -57 -46
h-80q17 63 55 99t88 36q37 0 74 -23t55 -23q41 0 59 46z" />
    <glyph glyph-name="ograve" unicode="&#xf2;" horiz-adv-x="590" 
d="M332 524q109 0 167 -59t58 -165q0 -53 -19.5 -107.5t-55.5 -101.5t-95 -77t-131 -30q-108 0 -165.5 59t-57.5 165q0 53 19.5 107.5t55.5 101.5t94.5 77t129.5 30zM321 416q-47 0 -81.5 -36.5t-48.5 -81.5t-14 -89q0 -56 23 -86.5t68 -30.5q47 0 81.5 36.5t48.5 81.5
t14 89q0 56 -23 86.5t-68 30.5zM224 712h167l47 -146h-104z" />
    <glyph glyph-name="oacute" unicode="&#xf3;" horiz-adv-x="590" 
d="M332 524q109 0 167 -59t58 -165q0 -53 -19.5 -107.5t-55.5 -101.5t-95 -77t-131 -30q-108 0 -165.5 59t-57.5 165q0 53 19.5 107.5t55.5 101.5t94.5 77t129.5 30zM321 416q-47 0 -81.5 -36.5t-48.5 -81.5t-14 -89q0 -56 23 -86.5t68 -30.5q47 0 81.5 36.5t48.5 81.5
t14 89q0 56 -23 86.5t-68 30.5zM554 712l-170 -146h-116l107 146h179z" />
    <glyph glyph-name="ocircumflex" unicode="&#xf4;" horiz-adv-x="590" 
d="M332 524q109 0 167 -59t58 -165q0 -53 -19.5 -107.5t-55.5 -101.5t-95 -77t-131 -30q-108 0 -165.5 59t-57.5 165q0 53 19.5 107.5t55.5 101.5t94.5 77t129.5 30zM321 416q-47 0 -81.5 -36.5t-48.5 -81.5t-14 -89q0 -56 23 -86.5t68 -30.5q47 0 81.5 36.5t48.5 81.5
t14 89q0 56 -23 86.5t-68 30.5zM463 712l78 -146h-118l-42 76l-79 -76h-138l150 146h149z" />
    <glyph glyph-name="otilde" unicode="&#xf5;" horiz-adv-x="590" 
d="M332 524q109 0 167 -59t58 -165q0 -53 -19.5 -107.5t-55.5 -101.5t-95 -77t-131 -30q-108 0 -165.5 59t-57.5 165q0 53 19.5 107.5t55.5 101.5t94.5 77t129.5 30zM321 416q-47 0 -81.5 -36.5t-48.5 -81.5t-14 -89q0 -56 23 -86.5t68 -30.5q47 0 81.5 36.5t48.5 81.5
t14 89q0 56 -23 86.5t-68 30.5zM499 712h78q-18 -63 -55.5 -99t-87.5 -36q-37 0 -73.5 23t-55.5 23q-41 0 -57 -46h-80q17 63 55 99t88 36q37 0 74 -23t55 -23q41 0 59 46z" />
    <glyph glyph-name="odieresis" unicode="&#xf6;" horiz-adv-x="590" 
d="M332 524q109 0 167 -59t58 -165q0 -53 -19.5 -107.5t-55.5 -101.5t-95 -77t-131 -30q-108 0 -165.5 59t-57.5 165q0 53 19.5 107.5t55.5 101.5t94.5 77t129.5 30zM321 416q-47 0 -81.5 -36.5t-48.5 -81.5t-14 -89q0 -56 23 -86.5t68 -30.5q47 0 81.5 36.5t48.5 81.5
t14 89q0 56 -23 86.5t-68 30.5zM342 712l-30 -120h-123l30 120h123zM559 712l-30 -120h-123l30 120h123z" />
    <glyph glyph-name="divide" unicode="&#xf7;" horiz-adv-x="566" 
d="M342 551v-110h-118v110h118zM502 371v-109h-438v109h438zM342 192v-110h-118v110h118z" />
    <glyph glyph-name="oslash" unicode="&#xf8;" horiz-adv-x="590" 
d="M537 544l46 -46l-61 -61q35 -55 35 -137q0 -53 -19.5 -107.5t-55.5 -101.5t-95 -77t-131 -30q-89 0 -145 42l-61 -61l-46 46l63 63q-34 52 -34 134q0 53 19.5 107.5t55.5 101.5t94.5 77t129.5 30q88 0 145 -40zM321 421q-50 0 -86 -37.5t-51 -84t-15 -90.5q0 -11 2 -31
l217 217q-24 26 -67 26zM268 87q50 0 86 37.5t51 84t15 90.5q0 18 -3 33l-218 -218q25 -27 69 -27z" />
    <glyph glyph-name="ugrave" unicode="&#xf9;" 
d="M197 -12q-74 0 -114.5 38.5t-40.5 111.5q0 34 10 73l74 297h140l-73 -294q-7 -28 -7 -52q0 -64 67 -64q45 0 81 35.5t53 102.5l68 272h140l-127 -508h-131l14 56h-2q-68 -68 -152 -68zM239 712h167l47 -146h-104z" />
    <glyph glyph-name="uacute" unicode="&#xfa;" 
d="M197 -12q-74 0 -114.5 38.5t-40.5 111.5q0 34 10 73l74 297h140l-73 -294q-7 -28 -7 -52q0 -64 67 -64q45 0 81 35.5t53 102.5l68 272h140l-127 -508h-131l14 56h-2q-68 -68 -152 -68zM569 712l-170 -146h-116l107 146h179z" />
    <glyph glyph-name="ucircumflex" unicode="&#xfb;" 
d="M197 -12q-74 0 -114.5 38.5t-40.5 111.5q0 34 10 73l74 297h140l-73 -294q-7 -28 -7 -52q0 -64 67 -64q45 0 81 35.5t53 102.5l68 272h140l-127 -508h-131l14 56h-2q-68 -68 -152 -68zM478 712l78 -146h-118l-42 76l-79 -76h-138l150 146h149z" />
    <glyph glyph-name="udieresis" unicode="&#xfc;" 
d="M197 -12q-74 0 -114.5 38.5t-40.5 111.5q0 34 10 73l74 297h140l-73 -294q-7 -28 -7 -52q0 -64 67 -64q45 0 81 35.5t53 102.5l68 272h140l-127 -508h-131l14 56h-2q-68 -68 -152 -68zM357 712l-30 -120h-123l30 120h123zM574 712l-30 -120h-123l30 120h123z" />
    <glyph glyph-name="yacute" unicode="&#xfd;" horiz-adv-x="504" 
d="M418 508h156l-309 -511q-65 -106 -129 -147t-160 -41q-39 0 -71 8l28 112q21 -8 52 -8q53 0 85 31.5t32 78.5q0 17 -5 64l-41 413h138l12 -170q8 -117 7 -213h2q57 122 108 213zM511 712l-170 -146h-116l107 146h179z" />
    <glyph glyph-name="thorn" unicode="&#xfe;" horiz-adv-x="598" 
d="M322 712l-61 -245h2q59 54 130 54q84 0 130 -52.5t46 -145.5q0 -55 -18.5 -113t-51.5 -108t-87 -82.5t-118 -32.5q-46 0 -80.5 20.5t-50.5 57.5h-2l-62 -250h-140l223 897h140zM339 414q-44 0 -77.5 -34.5t-49 -80.5t-15.5 -93q0 -53 21.5 -82.5t60.5 -29.5
q44 0 77.5 34.5t49 80.5t15.5 93q0 53 -21.5 82.5t-60.5 29.5z" />
    <glyph glyph-name="ydieresis" unicode="&#xff;" horiz-adv-x="504" 
d="M418 508h156l-309 -511q-65 -106 -129 -147t-160 -41q-39 0 -71 8l28 112q21 -8 52 -8q53 0 85 31.5t32 78.5q0 17 -5 64l-41 413h138l12 -170q8 -117 7 -213h2q57 122 108 213zM299 712l-30 -120h-123l30 120h123zM516 712l-30 -120h-123l30 120h123z" />
    <glyph glyph-name="Amacron" unicode="&#x100;" horiz-adv-x="698" 
d="M364 712h198l70 -712h-144l-12 174h-273l-99 -174h-164zM274 300h193l-3 47q-10 160 -13 278h-2q-70 -140 -148 -278zM339 869h326l-22 -91h-326z" />
    <glyph glyph-name="amacron" unicode="&#x101;" horiz-adv-x="547" 
d="M311 524q195 0 195 -158q0 -31 -9 -67l-40 -160q-22 -90 -21 -139h-122q0 31 8 59h-2q-72 -71 -171 -71q-73 0 -112.5 36.5t-39.5 98.5q0 35 14.5 63.5t35.5 48t55 34t64 23t71 14.5t67.5 8t61.5 4l3 12q5 20 5 33q0 63 -72 63q-37 0 -62 -20.5t-33 -56.5h-136
q17 76 80 125.5t160 49.5zM337 201l8 32q-59 -4 -105 -11q-98 -16 -98 -80q0 -25 16.5 -39.5t47.5 -14.5q103 0 131 113zM522 689l-22 -91h-326l22 91h326z" />
    <glyph glyph-name="Abreve" unicode="&#x102;" horiz-adv-x="698" 
d="M364 712h198l70 -712h-144l-12 174h-273l-99 -174h-164zM274 300h193l-3 47q-10 160 -13 278h-2q-70 -140 -148 -278zM580 906h107q-20 -72 -75 -111.5t-133 -39.5q-68 0 -106 32.5t-38 90.5q0 8 2 28h83q-1 -5 -1 -13q0 -51 67 -51q76 0 94 64z" />
    <glyph glyph-name="abreve" unicode="&#x103;" horiz-adv-x="547" 
d="M311 524q195 0 195 -158q0 -31 -9 -67l-40 -160q-22 -90 -21 -139h-122q0 31 8 59h-2q-72 -71 -171 -71q-73 0 -112.5 36.5t-39.5 98.5q0 35 14.5 63.5t35.5 48t55 34t64 23t71 14.5t67.5 8t61.5 4l3 12q5 20 5 33q0 63 -72 63q-37 0 -62 -20.5t-33 -56.5h-136
q17 76 80 125.5t160 49.5zM337 201l8 32q-59 -4 -105 -11q-98 -16 -98 -80q0 -25 16.5 -39.5t47.5 -14.5q103 0 131 113zM433 712h107q-20 -72 -75 -111.5t-133 -39.5q-68 0 -106 32.5t-38 90.5q0 8 2 28h83q-1 -5 -1 -13q0 -51 67 -51q76 0 94 64z" />
    <glyph glyph-name="Aogonek" unicode="&#x104;" horiz-adv-x="698" 
d="M541 -98q0 -21 28 -21q21 0 37 6l-19 -75q-32 -9 -69 -9q-103 0 -103 75q0 65 107 122h-34l-12 174h-273l-99 -174h-164l424 712h198l70 -712q-91 -53 -91 -98zM274 300h193l-3 47q-10 160 -13 278h-2q-70 -140 -148 -278z" />
    <glyph glyph-name="aogonek" unicode="&#x105;" horiz-adv-x="547" 
d="M311 524q195 0 195 -158q0 -31 -9 -67l-40 -160q-22 -90 -21 -139q-91 -53 -91 -98q0 -21 28 -21q21 0 37 6l-19 -75q-32 -9 -69 -9q-103 0 -103 75q0 65 107 122h-12q0 31 8 59h-2q-72 -71 -171 -71q-73 0 -112.5 36.5t-39.5 98.5q0 35 14.5 63.5t35.5 48t55 34t64 23
t71 14.5t67.5 8t61.5 4l3 12q5 20 5 33q0 63 -72 63q-37 0 -62 -20.5t-33 -56.5h-136q17 76 80 125.5t160 49.5zM206 88q103 0 131 113l8 32q-59 -4 -105 -11q-98 -16 -98 -80q0 -25 16.5 -39.5t47.5 -14.5z" />
    <glyph glyph-name="Cacute" unicode="&#x106;" horiz-adv-x="702" 
d="M453 728q118 0 187 -63.5t69 -169.5q0 -24 -4 -44h-148q2 18 2 28q0 56 -31.5 87.5t-87.5 31.5q-72 0 -126.5 -52t-79 -122.5t-24.5 -141.5q0 -77 33 -122.5t97 -45.5q55 0 101 32.5t68 89.5h151q-37 -119 -125.5 -185.5t-207.5 -66.5q-128 0 -198.5 77.5t-70.5 210.5
q0 62 15 125t47.5 122.5t78 106t111.5 74.5t143 28zM672 906l-171 -146h-116l108 146h179z" />
    <glyph glyph-name="cacute" unicode="&#x107;" horiz-adv-x="562" 
d="M330 524q100 0 157 -51.5t57 -136.5q0 -18 -2 -27h-146q2 10 2 19q0 41 -20 64.5t-56 23.5q-65 0 -105.5 -70t-40.5 -138q0 -55 21.5 -85.5t62.5 -30.5q37 0 67.5 26t43.5 71h147q-29 -93 -101.5 -149t-164.5 -56q-103 0 -161 59t-58 164q0 53 19 107t54 102t94 78
t130 30zM550 712l-170 -146h-116l107 146h179z" />
    <glyph glyph-name="Ccircumflex" unicode="&#x108;" horiz-adv-x="702" 
d="M453 728q118 0 187 -63.5t69 -169.5q0 -24 -4 -44h-148q2 18 2 28q0 56 -31.5 87.5t-87.5 31.5q-72 0 -126.5 -52t-79 -122.5t-24.5 -141.5q0 -77 33 -122.5t97 -45.5q55 0 101 32.5t68 89.5h151q-37 -119 -125.5 -185.5t-207.5 -66.5q-128 0 -198.5 77.5t-70.5 210.5
q0 62 15 125t47.5 122.5t78 106t111.5 74.5t143 28zM281 760l151 146h149l77 -146h-114l-42 76l-79 -76h-142z" />
    <glyph glyph-name="ccircumflex" unicode="&#x109;" horiz-adv-x="562" 
d="M330 524q100 0 157 -51.5t57 -136.5q0 -18 -2 -27h-146q2 10 2 19q0 41 -20 64.5t-56 23.5q-65 0 -105.5 -70t-40.5 -138q0 -55 21.5 -85.5t62.5 -30.5q37 0 67.5 26t43.5 71h147q-29 -93 -101.5 -149t-164.5 -56q-103 0 -161 59t-58 164q0 53 19 107t54 102t94 78
t130 30zM459 712l78 -146h-118l-42 76l-79 -76h-138l150 146h149z" />
    <glyph glyph-name="Cdotaccent" unicode="&#x10a;" horiz-adv-x="702" 
d="M453 728q118 0 187 -63.5t69 -169.5q0 -24 -4 -44h-148q2 18 2 28q0 56 -31.5 87.5t-87.5 31.5q-72 0 -126.5 -52t-79 -122.5t-24.5 -141.5q0 -77 33 -122.5t97 -45.5q55 0 101 32.5t68 89.5h151q-37 -119 -125.5 -185.5t-207.5 -66.5q-128 0 -198.5 77.5t-70.5 210.5
q0 62 15 125t47.5 122.5t78 106t111.5 74.5t143 28zM572 889l-30 -120h-140l30 120h140z" />
    <glyph glyph-name="cdotaccent" unicode="&#x10b;" horiz-adv-x="562" 
d="M330 524q100 0 157 -51.5t57 -136.5q0 -18 -2 -27h-146q2 10 2 19q0 41 -20 64.5t-56 23.5q-65 0 -105.5 -70t-40.5 -138q0 -55 21.5 -85.5t62.5 -30.5q37 0 67.5 26t43.5 71h147q-29 -93 -101.5 -149t-164.5 -56q-103 0 -161 59t-58 164q0 53 19 107t54 102t94 78
t130 30zM455 712l-30 -120h-140l30 120h140z" />
    <glyph glyph-name="Ccaron" unicode="&#x10c;" horiz-adv-x="702" 
d="M453 728q118 0 187 -63.5t69 -169.5q0 -24 -4 -44h-148q2 18 2 28q0 56 -31.5 87.5t-87.5 31.5q-72 0 -126.5 -52t-79 -122.5t-24.5 -141.5q0 -77 33 -122.5t97 -45.5q55 0 101 32.5t68 89.5h151q-37 -119 -125.5 -185.5t-207.5 -66.5q-128 0 -198.5 77.5t-70.5 210.5
q0 62 15 125t47.5 122.5t78 106t111.5 74.5t143 28zM695 906l-151 -146h-149l-77 146h114l42 -76l79 76h142z" />
    <glyph glyph-name="ccaron" unicode="&#x10d;" horiz-adv-x="562" 
d="M330 524q100 0 157 -51.5t57 -136.5q0 -18 -2 -27h-146q2 10 2 19q0 41 -20 64.5t-56 23.5q-65 0 -105.5 -70t-40.5 -138q0 -55 21.5 -85.5t62.5 -30.5q37 0 67.5 26t43.5 71h147q-29 -93 -101.5 -149t-164.5 -56q-103 0 -161 59t-58 164q0 53 19 107t54 102t94 78
t130 30zM573 712l-150 -146h-149l-78 146h118l42 -76l79 76h138z" />
    <glyph glyph-name="Dcaron" unicode="&#x10e;" horiz-adv-x="734" 
d="M19 0l177 712h187q168 0 254 -78.5t86 -227.5q0 -73 -26 -142.5t-77 -129.5t-137.5 -97t-196.5 -37h-267zM376 586h-65l-115 -460h99q73 0 129 25t86.5 66.5t45.5 86.5t15 93q0 189 -195 189zM685 906l-151 -146h-149l-77 146h114l42 -76l79 76h142z" />
    <glyph glyph-name="dcaron" unicode="&#x10f;" horiz-adv-x="596" 
d="M642 712l-177 -712h-136l12 46h-2q-61 -59 -135 -59q-84 0 -130 52.5t-46 145.5q0 55 18.5 113t51.5 108t87 82.5t118 32.5q46 0 80.5 -20.5t50.5 -57.5h2l66 269h140zM318 414q-44 0 -77.5 -34.5t-49 -80.5t-15.5 -93q0 -53 21.5 -82.5t60.5 -29.5q44 0 77.5 34.5
t49 80.5t15.5 93q0 53 -21.5 82.5t-60.5 29.5zM808 712l-102 -177h-79l70 177h111z" />
    <glyph glyph-name="Dcroat" unicode="&#x110;" horiz-adv-x="735" 
d="M122 413l74 299h187q168 0 254 -78.5t86 -227.5q0 -73 -26 -142.5t-77 -129.5t-137.5 -97t-196.5 -37h-267l76 307h-64l27 106h64zM241 307l-45 -181h99q73 0 129 25t86.5 66.5t45.5 86.5t15 93q0 189 -195 189h-65l-43 -173h166l-27 -106h-166z" />
    <glyph glyph-name="dcroat" unicode="&#x111;" horiz-adv-x="590" 
d="M694 648l-18 -72h-68l-143 -576h-136l12 46h-2q-61 -59 -135 -59q-84 0 -130 52.5t-46 145.5q0 55 18.5 113t51.5 108t87 82.5t118 32.5q46 0 80.5 -20.5t50.5 -57.5h2l33 133h-119l18 72h118l16 64h140l-16 -64h68zM258 94q44 0 77.5 34.5t49 80.5t15.5 93
q0 53 -21.5 82.5t-60.5 29.5q-44 0 -77.5 -34.5t-49 -80.5t-15.5 -93q0 -53 21.5 -82.5t60.5 -29.5z" />
    <glyph glyph-name="Emacron" unicode="&#x112;" horiz-adv-x="633" 
d="M688 712l-31 -126h-345l-40 -161h322l-32 -125h-322l-43 -174h354l-31 -126h-501l177 712h492zM634 869l-22 -91h-326l22 91h326z" />
    <glyph glyph-name="emacron" unicode="&#x113;" horiz-adv-x="573" 
d="M531 225h-364q-4 -21 -4 -43q0 -51 25.5 -75t66.5 -24q38 0 67.5 20t40.5 51h143q-31 -73 -101 -121.5t-158 -48.5q-106 0 -161 57t-55 158q0 74 32 146.5t102 125.5t163 53q105 0 160 -55.5t55 -151.5q0 -40 -12 -92zM320 425q-42 0 -76.5 -28t-54.5 -84h222q2 16 2 22
q0 45 -25.5 67.5t-67.5 22.5zM537 689l-22 -91h-326l22 91h326z" />
    <glyph glyph-name="Ebreve" unicode="&#x114;" horiz-adv-x="633" 
d="M688 712l-31 -126h-345l-40 -161h322l-32 -125h-322l-43 -174h354l-31 -126h-501l177 712h492zM549 906h107q-20 -72 -75 -111.5t-133 -39.5q-68 0 -106 32.5t-38 90.5q0 8 2 28h83q-1 -5 -1 -13q0 -51 67 -51q76 0 94 64z" />
    <glyph glyph-name="ebreve" unicode="&#x115;" horiz-adv-x="573" 
d="M328 524q105 0 160 -55.5t55 -151.5q0 -40 -12 -92h-364q-4 -21 -4 -43q0 -51 25.5 -75t66.5 -24q38 0 67.5 20t40.5 51h143q-31 -73 -101 -121.5t-158 -48.5q-106 0 -161 57t-55 158q0 74 32 146.5t102 125.5t163 53zM320 425q-42 0 -76.5 -28t-54.5 -84h222q2 16 2 22
q0 45 -25.5 67.5t-67.5 22.5zM347 561q-68 0 -106 32.5t-38 90.5q0 8 2 28h83q-1 -5 -1 -13q0 -51 67 -51q76 0 94 64h107q-20 -72 -75 -111.5t-133 -39.5z" />
    <glyph glyph-name="Edotaccent" unicode="&#x116;" horiz-adv-x="633" 
d="M688 712l-31 -126h-345l-40 -161h322l-32 -125h-322l-43 -174h354l-31 -126h-501l177 712h492zM546 889l-30 -120h-140l30 120h140z" />
    <glyph glyph-name="edotaccent" unicode="&#x117;" horiz-adv-x="573" 
d="M531 225h-364q-4 -21 -4 -43q0 -51 25.5 -75t66.5 -24q38 0 67.5 20t40.5 51h143q-31 -73 -101 -121.5t-158 -48.5q-106 0 -161 57t-55 158q0 74 32 146.5t102 125.5t163 53q105 0 160 -55.5t55 -151.5q0 -40 -12 -92zM320 425q-42 0 -76.5 -28t-54.5 -84h222q2 16 2 22
q0 45 -25.5 67.5t-67.5 22.5zM450 712l-30 -120h-140l30 120h140z" />
    <glyph glyph-name="Eogonek" unicode="&#x118;" horiz-adv-x="633" 
d="M657 586h-345l-40 -161h322l-32 -125h-322l-43 -174h354l-31 -126q-91 -53 -91 -98q0 -21 28 -21q21 0 37 6l-19 -75q-32 -9 -69 -9q-103 0 -103 75q0 65 107 122h-391l177 712h492z" />
    <glyph glyph-name="eogonek" unicode="&#x119;" horiz-adv-x="573" 
d="M531 225h-364q-4 -21 -4 -43q0 -51 25.5 -75t66.5 -24q38 0 67.5 20t40.5 51h143q-30 -70 -115 -135q-53 -40 -72 -66t-19 -51q0 -21 28 -21q20 0 37 6l-19 -75q-32 -9 -69 -9q-103 0 -103 75q0 56 76 104v2h-3q-106 0 -161 57t-55 158q0 74 32 146.5t102 125.5t163 53
q105 0 160 -55.5t55 -151.5q0 -40 -12 -92zM320 425q-42 0 -76.5 -28t-54.5 -84h222q2 16 2 22q0 45 -25.5 67.5t-67.5 22.5z" />
    <glyph glyph-name="Ecaron" unicode="&#x11a;" horiz-adv-x="633" 
d="M688 712l-31 -126h-345l-40 -161h322l-32 -125h-322l-43 -174h354l-31 -126h-501l177 712h492zM669 906l-151 -146h-149l-77 146h114l42 -76l79 76h142z" />
    <glyph glyph-name="ecaron" unicode="&#x11b;" horiz-adv-x="573" 
d="M328 524q105 0 160 -55.5t55 -151.5q0 -40 -12 -92h-364q-4 -21 -4 -43q0 -51 25.5 -75t66.5 -24q38 0 67.5 20t40.5 51h143q-31 -73 -101 -121.5t-158 -48.5q-106 0 -161 57t-55 158q0 74 32 146.5t102 125.5t163 53zM320 425q-42 0 -76.5 -28t-54.5 -84h222q2 16 2 22
q0 45 -25.5 67.5t-67.5 22.5zM418 566h-149l-78 146h118l42 -76l79 76h138z" />
    <glyph glyph-name="Gcircumflex" unicode="&#x11c;" horiz-adv-x="744" 
d="M474 728q122 0 189 -58.5t67 -161.5q0 -16 -3 -34h-158q1 5 1 14q0 53 -30.5 81.5t-86.5 28.5q-58 0 -106.5 -30.5t-77.5 -78.5t-45 -104t-16 -112q0 -80 34 -125.5t102 -45.5q66 0 117.5 41t70.5 112h-169l30 120h306l-93 -375h-124l15 61h-2q-77 -75 -195 -75
q-114 0 -178 76t-64 205q0 82 26.5 162t76.5 147.5t131.5 109.5t181.5 42zM284 760l151 146h149l77 -146h-114l-42 76l-79 -76h-142z" />
    <glyph glyph-name="gcircumflex" unicode="&#x11d;" horiz-adv-x="591" 
d="M292 522q54 0 89.5 -24.5t51.5 -65.5h2l19 76h132l-126 -508q-24 -96 -95.5 -145t-174.5 -49t-155 35t-52 100q0 12 3 27h136q-1 -4 -1 -12q0 -50 77 -50q101 0 131 115l9 37h-2q-61 -52 -135 -52q-80 0 -124 53.5t-44 148.5q0 41 10.5 84t32.5 84t52 73.5t73 52.5t91 20
zM309 407q-39 0 -69.5 -31t-44.5 -70.5t-14 -76.5q0 -50 21.5 -79t59.5 -29q61 0 97 57t36 120q0 51 -23 80t-63 29zM465 712l78 -146h-118l-42 76l-79 -76h-138l150 146h149z" />
    <glyph glyph-name="Gbreve" unicode="&#x11e;" horiz-adv-x="744" 
d="M474 728q122 0 189 -58.5t67 -161.5q0 -16 -3 -34h-158q1 5 1 14q0 53 -30.5 81.5t-86.5 28.5q-58 0 -106.5 -30.5t-77.5 -78.5t-45 -104t-16 -112q0 -80 34 -125.5t102 -45.5q66 0 117.5 41t70.5 112h-169l30 120h306l-93 -375h-124l15 61h-2q-77 -75 -195 -75
q-114 0 -178 76t-64 205q0 82 26.5 162t76.5 147.5t131.5 109.5t181.5 42zM578 906h107q-20 -72 -75 -111.5t-133 -39.5q-68 0 -106 32.5t-38 90.5q0 8 2 28h83q-1 -5 -1 -13q0 -51 67 -51q76 0 94 64z" />
    <glyph glyph-name="gbreve" unicode="&#x11f;" horiz-adv-x="591" 
d="M292 522q54 0 89.5 -24.5t51.5 -65.5h2l19 76h132l-126 -508q-24 -96 -95.5 -145t-174.5 -49t-155 35t-52 100q0 12 3 27h136q-1 -4 -1 -12q0 -50 77 -50q101 0 131 115l9 37h-2q-61 -52 -135 -52q-80 0 -124 53.5t-44 148.5q0 41 10.5 84t32.5 84t52 73.5t73 52.5t91 20
zM309 407q-39 0 -69.5 -31t-44.5 -70.5t-14 -76.5q0 -50 21.5 -79t59.5 -29q61 0 97 57t36 120q0 51 -23 80t-63 29zM459 712h107q-20 -72 -75 -111.5t-133 -39.5q-68 0 -106 32.5t-38 90.5q0 8 2 28h83q-1 -5 -1 -13q0 -51 67 -51q76 0 94 64z" />
    <glyph glyph-name="Gdotaccent" unicode="&#x120;" horiz-adv-x="744" 
d="M474 728q122 0 189 -58.5t67 -161.5q0 -16 -3 -34h-158q1 5 1 14q0 53 -30.5 81.5t-86.5 28.5q-58 0 -106.5 -30.5t-77.5 -78.5t-45 -104t-16 -112q0 -80 34 -125.5t102 -45.5q66 0 117.5 41t70.5 112h-169l30 120h306l-93 -375h-124l15 61h-2q-77 -75 -195 -75
q-114 0 -178 76t-64 205q0 82 26.5 162t76.5 147.5t131.5 109.5t181.5 42zM575 889l-30 -120h-140l30 120h140z" />
    <glyph glyph-name="gdotaccent" unicode="&#x121;" horiz-adv-x="591" 
d="M292 522q54 0 89.5 -24.5t51.5 -65.5h2l19 76h132l-126 -508q-24 -96 -95.5 -145t-174.5 -49t-155 35t-52 100q0 12 3 27h136q-1 -4 -1 -12q0 -50 77 -50q101 0 131 115l9 37h-2q-61 -52 -135 -52q-80 0 -124 53.5t-44 148.5q0 41 10.5 84t32.5 84t52 73.5t73 52.5t91 20
zM309 407q-39 0 -69.5 -31t-44.5 -70.5t-14 -76.5q0 -50 21.5 -79t59.5 -29q61 0 97 57t36 120q0 51 -23 80t-63 29zM461 712l-30 -120h-140l30 120h140z" />
    <glyph glyph-name="Gcommaaccent" unicode="&#x122;" horiz-adv-x="744" 
d="M474 728q122 0 189 -58.5t67 -161.5q0 -16 -3 -34h-158q1 5 1 14q0 53 -30.5 81.5t-86.5 28.5q-58 0 -106.5 -30.5t-77.5 -78.5t-45 -104t-16 -112q0 -80 34 -125.5t102 -45.5q66 0 117.5 41t70.5 112h-169l30 120h306l-93 -375h-124l15 61h-2q-77 -75 -195 -75
q-114 0 -178 76t-64 205q0 82 26.5 162t76.5 147.5t131.5 109.5t181.5 42zM350 -59l-26 -104l-95 -107h-56l72 107h-45l26 104h124z" />
    <glyph glyph-name="gcommaaccent" unicode="&#x123;" horiz-adv-x="591" 
d="M292 522q54 0 89.5 -24.5t51.5 -65.5h2l19 76h132l-126 -508q-24 -96 -95.5 -145t-174.5 -49t-155 35t-52 100q0 12 3 27h136q-1 -4 -1 -12q0 -50 77 -50q101 0 131 115l9 37h-2q-61 -52 -135 -52q-80 0 -124 53.5t-44 148.5q0 41 10.5 84t32.5 84t52 73.5t73 52.5t91 20
zM309 407q-39 0 -69.5 -31t-44.5 -70.5t-14 -76.5q0 -50 21.5 -79t59.5 -29q61 0 97 57t36 120q0 51 -23 80t-63 29zM472 788l-72 -107h45l-25 -104h-124l25 104l95 107h56z" />
    <glyph glyph-name="Hcircumflex" unicode="&#x124;" horiz-adv-x="750" 
d="M782 712l-177 -712h-147l76 307h-292l-76 -307h-147l177 712h147l-69 -279h292l69 279h147zM312 760l151 146h149l77 -146h-114l-42 76l-79 -76h-142z" />
    <glyph glyph-name="hcircumflex" unicode="&#x125;" 
d="M322 712l-63 -251h2q64 59 142 59q73 0 114 -38.5t41 -111.5q0 -34 -10 -73l-74 -297h-140l73 294q7 28 7 52q0 64 -67 64q-45 0 -81 -35.5t-53 -102.5l-68 -272h-140l177 712h140zM236 760l151 146h149l77 -146h-114l-42 76l-79 -76h-142z" />
    <glyph glyph-name="Hbar" unicode="&#x126;" horiz-adv-x="750" 
d="M819 640l-18 -72h-55l-141 -568h-147l76 307h-292l-76 -307h-147l141 568h-55l18 72h55l18 72h147l-18 -72h292l18 72h147l-18 -72h55zM566 433l33 135h-292l-33 -135h292z" />
    <glyph glyph-name="hbar" unicode="&#x127;" 
d="M403 520q73 0 114 -38.5t41 -111.5q0 -34 -10 -73l-74 -297h-140l73 294q7 28 7 52q0 64 -67 64q-45 0 -81 -35.5t-53 -102.5l-68 -272h-140l143 576h-74l16 64h74l18 72h140l-18 -72h112l-16 -64h-112l-29 -115h2q64 59 142 59z" />
    <glyph glyph-name="Itilde" unicode="&#x128;" horiz-adv-x="311" 
d="M343 712l-177 -712h-147l177 712h147zM429 906h78q-18 -63 -55.5 -99t-87.5 -36q-37 0 -74 23t-56 23q-41 0 -57 -46h-80q17 63 55 99t88 36q37 0 74.5 -23t55.5 -23q41 0 59 46z" />
    <glyph glyph-name="itilde" unicode="&#x129;" horiz-adv-x="276" 
d="M271 508l-126 -508h-140l126 508h140zM346 712h76q-19 -64 -54 -99.5t-81 -35.5q-32 0 -64.5 23t-48.5 23q-34 0 -49 -46h-77q18 63 53 99t82 36q32 0 64.5 -23t48.5 -23q34 0 50 46z" />
    <glyph glyph-name="Imacron" unicode="&#x12a;" horiz-adv-x="311" 
d="M343 712l-177 -712h-147l177 712h147zM472 869l-22 -91h-326l22 91h326z" />
    <glyph glyph-name="imacron" unicode="&#x12b;" horiz-adv-x="276" 
d="M271 508l-126 -508h-140l126 508h140zM389 689l-23 -91h-286l23 91h286z" />
    <glyph glyph-name="Ibreve" unicode="&#x12c;" horiz-adv-x="311" 
d="M343 712l-177 -712h-147l177 712h147zM387 906h107q-20 -72 -75 -111.5t-133 -39.5q-68 0 -106 32.5t-38 90.5q0 8 2 28h83q-1 -5 -1 -13q0 -51 67 -51q76 0 94 64z" />
    <glyph glyph-name="ibreve" unicode="&#x12d;" horiz-adv-x="276" 
d="M271 508l-126 -508h-140l126 508h140zM310 712h101q-19 -72 -70 -111.5t-122 -39.5q-61 0 -95 31.5t-34 87.5q0 17 3 32h81q-1 -5 -1 -15q0 -49 55 -49q64 0 82 64z" />
    <glyph glyph-name="Iogonek" unicode="&#x12e;" horiz-adv-x="311" 
d="M196 712h147l-177 -712q-91 -53 -91 -98q0 -21 28 -21q21 0 37 6l-19 -75q-32 -9 -69 -9q-103 0 -103 75q0 65 107 122h-37z" />
    <glyph glyph-name="iogonek" unicode="&#x12f;" horiz-adv-x="276" 
d="M5 0l126 508h140l-126 -508q-91 -53 -91 -98q0 -21 28 -21q20 0 37 6l-19 -75q-32 -9 -69 -9q-103 0 -103 75q0 65 107 122h-30zM182 712h140l-30 -120h-140z" />
    <glyph glyph-name="Idotaccent" unicode="&#x130;" horiz-adv-x="311" 
d="M343 712l-177 -712h-147l177 712h147zM384 889l-30 -120h-140l30 120h140z" />
    <glyph glyph-name="dotlessi" unicode="&#x131;" horiz-adv-x="276" 
d="M271 508l-126 -508h-140l126 508h140z" />
    <glyph glyph-name="IJ" unicode="&#x132;" horiz-adv-x="703" 
d="M343 712l-177 -712h-147l177 712h147zM593 712h147l-125 -501q-28 -112 -95 -165t-184 -53q-41 0 -73 10l31 123q22 -5 40 -5q60 0 93.5 30t54.5 115z" />
    <glyph glyph-name="ij" unicode="&#x133;" horiz-adv-x="554" 
d="M271 508l-126 -508h-140l126 508h140zM409 508h140l-133 -535q-21 -84 -75.5 -123.5t-130.5 -39.5q-44 0 -75 9l25 100q10 -3 23 -3q41 0 65.5 22.5t38.5 79.5zM322 712l-30 -120h-140l30 120h140zM600 712l-30 -120h-140l30 120h140z" />
    <glyph glyph-name="Jcircumflex" unicode="&#x134;" horiz-adv-x="392" 
d="M282 712h147l-125 -501q-28 -112 -95 -165t-184 -53q-41 0 -73 10l31 123q22 -5 40 -5q60 0 93.5 30t54.5 115zM179 760l151 146h149l77 -146h-114l-42 76l-79 -76h-142z" />
    <glyph glyph-name="jcircumflex" unicode="&#x135;" horiz-adv-x="278" 
d="M133 508h140l-133 -535q-21 -84 -75.5 -123.5t-130.5 -39.5q-44 0 -75 9l25 100q11 -3 23 -3q41 0 65.5 22.5t38.5 79.5zM324 712l67 -145h-110l-34 77l-72 -77h-131l139 145h141z" />
    <glyph glyph-name="Kcommaaccent" unicode="&#x136;" horiz-adv-x="663" 
d="M750 712l-357 -345l203 -367h-171l-171 348h-2l-86 -348h-147l177 712h147l-75 -301h2l292 301h188zM166 -163l26 104h124l-26 -104l-95 -107h-56l72 107h-45z" />
    <glyph glyph-name="kcommaaccent" unicode="&#x137;" horiz-adv-x="543" 
d="M595 508l-253 -245l148 -263h-153l-129 244h-2l-61 -244h-140l177 712h140l-100 -403h2l193 199h178zM135 -163l26 104h124l-26 -104l-95 -107h-56l72 107h-45z" />
    <glyph glyph-name="kgreenlandic" unicode="&#x138;" horiz-adv-x="560" 
d="M595 508l-253 -245l148 -263h-153l-129 244h-2l-61 -244h-140l126 508h140l-49 -199h2l193 199h178z" />
    <glyph glyph-name="Lacute" unicode="&#x139;" horiz-adv-x="575" 
d="M343 712l-146 -586h336l-31 -126h-483l177 712h147zM513 906l-171 -146h-116l108 146h179z" />
    <glyph glyph-name="lacute" unicode="&#x13a;" horiz-adv-x="276" 
d="M322 712l-177 -712h-140l177 712h140zM483 916l-170 -146h-116l107 146h179z" />
    <glyph glyph-name="Lcommaaccent" unicode="&#x13b;" horiz-adv-x="575" 
d="M343 712l-146 -586h336l-31 -126h-483l177 712h147zM308 -59l-26 -104l-95 -107h-56l72 107h-45l26 104h124z" />
    <glyph glyph-name="lcommaaccent" unicode="&#x13c;" horiz-adv-x="276" 
d="M322 712l-177 -712h-140l177 712h140zM127 -59l-26 -104l-95 -107h-56l72 107h-45l26 104h124z" />
    <glyph glyph-name="Lcaron" unicode="&#x13d;" horiz-adv-x="575" 
d="M343 712l-146 -586h336l-31 -126h-483l177 712h147zM520 712l-114 -224h-79l82 224h111z" />
    <glyph glyph-name="lcaron" unicode="&#x13e;" horiz-adv-x="276" 
d="M322 712l-177 -712h-140l177 712h140zM487 712l-102 -177h-79l70 177h111z" />
    <glyph glyph-name="Ldot" unicode="&#x13f;" horiz-adv-x="655" 
d="M343 712l-146 -586h336l-31 -126h-483l177 712h147zM617 515l-41 -167h-154l41 167h154z" />
    <glyph glyph-name="ldot" unicode="&#x140;" horiz-adv-x="504" 
d="M322 712l-177 -712h-140l177 712h140zM512 439l-41 -167h-154l41 167h154z" />
    <glyph glyph-name="Lslash" unicode="&#x141;" horiz-adv-x="575" 
d="M197 126h336l-31 -126h-483l68 273l-80 -41l34 135l80 41l75 304h147l-56 -226l159 83l-33 -135l-160 -83z" />
    <glyph glyph-name="lslash" unicode="&#x142;" horiz-adv-x="332" 
d="M388 518l-32 -128l-99 -51l-84 -339h-140l68 273l-99 -51l32 128l99 51l77 311h140l-61 -246z" />
    <glyph glyph-name="Nacute" unicode="&#x143;" horiz-adv-x="776" 
d="M808 712l-177 -712h-197l-72 289q-38 155 -66 294h-2q-33 -177 -66 -309l-68 -274h-141l177 712h197l72 -289q27 -112 66 -294h2q27 155 66 309l68 274h141zM716 906l-171 -146h-116l108 146h179z" />
    <glyph glyph-name="nacute" unicode="&#x144;" 
d="M403 520q74 0 114.5 -38.5t40.5 -111.5q0 -34 -10 -73l-74 -297h-140l73 294q7 28 7 52q0 64 -67 64q-45 0 -81 -35.5t-53 -102.5l-68 -272h-140l127 508h131l-14 -56h2q68 68 152 68zM582 712l-170 -146h-116l107 146h179z" />
    <glyph glyph-name="Ncommaaccent" unicode="&#x145;" horiz-adv-x="776" 
d="M808 712l-177 -712h-197l-72 289q-38 155 -66 294h-2q-33 -177 -66 -309l-68 -274h-141l177 712h197l72 -289q27 -112 66 -294h2q27 155 66 309l68 274h141zM372 -59l-26 -104l-95 -107h-56l72 107h-45l26 104h124z" />
    <glyph glyph-name="ncommaaccent" unicode="&#x146;" 
d="M403 520q74 0 114.5 -38.5t40.5 -111.5q0 -34 -10 -73l-74 -297h-140l73 294q7 28 7 52q0 64 -67 64q-45 0 -81 -35.5t-53 -102.5l-68 -272h-140l127 508h131l-14 -56h2q68 68 152 68zM287 -59l-26 -104l-95 -107h-56l72 107h-45l26 104h124z" />
    <glyph glyph-name="Ncaron" unicode="&#x147;" horiz-adv-x="776" 
d="M808 712l-177 -712h-197l-72 289q-38 155 -66 294h-2q-33 -177 -66 -309l-68 -274h-141l177 712h197l72 -289q27 -112 66 -294h2q27 155 66 309l68 274h141zM739 906l-151 -146h-149l-77 146h114l42 -76l79 76h142z" />
    <glyph glyph-name="ncaron" unicode="&#x148;" 
d="M403 520q74 0 114.5 -38.5t40.5 -111.5q0 -34 -10 -73l-74 -297h-140l73 294q7 28 7 52q0 64 -67 64q-45 0 -81 -35.5t-53 -102.5l-68 -272h-140l127 508h131l-14 -56h2q68 68 152 68zM605 712l-150 -146h-149l-78 146h118l42 -76l79 76h138z" />
    <glyph glyph-name="napostrophe" unicode="&#x149;" horiz-adv-x="750" 
d="M553 520q74 0 114.5 -38.5t40.5 -111.5q0 -34 -10 -73l-74 -297h-140l73 294q7 28 7 52q0 64 -67 64q-45 0 -81 -35.5t-53 -102.5l-68 -272h-140l127 508h131l-14 -56h2q68 68 152 68zM307 712l-35 -142l-100 -146h-71l84 146h-44l35 142h131z" />
    <glyph glyph-name="Eng" unicode="&#x14a;" horiz-adv-x="746" 
d="M637 712h141l-181 -726q-45 -179 -217 -179q-38 0 -67 8l25 101q12 -3 29 -3q40 0 63 22.5t23 66.5q0 22 -26 101l-71 216q-38 111 -66 236h-2q-20 -118 -53 -254l-75 -301h-141l177 712h171l87 -266q40 -124 66 -237h2q20 118 53 254z" />
    <glyph glyph-name="eng" unicode="&#x14b;" 
d="M403 520q73 0 114 -38.5t41 -111.5q0 -34 -10 -73l-81 -324q-21 -84 -75.5 -123.5t-130.5 -39.5q-43 0 -75 9l25 100q11 -3 23 -3q41 0 65.5 22.5t38.5 79.5l69 276q7 28 7 52q0 64 -67 64q-45 0 -81 -35.5t-53 -102.5l-68 -272h-140l127 508h131l-14 -56h2q68 68 152 68
z" />
    <glyph glyph-name="Omacron" unicode="&#x14c;" horiz-adv-x="748" 
d="M448 728q137 0 213.5 -82t76.5 -222q0 -77 -25 -153.5t-71.5 -141t-122.5 -105t-169 -40.5q-137 0 -213 81.5t-76 222.5q0 61 15 122.5t47 119t76.5 101.5t109 70.5t139.5 26.5zM442 598q-55 0 -101 -29.5t-74 -76t-43 -99.5t-15 -104q0 -82 38.5 -128.5t108.5 -46.5
q73 0 128.5 51t80.5 120t25 139q0 81 -38.5 127.5t-109.5 46.5zM666 869l-22 -91h-326l22 91h326z" />
    <glyph glyph-name="omacron" unicode="&#x14d;" horiz-adv-x="590" 
d="M332 524q109 0 167 -59t58 -165q0 -53 -19.5 -107.5t-55.5 -101.5t-95 -77t-131 -30q-108 0 -165.5 59t-57.5 165q0 53 19.5 107.5t55.5 101.5t94.5 77t129.5 30zM321 416q-47 0 -81.5 -36.5t-48.5 -81.5t-14 -89q0 -56 23 -86.5t68 -30.5q47 0 81.5 36.5t48.5 81.5
t14 89q0 56 -23 86.5t-68 30.5zM546 689l-22 -91h-326l22 91h326z" />
    <glyph glyph-name="Obreve" unicode="&#x14e;" horiz-adv-x="748" 
d="M448 728q137 0 213.5 -82t76.5 -222q0 -77 -25 -153.5t-71.5 -141t-122.5 -105t-169 -40.5q-137 0 -213 81.5t-76 222.5q0 61 15 122.5t47 119t76.5 101.5t109 70.5t139.5 26.5zM442 598q-55 0 -101 -29.5t-74 -76t-43 -99.5t-15 -104q0 -82 38.5 -128.5t108.5 -46.5
q73 0 128.5 51t80.5 120t25 139q0 81 -38.5 127.5t-109.5 46.5zM581 906h107q-20 -72 -75 -111.5t-133 -39.5q-68 0 -106 32.5t-38 90.5q0 8 2 28h83q-1 -5 -1 -13q0 -51 67 -51q76 0 94 64z" />
    <glyph glyph-name="obreve" unicode="&#x14f;" horiz-adv-x="590" 
d="M332 524q109 0 167 -59t58 -165q0 -53 -19.5 -107.5t-55.5 -101.5t-95 -77t-131 -30q-108 0 -165.5 59t-57.5 165q0 53 19.5 107.5t55.5 101.5t94.5 77t129.5 30zM321 416q-47 0 -81.5 -36.5t-48.5 -81.5t-14 -89q0 -56 23 -86.5t68 -30.5q47 0 81.5 36.5t48.5 81.5
t14 89q0 56 -23 86.5t-68 30.5zM457 712h107q-20 -72 -75 -111.5t-133 -39.5q-68 0 -106 32.5t-38 90.5q0 8 2 28h83q-1 -5 -1 -13q0 -51 67 -51q76 0 94 64z" />
    <glyph glyph-name="Ohungarumlaut" unicode="&#x150;" horiz-adv-x="748" 
d="M448 728q137 0 213.5 -82t76.5 -222q0 -77 -25 -153.5t-71.5 -141t-122.5 -105t-169 -40.5q-137 0 -213 81.5t-76 222.5q0 61 15 122.5t47 119t76.5 101.5t109 70.5t139.5 26.5zM442 598q-55 0 -101 -29.5t-74 -76t-43 -99.5t-15 -104q0 -82 38.5 -128.5t108.5 -46.5
q73 0 128.5 51t80.5 120t25 139q0 81 -38.5 127.5t-109.5 46.5zM570 906l-171 -146h-116l128 146h159zM760 906l-171 -146h-116l128 146h159z" />
    <glyph glyph-name="ohungarumlaut" unicode="&#x151;" horiz-adv-x="590" 
d="M332 524q109 0 167 -59t58 -165q0 -53 -19.5 -107.5t-55.5 -101.5t-95 -77t-131 -30q-108 0 -165.5 59t-57.5 165q0 53 19.5 107.5t55.5 101.5t94.5 77t129.5 30zM321 416q-47 0 -81.5 -36.5t-48.5 -81.5t-14 -89q0 -56 23 -86.5t68 -30.5q47 0 81.5 36.5t48.5 81.5
t14 89q0 56 -23 86.5t-68 30.5zM466 712l-170 -146h-116l127 146h159zM656 712l-170 -146h-116l127 146h159z" />
    <glyph glyph-name="OE" unicode="&#x152;" horiz-adv-x="1020" 
d="M1075 712l-31 -126h-345l-40 -161h322l-32 -125h-322l-43 -174h354l-31 -126h-527q-157 0 -237.5 78.5t-80.5 227.5q0 73 26 142.5t76.5 129.5t137 97t195.5 37h578zM437 126l115 460h-64q-59 0 -106.5 -17t-78 -44t-51.5 -63t-29.5 -73t-8.5 -74q0 -189 179 -189h44z
" />
    <glyph glyph-name="oe" unicode="&#x153;" horiz-adv-x="928" 
d="M886 225h-354q-4 -21 -4 -43q0 -51 22.5 -75t59.5 -24q38 0 67.5 20t40.5 51h143q-31 -73 -101 -121.5t-158 -48.5q-113 0 -162 79q-81 -79 -194 -79q-103 0 -158 59t-55 165q0 53 19 107.5t53.5 101.5t91.5 77t125 30q123 0 179 -84q79 84 192 84q100 0 152.5 -56
t52.5 -151q0 -40 -12 -92zM268 92q47 0 81.5 36.5t48.5 81.5t14 89q0 56 -23 86.5t-68 30.5q-47 0 -81.5 -36.5t-48.5 -81.5t-14 -89q0 -56 23 -86.5t68 -30.5zM675 425q-39 0 -71 -28t-50 -84h213q1 8 1 22q0 45 -25.5 67.5t-67.5 22.5z" />
    <glyph glyph-name="Racute" unicode="&#x154;" horiz-adv-x="666" 
d="M19 0l177 712h252q222 0 222 -170q0 -71 -46.5 -131.5t-131.5 -81.5v-2q31 -13 46.5 -42.5t24.5 -94.5l26 -190h-152l-19 169q-7 58 -29.5 80.5t-74.5 22.5h-81l-67 -272h-147zM420 593h-106l-51 -204h114q71 0 104.5 36t33.5 81q0 87 -95 87zM633 906l-171 -146h-116
l108 146h179z" />
    <glyph glyph-name="racute" unicode="&#x155;" horiz-adv-x="392" 
d="M403 516q26 0 45 -6l-30 -121q-27 5 -43 5q-65 0 -108.5 -39.5t-61.5 -114.5l-60 -240h-140l126 508h129l-16 -65h2q70 73 157 73zM488 712l-170 -146h-116l107 146h179z" />
    <glyph glyph-name="Rcommaaccent" unicode="&#x156;" horiz-adv-x="666" 
d="M19 0l177 712h252q222 0 222 -170q0 -71 -46.5 -131.5t-131.5 -81.5v-2q31 -13 46.5 -42.5t24.5 -94.5l26 -190h-152l-19 169q-7 58 -29.5 80.5t-74.5 22.5h-81l-67 -272h-147zM420 593h-106l-51 -204h114q71 0 104.5 36t33.5 81q0 87 -95 87zM346 -59l-26 -104l-95 -107
h-56l72 107h-45l26 104h124z" />
    <glyph glyph-name="rcommaaccent" unicode="&#x157;" horiz-adv-x="392" 
d="M403 516q26 0 45 -6l-30 -121q-27 5 -43 5q-65 0 -108.5 -39.5t-61.5 -114.5l-60 -240h-140l126 508h129l-16 -65h2q70 73 157 73zM127 -59l-26 -104l-95 -107h-56l72 107h-45l26 104h124z" />
    <glyph glyph-name="Rcaron" unicode="&#x158;" horiz-adv-x="666" 
d="M19 0l177 712h252q222 0 222 -170q0 -71 -46.5 -131.5t-131.5 -81.5v-2q31 -13 46.5 -42.5t24.5 -94.5l26 -190h-152l-19 169q-7 58 -29.5 80.5t-74.5 22.5h-81l-67 -272h-147zM420 593h-106l-51 -204h114q71 0 104.5 36t33.5 81q0 87 -95 87zM656 906l-151 -146h-149
l-77 146h114l42 -76l79 76h142z" />
    <glyph glyph-name="rcaron" unicode="&#x159;" horiz-adv-x="392" 
d="M403 516q26 0 45 -6l-30 -121q-27 5 -43 5q-65 0 -108.5 -39.5t-61.5 -114.5l-60 -240h-140l126 508h129l-16 -65h2q70 73 157 73zM511 712l-150 -146h-149l-78 146h118l42 -76l79 76h138z" />
    <glyph glyph-name="Sacute" unicode="&#x15a;" horiz-adv-x="630" 
d="M395 728q244 0 244 -181q0 -23 -8 -53h-149q3 15 3 29q0 88 -108 88q-50 0 -84 -24.5t-34 -61.5q0 -34 29 -54.5t100 -43.5q46 -15 74 -28.5t58.5 -36.5t45 -58.5t14.5 -84.5q0 -89 -81 -162t-220 -73q-125 0 -194 50t-69 144q0 28 7 56h152q-4 -17 -4 -36q0 -95 125 -95
q62 0 95 29.5t33 64.5q0 21 -6.5 36t-25 27t-35.5 19t-53 20q-40 14 -61.5 22.5t-52 26.5t-46 37t-27.5 49.5t-12 69.5q0 84 78.5 154t211.5 70zM609 906l-171 -146h-116l108 146h179z" />
    <glyph glyph-name="sacute" unicode="&#x15b;" horiz-adv-x="524" 
d="M305 524q93 0 142.5 -35.5t49.5 -104.5q0 -16 -3 -32h-133q2 14 2 21q0 53 -70 53q-38 0 -56 -15t-18 -35q0 -21 19 -34t73 -32q29 -10 43.5 -15.5t38 -19t35.5 -27.5t21.5 -37.5t9.5 -53.5q0 -70 -63 -121.5t-178 -51.5q-100 0 -154.5 36.5t-54.5 108.5q0 20 5 36h141
q-3 -12 -3 -22q0 -58 78 -58q38 0 59 15t21 40q0 26 -21.5 40t-76.5 33q-35 12 -51 19t-40 23.5t-34 41.5t-10 61q0 66 60 116t168 50zM526 712l-170 -146h-116l107 146h179z" />
    <glyph glyph-name="Scircumflex" unicode="&#x15c;" horiz-adv-x="630" 
d="M395 728q244 0 244 -181q0 -23 -8 -53h-149q3 15 3 29q0 88 -108 88q-50 0 -84 -24.5t-34 -61.5q0 -34 29 -54.5t100 -43.5q46 -15 74 -28.5t58.5 -36.5t45 -58.5t14.5 -84.5q0 -89 -81 -162t-220 -73q-125 0 -194 50t-69 144q0 28 7 56h152q-4 -17 -4 -36q0 -95 125 -95
q62 0 95 29.5t33 64.5q0 21 -6.5 36t-25 27t-35.5 19t-53 20q-40 14 -61.5 22.5t-52 26.5t-46 37t-27.5 49.5t-12 69.5q0 84 78.5 154t211.5 70zM218 760l151 146h149l77 -146h-114l-42 76l-79 -76h-142z" />
    <glyph glyph-name="scircumflex" unicode="&#x15d;" horiz-adv-x="524" 
d="M305 524q93 0 142.5 -35.5t49.5 -104.5q0 -16 -3 -32h-133q2 14 2 21q0 53 -70 53q-38 0 -56 -15t-18 -35q0 -21 19 -34t73 -32q29 -10 43.5 -15.5t38 -19t35.5 -27.5t21.5 -37.5t9.5 -53.5q0 -70 -63 -121.5t-178 -51.5q-100 0 -154.5 36.5t-54.5 108.5q0 20 5 36h141
q-3 -12 -3 -22q0 -58 78 -58q38 0 59 15t21 40q0 26 -21.5 40t-76.5 33q-35 12 -51 19t-40 23.5t-34 41.5t-10 61q0 66 60 116t168 50zM435 712l78 -146h-118l-42 76l-79 -76h-138l150 146h149z" />
    <glyph glyph-name="Scedilla" unicode="&#x15e;" horiz-adv-x="630" 
d="M631 494h-149q3 15 3 29q0 88 -108 88q-50 0 -84 -24.5t-34 -61.5q0 -34 29 -54.5t100 -43.5q46 -15 74 -28.5t58.5 -36.5t45 -58.5t14.5 -84.5q0 -86 -76.5 -158t-209.5 -77l-39 -44q9 3 23 3q31 0 51 -19t20 -51q0 -42 -41 -70.5t-100 -28.5q-60 0 -106 30l25 45
q39 -22 79 -22q26 0 41.5 11t15.5 29q0 33 -38 33q-17 0 -34 -6l-20 18l65 74q-106 8 -163 57t-57 135q0 28 7 56h152q-4 -17 -4 -36q0 -95 125 -95q62 0 95 29.5t33 64.5q0 21 -6.5 36t-25 27t-35.5 19t-53 20q-40 14 -61.5 22.5t-52 26.5t-46 37t-27.5 49.5t-12 69.5
q0 84 78.5 154t211.5 70q244 0 244 -181q0 -23 -8 -53z" />
    <glyph glyph-name="scedilla" unicode="&#x15f;" horiz-adv-x="524" 
d="M494 352h-133q2 14 2 21q0 53 -70 53q-38 0 -56 -15t-18 -35q0 -21 19 -34t73 -32q29 -10 43.5 -15.5t38 -19t35.5 -27.5t21.5 -37.5t9.5 -53.5q0 -67 -58 -117.5t-164 -55.5l-39 -44q9 3 23 3q31 0 51 -19t20 -51q0 -42 -41 -70.5t-100 -28.5q-60 0 -106 30l25 45
q38 -22 79 -22q26 0 41.5 11t15.5 29q0 33 -38 33q-18 0 -34 -6l-20 18l65 74q-81 6 -125.5 42.5t-44.5 100.5q0 20 5 36h141q-3 -12 -3 -22q0 -58 78 -58q38 0 59 15t21 40q0 26 -21.5 40t-76.5 33q-35 12 -51 19t-40 23.5t-34 41.5t-10 61q0 66 60 116t168 50
q93 0 142.5 -35.5t49.5 -104.5q0 -16 -3 -32z" />
    <glyph glyph-name="Scaron" unicode="&#x160;" horiz-adv-x="630" 
d="M395 728q244 0 244 -181q0 -23 -8 -53h-149q3 15 3 29q0 88 -108 88q-50 0 -84 -24.5t-34 -61.5q0 -34 29 -54.5t100 -43.5q46 -15 74 -28.5t58.5 -36.5t45 -58.5t14.5 -84.5q0 -89 -81 -162t-220 -73q-125 0 -194 50t-69 144q0 28 7 56h152q-4 -17 -4 -36q0 -95 125 -95
q62 0 95 29.5t33 64.5q0 21 -6.5 36t-25 27t-35.5 19t-53 20q-40 14 -61.5 22.5t-52 26.5t-46 37t-27.5 49.5t-12 69.5q0 84 78.5 154t211.5 70zM632 906l-151 -146h-149l-77 146h114l42 -76l79 76h142z" />
    <glyph glyph-name="scaron" unicode="&#x161;" horiz-adv-x="524" 
d="M305 524q93 0 142.5 -35.5t49.5 -104.5q0 -16 -3 -32h-133q2 14 2 21q0 53 -70 53q-38 0 -56 -15t-18 -35q0 -21 19 -34t73 -32q29 -10 43.5 -15.5t38 -19t35.5 -27.5t21.5 -37.5t9.5 -53.5q0 -70 -63 -121.5t-178 -51.5q-100 0 -154.5 36.5t-54.5 108.5q0 20 5 36h141
q-3 -12 -3 -22q0 -58 78 -58q38 0 59 15t21 40q0 26 -21.5 40t-76.5 33q-35 12 -51 19t-40 23.5t-34 41.5t-10 61q0 66 60 116t168 50zM549 712l-150 -146h-149l-78 146h118l42 -76l79 76h138z" />
    <glyph glyph-name="Tcedilla" unicode="&#x162;" horiz-adv-x="615" 
d="M719 712l-31 -126h-224l-146 -586h-147l146 586h-224l31 126h595zM297 -59l-26 -104l-95 -107h-56l72 107h-45l26 104h124z" />
    <glyph glyph-name="tcedilla" unicode="&#x163;" horiz-adv-x="357" 
d="M364 404h-97l-53 -213q-5 -23 -5 -36q0 -27 12.5 -38.5t41.5 -11.5q15 0 33 4l-28 -109q-24 -7 -55 -7q-77 0 -113 30t-36 97q0 30 11 74l52 210h-82l26 104h82l33 132h140l-33 -132h97zM43 -163l26 104h124l-26 -104l-95 -107h-56l72 107h-45z" />
    <glyph glyph-name="Tcaron" unicode="&#x164;" horiz-adv-x="615" 
d="M719 712l-31 -126h-224l-146 -586h-147l146 586h-224l31 126h595zM645 906l-151 -146h-149l-77 146h114l42 -76l79 76h142z" />
    <glyph glyph-name="tcaron" unicode="&#x165;" horiz-adv-x="357" 
d="M326 640l-33 -132h97l-26 -104h-97l-53 -213q-5 -23 -5 -36q0 -27 12.5 -38.5t41.5 -11.5q15 0 33 4l-28 -109q-24 -7 -55 -7q-77 0 -113 30t-36 97q0 30 11 74l52 210h-82l26 104h82l33 132h140zM398 712h111l-102 -177h-79z" />
    <glyph glyph-name="Tbar" unicode="&#x166;" horiz-adv-x="615" 
d="M688 586h-224l-46 -186h134l-26 -106h-135l-73 -294h-147l73 294h-135l26 106h136l46 186h-224l31 126h595z" />
    <glyph glyph-name="tbar" unicode="&#x167;" horiz-adv-x="357" 
d="M364 404h-97l-24 -96h94l-20 -83h-95l-8 -34q-5 -23 -5 -36q0 -27 12.5 -38.5t41.5 -11.5q15 0 33 4l-28 -109q-24 -7 -55 -7q-77 0 -112.5 30t-35.5 97q0 30 11 74l8 31h-80l20 83h80l24 96h-83l26 104h83l33 132h139l-33 -132h97z" />
    <glyph glyph-name="Utilde" unicode="&#x168;" horiz-adv-x="718" 
d="M609 712h147l-120 -482q-30 -119 -111.5 -182.5t-202.5 -63.5q-118 0 -181.5 60t-63.5 172q0 45 13 97l100 399h147l-105 -423q-9 -36 -9 -64q0 -111 111 -111q62 0 104 39t60 112zM622 906h78q-18 -63 -55.5 -99t-87.5 -36q-37 0 -74 23t-56 23q-41 0 -57 -46h-80
q17 63 55 99t88 36q37 0 74.5 -23t55.5 -23q41 0 59 46z" />
    <glyph glyph-name="utilde" unicode="&#x169;" 
d="M197 -12q-74 0 -114.5 38.5t-40.5 111.5q0 34 10 73l74 297h140l-73 -294q-7 -28 -7 -52q0 -64 67 -64q45 0 81 35.5t53 102.5l68 272h140l-127 -508h-131l14 56h-2q-68 -68 -152 -68zM514 712h78q-18 -63 -55.5 -99t-87.5 -36q-37 0 -73.5 23t-55.5 23q-41 0 -57 -46
h-80q17 63 55 99t88 36q37 0 74 -23t55 -23q41 0 59 46z" />
    <glyph glyph-name="Umacron" unicode="&#x16a;" horiz-adv-x="718" 
d="M609 712h147l-120 -482q-30 -119 -111.5 -182.5t-202.5 -63.5q-118 0 -181.5 60t-63.5 172q0 45 13 97l100 399h147l-105 -423q-9 -36 -9 -64q0 -111 111 -111q62 0 104 39t60 112zM665 869l-22 -91h-326l22 91h326z" />
    <glyph glyph-name="umacron" unicode="&#x16b;" 
d="M197 -12q-74 0 -114.5 38.5t-40.5 111.5q0 34 10 73l74 297h140l-73 -294q-7 -28 -7 -52q0 -64 67 -64q45 0 81 35.5t53 102.5l68 272h140l-127 -508h-131l14 56h-2q-68 -68 -152 -68zM561 689l-22 -91h-326l22 91h326z" />
    <glyph glyph-name="Ubreve" unicode="&#x16c;" horiz-adv-x="718" 
d="M609 712h147l-120 -482q-30 -119 -111.5 -182.5t-202.5 -63.5q-118 0 -181.5 60t-63.5 172q0 45 13 97l100 399h147l-105 -423q-9 -36 -9 -64q0 -111 111 -111q62 0 104 39t60 112zM580 906h107q-20 -72 -75 -111.5t-133 -39.5q-68 0 -106 32.5t-38 90.5q0 8 2 28h83
q-1 -5 -1 -13q0 -51 67 -51q76 0 94 64z" />
    <glyph glyph-name="ubreve" unicode="&#x16d;" 
d="M197 -12q-74 0 -114.5 38.5t-40.5 111.5q0 34 10 73l74 297h140l-73 -294q-7 -28 -7 -52q0 -64 67 -64q45 0 81 35.5t53 102.5l68 272h140l-127 -508h-131l14 56h-2q-68 -68 -152 -68zM472 712h107q-20 -72 -75 -111.5t-133 -39.5q-68 0 -106 32.5t-38 90.5q0 8 2 28h83
q-1 -5 -1 -13q0 -51 67 -51q76 0 94 64z" />
    <glyph glyph-name="Uring" unicode="&#x16e;" horiz-adv-x="718" 
d="M609 712h147l-120 -482q-30 -119 -111.5 -182.5t-202.5 -63.5q-118 0 -181.5 60t-63.5 172q0 45 13 97l100 399h147l-105 -423q-9 -36 -9 -64q0 -111 111 -111q62 0 104 39t60 112zM489 966q45 0 76.5 -31.5t31.5 -76.5t-31.5 -76.5t-76.5 -31.5t-76.5 31.5t-31.5 76.5
t31.5 76.5t76.5 31.5zM489 912q-23 0 -38.5 -16t-15.5 -38t15.5 -38t38.5 -16t38.5 16t15.5 38t-15.5 38t-38.5 16z" />
    <glyph glyph-name="uring" unicode="&#x16f;" 
d="M197 -12q-74 0 -114.5 38.5t-40.5 111.5q0 34 10 73l74 297h140l-73 -294q-7 -28 -7 -52q0 -64 67 -64q45 0 81 35.5t53 102.5l68 272h140l-127 -508h-131l14 56h-2q-68 -68 -152 -68zM382 772q45 0 76.5 -31.5t31.5 -76.5t-31.5 -76.5t-76.5 -31.5t-76.5 31.5
t-31.5 76.5t31.5 76.5t76.5 31.5zM382 718q-22 0 -38 -16t-16 -38t16 -38t38 -16t38 16t16 38t-16 38t-38 16z" />
    <glyph glyph-name="Uhungarumlaut" unicode="&#x170;" horiz-adv-x="718" 
d="M609 712h147l-120 -482q-30 -119 -111.5 -182.5t-202.5 -63.5q-118 0 -181.5 60t-63.5 172q0 45 13 97l100 399h147l-105 -423q-9 -36 -9 -64q0 -111 111 -111q62 0 104 39t60 112zM569 906l-171 -146h-116l128 146h159zM759 906l-171 -146h-116l128 146h159z" />
    <glyph glyph-name="uhungarumlaut" unicode="&#x171;" 
d="M197 -12q-74 0 -114.5 38.5t-40.5 111.5q0 34 10 73l74 297h140l-73 -294q-7 -28 -7 -52q0 -64 67 -64q45 0 81 35.5t53 102.5l68 272h140l-127 -508h-131l14 56h-2q-68 -68 -152 -68zM481 712l-170 -146h-116l127 146h159zM671 712l-170 -146h-116l127 146h159z" />
    <glyph glyph-name="Uogonek" unicode="&#x172;" horiz-adv-x="718" 
d="M609 712h147l-120 -482q-32 -130 -129 -197q-76 -52 -101.5 -79t-25.5 -52q0 -21 28 -21q20 0 37 6l-19 -75q-32 -9 -69 -9q-103 0 -103 75q0 56 76 104v2h-8q-121 0 -183 59t-62 173q0 45 13 97l100 399h147l-105 -423q-9 -36 -9 -64q0 -111 111 -111q62 0 104 39
t60 112z" />
    <glyph glyph-name="uogonek" unicode="&#x173;" 
d="M455 508h140l-127 -508q-91 -53 -91 -98q0 -21 28 -21q20 0 37 6l-19 -75q-32 -9 -69 -9q-103 0 -103 75q0 65 107 122h-21l14 56h-2q-68 -68 -152 -68q-74 0 -114.5 38.5t-40.5 111.5q0 34 10 73l74 297h140l-73 -294q-7 -28 -7 -52q0 -64 67 -64q45 0 81 35.5t53 102.5
z" />
    <glyph glyph-name="Wcircumflex" unicode="&#x174;" horiz-adv-x="956" 
d="M1061 712l-326 -712h-191l4 282q1 145 14 305h-2q-56 -136 -138 -305l-136 -282h-191l28 712h137l-13 -259q-7 -143 -25 -308h2q54 126 142 308l126 259h186l-2 -259q-2 -157 -12 -308h2q48 125 129 308l115 259h151zM408 760l151 146h149l77 -146h-114l-42 76l-79 -76
h-142z" />
    <glyph glyph-name="wcircumflex" unicode="&#x175;" horiz-adv-x="810" 
d="M868 508l-238 -508h-200l5 200q3 109 9 217h-2q-44 -115 -93 -217l-95 -200h-200l14 508h133l-11 -196q-8 -151 -15 -221h2q45 113 95 219l94 198h192l-4 -198q-1 -109 -9 -219h2q41 114 89 221l87 196h145zM587 712l78 -146h-118l-42 76l-79 -76h-138l150 146h149z" />
    <glyph glyph-name="Ycircumflex" unicode="&#x176;" horiz-adv-x="638" 
d="M749 712l-351 -435l-69 -277h-147l69 277l-135 435h149l35 -134q22 -86 39 -181h2q57 90 127 181l101 134h180zM230 760l151 146h149l77 -146h-114l-42 76l-79 -76h-142z" />
    <glyph glyph-name="ycircumflex" unicode="&#x177;" horiz-adv-x="504" 
d="M418 508h156l-309 -511q-65 -106 -129 -147t-160 -41q-39 0 -71 8l28 112q21 -8 52 -8q53 0 85 31.5t32 78.5q0 17 -5 64l-41 413h138l12 -170q8 -117 7 -213h2q57 122 108 213zM420 712l78 -146h-118l-42 76l-79 -76h-138l150 146h149z" />
    <glyph glyph-name="Ydieresis" unicode="&#x178;" horiz-adv-x="638" 
d="M749 712l-351 -435l-69 -277h-147l69 277l-135 435h149l35 -134q22 -86 39 -181h2q57 90 127 181l101 134h180zM404 889l-30 -120h-123l30 120h123zM621 889l-30 -120h-123l30 120h123z" />
    <glyph glyph-name="Zacute" unicode="&#x179;" horiz-adv-x="582" 
d="M659 712l-34 -137l-456 -449v-2h361l-31 -124h-542l34 137l456 449v2h-328l31 124h509zM609 906l-171 -146h-116l108 146h179z" />
    <glyph glyph-name="zacute" unicode="&#x17a;" horiz-adv-x="484" 
d="M510 508l-30 -120l-311 -276v-2h251l-27 -110h-428l30 120l311 276v2h-232l28 110h408zM504 712l-170 -146h-116l107 146h179z" />
    <glyph glyph-name="Zdotaccent" unicode="&#x17b;" horiz-adv-x="582" 
d="M659 712l-34 -137l-456 -449v-2h361l-31 -124h-542l34 137l456 449v2h-328l31 124h509zM509 889l-30 -120h-140l30 120h140z" />
    <glyph glyph-name="zdotaccent" unicode="&#x17c;" horiz-adv-x="484" 
d="M510 508l-30 -120l-311 -276v-2h251l-27 -110h-428l30 120l311 276v2h-232l28 110h408zM409 712l-30 -120h-140l30 120h140z" />
    <glyph glyph-name="Zcaron" unicode="&#x17d;" horiz-adv-x="582" 
d="M659 712l-34 -137l-456 -449v-2h361l-31 -124h-542l34 137l456 449v2h-328l31 124h509zM632 906l-151 -146h-149l-77 146h114l42 -76l79 76h142z" />
    <glyph glyph-name="zcaron" unicode="&#x17e;" horiz-adv-x="484" 
d="M510 508l-30 -120l-311 -276v-2h251l-27 -110h-428l30 120l311 276v2h-232l28 110h408zM527 712l-150 -146h-149l-78 146h118l42 -76l79 76h138z" />
    <glyph glyph-name="longs" unicode="&#x17f;" horiz-adv-x="341" 
d="M372 720q39 0 73 -10l-24 -97q-9 3 -23 3q-39 0 -62 -20t-35 -67l-132 -529h-138l101 404h-85l26 104h85l14 58q38 154 200 154z" />
    <glyph glyph-name="Schwa" unicode="&#x18f;" horiz-adv-x="763" 
d="M470 728q140 0 214 -75.5t74 -210.5q0 -77 -27.5 -155.5t-77.5 -147t-132.5 -112t-180.5 -43.5q-142 0 -215 75t-73 203q0 85 24 144h519q3 22 3 43q0 78 -42 115t-107 37q-61 0 -108 -29.5t-66 -76.5h-170q42 99 139.5 166t225.5 67zM358 114q68 0 124 44.5t83 125.5
h-356q-2 -24 -2 -34q0 -66 41.5 -101t109.5 -35z" />
    <glyph glyph-name="florin" unicode="&#x192;" 
d="M612 723q48 0 81 -11l-26 -105q-20 5 -45 5q-41 0 -69 -20.5t-54 -71.5l-26 -52h106l-26 -104h-131l-180 -358q-53 -107 -112.5 -152t-148.5 -45q-43 0 -69 9l27 106q20 -5 43 -5q39 0 64.5 20t54.5 78l174 347h-97l26 104h122l32 63q50 101 110.5 146.5t143.5 45.5z" />
    <glyph glyph-name="Aringacute" unicode="&#x1fa;" horiz-adv-x="698" 
d="M364 712h198l70 -712h-144l-12 174h-273l-99 -174h-164zM274 300h193l-3 47q-10 160 -13 278h-2q-70 -140 -148 -278zM473 733q-45 0 -76.5 31.5t-31.5 76.5t31.5 76.5t76.5 31.5t76.5 -31.5t31.5 -76.5t-31.5 -76.5t-76.5 -31.5zM473 895q-23 0 -38.5 -15.5t-15.5 -38.5
t15.5 -38.5t38.5 -15.5t38.5 15.5t15.5 38.5t-15.5 38.5t-38.5 15.5zM687 1116l-171 -146h-116l108 146h179z" />
    <glyph glyph-name="aringacute" unicode="&#x1fb;" horiz-adv-x="547" 
d="M311 524q195 0 195 -158q0 -31 -9 -67l-40 -160q-22 -90 -21 -139h-122q0 31 8 59h-2q-72 -71 -171 -71q-73 0 -112.5 36.5t-39.5 98.5q0 35 14.5 63.5t35.5 48t55 34t64 23t71 14.5t67.5 8t61.5 4l3 12q5 20 5 33q0 63 -72 63q-37 0 -62 -20.5t-33 -56.5h-136
q17 76 80 125.5t160 49.5zM337 201l8 32q-59 -4 -105 -11q-98 -16 -98 -80q0 -25 16.5 -39.5t47.5 -14.5q103 0 131 113zM347 761q45 0 76.5 -31.5t31.5 -76.5t-31.5 -76.5t-76.5 -31.5t-76.5 31.5t-31.5 76.5t31.5 76.5t76.5 31.5zM347 707q-23 0 -38.5 -15.5t-15.5 -38.5
t15.5 -38.5t38.5 -15.5t38.5 15.5t15.5 38.5t-15.5 38.5t-38.5 15.5zM560 928l-170 -146h-116l107 146h179z" />
    <glyph glyph-name="AEacute" unicode="&#x1fc;" horiz-adv-x="965" 
d="M989 586h-332l-17 -161h286l-32 -125h-268l-18 -174h275l-31 -126h-393l19 179h-254l-122 -179h-171l509 712h580zM490 303l31 292h-14l-199 -292h182zM846 906l-171 -146h-116l108 146h179z" />
    <glyph glyph-name="aeacute" unicode="&#x1fd;" horiz-adv-x="879" 
d="M837 225h-354q-4 -21 -4 -43q0 -51 24 -75t63 -24q36 0 64 20t39 51h143q-30 -73 -98.5 -121.5t-155.5 -48.5q-125 0 -174 92q-77 -92 -199 -92q-90 0 -138.5 39t-48.5 104q0 33 14 63t44.5 57.5t89 44t138.5 16.5h88l4 16q5 22 5 34q0 68 -77 68q-39 0 -64.5 -20.5
t-33.5 -56.5h-136q16 76 79.5 125.5t158.5 49.5q119 0 164 -62q72 62 167 62q102 0 156 -55.5t54 -151.5q0 -40 -12 -92zM348 209l4 16h-73q-139 0 -139 -83q0 -58 72 -58q104 0 136 125zM631 425q-41 0 -74 -28t-52 -84h212q2 16 2 22q0 45 -24 67.5t-64 22.5zM714 712
l-170 -146h-116l107 146h179z" />
    <glyph glyph-name="Oslashacute" unicode="&#x1fe;" horiz-adv-x="748" 
d="M717 727l53 -53l-74 -74q42 -72 42 -176q0 -77 -25 -153.5t-71.5 -141t-122.5 -105t-169 -40.5q-125 0 -200 69l-67 -68l-53 53l73 73q-42 72 -42 177q0 61 15 122.5t47 119t76.5 101.5t109 70.5t139.5 26.5q124 0 201 -69zM203 289q0 -35 8 -69l340 341q-40 45 -109 45
q-74 0 -131 -52.5t-82.5 -123t-25.5 -141.5zM596 424q0 35 -8 67l-340 -341q41 -44 108 -44q74 0 131 52.5t83 123.5t26 142zM702 906l-171 -146h-116l108 146h179z" />
    <glyph glyph-name="oslashacute" unicode="&#x1ff;" horiz-adv-x="590" 
d="M537 544l46 -46l-61 -61q35 -55 35 -137q0 -53 -19.5 -107.5t-55.5 -101.5t-95 -77t-131 -30q-89 0 -145 42l-61 -61l-46 46l63 63q-34 52 -34 134q0 53 19.5 107.5t55.5 101.5t94.5 77t129.5 30q88 0 145 -40zM321 421q-50 0 -86 -37.5t-51 -84t-15 -90.5q0 -11 2 -31
l217 217q-24 26 -67 26zM268 87q50 0 86 37.5t51 84t15 90.5q0 18 -3 33l-218 -218q25 -27 69 -27zM574 712l-170 -146h-116l107 146h179z" />
    <glyph glyph-name="Scommaaccent" unicode="&#x218;" horiz-adv-x="630" 
d="M395 728q244 0 244 -181q0 -23 -8 -53h-149q3 15 3 29q0 88 -108 88q-50 0 -84 -24.5t-34 -61.5q0 -34 29 -54.5t100 -43.5q46 -15 74 -28.5t58.5 -36.5t45 -58.5t14.5 -84.5q0 -89 -81 -162t-220 -73q-125 0 -194 50t-69 144q0 28 7 56h152q-4 -17 -4 -36q0 -95 125 -95
q62 0 95 29.5t33 64.5q0 21 -6.5 36t-25 27t-35.5 19t-53 20q-40 14 -61.5 22.5t-52 26.5t-46 37t-27.5 49.5t-12 69.5q0 84 78.5 154t211.5 70zM312 -59l-26 -104l-95 -107h-56l72 107h-45l26 104h124z" />
    <glyph glyph-name="scommaaccent" unicode="&#x219;" horiz-adv-x="524" 
d="M305 524q93 0 142.5 -35.5t49.5 -104.5q0 -16 -3 -32h-133q2 14 2 21q0 53 -70 53q-38 0 -56 -15t-18 -35q0 -21 19 -34t73 -32q29 -10 43.5 -15.5t38 -19t35.5 -27.5t21.5 -37.5t9.5 -53.5q0 -70 -63 -121.5t-178 -51.5q-100 0 -154.5 36.5t-54.5 108.5q0 20 5 36h141
q-3 -12 -3 -22q0 -58 78 -58q38 0 59 15t21 40q0 26 -21.5 40t-76.5 33q-35 12 -51 19t-40 23.5t-34 41.5t-10 61q0 66 60 116t168 50zM255 -59l-26 -104l-95 -107h-56l72 107h-45l26 104h124z" />
    <glyph glyph-name="Tcommaaccent" unicode="&#x21a;" horiz-adv-x="615" 
d="M719 712l-31 -126h-224l-146 -586h-147l146 586h-224l31 126h595zM297 -59l-26 -104l-95 -107h-56l72 107h-45l26 104h124z" />
    <glyph glyph-name="tcommaaccent" unicode="&#x21b;" horiz-adv-x="357" 
d="M364 404h-97l-53 -213q-5 -23 -5 -36q0 -27 12.5 -38.5t41.5 -11.5q15 0 33 4l-28 -109q-24 -7 -55 -7q-77 0 -113 30t-36 97q0 30 11 74l52 210h-82l26 104h82l33 132h140l-33 -132h97zM43 -163l26 104h124l-26 -104l-95 -107h-56l72 107h-45z" />
    <glyph glyph-name="dotlessj" unicode="&#x237;" horiz-adv-x="278" 
d="M133 508h140l-133 -535q-21 -84 -75.5 -123.5t-130.5 -39.5q-44 0 -75 9l25 100q11 -3 23 -3q41 0 65.5 22.5t38.5 79.5z" />
    <glyph glyph-name="schwa" unicode="&#x259;" horiz-adv-x="573" 
d="M326 524q106 0 161 -57t55 -158q0 -74 -32 -146.5t-102 -125.5t-163 -53q-105 0 -160 55.5t-55 151.5q0 53 15 97h362q3 21 3 38q0 51 -25.5 75t-66.5 24q-37 0 -66 -18.5t-41 -47.5h-143q31 71 100.5 118t157.5 47zM253 83q43 0 77.5 29.5t54.5 87.5h-223q-2 -20 -2 -27
q0 -45 25.5 -67.5t67.5 -22.5z" />
    <glyph glyph-name="apostrophemod" unicode="&#x2bc;" horiz-adv-x="255" 
d="M308 712l-35 -142l-100 -146h-71l84 146h-44l35 142h131z" />
    <glyph glyph-name="circumflex" unicode="&#x2c6;" horiz-adv-x="478" 
d="M427 712l78 -146h-118l-42 76l-79 -76h-138l150 146h149z" />
    <glyph glyph-name="caron" unicode="&#x2c7;" horiz-adv-x="478" 
d="M542 712l-150 -146h-149l-78 146h118l42 -76l79 76h138z" />
    <glyph glyph-name="firsttonechinese" unicode="&#x2c9;" horiz-adv-x="427" 
d="M485 689l-22 -91h-326l22 91h326z" />
    <glyph glyph-name="breve" unicode="&#x2d8;" horiz-adv-x="450" 
d="M407 712h107q-20 -72 -75 -111.5t-133 -39.5q-68 0 -106 32.5t-38 90.5q0 8 2 28h83q-1 -5 -1 -13q0 -51 67 -51q76 0 94 64z" />
    <glyph glyph-name="dotaccent" unicode="&#x2d9;" horiz-adv-x="241" 
d="M305 712l-30 -120h-140l30 120h140z" />
    <glyph glyph-name="ring" unicode="&#x2da;" horiz-adv-x="323" 
d="M264 772q45 0 76.5 -31.5t31.5 -76.5t-31.5 -76.5t-76.5 -31.5t-76.5 31.5t-31.5 76.5t31.5 76.5t76.5 31.5zM264 718q-22 0 -38 -16t-16 -38t16 -38t38 -16t38 16t16 38t-16 38t-38 16z" />
    <glyph glyph-name="ogonek" unicode="&#x2db;" horiz-adv-x="292" 
d="M66 0h110q-91 -53 -91 -98q0 -21 28 -21q21 0 37 6l-19 -75q-32 -9 -69 -9q-103 0 -103 75q0 65 107 122z" />
    <glyph glyph-name="tilde" unicode="&#x2dc;" horiz-adv-x="476" 
d="M462 712h78q-18 -63 -55.5 -99t-87.5 -36q-37 0 -73.5 23t-55.5 23q-41 0 -57 -46h-80q17 63 55 99t88 36q37 0 74 -23t55 -23q41 0 59 46z" />
    <glyph glyph-name="hungarumlaut" unicode="&#x2dd;" horiz-adv-x="540" 
d="M414 712l-170 -146h-116l127 146h159zM604 712l-170 -146h-116l127 146h159z" />
    <glyph glyph-name="commaturnedabovecomb" unicode="&#x312;" horiz-adv-x="0" 
d="M308 788l-72 -107h45l-25 -104h-124l25 104l95 107h56z" />
    <glyph glyph-name="commaaccent" unicode="&#x326;" horiz-adv-x="0" 
d="M96 -59l-26 -104l-95 -107h-56l72 107h-45l26 104h124z" />
    <glyph glyph-name="dbllowlinecomb" unicode="&#x333;" horiz-adv-x="0" 
d="M-112 -195l-18 -71h-500l18 71h500zM-76 -50l-18 -71h-500l18 71h500z" />
    <glyph glyph-name="numeralgreek" unicode="&#x374;" horiz-adv-x="215" 
d="M299 712l-118 -204h-88l81 204h125z" />
    <glyph glyph-name="lowernumeralgreek" unicode="&#x375;" horiz-adv-x="215" 
d="M149 112l-118 -204h-88l81 204h125z" />
    <glyph glyph-name="questiongreek" unicode="&#x37e;" horiz-adv-x="258" 
d="M269 508l-41 -167h-154l41 167h154zM184 167l-41 -167l-117 -172h-84l98 172h-51l41 167h154z" />
    <glyph glyph-name="tonos" unicode="&#x384;" horiz-adv-x="273" 
d="M342 732l-109 -164h-104l76 164h137z" />
    <glyph glyph-name="dieresistonos" unicode="&#x385;" horiz-adv-x="541" 
d="M274 697l-29 -117h-113l29 117h113zM467 724l-93 -156h-95l72 156h116zM601 697l-29 -117h-113l29 117h113z" />
    <glyph glyph-name="Alphatonos" unicode="&#x386;" horiz-adv-x="698" 
d="M488 0l-12 174h-273l-99 -174h-164l424 712h198l70 -712h-144zM274 300h193l-3 47q-10 160 -13 278h-2q-70 -140 -148 -278zM289 712l-119 -204h-104l86 204h137z" />
    <glyph glyph-name="anoteleia" unicode="&#x387;" horiz-adv-x="258" 
d="M269 508l-41 -167h-154l41 167h154z" />
    <glyph glyph-name="Epsilontonos" unicode="&#x388;" horiz-adv-x="633" 
d="M688 712l-31 -126h-345l-40 -161h322l-32 -125h-322l-43 -174h354l-31 -126h-501l177 712h492zM153 712l-119 -204h-104l86 204h137z" />
    <glyph glyph-name="Etatonos" unicode="&#x389;" horiz-adv-x="750" 
d="M782 712l-177 -712h-147l76 307h-292l-76 -307h-147l177 712h147l-69 -279h292l69 279h147zM153 712l-119 -204h-104l86 204h137z" />
    <glyph glyph-name="Iotatonos" unicode="&#x38a;" horiz-adv-x="311" 
d="M343 712l-177 -712h-147l177 712h147zM153 712l-119 -204h-104l86 204h137z" />
    <glyph glyph-name="Omicrontonos" unicode="&#x38c;" horiz-adv-x="748" 
d="M448 728q137 0 213.5 -82t76.5 -222q0 -77 -25 -153.5t-71.5 -141t-122.5 -105t-169 -40.5q-137 0 -213 81.5t-76 222.5q0 61 15 122.5t47 119t76.5 101.5t109 70.5t139.5 26.5zM442 598q-55 0 -101 -29.5t-74 -76t-43 -99.5t-15 -104q0 -82 38.5 -128.5t108.5 -46.5
q73 0 128.5 51t80.5 120t25 139q0 81 -38.5 127.5t-109.5 46.5zM196 712l-119 -204h-104l86 204h137z" />
    <glyph glyph-name="Upsilontonos" unicode="&#x38e;" horiz-adv-x="638" 
d="M749 712l-351 -435l-69 -277h-147l69 277l-135 435h149l35 -134q22 -86 39 -181h2q57 90 127 181l101 134h180zM95 712l-119 -204h-104l86 204h137z" />
    <glyph glyph-name="Omegatonos" unicode="&#x38f;" horiz-adv-x="734" 
d="M455 728q129 0 202.5 -61.5t73.5 -180.5q0 -104 -52 -190.5t-156 -169.5v-2h148l-31 -124h-294l32 130q193 150 193 318q0 73 -36.5 111.5t-99.5 38.5q-69 0 -121 -43t-76 -102.5t-24 -122.5q0 -100 64 -200l-32 -130h-278l31 124h152v2q-80 115 -80 232q0 65 24.5 129
t70 118.5t121 88.5t168.5 34zM187 712l-119 -204h-104l86 204h137z" />
    <glyph glyph-name="iotadieresistonos" unicode="&#x390;" horiz-adv-x="316" 
d="M126 508h140l-73 -293q-10 -38 -10 -59q0 -51 55 -51q15 0 31 4l-28 -110q-24 -6 -59 -6q-74 0 -109 30t-35 96q0 33 13 87zM136 697l-29 -117h-113l29 117h113zM329 724l-93 -156h-95l72 156h116zM463 697l-29 -117h-113l29 117h113z" />
    <glyph glyph-name="Alpha" unicode="&#x391;" horiz-adv-x="698" 
d="M488 0l-12 174h-273l-99 -174h-164l424 712h198l70 -712h-144zM274 300h193l-3 47q-10 160 -13 278h-2q-70 -140 -148 -278z" />
    <glyph glyph-name="Beta" unicode="&#x392;" horiz-adv-x="650" 
d="M19 0l177 712h236q118 0 176.5 -42t58.5 -116q0 -64 -39 -117t-129 -78v-2q101 -24 101 -134q0 -40 -17 -78.5t-50.5 -71.5t-89.5 -53t-126 -20h-298zM346 303h-105l-45 -182h119q139 0 139 106q0 41 -25.5 58.5t-82.5 17.5zM414 592h-101l-43 -173h114q135 0 135 100
q0 73 -105 73z" />
    <glyph glyph-name="Gamma" unicode="&#x393;" horiz-adv-x="508" 
d="M166 0h-147l177 712h416l-31 -126h-269z" />
    <glyph glyph-name="Delta" unicode="&#x394;" horiz-adv-x="698" 
d="M564 712l68 -712h-692l426 712h198zM177 126h304l-16 221q-10 151 -14 278h-2q-65 -133 -147 -278z" />
    <glyph glyph-name="Epsilon" unicode="&#x395;" horiz-adv-x="633" 
d="M688 712l-31 -126h-345l-40 -161h322l-32 -125h-322l-43 -174h354l-31 -126h-501l177 712h492z" />
    <glyph glyph-name="Zeta" unicode="&#x396;" horiz-adv-x="582" 
d="M659 712l-34 -137l-456 -449v-2h361l-31 -124h-542l34 137l456 449v2h-328l31 124h509z" />
    <glyph glyph-name="Eta" unicode="&#x397;" horiz-adv-x="750" 
d="M782 712l-177 -712h-147l76 307h-292l-76 -307h-147l177 712h147l-69 -279h292l69 279h147z" />
    <glyph glyph-name="Theta" unicode="&#x398;" horiz-adv-x="748" 
d="M454 728q135 0 210.5 -79.5t75.5 -216.5q0 -79 -25.5 -156.5t-73 -143.5t-125 -107t-172.5 -41q-135 0 -210 79.5t-75 216.5q0 79 25.5 156.5t72.5 143.5t124.5 107t172.5 41zM442 604q-75 0 -131.5 -52t-82 -122t-25.5 -141q0 -84 40 -132.5t113 -48.5q57 0 104 30.5
t76 78t44.5 101.5t15.5 106q0 83 -40.5 131.5t-113.5 48.5zM547 413l-29 -113h-266l29 113h266z" />
    <glyph glyph-name="Iota" unicode="&#x399;" horiz-adv-x="311" 
d="M343 712l-177 -712h-147l177 712h147z" />
    <glyph glyph-name="Kappa" unicode="&#x39a;" horiz-adv-x="663" 
d="M750 712l-357 -345l203 -367h-171l-171 348h-2l-86 -348h-147l177 712h147l-75 -301h2l292 301h188z" />
    <glyph glyph-name="Lambda" unicode="&#x39b;" horiz-adv-x="684" 
d="M556 712l62 -712h-148l-19 342q-9 159 -10 275h-2q-68 -144 -140 -275l-189 -342h-170l416 712h200z" />
    <glyph glyph-name="Mu" unicode="&#x39c;" horiz-adv-x="984" 
d="M1016 712l-177 -712h-141l88 354q35 142 73 267h-2q-72 -139 -142 -262l-202 -359h-168l-24 359q-9 150 -10 262h-2q-32 -148 -61 -267l-88 -354h-141l177 712h227l22 -327q9 -158 8 -262h2q64 142 132 262l184 327h245z" />
    <glyph glyph-name="Nu" unicode="&#x39d;" horiz-adv-x="776" 
d="M808 712l-177 -712h-197l-72 289q-38 155 -66 294h-2q-33 -177 -66 -309l-68 -274h-141l177 712h197l72 -289q27 -112 66 -294h2q27 155 66 309l68 274h141z" />
    <glyph glyph-name="Xi" unicode="&#x39e;" horiz-adv-x="675" 
d="M598 147l-36 -147h-575l36 147h575zM638 432l-36 -147h-513l36 147h513zM725 712l-36 -147h-547l36 147h547z" />
    <glyph glyph-name="Omicron" unicode="&#x39f;" horiz-adv-x="748" 
d="M448 728q137 0 213.5 -82t76.5 -222q0 -77 -25 -153.5t-71.5 -141t-122.5 -105t-169 -40.5q-137 0 -213 81.5t-76 222.5q0 61 15 122.5t47 119t76.5 101.5t109 70.5t139.5 26.5zM442 598q-55 0 -101 -29.5t-74 -76t-43 -99.5t-15 -104q0 -82 38.5 -128.5t108.5 -46.5
q73 0 128.5 51t80.5 120t25 139q0 81 -38.5 127.5t-109.5 46.5z" />
    <glyph glyph-name="Pi" unicode="&#x3a0;" horiz-adv-x="739" 
d="M771 712l-177 -712h-146l146 586h-282l-146 -586h-147l177 712h575z" />
    <glyph glyph-name="Rho" unicode="&#x3a1;" horiz-adv-x="636" 
d="M19 0l177 712h219q126 0 189 -54.5t63 -153.5q0 -43 -16.5 -86t-49.5 -81t-90 -61.5t-130 -23.5h-152l-63 -252h-147zM405 590h-92l-54 -216h122q70 0 103 35t33 82q0 99 -112 99z" />
    <glyph glyph-name="Sigma" unicode="&#x3a3;" horiz-adv-x="585" 
d="M665 712l-31 -124h-348v-2l118 -236l-230 -224v-2h359l-31 -124h-542l35 141l239 233l-114 226l28 112h517z" />
    <glyph glyph-name="Tau" unicode="&#x3a4;" horiz-adv-x="615" 
d="M719 712l-31 -126h-224l-146 -586h-147l146 586h-224l31 126h595z" />
    <glyph glyph-name="Upsilon" unicode="&#x3a5;" horiz-adv-x="638" 
d="M749 712l-351 -435l-69 -277h-147l69 277l-135 435h149l35 -134q22 -86 39 -181h2q57 90 127 181l101 134h180z" />
    <glyph glyph-name="Phi" unicode="&#x3a6;" horiz-adv-x="834" 
d="M821 397q0 -64 -23 -124.5t-67.5 -112.5t-121 -83.5t-173.5 -31.5l-19 -75h-141l20 80q-113 16 -172 85.5t-59 185.5q0 49 13.5 97.5t44 95t74.5 81.5t109.5 56.5t144.5 21.5l18 69h141l-19 -74q112 -17 171 -86.5t59 -184.5zM213 329q0 -132 113 -158l95 380
q-102 -8 -155 -75t-53 -147zM561 546l-95 -379q52 4 92.5 26.5t64 55t35.5 68t12 71.5q0 64 -28 104.5t-81 53.5z" />
    <glyph glyph-name="Chi" unicode="&#x3a7;" horiz-adv-x="630" 
d="M730 712l-305 -357l139 -355h-156l-83 245h-2l-197 -245h-186l319 369l-131 343h153l77 -239h2l187 239h183z" />
    <glyph glyph-name="Psi" unicode="&#x3a8;" horiz-adv-x="841" 
d="M768 712h147l-67 -268q-38 -142 -128 -210t-249 -72l-40 -162h-147l41 166q-121 13 -179.5 68t-58.5 159q0 52 16 115l51 204h147l-52 -208q-12 -50 -12 -86q0 -59 28.5 -89.5t90.5 -37.5l105 421h147l-105 -423q88 5 134.5 46.5t69.5 132.5z" />
    <glyph glyph-name="Omega" unicode="&#x3a9;" horiz-adv-x="734" 
d="M455 728q129 0 202.5 -61.5t73.5 -180.5q0 -104 -52 -190.5t-156 -169.5v-2h148l-31 -124h-294l32 130q193 150 193 318q0 73 -36.5 111.5t-99.5 38.5q-69 0 -121 -43t-76 -102.5t-24 -122.5q0 -100 64 -200l-32 -130h-278l31 124h152v2q-80 115 -80 232q0 65 24.5 129
t70 118.5t121 88.5t168.5 34z" />
    <glyph glyph-name="Iotadieresis" unicode="&#x3aa;" horiz-adv-x="311" 
d="M343 712l-177 -712h-147l177 712h147zM274 916l-30 -120h-123l30 120h123zM491 916l-30 -120h-123l30 120h123z" />
    <glyph glyph-name="Upsilondieresis" unicode="&#x3ab;" horiz-adv-x="638" 
d="M749 712l-351 -435l-69 -277h-147l69 277l-135 435h149l35 -134q22 -86 39 -181h2q57 90 127 181l101 134h180zM404 889l-30 -120h-123l30 120h123zM621 889l-30 -120h-123l30 120h123z" />
    <glyph glyph-name="alphatonos" unicode="&#x3ac;" horiz-adv-x="613" 
d="M304 521q48 0 84.5 -23.5t49.5 -66.5h2q10 37 27 77h136q-31 -77 -55 -180l-39 -160q-6 -22 -6 -36q0 -31 33 -31q12 0 25 3l-26 -103q-35 -9 -77 -9q-89 0 -103 67h-2q-66 -72 -148 -72q-84 0 -130 52.5t-46 145.5q0 55 18.5 113t51.5 108t87 82.5t118 32.5zM319 414
q-44 0 -77.5 -34.5t-49 -80.5t-15.5 -93q0 -53 21.5 -82.5t60.5 -29.5q44 0 77.5 34.5t49 80.5t15.5 93q0 53 -21.5 82.5t-60.5 29.5zM515 732l-109 -164h-104l76 164h137z" />
    <glyph glyph-name="epsilontonos" unicode="&#x3ad;" horiz-adv-x="518" 
d="M310 524q91 0 141 -40.5t50 -115.5q0 -17 -2 -27h-139q1 6 1 16q0 64 -69 64q-38 0 -59 -19t-21 -44t19.5 -39t55.5 -14h44l-25 -101h-56q-51 0 -77 -18.5t-26 -44.5q0 -25 20 -39.5t55 -14.5q84 0 102 76h140q-21 -88 -86.5 -133.5t-170.5 -45.5q-93 0 -146 37t-53 103
q0 109 135 146v2q-65 30 -65 87q0 64 60.5 114.5t171.5 50.5zM489 732l-109 -164h-104l76 164h137z" />
    <glyph glyph-name="etatonos" unicode="&#x3ae;" horiz-adv-x="616" 
d="M417 520q75 0 116 -38.5t41 -111.5q0 -34 -10 -73l-120 -482h-140l119 479q7 28 7 52q0 64 -67 64q-45 0 -81 -35.5t-53 -102.5l-68 -272h-140l84 337q6 25 6 41q0 33 -32 33q-14 0 -26 -3l25 100q34 8 63 8q93 0 99 -82h2q78 86 175 86zM510 732l-109 -164h-104l76 164
h137z" />
    <glyph glyph-name="iotatonos" unicode="&#x3af;" horiz-adv-x="316" 
d="M126 508h140l-73 -293q-10 -38 -10 -59q0 -51 55 -51q15 0 31 4l-28 -110q-24 -6 -59 -6q-74 0 -109 30t-35 96q0 33 13 87zM371 732l-109 -164h-104l76 164h137z" />
    <glyph glyph-name="upsilondieresistonos" unicode="&#x3b0;" horiz-adv-x="602" 
d="M145 516q55 0 82 -25t27 -84q0 -27 -11 -71l-34 -135q-6 -24 -6 -42q0 -66 75 -66q44 0 77 34t50 88t24.5 106.5t7.5 101.5q0 39 -7 85h136q6 -43 6 -91q0 -63 -9 -121.5t-31 -116.5t-56 -100t-89 -68.5t-124 -26.5q-199 0 -199 170q0 29 9 65l27 108q8 32 8 48
q0 32 -32 32q-14 0 -26 -3l26 103q35 9 69 9zM272 697l-29 -117h-113l29 117h113zM465 724l-93 -156h-95l72 156h116zM599 697l-29 -117h-113l29 117h113z" />
    <glyph glyph-name="alpha" unicode="&#x3b1;" horiz-adv-x="613" 
d="M304 521q48 0 84.5 -23.5t49.5 -66.5h2q10 37 27 77h136q-31 -77 -55 -180l-39 -160q-6 -22 -6 -36q0 -31 33 -31q12 0 25 3l-26 -103q-35 -9 -77 -9q-89 0 -103 67h-2q-66 -72 -148 -72q-84 0 -130 52.5t-46 145.5q0 55 18.5 113t51.5 108t87 82.5t118 32.5zM319 414
q-44 0 -77.5 -34.5t-49 -80.5t-15.5 -93q0 -53 21.5 -82.5t60.5 -29.5q44 0 77.5 34.5t49 80.5t15.5 93q0 53 -21.5 82.5t-60.5 29.5z" />
    <glyph glyph-name="beta" unicode="&#x3b2;" horiz-adv-x="606" 
d="M401 728q98 0 152 -46t54 -127q0 -60 -42 -108t-125 -66v-2q54 -15 86 -55.5t32 -101.5q0 -87 -68 -159.5t-189 -72.5q-110 0 -141 64h-2l-59 -239h-140l171 685q27 110 97.5 169t173.5 59zM393 624q-49 0 -79 -33.5t-48 -105.5l-69 -275q-4 -15 -4 -32q0 -84 95 -84
q62 0 96.5 41.5t34.5 88.5q0 101 -124 101h-10l27 109h18q71 0 108 34t37 79q0 37 -21.5 57t-60.5 20z" />
    <glyph glyph-name="gamma" unicode="&#x3b3;" horiz-adv-x="556" 
d="M458 508h151q-50 -143 -125 -257t-202 -245q-25 -100 -58 -191h-140q37 101 55 179.5t18 166.5q0 43 -3.5 81.5t-12 79t-27 65t-44.5 24.5q-9 0 -23 -2l25 99q29 9 59 9q78 0 110 -62.5t32 -204.5q0 -44 -5 -92h2q128 168 188 350z" />
    <glyph glyph-name="delta" unicode="&#x3b4;" horiz-adv-x="590" 
d="M394 722q121 0 214 -30l-27 -111q-87 39 -181 39q-67 0 -67 -33q0 -17 20 -34.5t68 -48.5q132 -88 132 -224q0 -52 -19.5 -103.5t-56 -95t-95.5 -70.5t-130 -27q-105 0 -165 54.5t-60 151.5q0 91 61.5 170.5t182.5 114.5v2q-41 31 -61 57.5t-20 56.5q0 53 48.5 92
t155.5 39zM336 402q-80 -27 -121.5 -87t-41.5 -123q0 -48 22.5 -74.5t64.5 -26.5q65 0 105 54.5t40 114.5q0 94 -69 142z" />
    <glyph glyph-name="epsilon" unicode="&#x3b5;" horiz-adv-x="518" 
d="M310 524q91 0 141 -40.5t50 -115.5q0 -17 -2 -27h-139q1 6 1 16q0 64 -69 64q-38 0 -59 -19t-21 -44t19.5 -39t55.5 -14h44l-25 -101h-56q-51 0 -77 -18.5t-26 -44.5q0 -25 20 -39.5t55 -14.5q84 0 102 76h140q-21 -88 -86.5 -133.5t-170.5 -45.5q-93 0 -146 37t-53 103
q0 109 135 146v2q-65 30 -65 87q0 64 60.5 114.5t171.5 50.5z" />
    <glyph glyph-name="zeta" unicode="&#x3b6;" horiz-adv-x="482" 
d="M175 712h401l-25 -101q-185 -89 -279.5 -195t-94.5 -201q0 -43 26.5 -67t88.5 -38q56 -13 80 -42.5t24 -77.5q0 -67 -44 -135h-119q32 54 32 88q0 23 -17 36.5t-61 22.5q-87 17 -125.5 57.5t-38.5 115.5q0 106 91.5 224.5t259.5 209.5v2h-224z" />
    <glyph glyph-name="eta" unicode="&#x3b7;" horiz-adv-x="616" 
d="M417 520q75 0 116 -38.5t41 -111.5q0 -34 -10 -73l-120 -482h-140l119 479q7 28 7 52q0 64 -67 64q-45 0 -81 -35.5t-53 -102.5l-68 -272h-140l84 337q6 25 6 41q0 33 -32 33q-14 0 -26 -3l25 100q34 8 63 8q93 0 99 -82h2q78 86 175 86z" />
    <glyph glyph-name="theta" unicode="&#x3b8;" horiz-adv-x="623" 
d="M406 726q108 0 163.5 -63t55.5 -183q0 -79 -22.5 -163t-65 -159.5t-113 -123.5t-155.5 -48q-108 0 -164 63.5t-56 183.5q0 61 14 127.5t43.5 132t70.5 117t101 84t128 32.5zM277 88q60 0 106 62.5t74 156.5h-263q-7 -43 -7 -81q0 -138 90 -138zM398 624q-61 0 -107 -62.5
t-74 -156.5h263q7 43 7 83q0 136 -89 136z" />
    <glyph glyph-name="iota" unicode="&#x3b9;" horiz-adv-x="316" 
d="M126 508h140l-73 -293q-10 -38 -10 -59q0 -51 55 -51q15 0 31 4l-28 -110q-24 -6 -59 -6q-74 0 -109 30t-35 96q0 33 13 87z" />
    <glyph glyph-name="kappa" unicode="&#x3ba;" horiz-adv-x="560" 
d="M559 515q25 0 52 -9l-28 -111q-11 3 -26 3q-45 0 -93.5 -28.5t-128.5 -98.5l-6 -5l181 -266h-155l-122 181l-60 -52l-32 -129h-140l127 508h140l-52 -207h2l116 105q70 63 119.5 86t105.5 23z" />
    <glyph glyph-name="lambda" unicode="&#x3bb;" horiz-adv-x="597" 
d="M256 721q79 0 122 -51t60 -180l37 -291q8 -61 22.5 -81.5t39.5 -20.5q6 0 14 2l-24 -100q-21 -7 -50 -7q-63 0 -92 30t-37 116q-3 31 -10.5 106.5t-11.5 116.5h-1q-56 -87 -136 -208l-101 -153h-158l352 503q-6 61 -23 85t-54 24q-27 0 -51 -8l26 106q30 11 76 11z" />
    <glyph glyph-name="mu" unicode="&#x3bc;" horiz-adv-x="613" 
d="M458 508h140l-84 -340q-6 -22 -6 -36q0 -31 33 -31q11 0 25 3l-26 -105q-25 -7 -61 -7q-90 0 -96 81h-2q-21 -36 -61 -57.5t-85 -21.5q-58 0 -84 34l-53 -213h-140l173 693h140l-73 -292q-6 -27 -6 -46q0 -72 72 -72q42 0 76 35.5t51 102.5z" />
    <glyph glyph-name="nu" unicode="&#x3bd;" horiz-adv-x="542" 
d="M132 516q58 0 84.5 -36t24.5 -118l-6 -256h2q95 136 138.5 215.5t60.5 147.5q4 19 6 39h142q0 -23 -6 -47q-21 -83 -75 -174.5t-197 -286.5h-186l-12 323q-1 51 -11 69.5t-33 18.5q-11 0 -20 -3l25 98q28 10 63 10z" />
    <glyph glyph-name="xi" unicode="&#x3be;" horiz-adv-x="487" 
d="M586 712l-25 -101h-97q-100 0 -147.5 -36.5t-47.5 -85.5q0 -35 28 -54t77 -19h99l-25 -100h-95q-96 0 -139.5 -37t-43.5 -84q0 -35 25 -53.5t88 -30.5q64 -12 91 -44.5t27 -86.5q0 -64 -41 -125h-119q31 47 31 85q0 26 -19 41.5t-67 22.5q-87 13 -127.5 52.5t-40.5 107.5
q0 74 50.5 135.5t151.5 83.5v2q-80 23 -80 93q0 42 26.5 79t77.5 52v2h-98l25 101h415z" />
    <glyph glyph-name="omicron" unicode="&#x3bf;" horiz-adv-x="590" 
d="M332 524q109 0 167 -59t58 -165q0 -53 -19.5 -107.5t-55.5 -101.5t-95 -77t-131 -30q-108 0 -165.5 59t-57.5 165q0 53 19.5 107.5t55.5 101.5t94.5 77t129.5 30zM321 416q-47 0 -81.5 -36.5t-48.5 -81.5t-14 -89q0 -56 23 -86.5t68 -30.5q47 0 81.5 36.5t48.5 81.5
t14 89q0 56 -23 86.5t-68 30.5z" />
    <glyph glyph-name="pi" unicode="&#x3c0;" horiz-adv-x="672" 
d="M717 508l-26 -104h-100l-53 -215q-8 -29 -8 -45q0 -26 12 -36.5t38 -10.5q9 0 21 2l-26 -100q-25 -7 -55 -7q-69 0 -102 27t-33 90q0 32 12 77l54 218h-172l-100 -404h-140l100 404h-93l26 104h645z" />
    <glyph glyph-name="rho" unicode="&#x3c1;" horiz-adv-x="602" 
d="M344 524q109 0 167 -59t58 -165q0 -52 -18.5 -106t-52 -100.5t-88.5 -76t-122 -29.5q-91 0 -133 70h-2l-60 -243h-140l117 470q25 99 96 169t178 70zM333 416q-47 0 -81.5 -36t-48.5 -80.5t-14 -87.5q0 -56 23 -86.5t68 -30.5q47 0 81.5 36t48.5 80.5t14 87.5
q0 56 -23 86.5t-68 30.5z" />
    <glyph glyph-name="sigmafinal" unicode="&#x3c2;" horiz-adv-x="552" 
d="M331 524q107 0 160 -49t53 -137q0 -20 -3 -43h-145q3 15 3 27q0 44 -21 69.5t-63 25.5q-60 0 -97.5 -58t-37.5 -116q0 -95 102 -117q72 -15 102 -46.5t30 -83.5q0 -73 -46 -141h-119q33 47 33 90q0 27 -19 43t-65 23q-169 25 -169 197q0 54 19 108.5t55 101.5t95.5 76.5
t132.5 29.5z" />
    <glyph glyph-name="sigma" unicode="&#x3c3;" horiz-adv-x="616" 
d="M669 508l-25 -101h-147v-2q49 -49 49 -129q0 -49 -18.5 -99.5t-53.5 -94t-92 -71t-126 -27.5q-108 0 -166.5 58t-58.5 162q0 51 19.5 103.5t55 98t93.5 74t129 28.5h341zM318 400q-47 0 -81 -34.5t-48 -77t-14 -84.5q0 -53 23.5 -82.5t68.5 -29.5q47 0 81 34.5t48 77
t14 84.5q0 53 -23.5 82.5t-68.5 29.5z" />
    <glyph glyph-name="tau" unicode="&#x3c4;" horiz-adv-x="468" 
d="M522 508l-25 -101h-161l-54 -218q-8 -29 -8 -45q0 -26 12 -36.5t38 -10.5q9 0 21 2l-26 -100q-25 -7 -55 -7q-69 0 -102 27t-33 90q0 32 12 77l55 221h-149l25 101h450z" />
    <glyph glyph-name="upsilon" unicode="&#x3c5;" horiz-adv-x="602" 
d="M145 516q55 0 82 -25t27 -84q0 -27 -11 -71l-34 -135q-6 -24 -6 -42q0 -66 75 -66q44 0 77 34t50 88t24.5 106.5t7.5 101.5q0 39 -7 85h136q6 -43 6 -91q0 -63 -9 -121.5t-31 -116.5t-56 -100t-89 -68.5t-124 -26.5q-199 0 -199 170q0 29 9 65l27 108q8 32 8 48
q0 32 -32 32q-14 0 -26 -3l26 103q35 9 69 9z" />
    <glyph glyph-name="phi" unicode="&#x3c6;" horiz-adv-x="795" 
d="M433 662h133l-35 -141q110 -13 170 -73.5t60 -160.5q0 -53 -21 -105t-61 -97t-108.5 -73t-154.5 -28h-19l-42 -169h-133l43 172q-110 12 -170.5 73t-60.5 161q0 53 21 105t61.5 97t108.5 73t152 28h22zM175 219q0 -118 114 -133l85 338h-14q-63 -1 -106.5 -35t-61 -78
t-17.5 -92zM506 422l-84 -338h12q62 1 106 35.5t62 79t18 91.5q0 117 -114 132z" />
    <glyph glyph-name="chi" unicode="&#x3c7;" horiz-adv-x="601" 
d="M142 521q64 0 94 -29t45 -103l23 -110h2l187 229h168l-306 -358l36 -153q12 -50 30.5 -67.5t50.5 -17.5q17 0 32 3l-24 -100q-29 -8 -68 -8q-60 0 -90 29.5t-47 103.5l-23 97h-2l-192 -222h-168l314 348l-39 165q-12 52 -30 70t-52 18q-18 0 -36 -5l25 100q32 10 70 10z
" />
    <glyph glyph-name="psi" unicode="&#x3c8;" horiz-adv-x="823" 
d="M795 446q0 -76 -10.5 -140t-37.5 -123.5t-68.5 -101t-107.5 -66t-151 -25.5l-44 -175h-140l44 178q-223 19 -223 205q0 29 12 80l57 230h140l-60 -244q-7 -27 -7 -51q0 -100 108 -115l140 564h140l-141 -567q211 12 211 353q0 22 -4 60h138q4 -40 4 -62z" />
    <glyph glyph-name="omega" unicode="&#x3c9;" horiz-adv-x="832" 
d="M624 508h150q20 -69 20 -145q0 -64 -16.5 -128.5t-48.5 -121t-85.5 -92t-119.5 -35.5q-117 0 -138 105h-2q-50 -105 -180 -105q-169 0 -169 163q0 73 37 175t97 184h152q-61 -79 -99.5 -176.5t-38.5 -163.5q0 -77 60 -77q62 0 83 84l53 212h140l-49 -196q-5 -19 -5 -40
q0 -60 54 -60q35 0 61.5 29t40 73.5t20 88t6.5 83.5q0 76 -23 143z" />
    <glyph glyph-name="iotadieresis" unicode="&#x3ca;" horiz-adv-x="316" 
d="M126 508h140l-73 -293q-10 -38 -10 -59q0 -51 55 -51q15 0 31 4l-28 -110q-24 -6 -59 -6q-74 0 -109 30t-35 96q0 33 13 87zM200 712l-30 -120h-123l30 120h123zM417 712l-30 -120h-123l30 120h123z" />
    <glyph glyph-name="upsilondieresis" unicode="&#x3cb;" horiz-adv-x="602" 
d="M145 516q55 0 82 -25t27 -84q0 -27 -11 -71l-34 -135q-6 -24 -6 -42q0 -66 75 -66q44 0 77 34t50 88t24.5 106.5t7.5 101.5q0 39 -7 85h136q6 -43 6 -91q0 -63 -9 -121.5t-31 -116.5t-56 -100t-89 -68.5t-124 -26.5q-199 0 -199 170q0 29 9 65l27 108q8 32 8 48
q0 32 -32 32q-14 0 -26 -3l26 103q35 9 69 9zM336 712l-30 -120h-123l30 120h123zM553 712l-30 -120h-123l30 120h123z" />
    <glyph glyph-name="omicrontonos" unicode="&#x3cc;" horiz-adv-x="590" 
d="M332 524q109 0 167 -59t58 -165q0 -53 -19.5 -107.5t-55.5 -101.5t-95 -77t-131 -30q-108 0 -165.5 59t-57.5 165q0 53 19.5 107.5t55.5 101.5t94.5 77t129.5 30zM321 416q-47 0 -81.5 -36.5t-48.5 -81.5t-14 -89q0 -56 23 -86.5t68 -30.5q47 0 81.5 36.5t48.5 81.5
t14 89q0 56 -23 86.5t-68 30.5zM513 732l-109 -164h-104l76 164h137z" />
    <glyph glyph-name="upsilontonos" unicode="&#x3cd;" horiz-adv-x="602" 
d="M145 516q55 0 82 -25t27 -84q0 -27 -11 -71l-34 -135q-6 -24 -6 -42q0 -66 75 -66q44 0 77 34t50 88t24.5 106.5t7.5 101.5q0 39 -7 85h136q6 -43 6 -91q0 -63 -9 -121.5t-31 -116.5t-56 -100t-89 -68.5t-124 -26.5q-199 0 -199 170q0 29 9 65l27 108q8 32 8 48
q0 32 -32 32q-14 0 -26 -3l26 103q35 9 69 9zM507 732l-109 -164h-104l76 164h137z" />
    <glyph glyph-name="omegatonos" unicode="&#x3ce;" horiz-adv-x="832" 
d="M624 508h150q20 -69 20 -145q0 -64 -16.5 -128.5t-48.5 -121t-85.5 -92t-119.5 -35.5q-117 0 -138 105h-2q-50 -105 -180 -105q-169 0 -169 163q0 73 37 175t97 184h152q-61 -79 -99.5 -176.5t-38.5 -163.5q0 -77 60 -77q62 0 83 84l53 212h140l-49 -196q-5 -19 -5 -40
q0 -60 54 -60q35 0 61.5 29t40 73.5t20 88t6.5 83.5q0 76 -23 143zM654 732l-109 -164h-104l76 164h137z" />
    <glyph glyph-name="Iegravecy" unicode="&#x400;" horiz-adv-x="633" 
d="M688 712l-31 -126h-345l-40 -161h322l-32 -125h-322l-43 -174h354l-31 -126h-501l177 712h492zM483 906l46 -146h-104l-109 146h167z" />
    <glyph glyph-name="Iocy" unicode="&#x401;" horiz-adv-x="633" 
d="M688 712l-31 -126h-345l-40 -161h322l-32 -125h-322l-43 -174h354l-31 -126h-501l177 712h492zM429 889l-30 -120h-123l30 120h123zM646 889l-30 -120h-123l30 120h123z" />
    <glyph glyph-name="Djecy" unicode="&#x402;" horiz-adv-x="802" 
d="M719 712l-31 -126h-224l-37 -149q60 25 132 25q102 0 156 -54.5t55 -149.5q0 -50 -18 -97.5t-52.5 -86.5t-91 -63t-127.5 -24q-59 0 -99 15l30 121q30 -10 73 -10q70 0 104 38t34 86q0 99 -113 99q-62 0 -114 -23l-78 -313h-147l146 586h-224l31 126h595z" />
    <glyph glyph-name="Gjecy" unicode="&#x403;" horiz-adv-x="508" 
d="M166 0h-147l177 712h416l-31 -126h-269zM608 906l-171 -146h-116l108 146h179z" />
    <glyph glyph-name="Ecy" unicode="&#x404;" horiz-adv-x="709" 
d="M713 451h-148q2 18 2 28q0 56 -32.5 87.5t-90.5 31.5q-75 0 -128.5 -50t-82.5 -129h248l-31 -126h-241v-11q0 -77 34.5 -122.5t100.5 -45.5q56 0 103 32.5t70 89.5h151q-38 -119 -127 -185.5t-210 -66.5q-130 0 -202 77.5t-72 210.5q0 62 15.5 125t48 122.5t78.5 106
t113 74.5t145 28q120 0 190 -63.5t70 -169.5q0 -24 -4 -44z" />
    <glyph glyph-name="Dzecy" unicode="&#x405;" horiz-adv-x="630" 
d="M395 728q244 0 244 -181q0 -23 -8 -53h-149q3 15 3 29q0 88 -108 88q-50 0 -84 -24.5t-34 -61.5q0 -34 29 -54.5t100 -43.5q46 -15 74 -28.5t58.5 -36.5t45 -58.5t14.5 -84.5q0 -89 -81 -162t-220 -73q-125 0 -194 50t-69 144q0 28 7 56h152q-4 -17 -4 -36q0 -95 125 -95
q62 0 95 29.5t33 64.5q0 21 -6.5 36t-25 27t-35.5 19t-53 20q-40 14 -61.5 22.5t-52 26.5t-46 37t-27.5 49.5t-12 69.5q0 84 78.5 154t211.5 70z" />
    <glyph glyph-name="Icy" unicode="&#x406;" horiz-adv-x="311" 
d="M343 712l-177 -712h-147l177 712h147z" />
    <glyph glyph-name="Yicy" unicode="&#x407;" horiz-adv-x="311" 
d="M343 712l-177 -712h-147l177 712h147zM267 889l-30 -120h-123l30 120h123zM484 889l-30 -120h-123l30 120h123z" />
    <glyph glyph-name="Jecy" unicode="&#x408;" horiz-adv-x="392" 
d="M282 712h147l-125 -501q-28 -112 -95 -165t-184 -53q-41 0 -73 10l31 123q22 -5 40 -5q60 0 93.5 30t54.5 115z" />
    <glyph glyph-name="Ljecy" unicode="&#x409;" horiz-adv-x="1060" 
d="M767 712l-62 -252h72q126 0 189.5 -54.5t63.5 -153.5q0 -43 -17 -86t-49.5 -81t-90.5 -61.5t-131 -23.5h-299l146 586h-200q-42 -152 -78.5 -254.5t-70.5 -170t-72 -103.5t-76.5 -50t-90.5 -14q-31 0 -52 8l29 118q6 -2 17 -2q50 0 86 43.5t81.5 168t116.5 382.5h488z
M766 338h-91l-54 -216h121q70 0 103 35t33 82q0 99 -112 99z" />
    <glyph glyph-name="Njecy" unicode="&#x40a;" horiz-adv-x="1074" 
d="M782 712l-63 -252h72q125 0 188 -55t63 -153q0 -43 -16.5 -86t-49.5 -81t-90 -61.5t-130 -23.5h-298l76 307h-292l-76 -307h-147l177 712h147l-69 -279h292l69 279h147zM689 338l-54 -216h121q70 0 103 35t33 82q0 99 -112 99h-91z" />
    <glyph glyph-name="Tshecy" unicode="&#x40b;" horiz-adv-x="801" 
d="M719 712l-31 -126h-224l-42 -166q68 18 133 18q207 0 207 -175q0 -29 -12 -80l-45 -183h-147l45 182q5 23 5 39q0 91 -104 91q-59 0 -113 -18l-73 -294h-147l146 586h-224l31 126h595z" />
    <glyph glyph-name="Kjecy" unicode="&#x40c;" horiz-adv-x="663" 
d="M750 712l-357 -345l203 -367h-171l-171 348h-2l-86 -348h-147l177 712h147l-75 -301h2l292 301h188zM660 906l-171 -146h-116l108 146h179z" />
    <glyph glyph-name="Iigravecy" unicode="&#x40d;" horiz-adv-x="783" 
d="M815 712l-178 -712h-141l68 274q33 129 85 309h-2q-122 -188 -198 -294l-206 -289h-225l178 712h141l-69 -274q-33 -137 -85 -309h2q107 166 198 294l207 289h225zM557 906l46 -146h-104l-109 146h167z" />
    <glyph glyph-name="Ushortcy" unicode="&#x40e;" horiz-adv-x="682" 
d="M624 712h170l-420 -572q-60 -81 -119.5 -115t-128.5 -34q-50 0 -79 9l30 122q15 -5 37 -5q49 0 82 29.5t33 75.5q0 28 -15 90l-98 400h148l40 -205q23 -114 38 -206h2q71 109 138 206zM552 906h107q-20 -72 -75 -111.5t-133 -39.5q-68 0 -106 32.5t-38 90.5q0 8 2 28h83
q-1 -5 -1 -13q0 -51 67 -51q76 0 94 64z" />
    <glyph glyph-name="Dzhecy" unicode="&#x40f;" horiz-adv-x="740" 
d="M772 712l-177 -712h-223l-40 -160h-140l40 160h-213l177 712h147l-146 -586h282l146 586h147z" />
    <glyph glyph-name="Acy" unicode="&#x410;" horiz-adv-x="698" 
d="M488 0l-12 174h-273l-99 -174h-164l424 712h198l70 -712h-144zM274 300h193l-3 47q-10 160 -13 278h-2q-70 -140 -148 -278z" />
    <glyph glyph-name="Becy" unicode="&#x411;" horiz-adv-x="665" 
d="M697 712l-30 -122h-354l-37 -147h107q112 0 173 -54.5t61 -151.5q0 -42 -17 -83t-49 -76t-86.5 -56.5t-121.5 -21.5h-324l177 712h501zM354 321h-108l-50 -199h138q70 0 102 31.5t32 77.5q0 90 -114 90z" />
    <glyph glyph-name="Vecy" unicode="&#x412;" horiz-adv-x="650" 
d="M19 0l177 712h236q118 0 176.5 -42t58.5 -116q0 -64 -39 -117t-129 -78v-2q101 -24 101 -134q0 -40 -17 -78.5t-50.5 -71.5t-89.5 -53t-126 -20h-298zM346 303h-105l-45 -182h119q139 0 139 106q0 41 -25.5 58.5t-82.5 17.5zM414 592h-101l-43 -173h114q135 0 135 100
q0 73 -105 73z" />
    <glyph glyph-name="Gecy" unicode="&#x413;" horiz-adv-x="508" 
d="M166 0h-147l177 712h416l-31 -126h-269z" />
    <glyph glyph-name="Decy" unicode="&#x414;" horiz-adv-x="794" 
d="M804 712l-146 -586h90l-71 -286h-140l40 160h-480l-40 -160h-140l71 286h85q48 64 97 193t119 393h515zM511 126l115 460h-227q-87 -314 -172 -460h284z" />
    <glyph glyph-name="Iecy" unicode="&#x415;" horiz-adv-x="633" 
d="M688 712l-31 -126h-345l-40 -161h322l-32 -125h-322l-43 -174h354l-31 -126h-501l177 712h492z" />
    <glyph glyph-name="Zhecy" unicode="&#x416;" horiz-adv-x="918" 
d="M1003 712l-306 -346l154 -366h-162l-129 364h-2l-90 -364h-144l86 348h-2l-281 -348h-186l340 382l-138 330h157l114 -341h2l85 341h144l-81 -325h2l256 325h181z" />
    <glyph glyph-name="Zecy" unicode="&#x417;" horiz-adv-x="636" 
d="M407 727q117 0 181.5 -49.5t64.5 -136.5q0 -135 -180 -186v-2q110 -39 110 -145q0 -87 -78.5 -156t-220.5 -69q-129 0 -198.5 51t-69.5 148q0 24 6 50h154q-5 -25 -5 -41q0 -83 115 -83q70 0 107 33.5t37 72.5q0 38 -33 59t-96 21h-46l30 121h41q85 0 128.5 33.5
t43.5 76.5q0 36 -27.5 57t-75.5 21q-113 0 -144 -119h-158q26 115 108.5 179t205.5 64z" />
    <glyph glyph-name="Iicy" unicode="&#x418;" horiz-adv-x="783" 
d="M815 712l-178 -712h-141l68 274q33 129 85 309h-2q-122 -188 -198 -294l-206 -289h-225l178 712h141l-69 -274q-33 -137 -85 -309h2q107 166 198 294l207 289h225z" />
    <glyph glyph-name="Iishortcy" unicode="&#x419;" horiz-adv-x="783" 
d="M815 712l-178 -712h-141l68 274q33 129 85 309h-2q-122 -188 -198 -294l-206 -289h-225l178 712h141l-69 -274q-33 -137 -85 -309h2q107 166 198 294l207 289h225zM623 906h107q-20 -72 -75 -111.5t-133 -39.5q-68 0 -106 32.5t-38 90.5q0 8 2 28h83q-1 -5 -1 -13
q0 -51 67 -51q76 0 94 64z" />
    <glyph glyph-name="Kacy" unicode="&#x41a;" horiz-adv-x="663" 
d="M750 712l-357 -345l203 -367h-171l-171 348h-2l-86 -348h-147l177 712h147l-75 -301h2l292 301h188z" />
    <glyph glyph-name="Elcy" unicode="&#x41b;" horiz-adv-x="735" 
d="M767 712l-177 -712h-147l146 586h-200q-42 -152 -78.5 -254.5t-70.5 -170t-72 -103.5t-76.5 -50t-90.5 -14q-31 0 -52 8l29 118q6 -2 17 -2q50 0 86 43.5t81.5 168t116.5 382.5h488z" />
    <glyph glyph-name="Emcy" unicode="&#x41c;" horiz-adv-x="984" 
d="M1016 712l-177 -712h-141l88 354q35 142 73 267h-2q-72 -139 -142 -262l-202 -359h-168l-24 359q-9 150 -10 262h-2q-32 -148 -61 -267l-88 -354h-141l177 712h227l22 -327q9 -158 8 -262h2q64 142 132 262l184 327h245z" />
    <glyph glyph-name="Ency" unicode="&#x41d;" horiz-adv-x="750" 
d="M782 712l-177 -712h-147l76 307h-292l-76 -307h-147l177 712h147l-69 -279h292l69 279h147z" />
    <glyph glyph-name="Ocy" unicode="&#x41e;" horiz-adv-x="748" 
d="M448 728q137 0 213.5 -82t76.5 -222q0 -77 -25 -153.5t-71.5 -141t-122.5 -105t-169 -40.5q-137 0 -213 81.5t-76 222.5q0 61 15 122.5t47 119t76.5 101.5t109 70.5t139.5 26.5zM442 598q-55 0 -101 -29.5t-74 -76t-43 -99.5t-15 -104q0 -82 38.5 -128.5t108.5 -46.5
q73 0 128.5 51t80.5 120t25 139q0 81 -38.5 127.5t-109.5 46.5z" />
    <glyph glyph-name="Pecy" unicode="&#x41f;" horiz-adv-x="739" 
d="M771 712l-177 -712h-146l146 586h-282l-146 -586h-147l177 712h575z" />
    <glyph glyph-name="Ercy" unicode="&#x420;" horiz-adv-x="636" 
d="M19 0l177 712h219q126 0 189 -54.5t63 -153.5q0 -43 -16.5 -86t-49.5 -81t-90 -61.5t-130 -23.5h-152l-63 -252h-147zM405 590h-92l-54 -216h122q70 0 103 35t33 82q0 99 -112 99z" />
    <glyph glyph-name="Escy" unicode="&#x421;" horiz-adv-x="702" 
d="M453 728q118 0 187 -63.5t69 -169.5q0 -24 -4 -44h-148q2 18 2 28q0 56 -31.5 87.5t-87.5 31.5q-72 0 -126.5 -52t-79 -122.5t-24.5 -141.5q0 -77 33 -122.5t97 -45.5q55 0 101 32.5t68 89.5h151q-37 -119 -125.5 -185.5t-207.5 -66.5q-128 0 -198.5 77.5t-70.5 210.5
q0 62 15 125t47.5 122.5t78 106t111.5 74.5t143 28z" />
    <glyph glyph-name="Tecy" unicode="&#x422;" horiz-adv-x="615" 
d="M719 712l-31 -126h-224l-146 -586h-147l146 586h-224l31 126h595z" />
    <glyph glyph-name="Ucy" unicode="&#x423;" horiz-adv-x="682" 
d="M624 712h170l-420 -572q-60 -81 -119.5 -115t-128.5 -34q-50 0 -79 9l30 122q15 -5 37 -5q49 0 82 29.5t33 75.5q0 28 -15 90l-98 400h148l40 -205q23 -114 38 -206h2q71 109 138 206z" />
    <glyph glyph-name="Efcy" unicode="&#x424;" horiz-adv-x="862" 
d="M480 738h143l-20 -81q119 -17 182 -86t63 -184q0 -62 -23.5 -120t-69.5 -107.5t-124.5 -79.5t-179.5 -30l-19 -76h-143l21 81q-121 17 -183.5 85.5t-62.5 185.5q0 60 23 117t69 107.5t125 81t180 30.5zM214 331q0 -63 32 -103t94 -52l90 364q-106 -8 -161 -70.5
t-55 -138.5zM573 536l-91 -364q106 8 161 71t55 137q0 64 -32.5 104t-92.5 52z" />
    <glyph glyph-name="Hacy" unicode="&#x425;" horiz-adv-x="630" 
d="M730 712l-305 -357l139 -355h-156l-83 245h-2l-197 -245h-186l319 369l-131 343h153l77 -239h2l187 239h183z" />
    <glyph glyph-name="Tsecy" unicode="&#x426;" horiz-adv-x="770" 
d="M772 712l-146 -586h90l-71 -286h-140l40 160h-526l177 712h147l-146 -586h282l146 586h147z" />
    <glyph glyph-name="Checy" unicode="&#x427;" horiz-adv-x="679" 
d="M711 712l-177 -712h-147l66 265q-77 -18 -149 -18q-221 0 -221 175q0 29 12 80l52 210h147l-52 -209q-5 -18 -5 -39q0 -91 118 -91q67 0 129 18l80 321h147z" />
    <glyph glyph-name="Shacy" unicode="&#x428;" horiz-adv-x="1028" 
d="M1060 712l-177 -712h-864l177 712h147l-146 -586h212l146 586h147l-146 -586h212l146 586h146z" />
    <glyph glyph-name="Shchacy" unicode="&#x429;" horiz-adv-x="1050" 
d="M1060 712l-146 -586h90l-71 -286h-140l40 160h-814l177 712h147l-146 -586h212l146 586h147l-146 -586h212l146 586h146z" />
    <glyph glyph-name="Hardsigncy" unicode="&#x42a;" horiz-adv-x="757" 
d="M465 712l-63 -252h72q125 0 188 -54.5t63 -153.5q0 -43 -16.5 -86t-49.5 -81t-90 -61.5t-130 -23.5h-298l146 586h-194l31 126h341zM463 338h-91l-54 -216h121q70 0 103 35t33 82q0 99 -112 99z" />
    <glyph glyph-name="Yerucy" unicode="&#x42b;" horiz-adv-x="946" 
d="M343 712l-63 -252h72q125 0 188 -54.5t63 -153.5q0 -43 -16.5 -86t-49.5 -81t-90 -61.5t-130 -23.5h-298l177 712h147zM341 338h-91l-54 -216h121q70 0 103 35t33 82q0 99 -112 99zM978 712l-177 -712h-147l177 712h147z" />
    <glyph glyph-name="Softsigncy" unicode="&#x42c;" horiz-adv-x="635" 
d="M343 712l-63 -252h72q125 0 188 -54.5t63 -153.5q0 -43 -16.5 -86t-49.5 -81t-90 -61.5t-130 -23.5h-298l177 712h147zM341 338h-91l-54 -216h121q70 0 103 35t33 82q0 99 -112 99z" />
    <glyph glyph-name="Ereversedcy" unicode="&#x42d;" horiz-adv-x="710" 
d="M430 728q130 0 202 -77.5t72 -210.5q0 -62 -15.5 -125t-48 -122.5t-78.5 -106t-113 -74.5t-145 -28q-121 0 -192 63.5t-71 169.5q0 24 4 44h148q-2 -18 -2 -28q0 -56 33.5 -87.5t92.5 -31.5q75 0 128.5 50t82.5 129h-248l31 126h241v11q0 77 -34.5 122.5t-100.5 45.5
q-55 0 -101 -32.5t-69 -89.5h-151q38 119 126.5 185.5t207.5 66.5z" />
    <glyph glyph-name="Iucy" unicode="&#x42e;" horiz-adv-x="1035" 
d="M749 728q131 0 204 -80.5t73 -219.5q0 -61 -15 -123t-46.5 -120t-75.5 -102.5t-107 -71.5t-136 -27q-131 0 -203 80.5t-72 219.5v9h-132l-73 -293h-147l177 712h147l-73 -293h119q36 132 129 220.5t231 88.5zM655 114q69 0 122 51.5t77 121.5t24 140q0 80 -36 125.5
t-101 45.5q-53 0 -96.5 -30t-70 -76.5t-41 -100t-14.5 -105.5q0 -80 35.5 -126t100.5 -46z" />
    <glyph glyph-name="Iacy" unicode="&#x42f;" horiz-adv-x="662" 
d="M392 712h302l-177 -712h-147l65 264h-93q-17 0 -47 2l-189 -266h-168l232 309q-69 52 -69 159q0 44 16 85t48.5 78t91 59t135.5 22zM465 381l53 212h-132q-73 0 -106 -35.5t-33 -86.5q0 -90 114 -90h104z" />
    <glyph glyph-name="acy" unicode="&#x430;" horiz-adv-x="547" 
d="M311 524q195 0 195 -158q0 -31 -9 -67l-40 -160q-22 -90 -21 -139h-122q0 31 8 59h-2q-72 -71 -171 -71q-73 0 -112.5 36.5t-39.5 98.5q0 35 14.5 63.5t35.5 48t55 34t64 23t71 14.5t67.5 8t61.5 4l3 12q5 20 5 33q0 63 -72 63q-37 0 -62 -20.5t-33 -56.5h-136
q17 76 80 125.5t160 49.5zM337 201l8 32q-59 -4 -105 -11q-98 -16 -98 -80q0 -25 16.5 -39.5t47.5 -14.5q103 0 131 113z" />
    <glyph glyph-name="becy" unicode="&#x431;" 
d="M649 728l-29 -117q-52 -14 -168 -20q-114 -5 -168 -42t-94 -124h2q59 69 166 69q94 0 147 -55t53 -152q0 -49 -19.5 -101t-56 -97.5t-96.5 -75t-132 -29.5q-106 0 -160.5 58t-54.5 170q0 48 15 110q27 107 63 179t86 115t109 62.5t140 25.5q141 10 197 24zM318 392
q-48 0 -82.5 -35t-47.5 -77.5t-13 -83.5q0 -104 91 -104q47 0 81.5 34.5t49 77t14.5 83.5q0 105 -93 105z" />
    <glyph glyph-name="vecy" unicode="&#x432;" horiz-adv-x="549" 
d="M5 0l126 508h224q171 0 171 -119q0 -106 -119 -133v-2q77 -18 77 -101q0 -61 -54.5 -107t-162.5 -46h-262zM268 215h-75l-31 -124h95q47 0 68.5 20.5t21.5 47.5q0 56 -79 56zM314 417h-70l-30 -118h86q48 0 68.5 19t20.5 45q0 54 -75 54z" />
    <glyph glyph-name="gecy" unicode="&#x433;" horiz-adv-x="441" 
d="M494 508l-26 -104h-223l-100 -404h-140l126 508h363z" />
    <glyph glyph-name="decy" unicode="&#x434;" horiz-adv-x="640" 
d="M625 508l-100 -404h70l-66 -264h-140l40 160h-344l-40 -160h-140l66 264h64q39 45 76.5 133t91.5 271h422zM385 104l74 300h-148q-62 -202 -118 -300h192z" />
    <glyph glyph-name="iecy" unicode="&#x435;" horiz-adv-x="573" 
d="M531 225h-364q-4 -21 -4 -43q0 -51 25.5 -75t66.5 -24q38 0 67.5 20t40.5 51h143q-31 -73 -101 -121.5t-158 -48.5q-106 0 -161 57t-55 158q0 74 32 146.5t102 125.5t163 53q105 0 160 -55.5t55 -151.5q0 -40 -12 -92zM320 425q-42 0 -76.5 -28t-54.5 -84h222q2 16 2 22
q0 45 -25.5 67.5t-67.5 22.5z" />
    <glyph glyph-name="zhecy" unicode="&#x436;" horiz-adv-x="760" 
d="M815 508l-226 -242l120 -266h-158l-98 267h-2l-66 -267h-136l62 251h-2l-206 -251h-178l256 281l-110 227h143l101 -234h2l58 234h136l-54 -218h2l193 218h163z" />
    <glyph glyph-name="zecy" unicode="&#x437;" horiz-adv-x="516" 
d="M309 524q90 0 140 -37t50 -101q0 -95 -135 -131v-2q86 -30 86 -104q0 -64 -59.5 -114.5t-166.5 -50.5q-105 0 -160.5 38t-55.5 110q0 18 3 35h138q-3 -12 -3 -24q0 -56 79 -56q42 0 66 20t24 46q0 51 -89 51h-40l25 101h37q55 0 83.5 20t28.5 48q0 48 -65 48
q-73 0 -94 -76h-138q20 84 84 131.5t162 47.5z" />
    <glyph glyph-name="iicy" unicode="&#x438;" horiz-adv-x="678" 
d="M673 508l-126 -508h-140l47 189q20 83 57 199h-2q-59 -96 -130 -188l-156 -200h-218l126 508h140l-47 -190q-21 -83 -57 -198h2q65 105 130 188l156 200h218z" />
    <glyph glyph-name="iishortcy" unicode="&#x439;" horiz-adv-x="678" 
d="M673 508l-126 -508h-140l47 189q20 83 57 199h-2q-59 -96 -130 -188l-156 -200h-218l126 508h140l-47 -190q-21 -83 -57 -198h2q65 105 130 188l156 200h218zM521 712h107q-20 -72 -75 -111.5t-133 -39.5q-68 0 -106 32.5t-38 90.5q0 8 2 28h83q-1 -5 -1 -13
q0 -51 67 -51q76 0 94 64z" />
    <glyph glyph-name="kacy" unicode="&#x43a;" horiz-adv-x="560" 
d="M595 508l-253 -245l148 -263h-153l-129 244h-2l-61 -244h-140l126 508h140l-49 -199h2l193 199h178z" />
    <glyph glyph-name="elcy" unicode="&#x43b;" horiz-adv-x="574" 
d="M569 508l-126 -508h-140l100 404h-119q-46 -170 -91 -260.5t-89 -120t-109 -29.5q-31 0 -52 7l24 98q10 -2 19 -2q33 0 57.5 29t57.5 118.5t79 263.5h389z" />
    <glyph glyph-name="emcy" unicode="&#x43c;" horiz-adv-x="834" 
d="M829 508l-126 -508h-130l58 233q20 81 50 183h-2q-53 -99 -102 -181l-140 -235h-166l-25 235q-9 89 -12 181h-2q-20 -102 -40 -183l-58 -233h-129l126 508h210l22 -217q9 -91 12 -186h2q38 95 92 186l130 217h230z" />
    <glyph glyph-name="ency" unicode="&#x43d;" horiz-adv-x="613" 
d="M608 508l-126 -508h-140l51 206h-197l-51 -206h-140l126 508h140l-49 -198h197l49 198h140z" />
    <glyph glyph-name="ocy" unicode="&#x43e;" horiz-adv-x="590" 
d="M332 524q109 0 167 -59t58 -165q0 -53 -19.5 -107.5t-55.5 -101.5t-95 -77t-131 -30q-108 0 -165.5 59t-57.5 165q0 53 19.5 107.5t55.5 101.5t94.5 77t129.5 30zM321 416q-47 0 -81.5 -36.5t-48.5 -81.5t-14 -89q0 -56 23 -86.5t68 -30.5q47 0 81.5 36.5t48.5 81.5
t14 89q0 56 -23 86.5t-68 30.5z" />
    <glyph glyph-name="pecy" unicode="&#x43f;" horiz-adv-x="605" 
d="M600 508l-126 -508h-140l100 404h-189l-100 -404h-140l126 508h469z" />
    <glyph glyph-name="ercy" unicode="&#x440;" horiz-adv-x="598" 
d="M393 521q84 0 130 -52.5t46 -145.5q0 -55 -18.5 -113t-51.5 -108t-87 -82.5t-118 -32.5q-46 0 -80.5 20.5t-50.5 57.5h-2l-62 -250h-140l173 693h136l-12 -46h2q61 59 135 59zM339 414q-44 0 -77.5 -34.5t-49 -80.5t-15.5 -93q0 -53 21.5 -82.5t60.5 -29.5
q44 0 77.5 34.5t49 80.5t15.5 93q0 53 -21.5 82.5t-60.5 29.5z" />
    <glyph glyph-name="escy" unicode="&#x441;" horiz-adv-x="562" 
d="M330 524q100 0 157 -51.5t57 -136.5q0 -18 -2 -27h-146q2 10 2 19q0 41 -20 64.5t-56 23.5q-65 0 -105.5 -70t-40.5 -138q0 -55 21.5 -85.5t62.5 -30.5q37 0 67.5 26t43.5 71h147q-29 -93 -101.5 -149t-164.5 -56q-103 0 -161 59t-58 164q0 53 19 107t54 102t94 78
t130 30z" />
    <glyph glyph-name="tecy" unicode="&#x442;" horiz-adv-x="474" 
d="M531 508l-26 -104h-161l-100 -404h-140l100 404h-161l26 104h462z" />
    <glyph glyph-name="ucy" unicode="&#x443;" horiz-adv-x="504" 
d="M418 508h156l-309 -511q-65 -106 -129 -147t-160 -41q-39 0 -71 8l28 112q21 -8 52 -8q53 0 85 31.5t32 78.5q0 17 -5 64l-41 413h138l12 -170q8 -117 7 -213h2q57 122 108 213z" />
    <glyph glyph-name="efcy" unicode="&#x444;" horiz-adv-x="820" 
d="M639 521q73 0 113 -52t40 -144q0 -54 -18 -112t-50.5 -109t-85.5 -84t-115 -33q-60 0 -98 44l-54 -216h-140l50 201q-50 -29 -98 -29q-74 0 -114.5 52t-40.5 144q0 54 18 112t50 109t84.5 84t114.5 33q65 0 100 -46l59 237h140l-55 -220q49 29 100 29zM306 115l67 270
q-20 29 -58 29q-43 0 -75.5 -36t-47 -81t-14.5 -86q0 -56 19.5 -86.5t57.5 -30.5q24 0 51 21zM505 94q63 0 100 66.5t37 135.5q0 56 -20 87t-57 31q-24 0 -51 -20l-67 -272q18 -28 58 -28z" />
    <glyph glyph-name="hacy" unicode="&#x445;" horiz-adv-x="508" 
d="M566 508l-229 -253l114 -255h-148l-60 166h-2l-132 -166h-178l244 267l-107 241h146l57 -143h2l117 143h176z" />
    <glyph glyph-name="tsecy" unicode="&#x446;" horiz-adv-x="615" 
d="M600 508l-100 -404h70l-66 -264h-140l40 160h-399l126 508h140l-100 -404h189l100 404h140z" />
    <glyph glyph-name="checy" unicode="&#x447;" horiz-adv-x="580" 
d="M553 508l-126 -508h-140l45 179q-52 -13 -115 -13q-168 0 -168 146q0 22 8 54l35 142h140l-36 -145q-3 -13 -3 -25q0 -68 81 -68q40 0 82 11l57 227h140z" />
    <glyph glyph-name="shacy" unicode="&#x448;" horiz-adv-x="854" 
d="M849 508l-126 -508h-718l126 508h140l-100 -404h149l100 404h140l-100 -404h149l100 404h140z" />
    <glyph glyph-name="shchacy" unicode="&#x449;" horiz-adv-x="864" 
d="M849 508l-100 -404h70l-66 -264h-140l40 160h-648l126 508h140l-100 -404h149l100 404h140l-100 -404h149l100 404h140z" />
    <glyph glyph-name="hardsigncy" unicode="&#x44a;" horiz-adv-x="625" 
d="M340 508l-41 -164h72q100 0 151 -39t51 -114q0 -34 -12.5 -66.5t-38.5 -61t-71.5 -46t-104.5 -17.5h-272l100 404h-131l26 104h271zM274 243l-35 -142h103q46 0 69 24t23 57q0 61 -77 61h-83z" />
    <glyph glyph-name="yerucy" unicode="&#x44b;" horiz-adv-x="802" 
d="M271 508l-41 -164h72q100 0 151 -39t51 -114q0 -34 -12.5 -66.5t-38.5 -61t-71.5 -46t-104.5 -17.5h-272l126 508h140zM288 243h-83l-35 -142h103q46 0 69 24t23 57q0 61 -77 61zM797 508l-126 -508h-140l126 508h140z" />
    <glyph glyph-name="softsigncy" unicode="&#x44c;" horiz-adv-x="556" 
d="M271 508l-41 -164h72q100 0 151 -39t51 -114q0 -34 -12.5 -66.5t-38.5 -61t-71.5 -46t-104.5 -17.5h-272l126 508h140zM288 243h-83l-35 -142h103q46 0 69 24t23 57q0 61 -77 61z" />
    <glyph glyph-name="ereversedcy" unicode="&#x44d;" horiz-adv-x="562" 
d="M310 524q103 0 161 -59t58 -164q0 -53 -19 -107t-54 -102t-94 -78t-130 -30q-100 0 -157 51.5t-57 136.5q0 18 2 27h142q-2 -10 -2 -19q0 -43 21 -67.5t58 -24.5q46 0 80.5 34.5t52.5 86.5h-169l25 100h162q-2 53 -24 82t-63 29q-39 0 -70.5 -27t-45.5 -74h-143
q29 93 101.5 149t164.5 56z" />
    <glyph glyph-name="iucy" unicode="&#x44e;" horiz-adv-x="846" 
d="M588 524q109 0 167 -59t58 -165q0 -53 -19.5 -107.5t-55.5 -101.5t-95 -77t-131 -30q-106 0 -163.5 57.5t-59.5 160.5h-94l-50 -202h-140l126 508h140l-50 -202h84q29 92 102 155t181 63zM524 92q47 0 81.5 36.5t48.5 81.5t14 89q0 56 -23 86.5t-68 30.5
q-47 0 -81.5 -36.5t-48.5 -81.5t-14 -89q0 -56 23 -86.5t68 -30.5z" />
    <glyph glyph-name="iacy" unicode="&#x44f;" horiz-adv-x="563" 
d="M291 508h267l-126 -508h-135l41 166h-72q-14 0 -40 2l-127 -168h-154l168 208q-51 42 -51 122q0 73 56 125.5t173 52.5zM363 265l35 140h-95q-58 0 -84 -21t-26 -53q0 -66 99 -66h71z" />
    <glyph glyph-name="iegravecy" unicode="&#x450;" horiz-adv-x="573" 
d="M531 225h-364q-4 -21 -4 -43q0 -51 25.5 -75t66.5 -24q38 0 67.5 20t40.5 51h143q-31 -73 -101 -121.5t-158 -48.5q-106 0 -161 57t-55 158q0 74 32 146.5t102 125.5t163 53q105 0 160 -55.5t55 -151.5q0 -40 -12 -92zM320 425q-42 0 -76.5 -28t-54.5 -84h222q2 16 2 22
q0 45 -25.5 67.5t-67.5 22.5zM429 566h-104l-110 146h167z" />
    <glyph glyph-name="iocy" unicode="&#x451;" horiz-adv-x="573" 
d="M328 524q105 0 160 -55.5t55 -151.5q0 -40 -12 -92h-364q-4 -21 -4 -43q0 -51 25.5 -75t66.5 -24q38 0 67.5 20t40.5 51h143q-31 -73 -101 -121.5t-158 -48.5q-106 0 -161 57t-55 158q0 74 32 146.5t102 125.5t163 53zM320 425q-42 0 -76.5 -28t-54.5 -84h222q2 16 2 22
q0 45 -25.5 67.5t-67.5 22.5zM333 712l-30 -120h-123l30 120h123zM550 712l-30 -120h-123l30 120h123z" />
    <glyph glyph-name="djecy" unicode="&#x452;" 
d="M389 466q73 0 114 -38.5t41 -111.5q0 -34 -10 -73l-67 -270q-21 -84 -75.5 -123.5t-130.5 -39.5q-43 0 -75 9l25 100q11 -3 23 -3q41 0 65.5 22.5t38.5 79.5l55 222q7 28 7 52q0 64 -67 64q-45 0 -81 -35.5t-53 -102.5l-54 -218h-140l135 544h-74l22 88h74l20 80h140
l-20 -80h212l-22 -88h-212l-35 -137h2q64 59 142 59z" />
    <glyph glyph-name="gjecy" unicode="&#x453;" horiz-adv-x="441" 
d="M494 508l-26 -104h-223l-100 -404h-140l126 508h363zM523 712l-170 -146h-116l107 146h179z" />
    <glyph glyph-name="ecy" unicode="&#x454;" horiz-adv-x="562" 
d="M542 309h-142q2 10 2 19q0 43 -21 67.5t-58 24.5q-43 0 -76.5 -31.5t-53.5 -79.5h169l-25 -100h-165v-1q0 -57 22.5 -88.5t64.5 -31.5q39 0 70.5 27t45.5 74h143q-29 -93 -101.5 -149t-164.5 -56q-103 0 -161 59t-58 164q0 53 19 107t54 102t94 78t130 30
q100 0 157 -51.5t57 -136.5q0 -18 -2 -27z" />
    <glyph glyph-name="dzecy" unicode="&#x455;" horiz-adv-x="524" 
d="M305 524q93 0 142.5 -35.5t49.5 -104.5q0 -16 -3 -32h-133q2 14 2 21q0 53 -70 53q-38 0 -56 -15t-18 -35q0 -21 19 -34t73 -32q29 -10 43.5 -15.5t38 -19t35.5 -27.5t21.5 -37.5t9.5 -53.5q0 -70 -63 -121.5t-178 -51.5q-100 0 -154.5 36.5t-54.5 108.5q0 20 5 36h141
q-3 -12 -3 -22q0 -58 78 -58q38 0 59 15t21 40q0 26 -21.5 40t-76.5 33q-35 12 -51 19t-40 23.5t-34 41.5t-10 61q0 66 60 116t168 50z" />
    <glyph glyph-name="icy" unicode="&#x456;" horiz-adv-x="276" 
d="M271 508l-126 -508h-140l126 508h140zM322 712l-30 -120h-140l30 120h140z" />
    <glyph glyph-name="yicy" unicode="&#x457;" horiz-adv-x="276" 
d="M271 508l-126 -508h-140l126 508h140zM227 712l-30 -120h-123l30 120h123zM400 712l-30 -120h-123l30 120h123z" />
    <glyph glyph-name="jecy" unicode="&#x458;" horiz-adv-x="278" 
d="M133 508h140l-133 -535q-21 -84 -75.5 -123.5t-130.5 -39.5q-44 0 -75 9l25 100q11 -3 23 -3q41 0 65.5 22.5t38.5 79.5zM324 712l-30 -120h-140l30 120h140z" />
    <glyph glyph-name="ljecy" unicode="&#x459;" horiz-adv-x="854" 
d="M569 508l-41 -164h72q100 0 151 -39t51 -114q0 -34 -12.5 -66.5t-38.5 -61t-71.5 -46t-104.5 -17.5h-272l100 404h-119q-46 -170 -91 -260.5t-89 -120t-109 -29.5q-31 0 -52 7l24 98q10 -2 19 -2q33 0 57.5 29t57.5 118.5t79 263.5h389zM586 243h-83l-35 -142h103
q46 0 69 24t23 57q0 61 -77 61z" />
    <glyph glyph-name="njecy" unicode="&#x45a;" horiz-adv-x="893" 
d="M608 508l-41 -164h72q100 0 151 -39t51 -114q0 -34 -12.5 -66.5t-38.5 -61t-71.5 -46t-104.5 -17.5h-272l51 206h-197l-51 -206h-140l126 508h140l-49 -198h197l49 198h140zM625 243h-83l-35 -142h103q46 0 69 24t23 57q0 61 -77 61z" />
    <glyph glyph-name="tshecy" unicode="&#x45b;" 
d="M389 466q73 0 114 -38.5t41 -111.5q0 -34 -10 -73l-60 -243h-140l59 240q7 28 7 52q0 64 -67 64q-45 0 -81 -35.5t-53 -102.5l-54 -218h-140l135 544h-74l22 88h74l20 80h140l-20 -80h212l-22 -88h-212l-35 -137h2q64 59 142 59z" />
    <glyph glyph-name="kjecy" unicode="&#x45c;" horiz-adv-x="560" 
d="M595 508l-253 -245l148 -263h-153l-129 244h-2l-61 -244h-140l126 508h140l-49 -199h2l193 199h178zM560 712l-170 -146h-116l107 146h179z" />
    <glyph glyph-name="iigravecy" unicode="&#x45d;" horiz-adv-x="678" 
d="M673 508l-126 -508h-140l47 189q20 83 57 199h-2q-59 -96 -130 -188l-156 -200h-218l126 508h140l-47 -190q-21 -83 -57 -198h2q65 105 130 188l156 200h218zM288 712h167l47 -146h-104z" />
    <glyph glyph-name="ushortcy" unicode="&#x45e;" horiz-adv-x="504" 
d="M418 508h156l-309 -511q-65 -106 -129 -147t-160 -41q-39 0 -71 8l28 112q21 -8 52 -8q53 0 85 31.5t32 78.5q0 17 -5 64l-41 413h138l12 -170q8 -117 7 -213h2q57 122 108 213zM414 712h107q-20 -72 -75 -111.5t-133 -39.5q-68 0 -106 32.5t-38 90.5q0 8 2 28h83
q-1 -5 -1 -13q0 -51 67 -51q76 0 94 64z" />
    <glyph glyph-name="dzhecy" unicode="&#x45f;" horiz-adv-x="605" 
d="M600 508l-126 -508h-167l-40 -160h-140l40 160h-162l126 508h140l-100 -404h189l100 404h140z" />
    <glyph glyph-name="Gheupturncy" unicode="&#x490;" horiz-adv-x="508" 
d="M647 850l-66 -264h-269l-146 -586h-147l177 712h276l35 138h140z" />
    <glyph glyph-name="gheupturncy" unicode="&#x491;" horiz-adv-x="441" 
d="M534 668l-66 -264h-223l-100 -404h-140l126 508h233l40 160h130z" />
    <glyph glyph-name="Ghestrokecy" unicode="&#x492;" horiz-adv-x="508" 
d="M581 586h-269l-52 -208h145l-27 -106h-144l-68 -272h-147l68 272h-65l27 106h64l83 334h416z" />
    <glyph glyph-name="ghestrokecy" unicode="&#x493;" horiz-adv-x="446" 
d="M473 404h-223l-31 -126h126l-24 -96h-126l-45 -182h-140l45 182h-60l24 96h60l57 230h363z" />
    <glyph glyph-name="Zhedescendercy" unicode="&#x496;" horiz-adv-x="918" 
d="M798 126h84l-71 -286h-140l40 160h-22l-129 364h-2l-90 -364h-144l86 348h-2l-281 -348h-186l340 382l-138 330h157l114 -341h2l85 341h144l-81 -325h2l256 325h181l-306 -346z" />
    <glyph glyph-name="zhedescendercy" unicode="&#x497;" horiz-adv-x="760" 
d="M589 266l73 -162h73l-66 -264h-140l40 160h-18l-98 267h-2l-66 -267h-136l62 251h-2l-206 -251h-178l256 281l-110 227h143l101 -234h2l58 234h136l-54 -218h2l193 218h163z" />
    <glyph glyph-name="Kadescendercy" unicode="&#x49a;" horiz-adv-x="663" 
d="M526 126h101l-71 -286h-140l40 160h-31l-171 348h-2l-86 -348h-147l177 712h147l-75 -301h2l292 301h188l-357 -345z" />
    <glyph glyph-name="kadescendercy" unicode="&#x49b;" horiz-adv-x="560" 
d="M342 263l89 -159h85l-66 -264h-140l40 160h-13l-129 244h-2l-61 -244h-140l126 508h140l-49 -199h2l193 199h178z" />
    <glyph glyph-name="Kaverticalstrokecy" unicode="&#x49c;" horiz-adv-x="737" 
d="M822 712l-306 -354l154 -358h-162l-112 307h-3l-38 -155h-110l38 155h-44l-76 -307h-144l177 712h144l-69 -279h44l38 155h110l-38 -155h3l213 279h181z" />
    <glyph glyph-name="kaverticalstrokecy" unicode="&#x49d;" horiz-adv-x="618" 
d="M671 508l-226 -247l120 -261h-158l-83 219h-4l-30 -119h-87l30 119h-38l-54 -219h-136l126 508h136l-46 -185h37l30 119h87l-30 -119h4l159 185h163z" />
    <glyph glyph-name="Endescendercy" unicode="&#x4a2;" horiz-adv-x="780" 
d="M726 126l-71 -286h-140l40 160h-97l76 307h-292l-76 -307h-147l177 712h147l-69 -279h292l69 279h147l-146 -586h90z" />
    <glyph glyph-name="endescendercy" unicode="&#x4a3;" horiz-adv-x="623" 
d="M578 104l-66 -264h-140l40 160h-70l51 206h-197l-51 -206h-140l126 508h140l-49 -198h197l49 198h140l-100 -404h70z" />
    <glyph glyph-name="Ustraitcy" unicode="&#x4ae;" horiz-adv-x="638" 
d="M749 712l-351 -435l-69 -277h-147l69 277l-135 435h149l35 -134q22 -86 39 -181h2q57 90 127 181l101 134h180z" />
    <glyph glyph-name="ustraitcy" unicode="&#x4af;" horiz-adv-x="510" 
d="M118 -13l-62 521h135l15 -176q9 -112 10 -196h2q47 103 102 196l103 176h157l-322 -521l-42 -172h-140z" />
    <glyph glyph-name="Hadescendercy" unicode="&#x4b2;" horiz-adv-x="630" 
d="M515 126h80l-71 -286h-140l40 160h-16l-83 245h-2l-197 -245h-186l319 369l-131 343h153l77 -239h2l187 239h183l-305 -357z" />
    <glyph glyph-name="hadescendercy" unicode="&#x4b3;" horiz-adv-x="508" 
d="M337 255l68 -151h72l-66 -264h-140l40 160h-8l-60 166h-2l-132 -166h-178l244 267l-107 241h146l57 -143h2l117 143h176z" />
    <glyph glyph-name="Cheverticalstrokecy" unicode="&#x4b8;" horiz-adv-x="679" 
d="M564 712h147l-177 -712h-147l66 265q-38 -8 -78 -14l-33 -131h-120l32 130q-171 18 -171 172q0 29 12 80l52 210h147l-52 -209q-5 -18 -5 -39q0 -58 51 -80l45 184h120l-48 -192q46 5 79 15z" />
    <glyph glyph-name="cheverticalstrokecy" unicode="&#x4b9;" horiz-adv-x="558" 
d="M413 508h140l-126 -508h-140l45 179q-24 -6 -50 -9l-23 -91h-87l22 88q-145 9 -145 145q0 22 8 54l35 142h140l-37 -149q-3 -13 -3 -25q0 -40 30 -55l36 142h87l-37 -149q34 6 48 9z" />
    <glyph glyph-name="Shhacy" unicode="&#x4ba;" horiz-adv-x="679" 
d="M19 0l177 712h147l-66 -265q77 18 149 18q221 0 221 -175q0 -29 -12 -80l-52 -210h-147l52 209q5 18 5 39q0 91 -118 91q-67 0 -129 -18l-80 -321h-147z" />
    <glyph glyph-name="shhacy" unicode="&#x4bb;" 
d="M322 712l-63 -251h2q64 59 142 59q73 0 114 -38.5t41 -111.5q0 -34 -10 -73l-74 -297h-140l73 294q7 28 7 52q0 64 -67 64q-45 0 -81 -35.5t-53 -102.5l-68 -272h-140l177 712h140z" />
    <glyph glyph-name="Palochkacy" unicode="&#x4c0;" horiz-adv-x="311" 
d="M343 712l-177 -712h-147l177 712h147z" />
    <glyph glyph-name="palochkacy" unicode="&#x4cf;" horiz-adv-x="276" 
d="M322 712l-177 -712h-140l177 712h140z" />
    <glyph glyph-name="Schwacy" unicode="&#x4d8;" horiz-adv-x="763" 
d="M470 728q140 0 214 -75.5t74 -210.5q0 -77 -27.5 -155.5t-77.5 -147t-132.5 -112t-180.5 -43.5q-142 0 -215 75t-73 203q0 85 24 144h519q3 22 3 43q0 78 -42 115t-107 37q-61 0 -108 -29.5t-66 -76.5h-170q42 99 139.5 166t225.5 67zM358 114q68 0 124 44.5t83 125.5
h-356q-2 -24 -2 -34q0 -66 41.5 -101t109.5 -35z" />
    <glyph glyph-name="schwacy" unicode="&#x4d9;" horiz-adv-x="573" 
d="M326 524q106 0 161 -57t55 -158q0 -74 -32 -146.5t-102 -125.5t-163 -53q-105 0 -160 55.5t-55 151.5q0 53 15 97h362q3 21 3 38q0 51 -25.5 75t-66.5 24q-37 0 -66 -18.5t-41 -47.5h-143q31 71 100.5 118t157.5 47zM253 83q43 0 77.5 29.5t54.5 87.5h-223q-2 -20 -2 -27
q0 -45 25.5 -67.5t67.5 -22.5z" />
    <glyph glyph-name="Obarredcy" unicode="&#x4e8;" horiz-adv-x="748" 
d="M448 728q137 0 213.5 -82t76.5 -222q0 -77 -25 -153.5t-71.5 -141t-122.5 -105t-169 -40.5q-137 0 -213 81.5t-76 222.5q0 61 15 122.5t47 119t76.5 101.5t109 70.5t139.5 26.5zM356 106q80 0 137.5 53t86.5 134h-385v-4q0 -83 42.5 -133t118.5 -50zM442 606
q-81 0 -138 -53t-86 -134h386v5q0 82 -43 132t-119 50z" />
    <glyph glyph-name="obarredcy" unicode="&#x4e9;" horiz-adv-x="590" 
d="M332 524q109 0 167 -59t58 -165q0 -53 -19.5 -107.5t-55.5 -101.5t-95 -77t-131 -30q-108 0 -165.5 59t-57.5 165q0 53 19.5 107.5t55.5 101.5t94.5 77t129.5 30zM268 86q94 0 137 123h-236q0 -57 25.5 -90t73.5 -33zM321 422q-50 0 -84.5 -35t-52.5 -88h236
q0 57 -25.5 90t-73.5 33z" />
    <glyph glyph-name="Wgrave" unicode="&#x1e80;" horiz-adv-x="956" 
d="M1061 712l-326 -712h-191l4 282q1 145 14 305h-2q-56 -136 -138 -305l-136 -282h-191l28 712h137l-13 -259q-7 -143 -25 -308h2q54 126 142 308l126 259h186l-2 -259q-2 -157 -12 -308h2q48 125 129 308l115 259h151zM636 906l46 -146h-104l-109 146h167z" />
    <glyph glyph-name="wgrave" unicode="&#x1e81;" horiz-adv-x="810" 
d="M868 508l-238 -508h-200l5 200q3 109 9 217h-2q-44 -115 -93 -217l-95 -200h-200l14 508h133l-11 -196q-8 -151 -15 -221h2q45 113 95 219l94 198h192l-4 -198q-1 -109 -9 -219h2q41 114 89 221l87 196h145zM348 712h167l47 -146h-104z" />
    <glyph glyph-name="Wacute" unicode="&#x1e82;" horiz-adv-x="956" 
d="M1061 712l-326 -712h-191l4 282q1 145 14 305h-2q-56 -136 -138 -305l-136 -282h-191l28 712h137l-13 -259q-7 -143 -25 -308h2q54 126 142 308l126 259h186l-2 -259q-2 -157 -12 -308h2q48 125 129 308l115 259h151zM799 906l-171 -146h-116l108 146h179z" />
    <glyph glyph-name="wacute" unicode="&#x1e83;" horiz-adv-x="810" 
d="M868 508l-238 -508h-200l5 200q3 109 9 217h-2q-44 -115 -93 -217l-95 -200h-200l14 508h133l-11 -196q-8 -151 -15 -221h2q45 113 95 219l94 198h192l-4 -198q-1 -109 -9 -219h2q41 114 89 221l87 196h145zM678 712l-170 -146h-116l107 146h179z" />
    <glyph glyph-name="Wdieresis" unicode="&#x1e84;" horiz-adv-x="956" 
d="M1061 712l-326 -712h-191l4 282q1 145 14 305h-2q-56 -136 -138 -305l-136 -282h-191l28 712h137l-13 -259q-7 -143 -25 -308h2q54 126 142 308l126 259h186l-2 -259q-2 -157 -12 -308h2q48 125 129 308l115 259h151zM582 889l-30 -120h-123l30 120h123zM799 889
l-30 -120h-123l30 120h123z" />
    <glyph glyph-name="wdieresis" unicode="&#x1e85;" horiz-adv-x="810" 
d="M868 508l-238 -508h-200l5 200q3 109 9 217h-2q-44 -115 -93 -217l-95 -200h-200l14 508h133l-11 -196q-8 -151 -15 -221h2q45 113 95 219l94 198h192l-4 -198q-1 -109 -9 -219h2q41 114 89 221l87 196h145zM466 712l-30 -120h-123l30 120h123zM683 712l-30 -120h-123
l30 120h123z" />
    <glyph glyph-name="Germandbls" unicode="&#x1e9e;" horiz-adv-x="801" 
d="M785 582l-185 -163q148 -53 148 -198q0 -92 -73 -163.5t-205 -71.5q-210 0 -210 153q0 25 6 53h141q-3 -15 -3 -25q0 -61 79 -61q56 0 84 32t28 72q0 107 -172 121l25 100l153 135q-38 40 -112 40q-181 0 -231 -194l-102 -412h-147l105 421q37 150 138 227.5t257 77.5
q97 0 168.5 -38.5t107.5 -105.5z" />
    <glyph glyph-name="Ygrave" unicode="&#x1ef2;" horiz-adv-x="638" 
d="M749 712l-351 -435l-69 -277h-147l69 277l-135 435h149l35 -134q22 -86 39 -181h2q57 90 127 181l101 134h180zM458 906l46 -146h-104l-109 146h167z" />
    <glyph glyph-name="ygrave" unicode="&#x1ef3;" horiz-adv-x="504" 
d="M418 508h156l-309 -511q-65 -106 -129 -147t-160 -41q-39 0 -71 8l28 112q21 -8 52 -8q53 0 85 31.5t32 78.5q0 17 -5 64l-41 413h138l12 -170q8 -117 7 -213h2q57 122 108 213zM181 712h167l47 -146h-104z" />
    <glyph glyph-name="hyphentwo" unicode="&#x2010;" horiz-adv-x="320" 
d="M313 347l-27 -110h-260l27 110h260z" />
    <glyph glyph-name="endash" unicode="&#x2013;" horiz-adv-x="500" 
d="M503 347l-27 -110h-460l27 110h460z" />
    <glyph glyph-name="emdash" unicode="&#x2014;" horiz-adv-x="1000" 
d="M1003 347l-27 -110h-960l27 110h960z" />
    <glyph glyph-name="horizontalbar" unicode="&#x2015;" horiz-adv-x="1000" 
d="M940 347l-27 -110h-960l27 110h960z" />
    <glyph glyph-name="underscoredbl" unicode="&#x2017;" horiz-adv-x="500" 
d="M388 -195l-18 -71h-500l18 71h500zM424 -50l-18 -71h-500l18 71h500z" />
    <glyph glyph-name="quoteleft" unicode="&#x2018;" horiz-adv-x="254" 
d="M104 424l35 142l100 146h71l-84 -146h44l-35 -142h-131z" />
    <glyph glyph-name="quoteright" unicode="&#x2019;" horiz-adv-x="255" 
d="M307 712l-35 -142l-100 -146h-71l84 146h-44l35 142h131z" />
    <glyph glyph-name="quotesinglbase" unicode="&#x201a;" horiz-adv-x="254" 
d="M165 142l-35 -142l-100 -146h-71l84 146h-44l35 142h131z" />
    <glyph glyph-name="quotereversed" unicode="&#x201b;" horiz-adv-x="254" 
d="M104 424l35 142l100 146h71l-84 -146h44l-35 -142h-131z" />
    <glyph glyph-name="quotedblleft" unicode="&#x201c;" horiz-adv-x="436" 
d="M104 424l35 142l100 146h71l-84 -146h44l-35 -142h-131zM286 424l35 142l100 146h71l-84 -146h44l-35 -142h-131z" />
    <glyph glyph-name="quotedblright" unicode="&#x201d;" horiz-adv-x="436" 
d="M307 712l-35 -142l-100 -146h-71l84 146h-44l35 142h131zM489 712l-35 -142l-100 -146h-71l84 146h-44l35 142h131z" />
    <glyph glyph-name="quotedblbase" unicode="&#x201e;" horiz-adv-x="436" 
d="M165 142l-35 -142l-100 -146h-71l84 146h-44l35 142h131zM347 142l-35 -142l-100 -146h-71l84 146h-44l35 142h131z" />
    <glyph glyph-name="dagger" unicode="&#x2020;" horiz-adv-x="564" 
d="M466 712l-44 -176h158l-27 -111h-158l-136 -545h-140l136 545h-158l27 111h158l44 176h140z" />
    <glyph glyph-name="daggerdbl" unicode="&#x2021;" horiz-adv-x="564" 
d="M466 712l-44 -176h158l-27 -111h-158l-65 -258h158l-27 -111h-158l-44 -176h-140l44 176h-158l27 111h158l65 258h-158l27 111h158l44 176h140z" />
    <glyph glyph-name="bullet" unicode="&#x2022;" horiz-adv-x="360" 
d="M180 216q-58 0 -99 41t-41 99t41 99t99 41t99 -41t41 -99t-41 -99t-99 -41z" />
    <glyph glyph-name="ellipsis" unicode="&#x2026;" horiz-adv-x="898" 
d="M184 167l-41 -167h-154l41 167h154zM504 167l-41 -167h-154l41 167h154zM824 167l-41 -167h-154l41 167h154z" />
    <glyph glyph-name="perthousand" unicode="&#x2030;" horiz-adv-x="1091" 
d="M567 326q61 0 92.5 -31.5t31.5 -91.5q0 -52 -18.5 -100.5t-59 -83.5t-95.5 -35q-62 0 -94 31.5t-32 92.5q0 81 47 149.5t128 68.5zM562 251q-35 0 -56 -50t-21 -93q0 -49 34 -49q36 0 56.5 50t20.5 93q0 49 -34 49zM915 326q61 0 92.5 -31.5t31.5 -91.5
q0 -52 -18.5 -100.5t-59 -83.5t-95.5 -35q-62 0 -94 31.5t-32 92.5q0 81 47 149.5t128 68.5zM910 251q-35 0 -56 -50t-21 -93q0 -49 34 -49q36 0 56.5 50t20.5 93q0 49 -34 49zM268 690q61 0 92.5 -31.5t31.5 -91.5q0 -52 -18.5 -100.5t-59 -83.5t-95.5 -35q-62 0 -94 31.5
t-32 92.5q0 81 47 149.5t128 68.5zM263 615q-35 0 -56 -50t-21 -93q0 -49 34 -49q36 0 56.5 50t20.5 93q0 49 -34 49zM735 704l-603 -734h-84l603 734h84z" />
    <glyph glyph-name="minute" unicode="&#x2032;" horiz-adv-x="215" 
d="M290 674l-125 -235h-89l88 235h126z" />
    <glyph glyph-name="second" unicode="&#x2033;" horiz-adv-x="399" 
d="M290 674l-125 -235h-89l88 235h126zM474 674l-125 -235h-89l88 235h126z" />
    <glyph glyph-name="guilsinglleft" unicode="&#x2039;" horiz-adv-x="324" 
d="M330 454l-159 -204l59 -196h-116l-69 204l157 196h128z" />
    <glyph glyph-name="guilsinglright" unicode="&#x203a;" horiz-adv-x="324" 
d="M-6 54l159 204l-59 196h116l69 -204l-157 -196h-128z" />
    <glyph glyph-name="exclamdouble" unicode="&#x203c;" horiz-adv-x="574" 
d="M209 132l-33 -132h-154l33 132h154zM459 132l-33 -132h-154l33 132h154zM361 712l-159 -514h-108l97 514h170zM611 712l-159 -514h-108l97 514h170z" />
    <glyph glyph-name="interrobang" unicode="&#x203d;" horiz-adv-x="547" 
d="M122 0l33 132h154l-33 -132h-154zM305 712h162l-21 -68q115 -37 115 -156q0 -61 -33 -110.5t-117 -94.5q-56 -30 -76.5 -48t-28.5 -49h-119q13 68 37.5 99.5t102.5 78.5q53 32 70.5 55t17.5 53t-19.5 47.5t-57.5 17.5q-90 0 -114 -92h-146q46 183 216 209z" />
    <glyph glyph-name="overline" unicode="&#x203e;" horiz-adv-x="500" 
d="M653 869l-22 -91h-500l22 91h500z" />
    <glyph glyph-name="fraction" unicode="&#x2044;" horiz-adv-x="148" 
d="M409 674l-537 -674h-91l537 674h91z" />
    <glyph glyph-name="zerosuperior" unicode="&#x2070;" horiz-adv-x="469" 
d="M353 813q82 0 124.5 -47t42.5 -135q0 -71 -26 -140t-85 -120.5t-139 -51.5q-82 0 -124.5 46.5t-42.5 134.5q0 71 26 140.5t85 121t139 51.5zM345 718q-28 0 -51.5 -25t-37.5 -61.5t-21.5 -72.5t-7.5 -63q0 -83 51 -83q37 0 65.5 43t40.5 92t12 87q0 83 -51 83z" />
    <glyph glyph-name="foursuperior" unicode="&#x2074;" horiz-adv-x="450" 
d="M504 519l-22 -92h-75l-24 -97h-121l24 97h-232l26 105l254 270h167l-71 -283h74zM250 585l-62 -66h125l13 52q22 86 40 139h-2q-36 -40 -114 -125z" />
    <glyph glyph-name="fivesuperior" unicode="&#x2075;" horiz-adv-x="451" 
d="M526 802l-24 -99h-223l-31 -83h2q39 26 87 26q65 0 102 -37t37 -99q0 -70 -61 -130.5t-164 -60.5q-79 0 -123 31t-44 88q0 17 3 27h124q-1 -5 -1 -12q0 -19 15 -30t41 -11q41 0 62 27.5t21 61.5q0 55 -55 55q-48 0 -69 -45l-119 7l98 284h322z" />
    <glyph glyph-name="sixsuperior" unicode="&#x2076;" horiz-adv-x="448" 
d="M354 813q77 0 119.5 -33t42.5 -92q0 -13 -1 -20h-123v8q0 45 -46 45q-33 0 -61.5 -28t-46.5 -85h2q44 30 100 30q63 0 99.5 -37.5t36.5 -100.5q0 -66 -56.5 -123.5t-149.5 -57.5q-81 0 -124.5 44.5t-43.5 131.5q0 51 16.5 105t46.5 102.5t79.5 79.5t109.5 31zM300 552
q-35 0 -56.5 -26.5t-21.5 -55.5q0 -26 13.5 -41.5t38.5 -15.5q34 0 55.5 25t21.5 54q0 28 -13.5 44t-37.5 16z" />
    <glyph glyph-name="sevensuperior" unicode="&#x2077;" horiz-adv-x="400" 
d="M146 802h377l-23 -99q-147 -155 -238 -373h-142q49 110 117 208t132 161h-249z" />
    <glyph glyph-name="eightsuperior" unicode="&#x2078;" horiz-adv-x="450" 
d="M345 813q78 0 123 -34t45 -92q0 -42 -30 -76.5t-85 -44.5v-2q32 -11 51 -38.5t19 -63.5q0 -56 -54 -99.5t-152 -43.5q-83 0 -130 36t-47 100q0 44 34 81t94 47v2q-61 25 -61 93q0 51 52.5 93t140.5 42zM287 526q-37 0 -57.5 -20t-20.5 -43t16.5 -37t45.5 -14
q36 0 57.5 18.5t21.5 44.5q0 24 -16.5 37.5t-46.5 13.5zM337 721q-35 0 -54.5 -18t-19.5 -40q0 -47 58 -47q34 0 53.5 18t19.5 40q0 47 -57 47z" />
    <glyph glyph-name="ninesuperior" unicode="&#x2079;" horiz-adv-x="448" 
d="M249 319q-77 0 -119.5 33t-42.5 92q0 13 1 20h123v-8q0 -45 46 -45q33 0 61.5 28t46.5 85h-2q-43 -30 -100 -30q-63 0 -99.5 37.5t-36.5 100.5q0 66 56.5 123.5t149.5 57.5q81 0 124.5 -44.5t43.5 -131.5q0 -51 -16.5 -105t-46.5 -102.5t-79.5 -79.5t-109.5 -31zM303 580
q35 0 56.5 26.5t21.5 55.5q0 26 -13.5 41.5t-38.5 15.5q-34 0 -55.5 -25t-21.5 -54q0 -28 13.5 -44t37.5 -16z" />
    <glyph glyph-name="plussuperior" unicode="&#x207a;" horiz-adv-x="413" 
d="M254 709v-111h114v-93h-114v-111h-95v111h-114v93h114v111h95z" />
    <glyph glyph-name="minussuperior" unicode="&#x207b;" horiz-adv-x="413" 
d="M368 598v-93h-323v93h323z" />
    <glyph glyph-name="equalsuperior" unicode="&#x207c;" horiz-adv-x="413" 
d="M368 668v-89h-323v89h323zM368 524v-89h-323v89h323z" />
    <glyph glyph-name="parenleftsuperior" unicode="&#x207d;" horiz-adv-x="251" 
d="M277 849h101q-169 -228 -169 -452q0 -77 14 -170h-93q-40 107 -40 215q0 100 46.5 205.5t140.5 201.5z" />
    <glyph glyph-name="parenrightsuperior" unicode="&#x207e;" horiz-adv-x="251" 
d="M116 227h-101q169 228 169 452q0 77 -14 170h93q40 -107 40 -215q0 -100 -46.5 -205.5t-140.5 -201.5z" />
    <glyph glyph-name="zeroinferior" unicode="&#x2080;" horiz-adv-x="469" 
d="M228 311q82 0 124.5 -47t42.5 -135q0 -71 -26 -140t-85 -120.5t-139 -51.5q-82 0 -124.5 46.5t-42.5 134.5q0 71 26 140.5t85 121t139 51.5zM220 216q-28 0 -51.5 -25t-37.5 -61.5t-21.5 -72.5t-7.5 -63q0 -83 51 -83q37 0 65.5 43t40.5 92t12 87q0 83 -51 83z" />
    <glyph glyph-name="oneinferior" unicode="&#x2081;" horiz-adv-x="316" 
d="M265 300l-118 -472h-124l75 301h-119l22 89q63 0 99 19.5t54 62.5h111z" />
    <glyph glyph-name="twoinferior" unicode="&#x2082;" horiz-adv-x="457" 
d="M225 311q78 0 121 -34.5t43 -92.5q0 -107 -161 -176q-67 -29 -91.5 -45.5t-31.5 -35.5h235l-23 -99h-386q15 92 61 144.5t141 95.5q71 32 100 55t29 52q0 41 -46 41q-57 0 -74 -69h-126q19 79 73.5 121.5t135.5 42.5z" />
    <glyph glyph-name="threeinferior" unicode="&#x2083;" horiz-adv-x="452" 
d="M222 311q80 0 124 -33t44 -90q0 -89 -111 -123v-1q64 -27 64 -93q0 -59 -53.5 -106.5t-148.5 -47.5q-88 0 -134.5 33.5t-46.5 98.5q0 20 4 36h124q-3 -12 -3 -24q0 -49 61 -49q34 0 54.5 18.5t20.5 40.5q0 48 -73 48h-13l22 92h15q45 0 69.5 18.5t24.5 43.5q0 43 -54 43
q-62 0 -79 -70h-123q18 78 74 121.5t138 43.5z" />
    <glyph glyph-name="fourinferior" unicode="&#x2084;" horiz-adv-x="449" 
d="M378 17l-22 -92h-75l-24 -97h-121l24 97h-232l26 105l254 270h167l-71 -283h74zM124 83l-62 -66h125l13 52q22 86 40 139h-2q-36 -40 -114 -125z" />
    <glyph glyph-name="fiveinferior" unicode="&#x2085;" horiz-adv-x="451" 
d="M401 300l-24 -99h-223l-31 -83h2q39 26 87 26q65 0 102 -37t37 -99q0 -70 -61 -130.5t-164 -60.5q-79 0 -123 31t-44 88q0 17 3 27h124q-1 -5 -1 -12q0 -19 15 -30t41 -11q41 0 62 27.5t21 61.5q0 55 -55 55q-48 0 -69 -45l-119 7l98 284h322z" />
    <glyph glyph-name="sixinferior" unicode="&#x2086;" horiz-adv-x="447" 
d="M228 311q77 0 119.5 -33t42.5 -92q0 -13 -1 -20h-123v8q0 45 -46 45q-33 0 -61.5 -28t-46.5 -85h2q44 30 100 30q63 0 99.5 -37.5t36.5 -100.5q0 -66 -56.5 -123.5t-149.5 -57.5q-81 0 -124.5 44.5t-43.5 131.5q0 51 16.5 105t46.5 102.5t79.5 79.5t109.5 31zM174 50
q-35 0 -56.5 -26.5t-21.5 -55.5q0 -26 13.5 -41.5t38.5 -15.5q34 0 55.5 25t21.5 54q0 28 -13.5 44t-37.5 16z" />
    <glyph glyph-name="seveninferior" unicode="&#x2087;" horiz-adv-x="400" 
d="M21 300h377l-23 -99q-147 -155 -238 -373h-142q49 110 117 208t132 161h-249z" />
    <glyph glyph-name="eightinferior" unicode="&#x2088;" horiz-adv-x="450" 
d="M219 311q78 0 123 -34t45 -92q0 -42 -30 -76.5t-85 -44.5v-2q32 -11 51 -38.5t19 -63.5q0 -56 -54 -99.5t-152 -43.5q-83 0 -130 36t-47 100q0 44 34 81t94 47v2q-61 25 -61 93q0 51 52.5 93t140.5 42zM161 24q-37 0 -57.5 -20t-20.5 -43t16.5 -37t45.5 -14
q36 0 57.5 18.5t21.5 44.5q0 24 -16.5 37.5t-46.5 13.5zM211 219q-35 0 -54.5 -18t-19.5 -40q0 -47 58 -47q34 0 53.5 18t19.5 40q0 47 -57 47z" />
    <glyph glyph-name="nineinferior" unicode="&#x2089;" horiz-adv-x="448" 
d="M124 -183q-77 0 -119.5 33t-42.5 92q0 13 1 20h123v-8q0 -45 46 -45q33 0 61.5 28t46.5 85h-2q-44 -30 -100 -30q-63 0 -99.5 37.5t-36.5 100.5q0 66 56.5 123.5t149.5 57.5q81 0 124.5 -44.5t43.5 -131.5q0 -51 -16.5 -105t-46.5 -102.5t-79.5 -79.5t-109.5 -31zM178 78
q35 0 56.5 26.5t21.5 55.5q0 26 -13.5 41.5t-38.5 15.5q-34 0 -55.5 -25t-21.5 -54q0 -28 13.5 -44t37.5 -16z" />
    <glyph glyph-name="plusinferior" unicode="&#x208a;" horiz-adv-x="413" 
d="M254 207v-111h114v-93h-114v-111h-95v111h-114v93h114v111h95z" />
    <glyph glyph-name="minusinferior" unicode="&#x208b;" horiz-adv-x="413" 
d="M368 96v-93h-323v93h323z" />
    <glyph glyph-name="equalinferior" unicode="&#x208c;" horiz-adv-x="413" 
d="M368 166v-89h-323v89h323zM368 22v-89h-323v89h323z" />
    <glyph glyph-name="parenleftinferior" unicode="&#x208d;" horiz-adv-x="251" 
d="M152 347h101q-169 -228 -169 -452q0 -77 14 -170h-93q-40 107 -40 215q0 100 46.5 205.5t140.5 201.5z" />
    <glyph glyph-name="parenrightinferior" unicode="&#x208e;" horiz-adv-x="251" 
d="M-10 -275h-101q169 228 169 452q0 77 -14 170h93q40 -107 40 -215q0 -100 -46.5 -205.5t-140.5 -201.5z" />
    <glyph glyph-name="ninferior" unicode="&#x2099;" horiz-adv-x="445" 
d="M241 193q54 0 83.5 -27.5t29.5 -78.5q0 -24 -7 -51l-52 -208h-120l51 204q4 16 4 31q0 37 -40 37q-61 0 -83 -89l-46 -183h-120l89 356h112l-10 -37h2q48 46 107 46z" />
    <glyph glyph-name="franc" unicode="&#x20a3;" 
d="M647 548h-324l-32 -126h299l-31 -126h-299l-23 -92h164l-27 -107h-164l-24 -97h-147l24 97h-78l27 107h78l117 470h471z" />
    <glyph glyph-name="lira" unicode="&#x20a4;" 
d="M626 473h-140q3 15 3 28q0 69 -68 69q-81 0 -108 -107l-12 -48h122l-17 -70h-122l-10 -40h122l-17 -70h-123q-13 -46 -34 -73t-57 -44v-2h366l-29 -116h-541l29 118q87 0 119 117h-89l17 70h90l10 40h-90l17 70h91l18 74q50 201 262 201q94 0 145.5 -44t51.5 -123
q0 -23 -6 -50z" />
    <glyph glyph-name="peseta" unicode="&#x20a7;" horiz-adv-x="895" 
d="M902 404h-97l-53 -213q-5 -23 -5 -36q0 -27 12.5 -38.5t41.5 -11.5q15 0 33 4l-28 -109q-24 -7 -55 -7q-77 0 -113 30t-36 97q0 30 11 74l52 210h-46q-22 -80 -92 -135t-186 -55h-122l-53 -214h-147l167 674h189q111 0 173.5 -43.5t75.5 -122.5h67l33 132h140l-33 -132
h97zM303 552l-54 -216h92q70 0 103 35t33 82q0 99 -112 99h-62z" />
    <glyph glyph-name="euro" unicode="&#x20ac;" 
d="M636 467h-138v12q0 92 -90 92q-55 0 -97 -41.5t-69 -106.5h221l-30 -70h-212q-4 -14 -8 -40h202l-31 -70h-175q6 -140 99 -140q42 0 75.5 28.5t50.5 78.5h141q-31 -105 -106.5 -165.5t-173.5 -60.5q-109 0 -166 66t-60 193h-71l31 70h44q2 21 6 40h-53l30 70h42
q39 116 122 191.5t204 75.5q103 0 159 -49.5t56 -137.5q0 -17 -3 -36z" />
    <glyph glyph-name="rupeeIndian" unicode="&#x20b9;" 
d="M632 588h-167v-2q43 -20 52 -66h122l-45 -86h-86q-19 -49 -71 -85.5t-136 -49.5v-2q35 -12 56.5 -39.5t35.5 -78.5l48 -179h-158l-40 170q-13 55 -41 79t-76 24h-16l23 93h57q111 0 154 68h-271l45 86h236q-19 68 -120 68h-123l46 86h521z" />
    <glyph glyph-name="liraTurkish" unicode="&#x20ba;" 
d="M447 322h152q-30 -162 -134 -246t-270 -84q-75 0 -157 12l60 242l-99 -48l22 90l100 48l16 67l-99 -48l22 90l100 48l45 181h147l-28 -113l188 90l-22 -90l-189 -90l-16 -67l188 90l-22 -90l-189 -90l-48 -193q95 0 154.5 51t78.5 150z" />
    <glyph glyph-name="uni20BC" unicode="&#x20bc;" horiz-adv-x="716" 
d="M406 712h132l-24 -97q93 -14 138 -69.5t45 -156.5q0 -52 -16 -115l-68 -274h-132l69 278q13 51 13 92q0 104 -80 120l-122 -490h-132l122 493q-69 -5 -105 -46t-59 -133l-78 -314h-132l84 338q36 143 111.5 210.5t210.5 71.5z" />
    <glyph glyph-name="ruble" unicode="&#x20bd;" 
d="M116 367l77 307h209q114 0 171 -50t57 -140q0 -39 -15 -78t-44.5 -73.5t-81 -56t-117.5 -21.5h-137l-13 -54h181l-27 -106h-181l-23 -95h-147l23 95h-79l27 106h79l13 54h-79l28 112h79zM380 562h-68l-49 -195h96q63 0 91.5 31t28.5 74q0 90 -99 90z" />
    <glyph glyph-name="careof" unicode="&#x2105;" horiz-adv-x="951" 
d="M730 362q84 0 130 -43.5t46 -120.5q0 -50 -23.5 -97.5t-75 -82t-119.5 -34.5q-83 0 -129 43.5t-46 120.5q0 50 23 97.5t74.5 82t119.5 34.5zM725 271q-42 0 -65 -41t-23 -85q0 -71 56 -71q42 0 65 41t23 85q0 71 -56 71zM305 690q77 0 121 -37t44 -100q0 -6 -2 -18h-125
q2 6 2 13q0 51 -48 51q-41 0 -65 -43.5t-24 -85.5q0 -68 50 -68q22 0 40 15.5t26 42.5h125q-21 -68 -74.5 -108t-124.5 -40q-78 0 -122 43t-44 118q0 50 23.5 98t75.5 83.5t122 35.5zM800 674l-537 -674h-91l537 674h91z" />
    <glyph glyph-name="literSign" unicode="&#x2113;" horiz-adv-x="450" 
d="M211 202l-5 -18q-6 -21 -6 -39q0 -56 55 -56q23 0 44 6l-25 -99q-30 -6 -65 -6q-77 0 -114 32t-37 99q0 30 10 66q-32 4 -48 7l19 75q20 -4 47 -6l58 232q28 109 71.5 152t116.5 43q58 0 92 -37.5t34 -117.5q0 -103 -64.5 -200t-182.5 -133zM346 601q-19 0 -32.5 -19
t-25.5 -69l-54 -217q69 38 106 106.5t37 134.5q0 64 -31 64z" />
    <glyph glyph-name="numero" unicode="&#x2116;" horiz-adv-x="1183" 
d="M1124 194l-26 -105h-351l26 105h351zM808 712l-177 -712h-197l-72 289q-38 155 -66 294h-2q-33 -177 -66 -309l-68 -274h-141l177 712h197l72 -289q27 -112 66 -294h2q27 155 66 309l68 274h141zM1032 621q84 0 130 -43.5t46 -120.5q0 -50 -23.5 -97.5t-75 -82
t-119.5 -34.5q-83 0 -129 43.5t-46 120.5q0 50 23 97.5t74.5 82t119.5 34.5zM1027 530q-42 0 -65 -41t-23 -85q0 -71 56 -71q42 0 65 41t23 85q0 71 -56 71z" />
    <glyph glyph-name="published" unicode="&#x2117;" horiz-adv-x="802" 
d="M401 726q162 0 261 -102t99 -268t-99 -268t-261 -102t-261 102t-99 268t99 268t261 102zM401 671q-138 0 -222 -86.5t-84 -228.5t84 -228.5t222 -86.5t222.5 86.5t84.5 228.5t-84.5 228.5t-222.5 86.5zM258 126v451h178q84 0 127 -39.5t43 -108.5t-43 -108.5t-127 -39.5
h-84v-155h-94zM423 499h-71v-139h71q86 0 86 69q0 70 -86 70z" />
    <glyph glyph-name="trademark" unicode="&#x2122;" horiz-adv-x="829" 
d="M430 712l-21 -83h-106l-68 -273h-99l68 273h-106l21 83h311zM902 712l-89 -356h-90l41 163q11 43 35 129h-2q-54 -112 -61 -127l-83 -165h-114l1 165q0 21 0.5 63.5t0.5 63.5h-2q-11 -57 -29 -129l-41 -163h-90l89 356h148l1 -141q0 -77 -5 -131h2q27 65 61 131l71 141
h156z" />
    <glyph glyph-name="Ohm" unicode="&#x2126;" horiz-adv-x="734" 
d="M455 728q129 0 202.5 -61.5t73.5 -180.5q0 -104 -52 -190.5t-156 -169.5v-2h148l-31 -124h-294l32 130q193 150 193 318q0 73 -36.5 111.5t-99.5 38.5q-69 0 -121 -43t-76 -102.5t-24 -122.5q0 -100 64 -200l-32 -130h-278l31 124h152v2q-80 115 -80 232q0 65 24.5 129
t70 118.5t121 88.5t168.5 34z" />
    <glyph glyph-name="estimated" unicode="&#x212e;" horiz-adv-x="863" 
d="M432 690q176 0 279.5 -105t103.5 -257h-612q-14 0 -14 -13v-167q0 -29 16 -44q93 -91 227 -91q72 0 135.5 30.5t103.5 79.5h69q-40 -56 -118 -95.5t-190 -39.5q-173 0 -279 98t-106 251t104.5 253t280.5 100zM432 664q-133 0 -227 -94q-16 -14 -16 -41v-167q0 -12 14 -12
h456q13 0 13 12v167q0 27 -15 41q-95 94 -225 94z" />
    <glyph glyph-name="oneeighth" unicode="&#x215b;" horiz-adv-x="826" 
d="M649 414q69 0 109.5 -30t40.5 -80q0 -36 -26 -65t-74 -37v-2q29 -10 45.5 -33.5t16.5 -54.5q0 -47 -47 -84.5t-135 -37.5q-75 0 -116.5 31t-41.5 86q0 39 29.5 70.5t82.5 38.5v2q-55 22 -55 80q0 44 46 80t125 36zM600 166q-32 0 -49 -16.5t-17 -35.5q0 -40 52 -40
q31 0 48.5 15.5t17.5 36.5q0 40 -52 40zM642 332q-29 0 -45.5 -14.5t-16.5 -32.5q0 -39 49 -39q28 0 45 14.5t17 33.5q0 38 -49 38zM331 674l-101 -404h-114l64 252h-103l19 81q55 0 86.5 16.5t46.5 54.5h102zM689 674l-537 -674h-91l537 674h91z" />
    <glyph glyph-name="threeeighths" unicode="&#x215c;" horiz-adv-x="946" 
d="M769 414q69 0 109.5 -30t40.5 -80q0 -36 -26 -65t-74 -37v-2q29 -10 45.5 -33.5t16.5 -54.5q0 -47 -47 -84.5t-135 -37.5q-75 0 -116.5 31t-41.5 86q0 39 29.5 70.5t82.5 38.5v2q-55 22 -55 80q0 44 46 80t125 36zM720 166q-32 0 -49 -16.5t-17 -35.5q0 -40 52 -40
q31 0 48.5 15.5t17.5 36.5q0 40 -52 40zM762 332q-29 0 -45.5 -14.5t-16.5 -32.5q0 -39 49 -39q28 0 45 14.5t17 33.5q0 38 -49 38zM293 684q72 0 111 -28t39 -78q0 -75 -96 -105v-2q56 -21 56 -78q0 -51 -47.5 -92t-131.5 -41q-162 0 -162 115q0 15 3 31h114q-2 -14 -2 -20
q0 -40 52 -40q29 0 46 15t17 32q0 39 -62 39h-12l20 82h14q37 0 57.5 15t20.5 35q0 35 -46 35q-53 0 -67 -57h-112q15 67 64.5 104.5t123.5 37.5zM809 674l-537 -674h-91l537 674h91z" />
    <glyph glyph-name="fiveeighths" unicode="&#x215d;" horiz-adv-x="945" 
d="M768 414q69 0 109.5 -30t40.5 -80q0 -36 -26 -65t-74 -37v-2q29 -10 45.5 -33.5t16.5 -54.5q0 -47 -47 -84.5t-135 -37.5q-75 0 -116.5 31t-41.5 86q0 39 29.5 70.5t82.5 38.5v2q-55 22 -55 80q0 44 46 80t125 36zM719 166q-32 0 -49 -16.5t-17 -35.5q0 -40 52 -40
q31 0 48.5 15.5t17.5 36.5q0 40 -52 40zM761 332q-29 0 -45.5 -14.5t-16.5 -32.5q0 -39 49 -39q28 0 45 14.5t17 33.5q0 38 -49 38zM450 674l-21 -90h-195l-26 -65h2q35 22 77 22q57 0 89.5 -31.5t32.5 -85.5q0 -60 -53.5 -112t-145.5 -52q-70 0 -110 27.5t-40 76.5
q0 11 3 23h114q-2 -6 -2 -9q0 -34 48 -34q34 0 52 22t18 50q0 45 -47 45q-41 0 -58 -38l-109 7l85 244h286zM808 674l-537 -674h-91l537 674h91z" />
    <glyph glyph-name="seveneighths" unicode="&#x215e;" horiz-adv-x="851" 
d="M674 414q69 0 109.5 -30t40.5 -80q0 -36 -26 -65t-74 -37v-2q29 -10 45.5 -33.5t16.5 -54.5q0 -47 -47 -84.5t-135 -37.5q-75 0 -116.5 31t-41.5 86q0 39 29.5 70.5t82.5 38.5v2q-55 22 -55 80q0 44 46 80t125 36zM625 166q-32 0 -49 -16.5t-17 -35.5q0 -40 52 -40
q31 0 48.5 15.5t17.5 36.5q0 40 -52 40zM667 332q-29 0 -45.5 -14.5t-16.5 -32.5q0 -39 49 -39q28 0 45 14.5t17 33.5q0 38 -49 38zM113 674h335l-21 -89q-123 -124 -205 -315h-131q93 194 216 311h-216zM714 674l-537 -674h-91l537 674h91z" />
    <glyph glyph-name="Sevenroman" unicode="&#x2166;" horiz-adv-x="1240" 
d="M746 712l-398 -712h-184l-44 712h140l16 -277q10 -156 7 -291h2q70 153 147 291l154 277h160zM961 712l-177 -712h-147l177 712h147zM1272 712l-177 -712h-147l177 712h147z" />
    <glyph glyph-name="partialdiff" unicode="&#x2202;" horiz-adv-x="625" 
d="M366 728q114 0 172.5 -65.5t58.5 -185.5q0 -75 -22 -157t-63 -159t-112 -127t-158 -50q-105 0 -158.5 55.5t-53.5 153.5q0 33 9.5 69.5t31.5 75.5t53.5 70t80 51t105.5 20q104 0 147 -64h2q12 36 12 77q0 57 -26 88t-76 31q-71 0 -93 -75h-145q21 88 82 140t153 52z
M324 374q-67 0 -109.5 -61.5t-42.5 -123.5q0 -88 82 -88q51 0 88 33t52 73t15 76q0 43 -22 67t-63 24z" />
    <glyph glyph-name="increment" unicode="&#x2206;" horiz-adv-x="698" 
d="M564 712l68 -712h-692l426 712h198zM177 126h304l-16 221q-10 151 -14 278h-2q-65 -133 -147 -278z" />
    <glyph glyph-name="product" unicode="&#x220f;" horiz-adv-x="679" 
d="M597 712v-832h-146v706h-222v-706h-147v832h515z" />
    <glyph glyph-name="summation" unicode="&#x2211;" horiz-adv-x="515" 
d="M480 712v-128h-283l173 -289l-173 -286h283v-129h-445v129l176 286l-176 289v128h445z" />
    <glyph glyph-name="minus" unicode="&#x2212;" horiz-adv-x="566" 
d="M502 371v-109h-438v109h438z" />
    <glyph glyph-name="divisionslash" unicode="&#x2215;" horiz-adv-x="488" 
d="M502 745l-503 -834h-118l503 834h118z" />
    <glyph glyph-name="bulletoperator" unicode="&#x2219;" horiz-adv-x="362" 
d="M258 389v-167h-154v167h154z" />
    <glyph glyph-name="radical" unicode="&#x221a;" horiz-adv-x="641" 
d="M621 712l-238 -832h-185l-90 385h-83v112h177l91 -380h2l204 715h122z" />
    <glyph glyph-name="infinity" unicode="&#x221e;" horiz-adv-x="674" 
d="M502 478q71 0 114 -46.5t43 -123.5t-43 -123.5t-114 -46.5q-94 0 -165 91q-72 -91 -165 -91q-71 0 -114 46.5t-43 123.5t43 123.5t114 46.5q93 0 165 -91q71 91 165 91zM184 240q46 0 96 68q-50 68 -96 68q-30 0 -47 -18.5t-17 -49.5t17 -49.5t47 -18.5zM490 240
q30 0 47 18.5t17 49.5t-17 49.5t-47 18.5q-47 0 -97 -68q50 -68 97 -68z" />
    <glyph glyph-name="integral" unicode="&#x222b;" horiz-adv-x="352" 
d="M275 720q35 0 69 -8v-99q-9 3 -25 3q-38 0 -56 -18.5t-18 -60.5v-564q0 -166 -168 -166q-35 0 -69 8v99q9 -3 25 -3q38 0 56 18.5t18 60.5v564q0 166 168 166z" />
    <glyph glyph-name="approxequal" unicode="&#x2248;" horiz-adv-x="566" 
d="M194 302q43 0 97 -38.5t77 -38.5q25 0 38.5 17t13.5 47h86q0 -75 -36.5 -120.5t-97.5 -45.5q-42 0 -96.5 38.5t-77.5 38.5q-24 0 -38 -17.5t-14 -46.5h-86q0 75 36.5 120.5t97.5 45.5zM194 511q43 0 97 -38.5t77 -38.5q24 0 38 17.5t14 46.5h86q0 -75 -36.5 -120.5
t-97.5 -45.5q-42 0 -96.5 38.5t-77.5 38.5q-25 0 -38.5 -17t-13.5 -47h-86q0 75 36.5 120.5t97.5 45.5z" />
    <glyph glyph-name="notequal" unicode="&#x2260;" horiz-adv-x="566" 
d="M502 357h-147l-46 -81h193v-109h-255l-67 -117h-98l67 117h-85v109h146l47 81h-193v109h254l67 117h99l-67 -117h85v-109z" />
    <glyph glyph-name="lessequal" unicode="&#x2264;" horiz-adv-x="566" 
d="M64 105h438v-105h-438v105zM502 559v-110l-309 -104v-2l309 -104v-110l-438 148v134z" />
    <glyph glyph-name="greaterequal" unicode="&#x2265;" horiz-adv-x="566" 
d="M502 105v-105h-438v105h438zM64 559l438 -148v-134l-438 -148v110l309 104v2l-309 104v110z" />
    <glyph glyph-name="lozenge" unicode="&#x25ca;" horiz-adv-x="644" 
d="M415 712l189 -356l-189 -356h-186l-189 356l189 356h186zM322 612l-138 -256l138 -256l138 256z" />
    <glyph glyph-name="apple" unicode="&#xf8ff;" horiz-adv-x="642" 
d="M151 777h340q62 0 98.5 -36.5t36.5 -98.5v-572q0 -62 -36.5 -98.5t-98.5 -36.5h-340q-62 0 -98.5 36.5t-36.5 98.5v572q0 62 36.5 98.5t98.5 36.5zM491 713h-340q-33 0 -52 -19t-19 -52v-572q0 -33 19 -52t52 -19h340q33 0 52 19t19 52v572q0 33 -19 52t-52 19zM379 177
v-112h-128v112h128zM323 647q84 0 132 -40.5t48 -110.5q0 -41 -15 -69.5t-57 -67.5q-40 -37 -52.5 -64t-12.5 -76h-102q-1 11 -1 31q0 55 13 85t54 72q30 30 38.5 46.5t8.5 40.5t-14 38t-40 14q-63 0 -64 -80h-125q1 88 50.5 134.5t138.5 46.5z" />
    <glyph glyph-name="ff" unicode="&#xfb00;" horiz-adv-x="652" 
d="M683 720q39 0 73 -10l-24 -97q-9 3 -23 3q-39 0 -62 -20t-35 -67l-5 -21h95l-26 -104h-95l-101 -404h-138l101 404h-173l-101 -404h-138l101 404h-85l26 104h85l14 58q38 154 200 154q39 0 73 -10l-24 -97q-9 3 -23 3q-39 0 -62 -20t-35 -67l-5 -21h173l14 58
q39 154 200 154z" />
    <glyph glyph-name="fi" unicode="&#xfb01;" horiz-adv-x="617" 
d="M365 404h-95l-101 -404h-138l101 404h-85l26 104h85l14 58q38 154 200 154q39 0 73 -10l-24 -97q-9 3 -23 3q-39 0 -62 -20t-35 -67l-5 -21h95zM346 0l126 508h140l-126 -508h-140zM523 712h140l-30 -120h-140z" />
    <glyph glyph-name="fl" unicode="&#xfb02;" horiz-adv-x="617" 
d="M365 404h-95l-101 -404h-138l101 404h-85l26 104h85l14 58q38 154 200 154q39 0 73 -10l-24 -97q-9 3 -23 3q-39 0 -62 -20t-35 -67l-5 -21h95zM523 712h140l-177 -712h-140z" />
    <glyph glyph-name="ffi" unicode="&#xfb03;" horiz-adv-x="928" 
d="M676 404h-95l-101 -404h-138l101 404h-173l-101 -404h-138l101 404h-85l26 104h85l14 58q38 154 200 154q39 0 73 -10l-24 -97q-9 3 -23 3q-39 0 -62 -20t-35 -67l-5 -21h173l14 58q39 154 200 154q39 0 73 -10l-24 -97q-9 3 -23 3q-39 0 -62 -20t-35 -67l-5 -21h95z
M657 0l126 508h140l-126 -508h-140zM834 712h140l-30 -120h-140z" />
    <glyph glyph-name="ffl" unicode="&#xfb04;" horiz-adv-x="928" 
d="M676 404h-95l-101 -404h-138l101 404h-173l-101 -404h-138l101 404h-85l26 104h85l14 58q38 154 200 154q39 0 73 -10l-24 -97q-9 3 -23 3q-39 0 -62 -20t-35 -67l-5 -21h173l14 58q39 154 200 154q39 0 73 -10l-24 -97q-9 3 -23 3q-39 0 -62 -20t-35 -67l-5 -21h95z
M834 712h140l-177 -712h-140z" />
    <glyph glyph-name="uniFEFF" unicode="&#xfeff;" horiz-adv-x="0" 
 />
    <glyph glyph-name="J.acute.loclNLD" horiz-adv-x="392" 
d="M282 712h147l-125 -501q-28 -112 -95 -165t-184 -53q-41 0 -73 10l31 123q22 -5 40 -5q60 0 93.5 30t54.5 115zM572 916l-170 -146h-116l107 146h179z" />
    <glyph glyph-name="Ccedilla.ss01" horiz-adv-x="702" 
d="M453 728q118 0 187 -63.5t69 -169.5q0 -24 -4 -44h-148q2 18 2 28q0 56 -31.5 87.5t-87.5 31.5q-72 0 -126.5 -52t-79 -122.5t-24.5 -141.5q0 -77 33 -122.5t97 -45.5q55 0 101 32.5t68 89.5h151q-37 -119 -125.5 -185.5t-207.5 -66.5q-128 0 -198.5 77.5t-70.5 210.5
q0 62 15 125t47.5 122.5t78 106t111.5 74.5t143 28zM381 -49l-132 -168h-169l175 168h126z" />
    <glyph glyph-name="Scedilla.ss01" horiz-adv-x="630" 
d="M395 728q244 0 244 -181q0 -23 -8 -53h-149q3 15 3 29q0 88 -108 88q-50 0 -84 -24.5t-34 -61.5q0 -34 29 -54.5t100 -43.5q46 -15 74 -28.5t58.5 -36.5t45 -58.5t14.5 -84.5q0 -89 -81 -162t-220 -73q-125 0 -194 50t-69 144q0 28 7 56h152q-4 -17 -4 -36q0 -95 125 -95
q62 0 95 29.5t33 64.5q0 21 -6.5 36t-25 27t-35.5 19t-53 20q-40 14 -61.5 22.5t-52 26.5t-46 37t-27.5 49.5t-12 69.5q0 84 78.5 154t211.5 70zM325 -49l-132 -168h-169l175 168h126z" />
    <glyph glyph-name="Tcedilla.ss01" horiz-adv-x="615" 
d="M719 712l-31 -126h-224l-146 -586h-147l146 586h-224l31 126h595zM310 -49l-132 -168h-169l175 168h126z" />
    <glyph glyph-name="idotaccent" horiz-adv-x="276" 
d="M271 508l-126 -508h-140l126 508h140zM322 712l-30 -120h-140l30 120h140z" />
    <glyph glyph-name="j.acute.loclNLD" horiz-adv-x="278" 
d="M133 508h140l-133 -535q-21 -84 -75.5 -123.5t-130.5 -39.5q-44 0 -75 9l25 100q11 -3 23 -3q41 0 65.5 22.5t38.5 79.5zM419 712l-170 -146h-116l107 146h179z" />
    <glyph glyph-name="ccedilla.ss01" horiz-adv-x="562" 
d="M330 524q100 0 157 -51.5t57 -136.5q0 -18 -2 -27h-146q2 10 2 19q0 41 -20 64.5t-56 23.5q-65 0 -105.5 -70t-40.5 -138q0 -55 21.5 -85.5t62.5 -30.5q37 0 67.5 26t43.5 71h147q-29 -93 -101.5 -149t-164.5 -56q-103 0 -161 59t-58 164q0 53 19 107t54 102t94 78
t130 30zM308 -49l-132 -168h-169l175 168h126z" />
    <glyph glyph-name="scedilla.ss01" horiz-adv-x="524" 
d="M305 524q93 0 142.5 -35.5t49.5 -104.5q0 -16 -3 -32h-133q2 14 2 21q0 53 -70 53q-38 0 -56 -15t-18 -35q0 -21 19 -34t73 -32q29 -10 43.5 -15.5t38 -19t35.5 -27.5t21.5 -37.5t9.5 -53.5q0 -70 -63 -121.5t-178 -51.5q-100 0 -154.5 36.5t-54.5 108.5q0 20 5 36h141
q-3 -12 -3 -22q0 -58 78 -58q38 0 59 15t21 40q0 26 -21.5 40t-76.5 33q-35 12 -51 19t-40 23.5t-34 41.5t-10 61q0 66 60 116t168 50zM268 -49l-132 -168h-169l175 168h126z" />
    <glyph glyph-name="tcedilla.ss01" horiz-adv-x="357" 
d="M364 404h-97l-53 -213q-5 -23 -5 -36q0 -27 12.5 -38.5t41.5 -11.5q15 0 33 4l-28 -109q-24 -7 -55 -7q-77 0 -113 30t-36 97q0 30 11 74l52 210h-82l26 104h82l33 132h140l-33 -132h97zM-95 -217l175 168h126l-132 -168h-169z" />
    <glyph glyph-name="a.sups" horiz-adv-x="413" 
d="M294 697q150 0 150 -114q0 -21 -6 -47l-26 -105q-17 -67 -14 -101h-107q0 22 5 40h-2q-52 -49 -122 -49q-53 0 -81.5 26t-28.5 71q0 125 265 137l2 7q3 10 3 21q0 39 -45 39q-47 0 -58 -49h-116q12 53 59.5 88.5t121.5 35.5zM306 470l5 21q-37 -2 -67 -8q-60 -10 -60 -50
q0 -34 41 -34q63 0 81 71z" />
    <glyph glyph-name="b.sups" horiz-adv-x="446" 
d="M311 828l-42 -168h1q42 36 93 36q60 0 93 -37.5t33 -104.5q0 -85 -54.5 -159.5t-144.5 -74.5q-72 0 -94 57h-1l-12 -47h-116l124 498h120zM311 605q-40 0 -64.5 -41t-24.5 -85q0 -32 13.5 -50t37.5 -18q40 0 64.5 40.5t24.5 85.5q0 32 -13.5 50t-37.5 18z" />
    <glyph glyph-name="c.sups" horiz-adv-x="420" 
d="M307 697q77 0 121 -37t44 -100q0 -6 -2 -18h-125q2 6 2 13q0 51 -48 51q-41 0 -65 -43.5t-24 -85.5q0 -68 50 -68q22 0 40 15.5t26 42.5h125q-21 -68 -74.5 -108t-124.5 -40q-78 0 -122 43t-44 118q0 50 23.5 98t75.5 83.5t122 35.5z" />
    <glyph glyph-name="d.sups" horiz-adv-x="446" 
d="M542 828l-124 -498h-116l8 30h-2q-43 -40 -98 -40q-60 0 -93 37.5t-33 104.5q0 85 55 159.5t145 74.5q66 0 91 -51h1l45 183h121zM300 605q-40 0 -64.5 -41t-24.5 -86q0 -67 51 -67q40 0 64.5 40.5t24.5 85.5q0 32 -13.5 50t-37.5 18z" />
    <glyph glyph-name="e.sups" horiz-adv-x="428" 
d="M460 483h-258q-3 -15 -3 -26q0 -58 57 -58q49 0 65 40h122q-22 -52 -73.5 -86t-115.5 -34q-82 0 -124.5 43t-42.5 117q0 80 57.5 149t157.5 69q80 0 123 -41.5t43 -112.5q0 -25 -8 -60zM299 619q-56 0 -81 -69h137q1 5 1 15q0 54 -57 54z" />
    <glyph glyph-name="egrave.sups" horiz-adv-x="428" 
d="M460 483h-258q-3 -15 -3 -26q0 -58 57 -58q49 0 65 40h122q-22 -52 -73.5 -86t-115.5 -34q-82 0 -124.5 43t-42.5 117q0 80 57.5 149t157.5 69q80 0 123 -41.5t43 -112.5q0 -25 -8 -60zM299 619q-56 0 -81 -69h137q1 5 1 15q0 54 -57 54zM379 724h-100l-97 104h145z" />
    <glyph glyph-name="f.sups" horiz-adv-x="262" 
d="M338 835q30 0 60 -8l-20 -81q-8 2 -17 2q-53 0 -67 -55l-2 -7h67l-21 -87h-68l-67 -269h-119l67 269h-58l21 87h58l9 35q30 114 157 114z" />
    <glyph glyph-name="g.sups" horiz-adv-x="440" 
d="M273 696q38 0 64 -17.5t37 -46.5h1l14 54h112l-89 -357q-17 -68 -70 -102t-134 -34q-76 0 -115.5 25.5t-39.5 71.5q0 11 2 18h113q-1 -3 -1 -7q0 -31 48 -31q64 0 84 72l6 26h-1q-43 -34 -93 -34q-59 0 -91 39t-32 108q0 77 50.5 146t134.5 69zM294 602q-36 0 -58.5 -36
t-22.5 -72q0 -31 13.5 -48.5t37.5 -17.5q38 0 60.5 35t22.5 73q0 31 -14 48.5t-39 17.5z" />
    <glyph glyph-name="h.sups" horiz-adv-x="446" 
d="M311 828l-43 -171h1q45 38 98 38t83 -27.5t30 -78.5q0 -24 -7 -51l-52 -208h-120l51 204q4 16 4 31q0 37 -40 37q-61 0 -83 -89l-46 -183h-120l124 498h120z" />
    <glyph glyph-name="i.sups" horiz-adv-x="215" 
d="M275 686l-88 -356h-120l88 356h120zM311 828l-23 -93h-120l23 93h120z" />
    <glyph glyph-name="j.sups" horiz-adv-x="218" 
d="M158 686h120l-92 -367q-15 -62 -56.5 -92t-99.5 -30q-42 0 -65 8l20 82q8 -2 15 -2q30 0 48 16t28 57zM313 828l-22 -93h-121l23 93h120z" />
    <glyph glyph-name="k.sups" horiz-adv-x="411" 
d="M514 686l-174 -175l97 -181h-132l-74 167h-2l-42 -167h-120l124 498h120l-69 -275h2l118 133h152z" />
    <glyph glyph-name="l.sups" horiz-adv-x="215" 
d="M311 828l-124 -498h-120l124 498h120z" />
    <glyph glyph-name="m.sups" horiz-adv-x="662" 
d="M589 695q51 0 79 -27t28 -78q0 -20 -7 -53l-52 -207h-120l51 206q5 20 5 30q0 36 -36 36q-56 0 -80 -92l-45 -180h-120l52 210q4 13 4 26q0 36 -36 36q-57 0 -80 -92l-45 -180h-120l88 356h112l-8 -36h1q47 45 104 45q80 0 96 -64q57 64 129 64z" />
    <glyph glyph-name="n.sups" horiz-adv-x="445" 
d="M366 695q54 0 83.5 -27.5t29.5 -78.5q0 -24 -7 -51l-52 -208h-120l51 204q4 16 4 31q0 37 -40 37q-61 0 -83 -89l-46 -183h-120l89 356h112l-10 -37h2q48 46 107 46z" />
    <glyph glyph-name="o.sups" horiz-adv-x="442" 
d="M305 697q84 0 130 -43.5t46 -120.5q0 -50 -23.5 -97.5t-75 -82t-119.5 -34.5q-83 0 -129 43.5t-46 120.5q0 50 23 97.5t74.5 82t119.5 34.5zM300 606q-42 0 -65 -41t-23 -85q0 -71 56 -71q42 0 65 41t23 85q0 71 -56 71z" />
    <glyph glyph-name="p.sups" horiz-adv-x="445" 
d="M362 696q60 0 93 -37.5t33 -104.5q0 -85 -54.5 -159.5t-144.5 -74.5q-67 0 -91 50h-2l-42 -169h-120l121 485h116l-8 -31h1q43 41 98 41zM310 605q-39 0 -63.5 -41t-24.5 -85q0 -32 13.5 -50t37.5 -18q40 0 64.5 41t24.5 85q0 32 -13.5 50t-38.5 18z" />
    <glyph glyph-name="q.sups" horiz-adv-x="447" 
d="M284 696q32 0 57.5 -15t35.5 -43h2l12 48h115l-120 -485h-120l38 155h-1q-41 -36 -93 -36q-60 0 -93 37.5t-33 104.5q0 85 55 159.5t145 74.5zM300 605q-40 0 -64.5 -41t-24.5 -86q0 -67 51 -67q40 0 64.5 40.5t24.5 85.5q0 32 -13.5 50t-37.5 18z" />
    <glyph glyph-name="r.sups" horiz-adv-x="305" 
d="M373 691q21 0 33 -4l-24 -103q-16 4 -37 4q-94 0 -119 -105l-39 -153h-120l88 356h111l-10 -44h1q50 49 116 49z" />
    <glyph glyph-name="s.sups" horiz-adv-x="396" 
d="M293 697q148 0 148 -95q0 -16 -3 -24h-114q2 8 2 13q0 31 -43 31q-23 0 -34 -8.5t-11 -19.5q0 -13 13 -21.5t50 -20.5q26 -9 41.5 -15.5t35 -19.5t28.5 -31.5t9 -43.5q0 -50 -47.5 -86.5t-135.5 -36.5q-163 0 -163 100q0 14 4 27h121q-2 -6 -2 -15q0 -34 49 -34t49 31
q0 16 -15 24.5t-56 22.5q-25 8 -38.5 13.5t-30.5 17t-24.5 29.5t-7.5 43q0 48 45.5 83.5t129.5 35.5z" />
    <glyph glyph-name="t.sups" horiz-adv-x="272" 
d="M338 599h-70l-30 -121q-3 -15 -3 -25q0 -34 38 -34q13 0 24 3l-23 -92q-26 -6 -47 -6q-60 0 -88.5 23.5t-28.5 74.5q0 21 8 53l31 124h-57l21 87h58l24 96h119l-24 -96h69z" />
    <glyph glyph-name="u.sups" horiz-adv-x="446" 
d="M206 321q-54 0 -83.5 27.5t-29.5 78.5q0 24 7 51l52 208h120l-51 -204q-4 -16 -4 -31q0 -37 40 -37q61 0 83 89l46 183h120l-89 -356h-112l10 37h-2q-48 -46 -107 -46z" />
    <glyph glyph-name="v.sups" horiz-adv-x="387" 
d="M499 686l-207 -356h-160l-29 356h120l3 -128q2 -83 -1 -151h2q30 74 69 151l68 128h135z" />
    <glyph glyph-name="w.sups" horiz-adv-x="612" 
d="M716 686l-170 -356h-164l4 132q4 101 7 149h-2q-23 -69 -61 -149l-62 -132h-164l7 356h112l-10 -130q-5 -83 -13 -150h2q32 81 66 151l62 129h156l-2 -129q0 -76 -6 -151h2q21 67 58 150l56 130h122z" />
    <glyph glyph-name="x.sups" horiz-adv-x="386" 
d="M489 686l-160 -178l80 -178h-126l-36 108h-2l-82 -108h-148l171 187l-75 169h126l32 -97h2l71 97h147z" />
    <glyph glyph-name="y.sups" horiz-adv-x="387" 
d="M365 686h134l-211 -349q-49 -81 -94 -111t-116 -30q-33 0 -57 6l22 90q15 -5 32 -5q33 0 52 16.5t19 42.5q0 13 -6 54l-37 286h120l7 -119q4 -98 2 -148h1q33 76 70 148z" />
    <glyph glyph-name="z.sups" horiz-adv-x="359" 
d="M442 686l-24 -97l-205 -165v-2h168l-22 -92h-320l24 97l205 165v2h-157l23 92h308z" />
    <glyph glyph-name="a.smcp" horiz-adv-x="586" 
d="M377 0l-6 107h-208l-60 -107h-163l330 548h192l58 -548h-143zM230 226h134l-2 34q-8 103 -11 194h-2q-42 -90 -100 -194z" />
    <glyph glyph-name="aacute.smcp" horiz-adv-x="586" 
d="M270 548h192l58 -548h-143l-6 107h-208l-60 -107h-163zM230 226h134l-2 34q-8 103 -11 194h-2q-42 -90 -100 -194zM572 752l-170 -146h-116l107 146h179z" />
    <glyph glyph-name="abreve.smcp" horiz-adv-x="586" 
d="M270 548h192l58 -548h-143l-6 107h-208l-60 -107h-163zM230 226h134l-2 34q-8 103 -11 194h-2q-42 -90 -100 -194zM475 752h107q-20 -72 -75 -111.5t-133 -39.5q-68 0 -106 32.5t-38 90.5q0 8 2 28h83q-1 -5 -1 -13q0 -51 67 -51q76 0 94 64z" />
    <glyph glyph-name="acircumflex.smcp" horiz-adv-x="586" 
d="M270 548h192l58 -548h-143l-6 107h-208l-60 -107h-163zM230 226h134l-2 34q-8 103 -11 194h-2q-42 -90 -100 -194zM399 682l-79 -76h-138l150 146h149l78 -146h-118z" />
    <glyph glyph-name="adieresis.smcp" horiz-adv-x="586" 
d="M270 548h192l58 -548h-143l-6 107h-208l-60 -107h-163zM230 226h134l-2 34q-8 103 -11 194h-2q-42 -90 -100 -194zM360 752l-30 -120h-123l30 120h123zM454 752h123l-30 -120h-123z" />
    <glyph glyph-name="agrave.smcp" horiz-adv-x="586" 
d="M377 0l-6 107h-208l-60 -107h-163l330 548h192l58 -548h-143zM230 226h134l-2 34q-8 103 -11 194h-2q-42 -90 -100 -194zM456 606h-104l-110 146h167z" />
    <glyph glyph-name="amacron.smcp" horiz-adv-x="586" 
d="M270 548h192l58 -548h-143l-6 107h-208l-60 -107h-163zM230 226h134l-2 34q-8 103 -11 194h-2q-42 -90 -100 -194zM238 729h326l-22 -91h-326z" />
    <glyph glyph-name="aogonek.smcp" horiz-adv-x="586" 
d="M429 -98q0 -21 28 -21q21 0 37 6l-19 -75q-32 -9 -69 -9q-103 0 -103 75q0 65 107 122h-33l-6 107h-208l-60 -107h-163l330 548h192l58 -548q-91 -53 -91 -98zM230 226h134l-2 34q-8 103 -11 194h-2q-42 -90 -100 -194z" />
    <glyph glyph-name="aring.smcp" horiz-adv-x="586" 
d="M377 0l-6 107h-208l-60 -107h-163l330 548h192l58 -548h-143zM230 226h134l-2 34q-8 103 -11 194h-2q-42 -90 -100 -194zM385 596q-45 0 -76.5 31.5t-31.5 76.5t31.5 76.5t76.5 31.5t76.5 -31.5t31.5 -76.5t-31.5 -76.5t-76.5 -31.5zM385 758q-23 0 -38.5 -16t-15.5 -38
t15.5 -38t38.5 -16t38.5 16t15.5 38t-15.5 38t-38.5 16z" />
    <glyph glyph-name="atilde.smcp" horiz-adv-x="586" 
d="M270 548h192l58 -548h-143l-6 107h-208l-60 -107h-163zM230 226h134l-2 34q-8 103 -11 194h-2q-42 -90 -100 -194zM517 752h78q-18 -63 -55.5 -99t-87.5 -36q-37 0 -73.5 23t-55.5 23q-41 0 -57 -46h-80q17 63 55 99t88 36q37 0 74 -23t55 -23q41 0 59 46z" />
    <glyph glyph-name="ae.smcp" horiz-adv-x="815" 
d="M808 428h-258l-9 -92h224l-29 -118h-205l-9 -98h215l-30 -120h-335l11 115h-199l-79 -115h-173l394 548h512zM265 233h129l18 199h-11z" />
    <glyph glyph-name="b.smcp" horiz-adv-x="566" 
d="M6 0l136 548h214q93 0 139.5 -34t46.5 -94q0 -49 -33.5 -88t-100.5 -54v-2q87 -19 87 -101q0 -69 -60 -122t-170 -53h-259zM264 224h-59l-28 -112h74q57 0 77 17t20 47q0 26 -19.5 37t-64.5 11zM322 437h-64l-27 -107h71q54 0 74 16t20 45q0 46 -74 46z" />
    <glyph glyph-name="c.smcp" horiz-adv-x="589" 
d="M355 564q102 0 159 -49.5t57 -137.5q0 -19 -3 -38h-149q1 5 1 16q1 41 -20.5 62.5t-61.5 21.5q-50 0 -87.5 -37.5t-54.5 -86t-18 -95.5q2 -111 95 -111q83 0 114 78h152q-31 -97 -107 -150t-180 -53q-107 0 -165 59t-58 167q0 48 13 97t40 95t64.5 82t92 58t116.5 22z
" />
    <glyph glyph-name="cacute.smcp" horiz-adv-x="589" 
d="M355 564q102 0 159 -49.5t57 -137.5q0 -19 -3 -38h-149q1 5 1 16q1 41 -20.5 62.5t-61.5 21.5q-50 0 -87.5 -37.5t-54.5 -86t-18 -95.5q2 -111 95 -111q83 0 114 78h152q-31 -97 -107 -150t-180 -53q-107 0 -165 59t-58 167q0 48 13 97t40 95t64.5 82t92 58t116.5 22z
M567 752l-170 -146h-116l107 146h179z" />
    <glyph glyph-name="ccaron.smcp" horiz-adv-x="589" 
d="M355 564q102 0 159 -49.5t57 -137.5q0 -19 -3 -38h-149q1 5 1 16q1 41 -20.5 62.5t-61.5 21.5q-50 0 -87.5 -37.5t-54.5 -86t-18 -95.5q2 -111 95 -111q83 0 114 78h152q-31 -97 -107 -150t-180 -53q-107 0 -165 59t-58 167q0 48 13 97t40 95t64.5 82t92 58t116.5 22z
M590 752l-150 -146h-149l-78 146h118l42 -76l79 76h138z" />
    <glyph glyph-name="ccedilla.smcp" horiz-adv-x="589" 
d="M568 339h-149q1 5 1 16q1 41 -20.5 62.5t-61.5 21.5q-50 0 -87.5 -37.5t-54.5 -86t-18 -95.5q2 -111 95 -111q83 0 114 78h152q-28 -89 -94.5 -141t-158.5 -60l-40 -46q9 3 23 3q31 0 51 -19t20 -51q0 -42 -41 -70.5t-100 -28.5q-60 0 -106 30l25 45q38 -22 79 -22
q26 0 41.5 11t15.5 29q0 33 -38 33q-18 0 -34 -6l-20 18l65 73q-96 7 -147 65.5t-51 159.5q0 48 13 97t40 95t64.5 82t92 58t116.5 22q102 0 159 -49.5t57 -137.5q0 -19 -3 -38z" />
    <glyph glyph-name="ccircumflex.smcp" horiz-adv-x="589" 
d="M355 564q102 0 159 -49.5t57 -137.5q0 -19 -3 -38h-149q1 5 1 16q1 41 -20.5 62.5t-61.5 21.5q-50 0 -87.5 -37.5t-54.5 -86t-18 -95.5q2 -111 95 -111q83 0 114 78h152q-31 -97 -107 -150t-180 -53q-107 0 -165 59t-58 167q0 48 13 97t40 95t64.5 82t92 58t116.5 22z
M476 752l78 -146h-118l-42 76l-79 -76h-138l150 146h149z" />
    </font>
</defs>
</svg>
